%TF.GenerationSoftware,KiCad,Pcbnew,(6.0.5-0)*%
%TF.CreationDate,2022-06-15T10:42:44+02:00*%
%TF.ProjectId,speaker,73706561-6b65-4722-9e6b-696361645f70,rev?*%
%TF.SameCoordinates,Original*%
%TF.FileFunction,Copper,L2,Inr*%
%TF.FilePolarity,Positive*%
%FSLAX46Y46*%
G04 Gerber Fmt 4.6, Leading zero omitted, Abs format (unit mm)*
G04 Created by KiCad (PCBNEW (6.0.5-0)) date 2022-06-15 10:42:44*
%MOMM*%
%LPD*%
G01*
G04 APERTURE LIST*
%TA.AperFunction,Profile*%
%ADD10C,0.088304*%
%TD*%
%TA.AperFunction,ComponentPad*%
%ADD11C,2.000000*%
%TD*%
%TA.AperFunction,ComponentPad*%
%ADD12C,2.600000*%
%TD*%
%TA.AperFunction,ViaPad*%
%ADD13C,0.685800*%
%TD*%
%TA.AperFunction,ViaPad*%
%ADD14C,0.600000*%
%TD*%
G04 APERTURE END LIST*
D10*
X57987239Y-73149866D02*
X85700040Y-89150019D01*
X85700040Y-25149982D02*
X57987239Y-41149998D01*
X85700040Y-25149982D02*
X85700040Y-25149982D01*
X57987239Y-73149866D02*
X57987239Y-73149866D01*
X85700040Y-89150019D02*
X113412761Y-73149866D01*
X57987239Y-41149998D02*
X57987239Y-41149998D01*
X113412761Y-41149998D02*
X85700040Y-25149982D01*
X113412761Y-41149998D02*
X113412761Y-41149998D01*
X57987239Y-41149998D02*
X57987239Y-73149866D01*
X113412761Y-73149866D02*
X113412761Y-41149998D01*
X113412761Y-73149866D02*
X113412761Y-73149866D01*
D11*
%TO.N,/Trancducer Sig*%
%TO.C,M15*%
X94900000Y-59950000D03*
%TO.N,GND*%
X94900000Y-64950000D03*
%TD*%
%TO.N,/Trancducer Sig*%
%TO.C,M6*%
X94900000Y-70600000D03*
%TO.N,GND*%
X94900000Y-75600000D03*
%TD*%
%TO.N,/Trancducer Sig*%
%TO.C,M7*%
X85700000Y-75950000D03*
%TO.N,GND*%
X85700000Y-80950000D03*
%TD*%
%TO.N,/Trancducer Sig*%
%TO.C,M11*%
X67300000Y-44000000D03*
%TO.N,GND*%
X67300000Y-49000000D03*
%TD*%
%TO.N,/Trancducer Sig*%
%TO.C,M12*%
X76450000Y-38650000D03*
%TO.N,GND*%
X76450000Y-43650000D03*
%TD*%
%TO.N,/Trancducer Sig*%
%TO.C,M9*%
X67300000Y-65300000D03*
%TO.N,GND*%
X67300000Y-70300000D03*
%TD*%
%TO.N,/Trancducer Sig*%
%TO.C,M19*%
X85700000Y-54650000D03*
%TO.N,GND*%
X85700000Y-59650000D03*
%TD*%
%TO.N,/Trancducer Sig*%
%TO.C,M5*%
X104100000Y-65300000D03*
%TO.N,GND*%
X104100000Y-70300000D03*
%TD*%
%TO.N,/Trancducer Sig*%
%TO.C,M1*%
X85700000Y-33350000D03*
%TO.N,GND*%
X85700000Y-38350000D03*
%TD*%
%TO.N,/Trancducer Sig*%
%TO.C,M14*%
X94900000Y-49300000D03*
%TO.N,GND*%
X94900000Y-54300000D03*
%TD*%
%TO.N,/Trancducer Sig*%
%TO.C,M8*%
X76500000Y-70600000D03*
%TO.N,GND*%
X76500000Y-75600000D03*
%TD*%
%TO.N,/Trancducer Sig*%
%TO.C,M16*%
X85700000Y-65300000D03*
%TO.N,GND*%
X85700000Y-70300000D03*
%TD*%
%TO.N,/Trancducer Sig*%
%TO.C,M13*%
X85700000Y-44000000D03*
%TO.N,GND*%
X85700000Y-49000000D03*
%TD*%
%TO.N,/Trancducer Sig*%
%TO.C,M4*%
X104100000Y-54650000D03*
%TO.N,GND*%
X104100000Y-59650000D03*
%TD*%
%TO.N,/Trancducer Sig*%
%TO.C,M3*%
X104100000Y-44000000D03*
%TO.N,GND*%
X104100000Y-49000000D03*
%TD*%
%TO.N,/Trancducer Sig*%
%TO.C,M2*%
X94850000Y-38650000D03*
%TO.N,GND*%
X94850000Y-43650000D03*
%TD*%
%TO.N,/Trancducer Sig*%
%TO.C,M10*%
X67300000Y-54650000D03*
%TO.N,GND*%
X67300000Y-59650000D03*
%TD*%
%TO.N,/Trancducer Sig*%
%TO.C,M17*%
X76500000Y-59950000D03*
%TO.N,GND*%
X76500000Y-64950000D03*
%TD*%
%TO.N,/Trancducer Sig*%
%TO.C,M18*%
X76500000Y-49300000D03*
%TO.N,GND*%
X76500000Y-54300000D03*
%TD*%
%TO.N,/Audio Sig*%
%TO.C,TP3*%
X90800000Y-67900000D03*
%TD*%
%TO.N,/Trancducer Sig*%
%TO.C,TP2*%
X71100000Y-54650000D03*
%TD*%
%TO.N,+24V*%
%TO.C,TP1*%
X82400000Y-34000000D03*
%TD*%
D12*
%TO.N,GND*%
%TO.C,H1*%
X60800000Y-42800000D03*
%TD*%
%TO.N,GND*%
%TO.C,H2*%
X60800000Y-71500000D03*
%TD*%
%TO.N,GND*%
%TO.C,H4*%
X110600000Y-42800000D03*
%TD*%
%TO.N,GND*%
%TO.C,H3*%
X110600000Y-71500000D03*
%TD*%
D13*
%TO.N,+5V*%
X98200000Y-58100000D03*
D14*
X93100000Y-40900000D03*
D13*
X99250000Y-58100000D03*
X84537500Y-74462500D03*
D14*
X94900000Y-40900000D03*
D13*
X97150000Y-58100000D03*
D14*
X94000000Y-40900000D03*
X93100000Y-32200000D03*
D13*
X97800000Y-69450000D03*
D14*
X95800000Y-40900000D03*
%TO.N,GND*%
X85350000Y-40250000D03*
D13*
X80500000Y-59450000D03*
D14*
X73600000Y-33550000D03*
X86300000Y-41150000D03*
D13*
X72600000Y-51900000D03*
X74150000Y-71600000D03*
X80500000Y-54750000D03*
X88700000Y-76650000D03*
X81400000Y-69900000D03*
X87050000Y-51950000D03*
D14*
X74550000Y-32700000D03*
D13*
X74050000Y-66650000D03*
D14*
X85350000Y-41150000D03*
D13*
X72600000Y-59000000D03*
X79850000Y-72950000D03*
X87400000Y-76650000D03*
D14*
X91700000Y-56400000D03*
X86300000Y-40250000D03*
D13*
X83150000Y-63200000D03*
D14*
X73600000Y-35050000D03*
%TO.N,+24V*%
X83850000Y-30300000D03*
D13*
X80000000Y-51400000D03*
D14*
X80850000Y-30300000D03*
D13*
X86650000Y-61350000D03*
D14*
X82850000Y-30300000D03*
D13*
X69450000Y-64350000D03*
D14*
X79850000Y-30300000D03*
D13*
X81000000Y-51400000D03*
D14*
X81850000Y-30300000D03*
D13*
%TO.N,/CS*%
X72218933Y-79450000D03*
X59945000Y-60795000D03*
X63500000Y-70750000D03*
X92900000Y-77300000D03*
X65300000Y-40000000D03*
X90750000Y-79450000D03*
%TO.N,/SCL*%
X91530000Y-77280000D03*
X72600000Y-74550000D03*
%TO.N,/SDA*%
X111455000Y-62595000D03*
X111450000Y-49150000D03*
X98246728Y-78703272D03*
X107200000Y-72300000D03*
%TO.N,Net-(C10-Pad1)*%
X78950000Y-59037500D03*
X82750000Y-57100000D03*
%TD*%
%TA.AperFunction,Conductor*%
%TO.N,+24V*%
G36*
X86202559Y-25649984D02*
G01*
X86244559Y-25661238D01*
X86733464Y-25943508D01*
X86764210Y-25974254D01*
X87437227Y-27139956D01*
X87448481Y-27181956D01*
X87448481Y-51441874D01*
X87428829Y-51495868D01*
X87379067Y-51524598D01*
X87318794Y-51512362D01*
X87267561Y-51479155D01*
X87261831Y-51477441D01*
X87261828Y-51477440D01*
X87132398Y-51438732D01*
X87132396Y-51438732D01*
X87126666Y-51437018D01*
X87120686Y-51436981D01*
X87120683Y-51436981D01*
X87051318Y-51436558D01*
X86979607Y-51436120D01*
X86838208Y-51476532D01*
X86713834Y-51555006D01*
X86616484Y-51665233D01*
X86553985Y-51798353D01*
X86553065Y-51804264D01*
X86553064Y-51804266D01*
X86540066Y-51887749D01*
X86531360Y-51943663D01*
X86532136Y-51949597D01*
X86532136Y-51949598D01*
X86546976Y-52063081D01*
X86550428Y-52089483D01*
X86609656Y-52224090D01*
X86613505Y-52228669D01*
X86613507Y-52228672D01*
X86700431Y-52332080D01*
X86700433Y-52332082D01*
X86704284Y-52336663D01*
X86826703Y-52418152D01*
X86967073Y-52462007D01*
X86973050Y-52462117D01*
X86973053Y-52462117D01*
X87047527Y-52463482D01*
X87114109Y-52464702D01*
X87119881Y-52463128D01*
X87119884Y-52463128D01*
X87250219Y-52427594D01*
X87250220Y-52427594D01*
X87255992Y-52426020D01*
X87268807Y-52418152D01*
X87320529Y-52386394D01*
X87376825Y-52374890D01*
X87427345Y-52402263D01*
X87448481Y-52457978D01*
X87448481Y-65482571D01*
X87428829Y-65536565D01*
X87423878Y-65541968D01*
X86473084Y-66492762D01*
X86421008Y-66517045D01*
X86413687Y-66517365D01*
X86243830Y-66517365D01*
X86189836Y-66497713D01*
X86161106Y-66447951D01*
X86171084Y-66391365D01*
X86202786Y-66360075D01*
X86209731Y-66356186D01*
X86275195Y-66319525D01*
X86362459Y-66270655D01*
X86362462Y-66270653D01*
X86365819Y-66268773D01*
X86531215Y-66131215D01*
X86668773Y-65965819D01*
X86773886Y-65778125D01*
X86801800Y-65695893D01*
X86841799Y-65578061D01*
X86841800Y-65578058D01*
X86843035Y-65574419D01*
X86873904Y-65361522D01*
X86875515Y-65300000D01*
X86855831Y-65085779D01*
X86797438Y-64878733D01*
X86795735Y-64875279D01*
X86703998Y-64689255D01*
X86703994Y-64689249D01*
X86702291Y-64685795D01*
X86573578Y-64513427D01*
X86546380Y-64488285D01*
X86418432Y-64370011D01*
X86418429Y-64370009D01*
X86415608Y-64367401D01*
X86412361Y-64365352D01*
X86412358Y-64365350D01*
X86236924Y-64254659D01*
X86236922Y-64254658D01*
X86233673Y-64252608D01*
X86132841Y-64212380D01*
X86037439Y-64174319D01*
X86037436Y-64174318D01*
X86033864Y-64172893D01*
X85822875Y-64130925D01*
X85708557Y-64129428D01*
X85611618Y-64128159D01*
X85611614Y-64128159D01*
X85607770Y-64128109D01*
X85395754Y-64164540D01*
X85193928Y-64238997D01*
X85190620Y-64240965D01*
X85025410Y-64339255D01*
X85009050Y-64348988D01*
X84847312Y-64490829D01*
X84714130Y-64659769D01*
X84712340Y-64663172D01*
X84712337Y-64663176D01*
X84619843Y-64838981D01*
X84613966Y-64850150D01*
X84591324Y-64923070D01*
X84563097Y-65013976D01*
X84550173Y-65055597D01*
X84549721Y-65059416D01*
X84529761Y-65228061D01*
X84524888Y-65269229D01*
X84538958Y-65483891D01*
X84591911Y-65692395D01*
X84681974Y-65887757D01*
X84806131Y-66063436D01*
X84808890Y-66066124D01*
X84808892Y-66066126D01*
X84811668Y-66068830D01*
X84960224Y-66213547D01*
X85139093Y-66333063D01*
X85192914Y-66356186D01*
X85234766Y-66395556D01*
X85241520Y-66452617D01*
X85210016Y-66500670D01*
X85159756Y-66517365D01*
X74607796Y-66517365D01*
X74553803Y-66497713D01*
X74531330Y-66468133D01*
X74524276Y-66452617D01*
X74486962Y-66370551D01*
X74390967Y-66259142D01*
X74379662Y-66251814D01*
X74272583Y-66182410D01*
X74267561Y-66179155D01*
X74261831Y-66177441D01*
X74261828Y-66177440D01*
X74132398Y-66138732D01*
X74132396Y-66138732D01*
X74126666Y-66137018D01*
X74120686Y-66136981D01*
X74120683Y-66136981D01*
X74051318Y-66136558D01*
X73979607Y-66136120D01*
X73838208Y-66176532D01*
X73713834Y-66255006D01*
X73616484Y-66365233D01*
X73613943Y-66370644D01*
X73613943Y-66370645D01*
X73567736Y-66469064D01*
X73527000Y-66509587D01*
X73491701Y-66517365D01*
X67843829Y-66517364D01*
X67789837Y-66497713D01*
X67761107Y-66447951D01*
X67771085Y-66391365D01*
X67802787Y-66360075D01*
X67962458Y-66270655D01*
X67965819Y-66268773D01*
X68131215Y-66131215D01*
X68268773Y-65965819D01*
X68373886Y-65778125D01*
X68401800Y-65695893D01*
X68441799Y-65578061D01*
X68441800Y-65578058D01*
X68443035Y-65574419D01*
X68473904Y-65361522D01*
X68475515Y-65300000D01*
X68455831Y-65085779D01*
X68408859Y-64919229D01*
X75324888Y-64919229D01*
X75338958Y-65133891D01*
X75391911Y-65342395D01*
X75481974Y-65537757D01*
X75606131Y-65713436D01*
X75760224Y-65863547D01*
X75939093Y-65983063D01*
X76080021Y-66043610D01*
X76118845Y-66060290D01*
X76136746Y-66067981D01*
X76242007Y-66091799D01*
X76342808Y-66114608D01*
X76342809Y-66114608D01*
X76346565Y-66115458D01*
X76468982Y-66120268D01*
X76557673Y-66123753D01*
X76557676Y-66123753D01*
X76561522Y-66123904D01*
X76565328Y-66123352D01*
X76565331Y-66123352D01*
X76634641Y-66113302D01*
X76774419Y-66093035D01*
X76778058Y-66091800D01*
X76778061Y-66091799D01*
X76974475Y-66025125D01*
X76978125Y-66023886D01*
X77165819Y-65918773D01*
X77331215Y-65781215D01*
X77468773Y-65615819D01*
X77573886Y-65428125D01*
X77601800Y-65345893D01*
X77641799Y-65228061D01*
X77641800Y-65228058D01*
X77643035Y-65224419D01*
X77673904Y-65011522D01*
X77675515Y-64950000D01*
X77655831Y-64735779D01*
X77597438Y-64528733D01*
X77595735Y-64525279D01*
X77503998Y-64339255D01*
X77503994Y-64339249D01*
X77502291Y-64335795D01*
X77373578Y-64163427D01*
X77338418Y-64130925D01*
X77218432Y-64020011D01*
X77218429Y-64020009D01*
X77215608Y-64017401D01*
X77212361Y-64015352D01*
X77212358Y-64015350D01*
X77036924Y-63904659D01*
X77036922Y-63904658D01*
X77033673Y-63902608D01*
X76932841Y-63862380D01*
X76837439Y-63824319D01*
X76837436Y-63824318D01*
X76833864Y-63822893D01*
X76622875Y-63780925D01*
X76508557Y-63779428D01*
X76411618Y-63778159D01*
X76411614Y-63778159D01*
X76407770Y-63778109D01*
X76195754Y-63814540D01*
X75993928Y-63888997D01*
X75990620Y-63890965D01*
X75967603Y-63904659D01*
X75809050Y-63998988D01*
X75647312Y-64140829D01*
X75514130Y-64309769D01*
X75512340Y-64313172D01*
X75512337Y-64313176D01*
X75483808Y-64367401D01*
X75413966Y-64500150D01*
X75405091Y-64528733D01*
X75356322Y-64685795D01*
X75350173Y-64705597D01*
X75324888Y-64919229D01*
X68408859Y-64919229D01*
X68397438Y-64878733D01*
X68395735Y-64875279D01*
X68303998Y-64689255D01*
X68303994Y-64689249D01*
X68302291Y-64685795D01*
X68173578Y-64513427D01*
X68146380Y-64488285D01*
X68018432Y-64370011D01*
X68018429Y-64370009D01*
X68015608Y-64367401D01*
X68012361Y-64365352D01*
X68012358Y-64365350D01*
X67836924Y-64254659D01*
X67836922Y-64254658D01*
X67833673Y-64252608D01*
X67732841Y-64212380D01*
X67637439Y-64174319D01*
X67637436Y-64174318D01*
X67633864Y-64172893D01*
X67422875Y-64130925D01*
X67308557Y-64129428D01*
X67211618Y-64128159D01*
X67211614Y-64128159D01*
X67207770Y-64128109D01*
X66995754Y-64164540D01*
X66793928Y-64238997D01*
X66790620Y-64240965D01*
X66625410Y-64339255D01*
X66609050Y-64348988D01*
X66447312Y-64490829D01*
X66314130Y-64659769D01*
X66312340Y-64663172D01*
X66312337Y-64663176D01*
X66219843Y-64838981D01*
X66213966Y-64850150D01*
X66191324Y-64923070D01*
X66163097Y-65013976D01*
X66150173Y-65055597D01*
X66149721Y-65059416D01*
X66129761Y-65228061D01*
X66124888Y-65269229D01*
X66138958Y-65483891D01*
X66191911Y-65692395D01*
X66281974Y-65887757D01*
X66406131Y-66063436D01*
X66408890Y-66066124D01*
X66408892Y-66066126D01*
X66411668Y-66068830D01*
X66560224Y-66213547D01*
X66739093Y-66333063D01*
X66742624Y-66334580D01*
X66742630Y-66334583D01*
X66792913Y-66356187D01*
X66834765Y-66395557D01*
X66841518Y-66452619D01*
X66810013Y-66500671D01*
X66759756Y-66517364D01*
X59022033Y-66517364D01*
X58968039Y-66497712D01*
X58962636Y-66492761D01*
X58182342Y-65712467D01*
X58158059Y-65660391D01*
X58157739Y-65653070D01*
X58157739Y-63193663D01*
X82631360Y-63193663D01*
X82650428Y-63339483D01*
X82709656Y-63474090D01*
X82713505Y-63478669D01*
X82713507Y-63478672D01*
X82800431Y-63582080D01*
X82800433Y-63582082D01*
X82804284Y-63586663D01*
X82926703Y-63668152D01*
X83067073Y-63712007D01*
X83073050Y-63712117D01*
X83073053Y-63712117D01*
X83147527Y-63713482D01*
X83214109Y-63714702D01*
X83219881Y-63713128D01*
X83219884Y-63713128D01*
X83350219Y-63677594D01*
X83350220Y-63677594D01*
X83355992Y-63676020D01*
X83361090Y-63672890D01*
X83361092Y-63672889D01*
X83476216Y-63602202D01*
X83476217Y-63602201D01*
X83481315Y-63599071D01*
X83485328Y-63594637D01*
X83485331Y-63594635D01*
X83575991Y-63494475D01*
X83580004Y-63490042D01*
X83644126Y-63357696D01*
X83668524Y-63212672D01*
X83668679Y-63200000D01*
X83668219Y-63196787D01*
X83648679Y-63060344D01*
X83648679Y-63060343D01*
X83647831Y-63054424D01*
X83586962Y-62920551D01*
X83490967Y-62809142D01*
X83479662Y-62801814D01*
X83372583Y-62732410D01*
X83367561Y-62729155D01*
X83361831Y-62727441D01*
X83361828Y-62727440D01*
X83232398Y-62688732D01*
X83232396Y-62688732D01*
X83226666Y-62687018D01*
X83220686Y-62686981D01*
X83220683Y-62686981D01*
X83151318Y-62686558D01*
X83079607Y-62686120D01*
X82938208Y-62726532D01*
X82813834Y-62805006D01*
X82716484Y-62915233D01*
X82653985Y-63048353D01*
X82653065Y-63054264D01*
X82653064Y-63054266D01*
X82652118Y-63060344D01*
X82631360Y-63193663D01*
X58157739Y-63193663D01*
X58157739Y-60788663D01*
X59426360Y-60788663D01*
X59427136Y-60794597D01*
X59427136Y-60794598D01*
X59443374Y-60918773D01*
X59445428Y-60934483D01*
X59504656Y-61069090D01*
X59508505Y-61073669D01*
X59508507Y-61073672D01*
X59595431Y-61177080D01*
X59595433Y-61177082D01*
X59599284Y-61181663D01*
X59721703Y-61263152D01*
X59862073Y-61307007D01*
X59868050Y-61307117D01*
X59868053Y-61307117D01*
X59942527Y-61308482D01*
X60009109Y-61309702D01*
X60014881Y-61308128D01*
X60014884Y-61308128D01*
X60145219Y-61272594D01*
X60145220Y-61272594D01*
X60150992Y-61271020D01*
X60156090Y-61267890D01*
X60156092Y-61267889D01*
X60271216Y-61197202D01*
X60271217Y-61197201D01*
X60276315Y-61194071D01*
X60280328Y-61189637D01*
X60280331Y-61189635D01*
X60347336Y-61115609D01*
X60375004Y-61085042D01*
X60439126Y-60952696D01*
X60454577Y-60860857D01*
X60462986Y-60810870D01*
X60463524Y-60807672D01*
X60463679Y-60795000D01*
X60463219Y-60791787D01*
X60443679Y-60655344D01*
X60443679Y-60655343D01*
X60442831Y-60649424D01*
X60381962Y-60515551D01*
X60285967Y-60404142D01*
X60274662Y-60396814D01*
X60167583Y-60327410D01*
X60162561Y-60324155D01*
X60156831Y-60322441D01*
X60156828Y-60322440D01*
X60027398Y-60283732D01*
X60027396Y-60283732D01*
X60021666Y-60282018D01*
X60015686Y-60281981D01*
X60015683Y-60281981D01*
X59946318Y-60281558D01*
X59874607Y-60281120D01*
X59733208Y-60321532D01*
X59608834Y-60400006D01*
X59511484Y-60510233D01*
X59448985Y-60643353D01*
X59448065Y-60649264D01*
X59448064Y-60649266D01*
X59442802Y-60683063D01*
X59426360Y-60788663D01*
X58157739Y-60788663D01*
X58157739Y-59619229D01*
X66124888Y-59619229D01*
X66138958Y-59833891D01*
X66191911Y-60042395D01*
X66281974Y-60237757D01*
X66406131Y-60413436D01*
X66408890Y-60416124D01*
X66408892Y-60416126D01*
X66424661Y-60431487D01*
X66560224Y-60563547D01*
X66739093Y-60683063D01*
X66936746Y-60767981D01*
X67028148Y-60788663D01*
X67142808Y-60814608D01*
X67142809Y-60814608D01*
X67146565Y-60815458D01*
X67268982Y-60820268D01*
X67357673Y-60823753D01*
X67357676Y-60823753D01*
X67361522Y-60823904D01*
X67365328Y-60823352D01*
X67365331Y-60823352D01*
X67434641Y-60813302D01*
X67574419Y-60793035D01*
X67578058Y-60791800D01*
X67578061Y-60791799D01*
X67774475Y-60725125D01*
X67778125Y-60723886D01*
X67965819Y-60618773D01*
X68131215Y-60481215D01*
X68268773Y-60315819D01*
X68373886Y-60128125D01*
X68401800Y-60045893D01*
X68441799Y-59928061D01*
X68441800Y-59928058D01*
X68443035Y-59924419D01*
X68443788Y-59919229D01*
X75324888Y-59919229D01*
X75338958Y-60133891D01*
X75391911Y-60342395D01*
X75481974Y-60537757D01*
X75606131Y-60713436D01*
X75760224Y-60863547D01*
X75939093Y-60983063D01*
X76080021Y-61043610D01*
X76126577Y-61063612D01*
X76136746Y-61067981D01*
X76231736Y-61089475D01*
X76342808Y-61114608D01*
X76342809Y-61114608D01*
X76346565Y-61115458D01*
X76468982Y-61120268D01*
X76557673Y-61123753D01*
X76557676Y-61123753D01*
X76561522Y-61123904D01*
X76565328Y-61123352D01*
X76565331Y-61123352D01*
X76634641Y-61113302D01*
X76774419Y-61093035D01*
X76778058Y-61091800D01*
X76778061Y-61091799D01*
X76974475Y-61025125D01*
X76978125Y-61023886D01*
X77165819Y-60918773D01*
X77331215Y-60781215D01*
X77468773Y-60615819D01*
X77573886Y-60428125D01*
X77601800Y-60345893D01*
X77641799Y-60228061D01*
X77641800Y-60228058D01*
X77643035Y-60224419D01*
X77673904Y-60011522D01*
X77675515Y-59950000D01*
X77655831Y-59735779D01*
X77597438Y-59528733D01*
X77590519Y-59514702D01*
X77503998Y-59339255D01*
X77503994Y-59339249D01*
X77502291Y-59335795D01*
X77373578Y-59163427D01*
X77362997Y-59153646D01*
X77230496Y-59031163D01*
X78431360Y-59031163D01*
X78432136Y-59037097D01*
X78432136Y-59037098D01*
X78448892Y-59165233D01*
X78450428Y-59176983D01*
X78509656Y-59311590D01*
X78513505Y-59316169D01*
X78513507Y-59316172D01*
X78600431Y-59419580D01*
X78600433Y-59419582D01*
X78604284Y-59424163D01*
X78726703Y-59505652D01*
X78867073Y-59549507D01*
X78873050Y-59549617D01*
X78873053Y-59549617D01*
X78947527Y-59550982D01*
X79014109Y-59552202D01*
X79019881Y-59550628D01*
X79019884Y-59550628D01*
X79150219Y-59515094D01*
X79150220Y-59515094D01*
X79155992Y-59513520D01*
X79161090Y-59510390D01*
X79161092Y-59510389D01*
X79269765Y-59443663D01*
X79981360Y-59443663D01*
X79982136Y-59449597D01*
X79982136Y-59449598D01*
X79995539Y-59552092D01*
X80000428Y-59589483D01*
X80059656Y-59724090D01*
X80063505Y-59728669D01*
X80063507Y-59728672D01*
X80150431Y-59832080D01*
X80150433Y-59832082D01*
X80154284Y-59836663D01*
X80276703Y-59918152D01*
X80282413Y-59919936D01*
X80291865Y-59922889D01*
X80417073Y-59962007D01*
X80423050Y-59962117D01*
X80423053Y-59962117D01*
X80497527Y-59963482D01*
X80564109Y-59964702D01*
X80569881Y-59963128D01*
X80569884Y-59963128D01*
X80700219Y-59927594D01*
X80700220Y-59927594D01*
X80705992Y-59926020D01*
X80711090Y-59922890D01*
X80711092Y-59922889D01*
X80826216Y-59852202D01*
X80826217Y-59852201D01*
X80831315Y-59849071D01*
X80835328Y-59844637D01*
X80835331Y-59844635D01*
X80925991Y-59744475D01*
X80930004Y-59740042D01*
X80933867Y-59732070D01*
X80988538Y-59619229D01*
X84524888Y-59619229D01*
X84538958Y-59833891D01*
X84591911Y-60042395D01*
X84681974Y-60237757D01*
X84806131Y-60413436D01*
X84808890Y-60416124D01*
X84808892Y-60416126D01*
X84824661Y-60431487D01*
X84960224Y-60563547D01*
X85139093Y-60683063D01*
X85336746Y-60767981D01*
X85428148Y-60788663D01*
X85542808Y-60814608D01*
X85542809Y-60814608D01*
X85546565Y-60815458D01*
X85668982Y-60820268D01*
X85757673Y-60823753D01*
X85757676Y-60823753D01*
X85761522Y-60823904D01*
X85765328Y-60823352D01*
X85765331Y-60823352D01*
X85834641Y-60813302D01*
X85974419Y-60793035D01*
X85978058Y-60791800D01*
X85978061Y-60791799D01*
X86174475Y-60725125D01*
X86178125Y-60723886D01*
X86365819Y-60618773D01*
X86531215Y-60481215D01*
X86668773Y-60315819D01*
X86773886Y-60128125D01*
X86801800Y-60045893D01*
X86841799Y-59928061D01*
X86841800Y-59928058D01*
X86843035Y-59924419D01*
X86873904Y-59711522D01*
X86875515Y-59650000D01*
X86855831Y-59435779D01*
X86797438Y-59228733D01*
X86795735Y-59225279D01*
X86703998Y-59039255D01*
X86703994Y-59039249D01*
X86702291Y-59035795D01*
X86573578Y-58863427D01*
X86522132Y-58815871D01*
X86418432Y-58720011D01*
X86418429Y-58720009D01*
X86415608Y-58717401D01*
X86412361Y-58715352D01*
X86412358Y-58715350D01*
X86236924Y-58604659D01*
X86236922Y-58604658D01*
X86233673Y-58602608D01*
X86057719Y-58532410D01*
X86037439Y-58524319D01*
X86037436Y-58524318D01*
X86033864Y-58522893D01*
X85822875Y-58480925D01*
X85708557Y-58479428D01*
X85611618Y-58478159D01*
X85611614Y-58478159D01*
X85607770Y-58478109D01*
X85395754Y-58514540D01*
X85193928Y-58588997D01*
X85190620Y-58590965D01*
X85096451Y-58646990D01*
X85009050Y-58698988D01*
X84847312Y-58840829D01*
X84714130Y-59009769D01*
X84712340Y-59013172D01*
X84712337Y-59013176D01*
X84643003Y-59144960D01*
X84613966Y-59200150D01*
X84605091Y-59228733D01*
X84553577Y-59394635D01*
X84550173Y-59405597D01*
X84549721Y-59409416D01*
X84526952Y-59601794D01*
X84524888Y-59619229D01*
X80988538Y-59619229D01*
X80991517Y-59613081D01*
X80994126Y-59607696D01*
X81003481Y-59552092D01*
X81017986Y-59465870D01*
X81018524Y-59462672D01*
X81018679Y-59450000D01*
X81018219Y-59446787D01*
X80998679Y-59310344D01*
X80998679Y-59310343D01*
X80997831Y-59304424D01*
X80936962Y-59170551D01*
X80840967Y-59059142D01*
X80829662Y-59051814D01*
X80722583Y-58982410D01*
X80717561Y-58979155D01*
X80711831Y-58977441D01*
X80711828Y-58977440D01*
X80582398Y-58938732D01*
X80582396Y-58938732D01*
X80576666Y-58937018D01*
X80570686Y-58936981D01*
X80570683Y-58936981D01*
X80501318Y-58936558D01*
X80429607Y-58936120D01*
X80288208Y-58976532D01*
X80163834Y-59055006D01*
X80066484Y-59165233D01*
X80063943Y-59170644D01*
X80063943Y-59170645D01*
X80052417Y-59195196D01*
X80003985Y-59298353D01*
X80003065Y-59304264D01*
X80003064Y-59304266D01*
X79998155Y-59335795D01*
X79981360Y-59443663D01*
X79269765Y-59443663D01*
X79276216Y-59439702D01*
X79276217Y-59439701D01*
X79281315Y-59436571D01*
X79285328Y-59432137D01*
X79285331Y-59432135D01*
X79342272Y-59369227D01*
X79380004Y-59327542D01*
X79386965Y-59313176D01*
X79441517Y-59200581D01*
X79444126Y-59195196D01*
X79468524Y-59050172D01*
X79468679Y-59037500D01*
X79467992Y-59032703D01*
X79448679Y-58897844D01*
X79448679Y-58897843D01*
X79447831Y-58891924D01*
X79386962Y-58758051D01*
X79290967Y-58646642D01*
X79279662Y-58639314D01*
X79172583Y-58569910D01*
X79167561Y-58566655D01*
X79161831Y-58564941D01*
X79161828Y-58564940D01*
X79032398Y-58526232D01*
X79032396Y-58526232D01*
X79026666Y-58524518D01*
X79020686Y-58524481D01*
X79020683Y-58524481D01*
X78951318Y-58524058D01*
X78879607Y-58523620D01*
X78738208Y-58564032D01*
X78613834Y-58642506D01*
X78516484Y-58752733D01*
X78513943Y-58758144D01*
X78513943Y-58758145D01*
X78503248Y-58780925D01*
X78453985Y-58885853D01*
X78453065Y-58891764D01*
X78453064Y-58891766D01*
X78445902Y-58937765D01*
X78431360Y-59031163D01*
X77230496Y-59031163D01*
X77218432Y-59020011D01*
X77218429Y-59020009D01*
X77215608Y-59017401D01*
X77212361Y-59015352D01*
X77212358Y-59015350D01*
X77036924Y-58904659D01*
X77036922Y-58904658D01*
X77033673Y-58902608D01*
X76884105Y-58842937D01*
X76837439Y-58824319D01*
X76837436Y-58824318D01*
X76833864Y-58822893D01*
X76622875Y-58780925D01*
X76508557Y-58779428D01*
X76411618Y-58778159D01*
X76411614Y-58778159D01*
X76407770Y-58778109D01*
X76195754Y-58814540D01*
X75993928Y-58888997D01*
X75990620Y-58890965D01*
X75812750Y-58996787D01*
X75809050Y-58998988D01*
X75647312Y-59140829D01*
X75603232Y-59196744D01*
X75529682Y-59290042D01*
X75514130Y-59309769D01*
X75512340Y-59313172D01*
X75512337Y-59313176D01*
X75430801Y-59468152D01*
X75413966Y-59500150D01*
X75388069Y-59583551D01*
X75366669Y-59652472D01*
X75350173Y-59705597D01*
X75324888Y-59919229D01*
X68443788Y-59919229D01*
X68473904Y-59711522D01*
X68475515Y-59650000D01*
X68455831Y-59435779D01*
X68397438Y-59228733D01*
X68395735Y-59225279D01*
X68303998Y-59039255D01*
X68303994Y-59039249D01*
X68302291Y-59035795D01*
X68270830Y-58993663D01*
X72081360Y-58993663D01*
X72082136Y-58999597D01*
X72082136Y-58999598D01*
X72089168Y-59053370D01*
X72100428Y-59139483D01*
X72159656Y-59274090D01*
X72163505Y-59278669D01*
X72163507Y-59278672D01*
X72250431Y-59382080D01*
X72250433Y-59382082D01*
X72254284Y-59386663D01*
X72376703Y-59468152D01*
X72517073Y-59512007D01*
X72523050Y-59512117D01*
X72523053Y-59512117D01*
X72597527Y-59513482D01*
X72664109Y-59514702D01*
X72669881Y-59513128D01*
X72669884Y-59513128D01*
X72800219Y-59477594D01*
X72800220Y-59477594D01*
X72805992Y-59476020D01*
X72811090Y-59472890D01*
X72811092Y-59472889D01*
X72926216Y-59402202D01*
X72926217Y-59402201D01*
X72931315Y-59399071D01*
X72935328Y-59394637D01*
X72935331Y-59394635D01*
X73009064Y-59313176D01*
X73030004Y-59290042D01*
X73059709Y-59228733D01*
X73091517Y-59163081D01*
X73094126Y-59157696D01*
X73118524Y-59012672D01*
X73118597Y-59006746D01*
X73118639Y-59003246D01*
X73118679Y-59000000D01*
X73118219Y-58996787D01*
X73098679Y-58860344D01*
X73098679Y-58860343D01*
X73097831Y-58854424D01*
X73036962Y-58720551D01*
X72940967Y-58609142D01*
X72930887Y-58602608D01*
X72822583Y-58532410D01*
X72817561Y-58529155D01*
X72811831Y-58527441D01*
X72811828Y-58527440D01*
X72682398Y-58488732D01*
X72682396Y-58488732D01*
X72676666Y-58487018D01*
X72670686Y-58486981D01*
X72670683Y-58486981D01*
X72601318Y-58486558D01*
X72529607Y-58486120D01*
X72523851Y-58487765D01*
X72400941Y-58522893D01*
X72388208Y-58526532D01*
X72383149Y-58529724D01*
X72269892Y-58601184D01*
X72263834Y-58605006D01*
X72166484Y-58715233D01*
X72103985Y-58848353D01*
X72103065Y-58854264D01*
X72103064Y-58854266D01*
X72097201Y-58891924D01*
X72081360Y-58993663D01*
X68270830Y-58993663D01*
X68173578Y-58863427D01*
X68122132Y-58815871D01*
X68018432Y-58720011D01*
X68018429Y-58720009D01*
X68015608Y-58717401D01*
X68012361Y-58715352D01*
X68012358Y-58715350D01*
X67836924Y-58604659D01*
X67836922Y-58604658D01*
X67833673Y-58602608D01*
X67657719Y-58532410D01*
X67637439Y-58524319D01*
X67637436Y-58524318D01*
X67633864Y-58522893D01*
X67422875Y-58480925D01*
X67308557Y-58479428D01*
X67211618Y-58478159D01*
X67211614Y-58478159D01*
X67207770Y-58478109D01*
X66995754Y-58514540D01*
X66793928Y-58588997D01*
X66790620Y-58590965D01*
X66696451Y-58646990D01*
X66609050Y-58698988D01*
X66447312Y-58840829D01*
X66314130Y-59009769D01*
X66312340Y-59013172D01*
X66312337Y-59013176D01*
X66243003Y-59144960D01*
X66213966Y-59200150D01*
X66205091Y-59228733D01*
X66153577Y-59394635D01*
X66150173Y-59405597D01*
X66149721Y-59409416D01*
X66126952Y-59601794D01*
X66124888Y-59619229D01*
X58157739Y-59619229D01*
X58157739Y-57093663D01*
X82231360Y-57093663D01*
X82250428Y-57239483D01*
X82309656Y-57374090D01*
X82313505Y-57378669D01*
X82313507Y-57378672D01*
X82400431Y-57482080D01*
X82400433Y-57482082D01*
X82404284Y-57486663D01*
X82526703Y-57568152D01*
X82667073Y-57612007D01*
X82673050Y-57612117D01*
X82673053Y-57612117D01*
X82747527Y-57613482D01*
X82814109Y-57614702D01*
X82819881Y-57613128D01*
X82819884Y-57613128D01*
X82950219Y-57577594D01*
X82950220Y-57577594D01*
X82955992Y-57576020D01*
X82961090Y-57572890D01*
X82961092Y-57572889D01*
X83076216Y-57502202D01*
X83076217Y-57502201D01*
X83081315Y-57499071D01*
X83085328Y-57494637D01*
X83085331Y-57494635D01*
X83175991Y-57394475D01*
X83180004Y-57390042D01*
X83244126Y-57257696D01*
X83268524Y-57112672D01*
X83268679Y-57100000D01*
X83268219Y-57096787D01*
X83248679Y-56960344D01*
X83248679Y-56960343D01*
X83247831Y-56954424D01*
X83186962Y-56820551D01*
X83090967Y-56709142D01*
X83079662Y-56701814D01*
X82972583Y-56632410D01*
X82967561Y-56629155D01*
X82961831Y-56627441D01*
X82961828Y-56627440D01*
X82832398Y-56588732D01*
X82832396Y-56588732D01*
X82826666Y-56587018D01*
X82820686Y-56586981D01*
X82820683Y-56586981D01*
X82751318Y-56586558D01*
X82679607Y-56586120D01*
X82538208Y-56626532D01*
X82413834Y-56705006D01*
X82316484Y-56815233D01*
X82253985Y-56948353D01*
X82253065Y-56954264D01*
X82253064Y-56954266D01*
X82252118Y-56960344D01*
X82231360Y-57093663D01*
X58157739Y-57093663D01*
X58157739Y-54619229D01*
X66124888Y-54619229D01*
X66138958Y-54833891D01*
X66191911Y-55042395D01*
X66281974Y-55237757D01*
X66406131Y-55413436D01*
X66408890Y-55416124D01*
X66408892Y-55416126D01*
X66411668Y-55418830D01*
X66560224Y-55563547D01*
X66739093Y-55683063D01*
X66936746Y-55767981D01*
X67042007Y-55791799D01*
X67142808Y-55814608D01*
X67142809Y-55814608D01*
X67146565Y-55815458D01*
X67268982Y-55820268D01*
X67357673Y-55823753D01*
X67357676Y-55823753D01*
X67361522Y-55823904D01*
X67365328Y-55823352D01*
X67365331Y-55823352D01*
X67434641Y-55813302D01*
X67574419Y-55793035D01*
X67578058Y-55791800D01*
X67578061Y-55791799D01*
X67774475Y-55725125D01*
X67778125Y-55723886D01*
X67965819Y-55618773D01*
X68131215Y-55481215D01*
X68268773Y-55315819D01*
X68373886Y-55128125D01*
X68401800Y-55045893D01*
X68441799Y-54928061D01*
X68441800Y-54928058D01*
X68443035Y-54924419D01*
X68473904Y-54711522D01*
X68475515Y-54650000D01*
X68472688Y-54619229D01*
X69924888Y-54619229D01*
X69938958Y-54833891D01*
X69991911Y-55042395D01*
X70081974Y-55237757D01*
X70206131Y-55413436D01*
X70208890Y-55416124D01*
X70208892Y-55416126D01*
X70211668Y-55418830D01*
X70360224Y-55563547D01*
X70539093Y-55683063D01*
X70736746Y-55767981D01*
X70842007Y-55791799D01*
X70942808Y-55814608D01*
X70942809Y-55814608D01*
X70946565Y-55815458D01*
X71068982Y-55820268D01*
X71157673Y-55823753D01*
X71157676Y-55823753D01*
X71161522Y-55823904D01*
X71165328Y-55823352D01*
X71165331Y-55823352D01*
X71234641Y-55813302D01*
X71374419Y-55793035D01*
X71378058Y-55791800D01*
X71378061Y-55791799D01*
X71574475Y-55725125D01*
X71578125Y-55723886D01*
X71765819Y-55618773D01*
X71931215Y-55481215D01*
X72068773Y-55315819D01*
X72173886Y-55128125D01*
X72201800Y-55045893D01*
X72241799Y-54928061D01*
X72241800Y-54928058D01*
X72243035Y-54924419D01*
X72273904Y-54711522D01*
X72275515Y-54650000D01*
X72255831Y-54435779D01*
X72208859Y-54269229D01*
X75324888Y-54269229D01*
X75338958Y-54483891D01*
X75391911Y-54692395D01*
X75481974Y-54887757D01*
X75606131Y-55063436D01*
X75760224Y-55213547D01*
X75939093Y-55333063D01*
X76080021Y-55393610D01*
X76118845Y-55410290D01*
X76136746Y-55417981D01*
X76242007Y-55441799D01*
X76342808Y-55464608D01*
X76342809Y-55464608D01*
X76346565Y-55465458D01*
X76468982Y-55470268D01*
X76557673Y-55473753D01*
X76557676Y-55473753D01*
X76561522Y-55473904D01*
X76565328Y-55473352D01*
X76565331Y-55473352D01*
X76634641Y-55463302D01*
X76774419Y-55443035D01*
X76778058Y-55441800D01*
X76778061Y-55441799D01*
X76974475Y-55375125D01*
X76978125Y-55373886D01*
X77165819Y-55268773D01*
X77320677Y-55139979D01*
X77328256Y-55133676D01*
X77331215Y-55131215D01*
X77468773Y-54965819D01*
X77573886Y-54778125D01*
X77585584Y-54743663D01*
X79981360Y-54743663D01*
X79982136Y-54749597D01*
X79982136Y-54749598D01*
X79993648Y-54837631D01*
X80000428Y-54889483D01*
X80059656Y-55024090D01*
X80063505Y-55028669D01*
X80063507Y-55028672D01*
X80150431Y-55132080D01*
X80150433Y-55132082D01*
X80154284Y-55136663D01*
X80276703Y-55218152D01*
X80417073Y-55262007D01*
X80423050Y-55262117D01*
X80423053Y-55262117D01*
X80497527Y-55263482D01*
X80564109Y-55264702D01*
X80569881Y-55263128D01*
X80569884Y-55263128D01*
X80700219Y-55227594D01*
X80700220Y-55227594D01*
X80705992Y-55226020D01*
X80711090Y-55222890D01*
X80711092Y-55222889D01*
X80826216Y-55152202D01*
X80826217Y-55152201D01*
X80831315Y-55149071D01*
X80835328Y-55144637D01*
X80835331Y-55144635D01*
X80906394Y-55066126D01*
X80930004Y-55040042D01*
X80994126Y-54907696D01*
X81018524Y-54762672D01*
X81018679Y-54750000D01*
X81018219Y-54746787D01*
X80999951Y-54619229D01*
X84524888Y-54619229D01*
X84538958Y-54833891D01*
X84591911Y-55042395D01*
X84681974Y-55237757D01*
X84806131Y-55413436D01*
X84808890Y-55416124D01*
X84808892Y-55416126D01*
X84811668Y-55418830D01*
X84960224Y-55563547D01*
X85139093Y-55683063D01*
X85336746Y-55767981D01*
X85442007Y-55791799D01*
X85542808Y-55814608D01*
X85542809Y-55814608D01*
X85546565Y-55815458D01*
X85668982Y-55820268D01*
X85757673Y-55823753D01*
X85757676Y-55823753D01*
X85761522Y-55823904D01*
X85765328Y-55823352D01*
X85765331Y-55823352D01*
X85834641Y-55813302D01*
X85974419Y-55793035D01*
X85978058Y-55791800D01*
X85978061Y-55791799D01*
X86174475Y-55725125D01*
X86178125Y-55723886D01*
X86365819Y-55618773D01*
X86531215Y-55481215D01*
X86668773Y-55315819D01*
X86773886Y-55128125D01*
X86801800Y-55045893D01*
X86841799Y-54928061D01*
X86841800Y-54928058D01*
X86843035Y-54924419D01*
X86873904Y-54711522D01*
X86875515Y-54650000D01*
X86855831Y-54435779D01*
X86797438Y-54228733D01*
X86795735Y-54225279D01*
X86703998Y-54039255D01*
X86703994Y-54039249D01*
X86702291Y-54035795D01*
X86573578Y-53863427D01*
X86546380Y-53838285D01*
X86418432Y-53720011D01*
X86418429Y-53720009D01*
X86415608Y-53717401D01*
X86412361Y-53715352D01*
X86412358Y-53715350D01*
X86236924Y-53604659D01*
X86236922Y-53604658D01*
X86233673Y-53602608D01*
X86132841Y-53562380D01*
X86037439Y-53524319D01*
X86037436Y-53524318D01*
X86033864Y-53522893D01*
X85822875Y-53480925D01*
X85708557Y-53479428D01*
X85611618Y-53478159D01*
X85611614Y-53478159D01*
X85607770Y-53478109D01*
X85395754Y-53514540D01*
X85193928Y-53588997D01*
X85190620Y-53590965D01*
X85025410Y-53689255D01*
X85009050Y-53698988D01*
X84847312Y-53840829D01*
X84714130Y-54009769D01*
X84712340Y-54013172D01*
X84712337Y-54013176D01*
X84619843Y-54188981D01*
X84613966Y-54200150D01*
X84591324Y-54273070D01*
X84563097Y-54363976D01*
X84550173Y-54405597D01*
X84549721Y-54409416D01*
X84525940Y-54610344D01*
X84524888Y-54619229D01*
X80999951Y-54619229D01*
X80998679Y-54610344D01*
X80998679Y-54610343D01*
X80997831Y-54604424D01*
X80936962Y-54470551D01*
X80840967Y-54359142D01*
X80829662Y-54351814D01*
X80722583Y-54282410D01*
X80717561Y-54279155D01*
X80711831Y-54277441D01*
X80711828Y-54277440D01*
X80582398Y-54238732D01*
X80582396Y-54238732D01*
X80576666Y-54237018D01*
X80570686Y-54236981D01*
X80570683Y-54236981D01*
X80501318Y-54236558D01*
X80429607Y-54236120D01*
X80423851Y-54237765D01*
X80313761Y-54269229D01*
X80288208Y-54276532D01*
X80163834Y-54355006D01*
X80066484Y-54465233D01*
X80003985Y-54598353D01*
X80003065Y-54604264D01*
X80003064Y-54604266D01*
X79989924Y-54688661D01*
X79981360Y-54743663D01*
X77585584Y-54743663D01*
X77601800Y-54695893D01*
X77641799Y-54578061D01*
X77641800Y-54578058D01*
X77643035Y-54574419D01*
X77673904Y-54361522D01*
X77675515Y-54300000D01*
X77655831Y-54085779D01*
X77597438Y-53878733D01*
X77595735Y-53875279D01*
X77503998Y-53689255D01*
X77503994Y-53689249D01*
X77502291Y-53685795D01*
X77373578Y-53513427D01*
X77338418Y-53480925D01*
X77218432Y-53370011D01*
X77218429Y-53370009D01*
X77215608Y-53367401D01*
X77212361Y-53365352D01*
X77212358Y-53365350D01*
X77036924Y-53254659D01*
X77036922Y-53254658D01*
X77033673Y-53252608D01*
X76932841Y-53212380D01*
X76837439Y-53174319D01*
X76837436Y-53174318D01*
X76833864Y-53172893D01*
X76622875Y-53130925D01*
X76508557Y-53129428D01*
X76411618Y-53128159D01*
X76411614Y-53128159D01*
X76407770Y-53128109D01*
X76195754Y-53164540D01*
X75993928Y-53238997D01*
X75990620Y-53240965D01*
X75967603Y-53254659D01*
X75809050Y-53348988D01*
X75647312Y-53490829D01*
X75514130Y-53659769D01*
X75512340Y-53663172D01*
X75512337Y-53663176D01*
X75483808Y-53717401D01*
X75413966Y-53850150D01*
X75405091Y-53878733D01*
X75356322Y-54035795D01*
X75350173Y-54055597D01*
X75349721Y-54059416D01*
X75328498Y-54238732D01*
X75324888Y-54269229D01*
X72208859Y-54269229D01*
X72197438Y-54228733D01*
X72195735Y-54225279D01*
X72103998Y-54039255D01*
X72103994Y-54039249D01*
X72102291Y-54035795D01*
X71973578Y-53863427D01*
X71946380Y-53838285D01*
X71818432Y-53720011D01*
X71818429Y-53720009D01*
X71815608Y-53717401D01*
X71812361Y-53715352D01*
X71812358Y-53715350D01*
X71636924Y-53604659D01*
X71636922Y-53604658D01*
X71633673Y-53602608D01*
X71532841Y-53562380D01*
X71437439Y-53524319D01*
X71437436Y-53524318D01*
X71433864Y-53522893D01*
X71222875Y-53480925D01*
X71108557Y-53479428D01*
X71011618Y-53478159D01*
X71011614Y-53478159D01*
X71007770Y-53478109D01*
X70795754Y-53514540D01*
X70593928Y-53588997D01*
X70590620Y-53590965D01*
X70425410Y-53689255D01*
X70409050Y-53698988D01*
X70247312Y-53840829D01*
X70114130Y-54009769D01*
X70112340Y-54013172D01*
X70112337Y-54013176D01*
X70019843Y-54188981D01*
X70013966Y-54200150D01*
X69991324Y-54273070D01*
X69963097Y-54363976D01*
X69950173Y-54405597D01*
X69949721Y-54409416D01*
X69925940Y-54610344D01*
X69924888Y-54619229D01*
X68472688Y-54619229D01*
X68455831Y-54435779D01*
X68397438Y-54228733D01*
X68395735Y-54225279D01*
X68303998Y-54039255D01*
X68303994Y-54039249D01*
X68302291Y-54035795D01*
X68173578Y-53863427D01*
X68146380Y-53838285D01*
X68018432Y-53720011D01*
X68018429Y-53720009D01*
X68015608Y-53717401D01*
X68012361Y-53715352D01*
X68012358Y-53715350D01*
X67836924Y-53604659D01*
X67836922Y-53604658D01*
X67833673Y-53602608D01*
X67732841Y-53562380D01*
X67637439Y-53524319D01*
X67637436Y-53524318D01*
X67633864Y-53522893D01*
X67422875Y-53480925D01*
X67308557Y-53479428D01*
X67211618Y-53478159D01*
X67211614Y-53478159D01*
X67207770Y-53478109D01*
X66995754Y-53514540D01*
X66793928Y-53588997D01*
X66790620Y-53590965D01*
X66625410Y-53689255D01*
X66609050Y-53698988D01*
X66447312Y-53840829D01*
X66314130Y-54009769D01*
X66312340Y-54013172D01*
X66312337Y-54013176D01*
X66219843Y-54188981D01*
X66213966Y-54200150D01*
X66191324Y-54273070D01*
X66163097Y-54363976D01*
X66150173Y-54405597D01*
X66149721Y-54409416D01*
X66125940Y-54610344D01*
X66124888Y-54619229D01*
X58157739Y-54619229D01*
X58157739Y-51893663D01*
X72081360Y-51893663D01*
X72100428Y-52039483D01*
X72159656Y-52174090D01*
X72163505Y-52178669D01*
X72163507Y-52178672D01*
X72250431Y-52282080D01*
X72250433Y-52282082D01*
X72254284Y-52286663D01*
X72376703Y-52368152D01*
X72517073Y-52412007D01*
X72523050Y-52412117D01*
X72523053Y-52412117D01*
X72597527Y-52413482D01*
X72664109Y-52414702D01*
X72669881Y-52413128D01*
X72669884Y-52413128D01*
X72800219Y-52377594D01*
X72800220Y-52377594D01*
X72805992Y-52376020D01*
X72811090Y-52372890D01*
X72811092Y-52372889D01*
X72926216Y-52302202D01*
X72926217Y-52302201D01*
X72931315Y-52299071D01*
X72935328Y-52294637D01*
X72935331Y-52294635D01*
X73025991Y-52194475D01*
X73030004Y-52190042D01*
X73076072Y-52094960D01*
X73091517Y-52063081D01*
X73094126Y-52057696D01*
X73118524Y-51912672D01*
X73118679Y-51900000D01*
X73118219Y-51896787D01*
X73098679Y-51760344D01*
X73098679Y-51760343D01*
X73097831Y-51754424D01*
X73036962Y-51620551D01*
X72940967Y-51509142D01*
X72929662Y-51501814D01*
X72822583Y-51432410D01*
X72817561Y-51429155D01*
X72811831Y-51427441D01*
X72811828Y-51427440D01*
X72682398Y-51388732D01*
X72682396Y-51388732D01*
X72676666Y-51387018D01*
X72670686Y-51386981D01*
X72670683Y-51386981D01*
X72601318Y-51386558D01*
X72529607Y-51386120D01*
X72388208Y-51426532D01*
X72263834Y-51505006D01*
X72166484Y-51615233D01*
X72103985Y-51748353D01*
X72103065Y-51754264D01*
X72103064Y-51754266D01*
X72102118Y-51760344D01*
X72081360Y-51893663D01*
X58157739Y-51893663D01*
X58157739Y-48969229D01*
X66124888Y-48969229D01*
X66138958Y-49183891D01*
X66191911Y-49392395D01*
X66281974Y-49587757D01*
X66406131Y-49763436D01*
X66408890Y-49766124D01*
X66408892Y-49766126D01*
X66424661Y-49781487D01*
X66560224Y-49913547D01*
X66739093Y-50033063D01*
X66936746Y-50117981D01*
X67042007Y-50141799D01*
X67142808Y-50164608D01*
X67142809Y-50164608D01*
X67146565Y-50165458D01*
X67268982Y-50170268D01*
X67357673Y-50173753D01*
X67357676Y-50173753D01*
X67361522Y-50173904D01*
X67365328Y-50173352D01*
X67365331Y-50173352D01*
X67434641Y-50163302D01*
X67574419Y-50143035D01*
X67578058Y-50141800D01*
X67578061Y-50141799D01*
X67774475Y-50075125D01*
X67778125Y-50073886D01*
X67965819Y-49968773D01*
X68131215Y-49831215D01*
X68268773Y-49665819D01*
X68373886Y-49478125D01*
X68401800Y-49395893D01*
X68441799Y-49278061D01*
X68441800Y-49278058D01*
X68443035Y-49274419D01*
X68443788Y-49269229D01*
X75324888Y-49269229D01*
X75338958Y-49483891D01*
X75391911Y-49692395D01*
X75481974Y-49887757D01*
X75606131Y-50063436D01*
X75760224Y-50213547D01*
X75939093Y-50333063D01*
X76136746Y-50417981D01*
X76242007Y-50441799D01*
X76342808Y-50464608D01*
X76342809Y-50464608D01*
X76346565Y-50465458D01*
X76468982Y-50470268D01*
X76557673Y-50473753D01*
X76557676Y-50473753D01*
X76561522Y-50473904D01*
X76565328Y-50473352D01*
X76565331Y-50473352D01*
X76634641Y-50463302D01*
X76774419Y-50443035D01*
X76778058Y-50441800D01*
X76778061Y-50441799D01*
X76974475Y-50375125D01*
X76978125Y-50373886D01*
X77165819Y-50268773D01*
X77331215Y-50131215D01*
X77468773Y-49965819D01*
X77573886Y-49778125D01*
X77601800Y-49695893D01*
X77641799Y-49578061D01*
X77641800Y-49578058D01*
X77643035Y-49574419D01*
X77673904Y-49361522D01*
X77675515Y-49300000D01*
X77655831Y-49085779D01*
X77622961Y-48969229D01*
X84524888Y-48969229D01*
X84538958Y-49183891D01*
X84591911Y-49392395D01*
X84681974Y-49587757D01*
X84806131Y-49763436D01*
X84808890Y-49766124D01*
X84808892Y-49766126D01*
X84824661Y-49781487D01*
X84960224Y-49913547D01*
X85139093Y-50033063D01*
X85336746Y-50117981D01*
X85442007Y-50141799D01*
X85542808Y-50164608D01*
X85542809Y-50164608D01*
X85546565Y-50165458D01*
X85668982Y-50170268D01*
X85757673Y-50173753D01*
X85757676Y-50173753D01*
X85761522Y-50173904D01*
X85765328Y-50173352D01*
X85765331Y-50173352D01*
X85834641Y-50163302D01*
X85974419Y-50143035D01*
X85978058Y-50141800D01*
X85978061Y-50141799D01*
X86174475Y-50075125D01*
X86178125Y-50073886D01*
X86365819Y-49968773D01*
X86531215Y-49831215D01*
X86668773Y-49665819D01*
X86773886Y-49478125D01*
X86801800Y-49395893D01*
X86841799Y-49278061D01*
X86841800Y-49278058D01*
X86843035Y-49274419D01*
X86873904Y-49061522D01*
X86875515Y-49000000D01*
X86855831Y-48785779D01*
X86797438Y-48578733D01*
X86795735Y-48575279D01*
X86703998Y-48389255D01*
X86703994Y-48389249D01*
X86702291Y-48385795D01*
X86573578Y-48213427D01*
X86522132Y-48165871D01*
X86418432Y-48070011D01*
X86418429Y-48070009D01*
X86415608Y-48067401D01*
X86412361Y-48065352D01*
X86412358Y-48065350D01*
X86236924Y-47954659D01*
X86236922Y-47954658D01*
X86233673Y-47952608D01*
X86132841Y-47912380D01*
X86037439Y-47874319D01*
X86037436Y-47874318D01*
X86033864Y-47872893D01*
X85822875Y-47830925D01*
X85708557Y-47829428D01*
X85611618Y-47828159D01*
X85611614Y-47828159D01*
X85607770Y-47828109D01*
X85395754Y-47864540D01*
X85193928Y-47938997D01*
X85190620Y-47940965D01*
X85167603Y-47954659D01*
X85009050Y-48048988D01*
X84847312Y-48190829D01*
X84714130Y-48359769D01*
X84712340Y-48363172D01*
X84712337Y-48363176D01*
X84634663Y-48510811D01*
X84613966Y-48550150D01*
X84550173Y-48755597D01*
X84524888Y-48969229D01*
X77622961Y-48969229D01*
X77597438Y-48878733D01*
X77595735Y-48875279D01*
X77503998Y-48689255D01*
X77503994Y-48689249D01*
X77502291Y-48685795D01*
X77373578Y-48513427D01*
X77232162Y-48382703D01*
X77218432Y-48370011D01*
X77218429Y-48370009D01*
X77215608Y-48367401D01*
X77212361Y-48365352D01*
X77212358Y-48365350D01*
X77036924Y-48254659D01*
X77036922Y-48254658D01*
X77033673Y-48252608D01*
X76886409Y-48193856D01*
X76837439Y-48174319D01*
X76837436Y-48174318D01*
X76833864Y-48172893D01*
X76622875Y-48130925D01*
X76508557Y-48129428D01*
X76411618Y-48128159D01*
X76411614Y-48128159D01*
X76407770Y-48128109D01*
X76195754Y-48164540D01*
X75993928Y-48238997D01*
X75990620Y-48240965D01*
X75967603Y-48254659D01*
X75809050Y-48348988D01*
X75647312Y-48490829D01*
X75514130Y-48659769D01*
X75512340Y-48663172D01*
X75512337Y-48663176D01*
X75447833Y-48785779D01*
X75413966Y-48850150D01*
X75405091Y-48878733D01*
X75366669Y-49002472D01*
X75350173Y-49055597D01*
X75324888Y-49269229D01*
X68443788Y-49269229D01*
X68473904Y-49061522D01*
X68475515Y-49000000D01*
X68455831Y-48785779D01*
X68397438Y-48578733D01*
X68395735Y-48575279D01*
X68303998Y-48389255D01*
X68303994Y-48389249D01*
X68302291Y-48385795D01*
X68173578Y-48213427D01*
X68122132Y-48165871D01*
X68018432Y-48070011D01*
X68018429Y-48070009D01*
X68015608Y-48067401D01*
X68012361Y-48065352D01*
X68012358Y-48065350D01*
X67836924Y-47954659D01*
X67836922Y-47954658D01*
X67833673Y-47952608D01*
X67732841Y-47912380D01*
X67637439Y-47874319D01*
X67637436Y-47874318D01*
X67633864Y-47872893D01*
X67422875Y-47830925D01*
X67308557Y-47829428D01*
X67211618Y-47828159D01*
X67211614Y-47828159D01*
X67207770Y-47828109D01*
X66995754Y-47864540D01*
X66793928Y-47938997D01*
X66790620Y-47940965D01*
X66767603Y-47954659D01*
X66609050Y-48048988D01*
X66447312Y-48190829D01*
X66314130Y-48359769D01*
X66312340Y-48363172D01*
X66312337Y-48363176D01*
X66234663Y-48510811D01*
X66213966Y-48550150D01*
X66150173Y-48755597D01*
X66124888Y-48969229D01*
X58157739Y-48969229D01*
X58157739Y-42763949D01*
X59324900Y-42763949D01*
X59325098Y-42767385D01*
X59325098Y-42767391D01*
X59331264Y-42874319D01*
X59338820Y-43005355D01*
X59391980Y-43241247D01*
X59482954Y-43465288D01*
X59484757Y-43468230D01*
X59607497Y-43668524D01*
X59607501Y-43668529D01*
X59609298Y-43671462D01*
X59767619Y-43854233D01*
X59953665Y-44008692D01*
X60162440Y-44130690D01*
X60271379Y-44172290D01*
X60385115Y-44215722D01*
X60385119Y-44215723D01*
X60388337Y-44216952D01*
X60391715Y-44217639D01*
X60391714Y-44217639D01*
X60621917Y-44264474D01*
X60621920Y-44264474D01*
X60625290Y-44265160D01*
X60807850Y-44271854D01*
X60863498Y-44273895D01*
X60866935Y-44274021D01*
X60870344Y-44273584D01*
X60870350Y-44273584D01*
X61103366Y-44243734D01*
X61103371Y-44243733D01*
X61106782Y-44243296D01*
X61110075Y-44242308D01*
X61110080Y-44242307D01*
X61335081Y-44174803D01*
X61335084Y-44174802D01*
X61338390Y-44173810D01*
X61555540Y-44067430D01*
X61693213Y-43969229D01*
X66124888Y-43969229D01*
X66138958Y-44183891D01*
X66191911Y-44392395D01*
X66281974Y-44587757D01*
X66406131Y-44763436D01*
X66408890Y-44766124D01*
X66408892Y-44766126D01*
X66411668Y-44768830D01*
X66560224Y-44913547D01*
X66739093Y-45033063D01*
X66936746Y-45117981D01*
X67042007Y-45141799D01*
X67142808Y-45164608D01*
X67142809Y-45164608D01*
X67146565Y-45165458D01*
X67268982Y-45170268D01*
X67357673Y-45173753D01*
X67357676Y-45173753D01*
X67361522Y-45173904D01*
X67365328Y-45173352D01*
X67365331Y-45173352D01*
X67434641Y-45163302D01*
X67574419Y-45143035D01*
X67578058Y-45141800D01*
X67578061Y-45141799D01*
X67774475Y-45075125D01*
X67778125Y-45073886D01*
X67965819Y-44968773D01*
X68131215Y-44831215D01*
X68268773Y-44665819D01*
X68373886Y-44478125D01*
X68401800Y-44395893D01*
X68441799Y-44278061D01*
X68441800Y-44278058D01*
X68443035Y-44274419D01*
X68473904Y-44061522D01*
X68475515Y-44000000D01*
X68455831Y-43785779D01*
X68408859Y-43619229D01*
X75274888Y-43619229D01*
X75288958Y-43833891D01*
X75341911Y-44042395D01*
X75431974Y-44237757D01*
X75556131Y-44413436D01*
X75710224Y-44563547D01*
X75889093Y-44683063D01*
X76030021Y-44743610D01*
X76068845Y-44760290D01*
X76086746Y-44767981D01*
X76192007Y-44791799D01*
X76292808Y-44814608D01*
X76292809Y-44814608D01*
X76296565Y-44815458D01*
X76418982Y-44820268D01*
X76507673Y-44823753D01*
X76507676Y-44823753D01*
X76511522Y-44823904D01*
X76515328Y-44823352D01*
X76515331Y-44823352D01*
X76584641Y-44813302D01*
X76724419Y-44793035D01*
X76728058Y-44791800D01*
X76728061Y-44791799D01*
X76924475Y-44725125D01*
X76928125Y-44723886D01*
X77115819Y-44618773D01*
X77281215Y-44481215D01*
X77418773Y-44315819D01*
X77523886Y-44128125D01*
X77551800Y-44045893D01*
X77577824Y-43969229D01*
X84524888Y-43969229D01*
X84538958Y-44183891D01*
X84591911Y-44392395D01*
X84681974Y-44587757D01*
X84806131Y-44763436D01*
X84808890Y-44766124D01*
X84808892Y-44766126D01*
X84811668Y-44768830D01*
X84960224Y-44913547D01*
X85139093Y-45033063D01*
X85336746Y-45117981D01*
X85442007Y-45141799D01*
X85542808Y-45164608D01*
X85542809Y-45164608D01*
X85546565Y-45165458D01*
X85668982Y-45170268D01*
X85757673Y-45173753D01*
X85757676Y-45173753D01*
X85761522Y-45173904D01*
X85765328Y-45173352D01*
X85765331Y-45173352D01*
X85834641Y-45163302D01*
X85974419Y-45143035D01*
X85978058Y-45141800D01*
X85978061Y-45141799D01*
X86174475Y-45075125D01*
X86178125Y-45073886D01*
X86365819Y-44968773D01*
X86531215Y-44831215D01*
X86668773Y-44665819D01*
X86773886Y-44478125D01*
X86801800Y-44395893D01*
X86841799Y-44278061D01*
X86841800Y-44278058D01*
X86843035Y-44274419D01*
X86873904Y-44061522D01*
X86875515Y-44000000D01*
X86855831Y-43785779D01*
X86797438Y-43578733D01*
X86795735Y-43575279D01*
X86703998Y-43389255D01*
X86703994Y-43389249D01*
X86702291Y-43385795D01*
X86573578Y-43213427D01*
X86463658Y-43111818D01*
X86418432Y-43070011D01*
X86418429Y-43070009D01*
X86415608Y-43067401D01*
X86412361Y-43065352D01*
X86412358Y-43065350D01*
X86236924Y-42954659D01*
X86236922Y-42954658D01*
X86233673Y-42952608D01*
X86132841Y-42912380D01*
X86037439Y-42874319D01*
X86037436Y-42874318D01*
X86033864Y-42872893D01*
X85822875Y-42830925D01*
X85708557Y-42829428D01*
X85611618Y-42828159D01*
X85611614Y-42828159D01*
X85607770Y-42828109D01*
X85395754Y-42864540D01*
X85193928Y-42938997D01*
X85190620Y-42940965D01*
X85025410Y-43039255D01*
X85009050Y-43048988D01*
X84847312Y-43190829D01*
X84714130Y-43359769D01*
X84712340Y-43363172D01*
X84712337Y-43363176D01*
X84658614Y-43465288D01*
X84613966Y-43550150D01*
X84591324Y-43623070D01*
X84563097Y-43713976D01*
X84550173Y-43755597D01*
X84549721Y-43759416D01*
X84529761Y-43928061D01*
X84524888Y-43969229D01*
X77577824Y-43969229D01*
X77591799Y-43928061D01*
X77591800Y-43928058D01*
X77593035Y-43924419D01*
X77623904Y-43711522D01*
X77625515Y-43650000D01*
X77605831Y-43435779D01*
X77547438Y-43228733D01*
X77545735Y-43225279D01*
X77453998Y-43039255D01*
X77453994Y-43039249D01*
X77452291Y-43035795D01*
X77323578Y-42863427D01*
X77288418Y-42830925D01*
X77168432Y-42720011D01*
X77168429Y-42720009D01*
X77165608Y-42717401D01*
X77162361Y-42715352D01*
X77162358Y-42715350D01*
X76986924Y-42604659D01*
X76986922Y-42604658D01*
X76983673Y-42602608D01*
X76866016Y-42555668D01*
X76787439Y-42524319D01*
X76787436Y-42524318D01*
X76783864Y-42522893D01*
X76572875Y-42480925D01*
X76458557Y-42479428D01*
X76361618Y-42478159D01*
X76361614Y-42478159D01*
X76357770Y-42478109D01*
X76145754Y-42514540D01*
X75943928Y-42588997D01*
X75940620Y-42590965D01*
X75917603Y-42604659D01*
X75759050Y-42698988D01*
X75597312Y-42840829D01*
X75464130Y-43009769D01*
X75462340Y-43013172D01*
X75462337Y-43013176D01*
X75408702Y-43115120D01*
X75363966Y-43200150D01*
X75355091Y-43228733D01*
X75306322Y-43385795D01*
X75300173Y-43405597D01*
X75274888Y-43619229D01*
X68408859Y-43619229D01*
X68397438Y-43578733D01*
X68395735Y-43575279D01*
X68303998Y-43389255D01*
X68303994Y-43389249D01*
X68302291Y-43385795D01*
X68173578Y-43213427D01*
X68063658Y-43111818D01*
X68018432Y-43070011D01*
X68018429Y-43070009D01*
X68015608Y-43067401D01*
X68012361Y-43065352D01*
X68012358Y-43065350D01*
X67836924Y-42954659D01*
X67836922Y-42954658D01*
X67833673Y-42952608D01*
X67732841Y-42912380D01*
X67637439Y-42874319D01*
X67637436Y-42874318D01*
X67633864Y-42872893D01*
X67422875Y-42830925D01*
X67308557Y-42829428D01*
X67211618Y-42828159D01*
X67211614Y-42828159D01*
X67207770Y-42828109D01*
X66995754Y-42864540D01*
X66793928Y-42938997D01*
X66790620Y-42940965D01*
X66625410Y-43039255D01*
X66609050Y-43048988D01*
X66447312Y-43190829D01*
X66314130Y-43359769D01*
X66312340Y-43363172D01*
X66312337Y-43363176D01*
X66258614Y-43465288D01*
X66213966Y-43550150D01*
X66191324Y-43623070D01*
X66163097Y-43713976D01*
X66150173Y-43755597D01*
X66149721Y-43759416D01*
X66129761Y-43928061D01*
X66124888Y-43969229D01*
X61693213Y-43969229D01*
X61752399Y-43927012D01*
X61754845Y-43924575D01*
X61921235Y-43758764D01*
X61921238Y-43758761D01*
X61923680Y-43756327D01*
X62024940Y-43615409D01*
X62062776Y-43562755D01*
X62062777Y-43562754D01*
X62064785Y-43559959D01*
X62071317Y-43546744D01*
X62170396Y-43346271D01*
X62170397Y-43346269D01*
X62171922Y-43343183D01*
X62201923Y-43244439D01*
X62241213Y-43115120D01*
X62241214Y-43115117D01*
X62242216Y-43111818D01*
X62250748Y-43047015D01*
X62273487Y-42874294D01*
X62273488Y-42874285D01*
X62273778Y-42872080D01*
X62275540Y-42800000D01*
X62268964Y-42720011D01*
X62256009Y-42562432D01*
X62256008Y-42562428D01*
X62255727Y-42559006D01*
X62247015Y-42524319D01*
X62197660Y-42327833D01*
X62196819Y-42324484D01*
X62100398Y-42102732D01*
X61969055Y-41899706D01*
X61945903Y-41874262D01*
X61808635Y-41723406D01*
X61808632Y-41723403D01*
X61806316Y-41720858D01*
X61616551Y-41570991D01*
X61404858Y-41454130D01*
X61247323Y-41398344D01*
X61180171Y-41374564D01*
X61180168Y-41374563D01*
X61176920Y-41373413D01*
X60938861Y-41331008D01*
X60810381Y-41329438D01*
X60700517Y-41328096D01*
X60700516Y-41328096D01*
X60697072Y-41328054D01*
X60628437Y-41338557D01*
X60461455Y-41364108D01*
X60461449Y-41364109D01*
X60458047Y-41364630D01*
X60427654Y-41374564D01*
X60231478Y-41438684D01*
X60231476Y-41438685D01*
X60228205Y-41439754D01*
X60225155Y-41441342D01*
X60225152Y-41441343D01*
X60016780Y-41549815D01*
X60013720Y-41551408D01*
X59971490Y-41583115D01*
X59823105Y-41694525D01*
X59823101Y-41694528D01*
X59820350Y-41696594D01*
X59653290Y-41871413D01*
X59651349Y-41874258D01*
X59651346Y-41874262D01*
X59632014Y-41902602D01*
X59517025Y-42071169D01*
X59415216Y-42290499D01*
X59414296Y-42293817D01*
X59414294Y-42293822D01*
X59351518Y-42520185D01*
X59350596Y-42523511D01*
X59324900Y-42763949D01*
X58157739Y-42763949D01*
X58157739Y-41877190D01*
X58168993Y-41835190D01*
X58567940Y-41144193D01*
X84874697Y-41144193D01*
X84892172Y-41277828D01*
X84946451Y-41401187D01*
X85033172Y-41504353D01*
X85038154Y-41507669D01*
X85140381Y-41575718D01*
X85140384Y-41575720D01*
X85145362Y-41579033D01*
X85151074Y-41580818D01*
X85151075Y-41580818D01*
X85268291Y-41617439D01*
X85268293Y-41617439D01*
X85274002Y-41619223D01*
X85279980Y-41619333D01*
X85279983Y-41619333D01*
X85348192Y-41620583D01*
X85408752Y-41621693D01*
X85424356Y-41617439D01*
X85533007Y-41587818D01*
X85533009Y-41587817D01*
X85538779Y-41586244D01*
X85653631Y-41515725D01*
X85744073Y-41415806D01*
X85748772Y-41406107D01*
X85790000Y-41366084D01*
X85847308Y-41361925D01*
X85894962Y-41397803D01*
X85896451Y-41401187D01*
X85983172Y-41504353D01*
X85988154Y-41507669D01*
X86090381Y-41575718D01*
X86090384Y-41575720D01*
X86095362Y-41579033D01*
X86101074Y-41580818D01*
X86101075Y-41580818D01*
X86218291Y-41617439D01*
X86218293Y-41617439D01*
X86224002Y-41619223D01*
X86229980Y-41619333D01*
X86229983Y-41619333D01*
X86298192Y-41620583D01*
X86358752Y-41621693D01*
X86374356Y-41617439D01*
X86483007Y-41587818D01*
X86483009Y-41587817D01*
X86488779Y-41586244D01*
X86603631Y-41515725D01*
X86694073Y-41415806D01*
X86698773Y-41406107D01*
X86750225Y-41299907D01*
X86752836Y-41294518D01*
X86775196Y-41161614D01*
X86775338Y-41150000D01*
X86774878Y-41146787D01*
X86757080Y-41022508D01*
X86757080Y-41022507D01*
X86756232Y-41016588D01*
X86700450Y-40893902D01*
X86612475Y-40791803D01*
X86606627Y-40788012D01*
X86580385Y-40771003D01*
X86545766Y-40725144D01*
X86548723Y-40667761D01*
X86582123Y-40628931D01*
X86598531Y-40618857D01*
X86598534Y-40618855D01*
X86603631Y-40615725D01*
X86694073Y-40515806D01*
X86698773Y-40506107D01*
X86750225Y-40399907D01*
X86752836Y-40394518D01*
X86775196Y-40261614D01*
X86775338Y-40250000D01*
X86774878Y-40246787D01*
X86757080Y-40122508D01*
X86757080Y-40122507D01*
X86756232Y-40116588D01*
X86700450Y-39993902D01*
X86612475Y-39891803D01*
X86606627Y-39888012D01*
X86504404Y-39821754D01*
X86504403Y-39821754D01*
X86499382Y-39818499D01*
X86416079Y-39793586D01*
X86375991Y-39781597D01*
X86375989Y-39781597D01*
X86370259Y-39779883D01*
X86364279Y-39779846D01*
X86364276Y-39779846D01*
X86301215Y-39779461D01*
X86235489Y-39779060D01*
X86105905Y-39816095D01*
X85991924Y-39888012D01*
X85902709Y-39989029D01*
X85900168Y-39994440D01*
X85896879Y-39999448D01*
X85895092Y-39998274D01*
X85860498Y-40032682D01*
X85803243Y-40037535D01*
X85754438Y-40001713D01*
X85752928Y-39999352D01*
X85750450Y-39993902D01*
X85662475Y-39891803D01*
X85656627Y-39888012D01*
X85554404Y-39821754D01*
X85554403Y-39821754D01*
X85549382Y-39818499D01*
X85466079Y-39793586D01*
X85425991Y-39781597D01*
X85425989Y-39781597D01*
X85420259Y-39779883D01*
X85414279Y-39779846D01*
X85414276Y-39779846D01*
X85351215Y-39779461D01*
X85285489Y-39779060D01*
X85155905Y-39816095D01*
X85041924Y-39888012D01*
X84952709Y-39989029D01*
X84895432Y-40111025D01*
X84894512Y-40116936D01*
X84894511Y-40116938D01*
X84881936Y-40197701D01*
X84874697Y-40244193D01*
X84892172Y-40377828D01*
X84946451Y-40501187D01*
X84950300Y-40505766D01*
X84956489Y-40513128D01*
X85033172Y-40604353D01*
X85038154Y-40607670D01*
X85038156Y-40607671D01*
X85071196Y-40629665D01*
X85105252Y-40675944D01*
X85101594Y-40733286D01*
X85069472Y-40770630D01*
X85046986Y-40784817D01*
X85046981Y-40784821D01*
X85041924Y-40788012D01*
X84952709Y-40889029D01*
X84950168Y-40894441D01*
X84903248Y-40994378D01*
X84895432Y-41011025D01*
X84894512Y-41016936D01*
X84894511Y-41016938D01*
X84890551Y-41042370D01*
X84874697Y-41144193D01*
X58567940Y-41144193D01*
X58671511Y-40964803D01*
X58702255Y-40934059D01*
X60331066Y-39993663D01*
X64781360Y-39993663D01*
X64782136Y-39999597D01*
X64782136Y-39999598D01*
X64796707Y-40111025D01*
X64800428Y-40139483D01*
X64859656Y-40274090D01*
X64863505Y-40278669D01*
X64863507Y-40278672D01*
X64950431Y-40382080D01*
X64950433Y-40382082D01*
X64954284Y-40386663D01*
X65076703Y-40468152D01*
X65217073Y-40512007D01*
X65223050Y-40512117D01*
X65223053Y-40512117D01*
X65297527Y-40513482D01*
X65364109Y-40514702D01*
X65369881Y-40513128D01*
X65369884Y-40513128D01*
X65500219Y-40477594D01*
X65500220Y-40477594D01*
X65505992Y-40476020D01*
X65511090Y-40472890D01*
X65511092Y-40472889D01*
X65626216Y-40402202D01*
X65626217Y-40402201D01*
X65631315Y-40399071D01*
X65635328Y-40394637D01*
X65635331Y-40394635D01*
X65725991Y-40294475D01*
X65730004Y-40290042D01*
X65742229Y-40264811D01*
X65791517Y-40163081D01*
X65794126Y-40157696D01*
X65818524Y-40012672D01*
X65818679Y-40000000D01*
X65817806Y-39993902D01*
X65798679Y-39860344D01*
X65798679Y-39860343D01*
X65797831Y-39854424D01*
X65736962Y-39720551D01*
X65640967Y-39609142D01*
X65629662Y-39601814D01*
X65522583Y-39532410D01*
X65517561Y-39529155D01*
X65511831Y-39527441D01*
X65511828Y-39527440D01*
X65382398Y-39488732D01*
X65382396Y-39488732D01*
X65376666Y-39487018D01*
X65370686Y-39486981D01*
X65370683Y-39486981D01*
X65301318Y-39486558D01*
X65229607Y-39486120D01*
X65223851Y-39487765D01*
X65097932Y-39523753D01*
X65088208Y-39526532D01*
X64963834Y-39605006D01*
X64866484Y-39715233D01*
X64863943Y-39720644D01*
X64863943Y-39720645D01*
X64862421Y-39723886D01*
X64803985Y-39848353D01*
X64803065Y-39854264D01*
X64803064Y-39854266D01*
X64802118Y-39860344D01*
X64781360Y-39993663D01*
X60331066Y-39993663D01*
X62711652Y-38619229D01*
X75274888Y-38619229D01*
X75288958Y-38833891D01*
X75341911Y-39042395D01*
X75431974Y-39237757D01*
X75556131Y-39413436D01*
X75710224Y-39563547D01*
X75889093Y-39683063D01*
X76086746Y-39767981D01*
X76192007Y-39791799D01*
X76292808Y-39814608D01*
X76292809Y-39814608D01*
X76296565Y-39815458D01*
X76418982Y-39820268D01*
X76507673Y-39823753D01*
X76507676Y-39823753D01*
X76511522Y-39823904D01*
X76515328Y-39823352D01*
X76515331Y-39823352D01*
X76584641Y-39813302D01*
X76724419Y-39793035D01*
X76728058Y-39791800D01*
X76728061Y-39791799D01*
X76924475Y-39725125D01*
X76928125Y-39723886D01*
X77115819Y-39618773D01*
X77281215Y-39481215D01*
X77418773Y-39315819D01*
X77523886Y-39128125D01*
X77551800Y-39045893D01*
X77591799Y-38928061D01*
X77591800Y-38928058D01*
X77593035Y-38924419D01*
X77623904Y-38711522D01*
X77625515Y-38650000D01*
X77605831Y-38435779D01*
X77572961Y-38319229D01*
X84524888Y-38319229D01*
X84538958Y-38533891D01*
X84591911Y-38742395D01*
X84681974Y-38937757D01*
X84806131Y-39113436D01*
X84808890Y-39116124D01*
X84808892Y-39116126D01*
X84824661Y-39131487D01*
X84960224Y-39263547D01*
X85139093Y-39383063D01*
X85336746Y-39467981D01*
X85420878Y-39487018D01*
X85542808Y-39514608D01*
X85542809Y-39514608D01*
X85546565Y-39515458D01*
X85668982Y-39520268D01*
X85757673Y-39523753D01*
X85757676Y-39523753D01*
X85761522Y-39523904D01*
X85765328Y-39523352D01*
X85765331Y-39523352D01*
X85834641Y-39513302D01*
X85974419Y-39493035D01*
X85978058Y-39491800D01*
X85978061Y-39491799D01*
X86174475Y-39425125D01*
X86178125Y-39423886D01*
X86365819Y-39318773D01*
X86531215Y-39181215D01*
X86668773Y-39015819D01*
X86773886Y-38828125D01*
X86801800Y-38745893D01*
X86841799Y-38628061D01*
X86841800Y-38628058D01*
X86843035Y-38624419D01*
X86873904Y-38411522D01*
X86875515Y-38350000D01*
X86855831Y-38135779D01*
X86797438Y-37928733D01*
X86795735Y-37925279D01*
X86703998Y-37739255D01*
X86703994Y-37739249D01*
X86702291Y-37735795D01*
X86573578Y-37563427D01*
X86522132Y-37515871D01*
X86418432Y-37420011D01*
X86418429Y-37420009D01*
X86415608Y-37417401D01*
X86412361Y-37415352D01*
X86412358Y-37415350D01*
X86236924Y-37304659D01*
X86236922Y-37304658D01*
X86233673Y-37302608D01*
X86132841Y-37262380D01*
X86037439Y-37224319D01*
X86037436Y-37224318D01*
X86033864Y-37222893D01*
X85822875Y-37180925D01*
X85708557Y-37179428D01*
X85611618Y-37178159D01*
X85611614Y-37178159D01*
X85607770Y-37178109D01*
X85395754Y-37214540D01*
X85193928Y-37288997D01*
X85190620Y-37290965D01*
X85167603Y-37304659D01*
X85009050Y-37398988D01*
X84847312Y-37540829D01*
X84714130Y-37709769D01*
X84712340Y-37713172D01*
X84712337Y-37713176D01*
X84634663Y-37860811D01*
X84613966Y-37900150D01*
X84550173Y-38105597D01*
X84524888Y-38319229D01*
X77572961Y-38319229D01*
X77547438Y-38228733D01*
X77545735Y-38225279D01*
X77453998Y-38039255D01*
X77453994Y-38039249D01*
X77452291Y-38035795D01*
X77323578Y-37863427D01*
X77182162Y-37732703D01*
X77168432Y-37720011D01*
X77168429Y-37720009D01*
X77165608Y-37717401D01*
X77162361Y-37715352D01*
X77162358Y-37715350D01*
X76986924Y-37604659D01*
X76986922Y-37604658D01*
X76983673Y-37602608D01*
X76836409Y-37543856D01*
X76787439Y-37524319D01*
X76787436Y-37524318D01*
X76783864Y-37522893D01*
X76572875Y-37480925D01*
X76458557Y-37479428D01*
X76361618Y-37478159D01*
X76361614Y-37478159D01*
X76357770Y-37478109D01*
X76145754Y-37514540D01*
X75943928Y-37588997D01*
X75940620Y-37590965D01*
X75917603Y-37604659D01*
X75759050Y-37698988D01*
X75597312Y-37840829D01*
X75464130Y-38009769D01*
X75462340Y-38013172D01*
X75462337Y-38013176D01*
X75397833Y-38135779D01*
X75363966Y-38200150D01*
X75355091Y-38228733D01*
X75316669Y-38352472D01*
X75300173Y-38405597D01*
X75274888Y-38619229D01*
X62711652Y-38619229D01*
X68903787Y-35044193D01*
X73124697Y-35044193D01*
X73142172Y-35177828D01*
X73196451Y-35301187D01*
X73283172Y-35404353D01*
X73288154Y-35407669D01*
X73390381Y-35475718D01*
X73390384Y-35475720D01*
X73395362Y-35479033D01*
X73401074Y-35480818D01*
X73401075Y-35480818D01*
X73518291Y-35517439D01*
X73518293Y-35517439D01*
X73524002Y-35519223D01*
X73529980Y-35519333D01*
X73529983Y-35519333D01*
X73598192Y-35520583D01*
X73658752Y-35521693D01*
X73725609Y-35503466D01*
X73783007Y-35487818D01*
X73783009Y-35487817D01*
X73788779Y-35486244D01*
X73903631Y-35415725D01*
X73994073Y-35315806D01*
X73998938Y-35305766D01*
X74037526Y-35226118D01*
X81533275Y-35226118D01*
X81534624Y-35231150D01*
X81539660Y-35234676D01*
X81746676Y-35355647D01*
X81752867Y-35358613D01*
X81976857Y-35444147D01*
X81983456Y-35446064D01*
X82218412Y-35493867D01*
X82225224Y-35494679D01*
X82464841Y-35503466D01*
X82471692Y-35503155D01*
X82709520Y-35472688D01*
X82716236Y-35471260D01*
X82945882Y-35402363D01*
X82952294Y-35399850D01*
X83167600Y-35294373D01*
X83173507Y-35290852D01*
X83257048Y-35231262D01*
X83263888Y-35221309D01*
X83263476Y-35217029D01*
X82410473Y-34364026D01*
X82399530Y-34358923D01*
X82392836Y-34360717D01*
X81538378Y-35215175D01*
X81533275Y-35226118D01*
X74037526Y-35226118D01*
X74050225Y-35199907D01*
X74052836Y-35194518D01*
X74075196Y-35061614D01*
X74075338Y-35050000D01*
X74074878Y-35046787D01*
X74057080Y-34922508D01*
X74057080Y-34922507D01*
X74056232Y-34916588D01*
X74000450Y-34793902D01*
X73912475Y-34691803D01*
X73906627Y-34688012D01*
X73804404Y-34621754D01*
X73804403Y-34621754D01*
X73799382Y-34618499D01*
X73751468Y-34604170D01*
X73675991Y-34581597D01*
X73675989Y-34581597D01*
X73670259Y-34579883D01*
X73664279Y-34579846D01*
X73664276Y-34579846D01*
X73601215Y-34579461D01*
X73535489Y-34579060D01*
X73405905Y-34616095D01*
X73291924Y-34688012D01*
X73287963Y-34692496D01*
X73287964Y-34692496D01*
X73212449Y-34778001D01*
X73202709Y-34789029D01*
X73200168Y-34794441D01*
X73167628Y-34863750D01*
X73145432Y-34911025D01*
X73124697Y-35044193D01*
X68903787Y-35044193D01*
X71501860Y-33544193D01*
X73124697Y-33544193D01*
X73142172Y-33677828D01*
X73196451Y-33801187D01*
X73283172Y-33904353D01*
X73288154Y-33907669D01*
X73390381Y-33975718D01*
X73390384Y-33975720D01*
X73395362Y-33979033D01*
X73401074Y-33980818D01*
X73401075Y-33980818D01*
X73518291Y-34017439D01*
X73518293Y-34017439D01*
X73524002Y-34019223D01*
X73529980Y-34019333D01*
X73529983Y-34019333D01*
X73598192Y-34020583D01*
X73658752Y-34021693D01*
X73699907Y-34010473D01*
X73783007Y-33987818D01*
X73783009Y-33987817D01*
X73788779Y-33986244D01*
X73820662Y-33966668D01*
X80895506Y-33966668D01*
X80909309Y-34206041D01*
X80910264Y-34212832D01*
X80962977Y-34446740D01*
X80965030Y-34453292D01*
X81055233Y-34675434D01*
X81058335Y-34681576D01*
X81167068Y-34859011D01*
X81176518Y-34866528D01*
X81179515Y-34866449D01*
X81180918Y-34865529D01*
X82035974Y-34010473D01*
X82040639Y-34000470D01*
X82758923Y-34000470D01*
X82760717Y-34007164D01*
X83612200Y-34858647D01*
X83623143Y-34863750D01*
X83627340Y-34862625D01*
X83688149Y-34778001D01*
X83691684Y-34772118D01*
X83797919Y-34557167D01*
X83800447Y-34550780D01*
X83870146Y-34321376D01*
X83871600Y-34314652D01*
X83903052Y-34075740D01*
X83903398Y-34071297D01*
X83905087Y-34002227D01*
X83904959Y-33997783D01*
X83885212Y-33757597D01*
X83884091Y-33750833D01*
X83825682Y-33518293D01*
X83823465Y-33511779D01*
X83739741Y-33319229D01*
X84524888Y-33319229D01*
X84538958Y-33533891D01*
X84591911Y-33742395D01*
X84681974Y-33937757D01*
X84806131Y-34113436D01*
X84960224Y-34263547D01*
X85139093Y-34383063D01*
X85336746Y-34467981D01*
X85442007Y-34491799D01*
X85542808Y-34514608D01*
X85542809Y-34514608D01*
X85546565Y-34515458D01*
X85668982Y-34520268D01*
X85757673Y-34523753D01*
X85757676Y-34523753D01*
X85761522Y-34523904D01*
X85765328Y-34523352D01*
X85765331Y-34523352D01*
X85834641Y-34513302D01*
X85974419Y-34493035D01*
X85978058Y-34491800D01*
X85978061Y-34491799D01*
X86174475Y-34425125D01*
X86178125Y-34423886D01*
X86365819Y-34318773D01*
X86531215Y-34181215D01*
X86668773Y-34015819D01*
X86773886Y-33828125D01*
X86801800Y-33745893D01*
X86841799Y-33628061D01*
X86841800Y-33628058D01*
X86843035Y-33624419D01*
X86873904Y-33411522D01*
X86875515Y-33350000D01*
X86855831Y-33135779D01*
X86797438Y-32928733D01*
X86795735Y-32925279D01*
X86703998Y-32739255D01*
X86703994Y-32739249D01*
X86702291Y-32735795D01*
X86573578Y-32563427D01*
X86544888Y-32536906D01*
X86418432Y-32420011D01*
X86418429Y-32420009D01*
X86415608Y-32417401D01*
X86412361Y-32415352D01*
X86412358Y-32415350D01*
X86236924Y-32304659D01*
X86236922Y-32304658D01*
X86233673Y-32302608D01*
X86055681Y-32231597D01*
X86037439Y-32224319D01*
X86037436Y-32224318D01*
X86033864Y-32222893D01*
X85822875Y-32180925D01*
X85708557Y-32179428D01*
X85611618Y-32178159D01*
X85611614Y-32178159D01*
X85607770Y-32178109D01*
X85395754Y-32214540D01*
X85193928Y-32288997D01*
X85190620Y-32290965D01*
X85110639Y-32338549D01*
X85009050Y-32398988D01*
X84847312Y-32540829D01*
X84714130Y-32709769D01*
X84712340Y-32713172D01*
X84712337Y-32713176D01*
X84655136Y-32821898D01*
X84613966Y-32900150D01*
X84605091Y-32928733D01*
X84561582Y-33068855D01*
X84550173Y-33105597D01*
X84549721Y-33109416D01*
X84528122Y-33291909D01*
X84524888Y-33319229D01*
X83739741Y-33319229D01*
X83727862Y-33291909D01*
X83724612Y-33285847D01*
X83631741Y-33142291D01*
X83622112Y-33135008D01*
X83618567Y-33135187D01*
X83617951Y-33135602D01*
X82764026Y-33989527D01*
X82758923Y-34000470D01*
X82040639Y-34000470D01*
X82041077Y-33999530D01*
X82039283Y-33992836D01*
X81187613Y-33141166D01*
X81176670Y-33136063D01*
X81172762Y-33137111D01*
X81093232Y-33253698D01*
X81089837Y-33259674D01*
X80988887Y-33477152D01*
X80986514Y-33483601D01*
X80922441Y-33714639D01*
X80921152Y-33721400D01*
X80895675Y-33959794D01*
X80895506Y-33966668D01*
X73820662Y-33966668D01*
X73903631Y-33915725D01*
X73994073Y-33815806D01*
X73998938Y-33805766D01*
X74050225Y-33699907D01*
X74052836Y-33694518D01*
X74075196Y-33561614D01*
X74075338Y-33550000D01*
X74074878Y-33546787D01*
X74057080Y-33422508D01*
X74057080Y-33422507D01*
X74056232Y-33416588D01*
X74000450Y-33293902D01*
X73912475Y-33191803D01*
X73906627Y-33188012D01*
X73804404Y-33121754D01*
X73804403Y-33121754D01*
X73799382Y-33118499D01*
X73743959Y-33101924D01*
X73675991Y-33081597D01*
X73675989Y-33081597D01*
X73670259Y-33079883D01*
X73664279Y-33079846D01*
X73664276Y-33079846D01*
X73601215Y-33079461D01*
X73535489Y-33079060D01*
X73529733Y-33080705D01*
X73429275Y-33109416D01*
X73405905Y-33116095D01*
X73291924Y-33188012D01*
X73202709Y-33289029D01*
X73200168Y-33294441D01*
X73172923Y-33352472D01*
X73145432Y-33411025D01*
X73144512Y-33416936D01*
X73144511Y-33416938D01*
X73131936Y-33497701D01*
X73124697Y-33544193D01*
X71501860Y-33544193D01*
X72974101Y-32694193D01*
X74074697Y-32694193D01*
X74075473Y-32700127D01*
X74075473Y-32700128D01*
X74076551Y-32708373D01*
X74092172Y-32827828D01*
X74146451Y-32951187D01*
X74233172Y-33054353D01*
X74238154Y-33057669D01*
X74340381Y-33125718D01*
X74340384Y-33125720D01*
X74345362Y-33129033D01*
X74351074Y-33130818D01*
X74351075Y-33130818D01*
X74468291Y-33167439D01*
X74468293Y-33167439D01*
X74474002Y-33169223D01*
X74479980Y-33169333D01*
X74479983Y-33169333D01*
X74548192Y-33170583D01*
X74608752Y-33171693D01*
X74624356Y-33167439D01*
X74733007Y-33137818D01*
X74733009Y-33137817D01*
X74738779Y-33136244D01*
X74853631Y-33065725D01*
X74944073Y-32965806D01*
X74948938Y-32955766D01*
X75000225Y-32849907D01*
X75002836Y-32844518D01*
X75013994Y-32778198D01*
X81535781Y-32778198D01*
X81536336Y-32782783D01*
X82389527Y-33635974D01*
X82400470Y-33641077D01*
X82407164Y-33639283D01*
X83259994Y-32786453D01*
X83265097Y-32775510D01*
X83263815Y-32770726D01*
X83235633Y-32748469D01*
X83229918Y-32744672D01*
X83020010Y-32628797D01*
X83013743Y-32625980D01*
X82787733Y-32545945D01*
X82781085Y-32544189D01*
X82545042Y-32502144D01*
X82538200Y-32501497D01*
X82298452Y-32498567D01*
X82291597Y-32499047D01*
X82054595Y-32535313D01*
X82047911Y-32536906D01*
X81820007Y-32611396D01*
X81813681Y-32614055D01*
X81601006Y-32724767D01*
X81595188Y-32728431D01*
X81542374Y-32768084D01*
X81535781Y-32778198D01*
X75013994Y-32778198D01*
X75025196Y-32711614D01*
X75025338Y-32700000D01*
X75024878Y-32696787D01*
X75007080Y-32572508D01*
X75007080Y-32572507D01*
X75006232Y-32566588D01*
X74950450Y-32443902D01*
X74862475Y-32341803D01*
X74856627Y-32338012D01*
X74754404Y-32271754D01*
X74754403Y-32271754D01*
X74749382Y-32268499D01*
X74701468Y-32254170D01*
X74625991Y-32231597D01*
X74625989Y-32231597D01*
X74620259Y-32229883D01*
X74614279Y-32229846D01*
X74614276Y-32229846D01*
X74551215Y-32229461D01*
X74485489Y-32229060D01*
X74355905Y-32266095D01*
X74241924Y-32338012D01*
X74237963Y-32342496D01*
X74237964Y-32342496D01*
X74173622Y-32415350D01*
X74152709Y-32439029D01*
X74150168Y-32444441D01*
X74123077Y-32502144D01*
X74095432Y-32561025D01*
X74094512Y-32566936D01*
X74094511Y-32566938D01*
X74081936Y-32647701D01*
X74074697Y-32694193D01*
X72974101Y-32694193D01*
X85155521Y-25661237D01*
X85197519Y-25649983D01*
X85700039Y-25649983D01*
X86202559Y-25649984D01*
G37*
%TD.AperFunction*%
%TD*%
%TA.AperFunction,Conductor*%
%TO.N,+5V*%
G36*
X87837525Y-26580941D02*
G01*
X110774649Y-39823753D01*
X112697745Y-40934058D01*
X112728491Y-40964804D01*
X113231007Y-41835191D01*
X113242261Y-41877189D01*
X113242261Y-72422675D01*
X113231007Y-72464675D01*
X112728492Y-73335062D01*
X112697746Y-73365808D01*
X109251375Y-75355597D01*
X86244558Y-88638760D01*
X86202558Y-88650014D01*
X85700040Y-88650015D01*
X85197521Y-88650015D01*
X85155522Y-88638761D01*
X71785034Y-80919229D01*
X84524888Y-80919229D01*
X84538958Y-81133891D01*
X84591911Y-81342395D01*
X84681974Y-81537757D01*
X84806131Y-81713436D01*
X84960224Y-81863547D01*
X85139093Y-81983063D01*
X85336746Y-82067981D01*
X85442007Y-82091799D01*
X85542808Y-82114608D01*
X85542809Y-82114608D01*
X85546565Y-82115458D01*
X85668982Y-82120268D01*
X85757673Y-82123753D01*
X85757676Y-82123753D01*
X85761522Y-82123904D01*
X85765328Y-82123352D01*
X85765331Y-82123352D01*
X85834641Y-82113302D01*
X85974419Y-82093035D01*
X85978058Y-82091800D01*
X85978061Y-82091799D01*
X86174475Y-82025125D01*
X86178125Y-82023886D01*
X86365819Y-81918773D01*
X86531215Y-81781215D01*
X86668773Y-81615819D01*
X86773886Y-81428125D01*
X86801800Y-81345893D01*
X86841799Y-81228061D01*
X86841800Y-81228058D01*
X86843035Y-81224419D01*
X86873904Y-81011522D01*
X86875515Y-80950000D01*
X86855831Y-80735779D01*
X86797438Y-80528733D01*
X86795735Y-80525279D01*
X86703998Y-80339255D01*
X86703994Y-80339249D01*
X86702291Y-80335795D01*
X86573578Y-80163427D01*
X86546380Y-80138285D01*
X86418432Y-80020011D01*
X86418429Y-80020009D01*
X86415608Y-80017401D01*
X86412361Y-80015352D01*
X86412358Y-80015350D01*
X86236924Y-79904659D01*
X86236922Y-79904658D01*
X86233673Y-79902608D01*
X86099480Y-79849071D01*
X86037439Y-79824319D01*
X86037436Y-79824318D01*
X86033864Y-79822893D01*
X85822875Y-79780925D01*
X85708557Y-79779428D01*
X85611618Y-79778159D01*
X85611614Y-79778159D01*
X85607770Y-79778109D01*
X85395754Y-79814540D01*
X85193928Y-79888997D01*
X85190620Y-79890965D01*
X85066680Y-79964702D01*
X85009050Y-79998988D01*
X84847312Y-80140829D01*
X84714130Y-80309769D01*
X84712340Y-80313172D01*
X84712337Y-80313176D01*
X84619843Y-80488981D01*
X84613966Y-80500150D01*
X84550173Y-80705597D01*
X84524888Y-80919229D01*
X71785034Y-80919229D01*
X69229304Y-79443663D01*
X71700293Y-79443663D01*
X71719361Y-79589483D01*
X71778589Y-79724090D01*
X71782438Y-79728669D01*
X71782440Y-79728672D01*
X71869364Y-79832080D01*
X71869366Y-79832082D01*
X71873217Y-79836663D01*
X71995636Y-79918152D01*
X72136006Y-79962007D01*
X72141983Y-79962117D01*
X72141986Y-79962117D01*
X72216460Y-79963482D01*
X72283042Y-79964702D01*
X72288814Y-79963128D01*
X72288817Y-79963128D01*
X72419152Y-79927594D01*
X72419153Y-79927594D01*
X72424925Y-79926020D01*
X72430023Y-79922890D01*
X72430025Y-79922889D01*
X72545149Y-79852202D01*
X72545150Y-79852201D01*
X72550248Y-79849071D01*
X72554261Y-79844637D01*
X72554264Y-79844635D01*
X72644924Y-79744475D01*
X72648937Y-79740042D01*
X72713059Y-79607696D01*
X72737457Y-79462672D01*
X72737612Y-79450000D01*
X72737152Y-79446787D01*
X72736705Y-79443663D01*
X90231360Y-79443663D01*
X90250428Y-79589483D01*
X90309656Y-79724090D01*
X90313505Y-79728669D01*
X90313507Y-79728672D01*
X90400431Y-79832080D01*
X90400433Y-79832082D01*
X90404284Y-79836663D01*
X90526703Y-79918152D01*
X90667073Y-79962007D01*
X90673050Y-79962117D01*
X90673053Y-79962117D01*
X90747527Y-79963482D01*
X90814109Y-79964702D01*
X90819881Y-79963128D01*
X90819884Y-79963128D01*
X90950219Y-79927594D01*
X90950220Y-79927594D01*
X90955992Y-79926020D01*
X90961090Y-79922890D01*
X90961092Y-79922889D01*
X91076216Y-79852202D01*
X91076217Y-79852201D01*
X91081315Y-79849071D01*
X91085328Y-79844637D01*
X91085331Y-79844635D01*
X91175991Y-79744475D01*
X91180004Y-79740042D01*
X91244126Y-79607696D01*
X91268524Y-79462672D01*
X91268679Y-79450000D01*
X91268219Y-79446787D01*
X91248679Y-79310344D01*
X91248679Y-79310343D01*
X91247831Y-79304424D01*
X91186962Y-79170551D01*
X91090967Y-79059142D01*
X91079662Y-79051814D01*
X90972583Y-78982410D01*
X90967561Y-78979155D01*
X90961831Y-78977441D01*
X90961828Y-78977440D01*
X90832398Y-78938732D01*
X90832396Y-78938732D01*
X90826666Y-78937018D01*
X90820686Y-78936981D01*
X90820683Y-78936981D01*
X90751318Y-78936558D01*
X90679607Y-78936120D01*
X90538208Y-78976532D01*
X90413834Y-79055006D01*
X90316484Y-79165233D01*
X90253985Y-79298353D01*
X90253065Y-79304264D01*
X90253064Y-79304266D01*
X90252118Y-79310344D01*
X90231360Y-79443663D01*
X72736705Y-79443663D01*
X72717612Y-79310344D01*
X72717612Y-79310343D01*
X72716764Y-79304424D01*
X72655895Y-79170551D01*
X72559900Y-79059142D01*
X72548595Y-79051814D01*
X72441516Y-78982410D01*
X72436494Y-78979155D01*
X72430764Y-78977441D01*
X72430761Y-78977440D01*
X72301331Y-78938732D01*
X72301329Y-78938732D01*
X72295599Y-78937018D01*
X72289619Y-78936981D01*
X72289616Y-78936981D01*
X72220251Y-78936558D01*
X72148540Y-78936120D01*
X72007141Y-78976532D01*
X71882767Y-79055006D01*
X71785417Y-79165233D01*
X71722918Y-79298353D01*
X71721998Y-79304264D01*
X71721997Y-79304266D01*
X71721051Y-79310344D01*
X71700293Y-79443663D01*
X69229304Y-79443663D01*
X67935946Y-78696935D01*
X97728088Y-78696935D01*
X97747156Y-78842755D01*
X97806384Y-78977362D01*
X97810233Y-78981941D01*
X97810235Y-78981944D01*
X97897159Y-79085352D01*
X97897161Y-79085354D01*
X97901012Y-79089935D01*
X98023431Y-79171424D01*
X98029141Y-79173208D01*
X98038593Y-79176161D01*
X98163801Y-79215279D01*
X98169778Y-79215389D01*
X98169781Y-79215389D01*
X98244255Y-79216754D01*
X98310837Y-79217974D01*
X98316609Y-79216400D01*
X98316612Y-79216400D01*
X98446947Y-79180866D01*
X98446948Y-79180866D01*
X98452720Y-79179292D01*
X98457818Y-79176162D01*
X98457820Y-79176161D01*
X98572944Y-79105474D01*
X98572945Y-79105473D01*
X98578043Y-79102343D01*
X98582056Y-79097909D01*
X98582059Y-79097907D01*
X98672719Y-78997747D01*
X98676732Y-78993314D01*
X98683317Y-78979724D01*
X98738245Y-78866353D01*
X98740854Y-78860968D01*
X98765252Y-78715944D01*
X98765407Y-78703272D01*
X98764947Y-78700059D01*
X98745407Y-78563616D01*
X98745407Y-78563615D01*
X98744559Y-78557696D01*
X98683690Y-78423823D01*
X98587695Y-78312414D01*
X98576390Y-78305086D01*
X98469311Y-78235682D01*
X98464289Y-78232427D01*
X98458559Y-78230713D01*
X98458556Y-78230712D01*
X98329126Y-78192004D01*
X98329124Y-78192004D01*
X98323394Y-78190290D01*
X98317414Y-78190253D01*
X98317411Y-78190253D01*
X98248046Y-78189830D01*
X98176335Y-78189392D01*
X98034936Y-78229804D01*
X97910562Y-78308278D01*
X97813212Y-78418505D01*
X97750713Y-78551625D01*
X97749793Y-78557536D01*
X97749792Y-78557538D01*
X97748846Y-78563616D01*
X97728088Y-78696935D01*
X67935946Y-78696935D01*
X65470792Y-77273663D01*
X91011360Y-77273663D01*
X91030428Y-77419483D01*
X91089656Y-77554090D01*
X91093505Y-77558669D01*
X91093507Y-77558672D01*
X91180431Y-77662080D01*
X91180433Y-77662082D01*
X91184284Y-77666663D01*
X91306703Y-77748152D01*
X91447073Y-77792007D01*
X91453050Y-77792117D01*
X91453053Y-77792117D01*
X91527527Y-77793482D01*
X91594109Y-77794702D01*
X91599881Y-77793128D01*
X91599884Y-77793128D01*
X91730219Y-77757594D01*
X91730220Y-77757594D01*
X91735992Y-77756020D01*
X91741090Y-77752890D01*
X91741092Y-77752889D01*
X91856216Y-77682202D01*
X91856217Y-77682201D01*
X91861315Y-77679071D01*
X91865328Y-77674637D01*
X91865331Y-77674635D01*
X91941901Y-77590042D01*
X91960004Y-77570042D01*
X92017296Y-77451794D01*
X92021517Y-77443081D01*
X92024126Y-77437696D01*
X92048357Y-77293663D01*
X92381360Y-77293663D01*
X92382136Y-77299597D01*
X92382136Y-77299598D01*
X92399423Y-77431794D01*
X92400428Y-77439483D01*
X92459656Y-77574090D01*
X92463505Y-77578669D01*
X92463507Y-77578672D01*
X92550431Y-77682080D01*
X92550433Y-77682082D01*
X92554284Y-77686663D01*
X92676703Y-77768152D01*
X92817073Y-77812007D01*
X92823050Y-77812117D01*
X92823053Y-77812117D01*
X92897527Y-77813482D01*
X92964109Y-77814702D01*
X92969881Y-77813128D01*
X92969884Y-77813128D01*
X93100219Y-77777594D01*
X93100220Y-77777594D01*
X93105992Y-77776020D01*
X93111090Y-77772890D01*
X93111092Y-77772889D01*
X93226216Y-77702202D01*
X93226217Y-77702201D01*
X93231315Y-77699071D01*
X93235328Y-77694637D01*
X93235331Y-77694635D01*
X93325991Y-77594475D01*
X93330004Y-77590042D01*
X93337547Y-77574475D01*
X93391517Y-77463081D01*
X93394126Y-77457696D01*
X93418524Y-77312672D01*
X93418679Y-77300000D01*
X93418088Y-77295870D01*
X93398679Y-77160344D01*
X93398679Y-77160343D01*
X93397831Y-77154424D01*
X93336962Y-77020551D01*
X93240967Y-76909142D01*
X93229662Y-76901814D01*
X93122583Y-76832410D01*
X93117561Y-76829155D01*
X93111831Y-76827441D01*
X93111828Y-76827440D01*
X92982398Y-76788732D01*
X92982396Y-76788732D01*
X92976666Y-76787018D01*
X92970686Y-76786981D01*
X92970683Y-76786981D01*
X92901318Y-76786558D01*
X92829607Y-76786120D01*
X92823851Y-76787765D01*
X92755010Y-76807440D01*
X92688208Y-76826532D01*
X92563834Y-76905006D01*
X92466484Y-77015233D01*
X92463943Y-77020644D01*
X92463943Y-77020645D01*
X92462421Y-77023886D01*
X92403985Y-77148353D01*
X92403065Y-77154264D01*
X92403064Y-77154266D01*
X92401439Y-77164702D01*
X92381360Y-77293663D01*
X92048357Y-77293663D01*
X92048524Y-77292672D01*
X92048679Y-77280000D01*
X92048219Y-77276787D01*
X92028679Y-77140344D01*
X92028679Y-77140343D01*
X92027831Y-77134424D01*
X91966962Y-77000551D01*
X91870967Y-76889142D01*
X91859662Y-76881814D01*
X91752583Y-76812410D01*
X91747561Y-76809155D01*
X91741831Y-76807441D01*
X91741828Y-76807440D01*
X91612398Y-76768732D01*
X91612396Y-76768732D01*
X91606666Y-76767018D01*
X91600686Y-76766981D01*
X91600683Y-76766981D01*
X91531318Y-76766558D01*
X91459607Y-76766120D01*
X91453851Y-76767765D01*
X91358698Y-76794960D01*
X91318208Y-76806532D01*
X91193834Y-76885006D01*
X91096484Y-76995233D01*
X91033985Y-77128353D01*
X91033065Y-77134264D01*
X91033064Y-77134266D01*
X91028325Y-77164702D01*
X91011360Y-77273663D01*
X65470792Y-77273663D01*
X62518655Y-75569229D01*
X75324888Y-75569229D01*
X75338958Y-75783891D01*
X75391911Y-75992395D01*
X75481974Y-76187757D01*
X75606131Y-76363436D01*
X75608890Y-76366124D01*
X75608892Y-76366126D01*
X75613531Y-76370645D01*
X75760224Y-76513547D01*
X75939093Y-76633063D01*
X76080021Y-76693610D01*
X76118845Y-76710290D01*
X76136746Y-76717981D01*
X76242007Y-76741799D01*
X76342808Y-76764608D01*
X76342809Y-76764608D01*
X76346565Y-76765458D01*
X76468982Y-76770268D01*
X76557673Y-76773753D01*
X76557676Y-76773753D01*
X76561522Y-76773904D01*
X76565328Y-76773352D01*
X76565331Y-76773352D01*
X76634641Y-76763302D01*
X76774419Y-76743035D01*
X76778058Y-76741800D01*
X76778061Y-76741799D01*
X76974475Y-76675125D01*
X76978125Y-76673886D01*
X77165819Y-76568773D01*
X77331215Y-76431215D01*
X77468773Y-76265819D01*
X77573886Y-76078125D01*
X77601800Y-75995893D01*
X77627824Y-75919229D01*
X84524888Y-75919229D01*
X84538958Y-76133891D01*
X84591911Y-76342395D01*
X84681974Y-76537757D01*
X84806131Y-76713436D01*
X84808890Y-76716124D01*
X84808892Y-76716126D01*
X84861096Y-76766981D01*
X84960224Y-76863547D01*
X85139093Y-76983063D01*
X85239030Y-77025999D01*
X85292732Y-77049071D01*
X85336746Y-77067981D01*
X85442007Y-77091799D01*
X85542808Y-77114608D01*
X85542809Y-77114608D01*
X85546565Y-77115458D01*
X85668982Y-77120268D01*
X85757673Y-77123753D01*
X85757676Y-77123753D01*
X85761522Y-77123904D01*
X85765328Y-77123352D01*
X85765331Y-77123352D01*
X85834641Y-77113302D01*
X85974419Y-77093035D01*
X85978058Y-77091800D01*
X85978061Y-77091799D01*
X86174475Y-77025125D01*
X86178125Y-77023886D01*
X86365819Y-76918773D01*
X86531215Y-76781215D01*
X86668773Y-76615819D01*
X86714451Y-76534255D01*
X86741116Y-76486641D01*
X86784645Y-76449134D01*
X86842100Y-76448381D01*
X86886596Y-76484736D01*
X86897406Y-76540608D01*
X86881360Y-76643663D01*
X86882136Y-76649597D01*
X86882136Y-76649598D01*
X86898319Y-76773352D01*
X86900428Y-76789483D01*
X86959656Y-76924090D01*
X86963505Y-76928669D01*
X86963507Y-76928672D01*
X87050431Y-77032080D01*
X87050433Y-77032082D01*
X87054284Y-77036663D01*
X87176703Y-77118152D01*
X87182413Y-77119936D01*
X87195114Y-77123904D01*
X87317073Y-77162007D01*
X87323050Y-77162117D01*
X87323053Y-77162117D01*
X87397527Y-77163482D01*
X87464109Y-77164702D01*
X87469881Y-77163128D01*
X87469884Y-77163128D01*
X87600219Y-77127594D01*
X87600220Y-77127594D01*
X87605992Y-77126020D01*
X87611090Y-77122890D01*
X87611092Y-77122889D01*
X87726216Y-77052202D01*
X87726217Y-77052201D01*
X87731315Y-77049071D01*
X87735328Y-77044637D01*
X87735331Y-77044635D01*
X87825991Y-76944475D01*
X87830004Y-76940042D01*
X87841503Y-76916310D01*
X87891517Y-76813081D01*
X87894126Y-76807696D01*
X87901207Y-76765609D01*
X87917986Y-76665870D01*
X87918524Y-76662672D01*
X87918679Y-76650000D01*
X87918219Y-76646787D01*
X87917772Y-76643663D01*
X88181360Y-76643663D01*
X88182136Y-76649597D01*
X88182136Y-76649598D01*
X88198319Y-76773352D01*
X88200428Y-76789483D01*
X88259656Y-76924090D01*
X88263505Y-76928669D01*
X88263507Y-76928672D01*
X88350431Y-77032080D01*
X88350433Y-77032082D01*
X88354284Y-77036663D01*
X88476703Y-77118152D01*
X88482413Y-77119936D01*
X88495114Y-77123904D01*
X88617073Y-77162007D01*
X88623050Y-77162117D01*
X88623053Y-77162117D01*
X88697527Y-77163482D01*
X88764109Y-77164702D01*
X88769881Y-77163128D01*
X88769884Y-77163128D01*
X88900219Y-77127594D01*
X88900220Y-77127594D01*
X88905992Y-77126020D01*
X88911090Y-77122890D01*
X88911092Y-77122889D01*
X89026216Y-77052202D01*
X89026217Y-77052201D01*
X89031315Y-77049071D01*
X89035328Y-77044637D01*
X89035331Y-77044635D01*
X89125991Y-76944475D01*
X89130004Y-76940042D01*
X89141503Y-76916310D01*
X89191517Y-76813081D01*
X89194126Y-76807696D01*
X89201207Y-76765609D01*
X89217986Y-76665870D01*
X89218524Y-76662672D01*
X89218679Y-76650000D01*
X89218219Y-76646787D01*
X89198679Y-76510344D01*
X89198679Y-76510343D01*
X89197831Y-76504424D01*
X89136962Y-76370551D01*
X89040967Y-76259142D01*
X89029662Y-76251814D01*
X88922583Y-76182410D01*
X88917561Y-76179155D01*
X88911831Y-76177441D01*
X88911828Y-76177440D01*
X88782398Y-76138732D01*
X88782396Y-76138732D01*
X88776666Y-76137018D01*
X88770686Y-76136981D01*
X88770683Y-76136981D01*
X88701318Y-76136558D01*
X88629607Y-76136120D01*
X88488208Y-76176532D01*
X88363834Y-76255006D01*
X88266484Y-76365233D01*
X88203985Y-76498353D01*
X88203065Y-76504264D01*
X88203064Y-76504266D01*
X88193404Y-76566310D01*
X88181360Y-76643663D01*
X87917772Y-76643663D01*
X87898679Y-76510344D01*
X87898679Y-76510343D01*
X87897831Y-76504424D01*
X87836962Y-76370551D01*
X87740967Y-76259142D01*
X87729662Y-76251814D01*
X87622583Y-76182410D01*
X87617561Y-76179155D01*
X87611831Y-76177441D01*
X87611828Y-76177440D01*
X87482398Y-76138732D01*
X87482396Y-76138732D01*
X87476666Y-76137018D01*
X87470686Y-76136981D01*
X87470683Y-76136981D01*
X87401318Y-76136558D01*
X87329607Y-76136120D01*
X87188208Y-76176532D01*
X87063834Y-76255006D01*
X86966484Y-76365233D01*
X86964672Y-76363633D01*
X86926200Y-76392307D01*
X86868836Y-76388998D01*
X86827020Y-76349590D01*
X86820317Y-76292523D01*
X86822522Y-76284848D01*
X86841799Y-76228061D01*
X86841800Y-76228058D01*
X86843035Y-76224419D01*
X86873904Y-76011522D01*
X86875515Y-75950000D01*
X86855831Y-75735779D01*
X86808859Y-75569229D01*
X93724888Y-75569229D01*
X93738958Y-75783891D01*
X93791911Y-75992395D01*
X93881974Y-76187757D01*
X94006131Y-76363436D01*
X94008890Y-76366124D01*
X94008892Y-76366126D01*
X94013531Y-76370645D01*
X94160224Y-76513547D01*
X94339093Y-76633063D01*
X94480021Y-76693610D01*
X94518845Y-76710290D01*
X94536746Y-76717981D01*
X94642007Y-76741799D01*
X94742808Y-76764608D01*
X94742809Y-76764608D01*
X94746565Y-76765458D01*
X94868982Y-76770268D01*
X94957673Y-76773753D01*
X94957676Y-76773753D01*
X94961522Y-76773904D01*
X94965328Y-76773352D01*
X94965331Y-76773352D01*
X95034641Y-76763302D01*
X95174419Y-76743035D01*
X95178058Y-76741800D01*
X95178061Y-76741799D01*
X95374475Y-76675125D01*
X95378125Y-76673886D01*
X95565819Y-76568773D01*
X95731215Y-76431215D01*
X95868773Y-76265819D01*
X95973886Y-76078125D01*
X96001800Y-75995893D01*
X96041799Y-75878061D01*
X96041800Y-75878058D01*
X96043035Y-75874419D01*
X96073904Y-75661522D01*
X96075515Y-75600000D01*
X96055831Y-75385779D01*
X95997438Y-75178733D01*
X95995735Y-75175279D01*
X95903998Y-74989255D01*
X95903994Y-74989249D01*
X95902291Y-74985795D01*
X95773578Y-74813427D01*
X95738418Y-74780925D01*
X95618432Y-74670011D01*
X95618429Y-74670009D01*
X95615608Y-74667401D01*
X95612361Y-74665352D01*
X95612358Y-74665350D01*
X95436924Y-74554659D01*
X95436922Y-74554658D01*
X95433673Y-74552608D01*
X95332841Y-74512380D01*
X95237439Y-74474319D01*
X95237436Y-74474318D01*
X95233864Y-74472893D01*
X95022875Y-74430925D01*
X94908557Y-74429428D01*
X94811618Y-74428159D01*
X94811614Y-74428159D01*
X94807770Y-74428109D01*
X94595754Y-74464540D01*
X94393928Y-74538997D01*
X94390620Y-74540965D01*
X94348759Y-74565870D01*
X94209050Y-74648988D01*
X94047312Y-74790829D01*
X93914130Y-74959769D01*
X93912340Y-74963172D01*
X93912337Y-74963176D01*
X93861279Y-75060223D01*
X93813966Y-75150150D01*
X93805091Y-75178733D01*
X93756322Y-75335795D01*
X93750173Y-75355597D01*
X93724888Y-75569229D01*
X86808859Y-75569229D01*
X86797438Y-75528733D01*
X86795735Y-75525279D01*
X86703998Y-75339255D01*
X86703994Y-75339249D01*
X86702291Y-75335795D01*
X86573578Y-75163427D01*
X86466659Y-75064592D01*
X86418432Y-75020011D01*
X86418429Y-75020009D01*
X86415608Y-75017401D01*
X86412361Y-75015352D01*
X86412358Y-75015350D01*
X86236924Y-74904659D01*
X86236922Y-74904658D01*
X86233673Y-74902608D01*
X86132841Y-74862380D01*
X86037439Y-74824319D01*
X86037436Y-74824318D01*
X86033864Y-74822893D01*
X85822875Y-74780925D01*
X85708557Y-74779428D01*
X85611618Y-74778159D01*
X85611614Y-74778159D01*
X85607770Y-74778109D01*
X85395754Y-74814540D01*
X85193928Y-74888997D01*
X85190620Y-74890965D01*
X85025410Y-74989255D01*
X85009050Y-74998988D01*
X84847312Y-75140829D01*
X84714130Y-75309769D01*
X84712340Y-75313172D01*
X84712337Y-75313176D01*
X84619843Y-75488981D01*
X84613966Y-75500150D01*
X84591324Y-75573070D01*
X84563097Y-75663976D01*
X84550173Y-75705597D01*
X84549721Y-75709416D01*
X84529761Y-75878061D01*
X84524888Y-75919229D01*
X77627824Y-75919229D01*
X77641799Y-75878061D01*
X77641800Y-75878058D01*
X77643035Y-75874419D01*
X77673904Y-75661522D01*
X77675515Y-75600000D01*
X77655831Y-75385779D01*
X77597438Y-75178733D01*
X77595735Y-75175279D01*
X77503998Y-74989255D01*
X77503994Y-74989249D01*
X77502291Y-74985795D01*
X77373578Y-74813427D01*
X77338418Y-74780925D01*
X77218432Y-74670011D01*
X77218429Y-74670009D01*
X77215608Y-74667401D01*
X77212361Y-74665352D01*
X77212358Y-74665350D01*
X77036924Y-74554659D01*
X77036922Y-74554658D01*
X77033673Y-74552608D01*
X76932841Y-74512380D01*
X76837439Y-74474319D01*
X76837436Y-74474318D01*
X76833864Y-74472893D01*
X76622875Y-74430925D01*
X76508557Y-74429428D01*
X76411618Y-74428159D01*
X76411614Y-74428159D01*
X76407770Y-74428109D01*
X76195754Y-74464540D01*
X75993928Y-74538997D01*
X75990620Y-74540965D01*
X75948759Y-74565870D01*
X75809050Y-74648988D01*
X75647312Y-74790829D01*
X75514130Y-74959769D01*
X75512340Y-74963172D01*
X75512337Y-74963176D01*
X75461279Y-75060223D01*
X75413966Y-75150150D01*
X75405091Y-75178733D01*
X75356322Y-75335795D01*
X75350173Y-75355597D01*
X75324888Y-75569229D01*
X62518655Y-75569229D01*
X60742340Y-74543663D01*
X72081360Y-74543663D01*
X72082136Y-74549597D01*
X72082136Y-74549598D01*
X72097882Y-74670011D01*
X72100428Y-74689483D01*
X72159656Y-74824090D01*
X72163505Y-74828669D01*
X72163507Y-74828672D01*
X72250431Y-74932080D01*
X72250433Y-74932082D01*
X72254284Y-74936663D01*
X72376703Y-75018152D01*
X72517073Y-75062007D01*
X72523050Y-75062117D01*
X72523053Y-75062117D01*
X72597527Y-75063482D01*
X72664109Y-75064702D01*
X72669881Y-75063128D01*
X72669884Y-75063128D01*
X72800219Y-75027594D01*
X72800220Y-75027594D01*
X72805992Y-75026020D01*
X72811090Y-75022890D01*
X72811092Y-75022889D01*
X72926216Y-74952202D01*
X72926217Y-74952201D01*
X72931315Y-74949071D01*
X72935328Y-74944637D01*
X72935331Y-74944635D01*
X73025991Y-74844475D01*
X73030004Y-74840042D01*
X73041403Y-74816516D01*
X73091517Y-74713081D01*
X73094126Y-74707696D01*
X73118524Y-74562672D01*
X73118679Y-74550000D01*
X73118219Y-74546787D01*
X73098679Y-74410344D01*
X73098679Y-74410343D01*
X73097831Y-74404424D01*
X73036962Y-74270551D01*
X72940967Y-74159142D01*
X72929662Y-74151814D01*
X72822583Y-74082410D01*
X72817561Y-74079155D01*
X72811831Y-74077441D01*
X72811828Y-74077440D01*
X72682398Y-74038732D01*
X72682396Y-74038732D01*
X72676666Y-74037018D01*
X72670686Y-74036981D01*
X72670683Y-74036981D01*
X72601318Y-74036558D01*
X72529607Y-74036120D01*
X72388208Y-74076532D01*
X72263834Y-74155006D01*
X72166484Y-74265233D01*
X72103985Y-74398353D01*
X72103065Y-74404264D01*
X72103064Y-74404266D01*
X72093472Y-74465871D01*
X72081360Y-74543663D01*
X60742340Y-74543663D01*
X58702254Y-73365807D01*
X58671508Y-73335061D01*
X58221655Y-72555888D01*
X58168993Y-72464675D01*
X58157739Y-72422675D01*
X58157739Y-71463949D01*
X59324900Y-71463949D01*
X59325098Y-71467385D01*
X59325098Y-71467391D01*
X59332560Y-71596787D01*
X59338820Y-71705355D01*
X59391980Y-71941247D01*
X59482954Y-72165288D01*
X59484757Y-72168230D01*
X59607497Y-72368524D01*
X59607501Y-72368529D01*
X59609298Y-72371462D01*
X59767619Y-72554233D01*
X59953665Y-72708692D01*
X60162440Y-72830690D01*
X60271379Y-72872290D01*
X60385115Y-72915722D01*
X60385119Y-72915723D01*
X60388337Y-72916952D01*
X60391715Y-72917639D01*
X60391714Y-72917639D01*
X60621917Y-72964474D01*
X60621920Y-72964474D01*
X60625290Y-72965160D01*
X60807850Y-72971854D01*
X60863498Y-72973895D01*
X60866935Y-72974021D01*
X60870344Y-72973584D01*
X60870350Y-72973584D01*
X61103366Y-72943734D01*
X61103371Y-72943733D01*
X61103917Y-72943663D01*
X79331360Y-72943663D01*
X79332136Y-72949597D01*
X79332136Y-72949598D01*
X79335273Y-72973584D01*
X79350428Y-73089483D01*
X79409656Y-73224090D01*
X79413505Y-73228669D01*
X79413507Y-73228672D01*
X79500431Y-73332080D01*
X79500433Y-73332082D01*
X79504284Y-73336663D01*
X79626703Y-73418152D01*
X79767073Y-73462007D01*
X79773050Y-73462117D01*
X79773053Y-73462117D01*
X79847527Y-73463482D01*
X79914109Y-73464702D01*
X79919881Y-73463128D01*
X79919884Y-73463128D01*
X80050219Y-73427594D01*
X80050220Y-73427594D01*
X80055992Y-73426020D01*
X80061090Y-73422890D01*
X80061092Y-73422889D01*
X80176216Y-73352202D01*
X80176217Y-73352201D01*
X80181315Y-73349071D01*
X80185328Y-73344637D01*
X80185331Y-73344635D01*
X80246256Y-73277326D01*
X80280004Y-73240042D01*
X80284278Y-73231222D01*
X80341517Y-73113081D01*
X80344126Y-73107696D01*
X80368524Y-72962672D01*
X80368679Y-72950000D01*
X80367782Y-72943734D01*
X80348679Y-72810344D01*
X80348679Y-72810343D01*
X80347831Y-72804424D01*
X80286962Y-72670551D01*
X80190967Y-72559142D01*
X80183394Y-72554233D01*
X80072583Y-72482410D01*
X80067561Y-72479155D01*
X80061831Y-72477441D01*
X80061828Y-72477440D01*
X79932398Y-72438732D01*
X79932396Y-72438732D01*
X79926666Y-72437018D01*
X79920686Y-72436981D01*
X79920683Y-72436981D01*
X79851318Y-72436558D01*
X79779607Y-72436120D01*
X79773851Y-72437765D01*
X79718698Y-72453528D01*
X79638208Y-72476532D01*
X79513834Y-72555006D01*
X79416484Y-72665233D01*
X79353985Y-72798353D01*
X79353065Y-72804264D01*
X79353064Y-72804266D01*
X79348950Y-72830690D01*
X79331360Y-72943663D01*
X61103917Y-72943663D01*
X61106782Y-72943296D01*
X61110075Y-72942308D01*
X61110080Y-72942307D01*
X61335081Y-72874803D01*
X61335084Y-72874802D01*
X61338390Y-72873810D01*
X61555540Y-72767430D01*
X61752399Y-72627012D01*
X61785050Y-72594475D01*
X61921235Y-72458764D01*
X61921238Y-72458761D01*
X61923680Y-72456327D01*
X62040566Y-72293663D01*
X106681360Y-72293663D01*
X106700428Y-72439483D01*
X106759656Y-72574090D01*
X106763505Y-72578669D01*
X106763507Y-72578672D01*
X106850431Y-72682080D01*
X106850433Y-72682082D01*
X106854284Y-72686663D01*
X106976703Y-72768152D01*
X107117073Y-72812007D01*
X107123050Y-72812117D01*
X107123053Y-72812117D01*
X107197527Y-72813482D01*
X107264109Y-72814702D01*
X107269881Y-72813128D01*
X107269884Y-72813128D01*
X107400219Y-72777594D01*
X107400220Y-72777594D01*
X107405992Y-72776020D01*
X107411090Y-72772890D01*
X107411092Y-72772889D01*
X107526216Y-72702202D01*
X107526217Y-72702201D01*
X107531315Y-72699071D01*
X107535328Y-72694637D01*
X107535331Y-72694635D01*
X107625991Y-72594475D01*
X107630004Y-72590042D01*
X107642780Y-72563674D01*
X107691517Y-72463081D01*
X107694126Y-72457696D01*
X107718524Y-72312672D01*
X107718679Y-72300000D01*
X107718219Y-72296787D01*
X107698679Y-72160344D01*
X107698679Y-72160343D01*
X107697831Y-72154424D01*
X107636962Y-72020551D01*
X107540967Y-71909142D01*
X107529662Y-71901814D01*
X107422583Y-71832410D01*
X107417561Y-71829155D01*
X107411831Y-71827441D01*
X107411828Y-71827440D01*
X107282398Y-71788732D01*
X107282396Y-71788732D01*
X107276666Y-71787018D01*
X107270686Y-71786981D01*
X107270683Y-71786981D01*
X107201318Y-71786558D01*
X107129607Y-71786120D01*
X107123851Y-71787765D01*
X107051665Y-71808396D01*
X106988208Y-71826532D01*
X106863834Y-71905006D01*
X106766484Y-72015233D01*
X106703985Y-72148353D01*
X106703065Y-72154264D01*
X106703064Y-72154266D01*
X106702118Y-72160344D01*
X106681360Y-72293663D01*
X62040566Y-72293663D01*
X62064785Y-72259959D01*
X62116944Y-72154424D01*
X62170396Y-72046271D01*
X62170397Y-72046269D01*
X62171922Y-72043183D01*
X62189094Y-71986663D01*
X62241213Y-71815120D01*
X62241214Y-71815117D01*
X62242216Y-71811818D01*
X62245256Y-71788732D01*
X62270937Y-71593663D01*
X73631360Y-71593663D01*
X73632136Y-71599597D01*
X73632136Y-71599598D01*
X73647418Y-71716462D01*
X73650428Y-71739483D01*
X73709656Y-71874090D01*
X73713505Y-71878669D01*
X73713507Y-71878672D01*
X73800431Y-71982080D01*
X73800433Y-71982082D01*
X73804284Y-71986663D01*
X73926703Y-72068152D01*
X74067073Y-72112007D01*
X74073050Y-72112117D01*
X74073053Y-72112117D01*
X74147527Y-72113482D01*
X74214109Y-72114702D01*
X74219881Y-72113128D01*
X74219884Y-72113128D01*
X74350219Y-72077594D01*
X74350220Y-72077594D01*
X74355992Y-72076020D01*
X74361090Y-72072890D01*
X74361092Y-72072889D01*
X74476216Y-72002202D01*
X74476217Y-72002201D01*
X74481315Y-71999071D01*
X74485328Y-71994637D01*
X74485331Y-71994635D01*
X74575991Y-71894475D01*
X74580004Y-71890042D01*
X74611572Y-71824888D01*
X74641517Y-71763081D01*
X74644126Y-71757696D01*
X74646593Y-71743035D01*
X74667986Y-71615870D01*
X74668524Y-71612672D01*
X74668679Y-71600000D01*
X74668219Y-71596787D01*
X74648679Y-71460344D01*
X74648679Y-71460343D01*
X74647831Y-71454424D01*
X74586962Y-71320551D01*
X74490967Y-71209142D01*
X74479662Y-71201814D01*
X74372583Y-71132410D01*
X74367561Y-71129155D01*
X74361831Y-71127441D01*
X74361828Y-71127440D01*
X74232398Y-71088732D01*
X74232396Y-71088732D01*
X74226666Y-71087018D01*
X74220686Y-71086981D01*
X74220683Y-71086981D01*
X74151318Y-71086558D01*
X74079607Y-71086120D01*
X73938208Y-71126532D01*
X73813834Y-71205006D01*
X73716484Y-71315233D01*
X73653985Y-71448353D01*
X73653065Y-71454264D01*
X73653064Y-71454266D01*
X73646289Y-71497783D01*
X73631360Y-71593663D01*
X62270937Y-71593663D01*
X62273487Y-71574294D01*
X62273488Y-71574285D01*
X62273778Y-71572080D01*
X62275540Y-71500000D01*
X62272700Y-71465458D01*
X62256009Y-71262432D01*
X62256008Y-71262428D01*
X62255727Y-71259006D01*
X62247442Y-71226020D01*
X62200727Y-71040042D01*
X62196819Y-71024484D01*
X62100398Y-70802732D01*
X62062185Y-70743663D01*
X62981360Y-70743663D01*
X62982136Y-70749597D01*
X62982136Y-70749598D01*
X62997961Y-70870615D01*
X63000428Y-70889483D01*
X63059656Y-71024090D01*
X63063505Y-71028669D01*
X63063507Y-71028672D01*
X63150431Y-71132080D01*
X63150433Y-71132082D01*
X63154284Y-71136663D01*
X63276703Y-71218152D01*
X63417073Y-71262007D01*
X63423050Y-71262117D01*
X63423053Y-71262117D01*
X63497527Y-71263482D01*
X63564109Y-71264702D01*
X63569881Y-71263128D01*
X63569884Y-71263128D01*
X63700219Y-71227594D01*
X63700220Y-71227594D01*
X63705992Y-71226020D01*
X63711090Y-71222890D01*
X63711092Y-71222889D01*
X63826216Y-71152202D01*
X63826217Y-71152201D01*
X63831315Y-71149071D01*
X63835328Y-71144637D01*
X63835331Y-71144635D01*
X63895533Y-71078125D01*
X63930004Y-71040042D01*
X63935920Y-71027833D01*
X63991517Y-70913081D01*
X63994126Y-70907696D01*
X64018524Y-70762672D01*
X64018679Y-70750000D01*
X64018219Y-70746787D01*
X63998679Y-70610344D01*
X63998679Y-70610343D01*
X63997831Y-70604424D01*
X63936962Y-70470551D01*
X63840967Y-70359142D01*
X63829662Y-70351814D01*
X63722583Y-70282410D01*
X63717561Y-70279155D01*
X63711831Y-70277441D01*
X63711828Y-70277440D01*
X63684372Y-70269229D01*
X66124888Y-70269229D01*
X66138958Y-70483891D01*
X66191911Y-70692395D01*
X66281974Y-70887757D01*
X66406131Y-71063436D01*
X66408890Y-71066124D01*
X66408892Y-71066126D01*
X66431105Y-71087765D01*
X66560224Y-71213547D01*
X66739093Y-71333063D01*
X66936746Y-71417981D01*
X67042007Y-71441799D01*
X67142808Y-71464608D01*
X67142809Y-71464608D01*
X67146565Y-71465458D01*
X67268982Y-71470268D01*
X67357673Y-71473753D01*
X67357676Y-71473753D01*
X67361522Y-71473904D01*
X67365328Y-71473352D01*
X67365331Y-71473352D01*
X67455042Y-71460344D01*
X67574419Y-71443035D01*
X67578058Y-71441800D01*
X67578061Y-71441799D01*
X67774475Y-71375125D01*
X67778125Y-71373886D01*
X67965819Y-71268773D01*
X68120677Y-71139979D01*
X68128256Y-71133676D01*
X68131215Y-71131215D01*
X68268773Y-70965819D01*
X68373886Y-70778125D01*
X68401800Y-70695893D01*
X68441799Y-70578061D01*
X68441800Y-70578058D01*
X68443035Y-70574419D01*
X68443788Y-70569229D01*
X75324888Y-70569229D01*
X75338958Y-70783891D01*
X75391911Y-70992395D01*
X75481974Y-71187757D01*
X75606131Y-71363436D01*
X75760224Y-71513547D01*
X75939093Y-71633063D01*
X76080021Y-71693610D01*
X76115172Y-71708712D01*
X76136746Y-71717981D01*
X76205556Y-71733551D01*
X76342808Y-71764608D01*
X76342809Y-71764608D01*
X76346565Y-71765458D01*
X76468982Y-71770268D01*
X76557673Y-71773753D01*
X76557676Y-71773753D01*
X76561522Y-71773904D01*
X76565328Y-71773352D01*
X76565331Y-71773352D01*
X76636166Y-71763081D01*
X76774419Y-71743035D01*
X76778058Y-71741800D01*
X76778061Y-71741799D01*
X76974475Y-71675125D01*
X76978125Y-71673886D01*
X77165819Y-71568773D01*
X77331215Y-71431215D01*
X77468773Y-71265819D01*
X77573886Y-71078125D01*
X77585309Y-71044475D01*
X77641799Y-70878061D01*
X77641800Y-70878058D01*
X77643035Y-70874419D01*
X77673904Y-70661522D01*
X77675515Y-70600000D01*
X77655831Y-70385779D01*
X77597438Y-70178733D01*
X77595735Y-70175279D01*
X77503998Y-69989255D01*
X77503994Y-69989249D01*
X77502291Y-69985795D01*
X77433493Y-69893663D01*
X80881360Y-69893663D01*
X80882136Y-69899597D01*
X80882136Y-69899598D01*
X80899320Y-70031008D01*
X80900428Y-70039483D01*
X80959656Y-70174090D01*
X80963505Y-70178669D01*
X80963507Y-70178672D01*
X81050431Y-70282080D01*
X81050433Y-70282082D01*
X81054284Y-70286663D01*
X81176703Y-70368152D01*
X81317073Y-70412007D01*
X81323050Y-70412117D01*
X81323053Y-70412117D01*
X81397527Y-70413482D01*
X81464109Y-70414702D01*
X81469881Y-70413128D01*
X81469884Y-70413128D01*
X81600219Y-70377594D01*
X81600220Y-70377594D01*
X81605992Y-70376020D01*
X81611090Y-70372890D01*
X81611092Y-70372889D01*
X81726216Y-70302202D01*
X81726217Y-70302201D01*
X81731315Y-70299071D01*
X81735328Y-70294637D01*
X81735331Y-70294635D01*
X81758327Y-70269229D01*
X84524888Y-70269229D01*
X84538958Y-70483891D01*
X84591911Y-70692395D01*
X84681974Y-70887757D01*
X84806131Y-71063436D01*
X84808890Y-71066124D01*
X84808892Y-71066126D01*
X84831105Y-71087765D01*
X84960224Y-71213547D01*
X85139093Y-71333063D01*
X85336746Y-71417981D01*
X85442007Y-71441799D01*
X85542808Y-71464608D01*
X85542809Y-71464608D01*
X85546565Y-71465458D01*
X85668982Y-71470268D01*
X85757673Y-71473753D01*
X85757676Y-71473753D01*
X85761522Y-71473904D01*
X85765328Y-71473352D01*
X85765331Y-71473352D01*
X85855042Y-71460344D01*
X85974419Y-71443035D01*
X85978058Y-71441800D01*
X85978061Y-71441799D01*
X86174475Y-71375125D01*
X86178125Y-71373886D01*
X86365819Y-71268773D01*
X86520677Y-71139979D01*
X86528256Y-71133676D01*
X86531215Y-71131215D01*
X86668773Y-70965819D01*
X86773886Y-70778125D01*
X86801800Y-70695893D01*
X86841799Y-70578061D01*
X86841800Y-70578058D01*
X86843035Y-70574419D01*
X86843788Y-70569229D01*
X93724888Y-70569229D01*
X93738958Y-70783891D01*
X93791911Y-70992395D01*
X93881974Y-71187757D01*
X94006131Y-71363436D01*
X94160224Y-71513547D01*
X94339093Y-71633063D01*
X94480021Y-71693610D01*
X94515172Y-71708712D01*
X94536746Y-71717981D01*
X94605556Y-71733551D01*
X94742808Y-71764608D01*
X94742809Y-71764608D01*
X94746565Y-71765458D01*
X94868982Y-71770268D01*
X94957673Y-71773753D01*
X94957676Y-71773753D01*
X94961522Y-71773904D01*
X94965328Y-71773352D01*
X94965331Y-71773352D01*
X95036166Y-71763081D01*
X95174419Y-71743035D01*
X95178058Y-71741800D01*
X95178061Y-71741799D01*
X95374475Y-71675125D01*
X95378125Y-71673886D01*
X95565819Y-71568773D01*
X95731215Y-71431215D01*
X95868773Y-71265819D01*
X95973886Y-71078125D01*
X95985309Y-71044475D01*
X96041799Y-70878061D01*
X96041800Y-70878058D01*
X96043035Y-70874419D01*
X96073904Y-70661522D01*
X96075515Y-70600000D01*
X96055831Y-70385779D01*
X96022961Y-70269229D01*
X102924888Y-70269229D01*
X102938958Y-70483891D01*
X102991911Y-70692395D01*
X103081974Y-70887757D01*
X103206131Y-71063436D01*
X103208890Y-71066124D01*
X103208892Y-71066126D01*
X103231105Y-71087765D01*
X103360224Y-71213547D01*
X103539093Y-71333063D01*
X103736746Y-71417981D01*
X103842007Y-71441799D01*
X103942808Y-71464608D01*
X103942809Y-71464608D01*
X103946565Y-71465458D01*
X104068982Y-71470268D01*
X104157673Y-71473753D01*
X104157676Y-71473753D01*
X104161522Y-71473904D01*
X104165328Y-71473352D01*
X104165331Y-71473352D01*
X104230180Y-71463949D01*
X109124900Y-71463949D01*
X109125098Y-71467385D01*
X109125098Y-71467391D01*
X109132560Y-71596787D01*
X109138820Y-71705355D01*
X109191980Y-71941247D01*
X109282954Y-72165288D01*
X109284757Y-72168230D01*
X109407497Y-72368524D01*
X109407501Y-72368529D01*
X109409298Y-72371462D01*
X109567619Y-72554233D01*
X109753665Y-72708692D01*
X109962440Y-72830690D01*
X110071379Y-72872290D01*
X110185115Y-72915722D01*
X110185119Y-72915723D01*
X110188337Y-72916952D01*
X110191715Y-72917639D01*
X110191714Y-72917639D01*
X110421917Y-72964474D01*
X110421920Y-72964474D01*
X110425290Y-72965160D01*
X110607850Y-72971854D01*
X110663498Y-72973895D01*
X110666935Y-72974021D01*
X110670344Y-72973584D01*
X110670350Y-72973584D01*
X110903366Y-72943734D01*
X110903371Y-72943733D01*
X110906782Y-72943296D01*
X110910075Y-72942308D01*
X110910080Y-72942307D01*
X111135081Y-72874803D01*
X111135084Y-72874802D01*
X111138390Y-72873810D01*
X111355540Y-72767430D01*
X111552399Y-72627012D01*
X111585050Y-72594475D01*
X111721235Y-72458764D01*
X111721238Y-72458761D01*
X111723680Y-72456327D01*
X111864785Y-72259959D01*
X111916944Y-72154424D01*
X111970396Y-72046271D01*
X111970397Y-72046269D01*
X111971922Y-72043183D01*
X111989094Y-71986663D01*
X112041213Y-71815120D01*
X112041214Y-71815117D01*
X112042216Y-71811818D01*
X112045256Y-71788732D01*
X112073487Y-71574294D01*
X112073488Y-71574285D01*
X112073778Y-71572080D01*
X112075540Y-71500000D01*
X112072700Y-71465458D01*
X112056009Y-71262432D01*
X112056008Y-71262428D01*
X112055727Y-71259006D01*
X112047442Y-71226020D01*
X112000727Y-71040042D01*
X111996819Y-71024484D01*
X111900398Y-70802732D01*
X111769055Y-70599706D01*
X111744818Y-70573070D01*
X111608635Y-70423406D01*
X111608632Y-70423403D01*
X111606316Y-70420858D01*
X111416551Y-70270991D01*
X111204858Y-70154130D01*
X111048853Y-70098886D01*
X110980171Y-70074564D01*
X110980168Y-70074563D01*
X110976920Y-70073413D01*
X110738861Y-70031008D01*
X110610381Y-70029438D01*
X110500517Y-70028096D01*
X110500516Y-70028096D01*
X110497072Y-70028054D01*
X110428437Y-70038557D01*
X110261455Y-70064108D01*
X110261449Y-70064109D01*
X110258047Y-70064630D01*
X110138355Y-70103751D01*
X110031478Y-70138684D01*
X110031476Y-70138685D01*
X110028205Y-70139754D01*
X110025155Y-70141342D01*
X110025152Y-70141343D01*
X109923087Y-70194475D01*
X109813720Y-70251408D01*
X109776007Y-70279724D01*
X109623105Y-70394525D01*
X109623101Y-70394528D01*
X109620350Y-70396594D01*
X109453290Y-70571413D01*
X109451349Y-70574258D01*
X109451346Y-70574262D01*
X109329251Y-70753246D01*
X109317025Y-70771169D01*
X109315574Y-70774295D01*
X109225298Y-70968780D01*
X109215216Y-70990499D01*
X109214296Y-70993817D01*
X109214294Y-70993822D01*
X109152766Y-71215685D01*
X109150596Y-71223511D01*
X109124900Y-71463949D01*
X104230180Y-71463949D01*
X104255042Y-71460344D01*
X104374419Y-71443035D01*
X104378058Y-71441800D01*
X104378061Y-71441799D01*
X104574475Y-71375125D01*
X104578125Y-71373886D01*
X104765819Y-71268773D01*
X104920677Y-71139979D01*
X104928256Y-71133676D01*
X104931215Y-71131215D01*
X105068773Y-70965819D01*
X105173886Y-70778125D01*
X105201800Y-70695893D01*
X105241799Y-70578061D01*
X105241800Y-70578058D01*
X105243035Y-70574419D01*
X105273904Y-70361522D01*
X105275515Y-70300000D01*
X105255831Y-70085779D01*
X105197438Y-69878733D01*
X105195735Y-69875279D01*
X105103998Y-69689255D01*
X105103994Y-69689249D01*
X105102291Y-69685795D01*
X104973578Y-69513427D01*
X104922132Y-69465871D01*
X104818432Y-69370011D01*
X104818429Y-69370009D01*
X104815608Y-69367401D01*
X104812361Y-69365352D01*
X104812358Y-69365350D01*
X104636924Y-69254659D01*
X104636922Y-69254658D01*
X104633673Y-69252608D01*
X104532841Y-69212380D01*
X104437439Y-69174319D01*
X104437436Y-69174318D01*
X104433864Y-69172893D01*
X104222875Y-69130925D01*
X104108557Y-69129428D01*
X104011618Y-69128159D01*
X104011614Y-69128159D01*
X104007770Y-69128109D01*
X103795754Y-69164540D01*
X103593928Y-69238997D01*
X103590620Y-69240965D01*
X103567603Y-69254659D01*
X103409050Y-69348988D01*
X103247312Y-69490829D01*
X103114130Y-69659769D01*
X103112340Y-69663172D01*
X103112337Y-69663176D01*
X103034663Y-69810811D01*
X103013966Y-69850150D01*
X102984344Y-69945547D01*
X102951354Y-70051794D01*
X102950173Y-70055597D01*
X102949721Y-70059416D01*
X102928498Y-70238732D01*
X102924888Y-70269229D01*
X96022961Y-70269229D01*
X95997438Y-70178733D01*
X95995735Y-70175279D01*
X95903998Y-69989255D01*
X95903994Y-69989249D01*
X95902291Y-69985795D01*
X95773578Y-69813427D01*
X95703859Y-69748979D01*
X95618432Y-69670011D01*
X95618429Y-69670009D01*
X95615608Y-69667401D01*
X95612361Y-69665352D01*
X95612358Y-69665350D01*
X95436924Y-69554659D01*
X95436922Y-69554658D01*
X95433673Y-69552608D01*
X95286409Y-69493856D01*
X95237439Y-69474319D01*
X95237436Y-69474318D01*
X95233864Y-69472893D01*
X95022875Y-69430925D01*
X94908557Y-69429428D01*
X94811618Y-69428159D01*
X94811614Y-69428159D01*
X94807770Y-69428109D01*
X94595754Y-69464540D01*
X94393928Y-69538997D01*
X94390620Y-69540965D01*
X94367603Y-69554659D01*
X94209050Y-69648988D01*
X94047312Y-69790829D01*
X93914130Y-69959769D01*
X93912340Y-69963172D01*
X93912337Y-69963176D01*
X93847833Y-70085779D01*
X93813966Y-70150150D01*
X93805110Y-70178672D01*
X93751348Y-70351814D01*
X93750173Y-70355597D01*
X93724888Y-70569229D01*
X86843788Y-70569229D01*
X86873904Y-70361522D01*
X86875515Y-70300000D01*
X86855831Y-70085779D01*
X86797438Y-69878733D01*
X86795735Y-69875279D01*
X86703998Y-69689255D01*
X86703994Y-69689249D01*
X86702291Y-69685795D01*
X86573578Y-69513427D01*
X86522132Y-69465871D01*
X86418432Y-69370011D01*
X86418429Y-69370009D01*
X86415608Y-69367401D01*
X86412361Y-69365352D01*
X86412358Y-69365350D01*
X86236924Y-69254659D01*
X86236922Y-69254658D01*
X86233673Y-69252608D01*
X86132841Y-69212380D01*
X86037439Y-69174319D01*
X86037436Y-69174318D01*
X86033864Y-69172893D01*
X85822875Y-69130925D01*
X85708557Y-69129428D01*
X85611618Y-69128159D01*
X85611614Y-69128159D01*
X85607770Y-69128109D01*
X85395754Y-69164540D01*
X85193928Y-69238997D01*
X85190620Y-69240965D01*
X85167603Y-69254659D01*
X85009050Y-69348988D01*
X84847312Y-69490829D01*
X84714130Y-69659769D01*
X84712340Y-69663172D01*
X84712337Y-69663176D01*
X84634663Y-69810811D01*
X84613966Y-69850150D01*
X84584344Y-69945547D01*
X84551354Y-70051794D01*
X84550173Y-70055597D01*
X84549721Y-70059416D01*
X84528498Y-70238732D01*
X84524888Y-70269229D01*
X81758327Y-70269229D01*
X81825991Y-70194475D01*
X81830004Y-70190042D01*
X81835484Y-70178733D01*
X81891517Y-70063081D01*
X81894126Y-70057696D01*
X81910028Y-69963176D01*
X81917986Y-69915870D01*
X81918524Y-69912672D01*
X81918679Y-69900000D01*
X81918219Y-69896787D01*
X81898679Y-69760344D01*
X81898679Y-69760343D01*
X81897831Y-69754424D01*
X81836962Y-69620551D01*
X81740967Y-69509142D01*
X81729662Y-69501814D01*
X81622583Y-69432410D01*
X81617561Y-69429155D01*
X81611831Y-69427441D01*
X81611828Y-69427440D01*
X81482398Y-69388732D01*
X81482396Y-69388732D01*
X81476666Y-69387018D01*
X81470686Y-69386981D01*
X81470683Y-69386981D01*
X81401318Y-69386558D01*
X81329607Y-69386120D01*
X81188208Y-69426532D01*
X81063834Y-69505006D01*
X80966484Y-69615233D01*
X80903985Y-69748353D01*
X80903065Y-69754264D01*
X80903064Y-69754266D01*
X80897371Y-69790829D01*
X80881360Y-69893663D01*
X77433493Y-69893663D01*
X77373578Y-69813427D01*
X77303859Y-69748979D01*
X77218432Y-69670011D01*
X77218429Y-69670009D01*
X77215608Y-69667401D01*
X77212361Y-69665352D01*
X77212358Y-69665350D01*
X77036924Y-69554659D01*
X77036922Y-69554658D01*
X77033673Y-69552608D01*
X76886409Y-69493856D01*
X76837439Y-69474319D01*
X76837436Y-69474318D01*
X76833864Y-69472893D01*
X76622875Y-69430925D01*
X76508557Y-69429428D01*
X76411618Y-69428159D01*
X76411614Y-69428159D01*
X76407770Y-69428109D01*
X76195754Y-69464540D01*
X75993928Y-69538997D01*
X75990620Y-69540965D01*
X75967603Y-69554659D01*
X75809050Y-69648988D01*
X75647312Y-69790829D01*
X75514130Y-69959769D01*
X75512340Y-69963172D01*
X75512337Y-69963176D01*
X75447833Y-70085779D01*
X75413966Y-70150150D01*
X75405110Y-70178672D01*
X75351348Y-70351814D01*
X75350173Y-70355597D01*
X75324888Y-70569229D01*
X68443788Y-70569229D01*
X68473904Y-70361522D01*
X68475515Y-70300000D01*
X68455831Y-70085779D01*
X68397438Y-69878733D01*
X68395735Y-69875279D01*
X68303998Y-69689255D01*
X68303994Y-69689249D01*
X68302291Y-69685795D01*
X68173578Y-69513427D01*
X68122132Y-69465871D01*
X68018432Y-69370011D01*
X68018429Y-69370009D01*
X68015608Y-69367401D01*
X68012361Y-69365352D01*
X68012358Y-69365350D01*
X67836924Y-69254659D01*
X67836922Y-69254658D01*
X67833673Y-69252608D01*
X67732841Y-69212380D01*
X67637439Y-69174319D01*
X67637436Y-69174318D01*
X67633864Y-69172893D01*
X67422875Y-69130925D01*
X67308557Y-69129428D01*
X67211618Y-69128159D01*
X67211614Y-69128159D01*
X67207770Y-69128109D01*
X66995754Y-69164540D01*
X66793928Y-69238997D01*
X66790620Y-69240965D01*
X66767603Y-69254659D01*
X66609050Y-69348988D01*
X66447312Y-69490829D01*
X66314130Y-69659769D01*
X66312340Y-69663172D01*
X66312337Y-69663176D01*
X66234663Y-69810811D01*
X66213966Y-69850150D01*
X66184344Y-69945547D01*
X66151354Y-70051794D01*
X66150173Y-70055597D01*
X66149721Y-70059416D01*
X66128498Y-70238732D01*
X66124888Y-70269229D01*
X63684372Y-70269229D01*
X63582398Y-70238732D01*
X63582396Y-70238732D01*
X63576666Y-70237018D01*
X63570686Y-70236981D01*
X63570683Y-70236981D01*
X63501318Y-70236558D01*
X63429607Y-70236120D01*
X63423851Y-70237765D01*
X63307596Y-70270991D01*
X63288208Y-70276532D01*
X63163834Y-70355006D01*
X63066484Y-70465233D01*
X63003985Y-70598353D01*
X63003065Y-70604264D01*
X63003064Y-70604266D01*
X63002118Y-70610344D01*
X62981360Y-70743663D01*
X62062185Y-70743663D01*
X61969055Y-70599706D01*
X61944818Y-70573070D01*
X61808635Y-70423406D01*
X61808632Y-70423403D01*
X61806316Y-70420858D01*
X61616551Y-70270991D01*
X61404858Y-70154130D01*
X61248853Y-70098886D01*
X61180171Y-70074564D01*
X61180168Y-70074563D01*
X61176920Y-70073413D01*
X60938861Y-70031008D01*
X60810381Y-70029438D01*
X60700517Y-70028096D01*
X60700516Y-70028096D01*
X60697072Y-70028054D01*
X60628437Y-70038557D01*
X60461455Y-70064108D01*
X60461449Y-70064109D01*
X60458047Y-70064630D01*
X60338355Y-70103751D01*
X60231478Y-70138684D01*
X60231476Y-70138685D01*
X60228205Y-70139754D01*
X60225155Y-70141342D01*
X60225152Y-70141343D01*
X60123087Y-70194475D01*
X60013720Y-70251408D01*
X59976007Y-70279724D01*
X59823105Y-70394525D01*
X59823101Y-70394528D01*
X59820350Y-70396594D01*
X59653290Y-70571413D01*
X59651349Y-70574258D01*
X59651346Y-70574262D01*
X59529251Y-70753246D01*
X59517025Y-70771169D01*
X59515574Y-70774295D01*
X59425298Y-70968780D01*
X59415216Y-70990499D01*
X59414296Y-70993817D01*
X59414294Y-70993822D01*
X59352766Y-71215685D01*
X59350596Y-71223511D01*
X59324900Y-71463949D01*
X58157739Y-71463949D01*
X58157739Y-67869229D01*
X89624888Y-67869229D01*
X89638958Y-68083891D01*
X89691911Y-68292395D01*
X89781974Y-68487757D01*
X89906131Y-68663436D01*
X90060224Y-68813547D01*
X90239093Y-68933063D01*
X90436746Y-69017981D01*
X90542007Y-69041799D01*
X90642808Y-69064608D01*
X90642809Y-69064608D01*
X90646565Y-69065458D01*
X90768982Y-69070268D01*
X90857673Y-69073753D01*
X90857676Y-69073753D01*
X90861522Y-69073904D01*
X90865328Y-69073352D01*
X90865331Y-69073352D01*
X90934641Y-69063302D01*
X91074419Y-69043035D01*
X91078058Y-69041800D01*
X91078061Y-69041799D01*
X91274475Y-68975125D01*
X91278125Y-68973886D01*
X91465819Y-68868773D01*
X91631215Y-68731215D01*
X91768773Y-68565819D01*
X91873886Y-68378125D01*
X91901800Y-68295893D01*
X91941799Y-68178061D01*
X91941800Y-68178058D01*
X91943035Y-68174419D01*
X91973904Y-67961522D01*
X91975515Y-67900000D01*
X91955831Y-67685779D01*
X91897438Y-67478733D01*
X91895735Y-67475279D01*
X91803998Y-67289255D01*
X91803994Y-67289249D01*
X91802291Y-67285795D01*
X91673578Y-67113427D01*
X91599159Y-67044635D01*
X91518432Y-66970011D01*
X91518429Y-66970009D01*
X91515608Y-66967401D01*
X91512361Y-66965352D01*
X91512358Y-66965350D01*
X91336924Y-66854659D01*
X91336922Y-66854658D01*
X91333673Y-66852608D01*
X91206306Y-66801794D01*
X91137439Y-66774319D01*
X91137436Y-66774318D01*
X91133864Y-66772893D01*
X90922875Y-66730925D01*
X90808557Y-66729428D01*
X90711618Y-66728159D01*
X90711614Y-66728159D01*
X90707770Y-66728109D01*
X90495754Y-66764540D01*
X90293928Y-66838997D01*
X90290620Y-66840965D01*
X90116636Y-66944475D01*
X90109050Y-66948988D01*
X89947312Y-67090829D01*
X89814130Y-67259769D01*
X89812340Y-67263172D01*
X89812337Y-67263176D01*
X89719843Y-67438981D01*
X89713966Y-67450150D01*
X89650173Y-67655597D01*
X89624888Y-67869229D01*
X58157739Y-67869229D01*
X58157739Y-66138852D01*
X58177391Y-66084858D01*
X58227153Y-66056128D01*
X58283739Y-66066106D01*
X58301136Y-66079455D01*
X58838539Y-66616858D01*
X58838830Y-66617136D01*
X58838859Y-66617165D01*
X58843706Y-66621805D01*
X58843729Y-66621826D01*
X58844069Y-66622152D01*
X58849472Y-66627103D01*
X58853001Y-66629244D01*
X58853003Y-66629246D01*
X58873136Y-66641463D01*
X58908015Y-66662628D01*
X58911900Y-66664042D01*
X58958560Y-66681025D01*
X58958563Y-66681026D01*
X58962009Y-66682280D01*
X58965617Y-66682916D01*
X58965620Y-66682917D01*
X58989265Y-66687086D01*
X59022033Y-66692864D01*
X66759756Y-66692864D01*
X66763068Y-66692328D01*
X66763072Y-66692328D01*
X66795482Y-66687086D01*
X66815077Y-66683917D01*
X66818269Y-66682857D01*
X66818272Y-66682856D01*
X66863485Y-66667838D01*
X66863488Y-66667837D01*
X66865334Y-66667224D01*
X66895250Y-66654082D01*
X66924280Y-66627103D01*
X66953056Y-66600359D01*
X66956780Y-66596898D01*
X66988285Y-66548846D01*
X66989306Y-66546851D01*
X66989311Y-66546842D01*
X67002076Y-66521894D01*
X67002077Y-66521892D01*
X67005424Y-66515350D01*
X67005897Y-66511553D01*
X67039474Y-66467150D01*
X67095482Y-66454318D01*
X67103644Y-66455746D01*
X67142808Y-66464608D01*
X67142809Y-66464608D01*
X67146565Y-66465458D01*
X67268982Y-66470268D01*
X67357673Y-66473753D01*
X67357676Y-66473753D01*
X67361522Y-66473904D01*
X67365328Y-66473352D01*
X67365331Y-66473352D01*
X67430638Y-66463882D01*
X67509574Y-66452437D01*
X67565829Y-66464138D01*
X67602310Y-66512197D01*
X67607702Y-66530813D01*
X67607706Y-66530822D01*
X67609119Y-66535701D01*
X67611659Y-66540101D01*
X67611661Y-66540105D01*
X67616708Y-66548846D01*
X67637849Y-66585463D01*
X67660049Y-66615845D01*
X67688677Y-66635043D01*
X67725596Y-66659802D01*
X67725600Y-66659804D01*
X67729814Y-66662630D01*
X67783806Y-66682281D01*
X67787411Y-66682917D01*
X67787416Y-66682918D01*
X67824849Y-66689518D01*
X67843829Y-66692864D01*
X68504612Y-66692864D01*
X73464063Y-66692865D01*
X73518057Y-66712517D01*
X73547354Y-66765974D01*
X73550428Y-66789483D01*
X73609656Y-66924090D01*
X73613505Y-66928669D01*
X73613507Y-66928672D01*
X73700431Y-67032080D01*
X73700433Y-67032082D01*
X73704284Y-67036663D01*
X73826703Y-67118152D01*
X73967073Y-67162007D01*
X73973050Y-67162117D01*
X73973053Y-67162117D01*
X74047527Y-67163482D01*
X74114109Y-67164702D01*
X74119881Y-67163128D01*
X74119884Y-67163128D01*
X74250219Y-67127594D01*
X74250220Y-67127594D01*
X74255992Y-67126020D01*
X74261090Y-67122890D01*
X74261092Y-67122889D01*
X74376216Y-67052202D01*
X74376217Y-67052201D01*
X74381315Y-67049071D01*
X74385328Y-67044637D01*
X74385331Y-67044635D01*
X74452877Y-66970011D01*
X74480004Y-66940042D01*
X74544126Y-66807696D01*
X74551657Y-66762930D01*
X74579994Y-66712944D01*
X74634493Y-66692865D01*
X85159756Y-66692865D01*
X85195487Y-66687086D01*
X85211755Y-66684455D01*
X85211758Y-66684454D01*
X85215080Y-66683917D01*
X85218272Y-66682857D01*
X85218275Y-66682856D01*
X85243857Y-66674358D01*
X85265340Y-66667222D01*
X85267115Y-66666442D01*
X85267126Y-66666438D01*
X85282230Y-66659802D01*
X85295257Y-66654079D01*
X85324282Y-66627103D01*
X85353065Y-66600352D01*
X85353068Y-66600349D01*
X85356786Y-66596893D01*
X85388290Y-66548840D01*
X85405427Y-66515344D01*
X85405899Y-66511553D01*
X85439476Y-66467150D01*
X85495484Y-66454318D01*
X85503639Y-66455745D01*
X85546565Y-66465458D01*
X85668982Y-66470268D01*
X85757673Y-66473753D01*
X85757676Y-66473753D01*
X85761522Y-66473904D01*
X85765328Y-66473352D01*
X85765331Y-66473352D01*
X85830638Y-66463882D01*
X85909574Y-66452437D01*
X85965829Y-66464138D01*
X86002311Y-66512200D01*
X86007702Y-66530816D01*
X86007705Y-66530824D01*
X86009118Y-66535701D01*
X86011658Y-66540101D01*
X86011660Y-66540105D01*
X86016707Y-66548846D01*
X86037848Y-66585463D01*
X86060047Y-66615845D01*
X86069965Y-66622496D01*
X86121296Y-66656918D01*
X86129812Y-66662629D01*
X86142437Y-66667224D01*
X86180357Y-66681026D01*
X86180360Y-66681027D01*
X86183806Y-66682281D01*
X86187414Y-66682917D01*
X86187417Y-66682918D01*
X86200757Y-66685270D01*
X86243830Y-66692865D01*
X86413687Y-66692865D01*
X86414142Y-66692855D01*
X86414150Y-66692855D01*
X86420914Y-66692708D01*
X86420955Y-66692707D01*
X86421351Y-66692698D01*
X86428672Y-66692378D01*
X86461048Y-66684455D01*
X86491163Y-66677085D01*
X86491162Y-66677085D01*
X86495176Y-66676103D01*
X86498916Y-66674359D01*
X86498919Y-66674358D01*
X86543922Y-66653373D01*
X86543924Y-66653372D01*
X86547252Y-66651820D01*
X86589622Y-66622152D01*
X86594182Y-66618959D01*
X86597181Y-66616859D01*
X87547975Y-65666065D01*
X87548253Y-65665774D01*
X87548282Y-65665745D01*
X87552922Y-65660898D01*
X87552943Y-65660875D01*
X87553269Y-65660535D01*
X87558220Y-65655132D01*
X87593745Y-65596589D01*
X87613397Y-65542595D01*
X87623981Y-65482571D01*
X87623981Y-64919229D01*
X93724888Y-64919229D01*
X93738958Y-65133891D01*
X93791911Y-65342395D01*
X93881974Y-65537757D01*
X94006131Y-65713436D01*
X94160224Y-65863547D01*
X94339093Y-65983063D01*
X94480021Y-66043610D01*
X94532382Y-66066106D01*
X94536746Y-66067981D01*
X94611332Y-66084858D01*
X94742808Y-66114608D01*
X94742809Y-66114608D01*
X94746565Y-66115458D01*
X94868982Y-66120268D01*
X94957673Y-66123753D01*
X94957676Y-66123753D01*
X94961522Y-66123904D01*
X94965328Y-66123352D01*
X94965331Y-66123352D01*
X95034641Y-66113302D01*
X95174419Y-66093035D01*
X95178058Y-66091800D01*
X95178061Y-66091799D01*
X95374475Y-66025125D01*
X95378125Y-66023886D01*
X95565819Y-65918773D01*
X95731215Y-65781215D01*
X95868773Y-65615819D01*
X95973886Y-65428125D01*
X96001800Y-65345893D01*
X96027824Y-65269229D01*
X102924888Y-65269229D01*
X102938958Y-65483891D01*
X102991911Y-65692395D01*
X103081974Y-65887757D01*
X103206131Y-66063436D01*
X103208890Y-66066124D01*
X103208892Y-66066126D01*
X103211668Y-66068830D01*
X103360224Y-66213547D01*
X103539093Y-66333063D01*
X103736746Y-66417981D01*
X103828837Y-66438819D01*
X103942808Y-66464608D01*
X103942809Y-66464608D01*
X103946565Y-66465458D01*
X104068982Y-66470268D01*
X104157673Y-66473753D01*
X104157676Y-66473753D01*
X104161522Y-66473904D01*
X104165328Y-66473352D01*
X104165331Y-66473352D01*
X104234641Y-66463302D01*
X104374419Y-66443035D01*
X104378058Y-66441800D01*
X104378061Y-66441799D01*
X104574475Y-66375125D01*
X104578125Y-66373886D01*
X104765819Y-66268773D01*
X104931215Y-66131215D01*
X105068773Y-65965819D01*
X105173886Y-65778125D01*
X105201800Y-65695893D01*
X105241799Y-65578061D01*
X105241800Y-65578058D01*
X105243035Y-65574419D01*
X105273904Y-65361522D01*
X105275515Y-65300000D01*
X105255831Y-65085779D01*
X105197438Y-64878733D01*
X105195735Y-64875279D01*
X105103998Y-64689255D01*
X105103994Y-64689249D01*
X105102291Y-64685795D01*
X104973578Y-64513427D01*
X104946380Y-64488285D01*
X104818432Y-64370011D01*
X104818429Y-64370009D01*
X104815608Y-64367401D01*
X104812361Y-64365352D01*
X104812358Y-64365350D01*
X104636924Y-64254659D01*
X104636922Y-64254658D01*
X104633673Y-64252608D01*
X104532841Y-64212380D01*
X104437439Y-64174319D01*
X104437436Y-64174318D01*
X104433864Y-64172893D01*
X104222875Y-64130925D01*
X104108557Y-64129428D01*
X104011618Y-64128159D01*
X104011614Y-64128159D01*
X104007770Y-64128109D01*
X103795754Y-64164540D01*
X103593928Y-64238997D01*
X103590620Y-64240965D01*
X103425410Y-64339255D01*
X103409050Y-64348988D01*
X103247312Y-64490829D01*
X103114130Y-64659769D01*
X103112340Y-64663172D01*
X103112337Y-64663176D01*
X103019843Y-64838981D01*
X103013966Y-64850150D01*
X102991324Y-64923070D01*
X102963097Y-65013976D01*
X102950173Y-65055597D01*
X102949721Y-65059416D01*
X102929761Y-65228061D01*
X102924888Y-65269229D01*
X96027824Y-65269229D01*
X96041799Y-65228061D01*
X96041800Y-65228058D01*
X96043035Y-65224419D01*
X96073904Y-65011522D01*
X96075515Y-64950000D01*
X96055831Y-64735779D01*
X95997438Y-64528733D01*
X95995735Y-64525279D01*
X95903998Y-64339255D01*
X95903994Y-64339249D01*
X95902291Y-64335795D01*
X95773578Y-64163427D01*
X95738418Y-64130925D01*
X95618432Y-64020011D01*
X95618429Y-64020009D01*
X95615608Y-64017401D01*
X95612361Y-64015352D01*
X95612358Y-64015350D01*
X95436924Y-63904659D01*
X95436922Y-63904658D01*
X95433673Y-63902608D01*
X95332841Y-63862380D01*
X95237439Y-63824319D01*
X95237436Y-63824318D01*
X95233864Y-63822893D01*
X95022875Y-63780925D01*
X94908557Y-63779428D01*
X94811618Y-63778159D01*
X94811614Y-63778159D01*
X94807770Y-63778109D01*
X94595754Y-63814540D01*
X94393928Y-63888997D01*
X94390620Y-63890965D01*
X94367603Y-63904659D01*
X94209050Y-63998988D01*
X94047312Y-64140829D01*
X93914130Y-64309769D01*
X93912340Y-64313172D01*
X93912337Y-64313176D01*
X93883808Y-64367401D01*
X93813966Y-64500150D01*
X93805091Y-64528733D01*
X93756322Y-64685795D01*
X93750173Y-64705597D01*
X93724888Y-64919229D01*
X87623981Y-64919229D01*
X87623981Y-62588663D01*
X110936360Y-62588663D01*
X110955428Y-62734483D01*
X111014656Y-62869090D01*
X111018505Y-62873669D01*
X111018507Y-62873672D01*
X111105431Y-62977080D01*
X111105433Y-62977082D01*
X111109284Y-62981663D01*
X111231703Y-63063152D01*
X111372073Y-63107007D01*
X111378050Y-63107117D01*
X111378053Y-63107117D01*
X111452527Y-63108482D01*
X111519109Y-63109702D01*
X111524881Y-63108128D01*
X111524884Y-63108128D01*
X111655219Y-63072594D01*
X111655220Y-63072594D01*
X111660992Y-63071020D01*
X111666090Y-63067890D01*
X111666092Y-63067889D01*
X111781216Y-62997202D01*
X111781217Y-62997201D01*
X111786315Y-62994071D01*
X111790328Y-62989637D01*
X111790331Y-62989635D01*
X111880991Y-62889475D01*
X111885004Y-62885042D01*
X111949126Y-62752696D01*
X111973524Y-62607672D01*
X111973679Y-62595000D01*
X111973219Y-62591787D01*
X111953679Y-62455344D01*
X111953679Y-62455343D01*
X111952831Y-62449424D01*
X111891962Y-62315551D01*
X111795967Y-62204142D01*
X111784662Y-62196814D01*
X111677583Y-62127410D01*
X111672561Y-62124155D01*
X111666831Y-62122441D01*
X111666828Y-62122440D01*
X111537398Y-62083732D01*
X111537396Y-62083732D01*
X111531666Y-62082018D01*
X111525686Y-62081981D01*
X111525683Y-62081981D01*
X111456318Y-62081558D01*
X111384607Y-62081120D01*
X111243208Y-62121532D01*
X111118834Y-62200006D01*
X111021484Y-62310233D01*
X110958985Y-62443353D01*
X110958065Y-62449264D01*
X110958064Y-62449266D01*
X110957118Y-62455344D01*
X110936360Y-62588663D01*
X87623981Y-62588663D01*
X87623981Y-59919229D01*
X93724888Y-59919229D01*
X93738958Y-60133891D01*
X93791911Y-60342395D01*
X93881974Y-60537757D01*
X94006131Y-60713436D01*
X94160224Y-60863547D01*
X94339093Y-60983063D01*
X94536746Y-61067981D01*
X94642007Y-61091799D01*
X94742808Y-61114608D01*
X94742809Y-61114608D01*
X94746565Y-61115458D01*
X94868982Y-61120268D01*
X94957673Y-61123753D01*
X94957676Y-61123753D01*
X94961522Y-61123904D01*
X94965328Y-61123352D01*
X94965331Y-61123352D01*
X95034641Y-61113302D01*
X95174419Y-61093035D01*
X95178058Y-61091800D01*
X95178061Y-61091799D01*
X95374475Y-61025125D01*
X95378125Y-61023886D01*
X95565819Y-60918773D01*
X95731215Y-60781215D01*
X95868773Y-60615819D01*
X95973886Y-60428125D01*
X96001800Y-60345893D01*
X96041799Y-60228061D01*
X96041800Y-60228058D01*
X96043035Y-60224419D01*
X96073904Y-60011522D01*
X96075515Y-59950000D01*
X96055831Y-59735779D01*
X96022961Y-59619229D01*
X102924888Y-59619229D01*
X102938958Y-59833891D01*
X102991911Y-60042395D01*
X103081974Y-60237757D01*
X103206131Y-60413436D01*
X103208890Y-60416124D01*
X103208892Y-60416126D01*
X103224661Y-60431487D01*
X103360224Y-60563547D01*
X103539093Y-60683063D01*
X103736746Y-60767981D01*
X103842007Y-60791799D01*
X103942808Y-60814608D01*
X103942809Y-60814608D01*
X103946565Y-60815458D01*
X104068982Y-60820268D01*
X104157673Y-60823753D01*
X104157676Y-60823753D01*
X104161522Y-60823904D01*
X104165328Y-60823352D01*
X104165331Y-60823352D01*
X104234641Y-60813302D01*
X104374419Y-60793035D01*
X104378058Y-60791800D01*
X104378061Y-60791799D01*
X104574475Y-60725125D01*
X104578125Y-60723886D01*
X104765819Y-60618773D01*
X104931215Y-60481215D01*
X105068773Y-60315819D01*
X105173886Y-60128125D01*
X105201800Y-60045893D01*
X105241799Y-59928061D01*
X105241800Y-59928058D01*
X105243035Y-59924419D01*
X105273904Y-59711522D01*
X105275515Y-59650000D01*
X105255831Y-59435779D01*
X105197438Y-59228733D01*
X105195735Y-59225279D01*
X105103998Y-59039255D01*
X105103994Y-59039249D01*
X105102291Y-59035795D01*
X104973578Y-58863427D01*
X104922132Y-58815871D01*
X104818432Y-58720011D01*
X104818429Y-58720009D01*
X104815608Y-58717401D01*
X104812361Y-58715352D01*
X104812358Y-58715350D01*
X104636924Y-58604659D01*
X104636922Y-58604658D01*
X104633673Y-58602608D01*
X104532841Y-58562380D01*
X104437439Y-58524319D01*
X104437436Y-58524318D01*
X104433864Y-58522893D01*
X104222875Y-58480925D01*
X104108557Y-58479428D01*
X104011618Y-58478159D01*
X104011614Y-58478159D01*
X104007770Y-58478109D01*
X103795754Y-58514540D01*
X103593928Y-58588997D01*
X103590620Y-58590965D01*
X103567603Y-58604659D01*
X103409050Y-58698988D01*
X103247312Y-58840829D01*
X103114130Y-59009769D01*
X103112340Y-59013172D01*
X103112337Y-59013176D01*
X103034663Y-59160811D01*
X103013966Y-59200150D01*
X102950173Y-59405597D01*
X102924888Y-59619229D01*
X96022961Y-59619229D01*
X95997438Y-59528733D01*
X95995735Y-59525279D01*
X95903998Y-59339255D01*
X95903994Y-59339249D01*
X95902291Y-59335795D01*
X95773578Y-59163427D01*
X95632162Y-59032703D01*
X95618432Y-59020011D01*
X95618429Y-59020009D01*
X95615608Y-59017401D01*
X95612361Y-59015352D01*
X95612358Y-59015350D01*
X95436924Y-58904659D01*
X95436922Y-58904658D01*
X95433673Y-58902608D01*
X95286409Y-58843856D01*
X95237439Y-58824319D01*
X95237436Y-58824318D01*
X95233864Y-58822893D01*
X95022875Y-58780925D01*
X94908557Y-58779428D01*
X94811618Y-58778159D01*
X94811614Y-58778159D01*
X94807770Y-58778109D01*
X94595754Y-58814540D01*
X94393928Y-58888997D01*
X94390620Y-58890965D01*
X94367603Y-58904659D01*
X94209050Y-58998988D01*
X94047312Y-59140829D01*
X93914130Y-59309769D01*
X93912340Y-59313172D01*
X93912337Y-59313176D01*
X93847833Y-59435779D01*
X93813966Y-59500150D01*
X93805091Y-59528733D01*
X93766669Y-59652472D01*
X93750173Y-59705597D01*
X93724888Y-59919229D01*
X87623981Y-59919229D01*
X87623981Y-56394193D01*
X91224697Y-56394193D01*
X91242172Y-56527828D01*
X91296451Y-56651187D01*
X91383172Y-56754353D01*
X91388154Y-56757669D01*
X91490381Y-56825718D01*
X91490384Y-56825720D01*
X91495362Y-56829033D01*
X91501074Y-56830818D01*
X91501075Y-56830818D01*
X91618291Y-56867439D01*
X91618293Y-56867439D01*
X91624002Y-56869223D01*
X91629980Y-56869333D01*
X91629983Y-56869333D01*
X91698192Y-56870583D01*
X91758752Y-56871693D01*
X91774356Y-56867439D01*
X91883007Y-56837818D01*
X91883009Y-56837817D01*
X91888779Y-56836244D01*
X92003631Y-56765725D01*
X92094073Y-56665806D01*
X92098938Y-56655766D01*
X92150225Y-56549907D01*
X92152836Y-56544518D01*
X92175196Y-56411614D01*
X92175338Y-56400000D01*
X92174878Y-56396787D01*
X92157080Y-56272508D01*
X92157080Y-56272507D01*
X92156232Y-56266588D01*
X92100450Y-56143902D01*
X92012475Y-56041803D01*
X92006627Y-56038012D01*
X91904404Y-55971754D01*
X91904403Y-55971754D01*
X91899382Y-55968499D01*
X91851468Y-55954170D01*
X91775991Y-55931597D01*
X91775989Y-55931597D01*
X91770259Y-55929883D01*
X91764279Y-55929846D01*
X91764276Y-55929846D01*
X91701215Y-55929461D01*
X91635489Y-55929060D01*
X91505905Y-55966095D01*
X91391924Y-56038012D01*
X91302709Y-56139029D01*
X91245432Y-56261025D01*
X91224697Y-56394193D01*
X87623981Y-56394193D01*
X87623981Y-54269229D01*
X93724888Y-54269229D01*
X93738958Y-54483891D01*
X93791911Y-54692395D01*
X93881974Y-54887757D01*
X94006131Y-55063436D01*
X94160224Y-55213547D01*
X94339093Y-55333063D01*
X94480021Y-55393610D01*
X94518845Y-55410290D01*
X94536746Y-55417981D01*
X94642007Y-55441799D01*
X94742808Y-55464608D01*
X94742809Y-55464608D01*
X94746565Y-55465458D01*
X94868982Y-55470268D01*
X94957673Y-55473753D01*
X94957676Y-55473753D01*
X94961522Y-55473904D01*
X94965328Y-55473352D01*
X94965331Y-55473352D01*
X95034641Y-55463302D01*
X95174419Y-55443035D01*
X95178058Y-55441800D01*
X95178061Y-55441799D01*
X95374475Y-55375125D01*
X95378125Y-55373886D01*
X95565819Y-55268773D01*
X95731215Y-55131215D01*
X95868773Y-54965819D01*
X95973886Y-54778125D01*
X96001800Y-54695893D01*
X96027824Y-54619229D01*
X102924888Y-54619229D01*
X102938958Y-54833891D01*
X102991911Y-55042395D01*
X103081974Y-55237757D01*
X103206131Y-55413436D01*
X103208890Y-55416124D01*
X103208892Y-55416126D01*
X103211668Y-55418830D01*
X103360224Y-55563547D01*
X103539093Y-55683063D01*
X103736746Y-55767981D01*
X103842007Y-55791799D01*
X103942808Y-55814608D01*
X103942809Y-55814608D01*
X103946565Y-55815458D01*
X104068982Y-55820268D01*
X104157673Y-55823753D01*
X104157676Y-55823753D01*
X104161522Y-55823904D01*
X104165328Y-55823352D01*
X104165331Y-55823352D01*
X104234641Y-55813302D01*
X104374419Y-55793035D01*
X104378058Y-55791800D01*
X104378061Y-55791799D01*
X104574475Y-55725125D01*
X104578125Y-55723886D01*
X104765819Y-55618773D01*
X104931215Y-55481215D01*
X105068773Y-55315819D01*
X105173886Y-55128125D01*
X105201800Y-55045893D01*
X105241799Y-54928061D01*
X105241800Y-54928058D01*
X105243035Y-54924419D01*
X105273904Y-54711522D01*
X105275515Y-54650000D01*
X105255831Y-54435779D01*
X105197438Y-54228733D01*
X105195735Y-54225279D01*
X105103998Y-54039255D01*
X105103994Y-54039249D01*
X105102291Y-54035795D01*
X104973578Y-53863427D01*
X104946380Y-53838285D01*
X104818432Y-53720011D01*
X104818429Y-53720009D01*
X104815608Y-53717401D01*
X104812361Y-53715352D01*
X104812358Y-53715350D01*
X104636924Y-53604659D01*
X104636922Y-53604658D01*
X104633673Y-53602608D01*
X104532841Y-53562380D01*
X104437439Y-53524319D01*
X104437436Y-53524318D01*
X104433864Y-53522893D01*
X104222875Y-53480925D01*
X104108557Y-53479428D01*
X104011618Y-53478159D01*
X104011614Y-53478159D01*
X104007770Y-53478109D01*
X103795754Y-53514540D01*
X103593928Y-53588997D01*
X103590620Y-53590965D01*
X103425410Y-53689255D01*
X103409050Y-53698988D01*
X103247312Y-53840829D01*
X103114130Y-54009769D01*
X103112340Y-54013172D01*
X103112337Y-54013176D01*
X103019843Y-54188981D01*
X103013966Y-54200150D01*
X102991324Y-54273070D01*
X102963097Y-54363976D01*
X102950173Y-54405597D01*
X102949721Y-54409416D01*
X102929761Y-54578061D01*
X102924888Y-54619229D01*
X96027824Y-54619229D01*
X96041799Y-54578061D01*
X96041800Y-54578058D01*
X96043035Y-54574419D01*
X96073904Y-54361522D01*
X96075515Y-54300000D01*
X96055831Y-54085779D01*
X95997438Y-53878733D01*
X95995735Y-53875279D01*
X95903998Y-53689255D01*
X95903994Y-53689249D01*
X95902291Y-53685795D01*
X95773578Y-53513427D01*
X95738418Y-53480925D01*
X95618432Y-53370011D01*
X95618429Y-53370009D01*
X95615608Y-53367401D01*
X95612361Y-53365352D01*
X95612358Y-53365350D01*
X95436924Y-53254659D01*
X95436922Y-53254658D01*
X95433673Y-53252608D01*
X95332841Y-53212380D01*
X95237439Y-53174319D01*
X95237436Y-53174318D01*
X95233864Y-53172893D01*
X95022875Y-53130925D01*
X94908557Y-53129428D01*
X94811618Y-53128159D01*
X94811614Y-53128159D01*
X94807770Y-53128109D01*
X94595754Y-53164540D01*
X94393928Y-53238997D01*
X94390620Y-53240965D01*
X94367603Y-53254659D01*
X94209050Y-53348988D01*
X94047312Y-53490829D01*
X93914130Y-53659769D01*
X93912340Y-53663172D01*
X93912337Y-53663176D01*
X93883808Y-53717401D01*
X93813966Y-53850150D01*
X93805091Y-53878733D01*
X93756322Y-54035795D01*
X93750173Y-54055597D01*
X93724888Y-54269229D01*
X87623981Y-54269229D01*
X87623981Y-52457978D01*
X87612570Y-52395729D01*
X87591434Y-52340014D01*
X87573084Y-52304486D01*
X87533253Y-52268247D01*
X87506540Y-52217375D01*
X87514187Y-52169489D01*
X87541517Y-52113081D01*
X87544126Y-52107696D01*
X87568524Y-51962672D01*
X87568679Y-51950000D01*
X87547831Y-51804424D01*
X87514905Y-51732008D01*
X87510446Y-51674723D01*
X87537024Y-51636336D01*
X87535937Y-51635292D01*
X87541026Y-51629993D01*
X87546961Y-51625657D01*
X87593745Y-51555892D01*
X87613397Y-51501898D01*
X87623981Y-51441874D01*
X87623981Y-49700000D01*
X89400000Y-49700000D01*
X91150000Y-49700000D01*
X91150000Y-49269229D01*
X93724888Y-49269229D01*
X93738958Y-49483891D01*
X93791911Y-49692395D01*
X93881974Y-49887757D01*
X94006131Y-50063436D01*
X94160224Y-50213547D01*
X94339093Y-50333063D01*
X94536746Y-50417981D01*
X94642007Y-50441799D01*
X94742808Y-50464608D01*
X94742809Y-50464608D01*
X94746565Y-50465458D01*
X94868982Y-50470268D01*
X94957673Y-50473753D01*
X94957676Y-50473753D01*
X94961522Y-50473904D01*
X94965328Y-50473352D01*
X94965331Y-50473352D01*
X95034641Y-50463302D01*
X95174419Y-50443035D01*
X95178058Y-50441800D01*
X95178061Y-50441799D01*
X95374475Y-50375125D01*
X95378125Y-50373886D01*
X95565819Y-50268773D01*
X95731215Y-50131215D01*
X95868773Y-49965819D01*
X95973886Y-49778125D01*
X96000406Y-49700000D01*
X96041799Y-49578061D01*
X96041800Y-49578058D01*
X96043035Y-49574419D01*
X96073904Y-49361522D01*
X96075515Y-49300000D01*
X96055831Y-49085779D01*
X96022961Y-48969229D01*
X102924888Y-48969229D01*
X102938958Y-49183891D01*
X102991911Y-49392395D01*
X103081974Y-49587757D01*
X103206131Y-49763436D01*
X103208890Y-49766124D01*
X103208892Y-49766126D01*
X103224661Y-49781487D01*
X103360224Y-49913547D01*
X103539093Y-50033063D01*
X103736746Y-50117981D01*
X103842007Y-50141799D01*
X103942808Y-50164608D01*
X103942809Y-50164608D01*
X103946565Y-50165458D01*
X104068982Y-50170268D01*
X104157673Y-50173753D01*
X104157676Y-50173753D01*
X104161522Y-50173904D01*
X104165328Y-50173352D01*
X104165331Y-50173352D01*
X104234641Y-50163302D01*
X104374419Y-50143035D01*
X104378058Y-50141800D01*
X104378061Y-50141799D01*
X104574475Y-50075125D01*
X104578125Y-50073886D01*
X104765819Y-49968773D01*
X104931215Y-49831215D01*
X105068773Y-49665819D01*
X105173886Y-49478125D01*
X105185309Y-49444475D01*
X105241799Y-49278061D01*
X105241800Y-49278058D01*
X105243035Y-49274419D01*
X105261994Y-49143663D01*
X110931360Y-49143663D01*
X110932136Y-49149597D01*
X110932136Y-49149598D01*
X110948282Y-49273070D01*
X110950428Y-49289483D01*
X111009656Y-49424090D01*
X111013505Y-49428669D01*
X111013507Y-49428672D01*
X111100431Y-49532080D01*
X111100433Y-49532082D01*
X111104284Y-49536663D01*
X111226703Y-49618152D01*
X111367073Y-49662007D01*
X111373050Y-49662117D01*
X111373053Y-49662117D01*
X111447527Y-49663482D01*
X111514109Y-49664702D01*
X111519881Y-49663128D01*
X111519884Y-49663128D01*
X111650219Y-49627594D01*
X111650220Y-49627594D01*
X111655992Y-49626020D01*
X111661090Y-49622890D01*
X111661092Y-49622889D01*
X111776216Y-49552202D01*
X111776217Y-49552201D01*
X111781315Y-49549071D01*
X111785328Y-49544637D01*
X111785331Y-49544635D01*
X111845533Y-49478125D01*
X111880004Y-49440042D01*
X111901395Y-49395893D01*
X111941517Y-49313081D01*
X111944126Y-49307696D01*
X111950598Y-49269229D01*
X111967986Y-49165870D01*
X111968524Y-49162672D01*
X111968679Y-49150000D01*
X111968219Y-49146787D01*
X111948679Y-49010344D01*
X111948679Y-49010343D01*
X111947831Y-49004424D01*
X111886962Y-48870551D01*
X111790967Y-48759142D01*
X111779662Y-48751814D01*
X111672583Y-48682410D01*
X111667561Y-48679155D01*
X111661831Y-48677441D01*
X111661828Y-48677440D01*
X111532398Y-48638732D01*
X111532396Y-48638732D01*
X111526666Y-48637018D01*
X111520686Y-48636981D01*
X111520683Y-48636981D01*
X111451318Y-48636558D01*
X111379607Y-48636120D01*
X111373851Y-48637765D01*
X111296861Y-48659769D01*
X111238208Y-48676532D01*
X111113834Y-48755006D01*
X111016484Y-48865233D01*
X110953985Y-48998353D01*
X110953065Y-49004264D01*
X110953064Y-49004266D01*
X110952118Y-49010344D01*
X110931360Y-49143663D01*
X105261994Y-49143663D01*
X105273904Y-49061522D01*
X105275515Y-49000000D01*
X105255831Y-48785779D01*
X105197438Y-48578733D01*
X105195735Y-48575279D01*
X105103998Y-48389255D01*
X105103994Y-48389249D01*
X105102291Y-48385795D01*
X104973578Y-48213427D01*
X104922132Y-48165871D01*
X104818432Y-48070011D01*
X104818429Y-48070009D01*
X104815608Y-48067401D01*
X104812361Y-48065352D01*
X104812358Y-48065350D01*
X104636924Y-47954659D01*
X104636922Y-47954658D01*
X104633673Y-47952608D01*
X104532841Y-47912380D01*
X104437439Y-47874319D01*
X104437436Y-47874318D01*
X104433864Y-47872893D01*
X104222875Y-47830925D01*
X104108557Y-47829428D01*
X104011618Y-47828159D01*
X104011614Y-47828159D01*
X104007770Y-47828109D01*
X103795754Y-47864540D01*
X103593928Y-47938997D01*
X103590620Y-47940965D01*
X103567603Y-47954659D01*
X103409050Y-48048988D01*
X103247312Y-48190829D01*
X103114130Y-48359769D01*
X103112340Y-48363172D01*
X103112337Y-48363176D01*
X103034663Y-48510811D01*
X103013966Y-48550150D01*
X103005091Y-48578733D01*
X102951348Y-48751814D01*
X102950173Y-48755597D01*
X102924888Y-48969229D01*
X96022961Y-48969229D01*
X95997438Y-48878733D01*
X95995735Y-48875279D01*
X95903998Y-48689255D01*
X95903994Y-48689249D01*
X95902291Y-48685795D01*
X95773578Y-48513427D01*
X95632162Y-48382703D01*
X95618432Y-48370011D01*
X95618429Y-48370009D01*
X95615608Y-48367401D01*
X95612361Y-48365352D01*
X95612358Y-48365350D01*
X95436924Y-48254659D01*
X95436922Y-48254658D01*
X95433673Y-48252608D01*
X95286409Y-48193856D01*
X95237439Y-48174319D01*
X95237436Y-48174318D01*
X95233864Y-48172893D01*
X95022875Y-48130925D01*
X94908557Y-48129428D01*
X94811618Y-48128159D01*
X94811614Y-48128159D01*
X94807770Y-48128109D01*
X94595754Y-48164540D01*
X94393928Y-48238997D01*
X94390620Y-48240965D01*
X94367603Y-48254659D01*
X94209050Y-48348988D01*
X94047312Y-48490829D01*
X94029497Y-48513427D01*
X93932066Y-48637018D01*
X93914130Y-48659769D01*
X93912340Y-48663172D01*
X93912337Y-48663176D01*
X93847833Y-48785779D01*
X93813966Y-48850150D01*
X93805940Y-48875999D01*
X93766063Y-49004424D01*
X93750173Y-49055597D01*
X93724888Y-49269229D01*
X91150000Y-49269229D01*
X91150000Y-43619229D01*
X93674888Y-43619229D01*
X93688958Y-43833891D01*
X93741911Y-44042395D01*
X93831974Y-44237757D01*
X93956131Y-44413436D01*
X94110224Y-44563547D01*
X94289093Y-44683063D01*
X94430021Y-44743610D01*
X94468845Y-44760290D01*
X94486746Y-44767981D01*
X94592007Y-44791799D01*
X94692808Y-44814608D01*
X94692809Y-44814608D01*
X94696565Y-44815458D01*
X94818982Y-44820268D01*
X94907673Y-44823753D01*
X94907676Y-44823753D01*
X94911522Y-44823904D01*
X94915328Y-44823352D01*
X94915331Y-44823352D01*
X94984641Y-44813302D01*
X95124419Y-44793035D01*
X95128058Y-44791800D01*
X95128061Y-44791799D01*
X95324475Y-44725125D01*
X95328125Y-44723886D01*
X95515819Y-44618773D01*
X95681215Y-44481215D01*
X95818773Y-44315819D01*
X95923886Y-44128125D01*
X95951800Y-44045893D01*
X95977824Y-43969229D01*
X102924888Y-43969229D01*
X102938958Y-44183891D01*
X102991911Y-44392395D01*
X103081974Y-44587757D01*
X103206131Y-44763436D01*
X103208890Y-44766124D01*
X103208892Y-44766126D01*
X103211668Y-44768830D01*
X103360224Y-44913547D01*
X103539093Y-45033063D01*
X103736746Y-45117981D01*
X103842007Y-45141799D01*
X103942808Y-45164608D01*
X103942809Y-45164608D01*
X103946565Y-45165458D01*
X104068982Y-45170268D01*
X104157673Y-45173753D01*
X104157676Y-45173753D01*
X104161522Y-45173904D01*
X104165328Y-45173352D01*
X104165331Y-45173352D01*
X104234641Y-45163302D01*
X104374419Y-45143035D01*
X104378058Y-45141800D01*
X104378061Y-45141799D01*
X104574475Y-45075125D01*
X104578125Y-45073886D01*
X104765819Y-44968773D01*
X104931215Y-44831215D01*
X105068773Y-44665819D01*
X105173886Y-44478125D01*
X105201800Y-44395893D01*
X105241799Y-44278061D01*
X105241800Y-44278058D01*
X105243035Y-44274419D01*
X105273904Y-44061522D01*
X105275515Y-44000000D01*
X105255831Y-43785779D01*
X105197438Y-43578733D01*
X105195735Y-43575279D01*
X105103998Y-43389255D01*
X105103994Y-43389249D01*
X105102291Y-43385795D01*
X104973578Y-43213427D01*
X104863658Y-43111818D01*
X104818432Y-43070011D01*
X104818429Y-43070009D01*
X104815608Y-43067401D01*
X104812361Y-43065352D01*
X104812358Y-43065350D01*
X104636924Y-42954659D01*
X104636922Y-42954658D01*
X104633673Y-42952608D01*
X104532841Y-42912380D01*
X104437439Y-42874319D01*
X104437436Y-42874318D01*
X104433864Y-42872893D01*
X104222875Y-42830925D01*
X104108557Y-42829428D01*
X104011618Y-42828159D01*
X104011614Y-42828159D01*
X104007770Y-42828109D01*
X103795754Y-42864540D01*
X103593928Y-42938997D01*
X103590620Y-42940965D01*
X103425410Y-43039255D01*
X103409050Y-43048988D01*
X103247312Y-43190829D01*
X103114130Y-43359769D01*
X103112340Y-43363172D01*
X103112337Y-43363176D01*
X103058865Y-43464810D01*
X103013966Y-43550150D01*
X102991324Y-43623070D01*
X102963097Y-43713976D01*
X102950173Y-43755597D01*
X102949721Y-43759416D01*
X102929761Y-43928061D01*
X102924888Y-43969229D01*
X95977824Y-43969229D01*
X95991799Y-43928061D01*
X95991800Y-43928058D01*
X95993035Y-43924419D01*
X96023904Y-43711522D01*
X96025515Y-43650000D01*
X96005831Y-43435779D01*
X95947438Y-43228733D01*
X95945735Y-43225279D01*
X95853998Y-43039255D01*
X95853994Y-43039249D01*
X95852291Y-43035795D01*
X95723578Y-42863427D01*
X95688418Y-42830925D01*
X95615964Y-42763949D01*
X109124900Y-42763949D01*
X109125098Y-42767385D01*
X109125098Y-42767391D01*
X109131264Y-42874319D01*
X109138820Y-43005355D01*
X109191980Y-43241247D01*
X109282954Y-43465288D01*
X109284757Y-43468230D01*
X109407497Y-43668524D01*
X109407501Y-43668529D01*
X109409298Y-43671462D01*
X109567619Y-43854233D01*
X109753665Y-44008692D01*
X109962440Y-44130690D01*
X110071379Y-44172290D01*
X110185115Y-44215722D01*
X110185119Y-44215723D01*
X110188337Y-44216952D01*
X110191715Y-44217639D01*
X110191714Y-44217639D01*
X110421917Y-44264474D01*
X110421920Y-44264474D01*
X110425290Y-44265160D01*
X110607850Y-44271854D01*
X110663498Y-44273895D01*
X110666935Y-44274021D01*
X110670344Y-44273584D01*
X110670350Y-44273584D01*
X110903366Y-44243734D01*
X110903371Y-44243733D01*
X110906782Y-44243296D01*
X110910075Y-44242308D01*
X110910080Y-44242307D01*
X111135081Y-44174803D01*
X111135084Y-44174802D01*
X111138390Y-44173810D01*
X111355540Y-44067430D01*
X111552399Y-43927012D01*
X111554845Y-43924575D01*
X111721235Y-43758764D01*
X111721238Y-43758761D01*
X111723680Y-43756327D01*
X111824940Y-43615409D01*
X111862776Y-43562755D01*
X111862777Y-43562754D01*
X111864785Y-43559959D01*
X111871317Y-43546744D01*
X111970396Y-43346271D01*
X111970397Y-43346269D01*
X111971922Y-43343183D01*
X112001923Y-43244439D01*
X112041213Y-43115120D01*
X112041214Y-43115117D01*
X112042216Y-43111818D01*
X112050748Y-43047015D01*
X112073487Y-42874294D01*
X112073488Y-42874285D01*
X112073778Y-42872080D01*
X112075540Y-42800000D01*
X112068964Y-42720011D01*
X112056009Y-42562432D01*
X112056008Y-42562428D01*
X112055727Y-42559006D01*
X112047015Y-42524319D01*
X111997660Y-42327833D01*
X111996819Y-42324484D01*
X111900398Y-42102732D01*
X111769055Y-41899706D01*
X111745903Y-41874262D01*
X111608635Y-41723406D01*
X111608632Y-41723403D01*
X111606316Y-41720858D01*
X111416551Y-41570991D01*
X111204858Y-41454130D01*
X111048853Y-41398886D01*
X110980171Y-41374564D01*
X110980168Y-41374563D01*
X110976920Y-41373413D01*
X110738861Y-41331008D01*
X110610381Y-41329438D01*
X110500517Y-41328096D01*
X110500516Y-41328096D01*
X110497072Y-41328054D01*
X110428437Y-41338557D01*
X110261455Y-41364108D01*
X110261449Y-41364109D01*
X110258047Y-41364630D01*
X110227654Y-41374564D01*
X110031478Y-41438684D01*
X110031476Y-41438685D01*
X110028205Y-41439754D01*
X110025155Y-41441342D01*
X110025152Y-41441343D01*
X109816780Y-41549815D01*
X109813720Y-41551408D01*
X109810962Y-41553479D01*
X109623105Y-41694525D01*
X109623101Y-41694528D01*
X109620350Y-41696594D01*
X109453290Y-41871413D01*
X109451349Y-41874258D01*
X109451346Y-41874262D01*
X109432014Y-41902602D01*
X109317025Y-42071169D01*
X109215216Y-42290499D01*
X109214296Y-42293817D01*
X109214294Y-42293822D01*
X109151518Y-42520185D01*
X109150596Y-42523511D01*
X109124900Y-42763949D01*
X95615964Y-42763949D01*
X95568432Y-42720011D01*
X95568429Y-42720009D01*
X95565608Y-42717401D01*
X95562361Y-42715352D01*
X95562358Y-42715350D01*
X95386924Y-42604659D01*
X95386922Y-42604658D01*
X95383673Y-42602608D01*
X95266016Y-42555668D01*
X95187439Y-42524319D01*
X95187436Y-42524318D01*
X95183864Y-42522893D01*
X94972875Y-42480925D01*
X94858557Y-42479428D01*
X94761618Y-42478159D01*
X94761614Y-42478159D01*
X94757770Y-42478109D01*
X94545754Y-42514540D01*
X94343928Y-42588997D01*
X94340620Y-42590965D01*
X94317603Y-42604659D01*
X94159050Y-42698988D01*
X93997312Y-42840829D01*
X93864130Y-43009769D01*
X93862340Y-43013172D01*
X93862337Y-43013176D01*
X93808702Y-43115120D01*
X93763966Y-43200150D01*
X93755091Y-43228733D01*
X93706322Y-43385795D01*
X93700173Y-43405597D01*
X93674888Y-43619229D01*
X91150000Y-43619229D01*
X91150000Y-43450000D01*
X89400000Y-43450000D01*
X89400000Y-49700000D01*
X87623981Y-49700000D01*
X87623981Y-38619229D01*
X93674888Y-38619229D01*
X93688958Y-38833891D01*
X93741911Y-39042395D01*
X93831974Y-39237757D01*
X93956131Y-39413436D01*
X94110224Y-39563547D01*
X94289093Y-39683063D01*
X94486746Y-39767981D01*
X94592007Y-39791799D01*
X94692808Y-39814608D01*
X94692809Y-39814608D01*
X94696565Y-39815458D01*
X94818982Y-39820268D01*
X94907673Y-39823753D01*
X94907676Y-39823753D01*
X94911522Y-39823904D01*
X94915328Y-39823352D01*
X94915331Y-39823352D01*
X94984641Y-39813302D01*
X95124419Y-39793035D01*
X95128058Y-39791800D01*
X95128061Y-39791799D01*
X95324475Y-39725125D01*
X95328125Y-39723886D01*
X95515819Y-39618773D01*
X95681215Y-39481215D01*
X95818773Y-39315819D01*
X95923886Y-39128125D01*
X95951800Y-39045893D01*
X95991799Y-38928061D01*
X95991800Y-38928058D01*
X95993035Y-38924419D01*
X96023904Y-38711522D01*
X96025515Y-38650000D01*
X96005831Y-38435779D01*
X95947438Y-38228733D01*
X95945735Y-38225279D01*
X95853998Y-38039255D01*
X95853994Y-38039249D01*
X95852291Y-38035795D01*
X95723578Y-37863427D01*
X95696380Y-37838285D01*
X95568432Y-37720011D01*
X95568429Y-37720009D01*
X95565608Y-37717401D01*
X95562361Y-37715352D01*
X95562358Y-37715350D01*
X95386924Y-37604659D01*
X95386922Y-37604658D01*
X95383673Y-37602608D01*
X95282841Y-37562380D01*
X95187439Y-37524319D01*
X95187436Y-37524318D01*
X95183864Y-37522893D01*
X94972875Y-37480925D01*
X94858557Y-37479428D01*
X94761618Y-37478159D01*
X94761614Y-37478159D01*
X94757770Y-37478109D01*
X94545754Y-37514540D01*
X94343928Y-37588997D01*
X94340620Y-37590965D01*
X94317603Y-37604659D01*
X94159050Y-37698988D01*
X93997312Y-37840829D01*
X93864130Y-38009769D01*
X93862340Y-38013172D01*
X93862337Y-38013176D01*
X93769843Y-38188981D01*
X93763966Y-38200150D01*
X93700173Y-38405597D01*
X93674888Y-38619229D01*
X87623981Y-38619229D01*
X87623981Y-27181956D01*
X87618001Y-27136533D01*
X87606747Y-27094533D01*
X87589215Y-27052206D01*
X87468229Y-26842651D01*
X87458251Y-26786064D01*
X87486981Y-26736303D01*
X87498975Y-26727905D01*
X87753525Y-26580941D01*
X87810112Y-26570963D01*
X87837525Y-26580941D01*
G37*
%TD.AperFunction*%
%TD*%
M02*
