%TF.GenerationSoftware,KiCad,Pcbnew,(6.0.4-0)*%
%TF.CreationDate,2022-04-30T12:18:42+02:00*%
%TF.ProjectId,speaker,73706561-6b65-4722-9e6b-696361645f70,rev?*%
%TF.SameCoordinates,Original*%
%TF.FileFunction,Soldermask,Top*%
%TF.FilePolarity,Negative*%
%FSLAX46Y46*%
G04 Gerber Fmt 4.6, Leading zero omitted, Abs format (unit mm)*
G04 Created by KiCad (PCBNEW (6.0.4-0)) date 2022-04-30 12:18:42*
%MOMM*%
%LPD*%
G01*
G04 APERTURE LIST*
G04 Aperture macros list*
%AMRoundRect*
0 Rectangle with rounded corners*
0 $1 Rounding radius*
0 $2 $3 $4 $5 $6 $7 $8 $9 X,Y pos of 4 corners*
0 Add a 4 corners polygon primitive as box body*
4,1,4,$2,$3,$4,$5,$6,$7,$8,$9,$2,$3,0*
0 Add four circle primitives for the rounded corners*
1,1,$1+$1,$2,$3*
1,1,$1+$1,$4,$5*
1,1,$1+$1,$6,$7*
1,1,$1+$1,$8,$9*
0 Add four rect primitives between the rounded corners*
20,1,$1+$1,$2,$3,$4,$5,0*
20,1,$1+$1,$4,$5,$6,$7,0*
20,1,$1+$1,$6,$7,$8,$9,0*
20,1,$1+$1,$8,$9,$2,$3,0*%
G04 Aperture macros list end*
%TA.AperFunction,Profile*%
%ADD10C,0.088304*%
%TD*%
%ADD11C,2.000000*%
%ADD12RoundRect,0.250000X0.625000X-0.350000X0.625000X0.350000X-0.625000X0.350000X-0.625000X-0.350000X0*%
%ADD13O,1.750000X1.200000*%
G04 APERTURE END LIST*
D10*
X57987239Y-73149866D02*
X85700040Y-89150019D01*
X85700040Y-25149982D02*
X57987239Y-41149998D01*
X85700040Y-25149982D02*
X85700040Y-25149982D01*
X57987239Y-73149866D02*
X57987239Y-73149866D01*
X85700040Y-89150019D02*
X113412761Y-73149866D01*
X57987239Y-41149998D02*
X57987239Y-41149998D01*
X113412761Y-41149998D02*
X85700040Y-25149982D01*
X113412761Y-41149998D02*
X113412761Y-41149998D01*
X57987239Y-41149998D02*
X57987239Y-73149866D01*
X113412761Y-73149866D02*
X113412761Y-41149998D01*
X113412761Y-73149866D02*
X113412761Y-73149866D01*
D11*
%TO.C,M15*%
X95200000Y-60150000D03*
X95200000Y-65150000D03*
%TD*%
%TO.C,M6*%
X95200000Y-71150000D03*
X95200000Y-76150000D03*
%TD*%
%TO.C,M7*%
X85700000Y-76650000D03*
X85700000Y-81650000D03*
%TD*%
%TO.C,M11*%
X66700000Y-43650000D03*
X66700000Y-48650000D03*
%TD*%
%TO.C,M12*%
X76200000Y-38150000D03*
X76200000Y-43150000D03*
%TD*%
%TO.C,M9*%
X66700000Y-65650000D03*
X66700000Y-70650000D03*
%TD*%
%TO.C,M19*%
X85700000Y-54650000D03*
X85700000Y-59650000D03*
%TD*%
%TO.C,M5*%
X104700000Y-65650000D03*
X104700000Y-70650000D03*
%TD*%
%TO.C,M1*%
X85700000Y-32650000D03*
X85700000Y-37650000D03*
%TD*%
%TO.C,M14*%
X95200000Y-49150000D03*
X95200000Y-54150000D03*
%TD*%
%TO.C,M8*%
X76200000Y-71150000D03*
X76200000Y-76150000D03*
%TD*%
%TO.C,M16*%
X85700000Y-65650000D03*
X85700000Y-70650000D03*
%TD*%
%TO.C,M13*%
X85700000Y-43650000D03*
X85700000Y-48650000D03*
%TD*%
%TO.C,M4*%
X104700000Y-54650000D03*
X104700000Y-59650000D03*
%TD*%
%TO.C,M3*%
X104700000Y-43650000D03*
X104700000Y-48650000D03*
%TD*%
%TO.C,M2*%
X95200000Y-38150000D03*
X95200000Y-43150000D03*
%TD*%
%TO.C,M10*%
X66700000Y-54650000D03*
X66700000Y-59650000D03*
%TD*%
%TO.C,M17*%
X76200000Y-60150000D03*
X76200000Y-65150000D03*
%TD*%
%TO.C,M18*%
X76200000Y-49150000D03*
X76200000Y-54150000D03*
%TD*%
%TO.C,TP1*%
X82800000Y-33950000D03*
%TD*%
%TO.C,TP2*%
X73950000Y-51400000D03*
%TD*%
%TO.C,TP3*%
X89200000Y-67950000D03*
%TD*%
D12*
%TO.C,J7*%
X111000000Y-65550000D03*
D13*
X111000000Y-63550000D03*
%TD*%
M02*
