%TF.GenerationSoftware,KiCad,Pcbnew,(6.0.4-0)*%
%TF.CreationDate,2022-04-30T12:18:42+02:00*%
%TF.ProjectId,speaker,73706561-6b65-4722-9e6b-696361645f70,rev?*%
%TF.SameCoordinates,Original*%
%TF.FileFunction,Paste,Bot*%
%TF.FilePolarity,Positive*%
%FSLAX46Y46*%
G04 Gerber Fmt 4.6, Leading zero omitted, Abs format (unit mm)*
G04 Created by KiCad (PCBNEW (6.0.4-0)) date 2022-04-30 12:18:42*
%MOMM*%
%LPD*%
G01*
G04 APERTURE LIST*
G04 Aperture macros list*
%AMRoundRect*
0 Rectangle with rounded corners*
0 $1 Rounding radius*
0 $2 $3 $4 $5 $6 $7 $8 $9 X,Y pos of 4 corners*
0 Add a 4 corners polygon primitive as box body*
4,1,4,$2,$3,$4,$5,$6,$7,$8,$9,$2,$3,0*
0 Add four circle primitives for the rounded corners*
1,1,$1+$1,$2,$3*
1,1,$1+$1,$4,$5*
1,1,$1+$1,$6,$7*
1,1,$1+$1,$8,$9*
0 Add four rect primitives between the rounded corners*
20,1,$1+$1,$2,$3,$4,$5,0*
20,1,$1+$1,$4,$5,$6,$7,0*
20,1,$1+$1,$6,$7,$8,$9,0*
20,1,$1+$1,$8,$9,$2,$3,0*%
G04 Aperture macros list end*
%TA.AperFunction,Profile*%
%ADD10C,0.088304*%
%TD*%
%ADD11RoundRect,0.150000X-0.442404X-0.466266X-0.182596X-0.616266X0.442404X0.466266X0.182596X0.616266X0*%
%ADD12RoundRect,0.250000X-0.628109X-0.387917X-0.021891X-0.737917X0.628109X0.387917X0.021891X0.737917X0*%
%ADD13RoundRect,0.250000X0.412500X0.650000X-0.412500X0.650000X-0.412500X-0.650000X0.412500X-0.650000X0*%
%ADD14RoundRect,0.250000X-0.350000X-0.450000X0.350000X-0.450000X0.350000X0.450000X-0.350000X0.450000X0*%
%ADD15R,0.400000X1.560000*%
%ADD16RoundRect,0.250000X0.350000X0.450000X-0.350000X0.450000X-0.350000X-0.450000X0.350000X-0.450000X0*%
%ADD17RoundRect,0.250000X0.337500X0.475000X-0.337500X0.475000X-0.337500X-0.475000X0.337500X-0.475000X0*%
%ADD18RoundRect,0.150000X-0.182596X0.616266X-0.442404X0.466266X0.182596X-0.616266X0.442404X-0.466266X0*%
%ADD19RoundRect,0.250000X-0.021891X0.737917X-0.628109X0.387917X0.021891X-0.737917X0.628109X-0.387917X0*%
%ADD20R,1.560000X0.650000*%
%ADD21RoundRect,0.250000X0.475000X-0.337500X0.475000X0.337500X-0.475000X0.337500X-0.475000X-0.337500X0*%
%ADD22RoundRect,0.150000X0.182596X-0.616266X0.442404X-0.466266X-0.182596X0.616266X-0.442404X0.466266X0*%
%ADD23RoundRect,0.250000X0.021891X-0.737917X0.628109X-0.387917X-0.021891X0.737917X-0.628109X0.387917X0*%
%ADD24RoundRect,0.250000X0.650000X-0.412500X0.650000X0.412500X-0.650000X0.412500X-0.650000X-0.412500X0*%
%ADD25RoundRect,0.250000X-0.650000X0.412500X-0.650000X-0.412500X0.650000X-0.412500X0.650000X0.412500X0*%
%ADD26RoundRect,0.250000X-0.450000X0.350000X-0.450000X-0.350000X0.450000X-0.350000X0.450000X0.350000X0*%
%ADD27RoundRect,0.150000X0.442404X0.466266X0.182596X0.616266X-0.442404X-0.466266X-0.182596X-0.616266X0*%
%ADD28RoundRect,0.250000X0.628109X0.387917X0.021891X0.737917X-0.628109X-0.387917X-0.021891X-0.737917X0*%
%ADD29RoundRect,0.250000X-0.337500X-0.475000X0.337500X-0.475000X0.337500X0.475000X-0.337500X0.475000X0*%
%ADD30RoundRect,0.300000X-0.700000X2.500000X-0.700000X-2.500000X0.700000X-2.500000X0.700000X2.500000X0*%
%ADD31R,2.300000X3.500000*%
%ADD32RoundRect,0.250000X0.450000X-0.350000X0.450000X0.350000X-0.450000X0.350000X-0.450000X-0.350000X0*%
%ADD33RoundRect,0.250000X-0.475000X0.337500X-0.475000X-0.337500X0.475000X-0.337500X0.475000X0.337500X0*%
%ADD34RoundRect,0.150000X0.625000X-0.150000X0.625000X0.150000X-0.625000X0.150000X-0.625000X-0.150000X0*%
%ADD35RoundRect,0.250000X0.650000X-0.350000X0.650000X0.350000X-0.650000X0.350000X-0.650000X-0.350000X0*%
%ADD36RoundRect,0.150000X-0.625000X0.150000X-0.625000X-0.150000X0.625000X-0.150000X0.625000X0.150000X0*%
%ADD37RoundRect,0.250000X-0.650000X0.350000X-0.650000X-0.350000X0.650000X-0.350000X0.650000X0.350000X0*%
G04 APERTURE END LIST*
D10*
X57987239Y-73149866D02*
X85700040Y-89150019D01*
X85700040Y-25149982D02*
X57987239Y-41149998D01*
X85700040Y-25149982D02*
X85700040Y-25149982D01*
X57987239Y-73149866D02*
X57987239Y-73149866D01*
X85700040Y-89150019D02*
X113412761Y-73149866D01*
X57987239Y-41149998D02*
X57987239Y-41149998D01*
X113412761Y-41149998D02*
X85700040Y-25149982D01*
X113412761Y-41149998D02*
X113412761Y-41149998D01*
X57987239Y-41149998D02*
X57987239Y-73149866D01*
X113412761Y-73149866D02*
X113412761Y-41149998D01*
X113412761Y-73149866D02*
X113412761Y-73149866D01*
D11*
%TO.C,J5*%
X100554487Y-38202516D03*
X101420513Y-38702516D03*
D12*
X98166154Y-39739230D03*
X101283846Y-41539230D03*
%TD*%
D13*
%TO.C,C2*%
X78012500Y-35550000D03*
X74887500Y-35550000D03*
%TD*%
D14*
%TO.C,R2*%
X88150000Y-38050000D03*
X90150000Y-38050000D03*
%TD*%
D15*
%TO.C,U1*%
X83390000Y-74000000D03*
X82740000Y-74000000D03*
X82080000Y-74000000D03*
X81430000Y-74000000D03*
X81430000Y-71300000D03*
X82080000Y-71300000D03*
X82740000Y-71300000D03*
X83390000Y-71300000D03*
%TD*%
D16*
%TO.C,R4*%
X76550000Y-62550000D03*
X74550000Y-62550000D03*
%TD*%
D17*
%TO.C,C12*%
X76837500Y-57450000D03*
X74762500Y-57450000D03*
%TD*%
%TO.C,C3*%
X78987500Y-68700000D03*
X76912500Y-68700000D03*
%TD*%
D18*
%TO.C,J6*%
X101545513Y-75297484D03*
X100679487Y-75797484D03*
D19*
X101408846Y-72460770D03*
X98291154Y-74260770D03*
%TD*%
D20*
%TO.C,OP1*%
X83000000Y-59100000D03*
X83000000Y-60050000D03*
X83000000Y-61000000D03*
X80300000Y-61000000D03*
X80300000Y-59100000D03*
%TD*%
D21*
%TO.C,C6*%
X82000000Y-53957500D03*
X82000000Y-51882500D03*
%TD*%
D14*
%TO.C,R8*%
X81100000Y-65300000D03*
X83100000Y-65300000D03*
%TD*%
D21*
%TO.C,C9*%
X72500000Y-64487500D03*
X72500000Y-62412500D03*
%TD*%
D22*
%TO.C,J2*%
X69604487Y-38752516D03*
X70470513Y-38252516D03*
D23*
X72858846Y-39789230D03*
X69741154Y-41589230D03*
%TD*%
D16*
%TO.C,R3*%
X80500000Y-63050000D03*
X78500000Y-63050000D03*
%TD*%
D24*
%TO.C,C5*%
X79050000Y-53962500D03*
X79050000Y-50837500D03*
%TD*%
D25*
%TO.C,C1*%
X92150000Y-51387500D03*
X92150000Y-54512500D03*
%TD*%
D26*
%TO.C,R7*%
X93100000Y-33400000D03*
X93100000Y-35400000D03*
%TD*%
D27*
%TO.C,J1*%
X70470513Y-75797484D03*
X69604487Y-75297484D03*
D28*
X72858846Y-74260770D03*
X69741154Y-72460770D03*
%TD*%
D14*
%TO.C,R9*%
X83100000Y-63050000D03*
X85100000Y-63050000D03*
%TD*%
%TO.C,R1*%
X86150000Y-35050000D03*
X88150000Y-35050000D03*
%TD*%
D20*
%TO.C,U2*%
X88150000Y-41950000D03*
X88150000Y-41000000D03*
X88150000Y-40050000D03*
X90850000Y-40050000D03*
X90850000Y-41950000D03*
%TD*%
D29*
%TO.C,C10*%
X83562500Y-56950000D03*
X85637500Y-56950000D03*
%TD*%
D30*
%TO.C,L1*%
X88350000Y-46550000D03*
X92500000Y-46550000D03*
%TD*%
D31*
%TO.C,D1*%
X81900000Y-38850000D03*
X81900000Y-44250000D03*
%TD*%
D29*
%TO.C,C7*%
X86062500Y-30000000D03*
X88137500Y-30000000D03*
%TD*%
D32*
%TO.C,R5*%
X81550000Y-82800000D03*
X81550000Y-80800000D03*
%TD*%
D29*
%TO.C,C8*%
X81062500Y-67550000D03*
X83137500Y-67550000D03*
%TD*%
%TO.C,C11*%
X95812500Y-46250000D03*
X97887500Y-46250000D03*
%TD*%
D33*
%TO.C,C4*%
X79000000Y-71662500D03*
X79000000Y-73737500D03*
%TD*%
D34*
%TO.C,J3*%
X61475000Y-57650000D03*
X61475000Y-56650000D03*
D35*
X64000000Y-58950000D03*
X64000000Y-55350000D03*
%TD*%
D17*
%TO.C,C13*%
X77387500Y-32600000D03*
X75312500Y-32600000D03*
%TD*%
D32*
%TO.C,R6*%
X79300000Y-83700000D03*
X79300000Y-81700000D03*
%TD*%
D36*
%TO.C,J4*%
X109925000Y-56650000D03*
X109925000Y-57650000D03*
D37*
X107400000Y-58950000D03*
X107400000Y-55350000D03*
%TD*%
M02*
