%TF.GenerationSoftware,KiCad,Pcbnew,(6.0.5-0)*%
%TF.CreationDate,2022-06-15T09:27:57+02:00*%
%TF.ProjectId,speaker,73706561-6b65-4722-9e6b-696361645f70,rev?*%
%TF.SameCoordinates,Original*%
%TF.FileFunction,Legend,Top*%
%TF.FilePolarity,Positive*%
%FSLAX46Y46*%
G04 Gerber Fmt 4.6, Leading zero omitted, Abs format (unit mm)*
G04 Created by KiCad (PCBNEW (6.0.5-0)) date 2022-06-15 09:27:57*
%MOMM*%
%LPD*%
G01*
G04 APERTURE LIST*
%TA.AperFunction,Profile*%
%ADD10C,0.088304*%
%TD*%
%ADD11C,0.150000*%
%ADD12C,0.120000*%
G04 APERTURE END LIST*
D10*
X57987239Y-73149866D02*
X85700040Y-89150019D01*
X85700040Y-25149982D02*
X57987239Y-41149998D01*
X85700040Y-25149982D02*
X85700040Y-25149982D01*
X57987239Y-73149866D02*
X57987239Y-73149866D01*
X85700040Y-89150019D02*
X113412761Y-73149866D01*
X57987239Y-41149998D02*
X57987239Y-41149998D01*
X113412761Y-41149998D02*
X85700040Y-25149982D01*
X113412761Y-41149998D02*
X113412761Y-41149998D01*
X57987239Y-41149998D02*
X57987239Y-73149866D01*
X113412761Y-73149866D02*
X113412761Y-41149998D01*
X113412761Y-73149866D02*
X113412761Y-73149866D01*
D11*
%TO.C,M15*%
X93614285Y-62902380D02*
X93614285Y-61902380D01*
X93947619Y-62616666D01*
X94280952Y-61902380D01*
X94280952Y-62902380D01*
X95280952Y-62902380D02*
X94709523Y-62902380D01*
X94995238Y-62902380D02*
X94995238Y-61902380D01*
X94900000Y-62045238D01*
X94804761Y-62140476D01*
X94709523Y-62188095D01*
X96185714Y-61902380D02*
X95709523Y-61902380D01*
X95661904Y-62378571D01*
X95709523Y-62330952D01*
X95804761Y-62283333D01*
X96042857Y-62283333D01*
X96138095Y-62330952D01*
X96185714Y-62378571D01*
X96233333Y-62473809D01*
X96233333Y-62711904D01*
X96185714Y-62807142D01*
X96138095Y-62854761D01*
X96042857Y-62902380D01*
X95804761Y-62902380D01*
X95709523Y-62854761D01*
X95661904Y-62807142D01*
X96219047Y-58721428D02*
X96980952Y-58721428D01*
X96600000Y-59102380D02*
X96600000Y-58340476D01*
%TO.C,M6*%
X94090476Y-73552380D02*
X94090476Y-72552380D01*
X94423809Y-73266666D01*
X94757142Y-72552380D01*
X94757142Y-73552380D01*
X95661904Y-72552380D02*
X95471428Y-72552380D01*
X95376190Y-72600000D01*
X95328571Y-72647619D01*
X95233333Y-72790476D01*
X95185714Y-72980952D01*
X95185714Y-73361904D01*
X95233333Y-73457142D01*
X95280952Y-73504761D01*
X95376190Y-73552380D01*
X95566666Y-73552380D01*
X95661904Y-73504761D01*
X95709523Y-73457142D01*
X95757142Y-73361904D01*
X95757142Y-73123809D01*
X95709523Y-73028571D01*
X95661904Y-72980952D01*
X95566666Y-72933333D01*
X95376190Y-72933333D01*
X95280952Y-72980952D01*
X95233333Y-73028571D01*
X95185714Y-73123809D01*
X96219047Y-69371428D02*
X96980952Y-69371428D01*
X96600000Y-69752380D02*
X96600000Y-68990476D01*
%TO.C,M7*%
X84890476Y-78902380D02*
X84890476Y-77902380D01*
X85223809Y-78616666D01*
X85557142Y-77902380D01*
X85557142Y-78902380D01*
X85938095Y-77902380D02*
X86604761Y-77902380D01*
X86176190Y-78902380D01*
X87019047Y-74721428D02*
X87780952Y-74721428D01*
X87400000Y-75102380D02*
X87400000Y-74340476D01*
%TO.C,M11*%
X66014285Y-46952380D02*
X66014285Y-45952380D01*
X66347619Y-46666666D01*
X66680952Y-45952380D01*
X66680952Y-46952380D01*
X67680952Y-46952380D02*
X67109523Y-46952380D01*
X67395238Y-46952380D02*
X67395238Y-45952380D01*
X67300000Y-46095238D01*
X67204761Y-46190476D01*
X67109523Y-46238095D01*
X68633333Y-46952380D02*
X68061904Y-46952380D01*
X68347619Y-46952380D02*
X68347619Y-45952380D01*
X68252380Y-46095238D01*
X68157142Y-46190476D01*
X68061904Y-46238095D01*
X68619047Y-42771428D02*
X69380952Y-42771428D01*
X69000000Y-43152380D02*
X69000000Y-42390476D01*
%TO.C,M12*%
X75164285Y-41602380D02*
X75164285Y-40602380D01*
X75497619Y-41316666D01*
X75830952Y-40602380D01*
X75830952Y-41602380D01*
X76830952Y-41602380D02*
X76259523Y-41602380D01*
X76545238Y-41602380D02*
X76545238Y-40602380D01*
X76450000Y-40745238D01*
X76354761Y-40840476D01*
X76259523Y-40888095D01*
X77211904Y-40697619D02*
X77259523Y-40650000D01*
X77354761Y-40602380D01*
X77592857Y-40602380D01*
X77688095Y-40650000D01*
X77735714Y-40697619D01*
X77783333Y-40792857D01*
X77783333Y-40888095D01*
X77735714Y-41030952D01*
X77164285Y-41602380D01*
X77783333Y-41602380D01*
X77769047Y-37421428D02*
X78530952Y-37421428D01*
X78150000Y-37802380D02*
X78150000Y-37040476D01*
%TO.C,M9*%
X66490476Y-68252380D02*
X66490476Y-67252380D01*
X66823809Y-67966666D01*
X67157142Y-67252380D01*
X67157142Y-68252380D01*
X67680952Y-68252380D02*
X67871428Y-68252380D01*
X67966666Y-68204761D01*
X68014285Y-68157142D01*
X68109523Y-68014285D01*
X68157142Y-67823809D01*
X68157142Y-67442857D01*
X68109523Y-67347619D01*
X68061904Y-67300000D01*
X67966666Y-67252380D01*
X67776190Y-67252380D01*
X67680952Y-67300000D01*
X67633333Y-67347619D01*
X67585714Y-67442857D01*
X67585714Y-67680952D01*
X67633333Y-67776190D01*
X67680952Y-67823809D01*
X67776190Y-67871428D01*
X67966666Y-67871428D01*
X68061904Y-67823809D01*
X68109523Y-67776190D01*
X68157142Y-67680952D01*
X68619047Y-64071428D02*
X69380952Y-64071428D01*
X69000000Y-64452380D02*
X69000000Y-63690476D01*
%TO.C,M19*%
X84414285Y-57602380D02*
X84414285Y-56602380D01*
X84747619Y-57316666D01*
X85080952Y-56602380D01*
X85080952Y-57602380D01*
X86080952Y-57602380D02*
X85509523Y-57602380D01*
X85795238Y-57602380D02*
X85795238Y-56602380D01*
X85700000Y-56745238D01*
X85604761Y-56840476D01*
X85509523Y-56888095D01*
X86557142Y-57602380D02*
X86747619Y-57602380D01*
X86842857Y-57554761D01*
X86890476Y-57507142D01*
X86985714Y-57364285D01*
X87033333Y-57173809D01*
X87033333Y-56792857D01*
X86985714Y-56697619D01*
X86938095Y-56650000D01*
X86842857Y-56602380D01*
X86652380Y-56602380D01*
X86557142Y-56650000D01*
X86509523Y-56697619D01*
X86461904Y-56792857D01*
X86461904Y-57030952D01*
X86509523Y-57126190D01*
X86557142Y-57173809D01*
X86652380Y-57221428D01*
X86842857Y-57221428D01*
X86938095Y-57173809D01*
X86985714Y-57126190D01*
X87033333Y-57030952D01*
X87019047Y-53421428D02*
X87780952Y-53421428D01*
X87400000Y-53802380D02*
X87400000Y-53040476D01*
%TO.C,M5*%
X103290476Y-68252380D02*
X103290476Y-67252380D01*
X103623809Y-67966666D01*
X103957142Y-67252380D01*
X103957142Y-68252380D01*
X104909523Y-67252380D02*
X104433333Y-67252380D01*
X104385714Y-67728571D01*
X104433333Y-67680952D01*
X104528571Y-67633333D01*
X104766666Y-67633333D01*
X104861904Y-67680952D01*
X104909523Y-67728571D01*
X104957142Y-67823809D01*
X104957142Y-68061904D01*
X104909523Y-68157142D01*
X104861904Y-68204761D01*
X104766666Y-68252380D01*
X104528571Y-68252380D01*
X104433333Y-68204761D01*
X104385714Y-68157142D01*
X105419047Y-64071428D02*
X106180952Y-64071428D01*
X105800000Y-64452380D02*
X105800000Y-63690476D01*
%TO.C,M1*%
X84890476Y-36302380D02*
X84890476Y-35302380D01*
X85223809Y-36016666D01*
X85557142Y-35302380D01*
X85557142Y-36302380D01*
X86557142Y-36302380D02*
X85985714Y-36302380D01*
X86271428Y-36302380D02*
X86271428Y-35302380D01*
X86176190Y-35445238D01*
X86080952Y-35540476D01*
X85985714Y-35588095D01*
X87019047Y-32121428D02*
X87780952Y-32121428D01*
X87400000Y-32502380D02*
X87400000Y-31740476D01*
%TO.C,M14*%
X90764285Y-50952380D02*
X90764285Y-49952380D01*
X91097619Y-50666666D01*
X91430952Y-49952380D01*
X91430952Y-50952380D01*
X92430952Y-50952380D02*
X91859523Y-50952380D01*
X92145238Y-50952380D02*
X92145238Y-49952380D01*
X92050000Y-50095238D01*
X91954761Y-50190476D01*
X91859523Y-50238095D01*
X93288095Y-50285714D02*
X93288095Y-50952380D01*
X93050000Y-49904761D02*
X92811904Y-50619047D01*
X93430952Y-50619047D01*
X96219047Y-48071428D02*
X96980952Y-48071428D01*
X96600000Y-48452380D02*
X96600000Y-47690476D01*
%TO.C,M8*%
X75690476Y-73552380D02*
X75690476Y-72552380D01*
X76023809Y-73266666D01*
X76357142Y-72552380D01*
X76357142Y-73552380D01*
X76976190Y-72980952D02*
X76880952Y-72933333D01*
X76833333Y-72885714D01*
X76785714Y-72790476D01*
X76785714Y-72742857D01*
X76833333Y-72647619D01*
X76880952Y-72600000D01*
X76976190Y-72552380D01*
X77166666Y-72552380D01*
X77261904Y-72600000D01*
X77309523Y-72647619D01*
X77357142Y-72742857D01*
X77357142Y-72790476D01*
X77309523Y-72885714D01*
X77261904Y-72933333D01*
X77166666Y-72980952D01*
X76976190Y-72980952D01*
X76880952Y-73028571D01*
X76833333Y-73076190D01*
X76785714Y-73171428D01*
X76785714Y-73361904D01*
X76833333Y-73457142D01*
X76880952Y-73504761D01*
X76976190Y-73552380D01*
X77166666Y-73552380D01*
X77261904Y-73504761D01*
X77309523Y-73457142D01*
X77357142Y-73361904D01*
X77357142Y-73171428D01*
X77309523Y-73076190D01*
X77261904Y-73028571D01*
X77166666Y-72980952D01*
X77819047Y-69371428D02*
X78580952Y-69371428D01*
X78200000Y-69752380D02*
X78200000Y-68990476D01*
%TO.C,M16*%
X84414285Y-68252380D02*
X84414285Y-67252380D01*
X84747619Y-67966666D01*
X85080952Y-67252380D01*
X85080952Y-68252380D01*
X86080952Y-68252380D02*
X85509523Y-68252380D01*
X85795238Y-68252380D02*
X85795238Y-67252380D01*
X85700000Y-67395238D01*
X85604761Y-67490476D01*
X85509523Y-67538095D01*
X86938095Y-67252380D02*
X86747619Y-67252380D01*
X86652380Y-67300000D01*
X86604761Y-67347619D01*
X86509523Y-67490476D01*
X86461904Y-67680952D01*
X86461904Y-68061904D01*
X86509523Y-68157142D01*
X86557142Y-68204761D01*
X86652380Y-68252380D01*
X86842857Y-68252380D01*
X86938095Y-68204761D01*
X86985714Y-68157142D01*
X87033333Y-68061904D01*
X87033333Y-67823809D01*
X86985714Y-67728571D01*
X86938095Y-67680952D01*
X86842857Y-67633333D01*
X86652380Y-67633333D01*
X86557142Y-67680952D01*
X86509523Y-67728571D01*
X86461904Y-67823809D01*
X87019047Y-64071428D02*
X87780952Y-64071428D01*
X87400000Y-64452380D02*
X87400000Y-63690476D01*
%TO.C,M13*%
X84414285Y-46952380D02*
X84414285Y-45952380D01*
X84747619Y-46666666D01*
X85080952Y-45952380D01*
X85080952Y-46952380D01*
X86080952Y-46952380D02*
X85509523Y-46952380D01*
X85795238Y-46952380D02*
X85795238Y-45952380D01*
X85700000Y-46095238D01*
X85604761Y-46190476D01*
X85509523Y-46238095D01*
X86414285Y-45952380D02*
X87033333Y-45952380D01*
X86700000Y-46333333D01*
X86842857Y-46333333D01*
X86938095Y-46380952D01*
X86985714Y-46428571D01*
X87033333Y-46523809D01*
X87033333Y-46761904D01*
X86985714Y-46857142D01*
X86938095Y-46904761D01*
X86842857Y-46952380D01*
X86557142Y-46952380D01*
X86461904Y-46904761D01*
X86414285Y-46857142D01*
X87019047Y-42771428D02*
X87780952Y-42771428D01*
X87400000Y-43152380D02*
X87400000Y-42390476D01*
%TO.C,M4*%
X105140476Y-57902380D02*
X105140476Y-56902380D01*
X105473809Y-57616666D01*
X105807142Y-56902380D01*
X105807142Y-57902380D01*
X106711904Y-57235714D02*
X106711904Y-57902380D01*
X106473809Y-56854761D02*
X106235714Y-57569047D01*
X106854761Y-57569047D01*
X105419047Y-53421428D02*
X106180952Y-53421428D01*
X105800000Y-53802380D02*
X105800000Y-53040476D01*
%TO.C,M3*%
X103290476Y-46952380D02*
X103290476Y-45952380D01*
X103623809Y-46666666D01*
X103957142Y-45952380D01*
X103957142Y-46952380D01*
X104338095Y-45952380D02*
X104957142Y-45952380D01*
X104623809Y-46333333D01*
X104766666Y-46333333D01*
X104861904Y-46380952D01*
X104909523Y-46428571D01*
X104957142Y-46523809D01*
X104957142Y-46761904D01*
X104909523Y-46857142D01*
X104861904Y-46904761D01*
X104766666Y-46952380D01*
X104480952Y-46952380D01*
X104385714Y-46904761D01*
X104338095Y-46857142D01*
X105419047Y-42771428D02*
X106180952Y-42771428D01*
X105800000Y-43152380D02*
X105800000Y-42390476D01*
%TO.C,M2*%
X96590476Y-40402380D02*
X96590476Y-39402380D01*
X96923809Y-40116666D01*
X97257142Y-39402380D01*
X97257142Y-40402380D01*
X97685714Y-39497619D02*
X97733333Y-39450000D01*
X97828571Y-39402380D01*
X98066666Y-39402380D01*
X98161904Y-39450000D01*
X98209523Y-39497619D01*
X98257142Y-39592857D01*
X98257142Y-39688095D01*
X98209523Y-39830952D01*
X97638095Y-40402380D01*
X98257142Y-40402380D01*
X96169047Y-37421428D02*
X96930952Y-37421428D01*
X96550000Y-37802380D02*
X96550000Y-37040476D01*
%TO.C,M10*%
X63314285Y-56752380D02*
X63314285Y-55752380D01*
X63647619Y-56466666D01*
X63980952Y-55752380D01*
X63980952Y-56752380D01*
X64980952Y-56752380D02*
X64409523Y-56752380D01*
X64695238Y-56752380D02*
X64695238Y-55752380D01*
X64600000Y-55895238D01*
X64504761Y-55990476D01*
X64409523Y-56038095D01*
X65600000Y-55752380D02*
X65695238Y-55752380D01*
X65790476Y-55800000D01*
X65838095Y-55847619D01*
X65885714Y-55942857D01*
X65933333Y-56133333D01*
X65933333Y-56371428D01*
X65885714Y-56561904D01*
X65838095Y-56657142D01*
X65790476Y-56704761D01*
X65695238Y-56752380D01*
X65600000Y-56752380D01*
X65504761Y-56704761D01*
X65457142Y-56657142D01*
X65409523Y-56561904D01*
X65361904Y-56371428D01*
X65361904Y-56133333D01*
X65409523Y-55942857D01*
X65457142Y-55847619D01*
X65504761Y-55800000D01*
X65600000Y-55752380D01*
X68619047Y-53421428D02*
X69380952Y-53421428D01*
X69000000Y-53802380D02*
X69000000Y-53040476D01*
%TO.C,M17*%
X75214285Y-62902380D02*
X75214285Y-61902380D01*
X75547619Y-62616666D01*
X75880952Y-61902380D01*
X75880952Y-62902380D01*
X76880952Y-62902380D02*
X76309523Y-62902380D01*
X76595238Y-62902380D02*
X76595238Y-61902380D01*
X76500000Y-62045238D01*
X76404761Y-62140476D01*
X76309523Y-62188095D01*
X77214285Y-61902380D02*
X77880952Y-61902380D01*
X77452380Y-62902380D01*
X77819047Y-58721428D02*
X78580952Y-58721428D01*
X78200000Y-59102380D02*
X78200000Y-58340476D01*
%TO.C,M18*%
X77214285Y-52652380D02*
X77214285Y-51652380D01*
X77547619Y-52366666D01*
X77880952Y-51652380D01*
X77880952Y-52652380D01*
X78880952Y-52652380D02*
X78309523Y-52652380D01*
X78595238Y-52652380D02*
X78595238Y-51652380D01*
X78500000Y-51795238D01*
X78404761Y-51890476D01*
X78309523Y-51938095D01*
X79452380Y-52080952D02*
X79357142Y-52033333D01*
X79309523Y-51985714D01*
X79261904Y-51890476D01*
X79261904Y-51842857D01*
X79309523Y-51747619D01*
X79357142Y-51700000D01*
X79452380Y-51652380D01*
X79642857Y-51652380D01*
X79738095Y-51700000D01*
X79785714Y-51747619D01*
X79833333Y-51842857D01*
X79833333Y-51890476D01*
X79785714Y-51985714D01*
X79738095Y-52033333D01*
X79642857Y-52080952D01*
X79452380Y-52080952D01*
X79357142Y-52128571D01*
X79309523Y-52176190D01*
X79261904Y-52271428D01*
X79261904Y-52461904D01*
X79309523Y-52557142D01*
X79357142Y-52604761D01*
X79452380Y-52652380D01*
X79642857Y-52652380D01*
X79738095Y-52604761D01*
X79785714Y-52557142D01*
X79833333Y-52461904D01*
X79833333Y-52271428D01*
X79785714Y-52176190D01*
X79738095Y-52128571D01*
X79642857Y-52080952D01*
X77819047Y-48071428D02*
X78580952Y-48071428D01*
X78200000Y-48452380D02*
X78200000Y-47690476D01*
D12*
%TO.C,M15*%
X96170000Y-59980000D02*
G75*
G03*
X96170000Y-59980000I-1270000J0D01*
G01*
%TO.C,M6*%
X96170000Y-70630000D02*
G75*
G03*
X96170000Y-70630000I-1270000J0D01*
G01*
%TO.C,M7*%
X86970000Y-75980000D02*
G75*
G03*
X86970000Y-75980000I-1270000J0D01*
G01*
%TO.C,M11*%
X68570000Y-44030000D02*
G75*
G03*
X68570000Y-44030000I-1270000J0D01*
G01*
%TO.C,M12*%
X77720000Y-38680000D02*
G75*
G03*
X77720000Y-38680000I-1270000J0D01*
G01*
%TO.C,M9*%
X68570000Y-65330000D02*
G75*
G03*
X68570000Y-65330000I-1270000J0D01*
G01*
%TO.C,M19*%
X86970000Y-54680000D02*
G75*
G03*
X86970000Y-54680000I-1270000J0D01*
G01*
%TO.C,M5*%
X105370000Y-65330000D02*
G75*
G03*
X105370000Y-65330000I-1270000J0D01*
G01*
%TO.C,M1*%
X86970000Y-33380000D02*
G75*
G03*
X86970000Y-33380000I-1270000J0D01*
G01*
%TO.C,M14*%
X96170000Y-49330000D02*
G75*
G03*
X96170000Y-49330000I-1270000J0D01*
G01*
%TO.C,M8*%
X77770000Y-70630000D02*
G75*
G03*
X77770000Y-70630000I-1270000J0D01*
G01*
%TO.C,M16*%
X86970000Y-65330000D02*
G75*
G03*
X86970000Y-65330000I-1270000J0D01*
G01*
%TO.C,M13*%
X86970000Y-44030000D02*
G75*
G03*
X86970000Y-44030000I-1270000J0D01*
G01*
%TO.C,M4*%
X105370000Y-54680000D02*
G75*
G03*
X105370000Y-54680000I-1270000J0D01*
G01*
%TO.C,M3*%
X105370000Y-44030000D02*
G75*
G03*
X105370000Y-44030000I-1270000J0D01*
G01*
%TO.C,M2*%
X96120000Y-38680000D02*
G75*
G03*
X96120000Y-38680000I-1270000J0D01*
G01*
%TO.C,M10*%
X68570000Y-54680000D02*
G75*
G03*
X68570000Y-54680000I-1270000J0D01*
G01*
%TO.C,M17*%
X77770000Y-59980000D02*
G75*
G03*
X77770000Y-59980000I-1270000J0D01*
G01*
%TO.C,M18*%
X77770000Y-49330000D02*
G75*
G03*
X77770000Y-49330000I-1270000J0D01*
G01*
%TD*%
M02*
