%TF.GenerationSoftware,KiCad,Pcbnew,(6.0.4-0)*%
%TF.CreationDate,2022-04-19T08:43:48+02:00*%
%TF.ProjectId,speaker,73706561-6b65-4722-9e6b-696361645f70,rev?*%
%TF.SameCoordinates,Original*%
%TF.FileFunction,Copper,L1,Top*%
%TF.FilePolarity,Positive*%
%FSLAX46Y46*%
G04 Gerber Fmt 4.6, Leading zero omitted, Abs format (unit mm)*
G04 Created by KiCad (PCBNEW (6.0.4-0)) date 2022-04-19 08:43:48*
%MOMM*%
%LPD*%
G01*
G04 APERTURE LIST*
G04 Aperture macros list*
%AMRoundRect*
0 Rectangle with rounded corners*
0 $1 Rounding radius*
0 $2 $3 $4 $5 $6 $7 $8 $9 X,Y pos of 4 corners*
0 Add a 4 corners polygon primitive as box body*
4,1,4,$2,$3,$4,$5,$6,$7,$8,$9,$2,$3,0*
0 Add four circle primitives for the rounded corners*
1,1,$1+$1,$2,$3*
1,1,$1+$1,$4,$5*
1,1,$1+$1,$6,$7*
1,1,$1+$1,$8,$9*
0 Add four rect primitives between the rounded corners*
20,1,$1+$1,$2,$3,$4,$5,0*
20,1,$1+$1,$4,$5,$6,$7,0*
20,1,$1+$1,$6,$7,$8,$9,0*
20,1,$1+$1,$8,$9,$2,$3,0*%
G04 Aperture macros list end*
%TA.AperFunction,Profile*%
%ADD10C,0.088304*%
%TD*%
%TA.AperFunction,ComponentPad*%
%ADD11C,2.000000*%
%TD*%
%TA.AperFunction,ComponentPad*%
%ADD12RoundRect,0.250000X0.625000X-0.350000X0.625000X0.350000X-0.625000X0.350000X-0.625000X-0.350000X0*%
%TD*%
%TA.AperFunction,ComponentPad*%
%ADD13O,1.750000X1.200000*%
%TD*%
%TA.AperFunction,ViaPad*%
%ADD14C,0.685800*%
%TD*%
%TA.AperFunction,Conductor*%
%ADD15C,0.254000*%
%TD*%
%TA.AperFunction,Conductor*%
%ADD16C,0.762000*%
%TD*%
G04 APERTURE END LIST*
D10*
X57987239Y-73149866D02*
X85700040Y-89150019D01*
X85700040Y-25149982D02*
X57987239Y-41149998D01*
X85700040Y-25149982D02*
X85700040Y-25149982D01*
X57987239Y-73149866D02*
X57987239Y-73149866D01*
X85700040Y-89150019D02*
X113412761Y-73149866D01*
X57987239Y-41149998D02*
X57987239Y-41149998D01*
X113412761Y-41149998D02*
X85700040Y-25149982D01*
X113412761Y-41149998D02*
X113412761Y-41149998D01*
X57987239Y-41149998D02*
X57987239Y-73149866D01*
X113412761Y-73149866D02*
X113412761Y-41149998D01*
X113412761Y-73149866D02*
X113412761Y-73149866D01*
D11*
%TO.P,M15,1*%
%TO.N,/Trancducer Sig*%
X95200000Y-60150000D03*
%TO.P,M15,2*%
%TO.N,GND*%
X95200000Y-65150000D03*
%TD*%
%TO.P,M6,1*%
%TO.N,/Trancducer Sig*%
X95200000Y-71150000D03*
%TO.P,M6,2*%
%TO.N,GND*%
X95200000Y-76150000D03*
%TD*%
%TO.P,M7,1*%
%TO.N,/Trancducer Sig*%
X85700000Y-76650000D03*
%TO.P,M7,2*%
%TO.N,GND*%
X85700000Y-81650000D03*
%TD*%
%TO.P,M11,1*%
%TO.N,/Trancducer Sig*%
X66700000Y-43650000D03*
%TO.P,M11,2*%
%TO.N,GND*%
X66700000Y-48650000D03*
%TD*%
%TO.P,M12,1*%
%TO.N,/Trancducer Sig*%
X76200000Y-38150000D03*
%TO.P,M12,2*%
%TO.N,GND*%
X76200000Y-43150000D03*
%TD*%
%TO.P,M9,1*%
%TO.N,/Trancducer Sig*%
X66700000Y-65650000D03*
%TO.P,M9,2*%
%TO.N,GND*%
X66700000Y-70650000D03*
%TD*%
%TO.P,M19,1*%
%TO.N,/Trancducer Sig*%
X85700000Y-54650000D03*
%TO.P,M19,2*%
%TO.N,GND*%
X85700000Y-59650000D03*
%TD*%
%TO.P,M5,1*%
%TO.N,/Trancducer Sig*%
X104700000Y-65650000D03*
%TO.P,M5,2*%
%TO.N,GND*%
X104700000Y-70650000D03*
%TD*%
%TO.P,M1,1*%
%TO.N,/Trancducer Sig*%
X85700000Y-32650000D03*
%TO.P,M1,2*%
%TO.N,GND*%
X85700000Y-37650000D03*
%TD*%
%TO.P,M14,1*%
%TO.N,/Trancducer Sig*%
X95200000Y-49150000D03*
%TO.P,M14,2*%
%TO.N,GND*%
X95200000Y-54150000D03*
%TD*%
%TO.P,M8,1*%
%TO.N,/Trancducer Sig*%
X76200000Y-71150000D03*
%TO.P,M8,2*%
%TO.N,GND*%
X76200000Y-76150000D03*
%TD*%
%TO.P,M16,1*%
%TO.N,/Trancducer Sig*%
X85700000Y-65650000D03*
%TO.P,M16,2*%
%TO.N,GND*%
X85700000Y-70650000D03*
%TD*%
%TO.P,M13,1*%
%TO.N,/Trancducer Sig*%
X85700000Y-43650000D03*
%TO.P,M13,2*%
%TO.N,GND*%
X85700000Y-48650000D03*
%TD*%
%TO.P,M4,1*%
%TO.N,/Trancducer Sig*%
X104700000Y-54650000D03*
%TO.P,M4,2*%
%TO.N,GND*%
X104700000Y-59650000D03*
%TD*%
%TO.P,M3,1*%
%TO.N,/Trancducer Sig*%
X104700000Y-43650000D03*
%TO.P,M3,2*%
%TO.N,GND*%
X104700000Y-48650000D03*
%TD*%
%TO.P,M2,1*%
%TO.N,/Trancducer Sig*%
X95200000Y-38150000D03*
%TO.P,M2,2*%
%TO.N,GND*%
X95200000Y-43150000D03*
%TD*%
%TO.P,M10,1*%
%TO.N,/Trancducer Sig*%
X66700000Y-54650000D03*
%TO.P,M10,2*%
%TO.N,GND*%
X66700000Y-59650000D03*
%TD*%
%TO.P,M17,1*%
%TO.N,/Trancducer Sig*%
X76200000Y-60150000D03*
%TO.P,M17,2*%
%TO.N,GND*%
X76200000Y-65150000D03*
%TD*%
%TO.P,M18,1*%
%TO.N,/Trancducer Sig*%
X76200000Y-49150000D03*
%TO.P,M18,2*%
%TO.N,GND*%
X76200000Y-54150000D03*
%TD*%
%TO.P,TP1,1,1*%
%TO.N,+24V*%
X82800000Y-33950000D03*
%TD*%
%TO.P,TP2,1,1*%
%TO.N,/Trancducer Sig*%
X73950000Y-51400000D03*
%TD*%
%TO.P,TP3,1,1*%
%TO.N,/Audio Sig*%
X89200000Y-67950000D03*
%TD*%
D12*
%TO.P,J7,1,Pin_1*%
%TO.N,GND*%
X111000000Y-65550000D03*
D13*
%TO.P,J7,2,Pin_2*%
%TO.N,+5V*%
X111000000Y-63550000D03*
%TD*%
D14*
%TO.N,+5V*%
X93000000Y-40450000D03*
X95250000Y-51950000D03*
X96150000Y-51950000D03*
X94350000Y-51950000D03*
X94800000Y-40450000D03*
X80600000Y-83700000D03*
X94800000Y-41350000D03*
X93900000Y-41350000D03*
X93900000Y-40450000D03*
X93100000Y-32200000D03*
X93000000Y-41350000D03*
X94350000Y-51050000D03*
X95700000Y-41350000D03*
X95700000Y-40450000D03*
X95250000Y-51050000D03*
X90000000Y-75300000D03*
X78987500Y-70162500D03*
%TO.N,GND*%
X85300000Y-39650000D03*
X83800000Y-51300000D03*
X90000000Y-71200000D03*
X73050000Y-36100002D03*
X73050002Y-34400000D03*
X86300000Y-40850000D03*
X86750000Y-63050000D03*
X75250000Y-68700000D03*
X98100000Y-44500000D03*
X73050000Y-33500000D03*
X74650000Y-55650000D03*
X85300000Y-40850000D03*
X72500000Y-66150000D03*
X79000000Y-75250000D03*
X92150000Y-56300000D03*
X86300000Y-39650000D03*
X77100000Y-50850000D03*
X73049998Y-35200001D03*
%TO.N,+24V*%
X83800000Y-29650000D03*
X81400000Y-55899998D03*
X80800000Y-30650000D03*
X78700002Y-55900000D03*
X80800000Y-29650000D03*
X79600000Y-56799998D03*
X82800000Y-30650000D03*
X82800000Y-29650000D03*
X79800000Y-30650000D03*
X79800000Y-29650000D03*
X79800000Y-65150000D03*
X79600002Y-55899997D03*
X81800000Y-30650000D03*
X80500001Y-56800000D03*
X81800000Y-29650000D03*
X83800000Y-30650000D03*
X80500001Y-55900000D03*
X81400002Y-56799998D03*
X78700000Y-56800000D03*
%TO.N,Net-(JP2-Pad2)*%
X86250000Y-72700000D03*
X93150000Y-72700000D03*
%TO.N,/SCL*%
X70600000Y-40250000D03*
X81550000Y-76950000D03*
X81550000Y-79400000D03*
X70600000Y-45750000D03*
X99600000Y-76750000D03*
X101600000Y-70400000D03*
X97000000Y-79350000D03*
%TO.N,/SDA*%
X68400000Y-55700000D03*
X104750000Y-56650000D03*
X70700000Y-70350000D03*
X66450000Y-57650000D03*
X79300000Y-80500000D03*
X79300000Y-78150000D03*
X70700000Y-58000000D03*
X70700000Y-74050000D03*
X100450000Y-56650000D03*
%TD*%
D15*
%TO.N,Net-(JP2-Pad2)*%
X86250000Y-72700000D02*
X93150000Y-72700000D01*
D16*
%TO.N,/Trancducer Sig*%
X95200000Y-60150000D02*
X91200000Y-60150000D01*
X91200000Y-38150000D02*
X95200000Y-38150000D01*
X85700000Y-32650000D02*
X91200000Y-38150000D01*
X76200000Y-38150000D02*
X70700000Y-43650000D01*
X85700000Y-54650000D02*
X80200000Y-49150000D01*
X100700000Y-43650000D02*
X95200000Y-49150000D01*
X104700000Y-65650000D02*
X100700000Y-65650000D01*
X91200000Y-60150000D02*
X85700000Y-65650000D01*
X100700000Y-54650000D02*
X95200000Y-49150000D01*
X70700000Y-54650000D02*
X76200000Y-60150000D01*
X100700000Y-54650000D02*
X95200000Y-60150000D01*
X70700000Y-43650000D02*
X76200000Y-49150000D01*
X70700000Y-65650000D02*
X76200000Y-60150000D01*
X85700000Y-43650000D02*
X91200000Y-38150000D01*
X76200000Y-49150000D02*
X80200000Y-49150000D01*
X80200000Y-71150000D02*
X76200000Y-71150000D01*
X104700000Y-54650000D02*
X100700000Y-54650000D01*
X66700000Y-43650000D02*
X70700000Y-43650000D01*
X80200000Y-49150000D02*
X85700000Y-43650000D01*
X100700000Y-65650000D02*
X95200000Y-71150000D01*
X85700000Y-76650000D02*
X80200000Y-71150000D01*
X66700000Y-65650000D02*
X70700000Y-65650000D01*
X91200000Y-60150000D02*
X85700000Y-54650000D01*
X70700000Y-54650000D02*
X76200000Y-49150000D01*
X85700000Y-65650000D02*
X80200000Y-71150000D01*
X104700000Y-43650000D02*
X100700000Y-43650000D01*
X66700000Y-54650000D02*
X70700000Y-54650000D01*
X100700000Y-65650000D02*
X95200000Y-60150000D01*
D15*
%TO.N,/SCL*%
X101600000Y-74750000D02*
X101600000Y-70400000D01*
X81550000Y-79400000D02*
X81550000Y-76950000D01*
X97000000Y-79350000D02*
X99600000Y-76750000D01*
X99600000Y-76750000D02*
X101600000Y-74750000D01*
%TO.N,/SDA*%
X66450000Y-57650000D02*
X68400000Y-55700000D01*
X70700000Y-74050000D02*
X70700000Y-70350000D01*
X79300000Y-80500000D02*
X79300000Y-78150000D01*
X104750000Y-56650000D02*
X100450000Y-56650000D01*
X70700000Y-58000000D02*
X68400000Y-55700000D01*
%TD*%
%TA.AperFunction,Conductor*%
%TO.N,GND*%
G36*
X85700041Y-25649984D02*
G01*
X86277304Y-25649984D01*
X86340303Y-25666865D01*
X108454970Y-38434828D01*
X112644999Y-40853953D01*
X112691118Y-40900072D01*
X113268380Y-41899922D01*
X113285261Y-41962922D01*
X113285261Y-72336943D01*
X113268380Y-72399943D01*
X112691119Y-73399794D01*
X112645001Y-73445913D01*
X86340304Y-88633133D01*
X86277303Y-88650014D01*
X85700036Y-88650015D01*
X85122773Y-88650015D01*
X85059775Y-88633134D01*
X76505366Y-83694194D01*
X80124798Y-83694194D01*
X80125962Y-83703095D01*
X80125962Y-83703099D01*
X80141106Y-83818902D01*
X80142270Y-83827801D01*
X80196537Y-83951133D01*
X80283239Y-84054278D01*
X80395405Y-84128942D01*
X80524019Y-84169124D01*
X80658740Y-84171593D01*
X80712494Y-84156938D01*
X80780080Y-84138512D01*
X80780082Y-84138511D01*
X80788739Y-84136151D01*
X80903566Y-84065647D01*
X80993989Y-83965749D01*
X81001071Y-83951133D01*
X81048826Y-83852567D01*
X81048827Y-83852565D01*
X81052740Y-83844488D01*
X81075095Y-83711611D01*
X81075237Y-83700000D01*
X81056135Y-83566617D01*
X81000365Y-83443956D01*
X80990370Y-83432356D01*
X80918269Y-83348679D01*
X80918266Y-83348677D01*
X80912409Y-83341879D01*
X80799339Y-83268591D01*
X80783052Y-83263720D01*
X80678846Y-83232555D01*
X80678844Y-83232555D01*
X80670245Y-83229983D01*
X80661270Y-83229928D01*
X80661269Y-83229928D01*
X80602874Y-83229571D01*
X80535503Y-83229160D01*
X80526871Y-83231627D01*
X80414577Y-83263720D01*
X80414575Y-83263721D01*
X80405946Y-83266187D01*
X80291989Y-83338089D01*
X80202793Y-83439084D01*
X80145529Y-83561054D01*
X80124798Y-83694194D01*
X76505366Y-83694194D01*
X75099779Y-82882670D01*
X84832160Y-82882670D01*
X84837887Y-82890320D01*
X85009042Y-82995205D01*
X85017837Y-82999687D01*
X85227988Y-83086734D01*
X85237373Y-83089783D01*
X85458554Y-83142885D01*
X85468301Y-83144428D01*
X85695070Y-83162275D01*
X85704930Y-83162275D01*
X85931699Y-83144428D01*
X85941446Y-83142885D01*
X86162627Y-83089783D01*
X86172012Y-83086734D01*
X86382163Y-82999687D01*
X86390958Y-82995205D01*
X86558445Y-82892568D01*
X86567907Y-82882110D01*
X86564124Y-82873334D01*
X85712812Y-82022022D01*
X85698868Y-82014408D01*
X85697035Y-82014539D01*
X85690420Y-82018790D01*
X84838920Y-82870290D01*
X84832160Y-82882670D01*
X75099779Y-82882670D01*
X72973293Y-81654930D01*
X84187725Y-81654930D01*
X84205572Y-81881699D01*
X84207115Y-81891446D01*
X84260217Y-82112627D01*
X84263266Y-82122012D01*
X84350313Y-82332163D01*
X84354795Y-82340958D01*
X84457432Y-82508445D01*
X84467890Y-82517907D01*
X84476666Y-82514124D01*
X85327978Y-81662812D01*
X85334356Y-81651132D01*
X86064408Y-81651132D01*
X86064539Y-81652965D01*
X86068790Y-81659580D01*
X86920290Y-82511080D01*
X86932670Y-82517840D01*
X86940320Y-82512113D01*
X87045205Y-82340958D01*
X87049687Y-82332163D01*
X87136734Y-82122012D01*
X87139783Y-82112627D01*
X87192885Y-81891446D01*
X87194428Y-81881699D01*
X87212275Y-81654930D01*
X87212275Y-81645070D01*
X87194428Y-81418301D01*
X87192885Y-81408554D01*
X87139783Y-81187373D01*
X87136734Y-81177988D01*
X87049687Y-80967837D01*
X87045205Y-80959042D01*
X86942568Y-80791555D01*
X86932110Y-80782093D01*
X86923334Y-80785876D01*
X86072022Y-81637188D01*
X86064408Y-81651132D01*
X85334356Y-81651132D01*
X85335592Y-81648868D01*
X85335461Y-81647035D01*
X85331210Y-81640420D01*
X84479710Y-80788920D01*
X84467330Y-80782160D01*
X84459680Y-80787887D01*
X84354795Y-80959042D01*
X84350313Y-80967837D01*
X84263266Y-81177988D01*
X84260217Y-81187373D01*
X84207115Y-81408554D01*
X84205572Y-81418301D01*
X84187725Y-81645070D01*
X84187725Y-81654930D01*
X72973293Y-81654930D01*
X70962859Y-80494194D01*
X78824798Y-80494194D01*
X78825962Y-80503095D01*
X78825962Y-80503099D01*
X78841106Y-80618902D01*
X78842270Y-80627801D01*
X78896537Y-80751133D01*
X78983239Y-80854278D01*
X79095405Y-80928942D01*
X79224019Y-80969124D01*
X79358740Y-80971593D01*
X79412494Y-80956938D01*
X79480080Y-80938512D01*
X79480082Y-80938511D01*
X79488739Y-80936151D01*
X79603566Y-80865647D01*
X79693989Y-80765749D01*
X79701071Y-80751133D01*
X79748826Y-80652567D01*
X79748827Y-80652565D01*
X79752740Y-80644488D01*
X79775095Y-80511611D01*
X79775237Y-80500000D01*
X79763478Y-80417890D01*
X84832093Y-80417890D01*
X84835876Y-80426666D01*
X85687188Y-81277978D01*
X85701132Y-81285592D01*
X85702965Y-81285461D01*
X85709580Y-81281210D01*
X86561080Y-80429710D01*
X86567840Y-80417330D01*
X86562113Y-80409680D01*
X86390958Y-80304795D01*
X86382163Y-80300313D01*
X86172012Y-80213266D01*
X86162627Y-80210217D01*
X85941446Y-80157115D01*
X85931699Y-80155572D01*
X85704930Y-80137725D01*
X85695070Y-80137725D01*
X85468301Y-80155572D01*
X85458554Y-80157115D01*
X85237373Y-80210217D01*
X85227988Y-80213266D01*
X85017837Y-80300313D01*
X85009042Y-80304795D01*
X84841555Y-80407432D01*
X84832093Y-80417890D01*
X79763478Y-80417890D01*
X79756135Y-80366617D01*
X79700365Y-80243956D01*
X79612409Y-80141879D01*
X79604875Y-80136995D01*
X79598112Y-80131096D01*
X79600554Y-80128297D01*
X79565724Y-80087847D01*
X79554500Y-80035861D01*
X79554500Y-79394194D01*
X81074798Y-79394194D01*
X81075962Y-79403095D01*
X81075962Y-79403099D01*
X81088970Y-79502567D01*
X81092270Y-79527801D01*
X81146537Y-79651133D01*
X81233239Y-79754278D01*
X81257373Y-79770343D01*
X81330656Y-79819124D01*
X81345405Y-79828942D01*
X81474019Y-79869124D01*
X81608740Y-79871593D01*
X81662494Y-79856938D01*
X81730080Y-79838512D01*
X81730082Y-79838511D01*
X81738739Y-79836151D01*
X81853566Y-79765647D01*
X81898824Y-79715647D01*
X81937961Y-79672409D01*
X81937962Y-79672408D01*
X81943989Y-79665749D01*
X81951071Y-79651133D01*
X81998826Y-79552567D01*
X81998827Y-79552565D01*
X82002740Y-79544488D01*
X82025095Y-79411611D01*
X82025237Y-79400000D01*
X82017245Y-79344194D01*
X96524798Y-79344194D01*
X96525962Y-79353095D01*
X96525962Y-79353099D01*
X96541106Y-79468902D01*
X96542270Y-79477801D01*
X96596537Y-79601133D01*
X96602315Y-79608006D01*
X96602315Y-79608007D01*
X96638566Y-79651133D01*
X96683239Y-79704278D01*
X96707373Y-79720343D01*
X96765435Y-79758992D01*
X96795405Y-79778942D01*
X96924019Y-79819124D01*
X97058740Y-79821593D01*
X97112494Y-79806938D01*
X97180080Y-79788512D01*
X97180082Y-79788511D01*
X97188739Y-79786151D01*
X97303566Y-79715647D01*
X97342703Y-79672409D01*
X97387961Y-79622409D01*
X97387962Y-79622408D01*
X97393989Y-79615749D01*
X97401071Y-79601133D01*
X97448826Y-79502567D01*
X97448827Y-79502565D01*
X97452740Y-79494488D01*
X97475095Y-79361611D01*
X97475237Y-79350000D01*
X97469725Y-79311514D01*
X97479869Y-79241248D01*
X97505358Y-79204560D01*
X99453527Y-77256391D01*
X99515839Y-77222365D01*
X99544929Y-77219507D01*
X99658740Y-77221593D01*
X99733786Y-77201133D01*
X99780080Y-77188512D01*
X99780082Y-77188511D01*
X99788739Y-77186151D01*
X99903566Y-77115647D01*
X99913116Y-77105096D01*
X99987961Y-77022409D01*
X99987962Y-77022408D01*
X99993989Y-77015749D01*
X100023491Y-76954859D01*
X100048826Y-76902567D01*
X100048827Y-76902565D01*
X100052740Y-76894488D01*
X100075095Y-76761611D01*
X100075237Y-76750000D01*
X100069725Y-76711514D01*
X100079869Y-76641248D01*
X100105358Y-76604560D01*
X101753458Y-74956460D01*
X101772550Y-74940790D01*
X101773171Y-74940375D01*
X101783484Y-74933484D01*
X101797681Y-74912237D01*
X101797684Y-74912234D01*
X101839734Y-74849301D01*
X101843730Y-74829215D01*
X101854500Y-74775067D01*
X101854500Y-74775063D01*
X101857064Y-74762172D01*
X101859485Y-74750000D01*
X101856921Y-74737109D01*
X101854500Y-74712529D01*
X101854500Y-71882670D01*
X103832160Y-71882670D01*
X103837887Y-71890320D01*
X104009042Y-71995205D01*
X104017837Y-71999687D01*
X104227988Y-72086734D01*
X104237373Y-72089783D01*
X104458554Y-72142885D01*
X104468301Y-72144428D01*
X104695070Y-72162275D01*
X104704930Y-72162275D01*
X104931699Y-72144428D01*
X104941446Y-72142885D01*
X105162627Y-72089783D01*
X105172012Y-72086734D01*
X105382163Y-71999687D01*
X105390958Y-71995205D01*
X105558445Y-71892568D01*
X105567907Y-71882110D01*
X105564124Y-71873334D01*
X104712812Y-71022022D01*
X104698868Y-71014408D01*
X104697035Y-71014539D01*
X104690420Y-71018790D01*
X103838920Y-71870290D01*
X103832160Y-71882670D01*
X101854500Y-71882670D01*
X101854500Y-70863885D01*
X101874502Y-70795764D01*
X101898296Y-70768883D01*
X101903566Y-70765647D01*
X101942898Y-70722194D01*
X101987961Y-70672409D01*
X101987962Y-70672408D01*
X101993989Y-70665749D01*
X101999231Y-70654930D01*
X103187725Y-70654930D01*
X103205572Y-70881699D01*
X103207115Y-70891446D01*
X103260217Y-71112627D01*
X103263266Y-71122012D01*
X103350313Y-71332163D01*
X103354795Y-71340958D01*
X103457432Y-71508445D01*
X103467890Y-71517907D01*
X103476666Y-71514124D01*
X104327978Y-70662812D01*
X104334356Y-70651132D01*
X105064408Y-70651132D01*
X105064539Y-70652965D01*
X105068790Y-70659580D01*
X105920290Y-71511080D01*
X105932670Y-71517840D01*
X105940320Y-71512113D01*
X106045205Y-71340958D01*
X106049687Y-71332163D01*
X106136734Y-71122012D01*
X106139783Y-71112627D01*
X106192885Y-70891446D01*
X106194428Y-70881699D01*
X106212275Y-70654930D01*
X106212275Y-70645070D01*
X106194428Y-70418301D01*
X106192885Y-70408554D01*
X106139783Y-70187373D01*
X106136734Y-70177988D01*
X106049687Y-69967837D01*
X106045205Y-69959042D01*
X105942568Y-69791555D01*
X105932110Y-69782093D01*
X105923334Y-69785876D01*
X105072022Y-70637188D01*
X105064408Y-70651132D01*
X104334356Y-70651132D01*
X104335592Y-70648868D01*
X104335461Y-70647035D01*
X104331210Y-70640420D01*
X103479710Y-69788920D01*
X103467330Y-69782160D01*
X103459680Y-69787887D01*
X103354795Y-69959042D01*
X103350313Y-69967837D01*
X103263266Y-70177988D01*
X103260217Y-70187373D01*
X103207115Y-70408554D01*
X103205572Y-70418301D01*
X103187725Y-70645070D01*
X103187725Y-70654930D01*
X101999231Y-70654930D01*
X102001071Y-70651133D01*
X102048826Y-70552567D01*
X102048827Y-70552565D01*
X102052740Y-70544488D01*
X102073656Y-70420165D01*
X102074288Y-70416408D01*
X102075095Y-70411611D01*
X102075237Y-70400000D01*
X102061917Y-70306988D01*
X102057408Y-70275503D01*
X102057407Y-70275500D01*
X102056135Y-70266617D01*
X102049336Y-70251662D01*
X102020105Y-70187373D01*
X102000365Y-70143956D01*
X101947287Y-70082356D01*
X101918269Y-70048679D01*
X101918266Y-70048677D01*
X101912409Y-70041879D01*
X101845759Y-69998679D01*
X101806873Y-69973474D01*
X101806872Y-69973473D01*
X101799339Y-69968591D01*
X101767410Y-69959042D01*
X101678846Y-69932555D01*
X101678844Y-69932555D01*
X101670245Y-69929983D01*
X101661270Y-69929928D01*
X101661269Y-69929928D01*
X101602874Y-69929571D01*
X101535503Y-69929160D01*
X101526871Y-69931627D01*
X101414577Y-69963720D01*
X101414575Y-69963721D01*
X101405946Y-69966187D01*
X101398355Y-69970976D01*
X101398354Y-69970977D01*
X101300967Y-70032424D01*
X101291989Y-70038089D01*
X101286047Y-70044818D01*
X101286046Y-70044818D01*
X101268840Y-70064300D01*
X101202793Y-70139084D01*
X101198979Y-70147207D01*
X101198978Y-70147209D01*
X101166392Y-70216617D01*
X101145529Y-70261054D01*
X101144148Y-70269924D01*
X101128479Y-70370555D01*
X101124798Y-70394194D01*
X101125962Y-70403095D01*
X101125962Y-70403099D01*
X101141106Y-70518902D01*
X101142270Y-70527801D01*
X101196537Y-70651133D01*
X101283239Y-70754278D01*
X101290712Y-70759252D01*
X101297405Y-70765237D01*
X101296223Y-70766559D01*
X101334939Y-70812715D01*
X101345500Y-70863212D01*
X101345500Y-74592392D01*
X101325498Y-74660513D01*
X101308595Y-74681487D01*
X99747082Y-76243000D01*
X99684770Y-76277026D01*
X99657218Y-76279903D01*
X99576992Y-76279413D01*
X99535503Y-76279160D01*
X99526871Y-76281627D01*
X99414577Y-76313720D01*
X99414575Y-76313721D01*
X99405946Y-76316187D01*
X99291989Y-76388089D01*
X99286047Y-76394818D01*
X99286046Y-76394818D01*
X99247831Y-76438088D01*
X99202793Y-76489084D01*
X99198979Y-76497207D01*
X99198978Y-76497209D01*
X99153152Y-76594818D01*
X99145529Y-76611054D01*
X99144148Y-76619924D01*
X99130815Y-76705554D01*
X99124798Y-76744194D01*
X99130754Y-76789735D01*
X99119755Y-76859874D01*
X99094913Y-76895169D01*
X97147082Y-78843000D01*
X97084770Y-78877026D01*
X97057218Y-78879903D01*
X96976992Y-78879413D01*
X96935503Y-78879160D01*
X96926871Y-78881627D01*
X96814577Y-78913720D01*
X96814575Y-78913721D01*
X96805946Y-78916187D01*
X96798355Y-78920976D01*
X96798354Y-78920977D01*
X96699582Y-78983298D01*
X96691989Y-78988089D01*
X96602793Y-79089084D01*
X96545529Y-79211054D01*
X96524798Y-79344194D01*
X82017245Y-79344194D01*
X82006135Y-79266617D01*
X81950365Y-79143956D01*
X81862409Y-79041879D01*
X81854875Y-79036995D01*
X81848112Y-79031096D01*
X81850554Y-79028297D01*
X81815724Y-78987847D01*
X81804500Y-78935861D01*
X81804500Y-77413885D01*
X81824502Y-77345764D01*
X81848296Y-77318883D01*
X81853566Y-77315647D01*
X81870077Y-77297406D01*
X81937961Y-77222409D01*
X81937962Y-77222408D01*
X81943989Y-77215749D01*
X81951071Y-77201133D01*
X81998826Y-77102567D01*
X81998827Y-77102565D01*
X82002740Y-77094488D01*
X82025095Y-76961611D01*
X82025237Y-76950000D01*
X82008444Y-76832737D01*
X82007408Y-76825503D01*
X82007407Y-76825500D01*
X82006135Y-76816617D01*
X81950365Y-76693956D01*
X81940370Y-76682356D01*
X81868269Y-76598679D01*
X81868266Y-76598677D01*
X81862409Y-76591879D01*
X81749339Y-76518591D01*
X81677844Y-76497209D01*
X81628846Y-76482555D01*
X81628844Y-76482555D01*
X81620245Y-76479983D01*
X81611270Y-76479928D01*
X81611269Y-76479928D01*
X81552874Y-76479572D01*
X81485503Y-76479160D01*
X81476871Y-76481627D01*
X81364577Y-76513720D01*
X81364575Y-76513721D01*
X81355946Y-76516187D01*
X81241989Y-76588089D01*
X81152793Y-76689084D01*
X81148979Y-76697207D01*
X81148978Y-76697209D01*
X81126919Y-76744194D01*
X81095529Y-76811054D01*
X81094148Y-76819924D01*
X81078595Y-76919811D01*
X81074798Y-76944194D01*
X81075962Y-76953095D01*
X81075962Y-76953099D01*
X81086441Y-77033227D01*
X81092270Y-77077801D01*
X81106684Y-77110560D01*
X81137879Y-77181455D01*
X81146537Y-77201133D01*
X81233239Y-77304278D01*
X81240712Y-77309252D01*
X81247405Y-77315237D01*
X81246223Y-77316559D01*
X81284939Y-77362715D01*
X81295500Y-77413212D01*
X81295500Y-78935998D01*
X81275498Y-79004119D01*
X81251164Y-79031951D01*
X81249579Y-79033300D01*
X81241989Y-79038089D01*
X81152793Y-79139084D01*
X81148979Y-79147207D01*
X81148978Y-79147209D01*
X81114839Y-79219924D01*
X81095529Y-79261054D01*
X81094148Y-79269924D01*
X81079125Y-79366408D01*
X81074798Y-79394194D01*
X79554500Y-79394194D01*
X79554500Y-78613885D01*
X79574502Y-78545764D01*
X79598296Y-78518883D01*
X79603566Y-78515647D01*
X79693989Y-78415749D01*
X79701071Y-78401133D01*
X79748826Y-78302567D01*
X79748827Y-78302565D01*
X79752740Y-78294488D01*
X79775095Y-78161611D01*
X79775237Y-78150000D01*
X79756135Y-78016617D01*
X79700365Y-77893956D01*
X79690370Y-77882356D01*
X79618269Y-77798679D01*
X79618266Y-77798677D01*
X79612409Y-77791879D01*
X79549408Y-77751044D01*
X79506873Y-77723474D01*
X79506872Y-77723473D01*
X79499339Y-77718591D01*
X79483052Y-77713720D01*
X79378846Y-77682555D01*
X79378844Y-77682555D01*
X79370245Y-77679983D01*
X79361270Y-77679928D01*
X79361269Y-77679928D01*
X79302874Y-77679571D01*
X79235503Y-77679160D01*
X79226871Y-77681627D01*
X79114577Y-77713720D01*
X79114575Y-77713721D01*
X79105946Y-77716187D01*
X79098355Y-77720976D01*
X79098354Y-77720977D01*
X79088951Y-77726910D01*
X78991989Y-77788089D01*
X78902793Y-77889084D01*
X78845529Y-78011054D01*
X78824798Y-78144194D01*
X78825962Y-78153095D01*
X78825962Y-78153099D01*
X78841106Y-78268902D01*
X78842270Y-78277801D01*
X78896537Y-78401133D01*
X78983239Y-78504278D01*
X78990712Y-78509252D01*
X78997405Y-78515237D01*
X78996223Y-78516559D01*
X79034939Y-78562715D01*
X79045500Y-78613212D01*
X79045500Y-80035998D01*
X79025498Y-80104119D01*
X79001164Y-80131951D01*
X78999579Y-80133300D01*
X78991989Y-80138089D01*
X78902793Y-80239084D01*
X78845529Y-80361054D01*
X78844148Y-80369924D01*
X78837958Y-80409680D01*
X78824798Y-80494194D01*
X70962859Y-80494194D01*
X65573596Y-77382670D01*
X75332160Y-77382670D01*
X75337887Y-77390320D01*
X75509042Y-77495205D01*
X75517837Y-77499687D01*
X75727988Y-77586734D01*
X75737373Y-77589783D01*
X75958554Y-77642885D01*
X75968301Y-77644428D01*
X76195070Y-77662275D01*
X76204930Y-77662275D01*
X76431699Y-77644428D01*
X76441446Y-77642885D01*
X76662627Y-77589783D01*
X76672012Y-77586734D01*
X76882163Y-77499687D01*
X76890958Y-77495205D01*
X77058445Y-77392568D01*
X77067907Y-77382110D01*
X77064124Y-77373334D01*
X76212812Y-76522022D01*
X76198868Y-76514408D01*
X76197035Y-76514539D01*
X76190420Y-76518790D01*
X75338920Y-77370290D01*
X75332160Y-77382670D01*
X65573596Y-77382670D01*
X64601400Y-76821367D01*
X63447109Y-76154930D01*
X74687725Y-76154930D01*
X74705572Y-76381699D01*
X74707115Y-76391446D01*
X74760217Y-76612627D01*
X74763266Y-76622012D01*
X74850313Y-76832163D01*
X74854795Y-76840958D01*
X74957432Y-77008445D01*
X74967890Y-77017907D01*
X74976666Y-77014124D01*
X75827978Y-76162812D01*
X75834356Y-76151132D01*
X76564408Y-76151132D01*
X76564539Y-76152965D01*
X76568790Y-76159580D01*
X77420290Y-77011080D01*
X77432670Y-77017840D01*
X77440320Y-77012113D01*
X77545205Y-76840958D01*
X77549687Y-76832163D01*
X77636734Y-76622012D01*
X77639783Y-76612627D01*
X77692885Y-76391446D01*
X77694428Y-76381699D01*
X77712275Y-76154930D01*
X77712275Y-76145070D01*
X77694428Y-75918301D01*
X77692885Y-75908554D01*
X77639783Y-75687373D01*
X77636734Y-75677988D01*
X77549687Y-75467837D01*
X77545205Y-75459042D01*
X77442568Y-75291555D01*
X77432110Y-75282093D01*
X77423334Y-75285876D01*
X76572022Y-76137188D01*
X76564408Y-76151132D01*
X75834356Y-76151132D01*
X75835592Y-76148868D01*
X75835461Y-76147035D01*
X75831210Y-76140420D01*
X74979710Y-75288920D01*
X74967330Y-75282160D01*
X74959680Y-75287887D01*
X74854795Y-75459042D01*
X74850313Y-75467837D01*
X74763266Y-75677988D01*
X74760217Y-75687373D01*
X74707115Y-75908554D01*
X74705572Y-75918301D01*
X74687725Y-76145070D01*
X74687725Y-76154930D01*
X63447109Y-76154930D01*
X61304515Y-74917890D01*
X75332093Y-74917890D01*
X75335876Y-74926666D01*
X76187188Y-75777978D01*
X76201132Y-75785592D01*
X76202965Y-75785461D01*
X76209580Y-75781210D01*
X77061080Y-74929710D01*
X77067840Y-74917330D01*
X77062113Y-74909680D01*
X76890958Y-74804795D01*
X76882163Y-74800313D01*
X76672012Y-74713266D01*
X76662627Y-74710217D01*
X76441446Y-74657115D01*
X76431699Y-74655572D01*
X76204930Y-74637725D01*
X76195070Y-74637725D01*
X75968301Y-74655572D01*
X75958554Y-74657115D01*
X75737373Y-74710217D01*
X75727988Y-74713266D01*
X75517837Y-74800313D01*
X75509042Y-74804795D01*
X75341555Y-74907432D01*
X75332093Y-74917890D01*
X61304515Y-74917890D01*
X59791244Y-74044194D01*
X70224798Y-74044194D01*
X70225962Y-74053095D01*
X70225962Y-74053099D01*
X70241106Y-74168902D01*
X70242270Y-74177801D01*
X70296537Y-74301133D01*
X70383239Y-74404278D01*
X70495405Y-74478942D01*
X70624019Y-74519124D01*
X70758740Y-74521593D01*
X70812494Y-74506938D01*
X70880080Y-74488512D01*
X70880082Y-74488511D01*
X70888739Y-74486151D01*
X71003566Y-74415647D01*
X71093989Y-74315749D01*
X71101071Y-74301133D01*
X71148826Y-74202567D01*
X71148827Y-74202565D01*
X71152740Y-74194488D01*
X71175095Y-74061611D01*
X71175237Y-74050000D01*
X71156135Y-73916617D01*
X71100365Y-73793956D01*
X71012409Y-73691879D01*
X71004875Y-73686995D01*
X70998112Y-73681096D01*
X71000554Y-73678297D01*
X70965724Y-73637847D01*
X70954500Y-73585861D01*
X70954500Y-70813885D01*
X70974502Y-70745764D01*
X70998296Y-70718883D01*
X71003566Y-70715647D01*
X71042703Y-70672409D01*
X71087961Y-70622409D01*
X71087962Y-70622408D01*
X71093989Y-70615749D01*
X71101071Y-70601133D01*
X71148826Y-70502567D01*
X71148827Y-70502565D01*
X71152740Y-70494488D01*
X71175095Y-70361611D01*
X71175237Y-70350000D01*
X71165413Y-70281402D01*
X71157408Y-70225503D01*
X71157407Y-70225500D01*
X71156135Y-70216617D01*
X71100365Y-70093956D01*
X71074812Y-70064300D01*
X71018269Y-69998679D01*
X71018266Y-69998677D01*
X71012409Y-69991879D01*
X70899339Y-69918591D01*
X70842473Y-69901584D01*
X70778846Y-69882555D01*
X70778844Y-69882555D01*
X70770245Y-69879983D01*
X70761270Y-69879928D01*
X70761269Y-69879928D01*
X70702874Y-69879572D01*
X70635503Y-69879160D01*
X70626871Y-69881627D01*
X70514577Y-69913720D01*
X70514575Y-69913721D01*
X70505946Y-69916187D01*
X70498355Y-69920976D01*
X70498354Y-69920977D01*
X70415152Y-69973474D01*
X70391989Y-69988089D01*
X70386047Y-69994818D01*
X70386046Y-69994818D01*
X70338478Y-70048679D01*
X70302793Y-70089084D01*
X70298979Y-70097207D01*
X70298978Y-70097209D01*
X70270586Y-70157684D01*
X70245529Y-70211054D01*
X70244148Y-70219924D01*
X70231970Y-70298136D01*
X70224798Y-70344194D01*
X70225962Y-70353095D01*
X70225962Y-70353099D01*
X70241106Y-70468902D01*
X70242270Y-70477801D01*
X70296537Y-70601133D01*
X70383239Y-70704278D01*
X70390712Y-70709252D01*
X70397405Y-70715237D01*
X70396223Y-70716559D01*
X70434939Y-70762715D01*
X70445500Y-70813212D01*
X70445500Y-73585998D01*
X70425498Y-73654119D01*
X70401164Y-73681951D01*
X70399579Y-73683300D01*
X70391989Y-73688089D01*
X70302793Y-73789084D01*
X70245529Y-73911054D01*
X70224798Y-74044194D01*
X59791244Y-74044194D01*
X58755001Y-73445913D01*
X58708882Y-73399794D01*
X58223133Y-72558448D01*
X58131620Y-72399942D01*
X58114739Y-72336943D01*
X58114739Y-71882670D01*
X65832160Y-71882670D01*
X65837887Y-71890320D01*
X66009042Y-71995205D01*
X66017837Y-71999687D01*
X66227988Y-72086734D01*
X66237373Y-72089783D01*
X66458554Y-72142885D01*
X66468301Y-72144428D01*
X66695070Y-72162275D01*
X66704930Y-72162275D01*
X66931699Y-72144428D01*
X66941446Y-72142885D01*
X67162627Y-72089783D01*
X67172012Y-72086734D01*
X67382163Y-71999687D01*
X67390958Y-71995205D01*
X67558445Y-71892568D01*
X67567907Y-71882110D01*
X67564124Y-71873334D01*
X66712812Y-71022022D01*
X66698868Y-71014408D01*
X66697035Y-71014539D01*
X66690420Y-71018790D01*
X65838920Y-71870290D01*
X65832160Y-71882670D01*
X58114739Y-71882670D01*
X58114739Y-70654930D01*
X65187725Y-70654930D01*
X65205572Y-70881699D01*
X65207115Y-70891446D01*
X65260217Y-71112627D01*
X65263266Y-71122012D01*
X65350313Y-71332163D01*
X65354795Y-71340958D01*
X65457432Y-71508445D01*
X65467890Y-71517907D01*
X65476666Y-71514124D01*
X66327978Y-70662812D01*
X66334356Y-70651132D01*
X67064408Y-70651132D01*
X67064539Y-70652965D01*
X67068790Y-70659580D01*
X67920290Y-71511080D01*
X67932670Y-71517840D01*
X67940320Y-71512113D01*
X68045205Y-71340958D01*
X68049687Y-71332163D01*
X68136734Y-71122012D01*
X68139783Y-71112627D01*
X68192885Y-70891446D01*
X68194428Y-70881699D01*
X68212275Y-70654930D01*
X68212275Y-70645070D01*
X68194428Y-70418301D01*
X68192885Y-70408554D01*
X68139783Y-70187373D01*
X68136734Y-70177988D01*
X68049687Y-69967837D01*
X68045205Y-69959042D01*
X67942568Y-69791555D01*
X67932110Y-69782093D01*
X67923334Y-69785876D01*
X67072022Y-70637188D01*
X67064408Y-70651132D01*
X66334356Y-70651132D01*
X66335592Y-70648868D01*
X66335461Y-70647035D01*
X66331210Y-70640420D01*
X65479710Y-69788920D01*
X65467330Y-69782160D01*
X65459680Y-69787887D01*
X65354795Y-69959042D01*
X65350313Y-69967837D01*
X65263266Y-70177988D01*
X65260217Y-70187373D01*
X65207115Y-70408554D01*
X65205572Y-70418301D01*
X65187725Y-70645070D01*
X65187725Y-70654930D01*
X58114739Y-70654930D01*
X58114739Y-69417890D01*
X65832093Y-69417890D01*
X65835876Y-69426666D01*
X66687188Y-70277978D01*
X66701132Y-70285592D01*
X66702965Y-70285461D01*
X66709580Y-70281210D01*
X67561080Y-69429710D01*
X67567840Y-69417330D01*
X67562113Y-69409680D01*
X67390958Y-69304795D01*
X67382163Y-69300313D01*
X67172012Y-69213266D01*
X67162627Y-69210217D01*
X66941446Y-69157115D01*
X66931699Y-69155572D01*
X66704930Y-69137725D01*
X66695070Y-69137725D01*
X66468301Y-69155572D01*
X66458554Y-69157115D01*
X66237373Y-69210217D01*
X66227988Y-69213266D01*
X66017837Y-69300313D01*
X66009042Y-69304795D01*
X65841555Y-69407432D01*
X65832093Y-69417890D01*
X58114739Y-69417890D01*
X58114739Y-65620359D01*
X65568058Y-65620359D01*
X65581611Y-65827135D01*
X65632619Y-66027980D01*
X65719373Y-66216165D01*
X65722704Y-66220878D01*
X65722705Y-66220880D01*
X65830450Y-66373334D01*
X65838970Y-66385390D01*
X65987402Y-66529986D01*
X65992198Y-66533191D01*
X65992201Y-66533193D01*
X66082326Y-66593412D01*
X66159699Y-66645111D01*
X66165002Y-66647389D01*
X66165005Y-66647391D01*
X66344584Y-66724544D01*
X66350091Y-66726910D01*
X66552201Y-66772643D01*
X66557972Y-66772870D01*
X66557974Y-66772870D01*
X66627210Y-66775590D01*
X66759262Y-66780778D01*
X66847561Y-66767975D01*
X66958616Y-66751874D01*
X66958621Y-66751873D01*
X66964337Y-66751044D01*
X66969809Y-66749186D01*
X66969811Y-66749186D01*
X67155096Y-66686290D01*
X67155098Y-66686289D01*
X67160560Y-66684435D01*
X67333086Y-66587816D01*
X67336322Y-66586004D01*
X67336323Y-66586003D01*
X67341359Y-66583183D01*
X67500678Y-66450678D01*
X67557240Y-66382670D01*
X75332160Y-66382670D01*
X75337887Y-66390320D01*
X75509042Y-66495205D01*
X75517837Y-66499687D01*
X75727988Y-66586734D01*
X75737373Y-66589783D01*
X75958554Y-66642885D01*
X75968301Y-66644428D01*
X76195070Y-66662275D01*
X76204930Y-66662275D01*
X76431699Y-66644428D01*
X76441446Y-66642885D01*
X76662627Y-66589783D01*
X76672012Y-66586734D01*
X76882163Y-66499687D01*
X76890958Y-66495205D01*
X77058445Y-66392568D01*
X77067907Y-66382110D01*
X77064124Y-66373334D01*
X76212812Y-65522022D01*
X76198868Y-65514408D01*
X76197035Y-65514539D01*
X76190420Y-65518790D01*
X75338920Y-66370290D01*
X75332160Y-66382670D01*
X67557240Y-66382670D01*
X67633183Y-66291359D01*
X67636005Y-66286319D01*
X67636009Y-66286314D01*
X67671504Y-66222934D01*
X67722241Y-66173272D01*
X67781438Y-66158500D01*
X70628928Y-66158500D01*
X70641058Y-66159855D01*
X70641097Y-66159373D01*
X70650044Y-66160093D01*
X70658800Y-66162074D01*
X70712508Y-66158742D01*
X70720310Y-66158500D01*
X70736513Y-66158500D01*
X70745429Y-66157223D01*
X70746878Y-66157016D01*
X70756928Y-66155987D01*
X70795216Y-66153611D01*
X70804177Y-66153055D01*
X70812623Y-66150006D01*
X70815514Y-66149407D01*
X70832480Y-66145178D01*
X70835305Y-66144352D01*
X70844187Y-66143080D01*
X70887298Y-66123478D01*
X70896649Y-66119672D01*
X70932735Y-66106645D01*
X70941181Y-66103596D01*
X70948429Y-66098301D01*
X70951027Y-66096920D01*
X70966145Y-66088085D01*
X70968614Y-66086506D01*
X70976782Y-66082792D01*
X71012653Y-66051884D01*
X71020569Y-66045599D01*
X71027615Y-66040452D01*
X71027620Y-66040447D01*
X71031552Y-66037575D01*
X71042527Y-66026600D01*
X71049375Y-66020242D01*
X71080323Y-65993576D01*
X71080324Y-65993575D01*
X71087127Y-65987713D01*
X71092011Y-65980178D01*
X71097458Y-65973934D01*
X71107058Y-65962069D01*
X71914197Y-65154930D01*
X74687725Y-65154930D01*
X74705572Y-65381699D01*
X74707115Y-65391446D01*
X74760217Y-65612627D01*
X74763266Y-65622012D01*
X74850313Y-65832163D01*
X74854795Y-65840958D01*
X74957432Y-66008445D01*
X74967890Y-66017907D01*
X74976666Y-66014124D01*
X75827978Y-65162812D01*
X75834356Y-65151132D01*
X76564408Y-65151132D01*
X76564539Y-65152965D01*
X76568790Y-65159580D01*
X77420290Y-66011080D01*
X77432670Y-66017840D01*
X77440320Y-66012113D01*
X77545205Y-65840958D01*
X77549687Y-65832163D01*
X77636734Y-65622012D01*
X77639783Y-65612627D01*
X77692885Y-65391446D01*
X77694428Y-65381699D01*
X77712275Y-65154930D01*
X77712275Y-65145070D01*
X77712206Y-65144194D01*
X79324798Y-65144194D01*
X79325962Y-65153095D01*
X79325962Y-65153099D01*
X79338604Y-65249768D01*
X79342270Y-65277801D01*
X79396537Y-65401133D01*
X79402315Y-65408006D01*
X79402315Y-65408007D01*
X79432275Y-65443649D01*
X79483239Y-65504278D01*
X79595405Y-65578942D01*
X79724019Y-65619124D01*
X79858740Y-65621593D01*
X79912494Y-65606938D01*
X79980080Y-65588512D01*
X79980082Y-65588511D01*
X79988739Y-65586151D01*
X80103566Y-65515647D01*
X80163527Y-65449403D01*
X80187961Y-65422409D01*
X80187962Y-65422408D01*
X80193989Y-65415749D01*
X80201071Y-65401133D01*
X80248826Y-65302567D01*
X80248827Y-65302565D01*
X80252740Y-65294488D01*
X80275095Y-65161611D01*
X80275237Y-65150000D01*
X80263956Y-65071230D01*
X80257408Y-65025503D01*
X80257407Y-65025500D01*
X80256135Y-65016617D01*
X80200365Y-64893956D01*
X80176923Y-64866750D01*
X80118269Y-64798679D01*
X80118266Y-64798677D01*
X80112409Y-64791879D01*
X80021940Y-64733240D01*
X80006873Y-64723474D01*
X80006872Y-64723473D01*
X79999339Y-64718591D01*
X79983052Y-64713720D01*
X79878846Y-64682555D01*
X79878844Y-64682555D01*
X79870245Y-64679983D01*
X79861270Y-64679928D01*
X79861269Y-64679928D01*
X79802874Y-64679571D01*
X79735503Y-64679160D01*
X79726871Y-64681627D01*
X79614577Y-64713720D01*
X79614575Y-64713721D01*
X79605946Y-64716187D01*
X79598355Y-64720976D01*
X79598354Y-64720977D01*
X79508014Y-64777978D01*
X79491989Y-64788089D01*
X79402793Y-64889084D01*
X79345529Y-65011054D01*
X79344148Y-65019924D01*
X79327765Y-65125141D01*
X79324798Y-65144194D01*
X77712206Y-65144194D01*
X77694428Y-64918301D01*
X77692885Y-64908554D01*
X77639783Y-64687373D01*
X77636734Y-64677988D01*
X77549687Y-64467837D01*
X77545205Y-64459042D01*
X77442568Y-64291555D01*
X77432110Y-64282093D01*
X77423334Y-64285876D01*
X76572022Y-65137188D01*
X76564408Y-65151132D01*
X75834356Y-65151132D01*
X75835592Y-65148868D01*
X75835461Y-65147035D01*
X75831210Y-65140420D01*
X74979710Y-64288920D01*
X74967330Y-64282160D01*
X74959680Y-64287887D01*
X74854795Y-64459042D01*
X74850313Y-64467837D01*
X74763266Y-64677988D01*
X74760217Y-64687373D01*
X74707115Y-64908554D01*
X74705572Y-64918301D01*
X74687725Y-65145070D01*
X74687725Y-65154930D01*
X71914197Y-65154930D01*
X73151237Y-63917890D01*
X75332093Y-63917890D01*
X75335876Y-63926666D01*
X76187188Y-64777978D01*
X76201132Y-64785592D01*
X76202965Y-64785461D01*
X76209580Y-64781210D01*
X77061080Y-63929710D01*
X77067840Y-63917330D01*
X77062113Y-63909680D01*
X76890958Y-63804795D01*
X76882163Y-63800313D01*
X76672012Y-63713266D01*
X76662627Y-63710217D01*
X76441446Y-63657115D01*
X76431699Y-63655572D01*
X76204930Y-63637725D01*
X76195070Y-63637725D01*
X75968301Y-63655572D01*
X75958554Y-63657115D01*
X75737373Y-63710217D01*
X75727988Y-63713266D01*
X75517837Y-63800313D01*
X75509042Y-63804795D01*
X75341555Y-63907432D01*
X75332093Y-63917890D01*
X73151237Y-63917890D01*
X75794538Y-61274590D01*
X75856850Y-61240564D01*
X75911440Y-61240792D01*
X76052201Y-61272643D01*
X76057972Y-61272870D01*
X76057974Y-61272870D01*
X76127210Y-61275590D01*
X76259262Y-61280778D01*
X76347561Y-61267975D01*
X76458616Y-61251874D01*
X76458621Y-61251873D01*
X76464337Y-61251044D01*
X76469809Y-61249186D01*
X76469811Y-61249186D01*
X76655096Y-61186290D01*
X76655098Y-61186289D01*
X76660560Y-61184435D01*
X76841359Y-61083183D01*
X77000678Y-60950678D01*
X77057240Y-60882670D01*
X84832160Y-60882670D01*
X84837887Y-60890320D01*
X85009042Y-60995205D01*
X85017837Y-60999687D01*
X85227988Y-61086734D01*
X85237373Y-61089783D01*
X85458554Y-61142885D01*
X85468301Y-61144428D01*
X85695070Y-61162275D01*
X85704930Y-61162275D01*
X85931699Y-61144428D01*
X85941446Y-61142885D01*
X86162627Y-61089783D01*
X86172012Y-61086734D01*
X86382163Y-60999687D01*
X86390958Y-60995205D01*
X86558445Y-60892568D01*
X86567907Y-60882110D01*
X86564124Y-60873334D01*
X85712812Y-60022022D01*
X85698868Y-60014408D01*
X85697035Y-60014539D01*
X85690420Y-60018790D01*
X84838920Y-60870290D01*
X84832160Y-60882670D01*
X77057240Y-60882670D01*
X77133183Y-60791359D01*
X77234435Y-60610560D01*
X77265910Y-60517840D01*
X77299186Y-60419811D01*
X77299186Y-60419809D01*
X77301044Y-60414337D01*
X77301873Y-60408621D01*
X77301874Y-60408616D01*
X77330245Y-60212936D01*
X77330778Y-60209262D01*
X77332330Y-60150000D01*
X77320570Y-60022022D01*
X77313898Y-59949403D01*
X77313897Y-59949400D01*
X77313369Y-59943649D01*
X77306788Y-59920312D01*
X77258689Y-59749768D01*
X77258688Y-59749766D01*
X77257121Y-59744209D01*
X77216981Y-59662812D01*
X77213094Y-59654930D01*
X84187725Y-59654930D01*
X84205572Y-59881699D01*
X84207115Y-59891446D01*
X84260217Y-60112627D01*
X84263266Y-60122012D01*
X84350313Y-60332163D01*
X84354795Y-60340958D01*
X84457432Y-60508445D01*
X84467890Y-60517907D01*
X84476666Y-60514124D01*
X85327978Y-59662812D01*
X85334356Y-59651132D01*
X86064408Y-59651132D01*
X86064539Y-59652965D01*
X86068790Y-59659580D01*
X86920290Y-60511080D01*
X86932670Y-60517840D01*
X86940320Y-60512113D01*
X87045205Y-60340958D01*
X87049687Y-60332163D01*
X87136734Y-60122012D01*
X87139783Y-60112627D01*
X87192885Y-59891446D01*
X87194428Y-59881699D01*
X87212275Y-59654930D01*
X87212275Y-59645070D01*
X87194428Y-59418301D01*
X87192885Y-59408554D01*
X87139783Y-59187373D01*
X87136734Y-59177988D01*
X87049687Y-58967837D01*
X87045205Y-58959042D01*
X86942568Y-58791555D01*
X86932110Y-58782093D01*
X86923334Y-58785876D01*
X86072022Y-59637188D01*
X86064408Y-59651132D01*
X85334356Y-59651132D01*
X85335592Y-59648868D01*
X85335461Y-59647035D01*
X85331210Y-59640420D01*
X84479710Y-58788920D01*
X84467330Y-58782160D01*
X84459680Y-58787887D01*
X84354795Y-58959042D01*
X84350313Y-58967837D01*
X84263266Y-59177988D01*
X84260217Y-59187373D01*
X84207115Y-59408554D01*
X84205572Y-59418301D01*
X84187725Y-59645070D01*
X84187725Y-59654930D01*
X77213094Y-59654930D01*
X77168025Y-59563540D01*
X77165470Y-59558359D01*
X77143362Y-59528752D01*
X77044938Y-59396947D01*
X77044937Y-59396946D01*
X77041485Y-59392323D01*
X76921284Y-59281210D01*
X76893559Y-59255581D01*
X76893556Y-59255579D01*
X76889319Y-59251662D01*
X76843145Y-59222529D01*
X76718951Y-59144168D01*
X76718946Y-59144166D01*
X76714067Y-59141087D01*
X76521599Y-59064300D01*
X76318361Y-59023873D01*
X76312587Y-59023797D01*
X76312583Y-59023797D01*
X76207399Y-59022421D01*
X76111158Y-59021161D01*
X76105461Y-59022140D01*
X76105460Y-59022140D01*
X76088816Y-59025000D01*
X75906931Y-59056253D01*
X75906704Y-59054932D01*
X75842340Y-59053403D01*
X75791606Y-59022479D01*
X75187017Y-58417890D01*
X84832093Y-58417890D01*
X84835876Y-58426666D01*
X85687188Y-59277978D01*
X85701132Y-59285592D01*
X85702965Y-59285461D01*
X85709580Y-59281210D01*
X86561080Y-58429710D01*
X86567840Y-58417330D01*
X86562113Y-58409680D01*
X86390958Y-58304795D01*
X86382163Y-58300313D01*
X86172012Y-58213266D01*
X86162627Y-58210217D01*
X85941446Y-58157115D01*
X85931699Y-58155572D01*
X85704930Y-58137725D01*
X85695070Y-58137725D01*
X85468301Y-58155572D01*
X85458554Y-58157115D01*
X85237373Y-58210217D01*
X85227988Y-58213266D01*
X85017837Y-58300313D01*
X85009042Y-58304795D01*
X84841555Y-58407432D01*
X84832093Y-58417890D01*
X75187017Y-58417890D01*
X73563321Y-56794194D01*
X78224798Y-56794194D01*
X78225962Y-56803095D01*
X78225962Y-56803099D01*
X78240694Y-56915749D01*
X78242270Y-56927801D01*
X78296537Y-57051133D01*
X78302315Y-57058006D01*
X78302315Y-57058007D01*
X78373759Y-57143000D01*
X78383239Y-57154278D01*
X78495405Y-57228942D01*
X78624019Y-57269124D01*
X78758740Y-57271593D01*
X78812494Y-57256938D01*
X78880080Y-57238512D01*
X78880082Y-57238511D01*
X78888739Y-57236151D01*
X78981558Y-57179160D01*
X78995918Y-57170343D01*
X78995919Y-57170343D01*
X79003566Y-57165647D01*
X79056604Y-57107051D01*
X79117147Y-57069971D01*
X79188126Y-57071509D01*
X79246468Y-57110531D01*
X79283239Y-57154276D01*
X79395405Y-57228940D01*
X79524019Y-57269122D01*
X79658740Y-57271591D01*
X79712494Y-57256936D01*
X79780080Y-57238510D01*
X79780082Y-57238509D01*
X79788739Y-57236149D01*
X79903566Y-57165645D01*
X79943589Y-57121428D01*
X79956602Y-57107052D01*
X80017145Y-57069970D01*
X80088125Y-57071508D01*
X80146467Y-57110531D01*
X80183240Y-57154278D01*
X80295406Y-57228942D01*
X80424020Y-57269124D01*
X80558741Y-57271593D01*
X80612495Y-57256938D01*
X80680081Y-57238512D01*
X80680083Y-57238511D01*
X80688740Y-57236151D01*
X80781559Y-57179160D01*
X80795919Y-57170343D01*
X80795920Y-57170343D01*
X80803567Y-57165647D01*
X80856606Y-57107050D01*
X80917146Y-57069971D01*
X80988126Y-57071508D01*
X81046469Y-57110530D01*
X81083241Y-57154276D01*
X81195407Y-57228940D01*
X81324021Y-57269122D01*
X81458742Y-57271591D01*
X81512496Y-57256936D01*
X81580082Y-57238510D01*
X81580084Y-57238509D01*
X81588741Y-57236149D01*
X81703568Y-57165645D01*
X81773385Y-57088512D01*
X81787963Y-57072407D01*
X81787964Y-57072406D01*
X81793991Y-57065747D01*
X81801072Y-57051133D01*
X81848828Y-56952565D01*
X81848829Y-56952563D01*
X81852742Y-56944486D01*
X81875097Y-56811609D01*
X81875239Y-56799998D01*
X81856137Y-56666615D01*
X81800367Y-56543954D01*
X81787551Y-56529080D01*
X81718270Y-56448676D01*
X81718268Y-56448674D01*
X81712411Y-56441877D01*
X81711916Y-56441556D01*
X81676000Y-56385260D01*
X81676237Y-56314263D01*
X81703597Y-56265611D01*
X81793989Y-56165747D01*
X81801070Y-56151133D01*
X81848826Y-56052565D01*
X81848827Y-56052563D01*
X81852740Y-56044486D01*
X81875095Y-55911609D01*
X81875237Y-55899998D01*
X81867385Y-55845170D01*
X81857408Y-55775501D01*
X81857407Y-55775498D01*
X81856135Y-55766615D01*
X81849056Y-55751044D01*
X81828917Y-55706751D01*
X81800365Y-55643954D01*
X81788126Y-55629750D01*
X81718269Y-55548677D01*
X81718266Y-55548675D01*
X81712409Y-55541877D01*
X81599339Y-55468589D01*
X81590736Y-55466016D01*
X81478846Y-55432553D01*
X81478844Y-55432553D01*
X81470245Y-55429981D01*
X81461270Y-55429926D01*
X81461269Y-55429926D01*
X81402874Y-55429570D01*
X81335503Y-55429158D01*
X81326871Y-55431625D01*
X81214577Y-55463718D01*
X81214575Y-55463719D01*
X81205946Y-55466185D01*
X81198355Y-55470974D01*
X81198354Y-55470975D01*
X81104828Y-55529986D01*
X81091989Y-55538087D01*
X81046333Y-55589783D01*
X81044434Y-55591933D01*
X80984349Y-55629751D01*
X80913355Y-55629081D01*
X80854540Y-55590773D01*
X80818270Y-55548679D01*
X80818267Y-55548676D01*
X80812410Y-55541879D01*
X80755875Y-55505235D01*
X80706874Y-55473474D01*
X80706870Y-55473472D01*
X80699340Y-55468591D01*
X80651769Y-55454364D01*
X80578847Y-55432555D01*
X80578845Y-55432555D01*
X80570246Y-55429983D01*
X80561271Y-55429928D01*
X80561270Y-55429928D01*
X80502875Y-55429571D01*
X80435504Y-55429160D01*
X80426872Y-55431627D01*
X80314578Y-55463720D01*
X80314576Y-55463721D01*
X80305947Y-55466187D01*
X80298359Y-55470975D01*
X80298355Y-55470977D01*
X80199588Y-55533295D01*
X80191990Y-55538089D01*
X80186049Y-55544816D01*
X80186047Y-55544818D01*
X80144437Y-55591932D01*
X80084351Y-55629750D01*
X80013357Y-55629079D01*
X79954543Y-55590772D01*
X79918271Y-55548676D01*
X79918268Y-55548674D01*
X79912411Y-55541876D01*
X79840406Y-55495205D01*
X79806875Y-55473471D01*
X79806874Y-55473470D01*
X79799341Y-55468588D01*
X79751780Y-55454364D01*
X79678848Y-55432552D01*
X79678846Y-55432552D01*
X79670247Y-55429980D01*
X79661272Y-55429925D01*
X79661271Y-55429925D01*
X79602876Y-55429569D01*
X79535505Y-55429157D01*
X79526863Y-55431627D01*
X79414579Y-55463717D01*
X79414577Y-55463718D01*
X79405948Y-55466184D01*
X79398357Y-55470973D01*
X79398356Y-55470974D01*
X79299746Y-55533193D01*
X79291991Y-55538086D01*
X79246334Y-55589783D01*
X79244435Y-55591933D01*
X79184350Y-55629751D01*
X79113356Y-55629081D01*
X79054541Y-55590773D01*
X79018271Y-55548679D01*
X79018268Y-55548676D01*
X79012411Y-55541879D01*
X78955876Y-55505235D01*
X78906875Y-55473474D01*
X78906871Y-55473472D01*
X78899341Y-55468591D01*
X78851770Y-55454364D01*
X78778848Y-55432555D01*
X78778846Y-55432555D01*
X78770247Y-55429983D01*
X78761272Y-55429928D01*
X78761271Y-55429928D01*
X78702876Y-55429571D01*
X78635505Y-55429160D01*
X78626873Y-55431627D01*
X78514579Y-55463720D01*
X78514577Y-55463721D01*
X78505948Y-55466187D01*
X78498360Y-55470975D01*
X78498356Y-55470977D01*
X78399589Y-55533295D01*
X78391991Y-55538089D01*
X78302795Y-55639084D01*
X78298981Y-55647207D01*
X78298980Y-55647209D01*
X78250231Y-55751044D01*
X78245531Y-55761054D01*
X78224800Y-55894194D01*
X78225964Y-55903095D01*
X78225964Y-55903099D01*
X78241108Y-56018902D01*
X78242272Y-56027801D01*
X78296539Y-56151133D01*
X78302317Y-56158006D01*
X78302317Y-56158007D01*
X78357348Y-56223474D01*
X78383241Y-56254278D01*
X78387970Y-56257426D01*
X78424545Y-56316333D01*
X78423440Y-56387321D01*
X78390689Y-56436941D01*
X78391989Y-56438089D01*
X78302793Y-56539084D01*
X78245529Y-56661054D01*
X78240019Y-56696441D01*
X78227351Y-56777801D01*
X78224798Y-56794194D01*
X73563321Y-56794194D01*
X72151797Y-55382670D01*
X75332160Y-55382670D01*
X75337887Y-55390320D01*
X75509042Y-55495205D01*
X75517837Y-55499687D01*
X75727988Y-55586734D01*
X75737373Y-55589783D01*
X75958554Y-55642885D01*
X75968301Y-55644428D01*
X76195070Y-55662275D01*
X76204930Y-55662275D01*
X76431699Y-55644428D01*
X76441446Y-55642885D01*
X76662627Y-55589783D01*
X76672012Y-55586734D01*
X76882163Y-55499687D01*
X76890958Y-55495205D01*
X77058445Y-55392568D01*
X77067907Y-55382110D01*
X77064124Y-55373334D01*
X76212812Y-54522022D01*
X76198868Y-54514408D01*
X76197035Y-54514539D01*
X76190420Y-54518790D01*
X75338920Y-55370290D01*
X75332160Y-55382670D01*
X72151797Y-55382670D01*
X71508222Y-54739095D01*
X71474196Y-54676783D01*
X71479261Y-54605968D01*
X71508222Y-54560905D01*
X71914197Y-54154930D01*
X74687725Y-54154930D01*
X74705572Y-54381699D01*
X74707115Y-54391446D01*
X74760217Y-54612627D01*
X74763266Y-54622012D01*
X74850313Y-54832163D01*
X74854795Y-54840958D01*
X74957432Y-55008445D01*
X74967890Y-55017907D01*
X74976666Y-55014124D01*
X75827978Y-54162812D01*
X75834356Y-54151132D01*
X76564408Y-54151132D01*
X76564539Y-54152965D01*
X76568790Y-54159580D01*
X77420290Y-55011080D01*
X77432670Y-55017840D01*
X77440320Y-55012113D01*
X77545205Y-54840958D01*
X77549687Y-54832163D01*
X77636734Y-54622012D01*
X77639783Y-54612627D01*
X77692885Y-54391446D01*
X77694428Y-54381699D01*
X77712275Y-54154930D01*
X77712275Y-54145070D01*
X77694428Y-53918301D01*
X77692885Y-53908554D01*
X77639783Y-53687373D01*
X77636734Y-53677988D01*
X77549687Y-53467837D01*
X77545205Y-53459042D01*
X77442568Y-53291555D01*
X77432110Y-53282093D01*
X77423334Y-53285876D01*
X76572022Y-54137188D01*
X76564408Y-54151132D01*
X75834356Y-54151132D01*
X75835592Y-54148868D01*
X75835461Y-54147035D01*
X75831210Y-54140420D01*
X74979710Y-53288920D01*
X74967330Y-53282160D01*
X74959680Y-53287887D01*
X74854795Y-53459042D01*
X74850313Y-53467837D01*
X74763266Y-53677988D01*
X74760217Y-53687373D01*
X74707115Y-53908554D01*
X74705572Y-53918301D01*
X74687725Y-54145070D01*
X74687725Y-54154930D01*
X71914197Y-54154930D01*
X72510874Y-53558254D01*
X73151238Y-52917890D01*
X75332093Y-52917890D01*
X75335876Y-52926666D01*
X76187188Y-53777978D01*
X76201132Y-53785592D01*
X76202965Y-53785461D01*
X76209580Y-53781210D01*
X77061080Y-52929710D01*
X77067840Y-52917330D01*
X77062113Y-52909680D01*
X76890958Y-52804795D01*
X76882163Y-52800313D01*
X76672012Y-52713266D01*
X76662627Y-52710217D01*
X76441446Y-52657115D01*
X76431699Y-52655572D01*
X76204930Y-52637725D01*
X76195070Y-52637725D01*
X75968301Y-52655572D01*
X75958554Y-52657115D01*
X75737373Y-52710217D01*
X75727988Y-52713266D01*
X75517837Y-52800313D01*
X75509042Y-52804795D01*
X75341555Y-52907432D01*
X75332093Y-52917890D01*
X73151238Y-52917890D01*
X73544538Y-52524590D01*
X73606850Y-52490564D01*
X73661440Y-52490792D01*
X73802201Y-52522643D01*
X73807972Y-52522870D01*
X73807974Y-52522870D01*
X73877210Y-52525590D01*
X74009262Y-52530778D01*
X74097561Y-52517975D01*
X74208616Y-52501874D01*
X74208621Y-52501873D01*
X74214337Y-52501044D01*
X74219809Y-52499186D01*
X74219811Y-52499186D01*
X74405096Y-52436290D01*
X74405098Y-52436289D01*
X74410560Y-52434435D01*
X74591359Y-52333183D01*
X74750678Y-52200678D01*
X74883183Y-52041359D01*
X74984435Y-51860560D01*
X74996336Y-51825503D01*
X75049186Y-51669811D01*
X75049186Y-51669809D01*
X75051044Y-51664337D01*
X75051873Y-51658621D01*
X75051874Y-51658616D01*
X75072882Y-51513720D01*
X75080778Y-51459262D01*
X75082330Y-51400000D01*
X75063369Y-51193649D01*
X75042081Y-51118167D01*
X75042841Y-51047178D01*
X75074255Y-50994873D01*
X75794538Y-50274590D01*
X75856850Y-50240564D01*
X75911440Y-50240792D01*
X75948550Y-50249189D01*
X76045652Y-50271161D01*
X76052201Y-50272643D01*
X76057972Y-50272870D01*
X76057974Y-50272870D01*
X76127210Y-50275590D01*
X76259262Y-50280778D01*
X76347561Y-50267975D01*
X76458616Y-50251874D01*
X76458621Y-50251873D01*
X76464337Y-50251044D01*
X76469809Y-50249186D01*
X76469811Y-50249186D01*
X76655096Y-50186290D01*
X76655098Y-50186289D01*
X76660560Y-50184435D01*
X76841359Y-50083183D01*
X77000678Y-49950678D01*
X77133183Y-49791359D01*
X77136005Y-49786319D01*
X77136009Y-49786314D01*
X77171504Y-49722934D01*
X77222241Y-49673272D01*
X77281438Y-49658500D01*
X79937183Y-49658500D01*
X80005304Y-49678502D01*
X80026278Y-49695405D01*
X84574874Y-54244002D01*
X84608900Y-54306314D01*
X84606111Y-54370462D01*
X84594128Y-54409051D01*
X84594127Y-54409058D01*
X84592414Y-54414575D01*
X84568058Y-54620359D01*
X84581611Y-54827135D01*
X84632619Y-55027980D01*
X84719373Y-55216165D01*
X84722704Y-55220878D01*
X84722705Y-55220880D01*
X84830450Y-55373334D01*
X84838970Y-55385390D01*
X84884690Y-55429928D01*
X84926828Y-55470977D01*
X84987402Y-55529986D01*
X84992198Y-55533191D01*
X84992201Y-55533193D01*
X85078375Y-55590772D01*
X85159699Y-55645111D01*
X85165002Y-55647389D01*
X85165005Y-55647391D01*
X85325635Y-55716403D01*
X85350091Y-55726910D01*
X85552201Y-55772643D01*
X85557972Y-55772870D01*
X85557974Y-55772870D01*
X85624946Y-55775501D01*
X85759262Y-55780778D01*
X85964337Y-55751044D01*
X85977927Y-55746431D01*
X86048859Y-55743474D01*
X86107522Y-55776649D01*
X90391778Y-60060905D01*
X90425804Y-60123217D01*
X90420739Y-60194032D01*
X90391778Y-60239095D01*
X86106734Y-64524139D01*
X86044422Y-64558165D01*
X85993059Y-64558623D01*
X85818361Y-64523873D01*
X85812587Y-64523797D01*
X85812583Y-64523797D01*
X85707399Y-64522421D01*
X85611158Y-64521161D01*
X85605461Y-64522140D01*
X85605460Y-64522140D01*
X85412628Y-64555274D01*
X85412627Y-64555274D01*
X85406931Y-64556253D01*
X85212519Y-64627976D01*
X85207558Y-64630928D01*
X85207557Y-64630928D01*
X85064250Y-64716187D01*
X85034433Y-64733926D01*
X84878637Y-64870555D01*
X84750348Y-65033289D01*
X84747659Y-65038400D01*
X84747657Y-65038403D01*
X84730386Y-65071230D01*
X84653863Y-65216676D01*
X84592414Y-65414575D01*
X84568058Y-65620359D01*
X84581611Y-65827135D01*
X84583032Y-65832731D01*
X84583033Y-65832736D01*
X84608962Y-65934828D01*
X84606344Y-66005777D01*
X84575934Y-66054939D01*
X80026278Y-70604595D01*
X79963966Y-70638621D01*
X79937183Y-70641500D01*
X79472464Y-70641500D01*
X79404343Y-70621498D01*
X79357850Y-70567842D01*
X79347746Y-70497568D01*
X79372909Y-70444007D01*
X79370445Y-70442345D01*
X79375461Y-70434909D01*
X79381489Y-70428249D01*
X79388571Y-70413633D01*
X79436326Y-70315067D01*
X79436327Y-70315065D01*
X79440240Y-70306988D01*
X79462595Y-70174111D01*
X79462737Y-70162500D01*
X79451947Y-70087154D01*
X79444908Y-70038003D01*
X79444907Y-70038000D01*
X79443635Y-70029117D01*
X79387865Y-69906456D01*
X79377870Y-69894856D01*
X79305769Y-69811179D01*
X79305766Y-69811177D01*
X79299909Y-69804379D01*
X79186839Y-69731091D01*
X79170552Y-69726220D01*
X79066346Y-69695055D01*
X79066344Y-69695055D01*
X79057745Y-69692483D01*
X79048770Y-69692428D01*
X79048769Y-69692428D01*
X78990374Y-69692072D01*
X78923003Y-69691660D01*
X78914371Y-69694127D01*
X78802077Y-69726220D01*
X78802075Y-69726221D01*
X78793446Y-69728687D01*
X78785855Y-69733476D01*
X78785854Y-69733477D01*
X78699620Y-69787887D01*
X78679489Y-69800589D01*
X78590293Y-69901584D01*
X78586479Y-69909707D01*
X78586478Y-69909709D01*
X78547900Y-69991879D01*
X78533029Y-70023554D01*
X78527640Y-70058165D01*
X78513775Y-70147209D01*
X78512298Y-70156694D01*
X78513462Y-70165595D01*
X78513462Y-70165599D01*
X78528581Y-70281210D01*
X78529770Y-70290301D01*
X78584037Y-70413633D01*
X78589815Y-70420506D01*
X78589815Y-70420507D01*
X78601515Y-70434426D01*
X78630036Y-70499442D01*
X78618878Y-70569556D01*
X78571585Y-70622508D01*
X78505063Y-70641500D01*
X77284823Y-70641500D01*
X77216702Y-70621498D01*
X77171818Y-70571230D01*
X77168027Y-70563543D01*
X77168024Y-70563539D01*
X77165470Y-70558359D01*
X77041485Y-70392323D01*
X76939594Y-70298136D01*
X76893559Y-70255581D01*
X76893556Y-70255579D01*
X76889319Y-70251662D01*
X76824959Y-70211054D01*
X76718951Y-70144168D01*
X76718946Y-70144166D01*
X76714067Y-70141087D01*
X76521599Y-70064300D01*
X76318361Y-70023873D01*
X76312587Y-70023797D01*
X76312583Y-70023797D01*
X76207399Y-70022421D01*
X76111158Y-70021161D01*
X76105461Y-70022140D01*
X76105460Y-70022140D01*
X75912628Y-70055274D01*
X75912627Y-70055274D01*
X75906931Y-70056253D01*
X75712519Y-70127976D01*
X75707558Y-70130928D01*
X75707557Y-70130928D01*
X75577258Y-70208448D01*
X75534433Y-70233926D01*
X75378637Y-70370555D01*
X75250348Y-70533289D01*
X75247659Y-70538400D01*
X75247657Y-70538403D01*
X75203939Y-70621498D01*
X75153863Y-70716676D01*
X75092414Y-70914575D01*
X75068058Y-71120359D01*
X75081611Y-71327135D01*
X75132619Y-71527980D01*
X75219373Y-71716165D01*
X75222704Y-71720878D01*
X75222705Y-71720880D01*
X75330450Y-71873334D01*
X75338970Y-71885390D01*
X75487402Y-72029986D01*
X75492198Y-72033191D01*
X75492201Y-72033193D01*
X75630108Y-72125339D01*
X75659699Y-72145111D01*
X75665002Y-72147389D01*
X75665005Y-72147391D01*
X75829278Y-72217968D01*
X75850091Y-72226910D01*
X76052201Y-72272643D01*
X76057972Y-72272870D01*
X76057974Y-72272870D01*
X76127210Y-72275590D01*
X76259262Y-72280778D01*
X76361055Y-72266019D01*
X76458616Y-72251874D01*
X76458621Y-72251873D01*
X76464337Y-72251044D01*
X76469809Y-72249186D01*
X76469811Y-72249186D01*
X76655096Y-72186290D01*
X76655098Y-72186289D01*
X76660560Y-72184435D01*
X76841359Y-72083183D01*
X76854719Y-72072072D01*
X76996246Y-71954364D01*
X77000678Y-71950678D01*
X77133183Y-71791359D01*
X77136005Y-71786319D01*
X77136009Y-71786314D01*
X77171504Y-71722934D01*
X77222241Y-71673272D01*
X77281438Y-71658500D01*
X79937183Y-71658500D01*
X80005304Y-71678502D01*
X80026278Y-71695405D01*
X84574874Y-76244002D01*
X84608900Y-76306314D01*
X84606111Y-76370462D01*
X84594128Y-76409051D01*
X84594125Y-76409064D01*
X84592414Y-76414575D01*
X84568058Y-76620359D01*
X84581611Y-76827135D01*
X84632619Y-77027980D01*
X84719373Y-77216165D01*
X84722704Y-77220878D01*
X84722705Y-77220880D01*
X84830450Y-77373334D01*
X84838970Y-77385390D01*
X84987402Y-77529986D01*
X84992198Y-77533191D01*
X84992201Y-77533193D01*
X85130108Y-77625339D01*
X85159699Y-77645111D01*
X85165002Y-77647389D01*
X85165005Y-77647391D01*
X85344784Y-77724630D01*
X85350091Y-77726910D01*
X85552201Y-77772643D01*
X85557972Y-77772870D01*
X85557974Y-77772870D01*
X85627210Y-77775590D01*
X85759262Y-77780778D01*
X85847561Y-77767975D01*
X85958616Y-77751874D01*
X85958621Y-77751873D01*
X85964337Y-77751044D01*
X85969809Y-77749186D01*
X85969811Y-77749186D01*
X86155096Y-77686290D01*
X86155098Y-77686289D01*
X86160560Y-77684435D01*
X86341359Y-77583183D01*
X86500678Y-77450678D01*
X86557240Y-77382670D01*
X94332160Y-77382670D01*
X94337887Y-77390320D01*
X94509042Y-77495205D01*
X94517837Y-77499687D01*
X94727988Y-77586734D01*
X94737373Y-77589783D01*
X94958554Y-77642885D01*
X94968301Y-77644428D01*
X95195070Y-77662275D01*
X95204930Y-77662275D01*
X95431699Y-77644428D01*
X95441446Y-77642885D01*
X95662627Y-77589783D01*
X95672012Y-77586734D01*
X95882163Y-77499687D01*
X95890958Y-77495205D01*
X96058445Y-77392568D01*
X96067907Y-77382110D01*
X96064124Y-77373334D01*
X95212812Y-76522022D01*
X95198868Y-76514408D01*
X95197035Y-76514539D01*
X95190420Y-76518790D01*
X94338920Y-77370290D01*
X94332160Y-77382670D01*
X86557240Y-77382670D01*
X86633183Y-77291359D01*
X86734435Y-77110560D01*
X86764359Y-77022409D01*
X86799186Y-76919811D01*
X86799186Y-76919809D01*
X86801044Y-76914337D01*
X86801873Y-76908621D01*
X86801874Y-76908616D01*
X86825713Y-76744194D01*
X86830778Y-76709262D01*
X86832330Y-76650000D01*
X86820474Y-76520977D01*
X86813898Y-76449403D01*
X86813897Y-76449400D01*
X86813369Y-76443649D01*
X86806788Y-76420312D01*
X86758689Y-76249768D01*
X86758688Y-76249766D01*
X86757121Y-76244209D01*
X86716981Y-76162812D01*
X86713094Y-76154930D01*
X93687725Y-76154930D01*
X93705572Y-76381699D01*
X93707115Y-76391446D01*
X93760217Y-76612627D01*
X93763266Y-76622012D01*
X93850313Y-76832163D01*
X93854795Y-76840958D01*
X93957432Y-77008445D01*
X93967890Y-77017907D01*
X93976666Y-77014124D01*
X94827978Y-76162812D01*
X94834356Y-76151132D01*
X95564408Y-76151132D01*
X95564539Y-76152965D01*
X95568790Y-76159580D01*
X96420290Y-77011080D01*
X96432670Y-77017840D01*
X96440320Y-77012113D01*
X96545205Y-76840958D01*
X96549687Y-76832163D01*
X96636734Y-76622012D01*
X96639783Y-76612627D01*
X96692885Y-76391446D01*
X96694428Y-76381699D01*
X96712275Y-76154930D01*
X96712275Y-76145070D01*
X96694428Y-75918301D01*
X96692885Y-75908554D01*
X96639783Y-75687373D01*
X96636734Y-75677988D01*
X96549687Y-75467837D01*
X96545205Y-75459042D01*
X96442568Y-75291555D01*
X96432110Y-75282093D01*
X96423334Y-75285876D01*
X95572022Y-76137188D01*
X95564408Y-76151132D01*
X94834356Y-76151132D01*
X94835592Y-76148868D01*
X94835461Y-76147035D01*
X94831210Y-76140420D01*
X93979710Y-75288920D01*
X93967330Y-75282160D01*
X93959680Y-75287887D01*
X93854795Y-75459042D01*
X93850313Y-75467837D01*
X93763266Y-75677988D01*
X93760217Y-75687373D01*
X93707115Y-75908554D01*
X93705572Y-75918301D01*
X93687725Y-76145070D01*
X93687725Y-76154930D01*
X86713094Y-76154930D01*
X86668025Y-76063540D01*
X86665470Y-76058359D01*
X86541485Y-75892323D01*
X86421284Y-75781210D01*
X86393559Y-75755581D01*
X86393556Y-75755579D01*
X86389319Y-75751662D01*
X86343145Y-75722529D01*
X86218951Y-75644168D01*
X86218946Y-75644166D01*
X86214067Y-75641087D01*
X86021599Y-75564300D01*
X85818361Y-75523873D01*
X85812587Y-75523797D01*
X85812583Y-75523797D01*
X85707399Y-75522421D01*
X85611158Y-75521161D01*
X85605461Y-75522140D01*
X85605460Y-75522140D01*
X85436728Y-75551133D01*
X85406931Y-75556253D01*
X85406704Y-75554932D01*
X85342340Y-75553403D01*
X85291606Y-75522479D01*
X85063321Y-75294194D01*
X89524798Y-75294194D01*
X89525962Y-75303095D01*
X89525962Y-75303099D01*
X89541106Y-75418902D01*
X89542270Y-75427801D01*
X89559886Y-75467837D01*
X89583383Y-75521237D01*
X89596537Y-75551133D01*
X89602315Y-75558006D01*
X89602315Y-75558007D01*
X89607605Y-75564300D01*
X89683239Y-75654278D01*
X89795405Y-75728942D01*
X89924019Y-75769124D01*
X90058740Y-75771593D01*
X90131846Y-75751662D01*
X90180080Y-75738512D01*
X90180082Y-75738511D01*
X90188739Y-75736151D01*
X90303566Y-75665647D01*
X90393989Y-75565749D01*
X90401071Y-75551133D01*
X90448826Y-75452567D01*
X90448827Y-75452565D01*
X90452740Y-75444488D01*
X90475095Y-75311611D01*
X90475237Y-75300000D01*
X90456135Y-75166617D01*
X90400365Y-75043956D01*
X90390370Y-75032356D01*
X90318269Y-74948679D01*
X90318266Y-74948677D01*
X90312409Y-74941879D01*
X90275398Y-74917890D01*
X94332093Y-74917890D01*
X94335876Y-74926666D01*
X95187188Y-75777978D01*
X95201132Y-75785592D01*
X95202965Y-75785461D01*
X95209580Y-75781210D01*
X96061080Y-74929710D01*
X96067840Y-74917330D01*
X96062113Y-74909680D01*
X95890958Y-74804795D01*
X95882163Y-74800313D01*
X95672012Y-74713266D01*
X95662627Y-74710217D01*
X95441446Y-74657115D01*
X95431699Y-74655572D01*
X95204930Y-74637725D01*
X95195070Y-74637725D01*
X94968301Y-74655572D01*
X94958554Y-74657115D01*
X94737373Y-74710217D01*
X94727988Y-74713266D01*
X94517837Y-74800313D01*
X94509042Y-74804795D01*
X94341555Y-74907432D01*
X94332093Y-74917890D01*
X90275398Y-74917890D01*
X90199339Y-74868591D01*
X90134839Y-74849301D01*
X90078846Y-74832555D01*
X90078844Y-74832555D01*
X90070245Y-74829983D01*
X90061270Y-74829928D01*
X90061269Y-74829928D01*
X90002874Y-74829571D01*
X89935503Y-74829160D01*
X89926871Y-74831627D01*
X89814577Y-74863720D01*
X89814575Y-74863721D01*
X89805946Y-74866187D01*
X89798355Y-74870976D01*
X89798354Y-74870977D01*
X89724890Y-74917330D01*
X89691989Y-74938089D01*
X89686047Y-74944818D01*
X89686046Y-74944818D01*
X89682636Y-74948679D01*
X89602793Y-75039084D01*
X89545529Y-75161054D01*
X89544148Y-75169924D01*
X89526672Y-75282160D01*
X89524798Y-75294194D01*
X85063321Y-75294194D01*
X81651797Y-71882670D01*
X84832160Y-71882670D01*
X84837887Y-71890320D01*
X85009042Y-71995205D01*
X85017837Y-71999687D01*
X85227988Y-72086734D01*
X85237373Y-72089783D01*
X85458554Y-72142885D01*
X85468301Y-72144428D01*
X85695070Y-72162275D01*
X85704930Y-72162275D01*
X85816059Y-72153529D01*
X85885539Y-72168125D01*
X85936099Y-72217968D01*
X85951685Y-72287232D01*
X85927350Y-72353928D01*
X85920387Y-72362548D01*
X85864792Y-72425498D01*
X85852793Y-72439084D01*
X85795529Y-72561054D01*
X85774798Y-72694194D01*
X85775962Y-72703095D01*
X85775962Y-72703099D01*
X85791106Y-72818902D01*
X85792270Y-72827801D01*
X85846537Y-72951133D01*
X85852315Y-72958006D01*
X85852315Y-72958007D01*
X85927459Y-73047402D01*
X85933239Y-73054278D01*
X86045405Y-73128942D01*
X86174019Y-73169124D01*
X86308740Y-73171593D01*
X86362494Y-73156938D01*
X86430080Y-73138512D01*
X86430082Y-73138511D01*
X86438739Y-73136151D01*
X86553566Y-73065647D01*
X86616657Y-72995945D01*
X86677200Y-72958864D01*
X86710072Y-72954500D01*
X92690679Y-72954500D01*
X92758800Y-72974502D01*
X92787128Y-72999422D01*
X92833239Y-73054278D01*
X92945405Y-73128942D01*
X93074019Y-73169124D01*
X93208740Y-73171593D01*
X93262494Y-73156938D01*
X93330080Y-73138512D01*
X93330082Y-73138511D01*
X93338739Y-73136151D01*
X93453566Y-73065647D01*
X93516657Y-72995945D01*
X93537961Y-72972409D01*
X93537962Y-72972408D01*
X93543989Y-72965749D01*
X93551071Y-72951133D01*
X93598826Y-72852567D01*
X93598827Y-72852565D01*
X93602740Y-72844488D01*
X93625095Y-72711611D01*
X93625237Y-72700000D01*
X93606135Y-72566617D01*
X93550365Y-72443956D01*
X93540371Y-72432357D01*
X93468269Y-72348679D01*
X93468266Y-72348677D01*
X93462409Y-72341879D01*
X93378099Y-72287232D01*
X93356873Y-72273474D01*
X93356872Y-72273473D01*
X93349339Y-72268591D01*
X93333052Y-72263720D01*
X93228846Y-72232555D01*
X93228844Y-72232555D01*
X93220245Y-72229983D01*
X93211270Y-72229928D01*
X93211269Y-72229928D01*
X93152874Y-72229571D01*
X93085503Y-72229160D01*
X93076871Y-72231627D01*
X92964577Y-72263720D01*
X92964575Y-72263721D01*
X92955946Y-72266187D01*
X92948355Y-72270976D01*
X92948354Y-72270977D01*
X92922592Y-72287232D01*
X92841989Y-72338089D01*
X92785767Y-72401748D01*
X92784743Y-72402908D01*
X92724658Y-72440726D01*
X92690302Y-72445500D01*
X86709449Y-72445500D01*
X86641328Y-72425498D01*
X86613996Y-72401748D01*
X86568269Y-72348679D01*
X86568266Y-72348677D01*
X86562409Y-72341879D01*
X86478099Y-72287232D01*
X86456873Y-72273474D01*
X86456872Y-72273473D01*
X86449339Y-72268591D01*
X86433052Y-72263720D01*
X86372812Y-72245704D01*
X86313279Y-72207022D01*
X86284109Y-72142294D01*
X86294565Y-72072072D01*
X86341326Y-72018649D01*
X86360698Y-72008578D01*
X86382159Y-71999689D01*
X86390958Y-71995205D01*
X86558445Y-71892568D01*
X86567907Y-71882110D01*
X86564124Y-71873334D01*
X85712812Y-71022022D01*
X85698868Y-71014408D01*
X85697035Y-71014539D01*
X85690420Y-71018790D01*
X84838920Y-71870290D01*
X84832160Y-71882670D01*
X81651797Y-71882670D01*
X81008222Y-71239095D01*
X80974196Y-71176783D01*
X80979261Y-71105968D01*
X81008222Y-71060905D01*
X81414197Y-70654930D01*
X84187725Y-70654930D01*
X84205572Y-70881699D01*
X84207115Y-70891446D01*
X84260217Y-71112627D01*
X84263266Y-71122012D01*
X84350313Y-71332163D01*
X84354795Y-71340958D01*
X84457432Y-71508445D01*
X84467890Y-71517907D01*
X84476666Y-71514124D01*
X85327978Y-70662812D01*
X85334356Y-70651132D01*
X86064408Y-70651132D01*
X86064539Y-70652965D01*
X86068790Y-70659580D01*
X86920290Y-71511080D01*
X86932670Y-71517840D01*
X86940320Y-71512113D01*
X87045205Y-71340958D01*
X87049687Y-71332163D01*
X87136734Y-71122012D01*
X87139783Y-71112627D01*
X87192885Y-70891446D01*
X87194428Y-70881699D01*
X87212275Y-70654930D01*
X87212275Y-70645070D01*
X87194428Y-70418301D01*
X87192885Y-70408554D01*
X87139783Y-70187373D01*
X87136734Y-70177988D01*
X87049687Y-69967837D01*
X87045205Y-69959042D01*
X86942568Y-69791555D01*
X86932110Y-69782093D01*
X86923334Y-69785876D01*
X86072022Y-70637188D01*
X86064408Y-70651132D01*
X85334356Y-70651132D01*
X85335592Y-70648868D01*
X85335461Y-70647035D01*
X85331210Y-70640420D01*
X84479710Y-69788920D01*
X84467330Y-69782160D01*
X84459680Y-69787887D01*
X84354795Y-69959042D01*
X84350313Y-69967837D01*
X84263266Y-70177988D01*
X84260217Y-70187373D01*
X84207115Y-70408554D01*
X84205572Y-70418301D01*
X84187725Y-70645070D01*
X84187725Y-70654930D01*
X81414197Y-70654930D01*
X82651237Y-69417890D01*
X84832093Y-69417890D01*
X84835876Y-69426666D01*
X85687188Y-70277978D01*
X85701132Y-70285592D01*
X85702965Y-70285461D01*
X85709580Y-70281210D01*
X86561080Y-69429710D01*
X86567840Y-69417330D01*
X86562113Y-69409680D01*
X86390958Y-69304795D01*
X86382163Y-69300313D01*
X86172012Y-69213266D01*
X86162627Y-69210217D01*
X85941446Y-69157115D01*
X85931699Y-69155572D01*
X85704930Y-69137725D01*
X85695070Y-69137725D01*
X85468301Y-69155572D01*
X85458554Y-69157115D01*
X85237373Y-69210217D01*
X85227988Y-69213266D01*
X85017837Y-69300313D01*
X85009042Y-69304795D01*
X84841555Y-69407432D01*
X84832093Y-69417890D01*
X82651237Y-69417890D01*
X84148769Y-67920359D01*
X88068058Y-67920359D01*
X88081611Y-68127135D01*
X88132619Y-68327980D01*
X88219373Y-68516165D01*
X88222704Y-68520878D01*
X88222705Y-68520880D01*
X88275652Y-68595797D01*
X88338970Y-68685390D01*
X88487402Y-68829986D01*
X88492198Y-68833191D01*
X88492201Y-68833193D01*
X88561493Y-68879492D01*
X88659699Y-68945111D01*
X88665002Y-68947389D01*
X88665005Y-68947391D01*
X88844784Y-69024630D01*
X88850091Y-69026910D01*
X89052201Y-69072643D01*
X89057972Y-69072870D01*
X89057974Y-69072870D01*
X89127210Y-69075590D01*
X89259262Y-69080778D01*
X89347561Y-69067975D01*
X89458616Y-69051874D01*
X89458621Y-69051873D01*
X89464337Y-69051044D01*
X89469809Y-69049186D01*
X89469811Y-69049186D01*
X89655096Y-68986290D01*
X89655098Y-68986289D01*
X89660560Y-68984435D01*
X89841359Y-68883183D01*
X90000678Y-68750678D01*
X90133183Y-68591359D01*
X90234435Y-68410560D01*
X90301044Y-68214337D01*
X90301873Y-68208621D01*
X90301874Y-68208616D01*
X90330245Y-68012936D01*
X90330778Y-68009262D01*
X90332330Y-67950000D01*
X90313369Y-67743649D01*
X90306788Y-67720312D01*
X90258689Y-67549768D01*
X90258688Y-67549766D01*
X90257121Y-67544209D01*
X90246265Y-67522194D01*
X90168025Y-67363540D01*
X90165470Y-67358359D01*
X90143362Y-67328752D01*
X90044938Y-67196947D01*
X90044937Y-67196946D01*
X90041485Y-67192323D01*
X89889319Y-67051662D01*
X89843145Y-67022529D01*
X89718951Y-66944168D01*
X89718946Y-66944166D01*
X89714067Y-66941087D01*
X89521599Y-66864300D01*
X89318361Y-66823873D01*
X89312587Y-66823797D01*
X89312583Y-66823797D01*
X89207399Y-66822421D01*
X89111158Y-66821161D01*
X89105461Y-66822140D01*
X89105460Y-66822140D01*
X88912628Y-66855274D01*
X88912627Y-66855274D01*
X88906931Y-66856253D01*
X88712519Y-66927976D01*
X88534433Y-67033926D01*
X88378637Y-67170555D01*
X88250348Y-67333289D01*
X88153863Y-67516676D01*
X88092414Y-67714575D01*
X88068058Y-67920359D01*
X84148769Y-67920359D01*
X85294538Y-66774590D01*
X85356850Y-66740564D01*
X85411440Y-66740792D01*
X85552201Y-66772643D01*
X85557972Y-66772870D01*
X85557974Y-66772870D01*
X85627210Y-66775590D01*
X85759262Y-66780778D01*
X85847561Y-66767975D01*
X85958616Y-66751874D01*
X85958621Y-66751873D01*
X85964337Y-66751044D01*
X85969809Y-66749186D01*
X85969811Y-66749186D01*
X86155096Y-66686290D01*
X86155098Y-66686289D01*
X86160560Y-66684435D01*
X86333086Y-66587816D01*
X86336322Y-66586004D01*
X86336323Y-66586003D01*
X86341359Y-66583183D01*
X86500678Y-66450678D01*
X86557240Y-66382670D01*
X94332160Y-66382670D01*
X94337887Y-66390320D01*
X94509042Y-66495205D01*
X94517837Y-66499687D01*
X94727988Y-66586734D01*
X94737373Y-66589783D01*
X94958554Y-66642885D01*
X94968301Y-66644428D01*
X95195070Y-66662275D01*
X95204930Y-66662275D01*
X95431699Y-66644428D01*
X95441446Y-66642885D01*
X95662627Y-66589783D01*
X95672012Y-66586734D01*
X95882163Y-66499687D01*
X95890958Y-66495205D01*
X96058445Y-66392568D01*
X96067907Y-66382110D01*
X96064124Y-66373334D01*
X95212812Y-65522022D01*
X95198868Y-65514408D01*
X95197035Y-65514539D01*
X95190420Y-65518790D01*
X94338920Y-66370290D01*
X94332160Y-66382670D01*
X86557240Y-66382670D01*
X86633183Y-66291359D01*
X86734435Y-66110560D01*
X86756487Y-66045599D01*
X86799186Y-65919811D01*
X86799186Y-65919809D01*
X86801044Y-65914337D01*
X86801873Y-65908621D01*
X86801874Y-65908616D01*
X86830245Y-65712936D01*
X86830778Y-65709262D01*
X86832330Y-65650000D01*
X86820416Y-65520343D01*
X86813898Y-65449403D01*
X86813897Y-65449400D01*
X86813369Y-65443649D01*
X86792081Y-65368169D01*
X86792841Y-65297177D01*
X86824255Y-65244872D01*
X86914197Y-65154930D01*
X93687725Y-65154930D01*
X93705572Y-65381699D01*
X93707115Y-65391446D01*
X93760217Y-65612627D01*
X93763266Y-65622012D01*
X93850313Y-65832163D01*
X93854795Y-65840958D01*
X93957432Y-66008445D01*
X93967890Y-66017907D01*
X93976666Y-66014124D01*
X94827978Y-65162812D01*
X94834356Y-65151132D01*
X95564408Y-65151132D01*
X95564539Y-65152965D01*
X95568790Y-65159580D01*
X96420290Y-66011080D01*
X96432670Y-66017840D01*
X96440320Y-66012113D01*
X96545205Y-65840958D01*
X96549687Y-65832163D01*
X96636734Y-65622012D01*
X96639783Y-65612627D01*
X96692885Y-65391446D01*
X96694428Y-65381699D01*
X96712275Y-65154930D01*
X96712275Y-65145070D01*
X96694428Y-64918301D01*
X96692885Y-64908554D01*
X96639783Y-64687373D01*
X96636734Y-64677988D01*
X96549687Y-64467837D01*
X96545205Y-64459042D01*
X96442568Y-64291555D01*
X96432110Y-64282093D01*
X96423334Y-64285876D01*
X95572022Y-65137188D01*
X95564408Y-65151132D01*
X94834356Y-65151132D01*
X94835592Y-65148868D01*
X94835461Y-65147035D01*
X94831210Y-65140420D01*
X93979710Y-64288920D01*
X93967330Y-64282160D01*
X93959680Y-64287887D01*
X93854795Y-64459042D01*
X93850313Y-64467837D01*
X93763266Y-64677988D01*
X93760217Y-64687373D01*
X93707115Y-64908554D01*
X93705572Y-64918301D01*
X93687725Y-65145070D01*
X93687725Y-65154930D01*
X86914197Y-65154930D01*
X88151237Y-63917890D01*
X94332093Y-63917890D01*
X94335876Y-63926666D01*
X95187188Y-64777978D01*
X95201132Y-64785592D01*
X95202965Y-64785461D01*
X95209580Y-64781210D01*
X96061080Y-63929710D01*
X96067840Y-63917330D01*
X96062113Y-63909680D01*
X95890958Y-63804795D01*
X95882163Y-63800313D01*
X95672012Y-63713266D01*
X95662627Y-63710217D01*
X95441446Y-63657115D01*
X95431699Y-63655572D01*
X95204930Y-63637725D01*
X95195070Y-63637725D01*
X94968301Y-63655572D01*
X94958554Y-63657115D01*
X94737373Y-63710217D01*
X94727988Y-63713266D01*
X94517837Y-63800313D01*
X94509042Y-63804795D01*
X94341555Y-63907432D01*
X94332093Y-63917890D01*
X88151237Y-63917890D01*
X91373723Y-60695405D01*
X91436035Y-60661379D01*
X91462818Y-60658500D01*
X94113944Y-60658500D01*
X94182065Y-60678502D01*
X94218538Y-60716755D01*
X94219373Y-60716165D01*
X94330450Y-60873334D01*
X94338970Y-60885390D01*
X94487402Y-61029986D01*
X94492198Y-61033191D01*
X94492201Y-61033193D01*
X94630108Y-61125339D01*
X94659699Y-61145111D01*
X94665002Y-61147389D01*
X94665005Y-61147391D01*
X94836908Y-61221246D01*
X94850091Y-61226910D01*
X95052201Y-61272643D01*
X95057972Y-61272870D01*
X95057974Y-61272870D01*
X95127210Y-61275590D01*
X95259262Y-61280778D01*
X95464337Y-61251044D01*
X95477927Y-61246431D01*
X95548859Y-61243474D01*
X95607522Y-61276649D01*
X99891778Y-65560905D01*
X99925804Y-65623217D01*
X99920739Y-65694032D01*
X99891778Y-65739095D01*
X95606734Y-70024139D01*
X95544422Y-70058165D01*
X95493059Y-70058623D01*
X95318361Y-70023873D01*
X95312587Y-70023797D01*
X95312583Y-70023797D01*
X95207399Y-70022421D01*
X95111158Y-70021161D01*
X95105461Y-70022140D01*
X95105460Y-70022140D01*
X94912628Y-70055274D01*
X94912627Y-70055274D01*
X94906931Y-70056253D01*
X94712519Y-70127976D01*
X94707558Y-70130928D01*
X94707557Y-70130928D01*
X94577258Y-70208448D01*
X94534433Y-70233926D01*
X94378637Y-70370555D01*
X94250348Y-70533289D01*
X94247659Y-70538400D01*
X94247657Y-70538403D01*
X94203939Y-70621498D01*
X94153863Y-70716676D01*
X94092414Y-70914575D01*
X94068058Y-71120359D01*
X94081611Y-71327135D01*
X94132619Y-71527980D01*
X94219373Y-71716165D01*
X94222704Y-71720878D01*
X94222705Y-71720880D01*
X94330450Y-71873334D01*
X94338970Y-71885390D01*
X94487402Y-72029986D01*
X94492198Y-72033191D01*
X94492201Y-72033193D01*
X94630108Y-72125339D01*
X94659699Y-72145111D01*
X94665002Y-72147389D01*
X94665005Y-72147391D01*
X94829278Y-72217968D01*
X94850091Y-72226910D01*
X95052201Y-72272643D01*
X95057972Y-72272870D01*
X95057974Y-72272870D01*
X95127210Y-72275590D01*
X95259262Y-72280778D01*
X95361055Y-72266019D01*
X95458616Y-72251874D01*
X95458621Y-72251873D01*
X95464337Y-72251044D01*
X95469809Y-72249186D01*
X95469811Y-72249186D01*
X95655096Y-72186290D01*
X95655098Y-72186289D01*
X95660560Y-72184435D01*
X95841359Y-72083183D01*
X95854719Y-72072072D01*
X95996246Y-71954364D01*
X96000678Y-71950678D01*
X96133183Y-71791359D01*
X96234435Y-71610560D01*
X96265910Y-71517840D01*
X96299186Y-71419811D01*
X96299186Y-71419809D01*
X96301044Y-71414337D01*
X96301873Y-71408621D01*
X96301874Y-71408616D01*
X96330245Y-71212936D01*
X96330778Y-71209262D01*
X96332330Y-71150000D01*
X96320570Y-71022022D01*
X96313898Y-70949403D01*
X96313897Y-70949400D01*
X96313369Y-70943649D01*
X96292081Y-70868169D01*
X96292841Y-70797177D01*
X96324255Y-70744872D01*
X97651237Y-69417890D01*
X103832093Y-69417890D01*
X103835876Y-69426666D01*
X104687188Y-70277978D01*
X104701132Y-70285592D01*
X104702965Y-70285461D01*
X104709580Y-70281210D01*
X105561080Y-69429710D01*
X105567840Y-69417330D01*
X105562113Y-69409680D01*
X105390958Y-69304795D01*
X105382163Y-69300313D01*
X105172012Y-69213266D01*
X105162627Y-69210217D01*
X104941446Y-69157115D01*
X104931699Y-69155572D01*
X104704930Y-69137725D01*
X104695070Y-69137725D01*
X104468301Y-69155572D01*
X104458554Y-69157115D01*
X104237373Y-69210217D01*
X104227988Y-69213266D01*
X104017837Y-69300313D01*
X104009042Y-69304795D01*
X103841555Y-69407432D01*
X103832093Y-69417890D01*
X97651237Y-69417890D01*
X100873723Y-66195405D01*
X100936035Y-66161379D01*
X100962818Y-66158500D01*
X103613944Y-66158500D01*
X103682065Y-66178502D01*
X103718538Y-66216755D01*
X103719373Y-66216165D01*
X103830450Y-66373334D01*
X103838970Y-66385390D01*
X103987402Y-66529986D01*
X103992198Y-66533191D01*
X103992201Y-66533193D01*
X104082326Y-66593412D01*
X104159699Y-66645111D01*
X104165002Y-66647389D01*
X104165005Y-66647391D01*
X104344584Y-66724544D01*
X104350091Y-66726910D01*
X104552201Y-66772643D01*
X104557972Y-66772870D01*
X104557974Y-66772870D01*
X104627210Y-66775590D01*
X104759262Y-66780778D01*
X104847561Y-66767975D01*
X104958616Y-66751874D01*
X104958621Y-66751873D01*
X104964337Y-66751044D01*
X104969809Y-66749186D01*
X104969811Y-66749186D01*
X105155096Y-66686290D01*
X105155098Y-66686289D01*
X105160560Y-66684435D01*
X105333086Y-66587816D01*
X105336322Y-66586004D01*
X105336323Y-66586003D01*
X105341359Y-66583183D01*
X105500678Y-66450678D01*
X105633183Y-66291359D01*
X105734435Y-66110560D01*
X105756487Y-66045599D01*
X105789924Y-65947095D01*
X109617001Y-65947095D01*
X109617338Y-65953614D01*
X109627257Y-66049206D01*
X109630149Y-66062600D01*
X109681588Y-66216784D01*
X109687761Y-66229962D01*
X109773063Y-66367807D01*
X109782099Y-66379208D01*
X109896829Y-66493739D01*
X109908240Y-66502751D01*
X110046243Y-66587816D01*
X110059424Y-66593963D01*
X110213710Y-66645138D01*
X110227086Y-66648005D01*
X110321438Y-66657672D01*
X110327854Y-66658000D01*
X110727885Y-66658000D01*
X110743124Y-66653525D01*
X110744329Y-66652135D01*
X110746000Y-66644452D01*
X110746000Y-66639884D01*
X111254000Y-66639884D01*
X111258475Y-66655123D01*
X111259865Y-66656328D01*
X111267548Y-66657999D01*
X111672095Y-66657999D01*
X111678614Y-66657662D01*
X111774206Y-66647743D01*
X111787600Y-66644851D01*
X111941784Y-66593412D01*
X111954962Y-66587239D01*
X112092807Y-66501937D01*
X112104208Y-66492901D01*
X112218739Y-66378171D01*
X112227751Y-66366760D01*
X112312816Y-66228757D01*
X112318963Y-66215576D01*
X112370138Y-66061290D01*
X112373005Y-66047914D01*
X112382672Y-65953562D01*
X112383000Y-65947146D01*
X112383000Y-65822115D01*
X112378525Y-65806876D01*
X112377135Y-65805671D01*
X112369452Y-65804000D01*
X111272115Y-65804000D01*
X111256876Y-65808475D01*
X111255671Y-65809865D01*
X111254000Y-65817548D01*
X111254000Y-66639884D01*
X110746000Y-66639884D01*
X110746000Y-65822115D01*
X110741525Y-65806876D01*
X110740135Y-65805671D01*
X110732452Y-65804000D01*
X109635116Y-65804000D01*
X109619877Y-65808475D01*
X109618672Y-65809865D01*
X109617001Y-65817548D01*
X109617001Y-65947095D01*
X105789924Y-65947095D01*
X105799186Y-65919811D01*
X105799186Y-65919809D01*
X105801044Y-65914337D01*
X105801873Y-65908621D01*
X105801874Y-65908616D01*
X105830245Y-65712936D01*
X105830778Y-65709262D01*
X105832330Y-65650000D01*
X105820416Y-65520343D01*
X105813898Y-65449403D01*
X105813897Y-65449400D01*
X105813369Y-65443649D01*
X105806788Y-65420312D01*
X105766619Y-65277885D01*
X109617000Y-65277885D01*
X109621475Y-65293124D01*
X109622865Y-65294329D01*
X109630548Y-65296000D01*
X112364884Y-65296000D01*
X112380123Y-65291525D01*
X112381328Y-65290135D01*
X112382999Y-65282452D01*
X112382999Y-65152905D01*
X112382662Y-65146386D01*
X112372743Y-65050794D01*
X112369851Y-65037400D01*
X112318412Y-64883216D01*
X112312239Y-64870038D01*
X112226937Y-64732193D01*
X112217901Y-64720792D01*
X112103171Y-64606261D01*
X112091760Y-64597249D01*
X111953757Y-64512184D01*
X111940576Y-64506037D01*
X111786290Y-64454862D01*
X111772914Y-64451995D01*
X111678562Y-64442328D01*
X111672145Y-64442000D01*
X111660661Y-64442000D01*
X111592540Y-64421998D01*
X111546047Y-64368342D01*
X111535943Y-64298068D01*
X111565437Y-64233488D01*
X111601527Y-64205447D01*
X111602962Y-64204926D01*
X111744832Y-64111912D01*
X111861498Y-63988757D01*
X111946703Y-63842065D01*
X111995877Y-63679706D01*
X112006381Y-63510390D01*
X111977652Y-63343198D01*
X111911232Y-63187100D01*
X111906899Y-63181212D01*
X111906896Y-63181207D01*
X111815024Y-63056367D01*
X111815020Y-63056363D01*
X111810682Y-63050468D01*
X111681397Y-62940633D01*
X111530313Y-62863485D01*
X111523203Y-62861745D01*
X111523200Y-62861744D01*
X111441294Y-62841702D01*
X111365532Y-62823163D01*
X111358185Y-62822707D01*
X111356785Y-62822620D01*
X111356772Y-62822620D01*
X111354844Y-62822500D01*
X110682517Y-62822500D01*
X110615565Y-62830306D01*
X110563769Y-62836344D01*
X110563766Y-62836345D01*
X110556499Y-62837192D01*
X110549624Y-62839688D01*
X110549622Y-62839688D01*
X110403914Y-62892578D01*
X110397038Y-62895074D01*
X110255168Y-62988088D01*
X110138502Y-63111243D01*
X110053297Y-63257935D01*
X110004123Y-63420294D01*
X109993619Y-63589610D01*
X109994859Y-63596826D01*
X109994859Y-63596828D01*
X110007845Y-63672401D01*
X110022348Y-63756802D01*
X110088768Y-63912900D01*
X110093101Y-63918788D01*
X110093104Y-63918793D01*
X110184976Y-64043633D01*
X110184980Y-64043637D01*
X110189318Y-64049532D01*
X110318603Y-64159367D01*
X110405588Y-64203784D01*
X110457161Y-64252578D01*
X110474167Y-64321507D01*
X110451207Y-64388689D01*
X110395571Y-64432793D01*
X110348287Y-64442001D01*
X110327905Y-64442001D01*
X110321386Y-64442338D01*
X110225794Y-64452257D01*
X110212400Y-64455149D01*
X110058216Y-64506588D01*
X110045038Y-64512761D01*
X109907193Y-64598063D01*
X109895792Y-64607099D01*
X109781261Y-64721829D01*
X109772249Y-64733240D01*
X109687184Y-64871243D01*
X109681037Y-64884424D01*
X109629862Y-65038710D01*
X109626995Y-65052086D01*
X109617328Y-65146438D01*
X109617000Y-65152855D01*
X109617000Y-65277885D01*
X105766619Y-65277885D01*
X105758689Y-65249768D01*
X105758688Y-65249766D01*
X105757121Y-65244209D01*
X105746265Y-65222194D01*
X105668025Y-65063540D01*
X105665470Y-65058359D01*
X105650798Y-65038710D01*
X105544938Y-64896947D01*
X105544937Y-64896946D01*
X105541485Y-64892323D01*
X105436005Y-64794818D01*
X105393559Y-64755581D01*
X105393556Y-64755579D01*
X105389319Y-64751662D01*
X105329184Y-64713720D01*
X105218951Y-64644168D01*
X105218946Y-64644166D01*
X105214067Y-64641087D01*
X105021599Y-64564300D01*
X104818361Y-64523873D01*
X104812587Y-64523797D01*
X104812583Y-64523797D01*
X104707399Y-64522421D01*
X104611158Y-64521161D01*
X104605461Y-64522140D01*
X104605460Y-64522140D01*
X104412628Y-64555274D01*
X104412627Y-64555274D01*
X104406931Y-64556253D01*
X104212519Y-64627976D01*
X104207558Y-64630928D01*
X104207557Y-64630928D01*
X104064250Y-64716187D01*
X104034433Y-64733926D01*
X103878637Y-64870555D01*
X103750348Y-65033289D01*
X103730386Y-65071230D01*
X103728840Y-65074169D01*
X103679420Y-65125141D01*
X103617332Y-65141500D01*
X100962817Y-65141500D01*
X100894696Y-65121498D01*
X100873722Y-65104595D01*
X96651797Y-60882670D01*
X103832160Y-60882670D01*
X103837887Y-60890320D01*
X104009042Y-60995205D01*
X104017837Y-60999687D01*
X104227988Y-61086734D01*
X104237373Y-61089783D01*
X104458554Y-61142885D01*
X104468301Y-61144428D01*
X104695070Y-61162275D01*
X104704930Y-61162275D01*
X104931699Y-61144428D01*
X104941446Y-61142885D01*
X105162627Y-61089783D01*
X105172012Y-61086734D01*
X105382163Y-60999687D01*
X105390958Y-60995205D01*
X105558445Y-60892568D01*
X105567907Y-60882110D01*
X105564124Y-60873334D01*
X104712812Y-60022022D01*
X104698868Y-60014408D01*
X104697035Y-60014539D01*
X104690420Y-60018790D01*
X103838920Y-60870290D01*
X103832160Y-60882670D01*
X96651797Y-60882670D01*
X96326649Y-60557522D01*
X96292623Y-60495210D01*
X96296431Y-60427927D01*
X96301044Y-60414337D01*
X96330778Y-60209262D01*
X96332330Y-60150000D01*
X96320570Y-60022022D01*
X96313898Y-59949403D01*
X96313897Y-59949400D01*
X96313369Y-59943649D01*
X96292081Y-59868169D01*
X96292841Y-59797177D01*
X96324255Y-59744872D01*
X96414197Y-59654930D01*
X103187725Y-59654930D01*
X103205572Y-59881699D01*
X103207115Y-59891446D01*
X103260217Y-60112627D01*
X103263266Y-60122012D01*
X103350313Y-60332163D01*
X103354795Y-60340958D01*
X103457432Y-60508445D01*
X103467890Y-60517907D01*
X103476666Y-60514124D01*
X104327978Y-59662812D01*
X104334356Y-59651132D01*
X105064408Y-59651132D01*
X105064539Y-59652965D01*
X105068790Y-59659580D01*
X105920290Y-60511080D01*
X105932670Y-60517840D01*
X105940320Y-60512113D01*
X106045205Y-60340958D01*
X106049687Y-60332163D01*
X106136734Y-60122012D01*
X106139783Y-60112627D01*
X106192885Y-59891446D01*
X106194428Y-59881699D01*
X106212275Y-59654930D01*
X106212275Y-59645070D01*
X106194428Y-59418301D01*
X106192885Y-59408554D01*
X106139783Y-59187373D01*
X106136734Y-59177988D01*
X106049687Y-58967837D01*
X106045205Y-58959042D01*
X105942568Y-58791555D01*
X105932110Y-58782093D01*
X105923334Y-58785876D01*
X105072022Y-59637188D01*
X105064408Y-59651132D01*
X104334356Y-59651132D01*
X104335592Y-59648868D01*
X104335461Y-59647035D01*
X104331210Y-59640420D01*
X103479710Y-58788920D01*
X103467330Y-58782160D01*
X103459680Y-58787887D01*
X103354795Y-58959042D01*
X103350313Y-58967837D01*
X103263266Y-59177988D01*
X103260217Y-59187373D01*
X103207115Y-59408554D01*
X103205572Y-59418301D01*
X103187725Y-59645070D01*
X103187725Y-59654930D01*
X96414197Y-59654930D01*
X97651237Y-58417890D01*
X103832093Y-58417890D01*
X103835876Y-58426666D01*
X104687188Y-59277978D01*
X104701132Y-59285592D01*
X104702965Y-59285461D01*
X104709580Y-59281210D01*
X105561080Y-58429710D01*
X105567840Y-58417330D01*
X105562113Y-58409680D01*
X105390958Y-58304795D01*
X105382163Y-58300313D01*
X105172012Y-58213266D01*
X105162627Y-58210217D01*
X104941446Y-58157115D01*
X104931699Y-58155572D01*
X104704930Y-58137725D01*
X104695070Y-58137725D01*
X104468301Y-58155572D01*
X104458554Y-58157115D01*
X104237373Y-58210217D01*
X104227988Y-58213266D01*
X104017837Y-58300313D01*
X104009042Y-58304795D01*
X103841555Y-58407432D01*
X103832093Y-58417890D01*
X97651237Y-58417890D01*
X99424934Y-56644194D01*
X99974798Y-56644194D01*
X99975962Y-56653095D01*
X99975962Y-56653099D01*
X99978892Y-56675501D01*
X99992270Y-56777801D01*
X100046537Y-56901133D01*
X100052315Y-56908006D01*
X100052315Y-56908007D01*
X100089770Y-56952565D01*
X100133239Y-57004278D01*
X100157373Y-57020343D01*
X100235588Y-57072407D01*
X100245405Y-57078942D01*
X100374019Y-57119124D01*
X100508740Y-57121593D01*
X100562494Y-57106938D01*
X100630080Y-57088512D01*
X100630082Y-57088511D01*
X100638739Y-57086151D01*
X100753566Y-57015647D01*
X100816657Y-56945945D01*
X100877200Y-56908864D01*
X100910072Y-56904500D01*
X104290679Y-56904500D01*
X104358800Y-56924502D01*
X104387128Y-56949422D01*
X104433239Y-57004278D01*
X104457373Y-57020343D01*
X104535588Y-57072407D01*
X104545405Y-57078942D01*
X104674019Y-57119124D01*
X104808740Y-57121593D01*
X104862494Y-57106938D01*
X104930080Y-57088512D01*
X104930082Y-57088511D01*
X104938739Y-57086151D01*
X105053566Y-57015647D01*
X105114915Y-56947870D01*
X105137961Y-56922409D01*
X105137962Y-56922408D01*
X105143989Y-56915749D01*
X105151071Y-56901133D01*
X105198826Y-56802567D01*
X105198827Y-56802565D01*
X105202740Y-56794488D01*
X105225095Y-56661611D01*
X105225237Y-56650000D01*
X105210516Y-56547209D01*
X105207408Y-56525503D01*
X105207407Y-56525500D01*
X105206135Y-56516617D01*
X105194913Y-56491934D01*
X105169908Y-56436939D01*
X105150365Y-56393956D01*
X105140370Y-56382356D01*
X105068269Y-56298679D01*
X105068266Y-56298677D01*
X105062409Y-56291879D01*
X104949339Y-56218591D01*
X104832440Y-56183630D01*
X104828846Y-56182555D01*
X104828844Y-56182555D01*
X104820245Y-56179983D01*
X104811270Y-56179928D01*
X104811269Y-56179928D01*
X104752874Y-56179571D01*
X104685503Y-56179160D01*
X104676871Y-56181627D01*
X104564577Y-56213720D01*
X104564575Y-56213721D01*
X104555946Y-56216187D01*
X104548355Y-56220976D01*
X104548354Y-56220977D01*
X104492818Y-56256018D01*
X104441989Y-56288089D01*
X104387215Y-56350109D01*
X104384743Y-56352908D01*
X104324658Y-56390726D01*
X104290302Y-56395500D01*
X100909449Y-56395500D01*
X100841328Y-56375498D01*
X100813996Y-56351748D01*
X100768269Y-56298679D01*
X100768266Y-56298677D01*
X100762409Y-56291879D01*
X100649339Y-56218591D01*
X100532440Y-56183630D01*
X100528846Y-56182555D01*
X100528844Y-56182555D01*
X100520245Y-56179983D01*
X100511270Y-56179928D01*
X100511269Y-56179928D01*
X100452874Y-56179571D01*
X100385503Y-56179160D01*
X100376871Y-56181627D01*
X100264577Y-56213720D01*
X100264575Y-56213721D01*
X100255946Y-56216187D01*
X100248355Y-56220976D01*
X100248354Y-56220977D01*
X100192818Y-56256018D01*
X100141989Y-56288089D01*
X100136047Y-56294818D01*
X100136046Y-56294818D01*
X100105909Y-56328942D01*
X100052793Y-56389084D01*
X100048979Y-56397207D01*
X100048978Y-56397209D01*
X100005051Y-56490773D01*
X99995529Y-56511054D01*
X99974798Y-56644194D01*
X99424934Y-56644194D01*
X100873723Y-55195405D01*
X100936035Y-55161379D01*
X100962818Y-55158500D01*
X103613944Y-55158500D01*
X103682065Y-55178502D01*
X103718538Y-55216755D01*
X103719373Y-55216165D01*
X103830450Y-55373334D01*
X103838970Y-55385390D01*
X103884690Y-55429928D01*
X103926828Y-55470977D01*
X103987402Y-55529986D01*
X103992198Y-55533191D01*
X103992201Y-55533193D01*
X104078375Y-55590772D01*
X104159699Y-55645111D01*
X104165002Y-55647389D01*
X104165005Y-55647391D01*
X104325635Y-55716403D01*
X104350091Y-55726910D01*
X104552201Y-55772643D01*
X104557972Y-55772870D01*
X104557974Y-55772870D01*
X104624946Y-55775501D01*
X104759262Y-55780778D01*
X104856944Y-55766615D01*
X104958616Y-55751874D01*
X104958621Y-55751873D01*
X104964337Y-55751044D01*
X104969809Y-55749186D01*
X104969811Y-55749186D01*
X105155096Y-55686290D01*
X105155098Y-55686289D01*
X105160560Y-55684435D01*
X105325735Y-55591933D01*
X105336322Y-55586004D01*
X105336323Y-55586003D01*
X105341359Y-55583183D01*
X105500678Y-55450678D01*
X105633183Y-55291359D01*
X105734435Y-55110560D01*
X105765910Y-55017840D01*
X105799186Y-54919811D01*
X105799186Y-54919809D01*
X105801044Y-54914337D01*
X105801873Y-54908621D01*
X105801874Y-54908616D01*
X105830245Y-54712936D01*
X105830778Y-54709262D01*
X105832330Y-54650000D01*
X105820570Y-54522022D01*
X105813898Y-54449403D01*
X105813897Y-54449400D01*
X105813369Y-54443649D01*
X105806788Y-54420312D01*
X105758689Y-54249768D01*
X105758688Y-54249766D01*
X105757121Y-54244209D01*
X105746265Y-54222194D01*
X105668025Y-54063540D01*
X105665470Y-54058359D01*
X105643362Y-54028752D01*
X105544938Y-53896947D01*
X105544937Y-53896946D01*
X105541485Y-53892323D01*
X105421284Y-53781210D01*
X105393559Y-53755581D01*
X105393556Y-53755579D01*
X105389319Y-53751662D01*
X105343145Y-53722529D01*
X105218951Y-53644168D01*
X105218946Y-53644166D01*
X105214067Y-53641087D01*
X105021599Y-53564300D01*
X104818361Y-53523873D01*
X104812587Y-53523797D01*
X104812583Y-53523797D01*
X104707399Y-53522421D01*
X104611158Y-53521161D01*
X104605461Y-53522140D01*
X104605460Y-53522140D01*
X104412628Y-53555274D01*
X104412627Y-53555274D01*
X104406931Y-53556253D01*
X104212519Y-53627976D01*
X104207558Y-53630928D01*
X104207557Y-53630928D01*
X104112682Y-53687373D01*
X104034433Y-53733926D01*
X103878637Y-53870555D01*
X103750348Y-54033289D01*
X103730386Y-54071230D01*
X103728840Y-54074169D01*
X103679420Y-54125141D01*
X103617332Y-54141500D01*
X100962817Y-54141500D01*
X100894696Y-54121498D01*
X100873722Y-54104595D01*
X96651797Y-49882670D01*
X103832160Y-49882670D01*
X103837887Y-49890320D01*
X104009042Y-49995205D01*
X104017837Y-49999687D01*
X104227988Y-50086734D01*
X104237373Y-50089783D01*
X104458554Y-50142885D01*
X104468301Y-50144428D01*
X104695070Y-50162275D01*
X104704930Y-50162275D01*
X104931699Y-50144428D01*
X104941446Y-50142885D01*
X105162627Y-50089783D01*
X105172012Y-50086734D01*
X105382163Y-49999687D01*
X105390958Y-49995205D01*
X105558445Y-49892568D01*
X105567907Y-49882110D01*
X105564124Y-49873334D01*
X104712812Y-49022022D01*
X104698868Y-49014408D01*
X104697035Y-49014539D01*
X104690420Y-49018790D01*
X103838920Y-49870290D01*
X103832160Y-49882670D01*
X96651797Y-49882670D01*
X96326649Y-49557522D01*
X96292623Y-49495210D01*
X96296431Y-49427927D01*
X96301044Y-49414337D01*
X96330778Y-49209262D01*
X96332330Y-49150000D01*
X96320570Y-49022022D01*
X96313898Y-48949403D01*
X96313897Y-48949400D01*
X96313369Y-48943649D01*
X96292081Y-48868169D01*
X96292841Y-48797177D01*
X96324255Y-48744872D01*
X96414197Y-48654930D01*
X103187725Y-48654930D01*
X103205572Y-48881699D01*
X103207115Y-48891446D01*
X103260217Y-49112627D01*
X103263266Y-49122012D01*
X103350313Y-49332163D01*
X103354795Y-49340958D01*
X103457432Y-49508445D01*
X103467890Y-49517907D01*
X103476666Y-49514124D01*
X104327978Y-48662812D01*
X104334356Y-48651132D01*
X105064408Y-48651132D01*
X105064539Y-48652965D01*
X105068790Y-48659580D01*
X105920290Y-49511080D01*
X105932670Y-49517840D01*
X105940320Y-49512113D01*
X106045205Y-49340958D01*
X106049687Y-49332163D01*
X106136734Y-49122012D01*
X106139783Y-49112627D01*
X106192885Y-48891446D01*
X106194428Y-48881699D01*
X106212275Y-48654930D01*
X106212275Y-48645070D01*
X106194428Y-48418301D01*
X106192885Y-48408554D01*
X106139783Y-48187373D01*
X106136734Y-48177988D01*
X106049687Y-47967837D01*
X106045205Y-47959042D01*
X105942568Y-47791555D01*
X105932110Y-47782093D01*
X105923334Y-47785876D01*
X105072022Y-48637188D01*
X105064408Y-48651132D01*
X104334356Y-48651132D01*
X104335592Y-48648868D01*
X104335461Y-48647035D01*
X104331210Y-48640420D01*
X103479710Y-47788920D01*
X103467330Y-47782160D01*
X103459680Y-47787887D01*
X103354795Y-47959042D01*
X103350313Y-47967837D01*
X103263266Y-48177988D01*
X103260217Y-48187373D01*
X103207115Y-48408554D01*
X103205572Y-48418301D01*
X103187725Y-48645070D01*
X103187725Y-48654930D01*
X96414197Y-48654930D01*
X97651237Y-47417890D01*
X103832093Y-47417890D01*
X103835876Y-47426666D01*
X104687188Y-48277978D01*
X104701132Y-48285592D01*
X104702965Y-48285461D01*
X104709580Y-48281210D01*
X105561080Y-47429710D01*
X105567840Y-47417330D01*
X105562113Y-47409680D01*
X105390958Y-47304795D01*
X105382163Y-47300313D01*
X105172012Y-47213266D01*
X105162627Y-47210217D01*
X104941446Y-47157115D01*
X104931699Y-47155572D01*
X104704930Y-47137725D01*
X104695070Y-47137725D01*
X104468301Y-47155572D01*
X104458554Y-47157115D01*
X104237373Y-47210217D01*
X104227988Y-47213266D01*
X104017837Y-47300313D01*
X104009042Y-47304795D01*
X103841555Y-47407432D01*
X103832093Y-47417890D01*
X97651237Y-47417890D01*
X100873723Y-44195405D01*
X100936035Y-44161379D01*
X100962818Y-44158500D01*
X103613944Y-44158500D01*
X103682065Y-44178502D01*
X103718538Y-44216755D01*
X103719373Y-44216165D01*
X103830450Y-44373334D01*
X103838970Y-44385390D01*
X103987402Y-44529986D01*
X103992198Y-44533191D01*
X103992201Y-44533193D01*
X104130108Y-44625339D01*
X104159699Y-44645111D01*
X104165002Y-44647389D01*
X104165005Y-44647391D01*
X104344584Y-44724544D01*
X104350091Y-44726910D01*
X104552201Y-44772643D01*
X104557972Y-44772870D01*
X104557974Y-44772870D01*
X104627210Y-44775590D01*
X104759262Y-44780778D01*
X104847561Y-44767975D01*
X104958616Y-44751874D01*
X104958621Y-44751873D01*
X104964337Y-44751044D01*
X104969809Y-44749186D01*
X104969811Y-44749186D01*
X105155096Y-44686290D01*
X105155098Y-44686289D01*
X105160560Y-44684435D01*
X105341359Y-44583183D01*
X105500678Y-44450678D01*
X105633183Y-44291359D01*
X105734435Y-44110560D01*
X105765910Y-44017840D01*
X105799186Y-43919811D01*
X105799186Y-43919809D01*
X105801044Y-43914337D01*
X105801873Y-43908621D01*
X105801874Y-43908616D01*
X105830245Y-43712936D01*
X105830778Y-43709262D01*
X105832330Y-43650000D01*
X105820570Y-43522022D01*
X105813898Y-43449403D01*
X105813897Y-43449400D01*
X105813369Y-43443649D01*
X105806788Y-43420312D01*
X105758689Y-43249768D01*
X105758688Y-43249766D01*
X105757121Y-43244209D01*
X105746694Y-43223064D01*
X105668025Y-43063540D01*
X105665470Y-43058359D01*
X105643362Y-43028752D01*
X105544938Y-42896947D01*
X105544937Y-42896946D01*
X105541485Y-42892323D01*
X105421284Y-42781210D01*
X105393559Y-42755581D01*
X105393556Y-42755579D01*
X105389319Y-42751662D01*
X105343145Y-42722529D01*
X105218951Y-42644168D01*
X105218946Y-42644166D01*
X105214067Y-42641087D01*
X105021599Y-42564300D01*
X104818361Y-42523873D01*
X104812587Y-42523797D01*
X104812583Y-42523797D01*
X104707399Y-42522421D01*
X104611158Y-42521161D01*
X104605461Y-42522140D01*
X104605460Y-42522140D01*
X104412628Y-42555274D01*
X104412627Y-42555274D01*
X104406931Y-42556253D01*
X104212519Y-42627976D01*
X104207558Y-42630928D01*
X104207557Y-42630928D01*
X104112682Y-42687373D01*
X104034433Y-42733926D01*
X103878637Y-42870555D01*
X103750348Y-43033289D01*
X103730386Y-43071230D01*
X103728840Y-43074169D01*
X103679420Y-43125141D01*
X103617332Y-43141500D01*
X100771073Y-43141500D01*
X100758943Y-43140145D01*
X100758904Y-43140627D01*
X100749957Y-43139907D01*
X100741201Y-43137926D01*
X100687492Y-43141258D01*
X100679690Y-43141500D01*
X100663487Y-43141500D01*
X100654571Y-43142777D01*
X100653122Y-43142984D01*
X100643072Y-43144013D01*
X100604782Y-43146389D01*
X100604781Y-43146389D01*
X100595823Y-43146945D01*
X100587382Y-43149993D01*
X100584468Y-43150596D01*
X100567534Y-43154818D01*
X100564695Y-43155648D01*
X100555813Y-43156920D01*
X100512700Y-43176523D01*
X100503349Y-43180329D01*
X100467262Y-43193356D01*
X100467260Y-43193357D01*
X100458820Y-43196404D01*
X100451576Y-43201696D01*
X100448982Y-43203075D01*
X100433843Y-43211922D01*
X100431383Y-43213495D01*
X100423218Y-43217208D01*
X100416424Y-43223062D01*
X100416421Y-43223064D01*
X100401338Y-43236061D01*
X100387343Y-43248119D01*
X100379428Y-43254403D01*
X100372382Y-43259550D01*
X100372375Y-43259556D01*
X100368448Y-43262425D01*
X100357473Y-43273400D01*
X100350626Y-43279758D01*
X100312873Y-43312287D01*
X100307989Y-43319822D01*
X100302542Y-43326066D01*
X100292942Y-43337931D01*
X95606734Y-48024139D01*
X95544422Y-48058165D01*
X95493059Y-48058623D01*
X95318361Y-48023873D01*
X95312587Y-48023797D01*
X95312583Y-48023797D01*
X95207399Y-48022421D01*
X95111158Y-48021161D01*
X95105461Y-48022140D01*
X95105460Y-48022140D01*
X94912628Y-48055274D01*
X94912627Y-48055274D01*
X94906931Y-48056253D01*
X94712519Y-48127976D01*
X94707558Y-48130928D01*
X94707557Y-48130928D01*
X94612682Y-48187373D01*
X94534433Y-48233926D01*
X94378637Y-48370555D01*
X94250348Y-48533289D01*
X94247659Y-48538400D01*
X94247657Y-48538403D01*
X94230386Y-48571230D01*
X94153863Y-48716676D01*
X94092414Y-48914575D01*
X94068058Y-49120359D01*
X94081611Y-49327135D01*
X94132619Y-49527980D01*
X94219373Y-49716165D01*
X94222704Y-49720878D01*
X94222705Y-49720880D01*
X94330450Y-49873334D01*
X94338970Y-49885390D01*
X94487402Y-50029986D01*
X94492198Y-50033191D01*
X94492201Y-50033193D01*
X94630108Y-50125339D01*
X94659699Y-50145111D01*
X94665002Y-50147389D01*
X94665005Y-50147391D01*
X94836908Y-50221246D01*
X94850091Y-50226910D01*
X94948550Y-50249189D01*
X95045652Y-50271161D01*
X95052201Y-50272643D01*
X95057972Y-50272870D01*
X95057974Y-50272870D01*
X95127210Y-50275590D01*
X95259262Y-50280778D01*
X95464337Y-50251044D01*
X95477927Y-50246431D01*
X95548859Y-50243474D01*
X95607522Y-50276649D01*
X99891778Y-54560905D01*
X99925804Y-54623217D01*
X99920739Y-54694032D01*
X99891778Y-54739095D01*
X95606734Y-59024139D01*
X95544422Y-59058165D01*
X95493059Y-59058623D01*
X95318361Y-59023873D01*
X95312587Y-59023797D01*
X95312583Y-59023797D01*
X95207399Y-59022421D01*
X95111158Y-59021161D01*
X95105461Y-59022140D01*
X95105460Y-59022140D01*
X94912628Y-59055274D01*
X94912627Y-59055274D01*
X94906931Y-59056253D01*
X94712519Y-59127976D01*
X94707558Y-59130928D01*
X94707557Y-59130928D01*
X94612682Y-59187373D01*
X94534433Y-59233926D01*
X94378637Y-59370555D01*
X94250348Y-59533289D01*
X94237158Y-59558359D01*
X94228840Y-59574169D01*
X94179420Y-59625141D01*
X94117332Y-59641500D01*
X91462817Y-59641500D01*
X91394696Y-59621498D01*
X91373722Y-59604595D01*
X87151797Y-55382670D01*
X94332160Y-55382670D01*
X94337887Y-55390320D01*
X94509042Y-55495205D01*
X94517837Y-55499687D01*
X94727988Y-55586734D01*
X94737373Y-55589783D01*
X94958554Y-55642885D01*
X94968301Y-55644428D01*
X95195070Y-55662275D01*
X95204930Y-55662275D01*
X95431699Y-55644428D01*
X95441446Y-55642885D01*
X95662627Y-55589783D01*
X95672012Y-55586734D01*
X95882163Y-55499687D01*
X95890958Y-55495205D01*
X96058445Y-55392568D01*
X96067907Y-55382110D01*
X96064124Y-55373334D01*
X95212812Y-54522022D01*
X95198868Y-54514408D01*
X95197035Y-54514539D01*
X95190420Y-54518790D01*
X94338920Y-55370290D01*
X94332160Y-55382670D01*
X87151797Y-55382670D01*
X86826649Y-55057522D01*
X86792623Y-54995210D01*
X86796431Y-54927927D01*
X86801044Y-54914337D01*
X86830778Y-54709262D01*
X86832330Y-54650000D01*
X86820570Y-54522022D01*
X86813898Y-54449403D01*
X86813897Y-54449400D01*
X86813369Y-54443649D01*
X86806788Y-54420312D01*
X86758689Y-54249768D01*
X86758688Y-54249766D01*
X86757121Y-54244209D01*
X86746265Y-54222194D01*
X86713094Y-54154930D01*
X93687725Y-54154930D01*
X93705572Y-54381699D01*
X93707115Y-54391446D01*
X93760217Y-54612627D01*
X93763266Y-54622012D01*
X93850313Y-54832163D01*
X93854795Y-54840958D01*
X93957432Y-55008445D01*
X93967890Y-55017907D01*
X93976666Y-55014124D01*
X94827978Y-54162812D01*
X94834356Y-54151132D01*
X95564408Y-54151132D01*
X95564539Y-54152965D01*
X95568790Y-54159580D01*
X96420290Y-55011080D01*
X96432670Y-55017840D01*
X96440320Y-55012113D01*
X96545205Y-54840958D01*
X96549687Y-54832163D01*
X96636734Y-54622012D01*
X96639783Y-54612627D01*
X96692885Y-54391446D01*
X96694428Y-54381699D01*
X96712275Y-54154930D01*
X96712275Y-54145070D01*
X96694428Y-53918301D01*
X96692885Y-53908554D01*
X96639783Y-53687373D01*
X96636734Y-53677988D01*
X96549687Y-53467837D01*
X96545205Y-53459042D01*
X96442568Y-53291555D01*
X96432110Y-53282093D01*
X96423334Y-53285876D01*
X95572022Y-54137188D01*
X95564408Y-54151132D01*
X94834356Y-54151132D01*
X94835592Y-54148868D01*
X94835461Y-54147035D01*
X94831210Y-54140420D01*
X93979710Y-53288920D01*
X93967330Y-53282160D01*
X93959680Y-53287887D01*
X93854795Y-53459042D01*
X93850313Y-53467837D01*
X93763266Y-53677988D01*
X93760217Y-53687373D01*
X93707115Y-53908554D01*
X93705572Y-53918301D01*
X93687725Y-54145070D01*
X93687725Y-54154930D01*
X86713094Y-54154930D01*
X86668025Y-54063540D01*
X86665470Y-54058359D01*
X86643362Y-54028752D01*
X86544938Y-53896947D01*
X86544937Y-53896946D01*
X86541485Y-53892323D01*
X86421284Y-53781210D01*
X86393559Y-53755581D01*
X86393556Y-53755579D01*
X86389319Y-53751662D01*
X86343145Y-53722529D01*
X86218951Y-53644168D01*
X86218946Y-53644166D01*
X86214067Y-53641087D01*
X86021599Y-53564300D01*
X85818361Y-53523873D01*
X85812587Y-53523797D01*
X85812583Y-53523797D01*
X85707399Y-53522421D01*
X85611158Y-53521161D01*
X85605461Y-53522140D01*
X85605460Y-53522140D01*
X85588816Y-53525000D01*
X85406931Y-53556253D01*
X85406704Y-53554932D01*
X85342340Y-53553403D01*
X85291606Y-53522479D01*
X83713321Y-51944194D01*
X93874798Y-51944194D01*
X93875962Y-51953095D01*
X93875962Y-51953099D01*
X93891106Y-52068902D01*
X93892270Y-52077801D01*
X93946537Y-52201133D01*
X93952315Y-52208006D01*
X93952315Y-52208007D01*
X93964421Y-52222409D01*
X94033239Y-52304278D01*
X94145405Y-52378942D01*
X94274019Y-52419124D01*
X94408740Y-52421593D01*
X94468634Y-52405264D01*
X94530080Y-52388512D01*
X94530082Y-52388511D01*
X94538739Y-52386151D01*
X94653566Y-52315647D01*
X94706601Y-52257054D01*
X94767145Y-52219972D01*
X94838125Y-52221510D01*
X94896467Y-52260532D01*
X94933239Y-52304278D01*
X95045405Y-52378942D01*
X95053972Y-52381619D01*
X95053973Y-52381619D01*
X95114084Y-52400399D01*
X95173140Y-52439806D01*
X95201517Y-52504885D01*
X95190204Y-52574974D01*
X95142794Y-52627821D01*
X95086394Y-52646278D01*
X94968302Y-52655572D01*
X94958554Y-52657115D01*
X94737373Y-52710217D01*
X94727988Y-52713266D01*
X94517837Y-52800313D01*
X94509042Y-52804795D01*
X94341555Y-52907432D01*
X94332093Y-52917890D01*
X94335876Y-52926666D01*
X95187188Y-53777978D01*
X95201132Y-53785592D01*
X95202965Y-53785461D01*
X95209580Y-53781210D01*
X96061080Y-52929710D01*
X96067840Y-52917330D01*
X96062113Y-52909680D01*
X95890958Y-52804795D01*
X95882163Y-52800313D01*
X95672012Y-52713266D01*
X95662627Y-52710217D01*
X95441446Y-52657115D01*
X95431699Y-52655572D01*
X95391892Y-52652439D01*
X95325550Y-52627154D01*
X95283410Y-52570016D01*
X95278851Y-52499166D01*
X95313319Y-52437098D01*
X95368634Y-52405264D01*
X95386478Y-52400399D01*
X95438739Y-52386151D01*
X95553566Y-52315647D01*
X95606601Y-52257054D01*
X95667145Y-52219972D01*
X95738125Y-52221510D01*
X95796467Y-52260532D01*
X95833239Y-52304278D01*
X95945405Y-52378942D01*
X96074019Y-52419124D01*
X96208740Y-52421593D01*
X96268634Y-52405264D01*
X96330080Y-52388512D01*
X96330082Y-52388511D01*
X96338739Y-52386151D01*
X96453566Y-52315647D01*
X96543989Y-52215749D01*
X96551071Y-52201133D01*
X96598826Y-52102567D01*
X96598827Y-52102565D01*
X96602740Y-52094488D01*
X96625095Y-51961611D01*
X96625237Y-51950000D01*
X96606135Y-51816617D01*
X96600826Y-51804939D01*
X96554081Y-51702130D01*
X96550365Y-51693956D01*
X96529560Y-51669811D01*
X96468269Y-51598679D01*
X96468266Y-51598677D01*
X96462409Y-51591879D01*
X96349339Y-51518591D01*
X96287066Y-51499967D01*
X96228846Y-51482555D01*
X96228844Y-51482555D01*
X96220245Y-51479983D01*
X96211270Y-51479928D01*
X96211269Y-51479928D01*
X96152874Y-51479572D01*
X96085503Y-51479160D01*
X96076871Y-51481627D01*
X95964577Y-51513720D01*
X95964575Y-51513721D01*
X95955946Y-51516187D01*
X95948355Y-51520976D01*
X95948354Y-51520977D01*
X95859350Y-51577135D01*
X95841989Y-51588089D01*
X95836047Y-51594818D01*
X95836046Y-51594818D01*
X95794434Y-51641934D01*
X95734348Y-51679752D01*
X95663354Y-51679081D01*
X95604540Y-51640774D01*
X95568268Y-51598679D01*
X95562409Y-51591879D01*
X95561915Y-51591559D01*
X95526000Y-51535263D01*
X95526235Y-51464267D01*
X95553598Y-51415612D01*
X95637961Y-51322409D01*
X95637962Y-51322408D01*
X95643989Y-51315749D01*
X95651071Y-51301133D01*
X95698826Y-51202567D01*
X95698827Y-51202565D01*
X95702740Y-51194488D01*
X95725095Y-51061611D01*
X95725237Y-51050000D01*
X95713304Y-50966676D01*
X95707408Y-50925503D01*
X95707407Y-50925500D01*
X95706135Y-50916617D01*
X95650365Y-50793956D01*
X95604540Y-50740774D01*
X95568269Y-50698679D01*
X95568266Y-50698677D01*
X95562409Y-50691879D01*
X95449339Y-50618591D01*
X95433052Y-50613720D01*
X95328846Y-50582555D01*
X95328844Y-50582555D01*
X95320245Y-50579983D01*
X95311270Y-50579928D01*
X95311269Y-50579928D01*
X95252874Y-50579571D01*
X95185503Y-50579160D01*
X95176871Y-50581627D01*
X95064577Y-50613720D01*
X95064575Y-50613721D01*
X95055946Y-50616187D01*
X95048355Y-50620976D01*
X95048354Y-50620977D01*
X94949582Y-50683298D01*
X94941989Y-50688089D01*
X94936047Y-50694818D01*
X94936046Y-50694818D01*
X94894434Y-50741934D01*
X94834348Y-50779752D01*
X94763354Y-50779081D01*
X94704540Y-50740774D01*
X94668269Y-50698679D01*
X94668266Y-50698677D01*
X94662409Y-50691879D01*
X94549339Y-50618591D01*
X94533052Y-50613720D01*
X94428846Y-50582555D01*
X94428844Y-50582555D01*
X94420245Y-50579983D01*
X94411270Y-50579928D01*
X94411269Y-50579928D01*
X94352874Y-50579571D01*
X94285503Y-50579160D01*
X94276871Y-50581627D01*
X94164577Y-50613720D01*
X94164575Y-50613721D01*
X94155946Y-50616187D01*
X94148355Y-50620976D01*
X94148354Y-50620977D01*
X94049582Y-50683298D01*
X94041989Y-50688089D01*
X93952793Y-50789084D01*
X93895529Y-50911054D01*
X93894148Y-50919924D01*
X93882478Y-50994873D01*
X93874798Y-51044194D01*
X93875962Y-51053095D01*
X93875962Y-51053099D01*
X93884472Y-51118170D01*
X93892270Y-51177801D01*
X93946537Y-51301133D01*
X93952315Y-51308006D01*
X93952315Y-51308007D01*
X93964421Y-51322409D01*
X94033239Y-51404278D01*
X94037970Y-51407427D01*
X94074544Y-51466335D01*
X94073439Y-51537323D01*
X94040689Y-51586941D01*
X94041989Y-51588089D01*
X93952793Y-51689084D01*
X93895529Y-51811054D01*
X93894148Y-51819924D01*
X93887821Y-51860560D01*
X93874798Y-51944194D01*
X83713321Y-51944194D01*
X81651797Y-49882670D01*
X84832160Y-49882670D01*
X84837887Y-49890320D01*
X85009042Y-49995205D01*
X85017837Y-49999687D01*
X85227988Y-50086734D01*
X85237373Y-50089783D01*
X85458554Y-50142885D01*
X85468301Y-50144428D01*
X85695070Y-50162275D01*
X85704930Y-50162275D01*
X85931699Y-50144428D01*
X85941446Y-50142885D01*
X86162627Y-50089783D01*
X86172012Y-50086734D01*
X86382163Y-49999687D01*
X86390958Y-49995205D01*
X86558445Y-49892568D01*
X86567907Y-49882110D01*
X86564124Y-49873334D01*
X86390790Y-49700000D01*
X89550000Y-49700000D01*
X91350000Y-49700000D01*
X91350000Y-44382670D01*
X94332160Y-44382670D01*
X94337887Y-44390320D01*
X94509042Y-44495205D01*
X94517837Y-44499687D01*
X94727988Y-44586734D01*
X94737373Y-44589783D01*
X94958554Y-44642885D01*
X94968301Y-44644428D01*
X95195070Y-44662275D01*
X95204930Y-44662275D01*
X95431699Y-44644428D01*
X95441446Y-44642885D01*
X95662627Y-44589783D01*
X95672012Y-44586734D01*
X95882163Y-44499687D01*
X95890958Y-44495205D01*
X96058445Y-44392568D01*
X96067907Y-44382110D01*
X96064124Y-44373334D01*
X95212812Y-43522022D01*
X95198868Y-43514408D01*
X95197035Y-43514539D01*
X95190420Y-43518790D01*
X94338920Y-44370290D01*
X94332160Y-44382670D01*
X91350000Y-44382670D01*
X91350000Y-43450000D01*
X89550000Y-43450000D01*
X89550000Y-49700000D01*
X86390790Y-49700000D01*
X85712812Y-49022022D01*
X85698868Y-49014408D01*
X85697035Y-49014539D01*
X85690420Y-49018790D01*
X84838920Y-49870290D01*
X84832160Y-49882670D01*
X81651797Y-49882670D01*
X81008222Y-49239095D01*
X80974196Y-49176783D01*
X80979261Y-49105968D01*
X81008222Y-49060905D01*
X81414197Y-48654930D01*
X84187725Y-48654930D01*
X84205572Y-48881699D01*
X84207115Y-48891446D01*
X84260217Y-49112627D01*
X84263266Y-49122012D01*
X84350313Y-49332163D01*
X84354795Y-49340958D01*
X84457432Y-49508445D01*
X84467890Y-49517907D01*
X84476666Y-49514124D01*
X85327978Y-48662812D01*
X85334356Y-48651132D01*
X86064408Y-48651132D01*
X86064539Y-48652965D01*
X86068790Y-48659580D01*
X86920290Y-49511080D01*
X86932670Y-49517840D01*
X86940320Y-49512113D01*
X87045205Y-49340958D01*
X87049687Y-49332163D01*
X87136734Y-49122012D01*
X87139783Y-49112627D01*
X87192885Y-48891446D01*
X87194428Y-48881699D01*
X87212275Y-48654930D01*
X87212275Y-48645070D01*
X87194428Y-48418301D01*
X87192885Y-48408554D01*
X87139783Y-48187373D01*
X87136734Y-48177988D01*
X87049687Y-47967837D01*
X87045205Y-47959042D01*
X86942568Y-47791555D01*
X86932110Y-47782093D01*
X86923334Y-47785876D01*
X86072022Y-48637188D01*
X86064408Y-48651132D01*
X85334356Y-48651132D01*
X85335592Y-48648868D01*
X85335461Y-48647035D01*
X85331210Y-48640420D01*
X84479710Y-47788920D01*
X84467330Y-47782160D01*
X84459680Y-47787887D01*
X84354795Y-47959042D01*
X84350313Y-47967837D01*
X84263266Y-48177988D01*
X84260217Y-48187373D01*
X84207115Y-48408554D01*
X84205572Y-48418301D01*
X84187725Y-48645070D01*
X84187725Y-48654930D01*
X81414197Y-48654930D01*
X82651237Y-47417890D01*
X84832093Y-47417890D01*
X84835876Y-47426666D01*
X85687188Y-48277978D01*
X85701132Y-48285592D01*
X85702965Y-48285461D01*
X85709580Y-48281210D01*
X86561080Y-47429710D01*
X86567840Y-47417330D01*
X86562113Y-47409680D01*
X86390958Y-47304795D01*
X86382163Y-47300313D01*
X86172012Y-47213266D01*
X86162627Y-47210217D01*
X85941446Y-47157115D01*
X85931699Y-47155572D01*
X85704930Y-47137725D01*
X85695070Y-47137725D01*
X85468301Y-47155572D01*
X85458554Y-47157115D01*
X85237373Y-47210217D01*
X85227988Y-47213266D01*
X85017837Y-47300313D01*
X85009042Y-47304795D01*
X84841555Y-47407432D01*
X84832093Y-47417890D01*
X82651237Y-47417890D01*
X85294538Y-44774590D01*
X85356850Y-44740564D01*
X85411440Y-44740792D01*
X85552201Y-44772643D01*
X85557972Y-44772870D01*
X85557974Y-44772870D01*
X85627210Y-44775590D01*
X85759262Y-44780778D01*
X85847561Y-44767975D01*
X85958616Y-44751874D01*
X85958621Y-44751873D01*
X85964337Y-44751044D01*
X85969809Y-44749186D01*
X85969811Y-44749186D01*
X86155096Y-44686290D01*
X86155098Y-44686289D01*
X86160560Y-44684435D01*
X86341359Y-44583183D01*
X86500678Y-44450678D01*
X86633183Y-44291359D01*
X86734435Y-44110560D01*
X86765910Y-44017840D01*
X86799186Y-43919811D01*
X86799186Y-43919809D01*
X86801044Y-43914337D01*
X86801873Y-43908621D01*
X86801874Y-43908616D01*
X86830245Y-43712936D01*
X86830778Y-43709262D01*
X86832330Y-43650000D01*
X86820570Y-43522022D01*
X86813898Y-43449403D01*
X86813897Y-43449400D01*
X86813369Y-43443649D01*
X86792081Y-43368169D01*
X86792841Y-43297177D01*
X86824255Y-43244872D01*
X86914197Y-43154930D01*
X93687725Y-43154930D01*
X93705572Y-43381699D01*
X93707115Y-43391446D01*
X93760217Y-43612627D01*
X93763266Y-43622012D01*
X93850313Y-43832163D01*
X93854795Y-43840958D01*
X93957432Y-44008445D01*
X93967890Y-44017907D01*
X93976666Y-44014124D01*
X94827978Y-43162812D01*
X94834356Y-43151132D01*
X95564408Y-43151132D01*
X95564539Y-43152965D01*
X95568790Y-43159580D01*
X96420290Y-44011080D01*
X96432670Y-44017840D01*
X96440320Y-44012113D01*
X96545205Y-43840958D01*
X96549687Y-43832163D01*
X96636734Y-43622012D01*
X96639783Y-43612627D01*
X96692885Y-43391446D01*
X96694428Y-43381699D01*
X96712275Y-43154930D01*
X96712275Y-43145070D01*
X96694428Y-42918301D01*
X96692885Y-42908554D01*
X96639783Y-42687373D01*
X96636734Y-42677988D01*
X96549687Y-42467837D01*
X96545205Y-42459042D01*
X96442568Y-42291555D01*
X96432110Y-42282093D01*
X96423334Y-42285876D01*
X95572022Y-43137188D01*
X95564408Y-43151132D01*
X94834356Y-43151132D01*
X94835592Y-43148868D01*
X94835461Y-43147035D01*
X94831210Y-43140420D01*
X93979710Y-42288920D01*
X93967330Y-42282160D01*
X93959680Y-42287887D01*
X93854795Y-42459042D01*
X93850313Y-42467837D01*
X93763266Y-42677988D01*
X93760217Y-42687373D01*
X93707115Y-42908554D01*
X93705572Y-42918301D01*
X93687725Y-43145070D01*
X93687725Y-43154930D01*
X86914197Y-43154930D01*
X88724933Y-41344194D01*
X92524798Y-41344194D01*
X92525962Y-41353095D01*
X92525962Y-41353099D01*
X92541106Y-41468902D01*
X92542270Y-41477801D01*
X92596537Y-41601133D01*
X92602315Y-41608006D01*
X92602315Y-41608007D01*
X92646462Y-41660526D01*
X92683239Y-41704278D01*
X92795405Y-41778942D01*
X92924019Y-41819124D01*
X93058740Y-41821593D01*
X93120354Y-41804795D01*
X93180080Y-41788512D01*
X93180082Y-41788511D01*
X93188739Y-41786151D01*
X93303566Y-41715647D01*
X93353459Y-41660526D01*
X93356602Y-41657054D01*
X93417145Y-41619972D01*
X93488125Y-41621510D01*
X93546467Y-41660532D01*
X93583239Y-41704278D01*
X93695405Y-41778942D01*
X93824019Y-41819124D01*
X93958740Y-41821593D01*
X94020354Y-41804795D01*
X94080080Y-41788512D01*
X94080082Y-41788511D01*
X94088739Y-41786151D01*
X94155228Y-41745327D01*
X94208797Y-41730786D01*
X94230458Y-41685937D01*
X94256603Y-41657052D01*
X94317146Y-41619972D01*
X94388126Y-41621510D01*
X94446462Y-41660526D01*
X94453599Y-41669017D01*
X94482124Y-41734028D01*
X94470973Y-41804143D01*
X94422989Y-41857529D01*
X94389710Y-41877923D01*
X94336219Y-41892393D01*
X94334884Y-41895160D01*
X94331388Y-41916255D01*
X94335876Y-41926666D01*
X95187188Y-42777978D01*
X95201132Y-42785592D01*
X95202965Y-42785461D01*
X95209580Y-42781210D01*
X96061080Y-41929710D01*
X96067840Y-41917330D01*
X96062114Y-41909681D01*
X96041004Y-41896745D01*
X95993372Y-41844098D01*
X95981765Y-41774057D01*
X96013423Y-41704757D01*
X96020081Y-41697402D01*
X96053459Y-41660526D01*
X96087961Y-41622409D01*
X96087962Y-41622408D01*
X96093989Y-41615749D01*
X96101071Y-41601133D01*
X96148826Y-41502567D01*
X96148827Y-41502565D01*
X96152740Y-41494488D01*
X96175095Y-41361611D01*
X96175237Y-41350000D01*
X96156135Y-41216617D01*
X96100365Y-41093956D01*
X96012409Y-40991879D01*
X96011915Y-40991559D01*
X95976000Y-40935263D01*
X95976235Y-40864267D01*
X96003598Y-40815612D01*
X96087961Y-40722409D01*
X96087962Y-40722408D01*
X96093989Y-40715749D01*
X96101071Y-40701133D01*
X96148826Y-40602567D01*
X96148827Y-40602565D01*
X96152740Y-40594488D01*
X96175095Y-40461611D01*
X96175237Y-40450000D01*
X96156135Y-40316617D01*
X96100365Y-40193956D01*
X96041382Y-40125503D01*
X96018269Y-40098679D01*
X96018266Y-40098677D01*
X96012409Y-40091879D01*
X95899339Y-40018591D01*
X95883052Y-40013720D01*
X95778846Y-39982555D01*
X95778844Y-39982555D01*
X95770245Y-39979983D01*
X95761270Y-39979928D01*
X95761269Y-39979928D01*
X95702874Y-39979571D01*
X95635503Y-39979160D01*
X95626871Y-39981627D01*
X95514577Y-40013720D01*
X95514575Y-40013721D01*
X95505946Y-40016187D01*
X95391989Y-40088089D01*
X95386047Y-40094818D01*
X95386046Y-40094818D01*
X95344434Y-40141934D01*
X95284348Y-40179752D01*
X95213354Y-40179081D01*
X95154540Y-40140774D01*
X95118269Y-40098679D01*
X95118266Y-40098677D01*
X95112409Y-40091879D01*
X94999339Y-40018591D01*
X94983052Y-40013720D01*
X94878846Y-39982555D01*
X94878844Y-39982555D01*
X94870245Y-39979983D01*
X94861270Y-39979928D01*
X94861269Y-39979928D01*
X94802874Y-39979571D01*
X94735503Y-39979160D01*
X94726871Y-39981627D01*
X94614577Y-40013720D01*
X94614575Y-40013721D01*
X94605946Y-40016187D01*
X94491989Y-40088089D01*
X94486047Y-40094818D01*
X94486046Y-40094818D01*
X94444434Y-40141934D01*
X94384348Y-40179752D01*
X94313354Y-40179081D01*
X94254540Y-40140774D01*
X94218269Y-40098679D01*
X94218266Y-40098677D01*
X94212409Y-40091879D01*
X94099339Y-40018591D01*
X94083052Y-40013720D01*
X93978846Y-39982555D01*
X93978844Y-39982555D01*
X93970245Y-39979983D01*
X93961270Y-39979928D01*
X93961269Y-39979928D01*
X93902874Y-39979571D01*
X93835503Y-39979160D01*
X93826871Y-39981627D01*
X93714577Y-40013720D01*
X93714575Y-40013721D01*
X93705946Y-40016187D01*
X93591989Y-40088089D01*
X93586047Y-40094818D01*
X93586046Y-40094818D01*
X93544434Y-40141934D01*
X93484348Y-40179752D01*
X93413354Y-40179081D01*
X93354540Y-40140774D01*
X93318269Y-40098679D01*
X93318266Y-40098677D01*
X93312409Y-40091879D01*
X93199339Y-40018591D01*
X93183052Y-40013720D01*
X93078846Y-39982555D01*
X93078844Y-39982555D01*
X93070245Y-39979983D01*
X93061270Y-39979928D01*
X93061269Y-39979928D01*
X93002874Y-39979571D01*
X92935503Y-39979160D01*
X92926871Y-39981627D01*
X92814577Y-40013720D01*
X92814575Y-40013721D01*
X92805946Y-40016187D01*
X92691989Y-40088089D01*
X92602793Y-40189084D01*
X92598979Y-40197207D01*
X92598978Y-40197209D01*
X92576919Y-40244194D01*
X92545529Y-40311054D01*
X92544148Y-40319924D01*
X92531280Y-40402567D01*
X92524798Y-40444194D01*
X92525962Y-40453095D01*
X92525962Y-40453099D01*
X92531169Y-40492913D01*
X92542270Y-40577801D01*
X92556110Y-40609255D01*
X92587879Y-40681455D01*
X92596537Y-40701133D01*
X92602315Y-40708006D01*
X92602315Y-40708007D01*
X92613735Y-40721593D01*
X92683239Y-40804278D01*
X92687970Y-40807427D01*
X92724544Y-40866335D01*
X92723439Y-40937323D01*
X92690689Y-40986941D01*
X92691989Y-40988089D01*
X92602793Y-41089084D01*
X92598979Y-41097207D01*
X92598978Y-41097209D01*
X92579954Y-41137730D01*
X92545529Y-41211054D01*
X92524798Y-41344194D01*
X88724933Y-41344194D01*
X91373723Y-38695405D01*
X91436035Y-38661379D01*
X91462818Y-38658500D01*
X94113944Y-38658500D01*
X94182065Y-38678502D01*
X94218538Y-38716755D01*
X94219373Y-38716165D01*
X94330450Y-38873334D01*
X94338970Y-38885390D01*
X94487402Y-39029986D01*
X94492198Y-39033191D01*
X94492201Y-39033193D01*
X94630108Y-39125339D01*
X94659699Y-39145111D01*
X94665002Y-39147389D01*
X94665005Y-39147391D01*
X94844584Y-39224544D01*
X94850091Y-39226910D01*
X95052201Y-39272643D01*
X95057972Y-39272870D01*
X95057974Y-39272870D01*
X95127210Y-39275590D01*
X95259262Y-39280778D01*
X95347561Y-39267975D01*
X95458616Y-39251874D01*
X95458621Y-39251873D01*
X95464337Y-39251044D01*
X95469809Y-39249186D01*
X95469811Y-39249186D01*
X95655096Y-39186290D01*
X95655098Y-39186289D01*
X95660560Y-39184435D01*
X95841359Y-39083183D01*
X96000678Y-38950678D01*
X96133183Y-38791359D01*
X96234435Y-38610560D01*
X96265910Y-38517840D01*
X96299186Y-38419811D01*
X96299186Y-38419809D01*
X96301044Y-38414337D01*
X96301873Y-38408621D01*
X96301874Y-38408616D01*
X96330245Y-38212936D01*
X96330778Y-38209262D01*
X96332330Y-38150000D01*
X96320570Y-38022022D01*
X96313898Y-37949403D01*
X96313897Y-37949400D01*
X96313369Y-37943649D01*
X96306788Y-37920312D01*
X96258689Y-37749768D01*
X96258688Y-37749766D01*
X96257121Y-37744209D01*
X96246265Y-37722194D01*
X96168025Y-37563540D01*
X96165470Y-37558359D01*
X96143362Y-37528752D01*
X96044938Y-37396947D01*
X96044937Y-37396946D01*
X96041485Y-37392323D01*
X95921284Y-37281210D01*
X95893559Y-37255581D01*
X95893556Y-37255579D01*
X95889319Y-37251662D01*
X95843145Y-37222529D01*
X95718951Y-37144168D01*
X95718946Y-37144166D01*
X95714067Y-37141087D01*
X95521599Y-37064300D01*
X95318361Y-37023873D01*
X95312587Y-37023797D01*
X95312583Y-37023797D01*
X95207399Y-37022421D01*
X95111158Y-37021161D01*
X95105461Y-37022140D01*
X95105460Y-37022140D01*
X94912628Y-37055274D01*
X94912627Y-37055274D01*
X94906931Y-37056253D01*
X94712519Y-37127976D01*
X94707558Y-37130928D01*
X94707557Y-37130928D01*
X94612682Y-37187373D01*
X94534433Y-37233926D01*
X94378637Y-37370555D01*
X94250348Y-37533289D01*
X94237158Y-37558359D01*
X94228840Y-37574169D01*
X94179420Y-37625141D01*
X94117332Y-37641500D01*
X91462817Y-37641500D01*
X91394696Y-37621498D01*
X91373722Y-37604595D01*
X86826649Y-33057522D01*
X86792623Y-32995210D01*
X86796431Y-32927927D01*
X86801044Y-32914337D01*
X86830778Y-32709262D01*
X86832330Y-32650000D01*
X86815400Y-32465749D01*
X86813898Y-32449403D01*
X86813897Y-32449400D01*
X86813369Y-32443649D01*
X86806788Y-32420312D01*
X86758689Y-32249768D01*
X86758688Y-32249766D01*
X86757121Y-32244209D01*
X86746265Y-32222194D01*
X86732457Y-32194194D01*
X92624798Y-32194194D01*
X92625962Y-32203095D01*
X92625962Y-32203099D01*
X92641106Y-32318902D01*
X92642270Y-32327801D01*
X92653167Y-32352567D01*
X92682976Y-32420312D01*
X92696537Y-32451133D01*
X92783239Y-32554278D01*
X92895405Y-32628942D01*
X93024019Y-32669124D01*
X93158740Y-32671593D01*
X93251495Y-32646305D01*
X93280080Y-32638512D01*
X93280082Y-32638511D01*
X93288739Y-32636151D01*
X93403566Y-32565647D01*
X93493989Y-32465749D01*
X93501071Y-32451133D01*
X93548826Y-32352567D01*
X93548827Y-32352565D01*
X93552740Y-32344488D01*
X93575095Y-32211611D01*
X93575237Y-32200000D01*
X93556135Y-32066617D01*
X93552381Y-32058359D01*
X93504081Y-31952130D01*
X93500365Y-31943956D01*
X93455875Y-31892323D01*
X93418269Y-31848679D01*
X93418266Y-31848677D01*
X93412409Y-31841879D01*
X93299339Y-31768591D01*
X93283052Y-31763720D01*
X93178846Y-31732555D01*
X93178844Y-31732555D01*
X93170245Y-31729983D01*
X93161270Y-31729928D01*
X93161269Y-31729928D01*
X93102874Y-31729572D01*
X93035503Y-31729160D01*
X93026871Y-31731627D01*
X92914577Y-31763720D01*
X92914575Y-31763721D01*
X92905946Y-31766187D01*
X92791989Y-31838089D01*
X92786047Y-31844818D01*
X92786046Y-31844818D01*
X92744091Y-31892323D01*
X92702793Y-31939084D01*
X92698979Y-31947207D01*
X92698978Y-31947209D01*
X92658564Y-32033289D01*
X92645529Y-32061054D01*
X92624798Y-32194194D01*
X86732457Y-32194194D01*
X86668025Y-32063540D01*
X86665470Y-32058359D01*
X86643362Y-32028752D01*
X86544938Y-31896947D01*
X86544937Y-31896946D01*
X86541485Y-31892323D01*
X86405032Y-31766187D01*
X86393559Y-31755581D01*
X86393556Y-31755579D01*
X86389319Y-31751662D01*
X86343145Y-31722529D01*
X86218951Y-31644168D01*
X86218946Y-31644166D01*
X86214067Y-31641087D01*
X86021599Y-31564300D01*
X85818361Y-31523873D01*
X85812587Y-31523797D01*
X85812583Y-31523797D01*
X85707399Y-31522421D01*
X85611158Y-31521161D01*
X85605461Y-31522140D01*
X85605460Y-31522140D01*
X85412628Y-31555274D01*
X85412627Y-31555274D01*
X85406931Y-31556253D01*
X85212519Y-31627976D01*
X85207558Y-31630928D01*
X85207557Y-31630928D01*
X85041061Y-31729983D01*
X85034433Y-31733926D01*
X84878637Y-31870555D01*
X84750348Y-32033289D01*
X84653863Y-32216676D01*
X84592414Y-32414575D01*
X84568058Y-32620359D01*
X84581611Y-32827135D01*
X84632619Y-33027980D01*
X84719373Y-33216165D01*
X84722704Y-33220878D01*
X84722705Y-33220880D01*
X84823528Y-33363540D01*
X84838970Y-33385390D01*
X84987402Y-33529986D01*
X84992198Y-33533191D01*
X84992201Y-33533193D01*
X85130108Y-33625339D01*
X85159699Y-33645111D01*
X85165002Y-33647389D01*
X85165005Y-33647391D01*
X85334734Y-33720312D01*
X85350091Y-33726910D01*
X85552201Y-33772643D01*
X85557972Y-33772870D01*
X85557974Y-33772870D01*
X85627210Y-33775590D01*
X85759262Y-33780778D01*
X85964337Y-33751044D01*
X85977927Y-33746431D01*
X86048859Y-33743474D01*
X86107522Y-33776649D01*
X90391778Y-38060905D01*
X90425804Y-38123217D01*
X90420739Y-38194032D01*
X90391778Y-38239095D01*
X86106734Y-42524139D01*
X86044422Y-42558165D01*
X85993059Y-42558623D01*
X85818361Y-42523873D01*
X85812587Y-42523797D01*
X85812583Y-42523797D01*
X85707399Y-42522421D01*
X85611158Y-42521161D01*
X85605461Y-42522140D01*
X85605460Y-42522140D01*
X85412628Y-42555274D01*
X85412627Y-42555274D01*
X85406931Y-42556253D01*
X85212519Y-42627976D01*
X85207558Y-42630928D01*
X85207557Y-42630928D01*
X85112682Y-42687373D01*
X85034433Y-42733926D01*
X84878637Y-42870555D01*
X84750348Y-43033289D01*
X84747659Y-43038400D01*
X84747657Y-43038403D01*
X84730386Y-43071230D01*
X84653863Y-43216676D01*
X84592414Y-43414575D01*
X84568058Y-43620359D01*
X84581611Y-43827135D01*
X84583032Y-43832731D01*
X84583033Y-43832736D01*
X84608962Y-43934828D01*
X84606344Y-44005777D01*
X84575934Y-44054939D01*
X80026278Y-48604595D01*
X79963966Y-48638621D01*
X79937183Y-48641500D01*
X77284823Y-48641500D01*
X77216702Y-48621498D01*
X77171818Y-48571230D01*
X77168027Y-48563543D01*
X77168024Y-48563539D01*
X77165470Y-48558359D01*
X77041485Y-48392323D01*
X76921284Y-48281210D01*
X76893559Y-48255581D01*
X76893556Y-48255579D01*
X76889319Y-48251662D01*
X76843145Y-48222529D01*
X76718951Y-48144168D01*
X76718946Y-48144166D01*
X76714067Y-48141087D01*
X76521599Y-48064300D01*
X76318361Y-48023873D01*
X76312587Y-48023797D01*
X76312583Y-48023797D01*
X76207399Y-48022421D01*
X76111158Y-48021161D01*
X76105461Y-48022140D01*
X76105460Y-48022140D01*
X76088816Y-48025000D01*
X75906931Y-48056253D01*
X75906704Y-48054932D01*
X75842340Y-48053403D01*
X75791606Y-48022479D01*
X72151797Y-44382670D01*
X75332160Y-44382670D01*
X75337887Y-44390320D01*
X75509042Y-44495205D01*
X75517837Y-44499687D01*
X75727988Y-44586734D01*
X75737373Y-44589783D01*
X75958554Y-44642885D01*
X75968301Y-44644428D01*
X76195070Y-44662275D01*
X76204930Y-44662275D01*
X76431699Y-44644428D01*
X76441446Y-44642885D01*
X76662627Y-44589783D01*
X76672012Y-44586734D01*
X76882163Y-44499687D01*
X76890958Y-44495205D01*
X77058445Y-44392568D01*
X77067907Y-44382110D01*
X77064124Y-44373334D01*
X76212812Y-43522022D01*
X76198868Y-43514408D01*
X76197035Y-43514539D01*
X76190420Y-43518790D01*
X75338920Y-44370290D01*
X75332160Y-44382670D01*
X72151797Y-44382670D01*
X71508222Y-43739095D01*
X71474196Y-43676783D01*
X71479261Y-43605968D01*
X71508222Y-43560905D01*
X71914197Y-43154930D01*
X74687725Y-43154930D01*
X74705572Y-43381699D01*
X74707115Y-43391446D01*
X74760217Y-43612627D01*
X74763266Y-43622012D01*
X74850313Y-43832163D01*
X74854795Y-43840958D01*
X74957432Y-44008445D01*
X74967890Y-44017907D01*
X74976666Y-44014124D01*
X75827978Y-43162812D01*
X75834356Y-43151132D01*
X76564408Y-43151132D01*
X76564539Y-43152965D01*
X76568790Y-43159580D01*
X77420290Y-44011080D01*
X77432670Y-44017840D01*
X77440320Y-44012113D01*
X77545205Y-43840958D01*
X77549687Y-43832163D01*
X77636734Y-43622012D01*
X77639783Y-43612627D01*
X77692885Y-43391446D01*
X77694428Y-43381699D01*
X77712275Y-43154930D01*
X77712275Y-43145070D01*
X77694428Y-42918301D01*
X77692885Y-42908554D01*
X77639783Y-42687373D01*
X77636734Y-42677988D01*
X77549687Y-42467837D01*
X77545205Y-42459042D01*
X77442568Y-42291555D01*
X77432110Y-42282093D01*
X77423334Y-42285876D01*
X76572022Y-43137188D01*
X76564408Y-43151132D01*
X75834356Y-43151132D01*
X75835592Y-43148868D01*
X75835461Y-43147035D01*
X75831210Y-43140420D01*
X74979710Y-42288920D01*
X74967330Y-42282160D01*
X74959680Y-42287887D01*
X74854795Y-42459042D01*
X74850313Y-42467837D01*
X74763266Y-42677988D01*
X74760217Y-42687373D01*
X74707115Y-42908554D01*
X74705572Y-42918301D01*
X74687725Y-43145070D01*
X74687725Y-43154930D01*
X71914197Y-43154930D01*
X73151237Y-41917890D01*
X75332093Y-41917890D01*
X75335876Y-41926666D01*
X76187188Y-42777978D01*
X76201132Y-42785592D01*
X76202965Y-42785461D01*
X76209580Y-42781210D01*
X77061080Y-41929710D01*
X77067840Y-41917330D01*
X77062113Y-41909680D01*
X76890958Y-41804795D01*
X76882163Y-41800313D01*
X76672012Y-41713266D01*
X76662627Y-41710217D01*
X76441446Y-41657115D01*
X76431699Y-41655572D01*
X76204930Y-41637725D01*
X76195070Y-41637725D01*
X75968301Y-41655572D01*
X75958554Y-41657115D01*
X75737373Y-41710217D01*
X75727988Y-41713266D01*
X75517837Y-41800313D01*
X75509042Y-41804795D01*
X75341555Y-41907432D01*
X75332093Y-41917890D01*
X73151237Y-41917890D01*
X75794538Y-39274590D01*
X75856850Y-39240564D01*
X75911440Y-39240792D01*
X76052201Y-39272643D01*
X76057972Y-39272870D01*
X76057974Y-39272870D01*
X76127210Y-39275590D01*
X76259262Y-39280778D01*
X76347561Y-39267975D01*
X76458616Y-39251874D01*
X76458621Y-39251873D01*
X76464337Y-39251044D01*
X76469809Y-39249186D01*
X76469811Y-39249186D01*
X76655096Y-39186290D01*
X76655098Y-39186289D01*
X76660560Y-39184435D01*
X76841359Y-39083183D01*
X77000678Y-38950678D01*
X77057240Y-38882670D01*
X84832160Y-38882670D01*
X84837887Y-38890320D01*
X85009042Y-38995205D01*
X85017837Y-38999687D01*
X85227988Y-39086734D01*
X85237373Y-39089783D01*
X85458554Y-39142885D01*
X85468301Y-39144428D01*
X85695070Y-39162275D01*
X85704930Y-39162275D01*
X85931699Y-39144428D01*
X85941446Y-39142885D01*
X86162627Y-39089783D01*
X86172012Y-39086734D01*
X86382163Y-38999687D01*
X86390958Y-38995205D01*
X86558445Y-38892568D01*
X86567907Y-38882110D01*
X86564124Y-38873334D01*
X85712812Y-38022022D01*
X85698868Y-38014408D01*
X85697035Y-38014539D01*
X85690420Y-38018790D01*
X84838920Y-38870290D01*
X84832160Y-38882670D01*
X77057240Y-38882670D01*
X77133183Y-38791359D01*
X77234435Y-38610560D01*
X77265910Y-38517840D01*
X77299186Y-38419811D01*
X77299186Y-38419809D01*
X77301044Y-38414337D01*
X77301873Y-38408621D01*
X77301874Y-38408616D01*
X77330245Y-38212936D01*
X77330778Y-38209262D01*
X77332330Y-38150000D01*
X77320570Y-38022022D01*
X77313898Y-37949403D01*
X77313897Y-37949400D01*
X77313369Y-37943649D01*
X77306788Y-37920312D01*
X77258689Y-37749768D01*
X77258688Y-37749766D01*
X77257121Y-37744209D01*
X77246265Y-37722194D01*
X77213094Y-37654930D01*
X84187725Y-37654930D01*
X84205572Y-37881699D01*
X84207115Y-37891446D01*
X84260217Y-38112627D01*
X84263266Y-38122012D01*
X84350313Y-38332163D01*
X84354795Y-38340958D01*
X84457432Y-38508445D01*
X84467890Y-38517907D01*
X84476666Y-38514124D01*
X85327978Y-37662812D01*
X85334356Y-37651132D01*
X86064408Y-37651132D01*
X86064539Y-37652965D01*
X86068790Y-37659580D01*
X86920290Y-38511080D01*
X86932670Y-38517840D01*
X86940320Y-38512113D01*
X87045205Y-38340958D01*
X87049687Y-38332163D01*
X87136734Y-38122012D01*
X87139783Y-38112627D01*
X87192885Y-37891446D01*
X87194428Y-37881699D01*
X87212275Y-37654930D01*
X87212275Y-37645070D01*
X87194428Y-37418301D01*
X87192885Y-37408554D01*
X87139783Y-37187373D01*
X87136734Y-37177988D01*
X87049687Y-36967837D01*
X87045205Y-36959042D01*
X86942568Y-36791555D01*
X86932110Y-36782093D01*
X86923334Y-36785876D01*
X86072022Y-37637188D01*
X86064408Y-37651132D01*
X85334356Y-37651132D01*
X85335592Y-37648868D01*
X85335461Y-37647035D01*
X85331210Y-37640420D01*
X84479710Y-36788920D01*
X84467330Y-36782160D01*
X84459680Y-36787887D01*
X84354795Y-36959042D01*
X84350313Y-36967837D01*
X84263266Y-37177988D01*
X84260217Y-37187373D01*
X84207115Y-37408554D01*
X84205572Y-37418301D01*
X84187725Y-37645070D01*
X84187725Y-37654930D01*
X77213094Y-37654930D01*
X77168025Y-37563540D01*
X77165470Y-37558359D01*
X77143362Y-37528752D01*
X77044938Y-37396947D01*
X77044937Y-37396946D01*
X77041485Y-37392323D01*
X76921284Y-37281210D01*
X76893559Y-37255581D01*
X76893556Y-37255579D01*
X76889319Y-37251662D01*
X76843145Y-37222529D01*
X76718951Y-37144168D01*
X76718946Y-37144166D01*
X76714067Y-37141087D01*
X76521599Y-37064300D01*
X76318361Y-37023873D01*
X76312587Y-37023797D01*
X76312583Y-37023797D01*
X76207399Y-37022421D01*
X76111158Y-37021161D01*
X76105461Y-37022140D01*
X76105460Y-37022140D01*
X75912628Y-37055274D01*
X75912627Y-37055274D01*
X75906931Y-37056253D01*
X75712519Y-37127976D01*
X75707558Y-37130928D01*
X75707557Y-37130928D01*
X75612682Y-37187373D01*
X75534433Y-37233926D01*
X75378637Y-37370555D01*
X75250348Y-37533289D01*
X75153863Y-37716676D01*
X75092414Y-37914575D01*
X75068058Y-38120359D01*
X75081611Y-38327135D01*
X75083032Y-38332731D01*
X75083033Y-38332736D01*
X75108962Y-38434828D01*
X75106344Y-38505777D01*
X75075934Y-38554939D01*
X70526278Y-43104595D01*
X70463966Y-43138621D01*
X70437183Y-43141500D01*
X67784823Y-43141500D01*
X67716702Y-43121498D01*
X67671818Y-43071230D01*
X67668027Y-43063543D01*
X67668024Y-43063539D01*
X67665470Y-43058359D01*
X67541485Y-42892323D01*
X67421284Y-42781210D01*
X67393559Y-42755581D01*
X67393556Y-42755579D01*
X67389319Y-42751662D01*
X67343145Y-42722529D01*
X67218951Y-42644168D01*
X67218946Y-42644166D01*
X67214067Y-42641087D01*
X67021599Y-42564300D01*
X66818361Y-42523873D01*
X66812587Y-42523797D01*
X66812583Y-42523797D01*
X66707399Y-42522421D01*
X66611158Y-42521161D01*
X66605461Y-42522140D01*
X66605460Y-42522140D01*
X66412628Y-42555274D01*
X66412627Y-42555274D01*
X66406931Y-42556253D01*
X66212519Y-42627976D01*
X66207558Y-42630928D01*
X66207557Y-42630928D01*
X66112682Y-42687373D01*
X66034433Y-42733926D01*
X65878637Y-42870555D01*
X65750348Y-43033289D01*
X65747659Y-43038400D01*
X65747657Y-43038403D01*
X65730386Y-43071230D01*
X65653863Y-43216676D01*
X65592414Y-43414575D01*
X65568058Y-43620359D01*
X65581611Y-43827135D01*
X65632619Y-44027980D01*
X65719373Y-44216165D01*
X65722704Y-44220878D01*
X65722705Y-44220880D01*
X65830450Y-44373334D01*
X65838970Y-44385390D01*
X65987402Y-44529986D01*
X65992198Y-44533191D01*
X65992201Y-44533193D01*
X66130108Y-44625339D01*
X66159699Y-44645111D01*
X66165002Y-44647389D01*
X66165005Y-44647391D01*
X66344584Y-44724544D01*
X66350091Y-44726910D01*
X66552201Y-44772643D01*
X66557972Y-44772870D01*
X66557974Y-44772870D01*
X66627210Y-44775590D01*
X66759262Y-44780778D01*
X66847561Y-44767975D01*
X66958616Y-44751874D01*
X66958621Y-44751873D01*
X66964337Y-44751044D01*
X66969809Y-44749186D01*
X66969811Y-44749186D01*
X67155096Y-44686290D01*
X67155098Y-44686289D01*
X67160560Y-44684435D01*
X67341359Y-44583183D01*
X67500678Y-44450678D01*
X67633183Y-44291359D01*
X67636005Y-44286319D01*
X67636009Y-44286314D01*
X67671504Y-44222934D01*
X67722241Y-44173272D01*
X67781438Y-44158500D01*
X70437183Y-44158500D01*
X70505304Y-44178502D01*
X70526278Y-44195405D01*
X75074874Y-48744002D01*
X75108900Y-48806314D01*
X75106111Y-48870462D01*
X75094128Y-48909051D01*
X75094127Y-48909058D01*
X75092414Y-48914575D01*
X75068058Y-49120359D01*
X75081611Y-49327135D01*
X75083032Y-49332731D01*
X75083033Y-49332736D01*
X75101303Y-49404673D01*
X75107209Y-49427924D01*
X75108962Y-49434828D01*
X75106344Y-49505777D01*
X75075934Y-49554939D01*
X74356734Y-50274139D01*
X74294422Y-50308165D01*
X74243059Y-50308623D01*
X74068361Y-50273873D01*
X74062587Y-50273797D01*
X74062583Y-50273797D01*
X73957399Y-50272421D01*
X73861158Y-50271161D01*
X73855461Y-50272140D01*
X73855460Y-50272140D01*
X73662628Y-50305274D01*
X73662627Y-50305274D01*
X73656931Y-50306253D01*
X73462519Y-50377976D01*
X73284433Y-50483926D01*
X73128637Y-50620555D01*
X73000348Y-50783289D01*
X72997659Y-50788400D01*
X72997657Y-50788403D01*
X72993024Y-50797209D01*
X72903863Y-50966676D01*
X72842414Y-51164575D01*
X72818058Y-51370359D01*
X72831611Y-51577135D01*
X72833032Y-51582731D01*
X72833033Y-51582736D01*
X72858962Y-51684828D01*
X72856344Y-51755777D01*
X72825934Y-51804939D01*
X70526278Y-54104595D01*
X70463966Y-54138621D01*
X70437183Y-54141500D01*
X67784823Y-54141500D01*
X67716702Y-54121498D01*
X67671818Y-54071230D01*
X67668027Y-54063543D01*
X67668024Y-54063539D01*
X67665470Y-54058359D01*
X67541485Y-53892323D01*
X67421284Y-53781210D01*
X67393559Y-53755581D01*
X67393556Y-53755579D01*
X67389319Y-53751662D01*
X67343145Y-53722529D01*
X67218951Y-53644168D01*
X67218946Y-53644166D01*
X67214067Y-53641087D01*
X67021599Y-53564300D01*
X66818361Y-53523873D01*
X66812587Y-53523797D01*
X66812583Y-53523797D01*
X66707399Y-53522421D01*
X66611158Y-53521161D01*
X66605461Y-53522140D01*
X66605460Y-53522140D01*
X66412628Y-53555274D01*
X66412627Y-53555274D01*
X66406931Y-53556253D01*
X66212519Y-53627976D01*
X66207558Y-53630928D01*
X66207557Y-53630928D01*
X66112682Y-53687373D01*
X66034433Y-53733926D01*
X65878637Y-53870555D01*
X65750348Y-54033289D01*
X65747659Y-54038400D01*
X65747657Y-54038403D01*
X65730386Y-54071230D01*
X65653863Y-54216676D01*
X65592414Y-54414575D01*
X65568058Y-54620359D01*
X65581611Y-54827135D01*
X65632619Y-55027980D01*
X65719373Y-55216165D01*
X65722704Y-55220878D01*
X65722705Y-55220880D01*
X65830450Y-55373334D01*
X65838970Y-55385390D01*
X65884690Y-55429928D01*
X65926828Y-55470977D01*
X65987402Y-55529986D01*
X65992198Y-55533191D01*
X65992201Y-55533193D01*
X66078375Y-55590772D01*
X66159699Y-55645111D01*
X66165002Y-55647389D01*
X66165005Y-55647391D01*
X66325635Y-55716403D01*
X66350091Y-55726910D01*
X66552201Y-55772643D01*
X66557972Y-55772870D01*
X66557974Y-55772870D01*
X66624946Y-55775501D01*
X66759262Y-55780778D01*
X66856944Y-55766615D01*
X66958616Y-55751874D01*
X66958621Y-55751873D01*
X66964337Y-55751044D01*
X66969809Y-55749186D01*
X66969811Y-55749186D01*
X67155096Y-55686290D01*
X67155098Y-55686289D01*
X67160560Y-55684435D01*
X67325735Y-55591933D01*
X67336322Y-55586004D01*
X67336323Y-55586003D01*
X67341359Y-55583183D01*
X67500678Y-55450678D01*
X67633183Y-55291359D01*
X67636005Y-55286319D01*
X67636009Y-55286314D01*
X67671504Y-55222934D01*
X67722241Y-55173272D01*
X67781438Y-55158500D01*
X67971213Y-55158500D01*
X68039334Y-55178502D01*
X68085827Y-55232158D01*
X68095931Y-55302432D01*
X68065654Y-55367907D01*
X68050214Y-55385390D01*
X68009381Y-55431625D01*
X68002793Y-55439084D01*
X67998979Y-55447207D01*
X67998978Y-55447209D01*
X67953153Y-55544815D01*
X67945529Y-55561054D01*
X67944148Y-55569924D01*
X67926318Y-55684435D01*
X67924798Y-55694194D01*
X67930291Y-55736198D01*
X67930754Y-55739736D01*
X67919754Y-55809875D01*
X67894913Y-55845170D01*
X66597082Y-57143000D01*
X66534770Y-57177026D01*
X66507218Y-57179903D01*
X66426992Y-57179413D01*
X66385503Y-57179160D01*
X66376871Y-57181627D01*
X66264577Y-57213720D01*
X66264575Y-57213721D01*
X66255946Y-57216187D01*
X66248355Y-57220976D01*
X66248354Y-57220977D01*
X66168133Y-57271593D01*
X66141989Y-57288089D01*
X66052793Y-57389084D01*
X65995529Y-57511054D01*
X65974798Y-57644194D01*
X65975962Y-57653095D01*
X65975962Y-57653099D01*
X65987844Y-57743956D01*
X65992270Y-57777801D01*
X66046537Y-57901133D01*
X66052315Y-57908006D01*
X66052315Y-57908007D01*
X66125595Y-57995184D01*
X66133239Y-58004278D01*
X66151462Y-58016408D01*
X66166471Y-58026399D01*
X66212094Y-58080796D01*
X66221065Y-58151223D01*
X66190536Y-58215321D01*
X66144870Y-58247695D01*
X66017837Y-58300313D01*
X66009042Y-58304795D01*
X65841555Y-58407432D01*
X65832093Y-58417890D01*
X65835876Y-58426666D01*
X66687188Y-59277978D01*
X66701132Y-59285592D01*
X66702965Y-59285461D01*
X66709580Y-59281210D01*
X67561080Y-58429710D01*
X67567840Y-58417330D01*
X67562113Y-58409680D01*
X67390958Y-58304795D01*
X67382163Y-58300313D01*
X67172012Y-58213266D01*
X67162627Y-58210217D01*
X66941446Y-58157115D01*
X66931687Y-58155570D01*
X66902737Y-58153291D01*
X66836396Y-58128006D01*
X66794256Y-58070867D01*
X66789698Y-58000017D01*
X66819210Y-57943124D01*
X66837961Y-57922409D01*
X66837962Y-57922408D01*
X66843989Y-57915749D01*
X66851071Y-57901133D01*
X66898826Y-57802567D01*
X66898827Y-57802565D01*
X66902740Y-57794488D01*
X66925095Y-57661611D01*
X66925237Y-57650000D01*
X66919725Y-57611514D01*
X66929869Y-57541248D01*
X66955358Y-57504560D01*
X68253527Y-56206391D01*
X68315839Y-56172365D01*
X68344929Y-56169507D01*
X68458740Y-56171593D01*
X68458684Y-56174671D01*
X68513622Y-56183630D01*
X68548223Y-56208141D01*
X70194297Y-57854215D01*
X70228323Y-57916527D01*
X70229702Y-57962694D01*
X70226179Y-57985319D01*
X70226179Y-57985325D01*
X70224798Y-57994194D01*
X70225962Y-58003095D01*
X70225962Y-58003099D01*
X70236123Y-58080796D01*
X70242270Y-58127801D01*
X70296537Y-58251133D01*
X70383239Y-58354278D01*
X70407373Y-58370343D01*
X70477961Y-58417330D01*
X70495405Y-58428942D01*
X70624019Y-58469124D01*
X70758740Y-58471593D01*
X70812494Y-58456938D01*
X70880080Y-58438512D01*
X70880082Y-58438511D01*
X70888739Y-58436151D01*
X71003566Y-58365647D01*
X71020081Y-58347402D01*
X71087961Y-58272409D01*
X71087962Y-58272408D01*
X71093989Y-58265749D01*
X71101071Y-58251133D01*
X71148826Y-58152567D01*
X71148827Y-58152565D01*
X71152740Y-58144488D01*
X71175095Y-58011611D01*
X71175237Y-58000000D01*
X71161078Y-57901133D01*
X71157408Y-57875503D01*
X71157407Y-57875500D01*
X71156135Y-57866617D01*
X71100365Y-57743956D01*
X71033545Y-57666408D01*
X71018269Y-57648679D01*
X71018266Y-57648677D01*
X71012409Y-57641879D01*
X70899339Y-57568591D01*
X70890739Y-57566019D01*
X70778846Y-57532555D01*
X70778844Y-57532555D01*
X70770245Y-57529983D01*
X70761270Y-57529928D01*
X70761269Y-57529928D01*
X70715160Y-57529647D01*
X70640531Y-57529191D01*
X70572534Y-57508773D01*
X70552206Y-57492288D01*
X68906117Y-55846199D01*
X68872091Y-55783887D01*
X68870958Y-55736198D01*
X68872307Y-55728185D01*
X68875095Y-55711611D01*
X68875237Y-55700000D01*
X68859761Y-55591933D01*
X68857408Y-55575503D01*
X68857407Y-55575500D01*
X68856135Y-55566617D01*
X68844888Y-55541879D01*
X68813785Y-55473472D01*
X68800365Y-55443956D01*
X68754149Y-55390320D01*
X68733838Y-55366748D01*
X68704524Y-55302086D01*
X68714823Y-55231840D01*
X68761465Y-55178313D01*
X68829291Y-55158500D01*
X70437183Y-55158500D01*
X70505304Y-55178502D01*
X70526278Y-55195405D01*
X75074874Y-59744002D01*
X75108900Y-59806314D01*
X75106111Y-59870462D01*
X75094128Y-59909051D01*
X75094125Y-59909064D01*
X75092414Y-59914575D01*
X75068058Y-60120359D01*
X75081611Y-60327135D01*
X75083032Y-60332731D01*
X75083033Y-60332736D01*
X75101303Y-60404673D01*
X75107209Y-60427924D01*
X75108962Y-60434828D01*
X75106344Y-60505777D01*
X75075934Y-60554939D01*
X70526278Y-65104595D01*
X70463966Y-65138621D01*
X70437183Y-65141500D01*
X67784823Y-65141500D01*
X67716702Y-65121498D01*
X67671818Y-65071230D01*
X67668027Y-65063543D01*
X67668024Y-65063539D01*
X67665470Y-65058359D01*
X67541485Y-64892323D01*
X67436005Y-64794818D01*
X67393559Y-64755581D01*
X67393556Y-64755579D01*
X67389319Y-64751662D01*
X67329184Y-64713720D01*
X67218951Y-64644168D01*
X67218946Y-64644166D01*
X67214067Y-64641087D01*
X67021599Y-64564300D01*
X66818361Y-64523873D01*
X66812587Y-64523797D01*
X66812583Y-64523797D01*
X66707399Y-64522421D01*
X66611158Y-64521161D01*
X66605461Y-64522140D01*
X66605460Y-64522140D01*
X66412628Y-64555274D01*
X66412627Y-64555274D01*
X66406931Y-64556253D01*
X66212519Y-64627976D01*
X66207558Y-64630928D01*
X66207557Y-64630928D01*
X66064250Y-64716187D01*
X66034433Y-64733926D01*
X65878637Y-64870555D01*
X65750348Y-65033289D01*
X65747659Y-65038400D01*
X65747657Y-65038403D01*
X65730386Y-65071230D01*
X65653863Y-65216676D01*
X65592414Y-65414575D01*
X65568058Y-65620359D01*
X58114739Y-65620359D01*
X58114739Y-60882670D01*
X65832160Y-60882670D01*
X65837887Y-60890320D01*
X66009042Y-60995205D01*
X66017837Y-60999687D01*
X66227988Y-61086734D01*
X66237373Y-61089783D01*
X66458554Y-61142885D01*
X66468301Y-61144428D01*
X66695070Y-61162275D01*
X66704930Y-61162275D01*
X66931699Y-61144428D01*
X66941446Y-61142885D01*
X67162627Y-61089783D01*
X67172012Y-61086734D01*
X67382163Y-60999687D01*
X67390958Y-60995205D01*
X67558445Y-60892568D01*
X67567907Y-60882110D01*
X67564124Y-60873334D01*
X66712812Y-60022022D01*
X66698868Y-60014408D01*
X66697035Y-60014539D01*
X66690420Y-60018790D01*
X65838920Y-60870290D01*
X65832160Y-60882670D01*
X58114739Y-60882670D01*
X58114739Y-59654930D01*
X65187725Y-59654930D01*
X65205572Y-59881699D01*
X65207115Y-59891446D01*
X65260217Y-60112627D01*
X65263266Y-60122012D01*
X65350313Y-60332163D01*
X65354795Y-60340958D01*
X65457432Y-60508445D01*
X65467890Y-60517907D01*
X65476666Y-60514124D01*
X66327978Y-59662812D01*
X66334356Y-59651132D01*
X67064408Y-59651132D01*
X67064539Y-59652965D01*
X67068790Y-59659580D01*
X67920290Y-60511080D01*
X67932670Y-60517840D01*
X67940320Y-60512113D01*
X68045205Y-60340958D01*
X68049687Y-60332163D01*
X68136734Y-60122012D01*
X68139783Y-60112627D01*
X68192885Y-59891446D01*
X68194428Y-59881699D01*
X68212275Y-59654930D01*
X68212275Y-59645070D01*
X68194428Y-59418301D01*
X68192885Y-59408554D01*
X68139783Y-59187373D01*
X68136734Y-59177988D01*
X68049687Y-58967837D01*
X68045205Y-58959042D01*
X67942568Y-58791555D01*
X67932110Y-58782093D01*
X67923334Y-58785876D01*
X67072022Y-59637188D01*
X67064408Y-59651132D01*
X66334356Y-59651132D01*
X66335592Y-59648868D01*
X66335461Y-59647035D01*
X66331210Y-59640420D01*
X65479710Y-58788920D01*
X65467330Y-58782160D01*
X65459680Y-58787887D01*
X65354795Y-58959042D01*
X65350313Y-58967837D01*
X65263266Y-59177988D01*
X65260217Y-59187373D01*
X65207115Y-59408554D01*
X65205572Y-59418301D01*
X65187725Y-59645070D01*
X65187725Y-59654930D01*
X58114739Y-59654930D01*
X58114739Y-49882670D01*
X65832160Y-49882670D01*
X65837887Y-49890320D01*
X66009042Y-49995205D01*
X66017837Y-49999687D01*
X66227988Y-50086734D01*
X66237373Y-50089783D01*
X66458554Y-50142885D01*
X66468301Y-50144428D01*
X66695070Y-50162275D01*
X66704930Y-50162275D01*
X66931699Y-50144428D01*
X66941446Y-50142885D01*
X67162627Y-50089783D01*
X67172012Y-50086734D01*
X67382163Y-49999687D01*
X67390958Y-49995205D01*
X67558445Y-49892568D01*
X67567907Y-49882110D01*
X67564124Y-49873334D01*
X66712812Y-49022022D01*
X66698868Y-49014408D01*
X66697035Y-49014539D01*
X66690420Y-49018790D01*
X65838920Y-49870290D01*
X65832160Y-49882670D01*
X58114739Y-49882670D01*
X58114739Y-48654930D01*
X65187725Y-48654930D01*
X65205572Y-48881699D01*
X65207115Y-48891446D01*
X65260217Y-49112627D01*
X65263266Y-49122012D01*
X65350313Y-49332163D01*
X65354795Y-49340958D01*
X65457432Y-49508445D01*
X65467890Y-49517907D01*
X65476666Y-49514124D01*
X66327978Y-48662812D01*
X66334356Y-48651132D01*
X67064408Y-48651132D01*
X67064539Y-48652965D01*
X67068790Y-48659580D01*
X67920290Y-49511080D01*
X67932670Y-49517840D01*
X67940320Y-49512113D01*
X68045205Y-49340958D01*
X68049687Y-49332163D01*
X68136734Y-49122012D01*
X68139783Y-49112627D01*
X68192885Y-48891446D01*
X68194428Y-48881699D01*
X68212275Y-48654930D01*
X68212275Y-48645070D01*
X68194428Y-48418301D01*
X68192885Y-48408554D01*
X68139783Y-48187373D01*
X68136734Y-48177988D01*
X68049687Y-47967837D01*
X68045205Y-47959042D01*
X67942568Y-47791555D01*
X67932110Y-47782093D01*
X67923334Y-47785876D01*
X67072022Y-48637188D01*
X67064408Y-48651132D01*
X66334356Y-48651132D01*
X66335592Y-48648868D01*
X66335461Y-48647035D01*
X66331210Y-48640420D01*
X65479710Y-47788920D01*
X65467330Y-47782160D01*
X65459680Y-47787887D01*
X65354795Y-47959042D01*
X65350313Y-47967837D01*
X65263266Y-48177988D01*
X65260217Y-48187373D01*
X65207115Y-48408554D01*
X65205572Y-48418301D01*
X65187725Y-48645070D01*
X65187725Y-48654930D01*
X58114739Y-48654930D01*
X58114739Y-47417890D01*
X65832093Y-47417890D01*
X65835876Y-47426666D01*
X66687188Y-48277978D01*
X66701132Y-48285592D01*
X66702965Y-48285461D01*
X66709580Y-48281210D01*
X67561080Y-47429710D01*
X67567840Y-47417330D01*
X67562113Y-47409680D01*
X67390958Y-47304795D01*
X67382163Y-47300313D01*
X67172012Y-47213266D01*
X67162627Y-47210217D01*
X66941446Y-47157115D01*
X66931699Y-47155572D01*
X66704930Y-47137725D01*
X66695070Y-47137725D01*
X66468301Y-47155572D01*
X66458554Y-47157115D01*
X66237373Y-47210217D01*
X66227988Y-47213266D01*
X66017837Y-47300313D01*
X66009042Y-47304795D01*
X65841555Y-47407432D01*
X65832093Y-47417890D01*
X58114739Y-47417890D01*
X58114739Y-45744194D01*
X70124798Y-45744194D01*
X70125962Y-45753095D01*
X70125962Y-45753099D01*
X70141106Y-45868902D01*
X70142270Y-45877801D01*
X70196537Y-46001133D01*
X70283239Y-46104278D01*
X70395405Y-46178942D01*
X70524019Y-46219124D01*
X70658740Y-46221593D01*
X70712494Y-46206938D01*
X70780080Y-46188512D01*
X70780082Y-46188511D01*
X70788739Y-46186151D01*
X70903566Y-46115647D01*
X70993989Y-46015749D01*
X71001071Y-46001133D01*
X71048826Y-45902567D01*
X71048827Y-45902565D01*
X71052740Y-45894488D01*
X71075095Y-45761611D01*
X71075237Y-45750000D01*
X71056135Y-45616617D01*
X71000365Y-45493956D01*
X70990370Y-45482356D01*
X70918269Y-45398679D01*
X70918266Y-45398677D01*
X70912409Y-45391879D01*
X70799339Y-45318591D01*
X70783052Y-45313720D01*
X70678846Y-45282555D01*
X70678844Y-45282555D01*
X70670245Y-45279983D01*
X70661270Y-45279928D01*
X70661269Y-45279928D01*
X70602874Y-45279571D01*
X70535503Y-45279160D01*
X70526871Y-45281627D01*
X70414577Y-45313720D01*
X70414575Y-45313721D01*
X70405946Y-45316187D01*
X70291989Y-45388089D01*
X70202793Y-45489084D01*
X70145529Y-45611054D01*
X70124798Y-45744194D01*
X58114739Y-45744194D01*
X58114739Y-41962922D01*
X58131620Y-41899922D01*
X58708884Y-40900071D01*
X58755001Y-40853954D01*
X59811135Y-40244194D01*
X70124798Y-40244194D01*
X70125962Y-40253095D01*
X70125962Y-40253099D01*
X70134701Y-40319924D01*
X70142270Y-40377801D01*
X70196537Y-40501133D01*
X70202315Y-40508006D01*
X70202315Y-40508007D01*
X70260983Y-40577801D01*
X70283239Y-40604278D01*
X70395405Y-40678942D01*
X70524019Y-40719124D01*
X70658740Y-40721593D01*
X70733786Y-40701133D01*
X70780080Y-40688512D01*
X70780082Y-40688511D01*
X70788739Y-40686151D01*
X70903566Y-40615647D01*
X70913857Y-40604278D01*
X70987961Y-40522409D01*
X70987962Y-40522408D01*
X70993989Y-40515749D01*
X71001071Y-40501133D01*
X71048826Y-40402567D01*
X71048827Y-40402565D01*
X71052740Y-40394488D01*
X71075095Y-40261611D01*
X71075237Y-40250000D01*
X71056135Y-40116617D01*
X71044888Y-40091879D01*
X71013786Y-40023474D01*
X71000365Y-39993956D01*
X70987616Y-39979160D01*
X70918269Y-39898679D01*
X70918266Y-39898677D01*
X70912409Y-39891879D01*
X70799339Y-39818591D01*
X70783052Y-39813720D01*
X70678846Y-39782555D01*
X70678844Y-39782555D01*
X70670245Y-39779983D01*
X70661270Y-39779928D01*
X70661269Y-39779928D01*
X70602874Y-39779571D01*
X70535503Y-39779160D01*
X70526871Y-39781627D01*
X70414577Y-39813720D01*
X70414575Y-39813721D01*
X70405946Y-39816187D01*
X70291989Y-39888089D01*
X70202793Y-39989084D01*
X70198979Y-39997207D01*
X70198978Y-39997209D01*
X70153152Y-40094818D01*
X70145529Y-40111054D01*
X70144148Y-40119924D01*
X70131348Y-40202130D01*
X70124798Y-40244194D01*
X59811135Y-40244194D01*
X66438479Y-36417890D01*
X84832093Y-36417890D01*
X84835876Y-36426666D01*
X85687188Y-37277978D01*
X85701132Y-37285592D01*
X85702965Y-37285461D01*
X85709580Y-37281210D01*
X86561080Y-36429710D01*
X86567840Y-36417330D01*
X86562113Y-36409680D01*
X86390958Y-36304795D01*
X86382163Y-36300313D01*
X86172012Y-36213266D01*
X86162627Y-36210217D01*
X85941446Y-36157115D01*
X85931699Y-36155572D01*
X85704930Y-36137725D01*
X85695070Y-36137725D01*
X85468301Y-36155572D01*
X85458554Y-36157115D01*
X85237373Y-36210217D01*
X85227988Y-36213266D01*
X85017837Y-36300313D01*
X85009042Y-36304795D01*
X84841555Y-36407432D01*
X84832093Y-36417890D01*
X66438479Y-36417890D01*
X70764324Y-33920359D01*
X81668058Y-33920359D01*
X81681611Y-34127135D01*
X81732619Y-34327980D01*
X81819373Y-34516165D01*
X81822704Y-34520878D01*
X81822705Y-34520880D01*
X81875652Y-34595797D01*
X81938970Y-34685390D01*
X82087402Y-34829986D01*
X82092198Y-34833191D01*
X82092201Y-34833193D01*
X82161493Y-34879492D01*
X82259699Y-34945111D01*
X82265002Y-34947389D01*
X82265005Y-34947391D01*
X82444784Y-35024630D01*
X82450091Y-35026910D01*
X82652201Y-35072643D01*
X82657972Y-35072870D01*
X82657974Y-35072870D01*
X82727210Y-35075590D01*
X82859262Y-35080778D01*
X82947561Y-35067975D01*
X83058616Y-35051874D01*
X83058621Y-35051873D01*
X83064337Y-35051044D01*
X83069809Y-35049186D01*
X83069811Y-35049186D01*
X83255096Y-34986290D01*
X83255098Y-34986289D01*
X83260560Y-34984435D01*
X83441359Y-34883183D01*
X83600678Y-34750678D01*
X83733183Y-34591359D01*
X83834435Y-34410560D01*
X83901044Y-34214337D01*
X83901873Y-34208621D01*
X83901874Y-34208616D01*
X83930245Y-34012936D01*
X83930778Y-34009262D01*
X83932330Y-33950000D01*
X83913369Y-33743649D01*
X83906788Y-33720312D01*
X83858689Y-33549768D01*
X83858688Y-33549766D01*
X83857121Y-33544209D01*
X83848122Y-33525959D01*
X83768025Y-33363540D01*
X83765470Y-33358359D01*
X83743362Y-33328752D01*
X83644938Y-33196947D01*
X83644937Y-33196946D01*
X83641485Y-33192323D01*
X83550161Y-33107904D01*
X83493559Y-33055581D01*
X83493556Y-33055579D01*
X83489319Y-33051662D01*
X83410798Y-33002119D01*
X83318951Y-32944168D01*
X83318946Y-32944166D01*
X83314067Y-32941087D01*
X83121599Y-32864300D01*
X82918361Y-32823873D01*
X82912587Y-32823797D01*
X82912583Y-32823797D01*
X82807399Y-32822421D01*
X82711158Y-32821161D01*
X82705461Y-32822140D01*
X82705460Y-32822140D01*
X82512628Y-32855274D01*
X82512627Y-32855274D01*
X82506931Y-32856253D01*
X82312519Y-32927976D01*
X82134433Y-33033926D01*
X81978637Y-33170555D01*
X81850348Y-33333289D01*
X81753863Y-33516676D01*
X81692414Y-33714575D01*
X81668058Y-33920359D01*
X70764324Y-33920359D01*
X76438800Y-30644194D01*
X79324798Y-30644194D01*
X79325962Y-30653095D01*
X79325962Y-30653099D01*
X79341106Y-30768902D01*
X79342270Y-30777801D01*
X79396537Y-30901133D01*
X79483239Y-31004278D01*
X79595405Y-31078942D01*
X79724019Y-31119124D01*
X79858740Y-31121593D01*
X79912494Y-31106938D01*
X79980080Y-31088512D01*
X79980082Y-31088511D01*
X79988739Y-31086151D01*
X80103566Y-31015647D01*
X80193989Y-30915749D01*
X80196577Y-30910407D01*
X80250077Y-30866092D01*
X80320558Y-30857553D01*
X80384467Y-30888474D01*
X80395649Y-30901879D01*
X80396537Y-30901133D01*
X80483239Y-31004278D01*
X80595405Y-31078942D01*
X80724019Y-31119124D01*
X80858740Y-31121593D01*
X80912494Y-31106938D01*
X80980080Y-31088512D01*
X80980082Y-31088511D01*
X80988739Y-31086151D01*
X81103566Y-31015647D01*
X81193989Y-30915749D01*
X81196577Y-30910407D01*
X81250077Y-30866092D01*
X81320558Y-30857553D01*
X81384467Y-30888474D01*
X81395649Y-30901879D01*
X81396537Y-30901133D01*
X81483239Y-31004278D01*
X81595405Y-31078942D01*
X81724019Y-31119124D01*
X81858740Y-31121593D01*
X81912494Y-31106938D01*
X81980080Y-31088512D01*
X81980082Y-31088511D01*
X81988739Y-31086151D01*
X82103566Y-31015647D01*
X82193989Y-30915749D01*
X82196577Y-30910407D01*
X82250077Y-30866092D01*
X82320558Y-30857553D01*
X82384467Y-30888474D01*
X82395649Y-30901879D01*
X82396537Y-30901133D01*
X82483239Y-31004278D01*
X82595405Y-31078942D01*
X82724019Y-31119124D01*
X82858740Y-31121593D01*
X82912494Y-31106938D01*
X82980080Y-31088512D01*
X82980082Y-31088511D01*
X82988739Y-31086151D01*
X83103566Y-31015647D01*
X83193989Y-30915749D01*
X83196577Y-30910407D01*
X83250077Y-30866092D01*
X83320558Y-30857553D01*
X83384467Y-30888474D01*
X83395649Y-30901879D01*
X83396537Y-30901133D01*
X83483239Y-31004278D01*
X83595405Y-31078942D01*
X83724019Y-31119124D01*
X83858740Y-31121593D01*
X83912494Y-31106938D01*
X83980080Y-31088512D01*
X83980082Y-31088511D01*
X83988739Y-31086151D01*
X84103566Y-31015647D01*
X84193989Y-30915749D01*
X84201071Y-30901133D01*
X84248826Y-30802567D01*
X84248827Y-30802565D01*
X84252740Y-30794488D01*
X84275095Y-30661611D01*
X84275237Y-30650000D01*
X84256135Y-30516617D01*
X84200365Y-30393956D01*
X84190366Y-30382352D01*
X84118269Y-30298679D01*
X84118266Y-30298677D01*
X84112409Y-30291879D01*
X84056826Y-30255852D01*
X84010544Y-30202017D01*
X84000713Y-30131704D01*
X84030457Y-30067239D01*
X84059431Y-30042746D01*
X84095918Y-30020343D01*
X84095919Y-30020343D01*
X84103566Y-30015647D01*
X84193989Y-29915749D01*
X84201071Y-29901133D01*
X84248826Y-29802567D01*
X84248827Y-29802565D01*
X84252740Y-29794488D01*
X84275095Y-29661611D01*
X84275237Y-29650000D01*
X84256135Y-29516617D01*
X84200365Y-29393956D01*
X84190366Y-29382352D01*
X84118269Y-29298679D01*
X84118266Y-29298677D01*
X84112409Y-29291879D01*
X83999339Y-29218591D01*
X83983052Y-29213720D01*
X83878846Y-29182555D01*
X83878844Y-29182555D01*
X83870245Y-29179983D01*
X83861270Y-29179928D01*
X83861269Y-29179928D01*
X83802874Y-29179571D01*
X83735503Y-29179160D01*
X83726871Y-29181627D01*
X83614577Y-29213720D01*
X83614575Y-29213721D01*
X83605946Y-29216187D01*
X83491989Y-29288089D01*
X83486047Y-29294818D01*
X83486046Y-29294818D01*
X83408738Y-29382352D01*
X83408737Y-29382354D01*
X83402793Y-29389084D01*
X83402332Y-29390067D01*
X83351245Y-29433450D01*
X83280873Y-29442853D01*
X83216590Y-29412717D01*
X83200461Y-29393874D01*
X83200365Y-29393956D01*
X83118269Y-29298679D01*
X83118266Y-29298677D01*
X83112409Y-29291879D01*
X82999339Y-29218591D01*
X82983052Y-29213720D01*
X82878846Y-29182555D01*
X82878844Y-29182555D01*
X82870245Y-29179983D01*
X82861270Y-29179928D01*
X82861269Y-29179928D01*
X82802874Y-29179571D01*
X82735503Y-29179160D01*
X82726871Y-29181627D01*
X82614577Y-29213720D01*
X82614575Y-29213721D01*
X82605946Y-29216187D01*
X82491989Y-29288089D01*
X82486047Y-29294818D01*
X82486046Y-29294818D01*
X82408738Y-29382352D01*
X82408737Y-29382354D01*
X82402793Y-29389084D01*
X82402332Y-29390067D01*
X82351245Y-29433450D01*
X82280873Y-29442853D01*
X82216590Y-29412717D01*
X82200461Y-29393874D01*
X82200365Y-29393956D01*
X82118269Y-29298679D01*
X82118266Y-29298677D01*
X82112409Y-29291879D01*
X81999339Y-29218591D01*
X81983052Y-29213720D01*
X81878846Y-29182555D01*
X81878844Y-29182555D01*
X81870245Y-29179983D01*
X81861270Y-29179928D01*
X81861269Y-29179928D01*
X81802874Y-29179571D01*
X81735503Y-29179160D01*
X81726871Y-29181627D01*
X81614577Y-29213720D01*
X81614575Y-29213721D01*
X81605946Y-29216187D01*
X81491989Y-29288089D01*
X81486047Y-29294818D01*
X81486046Y-29294818D01*
X81408738Y-29382352D01*
X81408737Y-29382354D01*
X81402793Y-29389084D01*
X81402332Y-29390067D01*
X81351245Y-29433450D01*
X81280873Y-29442853D01*
X81216590Y-29412717D01*
X81200461Y-29393874D01*
X81200365Y-29393956D01*
X81118269Y-29298679D01*
X81118266Y-29298677D01*
X81112409Y-29291879D01*
X80999339Y-29218591D01*
X80983052Y-29213720D01*
X80878846Y-29182555D01*
X80878844Y-29182555D01*
X80870245Y-29179983D01*
X80861270Y-29179928D01*
X80861269Y-29179928D01*
X80802874Y-29179571D01*
X80735503Y-29179160D01*
X80726871Y-29181627D01*
X80614577Y-29213720D01*
X80614575Y-29213721D01*
X80605946Y-29216187D01*
X80491989Y-29288089D01*
X80486047Y-29294818D01*
X80486046Y-29294818D01*
X80408738Y-29382352D01*
X80408737Y-29382354D01*
X80402793Y-29389084D01*
X80402332Y-29390067D01*
X80351245Y-29433450D01*
X80280873Y-29442853D01*
X80216590Y-29412717D01*
X80200461Y-29393874D01*
X80200365Y-29393956D01*
X80118269Y-29298679D01*
X80118266Y-29298677D01*
X80112409Y-29291879D01*
X79999339Y-29218591D01*
X79983052Y-29213720D01*
X79878846Y-29182555D01*
X79878844Y-29182555D01*
X79870245Y-29179983D01*
X79861270Y-29179928D01*
X79861269Y-29179928D01*
X79802874Y-29179571D01*
X79735503Y-29179160D01*
X79726871Y-29181627D01*
X79614577Y-29213720D01*
X79614575Y-29213721D01*
X79605946Y-29216187D01*
X79491989Y-29288089D01*
X79402793Y-29389084D01*
X79345529Y-29511054D01*
X79324798Y-29644194D01*
X79325962Y-29653095D01*
X79325962Y-29653099D01*
X79341106Y-29768902D01*
X79342270Y-29777801D01*
X79396537Y-29901133D01*
X79483239Y-30004278D01*
X79490716Y-30009255D01*
X79544563Y-30045099D01*
X79590186Y-30099497D01*
X79599157Y-30169924D01*
X79568627Y-30234022D01*
X79541982Y-30256546D01*
X79491989Y-30288089D01*
X79402793Y-30389084D01*
X79345529Y-30511054D01*
X79324798Y-30644194D01*
X76438800Y-30644194D01*
X85059776Y-25666864D01*
X85122775Y-25649983D01*
X85700041Y-25649984D01*
G37*
%TD.AperFunction*%
%TD*%
M02*
