%TF.GenerationSoftware,KiCad,Pcbnew,(6.0.4-0)*%
%TF.CreationDate,2022-04-19T08:43:48+02:00*%
%TF.ProjectId,speaker,73706561-6b65-4722-9e6b-696361645f70,rev?*%
%TF.SameCoordinates,Original*%
%TF.FileFunction,Copper,L2,Inr*%
%TF.FilePolarity,Positive*%
%FSLAX46Y46*%
G04 Gerber Fmt 4.6, Leading zero omitted, Abs format (unit mm)*
G04 Created by KiCad (PCBNEW (6.0.4-0)) date 2022-04-19 08:43:48*
%MOMM*%
%LPD*%
G01*
G04 APERTURE LIST*
G04 Aperture macros list*
%AMRoundRect*
0 Rectangle with rounded corners*
0 $1 Rounding radius*
0 $2 $3 $4 $5 $6 $7 $8 $9 X,Y pos of 4 corners*
0 Add a 4 corners polygon primitive as box body*
4,1,4,$2,$3,$4,$5,$6,$7,$8,$9,$2,$3,0*
0 Add four circle primitives for the rounded corners*
1,1,$1+$1,$2,$3*
1,1,$1+$1,$4,$5*
1,1,$1+$1,$6,$7*
1,1,$1+$1,$8,$9*
0 Add four rect primitives between the rounded corners*
20,1,$1+$1,$2,$3,$4,$5,0*
20,1,$1+$1,$4,$5,$6,$7,0*
20,1,$1+$1,$6,$7,$8,$9,0*
20,1,$1+$1,$8,$9,$2,$3,0*%
G04 Aperture macros list end*
%TA.AperFunction,Profile*%
%ADD10C,0.088304*%
%TD*%
%TA.AperFunction,ComponentPad*%
%ADD11C,2.000000*%
%TD*%
%TA.AperFunction,ComponentPad*%
%ADD12RoundRect,0.250000X0.625000X-0.350000X0.625000X0.350000X-0.625000X0.350000X-0.625000X-0.350000X0*%
%TD*%
%TA.AperFunction,ComponentPad*%
%ADD13O,1.750000X1.200000*%
%TD*%
%TA.AperFunction,ViaPad*%
%ADD14C,0.685800*%
%TD*%
G04 APERTURE END LIST*
D10*
X57987239Y-73149866D02*
X85700040Y-89150019D01*
X85700040Y-25149982D02*
X57987239Y-41149998D01*
X85700040Y-25149982D02*
X85700040Y-25149982D01*
X57987239Y-73149866D02*
X57987239Y-73149866D01*
X85700040Y-89150019D02*
X113412761Y-73149866D01*
X57987239Y-41149998D02*
X57987239Y-41149998D01*
X113412761Y-41149998D02*
X85700040Y-25149982D01*
X113412761Y-41149998D02*
X113412761Y-41149998D01*
X57987239Y-41149998D02*
X57987239Y-73149866D01*
X113412761Y-73149866D02*
X113412761Y-41149998D01*
X113412761Y-73149866D02*
X113412761Y-73149866D01*
D11*
%TO.N,/Trancducer Sig*%
%TO.C,M15*%
X95200000Y-60150000D03*
%TO.N,GND*%
X95200000Y-65150000D03*
%TD*%
%TO.N,/Trancducer Sig*%
%TO.C,M6*%
X95200000Y-71150000D03*
%TO.N,GND*%
X95200000Y-76150000D03*
%TD*%
%TO.N,/Trancducer Sig*%
%TO.C,M7*%
X85700000Y-76650000D03*
%TO.N,GND*%
X85700000Y-81650000D03*
%TD*%
%TO.N,/Trancducer Sig*%
%TO.C,M11*%
X66700000Y-43650000D03*
%TO.N,GND*%
X66700000Y-48650000D03*
%TD*%
%TO.N,/Trancducer Sig*%
%TO.C,M12*%
X76200000Y-38150000D03*
%TO.N,GND*%
X76200000Y-43150000D03*
%TD*%
%TO.N,/Trancducer Sig*%
%TO.C,M9*%
X66700000Y-65650000D03*
%TO.N,GND*%
X66700000Y-70650000D03*
%TD*%
%TO.N,/Trancducer Sig*%
%TO.C,M19*%
X85700000Y-54650000D03*
%TO.N,GND*%
X85700000Y-59650000D03*
%TD*%
%TO.N,/Trancducer Sig*%
%TO.C,M5*%
X104700000Y-65650000D03*
%TO.N,GND*%
X104700000Y-70650000D03*
%TD*%
%TO.N,/Trancducer Sig*%
%TO.C,M1*%
X85700000Y-32650000D03*
%TO.N,GND*%
X85700000Y-37650000D03*
%TD*%
%TO.N,/Trancducer Sig*%
%TO.C,M14*%
X95200000Y-49150000D03*
%TO.N,GND*%
X95200000Y-54150000D03*
%TD*%
%TO.N,/Trancducer Sig*%
%TO.C,M8*%
X76200000Y-71150000D03*
%TO.N,GND*%
X76200000Y-76150000D03*
%TD*%
%TO.N,/Trancducer Sig*%
%TO.C,M16*%
X85700000Y-65650000D03*
%TO.N,GND*%
X85700000Y-70650000D03*
%TD*%
%TO.N,/Trancducer Sig*%
%TO.C,M13*%
X85700000Y-43650000D03*
%TO.N,GND*%
X85700000Y-48650000D03*
%TD*%
%TO.N,/Trancducer Sig*%
%TO.C,M4*%
X104700000Y-54650000D03*
%TO.N,GND*%
X104700000Y-59650000D03*
%TD*%
%TO.N,/Trancducer Sig*%
%TO.C,M3*%
X104700000Y-43650000D03*
%TO.N,GND*%
X104700000Y-48650000D03*
%TD*%
%TO.N,/Trancducer Sig*%
%TO.C,M2*%
X95200000Y-38150000D03*
%TO.N,GND*%
X95200000Y-43150000D03*
%TD*%
%TO.N,/Trancducer Sig*%
%TO.C,M10*%
X66700000Y-54650000D03*
%TO.N,GND*%
X66700000Y-59650000D03*
%TD*%
%TO.N,/Trancducer Sig*%
%TO.C,M17*%
X76200000Y-60150000D03*
%TO.N,GND*%
X76200000Y-65150000D03*
%TD*%
%TO.N,/Trancducer Sig*%
%TO.C,M18*%
X76200000Y-49150000D03*
%TO.N,GND*%
X76200000Y-54150000D03*
%TD*%
%TO.N,+24V*%
%TO.C,TP1*%
X82800000Y-33950000D03*
%TD*%
%TO.N,/Trancducer Sig*%
%TO.C,TP2*%
X73950000Y-51400000D03*
%TD*%
%TO.N,/Audio Sig*%
%TO.C,TP3*%
X89200000Y-67950000D03*
%TD*%
D12*
%TO.N,GND*%
%TO.C,J7*%
X111000000Y-65550000D03*
D13*
%TO.N,+5V*%
X111000000Y-63550000D03*
%TD*%
D14*
%TO.N,+5V*%
X93000000Y-40450000D03*
X95250000Y-51950000D03*
X96150000Y-51950000D03*
X94350000Y-51950000D03*
X94800000Y-40450000D03*
X80600000Y-83700000D03*
X94800000Y-41350000D03*
X93900000Y-41350000D03*
X93900000Y-40450000D03*
X93100000Y-32200000D03*
X93000000Y-41350000D03*
X94350000Y-51050000D03*
X95700000Y-41350000D03*
X95700000Y-40450000D03*
X95250000Y-51050000D03*
X90000000Y-75300000D03*
X78987500Y-70162500D03*
%TO.N,GND*%
X85300000Y-39650000D03*
X83800000Y-51300000D03*
X90000000Y-71200000D03*
X73050000Y-36100002D03*
X73050002Y-34400000D03*
X86300000Y-40850000D03*
X86750000Y-63050000D03*
X75250000Y-68700000D03*
X98100000Y-44500000D03*
X73050000Y-33500000D03*
X74650000Y-55650000D03*
X85300000Y-40850000D03*
X72500000Y-66150000D03*
X79000000Y-75250000D03*
X92150000Y-56300000D03*
X86300000Y-39650000D03*
X77100000Y-50850000D03*
X73049998Y-35200001D03*
%TO.N,+24V*%
X83800000Y-29650000D03*
X81400000Y-55899998D03*
X80800000Y-30650000D03*
X78700002Y-55900000D03*
X80800000Y-29650000D03*
X79600000Y-56799998D03*
X82800000Y-30650000D03*
X82800000Y-29650000D03*
X79800000Y-30650000D03*
X79800000Y-29650000D03*
X79800000Y-65150000D03*
X79600002Y-55899997D03*
X81800000Y-30650000D03*
X80500001Y-56800000D03*
X81800000Y-29650000D03*
X83800000Y-30650000D03*
X80500001Y-55900000D03*
X81400002Y-56799998D03*
X78700000Y-56800000D03*
%TO.N,Net-(JP2-Pad2)*%
X86250000Y-72700000D03*
X93150000Y-72700000D03*
%TO.N,/SCL*%
X70600000Y-40250000D03*
X81550000Y-76950000D03*
X81550000Y-79400000D03*
X70600000Y-45750000D03*
X99600000Y-76750000D03*
X101600000Y-70400000D03*
X97000000Y-79350000D03*
%TO.N,/SDA*%
X68400000Y-55700000D03*
X104750000Y-56650000D03*
X70700000Y-70350000D03*
X66450000Y-57650000D03*
X79300000Y-80500000D03*
X79300000Y-78150000D03*
X70700000Y-58000000D03*
X70700000Y-74050000D03*
X100450000Y-56650000D03*
%TD*%
%TA.AperFunction,Conductor*%
%TO.N,+24V*%
G36*
X85763040Y-25333580D02*
G01*
X87385481Y-26270301D01*
X87434474Y-26321684D01*
X87448481Y-26379420D01*
X87448481Y-62870092D01*
X87428479Y-62938213D01*
X87374823Y-62984706D01*
X87304549Y-62994810D01*
X87239969Y-62965316D01*
X87208129Y-62915710D01*
X87206135Y-62916617D01*
X87199910Y-62902926D01*
X87150365Y-62793956D01*
X87140370Y-62782356D01*
X87068269Y-62698679D01*
X87068266Y-62698677D01*
X87062409Y-62691879D01*
X86949339Y-62618591D01*
X86933052Y-62613720D01*
X86828846Y-62582555D01*
X86828844Y-62582555D01*
X86820245Y-62579983D01*
X86811270Y-62579928D01*
X86811269Y-62579928D01*
X86752874Y-62579572D01*
X86685503Y-62579160D01*
X86676871Y-62581627D01*
X86564577Y-62613720D01*
X86564575Y-62613721D01*
X86555946Y-62616187D01*
X86441989Y-62688089D01*
X86352793Y-62789084D01*
X86295529Y-62911054D01*
X86274798Y-63044194D01*
X86275962Y-63053095D01*
X86275962Y-63053099D01*
X86291106Y-63168902D01*
X86292270Y-63177801D01*
X86346537Y-63301133D01*
X86433239Y-63404278D01*
X86545405Y-63478942D01*
X86674019Y-63519124D01*
X86808740Y-63521593D01*
X86862494Y-63506938D01*
X86930080Y-63488512D01*
X86930082Y-63488511D01*
X86938739Y-63486151D01*
X87053566Y-63415647D01*
X87143989Y-63315749D01*
X87151071Y-63301133D01*
X87198825Y-63202568D01*
X87202740Y-63194488D01*
X87203569Y-63189563D01*
X87242213Y-63132409D01*
X87307465Y-63104431D01*
X87377484Y-63116172D01*
X87430040Y-63163904D01*
X87448481Y-63229533D01*
X87448481Y-66391365D01*
X87428479Y-66459486D01*
X87374823Y-66505979D01*
X87322481Y-66517365D01*
X86713892Y-66517365D01*
X86645771Y-66497363D01*
X86599278Y-66443707D01*
X86589174Y-66373433D01*
X86617019Y-66310795D01*
X86629487Y-66295804D01*
X86629492Y-66295797D01*
X86633183Y-66291359D01*
X86643665Y-66272643D01*
X86672650Y-66220885D01*
X86734435Y-66110560D01*
X86766325Y-66016617D01*
X86799186Y-65919811D01*
X86799186Y-65919809D01*
X86801044Y-65914337D01*
X86801873Y-65908621D01*
X86801874Y-65908616D01*
X86829798Y-65716019D01*
X86830778Y-65709262D01*
X86832330Y-65650000D01*
X86813369Y-65443649D01*
X86806788Y-65420312D01*
X86758689Y-65249768D01*
X86758688Y-65249766D01*
X86757121Y-65244209D01*
X86746265Y-65222194D01*
X86668025Y-65063540D01*
X86665470Y-65058359D01*
X86643362Y-65028752D01*
X86544938Y-64896947D01*
X86544937Y-64896946D01*
X86541485Y-64892323D01*
X86389319Y-64751662D01*
X86325761Y-64711560D01*
X86218951Y-64644168D01*
X86218946Y-64644166D01*
X86214067Y-64641087D01*
X86021599Y-64564300D01*
X85818361Y-64523873D01*
X85812587Y-64523797D01*
X85812583Y-64523797D01*
X85707399Y-64522421D01*
X85611158Y-64521161D01*
X85605461Y-64522140D01*
X85605460Y-64522140D01*
X85412628Y-64555274D01*
X85412627Y-64555274D01*
X85406931Y-64556253D01*
X85212519Y-64627976D01*
X85207558Y-64630928D01*
X85207557Y-64630928D01*
X85063428Y-64716676D01*
X85034433Y-64733926D01*
X84878637Y-64870555D01*
X84750348Y-65033289D01*
X84653863Y-65216676D01*
X84592414Y-65414575D01*
X84568058Y-65620359D01*
X84581611Y-65827135D01*
X84632619Y-66027980D01*
X84719373Y-66216165D01*
X84722705Y-66220879D01*
X84722708Y-66220885D01*
X84791798Y-66318645D01*
X84814779Y-66385819D01*
X84797795Y-66454754D01*
X84746237Y-66503564D01*
X84688901Y-66517365D01*
X76374651Y-66517365D01*
X76306531Y-66497363D01*
X76260038Y-66443707D01*
X76249934Y-66373433D01*
X76279428Y-66308853D01*
X76339154Y-66270469D01*
X76356572Y-66266669D01*
X76458616Y-66251874D01*
X76458621Y-66251873D01*
X76464337Y-66251044D01*
X76469809Y-66249186D01*
X76469811Y-66249186D01*
X76655096Y-66186290D01*
X76655098Y-66186289D01*
X76660560Y-66184435D01*
X76841359Y-66083183D01*
X77000678Y-65950678D01*
X77103428Y-65827135D01*
X77129492Y-65795797D01*
X77133183Y-65791359D01*
X77137698Y-65783298D01*
X77175281Y-65716187D01*
X77234435Y-65610560D01*
X77301044Y-65414337D01*
X77301873Y-65408621D01*
X77301874Y-65408616D01*
X77330245Y-65212936D01*
X77330778Y-65209262D01*
X77332330Y-65150000D01*
X77313369Y-64943649D01*
X77306788Y-64920312D01*
X77258689Y-64749768D01*
X77258688Y-64749766D01*
X77257121Y-64744209D01*
X77250594Y-64730972D01*
X77168025Y-64563540D01*
X77165470Y-64558359D01*
X77143362Y-64528752D01*
X77044938Y-64396947D01*
X77044937Y-64396946D01*
X77041485Y-64392323D01*
X76889319Y-64251662D01*
X76843145Y-64222529D01*
X76718951Y-64144168D01*
X76718946Y-64144166D01*
X76714067Y-64141087D01*
X76521599Y-64064300D01*
X76318361Y-64023873D01*
X76312587Y-64023797D01*
X76312583Y-64023797D01*
X76207399Y-64022421D01*
X76111158Y-64021161D01*
X76105461Y-64022140D01*
X76105460Y-64022140D01*
X75912628Y-64055274D01*
X75912627Y-64055274D01*
X75906931Y-64056253D01*
X75712519Y-64127976D01*
X75534433Y-64233926D01*
X75378637Y-64370555D01*
X75250348Y-64533289D01*
X75153863Y-64716676D01*
X75092414Y-64914575D01*
X75068058Y-65120359D01*
X75081611Y-65327135D01*
X75132619Y-65527980D01*
X75219373Y-65716165D01*
X75222704Y-65720878D01*
X75222705Y-65720880D01*
X75293723Y-65821367D01*
X75338970Y-65885390D01*
X75343106Y-65889419D01*
X75465293Y-66008448D01*
X75487402Y-66029986D01*
X75492198Y-66033191D01*
X75492201Y-66033193D01*
X75561493Y-66079492D01*
X75659699Y-66145111D01*
X75665002Y-66147389D01*
X75665005Y-66147391D01*
X75812871Y-66210919D01*
X75850091Y-66226910D01*
X75956748Y-66251044D01*
X76033768Y-66268472D01*
X76095795Y-66303015D01*
X76129299Y-66365608D01*
X76123645Y-66436379D01*
X76080626Y-66492859D01*
X76013901Y-66517114D01*
X76005972Y-66517365D01*
X73045811Y-66517365D01*
X72977692Y-66497363D01*
X72931199Y-66443707D01*
X72921095Y-66373433D01*
X72932420Y-66336428D01*
X72945780Y-66308853D01*
X72952740Y-66294488D01*
X72975095Y-66161611D01*
X72975237Y-66150000D01*
X72965668Y-66083183D01*
X72957408Y-66025503D01*
X72957407Y-66025500D01*
X72956135Y-66016617D01*
X72900365Y-65893956D01*
X72837818Y-65821367D01*
X72818269Y-65798679D01*
X72818266Y-65798677D01*
X72812409Y-65791879D01*
X72699339Y-65718591D01*
X72655747Y-65705554D01*
X72578846Y-65682555D01*
X72578844Y-65682555D01*
X72570245Y-65679983D01*
X72561270Y-65679928D01*
X72561269Y-65679928D01*
X72502874Y-65679572D01*
X72435503Y-65679160D01*
X72426871Y-65681627D01*
X72314577Y-65713720D01*
X72314575Y-65713721D01*
X72305946Y-65716187D01*
X72191989Y-65788089D01*
X72186047Y-65794818D01*
X72186046Y-65794818D01*
X72182636Y-65798679D01*
X72102793Y-65889084D01*
X72098979Y-65897207D01*
X72098978Y-65897209D01*
X72049345Y-66002926D01*
X72045529Y-66011054D01*
X72040019Y-66046441D01*
X72033859Y-66086004D01*
X72024798Y-66144194D01*
X72025962Y-66153095D01*
X72025962Y-66153099D01*
X72038528Y-66249186D01*
X72042270Y-66277801D01*
X72055933Y-66308853D01*
X72069910Y-66340618D01*
X72079038Y-66411026D01*
X72048651Y-66475191D01*
X71988397Y-66512741D01*
X71954581Y-66517364D01*
X67713893Y-66517364D01*
X67645772Y-66497362D01*
X67599279Y-66443706D01*
X67589175Y-66373432D01*
X67617019Y-66310794D01*
X67629492Y-66295797D01*
X67633183Y-66291359D01*
X67643665Y-66272643D01*
X67672650Y-66220885D01*
X67734435Y-66110560D01*
X67766325Y-66016617D01*
X67799186Y-65919811D01*
X67799186Y-65919809D01*
X67801044Y-65914337D01*
X67801873Y-65908621D01*
X67801874Y-65908616D01*
X67829798Y-65716019D01*
X67830778Y-65709262D01*
X67832330Y-65650000D01*
X67813369Y-65443649D01*
X67806788Y-65420312D01*
X67758689Y-65249768D01*
X67758688Y-65249766D01*
X67757121Y-65244209D01*
X67746265Y-65222194D01*
X67668025Y-65063540D01*
X67665470Y-65058359D01*
X67643362Y-65028752D01*
X67544938Y-64896947D01*
X67544937Y-64896946D01*
X67541485Y-64892323D01*
X67389319Y-64751662D01*
X67325761Y-64711560D01*
X67218951Y-64644168D01*
X67218946Y-64644166D01*
X67214067Y-64641087D01*
X67021599Y-64564300D01*
X66818361Y-64523873D01*
X66812587Y-64523797D01*
X66812583Y-64523797D01*
X66707399Y-64522421D01*
X66611158Y-64521161D01*
X66605461Y-64522140D01*
X66605460Y-64522140D01*
X66412628Y-64555274D01*
X66412627Y-64555274D01*
X66406931Y-64556253D01*
X66212519Y-64627976D01*
X66207558Y-64630928D01*
X66207557Y-64630928D01*
X66063428Y-64716676D01*
X66034433Y-64733926D01*
X65878637Y-64870555D01*
X65750348Y-65033289D01*
X65653863Y-65216676D01*
X65592414Y-65414575D01*
X65568058Y-65620359D01*
X65581611Y-65827135D01*
X65632619Y-66027980D01*
X65719373Y-66216165D01*
X65722709Y-66220885D01*
X65722710Y-66220887D01*
X65791797Y-66318643D01*
X65814779Y-66385817D01*
X65797795Y-66454753D01*
X65746238Y-66503562D01*
X65688901Y-66517364D01*
X58240739Y-66517364D01*
X58172618Y-66497362D01*
X58126125Y-66443706D01*
X58114739Y-66391364D01*
X58114739Y-59620359D01*
X65568058Y-59620359D01*
X65581611Y-59827135D01*
X65632619Y-60027980D01*
X65719373Y-60216165D01*
X65722704Y-60220878D01*
X65722705Y-60220880D01*
X65793723Y-60321367D01*
X65838970Y-60385390D01*
X65987402Y-60529986D01*
X65992198Y-60533191D01*
X65992201Y-60533193D01*
X66061493Y-60579492D01*
X66159699Y-60645111D01*
X66165002Y-60647389D01*
X66165005Y-60647391D01*
X66312871Y-60710919D01*
X66350091Y-60726910D01*
X66552201Y-60772643D01*
X66557972Y-60772870D01*
X66557974Y-60772870D01*
X66627210Y-60775590D01*
X66759262Y-60780778D01*
X66847561Y-60767975D01*
X66958616Y-60751874D01*
X66958621Y-60751873D01*
X66964337Y-60751044D01*
X66969809Y-60749186D01*
X66969811Y-60749186D01*
X67155096Y-60686290D01*
X67155098Y-60686289D01*
X67160560Y-60684435D01*
X67341359Y-60583183D01*
X67500678Y-60450678D01*
X67603428Y-60327135D01*
X67629492Y-60295797D01*
X67633183Y-60291359D01*
X67728947Y-60120359D01*
X75068058Y-60120359D01*
X75081611Y-60327135D01*
X75132619Y-60527980D01*
X75219373Y-60716165D01*
X75222704Y-60720878D01*
X75222705Y-60720880D01*
X75275652Y-60795797D01*
X75338970Y-60885390D01*
X75487402Y-61029986D01*
X75492198Y-61033191D01*
X75492201Y-61033193D01*
X75561493Y-61079492D01*
X75659699Y-61145111D01*
X75665002Y-61147389D01*
X75665005Y-61147391D01*
X75844784Y-61224630D01*
X75850091Y-61226910D01*
X76052201Y-61272643D01*
X76057972Y-61272870D01*
X76057974Y-61272870D01*
X76127210Y-61275590D01*
X76259262Y-61280778D01*
X76347561Y-61267975D01*
X76458616Y-61251874D01*
X76458621Y-61251873D01*
X76464337Y-61251044D01*
X76469809Y-61249186D01*
X76469811Y-61249186D01*
X76655096Y-61186290D01*
X76655098Y-61186289D01*
X76660560Y-61184435D01*
X76841359Y-61083183D01*
X77000678Y-60950678D01*
X77133183Y-60791359D01*
X77143665Y-60772643D01*
X77172653Y-60720880D01*
X77234435Y-60610560D01*
X77301044Y-60414337D01*
X77301873Y-60408621D01*
X77301874Y-60408616D01*
X77330245Y-60212936D01*
X77330778Y-60209262D01*
X77332330Y-60150000D01*
X77313369Y-59943649D01*
X77306788Y-59920312D01*
X77258689Y-59749768D01*
X77258688Y-59749766D01*
X77257121Y-59744209D01*
X77246265Y-59722194D01*
X77196045Y-59620359D01*
X84568058Y-59620359D01*
X84581611Y-59827135D01*
X84632619Y-60027980D01*
X84719373Y-60216165D01*
X84722704Y-60220878D01*
X84722705Y-60220880D01*
X84793723Y-60321367D01*
X84838970Y-60385390D01*
X84987402Y-60529986D01*
X84992198Y-60533191D01*
X84992201Y-60533193D01*
X85061493Y-60579492D01*
X85159699Y-60645111D01*
X85165002Y-60647389D01*
X85165005Y-60647391D01*
X85312871Y-60710919D01*
X85350091Y-60726910D01*
X85552201Y-60772643D01*
X85557972Y-60772870D01*
X85557974Y-60772870D01*
X85627210Y-60775590D01*
X85759262Y-60780778D01*
X85847561Y-60767975D01*
X85958616Y-60751874D01*
X85958621Y-60751873D01*
X85964337Y-60751044D01*
X85969809Y-60749186D01*
X85969811Y-60749186D01*
X86155096Y-60686290D01*
X86155098Y-60686289D01*
X86160560Y-60684435D01*
X86341359Y-60583183D01*
X86500678Y-60450678D01*
X86603428Y-60327135D01*
X86629492Y-60295797D01*
X86633183Y-60291359D01*
X86734435Y-60110560D01*
X86801044Y-59914337D01*
X86801873Y-59908621D01*
X86801874Y-59908616D01*
X86830245Y-59712936D01*
X86830778Y-59709262D01*
X86832330Y-59650000D01*
X86813369Y-59443649D01*
X86806788Y-59420312D01*
X86758689Y-59249768D01*
X86758688Y-59249766D01*
X86757121Y-59244209D01*
X86750594Y-59230972D01*
X86668025Y-59063540D01*
X86665470Y-59058359D01*
X86643362Y-59028752D01*
X86544938Y-58896947D01*
X86544937Y-58896946D01*
X86541485Y-58892323D01*
X86389319Y-58751662D01*
X86343145Y-58722529D01*
X86218951Y-58644168D01*
X86218946Y-58644166D01*
X86214067Y-58641087D01*
X86021599Y-58564300D01*
X85818361Y-58523873D01*
X85812587Y-58523797D01*
X85812583Y-58523797D01*
X85707399Y-58522421D01*
X85611158Y-58521161D01*
X85605461Y-58522140D01*
X85605460Y-58522140D01*
X85412628Y-58555274D01*
X85412627Y-58555274D01*
X85406931Y-58556253D01*
X85212519Y-58627976D01*
X85034433Y-58733926D01*
X84878637Y-58870555D01*
X84750348Y-59033289D01*
X84653863Y-59216676D01*
X84592414Y-59414575D01*
X84568058Y-59620359D01*
X77196045Y-59620359D01*
X77168025Y-59563540D01*
X77165470Y-59558359D01*
X77143362Y-59528752D01*
X77044938Y-59396947D01*
X77044937Y-59396946D01*
X77041485Y-59392323D01*
X76889319Y-59251662D01*
X76825761Y-59211560D01*
X76718951Y-59144168D01*
X76718946Y-59144166D01*
X76714067Y-59141087D01*
X76521599Y-59064300D01*
X76318361Y-59023873D01*
X76312587Y-59023797D01*
X76312583Y-59023797D01*
X76207399Y-59022421D01*
X76111158Y-59021161D01*
X76105461Y-59022140D01*
X76105460Y-59022140D01*
X75912628Y-59055274D01*
X75912627Y-59055274D01*
X75906931Y-59056253D01*
X75712519Y-59127976D01*
X75707558Y-59130928D01*
X75707557Y-59130928D01*
X75563428Y-59216676D01*
X75534433Y-59233926D01*
X75378637Y-59370555D01*
X75250348Y-59533289D01*
X75153863Y-59716676D01*
X75092414Y-59914575D01*
X75068058Y-60120359D01*
X67728947Y-60120359D01*
X67734435Y-60110560D01*
X67801044Y-59914337D01*
X67801873Y-59908621D01*
X67801874Y-59908616D01*
X67830245Y-59712936D01*
X67830778Y-59709262D01*
X67832330Y-59650000D01*
X67813369Y-59443649D01*
X67806788Y-59420312D01*
X67758689Y-59249768D01*
X67758688Y-59249766D01*
X67757121Y-59244209D01*
X67750594Y-59230972D01*
X67668025Y-59063540D01*
X67665470Y-59058359D01*
X67643362Y-59028752D01*
X67544938Y-58896947D01*
X67544937Y-58896946D01*
X67541485Y-58892323D01*
X67389319Y-58751662D01*
X67343145Y-58722529D01*
X67218951Y-58644168D01*
X67218946Y-58644166D01*
X67214067Y-58641087D01*
X67021599Y-58564300D01*
X66818361Y-58523873D01*
X66812587Y-58523797D01*
X66812583Y-58523797D01*
X66707399Y-58522421D01*
X66611158Y-58521161D01*
X66605461Y-58522140D01*
X66605460Y-58522140D01*
X66412628Y-58555274D01*
X66412627Y-58555274D01*
X66406931Y-58556253D01*
X66212519Y-58627976D01*
X66034433Y-58733926D01*
X65878637Y-58870555D01*
X65750348Y-59033289D01*
X65653863Y-59216676D01*
X65592414Y-59414575D01*
X65568058Y-59620359D01*
X58114739Y-59620359D01*
X58114739Y-57644194D01*
X65974798Y-57644194D01*
X65975962Y-57653095D01*
X65975962Y-57653099D01*
X65987207Y-57739084D01*
X65992270Y-57777801D01*
X66046537Y-57901133D01*
X66052315Y-57908006D01*
X66052315Y-57908007D01*
X66125595Y-57995184D01*
X66133239Y-58004278D01*
X66245405Y-58078942D01*
X66374019Y-58119124D01*
X66508740Y-58121593D01*
X66562494Y-58106938D01*
X66630080Y-58088512D01*
X66630082Y-58088511D01*
X66638739Y-58086151D01*
X66753566Y-58015647D01*
X66772984Y-57994194D01*
X70224798Y-57994194D01*
X70225962Y-58003095D01*
X70225962Y-58003099D01*
X70236823Y-58086151D01*
X70242270Y-58127801D01*
X70296537Y-58251133D01*
X70383239Y-58354278D01*
X70495405Y-58428942D01*
X70624019Y-58469124D01*
X70758740Y-58471593D01*
X70812494Y-58456938D01*
X70880080Y-58438512D01*
X70880082Y-58438511D01*
X70888739Y-58436151D01*
X71003566Y-58365647D01*
X71093989Y-58265749D01*
X71101071Y-58251133D01*
X71148826Y-58152567D01*
X71148827Y-58152565D01*
X71152740Y-58144488D01*
X71175095Y-58011611D01*
X71175237Y-58000000D01*
X71156135Y-57866617D01*
X71100365Y-57743956D01*
X71033545Y-57666408D01*
X71018269Y-57648679D01*
X71018266Y-57648677D01*
X71012409Y-57641879D01*
X70899339Y-57568591D01*
X70883052Y-57563720D01*
X70778846Y-57532555D01*
X70778844Y-57532555D01*
X70770245Y-57529983D01*
X70761270Y-57529928D01*
X70761269Y-57529928D01*
X70702874Y-57529571D01*
X70635503Y-57529160D01*
X70626871Y-57531627D01*
X70514577Y-57563720D01*
X70514575Y-57563721D01*
X70505946Y-57566187D01*
X70391989Y-57638089D01*
X70386047Y-57644818D01*
X70386046Y-57644818D01*
X70377178Y-57654859D01*
X70302793Y-57739084D01*
X70298979Y-57747207D01*
X70298978Y-57747209D01*
X70280937Y-57785636D01*
X70245529Y-57861054D01*
X70244148Y-57869924D01*
X70235976Y-57922409D01*
X70224798Y-57994194D01*
X66772984Y-57994194D01*
X66843989Y-57915749D01*
X66851071Y-57901133D01*
X66898826Y-57802567D01*
X66898827Y-57802565D01*
X66902740Y-57794488D01*
X66925095Y-57661611D01*
X66925237Y-57650000D01*
X66908285Y-57531627D01*
X66907408Y-57525503D01*
X66907407Y-57525500D01*
X66906135Y-57516617D01*
X66850365Y-57393956D01*
X66840370Y-57382356D01*
X66768269Y-57298679D01*
X66768266Y-57298677D01*
X66762409Y-57291879D01*
X66649339Y-57218591D01*
X66633052Y-57213720D01*
X66528846Y-57182555D01*
X66528844Y-57182555D01*
X66520245Y-57179983D01*
X66511270Y-57179928D01*
X66511269Y-57179928D01*
X66452874Y-57179572D01*
X66385503Y-57179160D01*
X66376871Y-57181627D01*
X66264577Y-57213720D01*
X66264575Y-57213721D01*
X66255946Y-57216187D01*
X66141989Y-57288089D01*
X66052793Y-57389084D01*
X65995529Y-57511054D01*
X65994148Y-57519924D01*
X65976495Y-57633298D01*
X65974798Y-57644194D01*
X58114739Y-57644194D01*
X58114739Y-54620359D01*
X65568058Y-54620359D01*
X65581611Y-54827135D01*
X65632619Y-55027980D01*
X65719373Y-55216165D01*
X65722704Y-55220878D01*
X65722705Y-55220880D01*
X65805541Y-55338089D01*
X65838970Y-55385390D01*
X65843106Y-55389419D01*
X65965293Y-55508448D01*
X65987402Y-55529986D01*
X65992198Y-55533191D01*
X65992201Y-55533193D01*
X66055523Y-55575503D01*
X66159699Y-55645111D01*
X66165002Y-55647389D01*
X66165005Y-55647391D01*
X66325647Y-55716408D01*
X66350091Y-55726910D01*
X66552201Y-55772643D01*
X66557972Y-55772870D01*
X66557974Y-55772870D01*
X66627210Y-55775590D01*
X66759262Y-55780778D01*
X66847561Y-55767975D01*
X66958616Y-55751874D01*
X66958621Y-55751873D01*
X66964337Y-55751044D01*
X66969809Y-55749186D01*
X66969811Y-55749186D01*
X67131812Y-55694194D01*
X67924798Y-55694194D01*
X67925962Y-55703095D01*
X67925962Y-55703099D01*
X67938970Y-55802567D01*
X67942270Y-55827801D01*
X67996537Y-55951133D01*
X68083239Y-56054278D01*
X68107373Y-56070343D01*
X68180656Y-56119124D01*
X68195405Y-56128942D01*
X68324019Y-56169124D01*
X68458740Y-56171593D01*
X68512494Y-56156938D01*
X68580080Y-56138512D01*
X68580082Y-56138511D01*
X68588739Y-56136151D01*
X68703566Y-56065647D01*
X68748824Y-56015647D01*
X68787961Y-55972409D01*
X68787962Y-55972408D01*
X68793989Y-55965749D01*
X68801071Y-55951133D01*
X68848826Y-55852567D01*
X68848827Y-55852565D01*
X68852740Y-55844488D01*
X68875095Y-55711611D01*
X68875237Y-55700000D01*
X68867245Y-55644194D01*
X74174798Y-55644194D01*
X74175962Y-55653095D01*
X74175962Y-55653099D01*
X74188528Y-55749186D01*
X74192270Y-55777801D01*
X74246537Y-55901133D01*
X74252315Y-55908006D01*
X74252315Y-55908007D01*
X74288566Y-55951133D01*
X74333239Y-56004278D01*
X74357373Y-56020343D01*
X74415435Y-56058992D01*
X74445405Y-56078942D01*
X74574019Y-56119124D01*
X74708740Y-56121593D01*
X74762494Y-56106938D01*
X74830080Y-56088512D01*
X74830082Y-56088511D01*
X74838739Y-56086151D01*
X74953566Y-56015647D01*
X74992703Y-55972409D01*
X75037961Y-55922409D01*
X75037962Y-55922408D01*
X75043989Y-55915749D01*
X75051071Y-55901133D01*
X75098826Y-55802567D01*
X75098827Y-55802565D01*
X75102740Y-55794488D01*
X75125095Y-55661611D01*
X75125237Y-55650000D01*
X75115668Y-55583183D01*
X75107408Y-55525503D01*
X75107407Y-55525500D01*
X75106135Y-55516617D01*
X75050365Y-55393956D01*
X75038922Y-55380676D01*
X74968269Y-55298679D01*
X74968266Y-55298677D01*
X74962409Y-55291879D01*
X74899408Y-55251044D01*
X74856873Y-55223474D01*
X74856872Y-55223473D01*
X74849339Y-55218591D01*
X74823686Y-55210919D01*
X74728846Y-55182555D01*
X74728844Y-55182555D01*
X74720245Y-55179983D01*
X74711270Y-55179928D01*
X74711269Y-55179928D01*
X74652874Y-55179572D01*
X74585503Y-55179160D01*
X74576871Y-55181627D01*
X74464577Y-55213720D01*
X74464575Y-55213721D01*
X74455946Y-55216187D01*
X74448355Y-55220976D01*
X74448354Y-55220977D01*
X74368490Y-55271368D01*
X74341989Y-55288089D01*
X74336047Y-55294818D01*
X74336046Y-55294818D01*
X74288478Y-55348679D01*
X74252793Y-55389084D01*
X74248979Y-55397207D01*
X74248978Y-55397209D01*
X74199345Y-55502926D01*
X74195529Y-55511054D01*
X74194148Y-55519924D01*
X74183859Y-55586004D01*
X74174798Y-55644194D01*
X68867245Y-55644194D01*
X68865974Y-55635322D01*
X68857408Y-55575503D01*
X68857407Y-55575500D01*
X68856135Y-55566617D01*
X68800365Y-55443956D01*
X68757282Y-55393956D01*
X68718269Y-55348679D01*
X68718266Y-55348677D01*
X68712409Y-55341879D01*
X68641313Y-55295797D01*
X68606873Y-55273474D01*
X68606872Y-55273473D01*
X68599339Y-55268591D01*
X68583052Y-55263720D01*
X68478846Y-55232555D01*
X68478844Y-55232555D01*
X68470245Y-55229983D01*
X68461270Y-55229928D01*
X68461269Y-55229928D01*
X68402874Y-55229571D01*
X68335503Y-55229160D01*
X68326871Y-55231627D01*
X68214577Y-55263720D01*
X68214575Y-55263721D01*
X68205946Y-55266187D01*
X68198355Y-55270976D01*
X68198354Y-55270977D01*
X68099582Y-55333298D01*
X68091989Y-55338089D01*
X68002793Y-55439084D01*
X67998979Y-55447207D01*
X67998978Y-55447209D01*
X67949345Y-55552926D01*
X67945529Y-55561054D01*
X67944148Y-55569924D01*
X67926318Y-55684435D01*
X67924798Y-55694194D01*
X67131812Y-55694194D01*
X67155096Y-55686290D01*
X67155098Y-55686289D01*
X67160560Y-55684435D01*
X67341359Y-55583183D01*
X67500678Y-55450678D01*
X67595227Y-55336996D01*
X67629492Y-55295797D01*
X67633183Y-55291359D01*
X67637698Y-55283298D01*
X67675281Y-55216187D01*
X67734435Y-55110560D01*
X67801044Y-54914337D01*
X67801873Y-54908621D01*
X67801874Y-54908616D01*
X67830245Y-54712936D01*
X67830778Y-54709262D01*
X67832330Y-54650000D01*
X67813369Y-54443649D01*
X67806788Y-54420312D01*
X67758689Y-54249768D01*
X67758688Y-54249766D01*
X67757121Y-54244209D01*
X67746265Y-54222194D01*
X67696045Y-54120359D01*
X75068058Y-54120359D01*
X75081611Y-54327135D01*
X75132619Y-54527980D01*
X75219373Y-54716165D01*
X75222704Y-54720878D01*
X75222705Y-54720880D01*
X75293723Y-54821367D01*
X75338970Y-54885390D01*
X75487402Y-55029986D01*
X75492198Y-55033191D01*
X75492201Y-55033193D01*
X75561493Y-55079492D01*
X75659699Y-55145111D01*
X75665002Y-55147389D01*
X75665005Y-55147391D01*
X75844784Y-55224630D01*
X75850091Y-55226910D01*
X76052201Y-55272643D01*
X76057972Y-55272870D01*
X76057974Y-55272870D01*
X76127210Y-55275590D01*
X76259262Y-55280778D01*
X76361055Y-55266019D01*
X76458616Y-55251874D01*
X76458621Y-55251873D01*
X76464337Y-55251044D01*
X76469809Y-55249186D01*
X76469811Y-55249186D01*
X76655096Y-55186290D01*
X76655098Y-55186289D01*
X76660560Y-55184435D01*
X76841359Y-55083183D01*
X77000678Y-54950678D01*
X77103428Y-54827135D01*
X77129492Y-54795797D01*
X77133183Y-54791359D01*
X77228947Y-54620359D01*
X84568058Y-54620359D01*
X84581611Y-54827135D01*
X84632619Y-55027980D01*
X84719373Y-55216165D01*
X84722704Y-55220878D01*
X84722705Y-55220880D01*
X84805541Y-55338089D01*
X84838970Y-55385390D01*
X84843106Y-55389419D01*
X84965293Y-55508448D01*
X84987402Y-55529986D01*
X84992198Y-55533191D01*
X84992201Y-55533193D01*
X85055523Y-55575503D01*
X85159699Y-55645111D01*
X85165002Y-55647389D01*
X85165005Y-55647391D01*
X85325647Y-55716408D01*
X85350091Y-55726910D01*
X85552201Y-55772643D01*
X85557972Y-55772870D01*
X85557974Y-55772870D01*
X85627210Y-55775590D01*
X85759262Y-55780778D01*
X85847561Y-55767975D01*
X85958616Y-55751874D01*
X85958621Y-55751873D01*
X85964337Y-55751044D01*
X85969809Y-55749186D01*
X85969811Y-55749186D01*
X86155096Y-55686290D01*
X86155098Y-55686289D01*
X86160560Y-55684435D01*
X86341359Y-55583183D01*
X86500678Y-55450678D01*
X86595227Y-55336996D01*
X86629492Y-55295797D01*
X86633183Y-55291359D01*
X86637698Y-55283298D01*
X86675281Y-55216187D01*
X86734435Y-55110560D01*
X86801044Y-54914337D01*
X86801873Y-54908621D01*
X86801874Y-54908616D01*
X86830245Y-54712936D01*
X86830778Y-54709262D01*
X86832330Y-54650000D01*
X86813369Y-54443649D01*
X86806788Y-54420312D01*
X86758689Y-54249768D01*
X86758688Y-54249766D01*
X86757121Y-54244209D01*
X86746265Y-54222194D01*
X86668025Y-54063540D01*
X86665470Y-54058359D01*
X86643362Y-54028752D01*
X86544938Y-53896947D01*
X86544937Y-53896946D01*
X86541485Y-53892323D01*
X86389319Y-53751662D01*
X86325761Y-53711560D01*
X86218951Y-53644168D01*
X86218946Y-53644166D01*
X86214067Y-53641087D01*
X86021599Y-53564300D01*
X85818361Y-53523873D01*
X85812587Y-53523797D01*
X85812583Y-53523797D01*
X85707399Y-53522421D01*
X85611158Y-53521161D01*
X85605461Y-53522140D01*
X85605460Y-53522140D01*
X85412628Y-53555274D01*
X85412627Y-53555274D01*
X85406931Y-53556253D01*
X85212519Y-53627976D01*
X85207558Y-53630928D01*
X85207557Y-53630928D01*
X85063428Y-53716676D01*
X85034433Y-53733926D01*
X84878637Y-53870555D01*
X84750348Y-54033289D01*
X84653863Y-54216676D01*
X84592414Y-54414575D01*
X84568058Y-54620359D01*
X77228947Y-54620359D01*
X77234435Y-54610560D01*
X77301044Y-54414337D01*
X77301873Y-54408621D01*
X77301874Y-54408616D01*
X77330245Y-54212936D01*
X77330778Y-54209262D01*
X77332330Y-54150000D01*
X77313369Y-53943649D01*
X77306788Y-53920312D01*
X77258689Y-53749768D01*
X77258688Y-53749766D01*
X77257121Y-53744209D01*
X77250594Y-53730972D01*
X77168025Y-53563540D01*
X77165470Y-53558359D01*
X77143362Y-53528752D01*
X77044938Y-53396947D01*
X77044937Y-53396946D01*
X77041485Y-53392323D01*
X76889319Y-53251662D01*
X76843145Y-53222529D01*
X76718951Y-53144168D01*
X76718946Y-53144166D01*
X76714067Y-53141087D01*
X76521599Y-53064300D01*
X76318361Y-53023873D01*
X76312587Y-53023797D01*
X76312583Y-53023797D01*
X76207399Y-53022421D01*
X76111158Y-53021161D01*
X76105461Y-53022140D01*
X76105460Y-53022140D01*
X75912628Y-53055274D01*
X75912627Y-53055274D01*
X75906931Y-53056253D01*
X75712519Y-53127976D01*
X75534433Y-53233926D01*
X75378637Y-53370555D01*
X75250348Y-53533289D01*
X75153863Y-53716676D01*
X75092414Y-53914575D01*
X75068058Y-54120359D01*
X67696045Y-54120359D01*
X67668025Y-54063540D01*
X67665470Y-54058359D01*
X67643362Y-54028752D01*
X67544938Y-53896947D01*
X67544937Y-53896946D01*
X67541485Y-53892323D01*
X67389319Y-53751662D01*
X67325761Y-53711560D01*
X67218951Y-53644168D01*
X67218946Y-53644166D01*
X67214067Y-53641087D01*
X67021599Y-53564300D01*
X66818361Y-53523873D01*
X66812587Y-53523797D01*
X66812583Y-53523797D01*
X66707399Y-53522421D01*
X66611158Y-53521161D01*
X66605461Y-53522140D01*
X66605460Y-53522140D01*
X66412628Y-53555274D01*
X66412627Y-53555274D01*
X66406931Y-53556253D01*
X66212519Y-53627976D01*
X66207558Y-53630928D01*
X66207557Y-53630928D01*
X66063428Y-53716676D01*
X66034433Y-53733926D01*
X65878637Y-53870555D01*
X65750348Y-54033289D01*
X65653863Y-54216676D01*
X65592414Y-54414575D01*
X65568058Y-54620359D01*
X58114739Y-54620359D01*
X58114739Y-51370359D01*
X72818058Y-51370359D01*
X72831611Y-51577135D01*
X72882619Y-51777980D01*
X72969373Y-51966165D01*
X72972704Y-51970878D01*
X72972705Y-51970880D01*
X73025652Y-52045797D01*
X73088970Y-52135390D01*
X73237402Y-52279986D01*
X73242198Y-52283191D01*
X73242201Y-52283193D01*
X73311493Y-52329492D01*
X73409699Y-52395111D01*
X73415002Y-52397389D01*
X73415005Y-52397391D01*
X73594784Y-52474630D01*
X73600091Y-52476910D01*
X73802201Y-52522643D01*
X73807972Y-52522870D01*
X73807974Y-52522870D01*
X73877210Y-52525590D01*
X74009262Y-52530778D01*
X74097561Y-52517975D01*
X74208616Y-52501874D01*
X74208621Y-52501873D01*
X74214337Y-52501044D01*
X74219809Y-52499186D01*
X74219811Y-52499186D01*
X74405096Y-52436290D01*
X74405098Y-52436289D01*
X74410560Y-52434435D01*
X74591359Y-52333183D01*
X74750678Y-52200678D01*
X74883183Y-52041359D01*
X74984435Y-51860560D01*
X75014636Y-51771593D01*
X75049186Y-51669811D01*
X75049186Y-51669809D01*
X75051044Y-51664337D01*
X75051873Y-51658621D01*
X75051874Y-51658616D01*
X75080245Y-51462936D01*
X75080778Y-51459262D01*
X75082330Y-51400000D01*
X75065822Y-51220343D01*
X75063898Y-51199403D01*
X75063897Y-51199400D01*
X75063369Y-51193649D01*
X75058252Y-51175503D01*
X75008689Y-50999768D01*
X75008688Y-50999766D01*
X75007121Y-50994209D01*
X75002894Y-50985636D01*
X74933142Y-50844194D01*
X76624798Y-50844194D01*
X76625962Y-50853095D01*
X76625962Y-50853099D01*
X76640146Y-50961560D01*
X76642270Y-50977801D01*
X76696537Y-51101133D01*
X76702315Y-51108006D01*
X76702315Y-51108007D01*
X76754688Y-51170312D01*
X76783239Y-51204278D01*
X76895405Y-51278942D01*
X77024019Y-51319124D01*
X77158740Y-51321593D01*
X77259238Y-51294194D01*
X83324798Y-51294194D01*
X83325962Y-51303095D01*
X83325962Y-51303099D01*
X83341106Y-51418902D01*
X83342270Y-51427801D01*
X83396537Y-51551133D01*
X83483239Y-51654278D01*
X83595405Y-51728942D01*
X83724019Y-51769124D01*
X83858740Y-51771593D01*
X83912494Y-51756938D01*
X83980080Y-51738512D01*
X83980082Y-51738511D01*
X83988739Y-51736151D01*
X84103566Y-51665647D01*
X84120081Y-51647402D01*
X84187961Y-51572409D01*
X84187962Y-51572408D01*
X84193989Y-51565749D01*
X84201071Y-51551133D01*
X84248826Y-51452567D01*
X84248827Y-51452565D01*
X84252740Y-51444488D01*
X84275095Y-51311611D01*
X84275237Y-51300000D01*
X84262204Y-51208992D01*
X84257408Y-51175503D01*
X84257407Y-51175500D01*
X84256135Y-51166617D01*
X84200365Y-51043956D01*
X84162290Y-50999768D01*
X84118269Y-50948679D01*
X84118266Y-50948677D01*
X84112409Y-50941879D01*
X83999339Y-50868591D01*
X83959743Y-50856749D01*
X83878846Y-50832555D01*
X83878844Y-50832555D01*
X83870245Y-50829983D01*
X83861270Y-50829928D01*
X83861269Y-50829928D01*
X83802874Y-50829571D01*
X83735503Y-50829160D01*
X83726871Y-50831627D01*
X83614577Y-50863720D01*
X83614575Y-50863721D01*
X83605946Y-50866187D01*
X83491989Y-50938089D01*
X83402793Y-51039084D01*
X83398979Y-51047207D01*
X83398978Y-51047209D01*
X83349345Y-51152926D01*
X83345529Y-51161054D01*
X83343279Y-51175503D01*
X83326782Y-51281455D01*
X83324798Y-51294194D01*
X77259238Y-51294194D01*
X77280080Y-51288512D01*
X77280082Y-51288511D01*
X77288739Y-51286151D01*
X77403566Y-51215647D01*
X77413857Y-51204278D01*
X77487961Y-51122409D01*
X77487962Y-51122408D01*
X77493989Y-51115749D01*
X77501071Y-51101133D01*
X77548826Y-51002567D01*
X77548827Y-51002565D01*
X77552740Y-50994488D01*
X77575095Y-50861611D01*
X77575237Y-50850000D01*
X77565683Y-50783289D01*
X77557408Y-50725503D01*
X77557407Y-50725500D01*
X77556135Y-50716617D01*
X77500365Y-50593956D01*
X77420839Y-50501662D01*
X77418269Y-50498679D01*
X77418266Y-50498677D01*
X77412409Y-50491879D01*
X77299339Y-50418591D01*
X77207374Y-50391087D01*
X77178846Y-50382555D01*
X77178844Y-50382555D01*
X77170245Y-50379983D01*
X77161270Y-50379928D01*
X77161269Y-50379928D01*
X77102874Y-50379571D01*
X77035503Y-50379160D01*
X77026871Y-50381627D01*
X76914577Y-50413720D01*
X76914575Y-50413721D01*
X76905946Y-50416187D01*
X76898355Y-50420976D01*
X76898354Y-50420977D01*
X76799582Y-50483298D01*
X76791989Y-50488089D01*
X76786047Y-50494818D01*
X76786046Y-50494818D01*
X76716990Y-50573009D01*
X76702793Y-50589084D01*
X76698979Y-50597207D01*
X76698978Y-50597209D01*
X76675627Y-50646947D01*
X76645529Y-50711054D01*
X76644148Y-50719924D01*
X76626755Y-50831627D01*
X76624798Y-50844194D01*
X74933142Y-50844194D01*
X74918025Y-50813540D01*
X74915470Y-50808359D01*
X74893362Y-50778752D01*
X74794938Y-50646947D01*
X74794937Y-50646946D01*
X74791485Y-50642323D01*
X74639319Y-50501662D01*
X74515398Y-50423474D01*
X74468951Y-50394168D01*
X74468946Y-50394166D01*
X74464067Y-50391087D01*
X74271599Y-50314300D01*
X74068361Y-50273873D01*
X74062587Y-50273797D01*
X74062583Y-50273797D01*
X73957399Y-50272421D01*
X73861158Y-50271161D01*
X73855461Y-50272140D01*
X73855460Y-50272140D01*
X73662628Y-50305274D01*
X73662627Y-50305274D01*
X73656931Y-50306253D01*
X73462519Y-50377976D01*
X73284433Y-50483926D01*
X73128637Y-50620555D01*
X73000348Y-50783289D01*
X72903863Y-50966676D01*
X72842414Y-51164575D01*
X72818058Y-51370359D01*
X58114739Y-51370359D01*
X58114739Y-48620359D01*
X65568058Y-48620359D01*
X65581611Y-48827135D01*
X65632619Y-49027980D01*
X65719373Y-49216165D01*
X65722704Y-49220878D01*
X65722705Y-49220880D01*
X65793723Y-49321367D01*
X65838970Y-49385390D01*
X65987402Y-49529986D01*
X65992198Y-49533191D01*
X65992201Y-49533193D01*
X66061493Y-49579492D01*
X66159699Y-49645111D01*
X66165002Y-49647389D01*
X66165005Y-49647391D01*
X66312871Y-49710919D01*
X66350091Y-49726910D01*
X66552201Y-49772643D01*
X66557972Y-49772870D01*
X66557974Y-49772870D01*
X66627210Y-49775590D01*
X66759262Y-49780778D01*
X66847561Y-49767975D01*
X66958616Y-49751874D01*
X66958621Y-49751873D01*
X66964337Y-49751044D01*
X66969809Y-49749186D01*
X66969811Y-49749186D01*
X67155096Y-49686290D01*
X67155098Y-49686289D01*
X67160560Y-49684435D01*
X67341359Y-49583183D01*
X67500678Y-49450678D01*
X67603428Y-49327135D01*
X67629492Y-49295797D01*
X67633183Y-49291359D01*
X67728947Y-49120359D01*
X75068058Y-49120359D01*
X75081611Y-49327135D01*
X75132619Y-49527980D01*
X75219373Y-49716165D01*
X75222704Y-49720878D01*
X75222705Y-49720880D01*
X75275652Y-49795797D01*
X75338970Y-49885390D01*
X75487402Y-50029986D01*
X75492198Y-50033191D01*
X75492201Y-50033193D01*
X75561493Y-50079492D01*
X75659699Y-50145111D01*
X75665002Y-50147389D01*
X75665005Y-50147391D01*
X75844784Y-50224630D01*
X75850091Y-50226910D01*
X75956748Y-50251044D01*
X76045652Y-50271161D01*
X76052201Y-50272643D01*
X76057972Y-50272870D01*
X76057974Y-50272870D01*
X76127210Y-50275590D01*
X76259262Y-50280778D01*
X76347561Y-50267975D01*
X76458616Y-50251874D01*
X76458621Y-50251873D01*
X76464337Y-50251044D01*
X76469809Y-50249186D01*
X76469811Y-50249186D01*
X76655096Y-50186290D01*
X76655098Y-50186289D01*
X76660560Y-50184435D01*
X76841359Y-50083183D01*
X77000678Y-49950678D01*
X77133183Y-49791359D01*
X77143665Y-49772643D01*
X77172653Y-49720880D01*
X77234435Y-49610560D01*
X77301044Y-49414337D01*
X77301873Y-49408621D01*
X77301874Y-49408616D01*
X77330245Y-49212936D01*
X77330778Y-49209262D01*
X77332330Y-49150000D01*
X77313369Y-48943649D01*
X77306788Y-48920312D01*
X77258689Y-48749768D01*
X77258688Y-48749766D01*
X77257121Y-48744209D01*
X77246265Y-48722194D01*
X77196045Y-48620359D01*
X84568058Y-48620359D01*
X84581611Y-48827135D01*
X84632619Y-49027980D01*
X84719373Y-49216165D01*
X84722704Y-49220878D01*
X84722705Y-49220880D01*
X84793723Y-49321367D01*
X84838970Y-49385390D01*
X84987402Y-49529986D01*
X84992198Y-49533191D01*
X84992201Y-49533193D01*
X85061493Y-49579492D01*
X85159699Y-49645111D01*
X85165002Y-49647389D01*
X85165005Y-49647391D01*
X85312871Y-49710919D01*
X85350091Y-49726910D01*
X85552201Y-49772643D01*
X85557972Y-49772870D01*
X85557974Y-49772870D01*
X85627210Y-49775590D01*
X85759262Y-49780778D01*
X85847561Y-49767975D01*
X85958616Y-49751874D01*
X85958621Y-49751873D01*
X85964337Y-49751044D01*
X85969809Y-49749186D01*
X85969811Y-49749186D01*
X86155096Y-49686290D01*
X86155098Y-49686289D01*
X86160560Y-49684435D01*
X86341359Y-49583183D01*
X86500678Y-49450678D01*
X86603428Y-49327135D01*
X86629492Y-49295797D01*
X86633183Y-49291359D01*
X86734435Y-49110560D01*
X86801044Y-48914337D01*
X86801873Y-48908621D01*
X86801874Y-48908616D01*
X86830245Y-48712936D01*
X86830778Y-48709262D01*
X86832330Y-48650000D01*
X86813369Y-48443649D01*
X86806788Y-48420312D01*
X86758689Y-48249768D01*
X86758688Y-48249766D01*
X86757121Y-48244209D01*
X86750594Y-48230972D01*
X86668025Y-48063540D01*
X86665470Y-48058359D01*
X86643362Y-48028752D01*
X86544938Y-47896947D01*
X86544937Y-47896946D01*
X86541485Y-47892323D01*
X86389319Y-47751662D01*
X86343145Y-47722529D01*
X86218951Y-47644168D01*
X86218946Y-47644166D01*
X86214067Y-47641087D01*
X86021599Y-47564300D01*
X85818361Y-47523873D01*
X85812587Y-47523797D01*
X85812583Y-47523797D01*
X85707399Y-47522421D01*
X85611158Y-47521161D01*
X85605461Y-47522140D01*
X85605460Y-47522140D01*
X85412628Y-47555274D01*
X85412627Y-47555274D01*
X85406931Y-47556253D01*
X85212519Y-47627976D01*
X85034433Y-47733926D01*
X84878637Y-47870555D01*
X84750348Y-48033289D01*
X84653863Y-48216676D01*
X84592414Y-48414575D01*
X84568058Y-48620359D01*
X77196045Y-48620359D01*
X77168025Y-48563540D01*
X77165470Y-48558359D01*
X77143362Y-48528752D01*
X77044938Y-48396947D01*
X77044937Y-48396946D01*
X77041485Y-48392323D01*
X76889319Y-48251662D01*
X76825761Y-48211560D01*
X76718951Y-48144168D01*
X76718946Y-48144166D01*
X76714067Y-48141087D01*
X76521599Y-48064300D01*
X76318361Y-48023873D01*
X76312587Y-48023797D01*
X76312583Y-48023797D01*
X76207399Y-48022421D01*
X76111158Y-48021161D01*
X76105461Y-48022140D01*
X76105460Y-48022140D01*
X75912628Y-48055274D01*
X75912627Y-48055274D01*
X75906931Y-48056253D01*
X75712519Y-48127976D01*
X75707558Y-48130928D01*
X75707557Y-48130928D01*
X75563428Y-48216676D01*
X75534433Y-48233926D01*
X75378637Y-48370555D01*
X75250348Y-48533289D01*
X75153863Y-48716676D01*
X75092414Y-48914575D01*
X75068058Y-49120359D01*
X67728947Y-49120359D01*
X67734435Y-49110560D01*
X67801044Y-48914337D01*
X67801873Y-48908621D01*
X67801874Y-48908616D01*
X67830245Y-48712936D01*
X67830778Y-48709262D01*
X67832330Y-48650000D01*
X67813369Y-48443649D01*
X67806788Y-48420312D01*
X67758689Y-48249768D01*
X67758688Y-48249766D01*
X67757121Y-48244209D01*
X67750594Y-48230972D01*
X67668025Y-48063540D01*
X67665470Y-48058359D01*
X67643362Y-48028752D01*
X67544938Y-47896947D01*
X67544937Y-47896946D01*
X67541485Y-47892323D01*
X67389319Y-47751662D01*
X67343145Y-47722529D01*
X67218951Y-47644168D01*
X67218946Y-47644166D01*
X67214067Y-47641087D01*
X67021599Y-47564300D01*
X66818361Y-47523873D01*
X66812587Y-47523797D01*
X66812583Y-47523797D01*
X66707399Y-47522421D01*
X66611158Y-47521161D01*
X66605461Y-47522140D01*
X66605460Y-47522140D01*
X66412628Y-47555274D01*
X66412627Y-47555274D01*
X66406931Y-47556253D01*
X66212519Y-47627976D01*
X66034433Y-47733926D01*
X65878637Y-47870555D01*
X65750348Y-48033289D01*
X65653863Y-48216676D01*
X65592414Y-48414575D01*
X65568058Y-48620359D01*
X58114739Y-48620359D01*
X58114739Y-45744194D01*
X70124798Y-45744194D01*
X70125962Y-45753095D01*
X70125962Y-45753099D01*
X70141106Y-45868902D01*
X70142270Y-45877801D01*
X70196537Y-46001133D01*
X70283239Y-46104278D01*
X70395405Y-46178942D01*
X70524019Y-46219124D01*
X70658740Y-46221593D01*
X70712494Y-46206938D01*
X70780080Y-46188512D01*
X70780082Y-46188511D01*
X70788739Y-46186151D01*
X70903566Y-46115647D01*
X70993989Y-46015749D01*
X71001071Y-46001133D01*
X71048826Y-45902567D01*
X71048827Y-45902565D01*
X71052740Y-45894488D01*
X71075095Y-45761611D01*
X71075237Y-45750000D01*
X71056135Y-45616617D01*
X71000365Y-45493956D01*
X70990370Y-45482356D01*
X70918269Y-45398679D01*
X70918266Y-45398677D01*
X70912409Y-45391879D01*
X70799339Y-45318591D01*
X70783052Y-45313720D01*
X70678846Y-45282555D01*
X70678844Y-45282555D01*
X70670245Y-45279983D01*
X70661270Y-45279928D01*
X70661269Y-45279928D01*
X70602874Y-45279571D01*
X70535503Y-45279160D01*
X70526871Y-45281627D01*
X70414577Y-45313720D01*
X70414575Y-45313721D01*
X70405946Y-45316187D01*
X70291989Y-45388089D01*
X70202793Y-45489084D01*
X70145529Y-45611054D01*
X70124798Y-45744194D01*
X58114739Y-45744194D01*
X58114739Y-43620359D01*
X65568058Y-43620359D01*
X65581611Y-43827135D01*
X65632619Y-44027980D01*
X65719373Y-44216165D01*
X65722704Y-44220878D01*
X65722705Y-44220880D01*
X65775652Y-44295797D01*
X65838970Y-44385390D01*
X65987402Y-44529986D01*
X65992198Y-44533191D01*
X65992201Y-44533193D01*
X66061493Y-44579492D01*
X66159699Y-44645111D01*
X66165002Y-44647389D01*
X66165005Y-44647391D01*
X66344784Y-44724630D01*
X66350091Y-44726910D01*
X66552201Y-44772643D01*
X66557972Y-44772870D01*
X66557974Y-44772870D01*
X66627210Y-44775590D01*
X66759262Y-44780778D01*
X66847561Y-44767975D01*
X66958616Y-44751874D01*
X66958621Y-44751873D01*
X66964337Y-44751044D01*
X66969809Y-44749186D01*
X66969811Y-44749186D01*
X67155096Y-44686290D01*
X67155098Y-44686289D01*
X67160560Y-44684435D01*
X67341359Y-44583183D01*
X67500678Y-44450678D01*
X67633183Y-44291359D01*
X67643665Y-44272643D01*
X67672653Y-44220880D01*
X67734435Y-44110560D01*
X67801044Y-43914337D01*
X67801873Y-43908621D01*
X67801874Y-43908616D01*
X67830245Y-43712936D01*
X67830778Y-43709262D01*
X67832330Y-43650000D01*
X67813369Y-43443649D01*
X67806788Y-43420312D01*
X67758689Y-43249768D01*
X67758688Y-43249766D01*
X67757121Y-43244209D01*
X67746265Y-43222194D01*
X67696045Y-43120359D01*
X75068058Y-43120359D01*
X75081611Y-43327135D01*
X75132619Y-43527980D01*
X75219373Y-43716165D01*
X75222704Y-43720878D01*
X75222705Y-43720880D01*
X75293723Y-43821367D01*
X75338970Y-43885390D01*
X75487402Y-44029986D01*
X75492198Y-44033191D01*
X75492201Y-44033193D01*
X75561493Y-44079492D01*
X75659699Y-44145111D01*
X75665002Y-44147389D01*
X75665005Y-44147391D01*
X75812871Y-44210919D01*
X75850091Y-44226910D01*
X76052201Y-44272643D01*
X76057972Y-44272870D01*
X76057974Y-44272870D01*
X76127210Y-44275590D01*
X76259262Y-44280778D01*
X76347561Y-44267975D01*
X76458616Y-44251874D01*
X76458621Y-44251873D01*
X76464337Y-44251044D01*
X76469809Y-44249186D01*
X76469811Y-44249186D01*
X76655096Y-44186290D01*
X76655098Y-44186289D01*
X76660560Y-44184435D01*
X76841359Y-44083183D01*
X77000678Y-43950678D01*
X77103428Y-43827135D01*
X77129492Y-43795797D01*
X77133183Y-43791359D01*
X77228947Y-43620359D01*
X84568058Y-43620359D01*
X84581611Y-43827135D01*
X84632619Y-44027980D01*
X84719373Y-44216165D01*
X84722704Y-44220878D01*
X84722705Y-44220880D01*
X84775652Y-44295797D01*
X84838970Y-44385390D01*
X84987402Y-44529986D01*
X84992198Y-44533191D01*
X84992201Y-44533193D01*
X85061493Y-44579492D01*
X85159699Y-44645111D01*
X85165002Y-44647389D01*
X85165005Y-44647391D01*
X85344784Y-44724630D01*
X85350091Y-44726910D01*
X85552201Y-44772643D01*
X85557972Y-44772870D01*
X85557974Y-44772870D01*
X85627210Y-44775590D01*
X85759262Y-44780778D01*
X85847561Y-44767975D01*
X85958616Y-44751874D01*
X85958621Y-44751873D01*
X85964337Y-44751044D01*
X85969809Y-44749186D01*
X85969811Y-44749186D01*
X86155096Y-44686290D01*
X86155098Y-44686289D01*
X86160560Y-44684435D01*
X86341359Y-44583183D01*
X86500678Y-44450678D01*
X86633183Y-44291359D01*
X86643665Y-44272643D01*
X86672653Y-44220880D01*
X86734435Y-44110560D01*
X86801044Y-43914337D01*
X86801873Y-43908621D01*
X86801874Y-43908616D01*
X86830245Y-43712936D01*
X86830778Y-43709262D01*
X86832330Y-43650000D01*
X86813369Y-43443649D01*
X86806788Y-43420312D01*
X86758689Y-43249768D01*
X86758688Y-43249766D01*
X86757121Y-43244209D01*
X86746265Y-43222194D01*
X86668025Y-43063540D01*
X86665470Y-43058359D01*
X86643362Y-43028752D01*
X86544938Y-42896947D01*
X86544937Y-42896946D01*
X86541485Y-42892323D01*
X86389319Y-42751662D01*
X86325761Y-42711560D01*
X86218951Y-42644168D01*
X86218946Y-42644166D01*
X86214067Y-42641087D01*
X86021599Y-42564300D01*
X85818361Y-42523873D01*
X85812587Y-42523797D01*
X85812583Y-42523797D01*
X85707399Y-42522421D01*
X85611158Y-42521161D01*
X85605461Y-42522140D01*
X85605460Y-42522140D01*
X85412628Y-42555274D01*
X85412627Y-42555274D01*
X85406931Y-42556253D01*
X85212519Y-42627976D01*
X85207558Y-42630928D01*
X85207557Y-42630928D01*
X85063428Y-42716676D01*
X85034433Y-42733926D01*
X84878637Y-42870555D01*
X84750348Y-43033289D01*
X84653863Y-43216676D01*
X84592414Y-43414575D01*
X84568058Y-43620359D01*
X77228947Y-43620359D01*
X77234435Y-43610560D01*
X77301044Y-43414337D01*
X77301873Y-43408621D01*
X77301874Y-43408616D01*
X77330245Y-43212936D01*
X77330778Y-43209262D01*
X77332330Y-43150000D01*
X77313369Y-42943649D01*
X77306788Y-42920312D01*
X77258689Y-42749768D01*
X77258688Y-42749766D01*
X77257121Y-42744209D01*
X77250594Y-42730972D01*
X77168025Y-42563540D01*
X77165470Y-42558359D01*
X77143362Y-42528752D01*
X77044938Y-42396947D01*
X77044937Y-42396946D01*
X77041485Y-42392323D01*
X76889319Y-42251662D01*
X76843145Y-42222529D01*
X76718951Y-42144168D01*
X76718946Y-42144166D01*
X76714067Y-42141087D01*
X76521599Y-42064300D01*
X76318361Y-42023873D01*
X76312587Y-42023797D01*
X76312583Y-42023797D01*
X76207399Y-42022421D01*
X76111158Y-42021161D01*
X76105461Y-42022140D01*
X76105460Y-42022140D01*
X75912628Y-42055274D01*
X75912627Y-42055274D01*
X75906931Y-42056253D01*
X75712519Y-42127976D01*
X75534433Y-42233926D01*
X75378637Y-42370555D01*
X75250348Y-42533289D01*
X75153863Y-42716676D01*
X75092414Y-42914575D01*
X75068058Y-43120359D01*
X67696045Y-43120359D01*
X67668025Y-43063540D01*
X67665470Y-43058359D01*
X67643362Y-43028752D01*
X67544938Y-42896947D01*
X67544937Y-42896946D01*
X67541485Y-42892323D01*
X67389319Y-42751662D01*
X67325761Y-42711560D01*
X67218951Y-42644168D01*
X67218946Y-42644166D01*
X67214067Y-42641087D01*
X67021599Y-42564300D01*
X66818361Y-42523873D01*
X66812587Y-42523797D01*
X66812583Y-42523797D01*
X66707399Y-42522421D01*
X66611158Y-42521161D01*
X66605461Y-42522140D01*
X66605460Y-42522140D01*
X66412628Y-42555274D01*
X66412627Y-42555274D01*
X66406931Y-42556253D01*
X66212519Y-42627976D01*
X66207558Y-42630928D01*
X66207557Y-42630928D01*
X66063428Y-42716676D01*
X66034433Y-42733926D01*
X65878637Y-42870555D01*
X65750348Y-43033289D01*
X65653863Y-43216676D01*
X65592414Y-43414575D01*
X65568058Y-43620359D01*
X58114739Y-43620359D01*
X58114739Y-41296356D01*
X58134741Y-41228235D01*
X58177739Y-41187237D01*
X58771906Y-40844194D01*
X84824798Y-40844194D01*
X84825962Y-40853095D01*
X84825962Y-40853099D01*
X84841106Y-40968902D01*
X84842270Y-40977801D01*
X84896537Y-41101133D01*
X84902315Y-41108006D01*
X84902315Y-41108007D01*
X84977459Y-41197402D01*
X84983239Y-41204278D01*
X85007373Y-41220343D01*
X85064418Y-41258315D01*
X85095405Y-41278942D01*
X85224019Y-41319124D01*
X85358740Y-41321593D01*
X85451308Y-41296356D01*
X85480080Y-41288512D01*
X85480082Y-41288511D01*
X85488739Y-41286151D01*
X85546152Y-41250899D01*
X85595918Y-41220343D01*
X85595919Y-41220343D01*
X85603566Y-41215647D01*
X85618126Y-41199562D01*
X85687967Y-41122402D01*
X85693989Y-41115749D01*
X85696577Y-41110407D01*
X85750077Y-41066092D01*
X85820558Y-41057553D01*
X85884467Y-41088474D01*
X85895649Y-41101879D01*
X85896537Y-41101133D01*
X85968915Y-41187237D01*
X85983239Y-41204278D01*
X86007373Y-41220343D01*
X86064418Y-41258315D01*
X86095405Y-41278942D01*
X86224019Y-41319124D01*
X86358740Y-41321593D01*
X86451308Y-41296356D01*
X86480080Y-41288512D01*
X86480082Y-41288511D01*
X86488739Y-41286151D01*
X86546152Y-41250899D01*
X86595918Y-41220343D01*
X86595919Y-41220343D01*
X86603566Y-41215647D01*
X86613857Y-41204278D01*
X86687961Y-41122409D01*
X86687962Y-41122408D01*
X86693989Y-41115749D01*
X86701071Y-41101133D01*
X86748826Y-41002567D01*
X86748827Y-41002565D01*
X86752740Y-40994488D01*
X86775095Y-40861611D01*
X86775237Y-40850000D01*
X86756135Y-40716617D01*
X86700365Y-40593956D01*
X86632977Y-40515749D01*
X86618269Y-40498679D01*
X86618266Y-40498677D01*
X86612409Y-40491879D01*
X86499339Y-40418591D01*
X86483052Y-40413720D01*
X86378846Y-40382555D01*
X86378844Y-40382555D01*
X86370245Y-40379983D01*
X86361270Y-40379928D01*
X86361269Y-40379928D01*
X86302874Y-40379571D01*
X86235503Y-40379160D01*
X86226871Y-40381627D01*
X86114577Y-40413720D01*
X86114575Y-40413721D01*
X86105946Y-40416187D01*
X85991989Y-40488089D01*
X85986047Y-40494818D01*
X85986046Y-40494818D01*
X85908738Y-40582352D01*
X85908737Y-40582354D01*
X85902793Y-40589084D01*
X85902332Y-40590067D01*
X85851245Y-40633450D01*
X85780873Y-40642853D01*
X85716590Y-40612717D01*
X85700461Y-40593874D01*
X85700365Y-40593956D01*
X85618269Y-40498679D01*
X85618266Y-40498677D01*
X85612409Y-40491879D01*
X85499339Y-40418591D01*
X85483052Y-40413720D01*
X85378846Y-40382555D01*
X85378844Y-40382555D01*
X85370245Y-40379983D01*
X85361270Y-40379928D01*
X85361269Y-40379928D01*
X85302874Y-40379571D01*
X85235503Y-40379160D01*
X85226871Y-40381627D01*
X85114577Y-40413720D01*
X85114575Y-40413721D01*
X85105946Y-40416187D01*
X84991989Y-40488089D01*
X84986047Y-40494818D01*
X84986046Y-40494818D01*
X84916990Y-40573009D01*
X84902793Y-40589084D01*
X84898979Y-40597207D01*
X84898978Y-40597209D01*
X84857221Y-40686151D01*
X84845529Y-40711054D01*
X84824798Y-40844194D01*
X58771906Y-40844194D01*
X59811135Y-40244194D01*
X70124798Y-40244194D01*
X70125962Y-40253095D01*
X70125962Y-40253099D01*
X70141106Y-40368902D01*
X70142270Y-40377801D01*
X70179257Y-40461860D01*
X70190798Y-40488089D01*
X70196537Y-40501133D01*
X70202315Y-40508006D01*
X70202315Y-40508007D01*
X70274562Y-40593956D01*
X70283239Y-40604278D01*
X70395405Y-40678942D01*
X70524019Y-40719124D01*
X70658740Y-40721593D01*
X70712494Y-40706938D01*
X70780080Y-40688512D01*
X70780082Y-40688511D01*
X70788739Y-40686151D01*
X70903566Y-40615647D01*
X70929357Y-40587154D01*
X70987961Y-40522409D01*
X70987962Y-40522408D01*
X70993989Y-40515749D01*
X71001071Y-40501133D01*
X71048826Y-40402567D01*
X71048827Y-40402565D01*
X71052740Y-40394488D01*
X71075095Y-40261611D01*
X71075237Y-40250000D01*
X71056135Y-40116617D01*
X71000365Y-39993956D01*
X70932977Y-39915749D01*
X70918269Y-39898679D01*
X70918266Y-39898677D01*
X70912409Y-39891879D01*
X70799339Y-39818591D01*
X70783052Y-39813720D01*
X70678846Y-39782555D01*
X70678844Y-39782555D01*
X70670245Y-39779983D01*
X70661270Y-39779928D01*
X70661269Y-39779928D01*
X70602874Y-39779571D01*
X70535503Y-39779160D01*
X70526871Y-39781627D01*
X70414577Y-39813720D01*
X70414575Y-39813721D01*
X70405946Y-39816187D01*
X70291989Y-39888089D01*
X70286047Y-39894818D01*
X70286046Y-39894818D01*
X70216990Y-39973009D01*
X70202793Y-39989084D01*
X70198979Y-39997207D01*
X70198978Y-39997209D01*
X70157221Y-40086151D01*
X70145529Y-40111054D01*
X70124798Y-40244194D01*
X59811135Y-40244194D01*
X60850364Y-39644194D01*
X84824798Y-39644194D01*
X84825962Y-39653095D01*
X84825962Y-39653099D01*
X84841106Y-39768902D01*
X84842270Y-39777801D01*
X84877361Y-39857553D01*
X84890798Y-39888089D01*
X84896537Y-39901133D01*
X84983239Y-40004278D01*
X85095405Y-40078942D01*
X85224019Y-40119124D01*
X85358740Y-40121593D01*
X85412494Y-40106938D01*
X85480080Y-40088512D01*
X85480082Y-40088511D01*
X85488739Y-40086151D01*
X85603566Y-40015647D01*
X85633700Y-39982356D01*
X85687967Y-39922402D01*
X85693989Y-39915749D01*
X85696577Y-39910407D01*
X85750077Y-39866092D01*
X85820558Y-39857553D01*
X85884467Y-39888474D01*
X85895649Y-39901879D01*
X85896537Y-39901133D01*
X85983239Y-40004278D01*
X86095405Y-40078942D01*
X86224019Y-40119124D01*
X86358740Y-40121593D01*
X86412494Y-40106938D01*
X86480080Y-40088512D01*
X86480082Y-40088511D01*
X86488739Y-40086151D01*
X86603566Y-40015647D01*
X86629357Y-39987154D01*
X86687961Y-39922409D01*
X86687962Y-39922408D01*
X86693989Y-39915749D01*
X86701071Y-39901133D01*
X86748826Y-39802567D01*
X86748827Y-39802565D01*
X86752740Y-39794488D01*
X86775095Y-39661611D01*
X86775237Y-39650000D01*
X86756135Y-39516617D01*
X86700365Y-39393956D01*
X86690366Y-39382352D01*
X86618269Y-39298679D01*
X86618266Y-39298677D01*
X86612409Y-39291879D01*
X86549408Y-39251044D01*
X86506873Y-39223474D01*
X86506872Y-39223473D01*
X86499339Y-39218591D01*
X86483052Y-39213720D01*
X86378846Y-39182555D01*
X86378844Y-39182555D01*
X86370245Y-39179983D01*
X86361270Y-39179928D01*
X86361269Y-39179928D01*
X86302874Y-39179571D01*
X86235503Y-39179160D01*
X86226871Y-39181627D01*
X86114577Y-39213720D01*
X86114575Y-39213721D01*
X86105946Y-39216187D01*
X86098355Y-39220976D01*
X86098354Y-39220977D01*
X86088951Y-39226910D01*
X85991989Y-39288089D01*
X85986047Y-39294818D01*
X85986046Y-39294818D01*
X85908738Y-39382352D01*
X85908737Y-39382354D01*
X85902793Y-39389084D01*
X85902332Y-39390067D01*
X85851245Y-39433450D01*
X85780873Y-39442853D01*
X85716590Y-39412717D01*
X85700461Y-39393874D01*
X85700365Y-39393956D01*
X85618269Y-39298679D01*
X85618266Y-39298677D01*
X85612409Y-39291879D01*
X85549408Y-39251044D01*
X85506873Y-39223474D01*
X85506872Y-39223473D01*
X85499339Y-39218591D01*
X85483052Y-39213720D01*
X85378846Y-39182555D01*
X85378844Y-39182555D01*
X85370245Y-39179983D01*
X85361270Y-39179928D01*
X85361269Y-39179928D01*
X85302874Y-39179571D01*
X85235503Y-39179160D01*
X85226871Y-39181627D01*
X85114577Y-39213720D01*
X85114575Y-39213721D01*
X85105946Y-39216187D01*
X85098355Y-39220976D01*
X85098354Y-39220977D01*
X85088951Y-39226910D01*
X84991989Y-39288089D01*
X84902793Y-39389084D01*
X84845529Y-39511054D01*
X84824798Y-39644194D01*
X60850364Y-39644194D01*
X63489720Y-38120359D01*
X75068058Y-38120359D01*
X75081611Y-38327135D01*
X75132619Y-38527980D01*
X75219373Y-38716165D01*
X75222704Y-38720878D01*
X75222705Y-38720880D01*
X75275652Y-38795797D01*
X75338970Y-38885390D01*
X75487402Y-39029986D01*
X75492198Y-39033191D01*
X75492201Y-39033193D01*
X75561493Y-39079492D01*
X75659699Y-39145111D01*
X75665002Y-39147389D01*
X75665005Y-39147391D01*
X75844784Y-39224630D01*
X75850091Y-39226910D01*
X76052201Y-39272643D01*
X76057972Y-39272870D01*
X76057974Y-39272870D01*
X76127210Y-39275590D01*
X76259262Y-39280778D01*
X76347561Y-39267975D01*
X76458616Y-39251874D01*
X76458621Y-39251873D01*
X76464337Y-39251044D01*
X76469809Y-39249186D01*
X76469811Y-39249186D01*
X76655096Y-39186290D01*
X76655098Y-39186289D01*
X76660560Y-39184435D01*
X76841359Y-39083183D01*
X77000678Y-38950678D01*
X77133183Y-38791359D01*
X77143665Y-38772643D01*
X77172653Y-38720880D01*
X77234435Y-38610560D01*
X77301044Y-38414337D01*
X77301873Y-38408621D01*
X77301874Y-38408616D01*
X77330245Y-38212936D01*
X77330778Y-38209262D01*
X77332330Y-38150000D01*
X77313369Y-37943649D01*
X77306788Y-37920312D01*
X77258689Y-37749768D01*
X77258688Y-37749766D01*
X77257121Y-37744209D01*
X77246265Y-37722194D01*
X77196045Y-37620359D01*
X84568058Y-37620359D01*
X84581611Y-37827135D01*
X84632619Y-38027980D01*
X84719373Y-38216165D01*
X84722704Y-38220878D01*
X84722705Y-38220880D01*
X84793723Y-38321367D01*
X84838970Y-38385390D01*
X84987402Y-38529986D01*
X84992198Y-38533191D01*
X84992201Y-38533193D01*
X85061493Y-38579492D01*
X85159699Y-38645111D01*
X85165002Y-38647389D01*
X85165005Y-38647391D01*
X85312871Y-38710919D01*
X85350091Y-38726910D01*
X85552201Y-38772643D01*
X85557972Y-38772870D01*
X85557974Y-38772870D01*
X85627210Y-38775590D01*
X85759262Y-38780778D01*
X85847561Y-38767975D01*
X85958616Y-38751874D01*
X85958621Y-38751873D01*
X85964337Y-38751044D01*
X85969809Y-38749186D01*
X85969811Y-38749186D01*
X86155096Y-38686290D01*
X86155098Y-38686289D01*
X86160560Y-38684435D01*
X86341359Y-38583183D01*
X86500678Y-38450678D01*
X86603428Y-38327135D01*
X86629492Y-38295797D01*
X86633183Y-38291359D01*
X86734435Y-38110560D01*
X86801044Y-37914337D01*
X86801873Y-37908621D01*
X86801874Y-37908616D01*
X86830245Y-37712936D01*
X86830778Y-37709262D01*
X86832330Y-37650000D01*
X86813369Y-37443649D01*
X86806788Y-37420312D01*
X86758689Y-37249768D01*
X86758688Y-37249766D01*
X86757121Y-37244209D01*
X86750594Y-37230972D01*
X86668025Y-37063540D01*
X86665470Y-37058359D01*
X86643362Y-37028752D01*
X86544938Y-36896947D01*
X86544937Y-36896946D01*
X86541485Y-36892323D01*
X86389319Y-36751662D01*
X86343145Y-36722529D01*
X86218951Y-36644168D01*
X86218946Y-36644166D01*
X86214067Y-36641087D01*
X86039884Y-36571595D01*
X86026968Y-36566442D01*
X86021599Y-36564300D01*
X85818361Y-36523873D01*
X85812587Y-36523797D01*
X85812583Y-36523797D01*
X85707399Y-36522421D01*
X85611158Y-36521161D01*
X85605461Y-36522140D01*
X85605460Y-36522140D01*
X85412628Y-36555274D01*
X85412627Y-36555274D01*
X85406931Y-36556253D01*
X85212519Y-36627976D01*
X85034433Y-36733926D01*
X84878637Y-36870555D01*
X84750348Y-37033289D01*
X84653863Y-37216676D01*
X84592414Y-37414575D01*
X84568058Y-37620359D01*
X77196045Y-37620359D01*
X77168025Y-37563540D01*
X77165470Y-37558359D01*
X77143362Y-37528752D01*
X77044938Y-37396947D01*
X77044937Y-37396946D01*
X77041485Y-37392323D01*
X76889319Y-37251662D01*
X76825761Y-37211560D01*
X76718951Y-37144168D01*
X76718946Y-37144166D01*
X76714067Y-37141087D01*
X76521599Y-37064300D01*
X76318361Y-37023873D01*
X76312587Y-37023797D01*
X76312583Y-37023797D01*
X76207399Y-37022421D01*
X76111158Y-37021161D01*
X76105461Y-37022140D01*
X76105460Y-37022140D01*
X75912628Y-37055274D01*
X75912627Y-37055274D01*
X75906931Y-37056253D01*
X75712519Y-37127976D01*
X75707558Y-37130928D01*
X75707557Y-37130928D01*
X75563428Y-37216676D01*
X75534433Y-37233926D01*
X75378637Y-37370555D01*
X75250348Y-37533289D01*
X75153863Y-37716676D01*
X75092414Y-37914575D01*
X75068058Y-38120359D01*
X63489720Y-38120359D01*
X68557978Y-35194195D01*
X72574796Y-35194195D01*
X72575960Y-35203096D01*
X72575960Y-35203100D01*
X72588005Y-35295205D01*
X72592268Y-35327802D01*
X72646535Y-35451134D01*
X72652313Y-35458007D01*
X72652313Y-35458008D01*
X72727459Y-35547406D01*
X72727462Y-35547408D01*
X72733237Y-35554279D01*
X72737967Y-35557428D01*
X72774543Y-35616333D01*
X72773440Y-35687321D01*
X72740689Y-35736943D01*
X72741989Y-35738091D01*
X72652793Y-35839086D01*
X72595529Y-35961056D01*
X72574798Y-36094196D01*
X72575962Y-36103097D01*
X72575962Y-36103101D01*
X72591106Y-36218904D01*
X72592270Y-36227803D01*
X72646537Y-36351135D01*
X72733239Y-36454280D01*
X72757373Y-36470345D01*
X72835184Y-36522140D01*
X72845405Y-36528944D01*
X72974019Y-36569126D01*
X73108740Y-36571595D01*
X73162494Y-36556940D01*
X73230080Y-36538514D01*
X73230082Y-36538513D01*
X73238739Y-36536153D01*
X73353566Y-36465649D01*
X73443989Y-36365751D01*
X73451071Y-36351135D01*
X73498826Y-36252569D01*
X73498827Y-36252567D01*
X73502740Y-36244490D01*
X73525095Y-36111613D01*
X73525237Y-36100002D01*
X73506135Y-35966619D01*
X73450365Y-35843958D01*
X73362409Y-35741881D01*
X73361912Y-35741559D01*
X73325997Y-35685262D01*
X73326234Y-35614266D01*
X73353595Y-35565614D01*
X73443987Y-35465750D01*
X73451069Y-35451134D01*
X73498824Y-35352568D01*
X73498825Y-35352566D01*
X73502738Y-35344489D01*
X73525093Y-35211612D01*
X73525235Y-35200001D01*
X73522753Y-35182670D01*
X81932160Y-35182670D01*
X81937887Y-35190320D01*
X82109042Y-35295205D01*
X82117837Y-35299687D01*
X82327988Y-35386734D01*
X82337373Y-35389783D01*
X82558554Y-35442885D01*
X82568301Y-35444428D01*
X82795070Y-35462275D01*
X82804930Y-35462275D01*
X83031699Y-35444428D01*
X83041446Y-35442885D01*
X83262627Y-35389783D01*
X83272012Y-35386734D01*
X83482163Y-35299687D01*
X83490958Y-35295205D01*
X83658445Y-35192568D01*
X83667907Y-35182110D01*
X83664124Y-35173334D01*
X82812812Y-34322022D01*
X82798868Y-34314408D01*
X82797035Y-34314539D01*
X82790420Y-34318790D01*
X81938920Y-35170290D01*
X81932160Y-35182670D01*
X73522753Y-35182670D01*
X73506133Y-35066618D01*
X73450363Y-34943957D01*
X73444505Y-34937158D01*
X73444502Y-34937154D01*
X73397083Y-34882123D01*
X73367769Y-34817461D01*
X73378068Y-34747215D01*
X73399117Y-34715325D01*
X73443991Y-34665749D01*
X73451073Y-34651133D01*
X73498828Y-34552567D01*
X73498829Y-34552565D01*
X73502742Y-34544488D01*
X73525097Y-34411611D01*
X73525239Y-34400000D01*
X73506137Y-34266617D01*
X73450367Y-34143956D01*
X73440372Y-34132356D01*
X73368270Y-34048678D01*
X73368268Y-34048676D01*
X73362411Y-34041879D01*
X73361916Y-34041558D01*
X73326000Y-33985262D01*
X73326101Y-33954930D01*
X81287725Y-33954930D01*
X81305572Y-34181699D01*
X81307115Y-34191446D01*
X81360217Y-34412627D01*
X81363266Y-34422012D01*
X81450313Y-34632163D01*
X81454795Y-34640958D01*
X81557432Y-34808445D01*
X81567890Y-34817907D01*
X81576666Y-34814124D01*
X82427978Y-33962812D01*
X82434356Y-33951132D01*
X83164408Y-33951132D01*
X83164539Y-33952965D01*
X83168790Y-33959580D01*
X84020290Y-34811080D01*
X84032670Y-34817840D01*
X84040320Y-34812113D01*
X84145205Y-34640958D01*
X84149687Y-34632163D01*
X84236734Y-34422012D01*
X84239783Y-34412627D01*
X84292885Y-34191446D01*
X84294428Y-34181699D01*
X84312275Y-33954930D01*
X84312275Y-33945070D01*
X84294428Y-33718301D01*
X84292885Y-33708554D01*
X84239783Y-33487373D01*
X84236734Y-33477988D01*
X84149687Y-33267837D01*
X84145205Y-33259042D01*
X84042568Y-33091555D01*
X84032110Y-33082093D01*
X84023334Y-33085876D01*
X83172022Y-33937188D01*
X83164408Y-33951132D01*
X82434356Y-33951132D01*
X82435592Y-33948868D01*
X82435461Y-33947035D01*
X82431210Y-33940420D01*
X81579710Y-33088920D01*
X81567330Y-33082160D01*
X81559680Y-33087887D01*
X81454795Y-33259042D01*
X81450313Y-33267837D01*
X81363266Y-33477988D01*
X81360217Y-33487373D01*
X81307115Y-33708554D01*
X81305572Y-33718301D01*
X81287725Y-33945070D01*
X81287725Y-33954930D01*
X73326101Y-33954930D01*
X73326237Y-33914265D01*
X73353597Y-33865613D01*
X73443989Y-33765749D01*
X73450712Y-33751874D01*
X73498826Y-33652567D01*
X73498827Y-33652565D01*
X73502740Y-33644488D01*
X73525095Y-33511611D01*
X73525237Y-33500000D01*
X73508824Y-33385390D01*
X73507408Y-33375503D01*
X73507407Y-33375500D01*
X73506135Y-33366617D01*
X73450365Y-33243956D01*
X73421898Y-33210919D01*
X73368269Y-33148679D01*
X73368266Y-33148677D01*
X73362409Y-33141879D01*
X73276007Y-33085876D01*
X73256873Y-33073474D01*
X73256872Y-33073473D01*
X73249339Y-33068591D01*
X73233052Y-33063720D01*
X73128846Y-33032555D01*
X73128844Y-33032555D01*
X73120245Y-33029983D01*
X73111270Y-33029928D01*
X73111269Y-33029928D01*
X73052874Y-33029571D01*
X72985503Y-33029160D01*
X72976871Y-33031627D01*
X72864577Y-33063720D01*
X72864575Y-33063721D01*
X72855946Y-33066187D01*
X72848355Y-33070976D01*
X72848354Y-33070977D01*
X72749582Y-33133298D01*
X72741989Y-33138089D01*
X72652793Y-33239084D01*
X72648979Y-33247207D01*
X72648978Y-33247209D01*
X72599345Y-33352926D01*
X72595529Y-33361054D01*
X72574798Y-33494194D01*
X72575962Y-33503095D01*
X72575962Y-33503099D01*
X72586177Y-33581210D01*
X72592270Y-33627801D01*
X72646537Y-33751133D01*
X72733239Y-33854278D01*
X72737970Y-33857427D01*
X72774545Y-33916336D01*
X72773440Y-33987324D01*
X72740690Y-34036940D01*
X72741991Y-34038089D01*
X72652795Y-34139084D01*
X72648981Y-34147207D01*
X72648980Y-34147209D01*
X72628211Y-34191446D01*
X72595531Y-34261054D01*
X72574800Y-34394194D01*
X72575964Y-34403095D01*
X72575964Y-34403099D01*
X72591108Y-34518902D01*
X72592272Y-34527801D01*
X72646539Y-34651133D01*
X72664420Y-34672405D01*
X72703743Y-34719186D01*
X72732264Y-34784202D01*
X72721108Y-34854316D01*
X72701733Y-34883668D01*
X72652791Y-34939085D01*
X72595527Y-35061055D01*
X72594146Y-35069925D01*
X72576591Y-35182670D01*
X72574796Y-35194195D01*
X68557978Y-35194195D01*
X72244082Y-33066019D01*
X72847058Y-32717890D01*
X81932093Y-32717890D01*
X81935876Y-32726666D01*
X82787188Y-33577978D01*
X82801132Y-33585592D01*
X82802965Y-33585461D01*
X82809580Y-33581210D01*
X83661080Y-32729710D01*
X83667840Y-32717330D01*
X83662113Y-32709680D01*
X83516356Y-32620359D01*
X84568058Y-32620359D01*
X84581611Y-32827135D01*
X84632619Y-33027980D01*
X84719373Y-33216165D01*
X84722704Y-33220878D01*
X84722705Y-33220880D01*
X84831983Y-33375503D01*
X84838970Y-33385390D01*
X84843106Y-33389419D01*
X84968540Y-33511611D01*
X84987402Y-33529986D01*
X84992198Y-33533191D01*
X84992201Y-33533193D01*
X85059227Y-33577978D01*
X85159699Y-33645111D01*
X85165002Y-33647389D01*
X85165005Y-33647391D01*
X85307366Y-33708554D01*
X85350091Y-33726910D01*
X85552201Y-33772643D01*
X85557972Y-33772870D01*
X85557974Y-33772870D01*
X85627210Y-33775590D01*
X85759262Y-33780778D01*
X85862917Y-33765749D01*
X85958616Y-33751874D01*
X85958621Y-33751873D01*
X85964337Y-33751044D01*
X85969809Y-33749186D01*
X85969811Y-33749186D01*
X86155096Y-33686290D01*
X86155098Y-33686289D01*
X86160560Y-33684435D01*
X86341359Y-33583183D01*
X86500678Y-33450678D01*
X86633183Y-33291359D01*
X86734435Y-33110560D01*
X86740887Y-33091555D01*
X86799186Y-32919811D01*
X86799186Y-32919809D01*
X86801044Y-32914337D01*
X86801873Y-32908621D01*
X86801874Y-32908616D01*
X86827813Y-32729710D01*
X86830778Y-32709262D01*
X86832330Y-32650000D01*
X86819486Y-32510217D01*
X86813898Y-32449403D01*
X86813897Y-32449400D01*
X86813369Y-32443649D01*
X86811699Y-32437725D01*
X86758689Y-32249768D01*
X86758688Y-32249766D01*
X86757121Y-32244209D01*
X86746265Y-32222194D01*
X86668025Y-32063540D01*
X86665470Y-32058359D01*
X86643362Y-32028752D01*
X86544938Y-31896947D01*
X86544937Y-31896946D01*
X86541485Y-31892323D01*
X86389319Y-31751662D01*
X86343145Y-31722529D01*
X86218951Y-31644168D01*
X86218946Y-31644166D01*
X86214067Y-31641087D01*
X86021599Y-31564300D01*
X85818361Y-31523873D01*
X85812587Y-31523797D01*
X85812583Y-31523797D01*
X85707399Y-31522421D01*
X85611158Y-31521161D01*
X85605461Y-31522140D01*
X85605460Y-31522140D01*
X85412628Y-31555274D01*
X85412627Y-31555274D01*
X85406931Y-31556253D01*
X85212519Y-31627976D01*
X85034433Y-31733926D01*
X84878637Y-31870555D01*
X84750348Y-32033289D01*
X84653863Y-32216676D01*
X84592414Y-32414575D01*
X84568058Y-32620359D01*
X83516356Y-32620359D01*
X83490958Y-32604795D01*
X83482163Y-32600313D01*
X83272012Y-32513266D01*
X83262627Y-32510217D01*
X83041446Y-32457115D01*
X83031699Y-32455572D01*
X82804930Y-32437725D01*
X82795070Y-32437725D01*
X82568301Y-32455572D01*
X82558554Y-32457115D01*
X82337373Y-32510217D01*
X82327988Y-32513266D01*
X82117837Y-32600313D01*
X82109042Y-32604795D01*
X81941555Y-32707432D01*
X81932093Y-32717890D01*
X72847058Y-32717890D01*
X85637040Y-25333580D01*
X85706035Y-25316842D01*
X85763040Y-25333580D01*
G37*
%TD.AperFunction*%
%TD*%
%TA.AperFunction,Conductor*%
%TO.N,+5V*%
G36*
X87769981Y-26492293D02*
G01*
X113222261Y-41187237D01*
X113271254Y-41238620D01*
X113285261Y-41296356D01*
X113285261Y-73003508D01*
X113265259Y-73071629D01*
X113222262Y-73112627D01*
X112028023Y-73802130D01*
X85763040Y-88966421D01*
X85694044Y-88983159D01*
X85637039Y-88966421D01*
X72913414Y-81620359D01*
X84568058Y-81620359D01*
X84581611Y-81827135D01*
X84632619Y-82027980D01*
X84719373Y-82216165D01*
X84722704Y-82220878D01*
X84722705Y-82220880D01*
X84775652Y-82295797D01*
X84838970Y-82385390D01*
X84987402Y-82529986D01*
X84992198Y-82533191D01*
X84992201Y-82533193D01*
X85061493Y-82579492D01*
X85159699Y-82645111D01*
X85165002Y-82647389D01*
X85165005Y-82647391D01*
X85344784Y-82724630D01*
X85350091Y-82726910D01*
X85552201Y-82772643D01*
X85557972Y-82772870D01*
X85557974Y-82772870D01*
X85627210Y-82775590D01*
X85759262Y-82780778D01*
X85847561Y-82767975D01*
X85958616Y-82751874D01*
X85958621Y-82751873D01*
X85964337Y-82751044D01*
X85969809Y-82749186D01*
X85969811Y-82749186D01*
X86155096Y-82686290D01*
X86155098Y-82686289D01*
X86160560Y-82684435D01*
X86341359Y-82583183D01*
X86500678Y-82450678D01*
X86633183Y-82291359D01*
X86734435Y-82110560D01*
X86801044Y-81914337D01*
X86801873Y-81908621D01*
X86801874Y-81908616D01*
X86830245Y-81712936D01*
X86830778Y-81709262D01*
X86832330Y-81650000D01*
X86813369Y-81443649D01*
X86806788Y-81420312D01*
X86758689Y-81249768D01*
X86758688Y-81249766D01*
X86757121Y-81244209D01*
X86746265Y-81222194D01*
X86668025Y-81063540D01*
X86665470Y-81058359D01*
X86643362Y-81028752D01*
X86544938Y-80896947D01*
X86544937Y-80896946D01*
X86541485Y-80892323D01*
X86411763Y-80772409D01*
X86393559Y-80755581D01*
X86393556Y-80755579D01*
X86389319Y-80751662D01*
X86343145Y-80722529D01*
X86218951Y-80644168D01*
X86218946Y-80644166D01*
X86214067Y-80641087D01*
X86021599Y-80564300D01*
X85818361Y-80523873D01*
X85812587Y-80523797D01*
X85812583Y-80523797D01*
X85707399Y-80522421D01*
X85611158Y-80521161D01*
X85605461Y-80522140D01*
X85605460Y-80522140D01*
X85412628Y-80555274D01*
X85412627Y-80555274D01*
X85406931Y-80556253D01*
X85212519Y-80627976D01*
X85034433Y-80733926D01*
X84878637Y-80870555D01*
X84750348Y-81033289D01*
X84653863Y-81216676D01*
X84592414Y-81414575D01*
X84568058Y-81620359D01*
X72913414Y-81620359D01*
X70962859Y-80494194D01*
X78824798Y-80494194D01*
X78825962Y-80503095D01*
X78825962Y-80503099D01*
X78834246Y-80566442D01*
X78842270Y-80627801D01*
X78896537Y-80751133D01*
X78983239Y-80854278D01*
X79095405Y-80928942D01*
X79224019Y-80969124D01*
X79358740Y-80971593D01*
X79412494Y-80956938D01*
X79480080Y-80938512D01*
X79480082Y-80938511D01*
X79488739Y-80936151D01*
X79603566Y-80865647D01*
X79693989Y-80765749D01*
X79698916Y-80755581D01*
X79748826Y-80652567D01*
X79748827Y-80652565D01*
X79752740Y-80644488D01*
X79775095Y-80511611D01*
X79775237Y-80500000D01*
X79756135Y-80366617D01*
X79700365Y-80243956D01*
X79690370Y-80232356D01*
X79618269Y-80148679D01*
X79618266Y-80148677D01*
X79612409Y-80141879D01*
X79499339Y-80068591D01*
X79483052Y-80063720D01*
X79378846Y-80032555D01*
X79378844Y-80032555D01*
X79370245Y-80029983D01*
X79361270Y-80029928D01*
X79361269Y-80029928D01*
X79302874Y-80029571D01*
X79235503Y-80029160D01*
X79226871Y-80031627D01*
X79114577Y-80063720D01*
X79114575Y-80063721D01*
X79105946Y-80066187D01*
X78991989Y-80138089D01*
X78902793Y-80239084D01*
X78845529Y-80361054D01*
X78824798Y-80494194D01*
X70962859Y-80494194D01*
X69057622Y-79394194D01*
X81074798Y-79394194D01*
X81075962Y-79403095D01*
X81075962Y-79403099D01*
X81088970Y-79502567D01*
X81092270Y-79527801D01*
X81146537Y-79651133D01*
X81233239Y-79754278D01*
X81257373Y-79770343D01*
X81330656Y-79819124D01*
X81345405Y-79828942D01*
X81474019Y-79869124D01*
X81608740Y-79871593D01*
X81662494Y-79856938D01*
X81730080Y-79838512D01*
X81730082Y-79838511D01*
X81738739Y-79836151D01*
X81853566Y-79765647D01*
X81898824Y-79715647D01*
X81937961Y-79672409D01*
X81937962Y-79672408D01*
X81943989Y-79665749D01*
X81951071Y-79651133D01*
X81998826Y-79552567D01*
X81998827Y-79552565D01*
X82002740Y-79544488D01*
X82025095Y-79411611D01*
X82025237Y-79400000D01*
X82017245Y-79344194D01*
X96524798Y-79344194D01*
X96525962Y-79353095D01*
X96525962Y-79353099D01*
X96541106Y-79468902D01*
X96542270Y-79477801D01*
X96596537Y-79601133D01*
X96602315Y-79608006D01*
X96602315Y-79608007D01*
X96638566Y-79651133D01*
X96683239Y-79704278D01*
X96707373Y-79720343D01*
X96765435Y-79758992D01*
X96795405Y-79778942D01*
X96924019Y-79819124D01*
X97058740Y-79821593D01*
X97112494Y-79806938D01*
X97180080Y-79788512D01*
X97180082Y-79788511D01*
X97188739Y-79786151D01*
X97303566Y-79715647D01*
X97342703Y-79672409D01*
X97387961Y-79622409D01*
X97387962Y-79622408D01*
X97393989Y-79615749D01*
X97401071Y-79601133D01*
X97448826Y-79502567D01*
X97448827Y-79502565D01*
X97452740Y-79494488D01*
X97475095Y-79361611D01*
X97475237Y-79350000D01*
X97456135Y-79216617D01*
X97400365Y-79093956D01*
X97390370Y-79082356D01*
X97318269Y-78998679D01*
X97318266Y-78998677D01*
X97312409Y-78991879D01*
X97199339Y-78918591D01*
X97183052Y-78913720D01*
X97078846Y-78882555D01*
X97078844Y-78882555D01*
X97070245Y-78879983D01*
X97061270Y-78879928D01*
X97061269Y-78879928D01*
X97002874Y-78879572D01*
X96935503Y-78879160D01*
X96926871Y-78881627D01*
X96814577Y-78913720D01*
X96814575Y-78913721D01*
X96805946Y-78916187D01*
X96798355Y-78920976D01*
X96798354Y-78920977D01*
X96715152Y-78973474D01*
X96691989Y-78988089D01*
X96686047Y-78994818D01*
X96686046Y-78994818D01*
X96638478Y-79048679D01*
X96602793Y-79089084D01*
X96545529Y-79211054D01*
X96524798Y-79344194D01*
X82017245Y-79344194D01*
X82006135Y-79266617D01*
X81950365Y-79143956D01*
X81897287Y-79082356D01*
X81868269Y-79048679D01*
X81868266Y-79048677D01*
X81862409Y-79041879D01*
X81795759Y-78998679D01*
X81756873Y-78973474D01*
X81756872Y-78973473D01*
X81749339Y-78968591D01*
X81733052Y-78963720D01*
X81628846Y-78932555D01*
X81628844Y-78932555D01*
X81620245Y-78929983D01*
X81611270Y-78929928D01*
X81611269Y-78929928D01*
X81552874Y-78929571D01*
X81485503Y-78929160D01*
X81476871Y-78931627D01*
X81364577Y-78963720D01*
X81364575Y-78963721D01*
X81355946Y-78966187D01*
X81348355Y-78970976D01*
X81348354Y-78970977D01*
X81249582Y-79033298D01*
X81241989Y-79038089D01*
X81152793Y-79139084D01*
X81148979Y-79147207D01*
X81148978Y-79147209D01*
X81116392Y-79216617D01*
X81095529Y-79261054D01*
X81094148Y-79269924D01*
X81079125Y-79366408D01*
X81074798Y-79394194D01*
X69057622Y-79394194D01*
X66892581Y-78144194D01*
X78824798Y-78144194D01*
X78825962Y-78153095D01*
X78825962Y-78153099D01*
X78841106Y-78268902D01*
X78842270Y-78277801D01*
X78896537Y-78401133D01*
X78983239Y-78504278D01*
X79095405Y-78578942D01*
X79224019Y-78619124D01*
X79358740Y-78621593D01*
X79412494Y-78606938D01*
X79480080Y-78588512D01*
X79480082Y-78588511D01*
X79488739Y-78586151D01*
X79603566Y-78515647D01*
X79693989Y-78415749D01*
X79701071Y-78401133D01*
X79748826Y-78302567D01*
X79748827Y-78302565D01*
X79752740Y-78294488D01*
X79775095Y-78161611D01*
X79775237Y-78150000D01*
X79756135Y-78016617D01*
X79700365Y-77893956D01*
X79690370Y-77882356D01*
X79618269Y-77798679D01*
X79618266Y-77798677D01*
X79612409Y-77791879D01*
X79549408Y-77751044D01*
X79506873Y-77723474D01*
X79506872Y-77723473D01*
X79499339Y-77718591D01*
X79483052Y-77713720D01*
X79378846Y-77682555D01*
X79378844Y-77682555D01*
X79370245Y-77679983D01*
X79361270Y-77679928D01*
X79361269Y-77679928D01*
X79302874Y-77679571D01*
X79235503Y-77679160D01*
X79226871Y-77681627D01*
X79114577Y-77713720D01*
X79114575Y-77713721D01*
X79105946Y-77716187D01*
X79098355Y-77720976D01*
X79098354Y-77720977D01*
X79088951Y-77726910D01*
X78991989Y-77788089D01*
X78902793Y-77889084D01*
X78845529Y-78011054D01*
X78824798Y-78144194D01*
X66892581Y-78144194D01*
X63387231Y-76120359D01*
X75068058Y-76120359D01*
X75081611Y-76327135D01*
X75132619Y-76527980D01*
X75219373Y-76716165D01*
X75222704Y-76720878D01*
X75222705Y-76720880D01*
X75333607Y-76877801D01*
X75338970Y-76885390D01*
X75343106Y-76889419D01*
X75457784Y-77001133D01*
X75487402Y-77029986D01*
X75492198Y-77033191D01*
X75492201Y-77033193D01*
X75545644Y-77068902D01*
X75659699Y-77145111D01*
X75665002Y-77147389D01*
X75665005Y-77147391D01*
X75844784Y-77224630D01*
X75850091Y-77226910D01*
X76052201Y-77272643D01*
X76057972Y-77272870D01*
X76057974Y-77272870D01*
X76127210Y-77275590D01*
X76259262Y-77280778D01*
X76347561Y-77267975D01*
X76458616Y-77251874D01*
X76458621Y-77251873D01*
X76464337Y-77251044D01*
X76469809Y-77249186D01*
X76469811Y-77249186D01*
X76655096Y-77186290D01*
X76655098Y-77186289D01*
X76660560Y-77184435D01*
X76815969Y-77097402D01*
X76836322Y-77086004D01*
X76836323Y-77086003D01*
X76841359Y-77083183D01*
X77000678Y-76950678D01*
X77006071Y-76944194D01*
X81074798Y-76944194D01*
X81075962Y-76953095D01*
X81075962Y-76953099D01*
X81086441Y-77033227D01*
X81092270Y-77077801D01*
X81121887Y-77145111D01*
X81137879Y-77181455D01*
X81146537Y-77201133D01*
X81152315Y-77208006D01*
X81152315Y-77208007D01*
X81188491Y-77251044D01*
X81233239Y-77304278D01*
X81345405Y-77378942D01*
X81474019Y-77419124D01*
X81608740Y-77421593D01*
X81662494Y-77406938D01*
X81730080Y-77388512D01*
X81730082Y-77388511D01*
X81738739Y-77386151D01*
X81853566Y-77315647D01*
X81870081Y-77297402D01*
X81937961Y-77222409D01*
X81937962Y-77222408D01*
X81943989Y-77215749D01*
X81951071Y-77201133D01*
X81998826Y-77102567D01*
X81998827Y-77102565D01*
X82002740Y-77094488D01*
X82025095Y-76961611D01*
X82025237Y-76950000D01*
X82008444Y-76832737D01*
X82007408Y-76825503D01*
X82007407Y-76825500D01*
X82006135Y-76816617D01*
X81950365Y-76693956D01*
X81940370Y-76682356D01*
X81886950Y-76620359D01*
X84568058Y-76620359D01*
X84581611Y-76827135D01*
X84632619Y-77027980D01*
X84719373Y-77216165D01*
X84722704Y-77220878D01*
X84722705Y-77220880D01*
X84785163Y-77309255D01*
X84838970Y-77385390D01*
X84987402Y-77529986D01*
X84992198Y-77533191D01*
X84992201Y-77533193D01*
X85061493Y-77579492D01*
X85159699Y-77645111D01*
X85165002Y-77647389D01*
X85165005Y-77647391D01*
X85344784Y-77724630D01*
X85350091Y-77726910D01*
X85552201Y-77772643D01*
X85557972Y-77772870D01*
X85557974Y-77772870D01*
X85627210Y-77775590D01*
X85759262Y-77780778D01*
X85847561Y-77767975D01*
X85958616Y-77751874D01*
X85958621Y-77751873D01*
X85964337Y-77751044D01*
X85969809Y-77749186D01*
X85969811Y-77749186D01*
X86155096Y-77686290D01*
X86155098Y-77686289D01*
X86160560Y-77684435D01*
X86341359Y-77583183D01*
X86500678Y-77450678D01*
X86633183Y-77291359D01*
X86643665Y-77272643D01*
X86675136Y-77216447D01*
X86734435Y-77110560D01*
X86736568Y-77104278D01*
X86799186Y-76919811D01*
X86799186Y-76919809D01*
X86801044Y-76914337D01*
X86801873Y-76908621D01*
X86801874Y-76908616D01*
X86824871Y-76750000D01*
X86830778Y-76709262D01*
X86832330Y-76650000D01*
X86818743Y-76502130D01*
X86813898Y-76449403D01*
X86813897Y-76449400D01*
X86813369Y-76443649D01*
X86806788Y-76420312D01*
X86758689Y-76249768D01*
X86758688Y-76249766D01*
X86757121Y-76244209D01*
X86746265Y-76222194D01*
X86696045Y-76120359D01*
X94068058Y-76120359D01*
X94081611Y-76327135D01*
X94132619Y-76527980D01*
X94219373Y-76716165D01*
X94222704Y-76720878D01*
X94222705Y-76720880D01*
X94333607Y-76877801D01*
X94338970Y-76885390D01*
X94343106Y-76889419D01*
X94457784Y-77001133D01*
X94487402Y-77029986D01*
X94492198Y-77033191D01*
X94492201Y-77033193D01*
X94545644Y-77068902D01*
X94659699Y-77145111D01*
X94665002Y-77147389D01*
X94665005Y-77147391D01*
X94844784Y-77224630D01*
X94850091Y-77226910D01*
X95052201Y-77272643D01*
X95057972Y-77272870D01*
X95057974Y-77272870D01*
X95127210Y-77275590D01*
X95259262Y-77280778D01*
X95347561Y-77267975D01*
X95458616Y-77251874D01*
X95458621Y-77251873D01*
X95464337Y-77251044D01*
X95469809Y-77249186D01*
X95469811Y-77249186D01*
X95655096Y-77186290D01*
X95655098Y-77186289D01*
X95660560Y-77184435D01*
X95815969Y-77097402D01*
X95836322Y-77086004D01*
X95836323Y-77086003D01*
X95841359Y-77083183D01*
X96000678Y-76950678D01*
X96104786Y-76825503D01*
X96129492Y-76795797D01*
X96133183Y-76791359D01*
X96152566Y-76756749D01*
X96159597Y-76744194D01*
X99124798Y-76744194D01*
X99125962Y-76753095D01*
X99125962Y-76753099D01*
X99134701Y-76819924D01*
X99142270Y-76877801D01*
X99196537Y-77001133D01*
X99202315Y-77008006D01*
X99202315Y-77008007D01*
X99260983Y-77077801D01*
X99283239Y-77104278D01*
X99395405Y-77178942D01*
X99524019Y-77219124D01*
X99658740Y-77221593D01*
X99733786Y-77201133D01*
X99780080Y-77188512D01*
X99780082Y-77188511D01*
X99788739Y-77186151D01*
X99903566Y-77115647D01*
X99913857Y-77104278D01*
X99987961Y-77022409D01*
X99987962Y-77022408D01*
X99993989Y-77015749D01*
X100001071Y-77001133D01*
X100048826Y-76902567D01*
X100048827Y-76902565D01*
X100052740Y-76894488D01*
X100075095Y-76761611D01*
X100075237Y-76750000D01*
X100065550Y-76682356D01*
X100057408Y-76625503D01*
X100057407Y-76625500D01*
X100056135Y-76616617D01*
X100044888Y-76591879D01*
X100018220Y-76533227D01*
X100000365Y-76493956D01*
X99987616Y-76479160D01*
X99918269Y-76398679D01*
X99918266Y-76398677D01*
X99912409Y-76391879D01*
X99799339Y-76318591D01*
X99783052Y-76313720D01*
X99678846Y-76282555D01*
X99678844Y-76282555D01*
X99670245Y-76279983D01*
X99661270Y-76279928D01*
X99661269Y-76279928D01*
X99602874Y-76279571D01*
X99535503Y-76279160D01*
X99526871Y-76281627D01*
X99414577Y-76313720D01*
X99414575Y-76313721D01*
X99405946Y-76316187D01*
X99398355Y-76320976D01*
X99398354Y-76320977D01*
X99379716Y-76332737D01*
X99291989Y-76388089D01*
X99286047Y-76394818D01*
X99286046Y-76394818D01*
X99247831Y-76438088D01*
X99202793Y-76489084D01*
X99198979Y-76497207D01*
X99198978Y-76497209D01*
X99153152Y-76594818D01*
X99145529Y-76611054D01*
X99144148Y-76619924D01*
X99130815Y-76705554D01*
X99124798Y-76744194D01*
X96159597Y-76744194D01*
X96172653Y-76720880D01*
X96234435Y-76610560D01*
X96237027Y-76602926D01*
X96299186Y-76419811D01*
X96299186Y-76419809D01*
X96301044Y-76414337D01*
X96301873Y-76408621D01*
X96301874Y-76408616D01*
X96330245Y-76212936D01*
X96330778Y-76209262D01*
X96332330Y-76150000D01*
X96313369Y-75943649D01*
X96306788Y-75920312D01*
X96258689Y-75749768D01*
X96258688Y-75749766D01*
X96257121Y-75744209D01*
X96250594Y-75730972D01*
X96168025Y-75563540D01*
X96165470Y-75558359D01*
X96143362Y-75528752D01*
X96044938Y-75396947D01*
X96044937Y-75396946D01*
X96041485Y-75392323D01*
X95900082Y-75261611D01*
X95893559Y-75255581D01*
X95893556Y-75255579D01*
X95889319Y-75251662D01*
X95843145Y-75222529D01*
X95718951Y-75144168D01*
X95718946Y-75144166D01*
X95714067Y-75141087D01*
X95521599Y-75064300D01*
X95318361Y-75023873D01*
X95312587Y-75023797D01*
X95312583Y-75023797D01*
X95207399Y-75022421D01*
X95111158Y-75021161D01*
X95105461Y-75022140D01*
X95105460Y-75022140D01*
X94912628Y-75055274D01*
X94912627Y-75055274D01*
X94906931Y-75056253D01*
X94712519Y-75127976D01*
X94534433Y-75233926D01*
X94378637Y-75370555D01*
X94250348Y-75533289D01*
X94247659Y-75538400D01*
X94247657Y-75538403D01*
X94210380Y-75609255D01*
X94153863Y-75716676D01*
X94092414Y-75914575D01*
X94068058Y-76120359D01*
X86696045Y-76120359D01*
X86668025Y-76063540D01*
X86665470Y-76058359D01*
X86643362Y-76028752D01*
X86544938Y-75896947D01*
X86544937Y-75896946D01*
X86541485Y-75892323D01*
X86389319Y-75751662D01*
X86274064Y-75678942D01*
X86218951Y-75644168D01*
X86218946Y-75644166D01*
X86214067Y-75641087D01*
X86021599Y-75564300D01*
X85818361Y-75523873D01*
X85812587Y-75523797D01*
X85812583Y-75523797D01*
X85706508Y-75522409D01*
X85611158Y-75521161D01*
X85605461Y-75522140D01*
X85605460Y-75522140D01*
X85412628Y-75555274D01*
X85412627Y-75555274D01*
X85406931Y-75556253D01*
X85212519Y-75627976D01*
X85207558Y-75630928D01*
X85207557Y-75630928D01*
X85063428Y-75716676D01*
X85034433Y-75733926D01*
X84878637Y-75870555D01*
X84750348Y-76033289D01*
X84653863Y-76216676D01*
X84592414Y-76414575D01*
X84568058Y-76620359D01*
X81886950Y-76620359D01*
X81868269Y-76598679D01*
X81868266Y-76598677D01*
X81862409Y-76591879D01*
X81749339Y-76518591D01*
X81733052Y-76513720D01*
X81628846Y-76482555D01*
X81628844Y-76482555D01*
X81620245Y-76479983D01*
X81611270Y-76479928D01*
X81611269Y-76479928D01*
X81552874Y-76479572D01*
X81485503Y-76479160D01*
X81476871Y-76481627D01*
X81364577Y-76513720D01*
X81364575Y-76513721D01*
X81355946Y-76516187D01*
X81348355Y-76520976D01*
X81348354Y-76520977D01*
X81344397Y-76523474D01*
X81241989Y-76588089D01*
X81152793Y-76689084D01*
X81148979Y-76697207D01*
X81148978Y-76697209D01*
X81126919Y-76744194D01*
X81095529Y-76811054D01*
X81094148Y-76819924D01*
X81078595Y-76919811D01*
X81074798Y-76944194D01*
X77006071Y-76944194D01*
X77104786Y-76825503D01*
X77129492Y-76795797D01*
X77133183Y-76791359D01*
X77152566Y-76756749D01*
X77172653Y-76720880D01*
X77234435Y-76610560D01*
X77237027Y-76602926D01*
X77299186Y-76419811D01*
X77299186Y-76419809D01*
X77301044Y-76414337D01*
X77301873Y-76408621D01*
X77301874Y-76408616D01*
X77330245Y-76212936D01*
X77330778Y-76209262D01*
X77332330Y-76150000D01*
X77313369Y-75943649D01*
X77306788Y-75920312D01*
X77258689Y-75749768D01*
X77258688Y-75749766D01*
X77257121Y-75744209D01*
X77250594Y-75730972D01*
X77168025Y-75563540D01*
X77165470Y-75558359D01*
X77143362Y-75528752D01*
X77044938Y-75396947D01*
X77044937Y-75396946D01*
X77041485Y-75392323D01*
X76900082Y-75261611D01*
X76893559Y-75255581D01*
X76893556Y-75255579D01*
X76889319Y-75251662D01*
X76877483Y-75244194D01*
X78524798Y-75244194D01*
X78525962Y-75253095D01*
X78525962Y-75253099D01*
X78540825Y-75366750D01*
X78542270Y-75377801D01*
X78596537Y-75501133D01*
X78602315Y-75508006D01*
X78602315Y-75508007D01*
X78640751Y-75553732D01*
X78683239Y-75604278D01*
X78795405Y-75678942D01*
X78924019Y-75719124D01*
X79058740Y-75721593D01*
X79112494Y-75706938D01*
X79180080Y-75688512D01*
X79180082Y-75688511D01*
X79188739Y-75686151D01*
X79265618Y-75638947D01*
X79295918Y-75620343D01*
X79295919Y-75620343D01*
X79303566Y-75615647D01*
X79351063Y-75563173D01*
X79387961Y-75522409D01*
X79387962Y-75522408D01*
X79393989Y-75515749D01*
X79401071Y-75501133D01*
X79448826Y-75402567D01*
X79448827Y-75402565D01*
X79452740Y-75394488D01*
X79475095Y-75261611D01*
X79475237Y-75250000D01*
X79460081Y-75144168D01*
X79457408Y-75125503D01*
X79457407Y-75125500D01*
X79456135Y-75116617D01*
X79400365Y-74993956D01*
X79390370Y-74982356D01*
X79318269Y-74898679D01*
X79318266Y-74898677D01*
X79312409Y-74891879D01*
X79199339Y-74818591D01*
X79183052Y-74813720D01*
X79078846Y-74782555D01*
X79078844Y-74782555D01*
X79070245Y-74779983D01*
X79061270Y-74779928D01*
X79061269Y-74779928D01*
X79002874Y-74779572D01*
X78935503Y-74779160D01*
X78926871Y-74781627D01*
X78814577Y-74813720D01*
X78814575Y-74813721D01*
X78805946Y-74816187D01*
X78691989Y-74888089D01*
X78602793Y-74989084D01*
X78598979Y-74997207D01*
X78598978Y-74997209D01*
X78566474Y-75066442D01*
X78545529Y-75111054D01*
X78541186Y-75138947D01*
X78526397Y-75233926D01*
X78524798Y-75244194D01*
X76877483Y-75244194D01*
X76843145Y-75222529D01*
X76718951Y-75144168D01*
X76718946Y-75144166D01*
X76714067Y-75141087D01*
X76521599Y-75064300D01*
X76318361Y-75023873D01*
X76312587Y-75023797D01*
X76312583Y-75023797D01*
X76207399Y-75022421D01*
X76111158Y-75021161D01*
X76105461Y-75022140D01*
X76105460Y-75022140D01*
X75912628Y-75055274D01*
X75912627Y-75055274D01*
X75906931Y-75056253D01*
X75712519Y-75127976D01*
X75534433Y-75233926D01*
X75378637Y-75370555D01*
X75250348Y-75533289D01*
X75247659Y-75538400D01*
X75247657Y-75538403D01*
X75210380Y-75609255D01*
X75153863Y-75716676D01*
X75092414Y-75914575D01*
X75068058Y-76120359D01*
X63387231Y-76120359D01*
X59791244Y-74044194D01*
X70224798Y-74044194D01*
X70225962Y-74053095D01*
X70225962Y-74053099D01*
X70241106Y-74168902D01*
X70242270Y-74177801D01*
X70296537Y-74301133D01*
X70383239Y-74404278D01*
X70495405Y-74478942D01*
X70624019Y-74519124D01*
X70758740Y-74521593D01*
X70812494Y-74506938D01*
X70880080Y-74488512D01*
X70880082Y-74488511D01*
X70888739Y-74486151D01*
X71003566Y-74415647D01*
X71093989Y-74315749D01*
X71101071Y-74301133D01*
X71148826Y-74202567D01*
X71148827Y-74202565D01*
X71152740Y-74194488D01*
X71175095Y-74061611D01*
X71175237Y-74050000D01*
X71156135Y-73916617D01*
X71100365Y-73793956D01*
X71090370Y-73782356D01*
X71018269Y-73698679D01*
X71018266Y-73698677D01*
X71012409Y-73691879D01*
X70899339Y-73618591D01*
X70883052Y-73613720D01*
X70778846Y-73582555D01*
X70778844Y-73582555D01*
X70770245Y-73579983D01*
X70761270Y-73579928D01*
X70761269Y-73579928D01*
X70702874Y-73579572D01*
X70635503Y-73579160D01*
X70626871Y-73581627D01*
X70514577Y-73613720D01*
X70514575Y-73613721D01*
X70505946Y-73616187D01*
X70391989Y-73688089D01*
X70302793Y-73789084D01*
X70245529Y-73911054D01*
X70224798Y-74044194D01*
X59791244Y-74044194D01*
X58177739Y-73112627D01*
X58128745Y-73061244D01*
X58114739Y-73003508D01*
X58114739Y-72694194D01*
X85774798Y-72694194D01*
X85775962Y-72703095D01*
X85775962Y-72703099D01*
X85791106Y-72818902D01*
X85792270Y-72827801D01*
X85846537Y-72951133D01*
X85852315Y-72958006D01*
X85852315Y-72958007D01*
X85927459Y-73047402D01*
X85933239Y-73054278D01*
X86045405Y-73128942D01*
X86174019Y-73169124D01*
X86308740Y-73171593D01*
X86362494Y-73156938D01*
X86430080Y-73138512D01*
X86430082Y-73138511D01*
X86438739Y-73136151D01*
X86536291Y-73076254D01*
X86545918Y-73070343D01*
X86545919Y-73070343D01*
X86553566Y-73065647D01*
X86570081Y-73047402D01*
X86637961Y-72972409D01*
X86637962Y-72972408D01*
X86643989Y-72965749D01*
X86651071Y-72951133D01*
X86698826Y-72852567D01*
X86698827Y-72852565D01*
X86702740Y-72844488D01*
X86725095Y-72711611D01*
X86725237Y-72700000D01*
X86724406Y-72694194D01*
X92674798Y-72694194D01*
X92675962Y-72703095D01*
X92675962Y-72703099D01*
X92691106Y-72818902D01*
X92692270Y-72827801D01*
X92746537Y-72951133D01*
X92752315Y-72958006D01*
X92752315Y-72958007D01*
X92827459Y-73047402D01*
X92833239Y-73054278D01*
X92945405Y-73128942D01*
X93074019Y-73169124D01*
X93208740Y-73171593D01*
X93262494Y-73156938D01*
X93330080Y-73138512D01*
X93330082Y-73138511D01*
X93338739Y-73136151D01*
X93436291Y-73076254D01*
X93445918Y-73070343D01*
X93445919Y-73070343D01*
X93453566Y-73065647D01*
X93470081Y-73047402D01*
X93537961Y-72972409D01*
X93537962Y-72972408D01*
X93543989Y-72965749D01*
X93551071Y-72951133D01*
X93598826Y-72852567D01*
X93598827Y-72852565D01*
X93602740Y-72844488D01*
X93625095Y-72711611D01*
X93625237Y-72700000D01*
X93606135Y-72566617D01*
X93550365Y-72443956D01*
X93540370Y-72432356D01*
X93468269Y-72348679D01*
X93468266Y-72348677D01*
X93462409Y-72341879D01*
X93405874Y-72305235D01*
X93356873Y-72273474D01*
X93356872Y-72273473D01*
X93349339Y-72268591D01*
X93333052Y-72263720D01*
X93228846Y-72232555D01*
X93228844Y-72232555D01*
X93220245Y-72229983D01*
X93211270Y-72229928D01*
X93211269Y-72229928D01*
X93152874Y-72229571D01*
X93085503Y-72229160D01*
X93076871Y-72231627D01*
X92964577Y-72263720D01*
X92964575Y-72263721D01*
X92955946Y-72266187D01*
X92948355Y-72270976D01*
X92948354Y-72270977D01*
X92849582Y-72333298D01*
X92841989Y-72338089D01*
X92752793Y-72439084D01*
X92695529Y-72561054D01*
X92674798Y-72694194D01*
X86724406Y-72694194D01*
X86706135Y-72566617D01*
X86650365Y-72443956D01*
X86640370Y-72432356D01*
X86568269Y-72348679D01*
X86568266Y-72348677D01*
X86562409Y-72341879D01*
X86505874Y-72305235D01*
X86456873Y-72273474D01*
X86456872Y-72273473D01*
X86449339Y-72268591D01*
X86433052Y-72263720D01*
X86328846Y-72232555D01*
X86328844Y-72232555D01*
X86320245Y-72229983D01*
X86311270Y-72229928D01*
X86311269Y-72229928D01*
X86252874Y-72229571D01*
X86185503Y-72229160D01*
X86176871Y-72231627D01*
X86064577Y-72263720D01*
X86064575Y-72263721D01*
X86055946Y-72266187D01*
X86048355Y-72270976D01*
X86048354Y-72270977D01*
X85949582Y-72333298D01*
X85941989Y-72338089D01*
X85852793Y-72439084D01*
X85795529Y-72561054D01*
X85774798Y-72694194D01*
X58114739Y-72694194D01*
X58114739Y-70620359D01*
X65568058Y-70620359D01*
X65581611Y-70827135D01*
X65632619Y-71027980D01*
X65719373Y-71216165D01*
X65722704Y-71220878D01*
X65722705Y-71220880D01*
X65815773Y-71352567D01*
X65838970Y-71385390D01*
X65843106Y-71389419D01*
X65928298Y-71472409D01*
X65987402Y-71529986D01*
X65992198Y-71533191D01*
X65992201Y-71533193D01*
X66061493Y-71579492D01*
X66159699Y-71645111D01*
X66165002Y-71647389D01*
X66165005Y-71647391D01*
X66312871Y-71710919D01*
X66350091Y-71726910D01*
X66552201Y-71772643D01*
X66557972Y-71772870D01*
X66557974Y-71772870D01*
X66627210Y-71775590D01*
X66759262Y-71780778D01*
X66847561Y-71767975D01*
X66958616Y-71751874D01*
X66958621Y-71751873D01*
X66964337Y-71751044D01*
X66969809Y-71749186D01*
X66969811Y-71749186D01*
X67155096Y-71686290D01*
X67155098Y-71686289D01*
X67160560Y-71684435D01*
X67341359Y-71583183D01*
X67500678Y-71450678D01*
X67603428Y-71327135D01*
X67629492Y-71295797D01*
X67633183Y-71291359D01*
X67728947Y-71120359D01*
X75068058Y-71120359D01*
X75081611Y-71327135D01*
X75132619Y-71527980D01*
X75219373Y-71716165D01*
X75222704Y-71720878D01*
X75222705Y-71720880D01*
X75275652Y-71795797D01*
X75338970Y-71885390D01*
X75487402Y-72029986D01*
X75492198Y-72033191D01*
X75492201Y-72033193D01*
X75561493Y-72079492D01*
X75659699Y-72145111D01*
X75665002Y-72147389D01*
X75665005Y-72147391D01*
X75844784Y-72224630D01*
X75850091Y-72226910D01*
X76052201Y-72272643D01*
X76057972Y-72272870D01*
X76057974Y-72272870D01*
X76127210Y-72275590D01*
X76259262Y-72280778D01*
X76361055Y-72266019D01*
X76458616Y-72251874D01*
X76458621Y-72251873D01*
X76464337Y-72251044D01*
X76469809Y-72249186D01*
X76469811Y-72249186D01*
X76655096Y-72186290D01*
X76655098Y-72186289D01*
X76660560Y-72184435D01*
X76841359Y-72083183D01*
X77000678Y-71950678D01*
X77133183Y-71791359D01*
X77143665Y-71772643D01*
X77172653Y-71720880D01*
X77234435Y-71610560D01*
X77255875Y-71547402D01*
X77299186Y-71419811D01*
X77299186Y-71419809D01*
X77301044Y-71414337D01*
X77301873Y-71408621D01*
X77301874Y-71408616D01*
X77330245Y-71212936D01*
X77330778Y-71209262D01*
X77332330Y-71150000D01*
X77320603Y-71022380D01*
X77313898Y-70949403D01*
X77313897Y-70949400D01*
X77313369Y-70943649D01*
X77311538Y-70937154D01*
X77258689Y-70749768D01*
X77258688Y-70749766D01*
X77257121Y-70744209D01*
X77250917Y-70731627D01*
X77196045Y-70620359D01*
X84568058Y-70620359D01*
X84581611Y-70827135D01*
X84632619Y-71027980D01*
X84719373Y-71216165D01*
X84722704Y-71220878D01*
X84722705Y-71220880D01*
X84815773Y-71352567D01*
X84838970Y-71385390D01*
X84843106Y-71389419D01*
X84928298Y-71472409D01*
X84987402Y-71529986D01*
X84992198Y-71533191D01*
X84992201Y-71533193D01*
X85061493Y-71579492D01*
X85159699Y-71645111D01*
X85165002Y-71647389D01*
X85165005Y-71647391D01*
X85312871Y-71710919D01*
X85350091Y-71726910D01*
X85552201Y-71772643D01*
X85557972Y-71772870D01*
X85557974Y-71772870D01*
X85627210Y-71775590D01*
X85759262Y-71780778D01*
X85847561Y-71767975D01*
X85958616Y-71751874D01*
X85958621Y-71751873D01*
X85964337Y-71751044D01*
X85969809Y-71749186D01*
X85969811Y-71749186D01*
X86155096Y-71686290D01*
X86155098Y-71686289D01*
X86160560Y-71684435D01*
X86341359Y-71583183D01*
X86500678Y-71450678D01*
X86603428Y-71327135D01*
X86629492Y-71295797D01*
X86633183Y-71291359D01*
X86687598Y-71194194D01*
X89524798Y-71194194D01*
X89525962Y-71203095D01*
X89525962Y-71203099D01*
X89541106Y-71318902D01*
X89542270Y-71327801D01*
X89596537Y-71451133D01*
X89602315Y-71458006D01*
X89602315Y-71458007D01*
X89665515Y-71533193D01*
X89683239Y-71554278D01*
X89795405Y-71628942D01*
X89924019Y-71669124D01*
X90058740Y-71671593D01*
X90112494Y-71656938D01*
X90180080Y-71638512D01*
X90180082Y-71638511D01*
X90188739Y-71636151D01*
X90303566Y-71565647D01*
X90335845Y-71529986D01*
X90387961Y-71472409D01*
X90387962Y-71472408D01*
X90393989Y-71465749D01*
X90401071Y-71451133D01*
X90448826Y-71352567D01*
X90448827Y-71352565D01*
X90452740Y-71344488D01*
X90475095Y-71211611D01*
X90475237Y-71200000D01*
X90464657Y-71126125D01*
X90463831Y-71120359D01*
X94068058Y-71120359D01*
X94081611Y-71327135D01*
X94132619Y-71527980D01*
X94219373Y-71716165D01*
X94222704Y-71720878D01*
X94222705Y-71720880D01*
X94275652Y-71795797D01*
X94338970Y-71885390D01*
X94487402Y-72029986D01*
X94492198Y-72033191D01*
X94492201Y-72033193D01*
X94561493Y-72079492D01*
X94659699Y-72145111D01*
X94665002Y-72147389D01*
X94665005Y-72147391D01*
X94844784Y-72224630D01*
X94850091Y-72226910D01*
X95052201Y-72272643D01*
X95057972Y-72272870D01*
X95057974Y-72272870D01*
X95127210Y-72275590D01*
X95259262Y-72280778D01*
X95361055Y-72266019D01*
X95458616Y-72251874D01*
X95458621Y-72251873D01*
X95464337Y-72251044D01*
X95469809Y-72249186D01*
X95469811Y-72249186D01*
X95655096Y-72186290D01*
X95655098Y-72186289D01*
X95660560Y-72184435D01*
X95841359Y-72083183D01*
X96000678Y-71950678D01*
X96133183Y-71791359D01*
X96143665Y-71772643D01*
X96172653Y-71720880D01*
X96234435Y-71610560D01*
X96255875Y-71547402D01*
X96299186Y-71419811D01*
X96299186Y-71419809D01*
X96301044Y-71414337D01*
X96301873Y-71408621D01*
X96301874Y-71408616D01*
X96330245Y-71212936D01*
X96330778Y-71209262D01*
X96332330Y-71150000D01*
X96320603Y-71022380D01*
X96313898Y-70949403D01*
X96313897Y-70949400D01*
X96313369Y-70943649D01*
X96311538Y-70937154D01*
X96258689Y-70749768D01*
X96258688Y-70749766D01*
X96257121Y-70744209D01*
X96250917Y-70731627D01*
X96168025Y-70563540D01*
X96165470Y-70558359D01*
X96143362Y-70528752D01*
X96044938Y-70396947D01*
X96044937Y-70396946D01*
X96042882Y-70394194D01*
X101124798Y-70394194D01*
X101125962Y-70403095D01*
X101125962Y-70403099D01*
X101138970Y-70502567D01*
X101142270Y-70527801D01*
X101196537Y-70651133D01*
X101202315Y-70658006D01*
X101202315Y-70658007D01*
X101250766Y-70715647D01*
X101283239Y-70754278D01*
X101300877Y-70766019D01*
X101380656Y-70819124D01*
X101395405Y-70828942D01*
X101524019Y-70869124D01*
X101658740Y-70871593D01*
X101712494Y-70856938D01*
X101780080Y-70838512D01*
X101780082Y-70838511D01*
X101788739Y-70836151D01*
X101890016Y-70773967D01*
X101895918Y-70770343D01*
X101895919Y-70770343D01*
X101903566Y-70765647D01*
X101922971Y-70744209D01*
X101987961Y-70672409D01*
X101987962Y-70672408D01*
X101993989Y-70665749D01*
X102001071Y-70651133D01*
X102015981Y-70620359D01*
X103568058Y-70620359D01*
X103581611Y-70827135D01*
X103632619Y-71027980D01*
X103719373Y-71216165D01*
X103722704Y-71220878D01*
X103722705Y-71220880D01*
X103815773Y-71352567D01*
X103838970Y-71385390D01*
X103843106Y-71389419D01*
X103928298Y-71472409D01*
X103987402Y-71529986D01*
X103992198Y-71533191D01*
X103992201Y-71533193D01*
X104061493Y-71579492D01*
X104159699Y-71645111D01*
X104165002Y-71647389D01*
X104165005Y-71647391D01*
X104312871Y-71710919D01*
X104350091Y-71726910D01*
X104552201Y-71772643D01*
X104557972Y-71772870D01*
X104557974Y-71772870D01*
X104627210Y-71775590D01*
X104759262Y-71780778D01*
X104847561Y-71767975D01*
X104958616Y-71751874D01*
X104958621Y-71751873D01*
X104964337Y-71751044D01*
X104969809Y-71749186D01*
X104969811Y-71749186D01*
X105155096Y-71686290D01*
X105155098Y-71686289D01*
X105160560Y-71684435D01*
X105341359Y-71583183D01*
X105500678Y-71450678D01*
X105603428Y-71327135D01*
X105629492Y-71295797D01*
X105633183Y-71291359D01*
X105734435Y-71110560D01*
X105746336Y-71075503D01*
X105799186Y-70919811D01*
X105799186Y-70919809D01*
X105801044Y-70914337D01*
X105801873Y-70908621D01*
X105801874Y-70908616D01*
X105823529Y-70759255D01*
X105830778Y-70709262D01*
X105832330Y-70650000D01*
X105818783Y-70502567D01*
X105813898Y-70449403D01*
X105813897Y-70449400D01*
X105813369Y-70443649D01*
X105806788Y-70420312D01*
X105758689Y-70249768D01*
X105758688Y-70249766D01*
X105757121Y-70244209D01*
X105750594Y-70230972D01*
X105668025Y-70063540D01*
X105665470Y-70058359D01*
X105655359Y-70044818D01*
X105544938Y-69896947D01*
X105544937Y-69896946D01*
X105541485Y-69892323D01*
X105389319Y-69751662D01*
X105343145Y-69722529D01*
X105218951Y-69644168D01*
X105218946Y-69644166D01*
X105214067Y-69641087D01*
X105021599Y-69564300D01*
X104818361Y-69523873D01*
X104812587Y-69523797D01*
X104812583Y-69523797D01*
X104707399Y-69522421D01*
X104611158Y-69521161D01*
X104605461Y-69522140D01*
X104605460Y-69522140D01*
X104412628Y-69555274D01*
X104412627Y-69555274D01*
X104406931Y-69556253D01*
X104212519Y-69627976D01*
X104034433Y-69733926D01*
X103878637Y-69870555D01*
X103750348Y-70033289D01*
X103747659Y-70038400D01*
X103747657Y-70038403D01*
X103744282Y-70044818D01*
X103653863Y-70216676D01*
X103592414Y-70414575D01*
X103568058Y-70620359D01*
X102015981Y-70620359D01*
X102048826Y-70552567D01*
X102048827Y-70552565D01*
X102052740Y-70544488D01*
X102075095Y-70411611D01*
X102075237Y-70400000D01*
X102056135Y-70266617D01*
X102049336Y-70251662D01*
X102004081Y-70152130D01*
X102000365Y-70143956D01*
X101947287Y-70082356D01*
X101918269Y-70048679D01*
X101918266Y-70048677D01*
X101912409Y-70041879D01*
X101845759Y-69998679D01*
X101806873Y-69973474D01*
X101806872Y-69973473D01*
X101799339Y-69968591D01*
X101783052Y-69963720D01*
X101678846Y-69932555D01*
X101678844Y-69932555D01*
X101670245Y-69929983D01*
X101661270Y-69929928D01*
X101661269Y-69929928D01*
X101602874Y-69929571D01*
X101535503Y-69929160D01*
X101526871Y-69931627D01*
X101414577Y-69963720D01*
X101414575Y-69963721D01*
X101405946Y-69966187D01*
X101398355Y-69970976D01*
X101398354Y-69970977D01*
X101306787Y-70028752D01*
X101291989Y-70038089D01*
X101286047Y-70044818D01*
X101286046Y-70044818D01*
X101269511Y-70063540D01*
X101202793Y-70139084D01*
X101198979Y-70147207D01*
X101198978Y-70147209D01*
X101153438Y-70244209D01*
X101145529Y-70261054D01*
X101144148Y-70269924D01*
X101128479Y-70370555D01*
X101124798Y-70394194D01*
X96042882Y-70394194D01*
X96041485Y-70392323D01*
X95909075Y-70269924D01*
X95893559Y-70255581D01*
X95893556Y-70255579D01*
X95889319Y-70251662D01*
X95824959Y-70211054D01*
X95718951Y-70144168D01*
X95718946Y-70144166D01*
X95714067Y-70141087D01*
X95521599Y-70064300D01*
X95318361Y-70023873D01*
X95312587Y-70023797D01*
X95312583Y-70023797D01*
X95207399Y-70022421D01*
X95111158Y-70021161D01*
X95105461Y-70022140D01*
X95105460Y-70022140D01*
X94912628Y-70055274D01*
X94912627Y-70055274D01*
X94906931Y-70056253D01*
X94712519Y-70127976D01*
X94707558Y-70130928D01*
X94707557Y-70130928D01*
X94563428Y-70216676D01*
X94534433Y-70233926D01*
X94378637Y-70370555D01*
X94250348Y-70533289D01*
X94247659Y-70538400D01*
X94247657Y-70538403D01*
X94204538Y-70620359D01*
X94153863Y-70716676D01*
X94092414Y-70914575D01*
X94068058Y-71120359D01*
X90463831Y-71120359D01*
X90457408Y-71075503D01*
X90457407Y-71075500D01*
X90456135Y-71066617D01*
X90400365Y-70943956D01*
X90379560Y-70919811D01*
X90318269Y-70848679D01*
X90318266Y-70848677D01*
X90312409Y-70841879D01*
X90255874Y-70805235D01*
X90206873Y-70773474D01*
X90206872Y-70773473D01*
X90199339Y-70768591D01*
X90167243Y-70758992D01*
X90078846Y-70732555D01*
X90078844Y-70732555D01*
X90070245Y-70729983D01*
X90061270Y-70729928D01*
X90061269Y-70729928D01*
X90002874Y-70729571D01*
X89935503Y-70729160D01*
X89926871Y-70731627D01*
X89814577Y-70763720D01*
X89814575Y-70763721D01*
X89805946Y-70766187D01*
X89798355Y-70770976D01*
X89798354Y-70770977D01*
X89718395Y-70821428D01*
X89691989Y-70838089D01*
X89602793Y-70939084D01*
X89598979Y-70947207D01*
X89598978Y-70947209D01*
X89549345Y-71052926D01*
X89545529Y-71061054D01*
X89544148Y-71069924D01*
X89531103Y-71153704D01*
X89524798Y-71194194D01*
X86687598Y-71194194D01*
X86734435Y-71110560D01*
X86746336Y-71075503D01*
X86799186Y-70919811D01*
X86799186Y-70919809D01*
X86801044Y-70914337D01*
X86801873Y-70908621D01*
X86801874Y-70908616D01*
X86823529Y-70759255D01*
X86830778Y-70709262D01*
X86832330Y-70650000D01*
X86818783Y-70502567D01*
X86813898Y-70449403D01*
X86813897Y-70449400D01*
X86813369Y-70443649D01*
X86806788Y-70420312D01*
X86758689Y-70249768D01*
X86758688Y-70249766D01*
X86757121Y-70244209D01*
X86750594Y-70230972D01*
X86668025Y-70063540D01*
X86665470Y-70058359D01*
X86655359Y-70044818D01*
X86544938Y-69896947D01*
X86544937Y-69896946D01*
X86541485Y-69892323D01*
X86389319Y-69751662D01*
X86343145Y-69722529D01*
X86218951Y-69644168D01*
X86218946Y-69644166D01*
X86214067Y-69641087D01*
X86021599Y-69564300D01*
X85818361Y-69523873D01*
X85812587Y-69523797D01*
X85812583Y-69523797D01*
X85707399Y-69522421D01*
X85611158Y-69521161D01*
X85605461Y-69522140D01*
X85605460Y-69522140D01*
X85412628Y-69555274D01*
X85412627Y-69555274D01*
X85406931Y-69556253D01*
X85212519Y-69627976D01*
X85034433Y-69733926D01*
X84878637Y-69870555D01*
X84750348Y-70033289D01*
X84747659Y-70038400D01*
X84747657Y-70038403D01*
X84744282Y-70044818D01*
X84653863Y-70216676D01*
X84592414Y-70414575D01*
X84568058Y-70620359D01*
X77196045Y-70620359D01*
X77168025Y-70563540D01*
X77165470Y-70558359D01*
X77143362Y-70528752D01*
X77044938Y-70396947D01*
X77044937Y-70396946D01*
X77041485Y-70392323D01*
X76909075Y-70269924D01*
X76893559Y-70255581D01*
X76893556Y-70255579D01*
X76889319Y-70251662D01*
X76824959Y-70211054D01*
X76718951Y-70144168D01*
X76718946Y-70144166D01*
X76714067Y-70141087D01*
X76521599Y-70064300D01*
X76318361Y-70023873D01*
X76312587Y-70023797D01*
X76312583Y-70023797D01*
X76207399Y-70022421D01*
X76111158Y-70021161D01*
X76105461Y-70022140D01*
X76105460Y-70022140D01*
X75912628Y-70055274D01*
X75912627Y-70055274D01*
X75906931Y-70056253D01*
X75712519Y-70127976D01*
X75707558Y-70130928D01*
X75707557Y-70130928D01*
X75563428Y-70216676D01*
X75534433Y-70233926D01*
X75378637Y-70370555D01*
X75250348Y-70533289D01*
X75247659Y-70538400D01*
X75247657Y-70538403D01*
X75204538Y-70620359D01*
X75153863Y-70716676D01*
X75092414Y-70914575D01*
X75068058Y-71120359D01*
X67728947Y-71120359D01*
X67734435Y-71110560D01*
X67746336Y-71075503D01*
X67799186Y-70919811D01*
X67799186Y-70919809D01*
X67801044Y-70914337D01*
X67801873Y-70908621D01*
X67801874Y-70908616D01*
X67823529Y-70759255D01*
X67830778Y-70709262D01*
X67832330Y-70650000D01*
X67818783Y-70502567D01*
X67813898Y-70449403D01*
X67813897Y-70449400D01*
X67813369Y-70443649D01*
X67806788Y-70420312D01*
X67785320Y-70344194D01*
X70224798Y-70344194D01*
X70225962Y-70353095D01*
X70225962Y-70353099D01*
X70237804Y-70443649D01*
X70242270Y-70477801D01*
X70296537Y-70601133D01*
X70302315Y-70608006D01*
X70302315Y-70608007D01*
X70334508Y-70646305D01*
X70383239Y-70704278D01*
X70401864Y-70716676D01*
X70487191Y-70773474D01*
X70495405Y-70778942D01*
X70624019Y-70819124D01*
X70758740Y-70821593D01*
X70812494Y-70806938D01*
X70880080Y-70788512D01*
X70880082Y-70788511D01*
X70888739Y-70786151D01*
X71003566Y-70715647D01*
X71042703Y-70672409D01*
X71087961Y-70622409D01*
X71087962Y-70622408D01*
X71093989Y-70615749D01*
X71101071Y-70601133D01*
X71148826Y-70502567D01*
X71148827Y-70502565D01*
X71152740Y-70494488D01*
X71175095Y-70361611D01*
X71175237Y-70350000D01*
X71160883Y-70249768D01*
X71157408Y-70225503D01*
X71157407Y-70225500D01*
X71156135Y-70216617D01*
X71100365Y-70093956D01*
X71074157Y-70063540D01*
X71018269Y-69998679D01*
X71018266Y-69998677D01*
X71012409Y-69991879D01*
X70899339Y-69918591D01*
X70826968Y-69896947D01*
X70778846Y-69882555D01*
X70778844Y-69882555D01*
X70770245Y-69879983D01*
X70761270Y-69879928D01*
X70761269Y-69879928D01*
X70702874Y-69879572D01*
X70635503Y-69879160D01*
X70626871Y-69881627D01*
X70514577Y-69913720D01*
X70514575Y-69913721D01*
X70505946Y-69916187D01*
X70498355Y-69920976D01*
X70498354Y-69920977D01*
X70415152Y-69973474D01*
X70391989Y-69988089D01*
X70386047Y-69994818D01*
X70386046Y-69994818D01*
X70338478Y-70048679D01*
X70302793Y-70089084D01*
X70298979Y-70097207D01*
X70298978Y-70097209D01*
X70279318Y-70139084D01*
X70245529Y-70211054D01*
X70224798Y-70344194D01*
X67785320Y-70344194D01*
X67758689Y-70249768D01*
X67758688Y-70249766D01*
X67757121Y-70244209D01*
X67750594Y-70230972D01*
X67668025Y-70063540D01*
X67665470Y-70058359D01*
X67655359Y-70044818D01*
X67544938Y-69896947D01*
X67544937Y-69896946D01*
X67541485Y-69892323D01*
X67389319Y-69751662D01*
X67343145Y-69722529D01*
X67218951Y-69644168D01*
X67218946Y-69644166D01*
X67214067Y-69641087D01*
X67021599Y-69564300D01*
X66818361Y-69523873D01*
X66812587Y-69523797D01*
X66812583Y-69523797D01*
X66707399Y-69522421D01*
X66611158Y-69521161D01*
X66605461Y-69522140D01*
X66605460Y-69522140D01*
X66412628Y-69555274D01*
X66412627Y-69555274D01*
X66406931Y-69556253D01*
X66212519Y-69627976D01*
X66034433Y-69733926D01*
X65878637Y-69870555D01*
X65750348Y-70033289D01*
X65747659Y-70038400D01*
X65747657Y-70038403D01*
X65744282Y-70044818D01*
X65653863Y-70216676D01*
X65592414Y-70414575D01*
X65568058Y-70620359D01*
X58114739Y-70620359D01*
X58114739Y-68694194D01*
X74774798Y-68694194D01*
X74775962Y-68703095D01*
X74775962Y-68703099D01*
X74791106Y-68818902D01*
X74792270Y-68827801D01*
X74846537Y-68951133D01*
X74852315Y-68958006D01*
X74852315Y-68958007D01*
X74927459Y-69047402D01*
X74933239Y-69054278D01*
X75045405Y-69128942D01*
X75174019Y-69169124D01*
X75308740Y-69171593D01*
X75362494Y-69156938D01*
X75430080Y-69138512D01*
X75430082Y-69138511D01*
X75438739Y-69136151D01*
X75528923Y-69080778D01*
X75545918Y-69070343D01*
X75545919Y-69070343D01*
X75553566Y-69065647D01*
X75590693Y-69024630D01*
X75637961Y-68972409D01*
X75637962Y-68972408D01*
X75643989Y-68965749D01*
X75651071Y-68951133D01*
X75698826Y-68852567D01*
X75698827Y-68852565D01*
X75702740Y-68844488D01*
X75725095Y-68711611D01*
X75725237Y-68700000D01*
X75710314Y-68595797D01*
X75707408Y-68575503D01*
X75707407Y-68575500D01*
X75706135Y-68566617D01*
X75650365Y-68443956D01*
X75616881Y-68405096D01*
X75568269Y-68348679D01*
X75568266Y-68348677D01*
X75562409Y-68341879D01*
X75449339Y-68268591D01*
X75433052Y-68263720D01*
X75328846Y-68232555D01*
X75328844Y-68232555D01*
X75320245Y-68229983D01*
X75311270Y-68229928D01*
X75311269Y-68229928D01*
X75252874Y-68229572D01*
X75185503Y-68229160D01*
X75176871Y-68231627D01*
X75064577Y-68263720D01*
X75064575Y-68263721D01*
X75055946Y-68266187D01*
X75048355Y-68270976D01*
X75048354Y-68270977D01*
X74949695Y-68333227D01*
X74941989Y-68338089D01*
X74852793Y-68439084D01*
X74795529Y-68561054D01*
X74794148Y-68569924D01*
X74776903Y-68680676D01*
X74774798Y-68694194D01*
X58114739Y-68694194D01*
X58114739Y-67920359D01*
X88068058Y-67920359D01*
X88081611Y-68127135D01*
X88132619Y-68327980D01*
X88219373Y-68516165D01*
X88222704Y-68520878D01*
X88222705Y-68520880D01*
X88275652Y-68595797D01*
X88338970Y-68685390D01*
X88487402Y-68829986D01*
X88492198Y-68833191D01*
X88492201Y-68833193D01*
X88561493Y-68879492D01*
X88659699Y-68945111D01*
X88665002Y-68947389D01*
X88665005Y-68947391D01*
X88844784Y-69024630D01*
X88850091Y-69026910D01*
X88993035Y-69059255D01*
X89042037Y-69070343D01*
X89052201Y-69072643D01*
X89057972Y-69072870D01*
X89057974Y-69072870D01*
X89127210Y-69075590D01*
X89259262Y-69080778D01*
X89347561Y-69067975D01*
X89458616Y-69051874D01*
X89458621Y-69051873D01*
X89464337Y-69051044D01*
X89469809Y-69049186D01*
X89469811Y-69049186D01*
X89655096Y-68986290D01*
X89655098Y-68986289D01*
X89660560Y-68984435D01*
X89841359Y-68883183D01*
X90000678Y-68750678D01*
X90133183Y-68591359D01*
X90234435Y-68410560D01*
X90256752Y-68344818D01*
X90299186Y-68219811D01*
X90299186Y-68219809D01*
X90301044Y-68214337D01*
X90301873Y-68208621D01*
X90301874Y-68208616D01*
X90330245Y-68012936D01*
X90330778Y-68009262D01*
X90332330Y-67950000D01*
X90313369Y-67743649D01*
X90306788Y-67720312D01*
X90258689Y-67549768D01*
X90258688Y-67549766D01*
X90257121Y-67544209D01*
X90246265Y-67522194D01*
X90168025Y-67363540D01*
X90165470Y-67358359D01*
X90143362Y-67328752D01*
X90044938Y-67196947D01*
X90044937Y-67196946D01*
X90041485Y-67192323D01*
X89889319Y-67051662D01*
X89843145Y-67022529D01*
X89718951Y-66944168D01*
X89718946Y-66944166D01*
X89714067Y-66941087D01*
X89521599Y-66864300D01*
X89318361Y-66823873D01*
X89312587Y-66823797D01*
X89312583Y-66823797D01*
X89207399Y-66822421D01*
X89111158Y-66821161D01*
X89105461Y-66822140D01*
X89105460Y-66822140D01*
X88912628Y-66855274D01*
X88912627Y-66855274D01*
X88906931Y-66856253D01*
X88712519Y-66927976D01*
X88534433Y-67033926D01*
X88378637Y-67170555D01*
X88250348Y-67333289D01*
X88153863Y-67516676D01*
X88092414Y-67714575D01*
X88068058Y-67920359D01*
X58114739Y-67920359D01*
X58114739Y-66775864D01*
X58134741Y-66707743D01*
X58188397Y-66661250D01*
X58240739Y-66649864D01*
X65688901Y-66649864D01*
X65701774Y-66648336D01*
X65716212Y-66646623D01*
X65716214Y-66646623D01*
X65719910Y-66646184D01*
X65723526Y-66645313D01*
X65723529Y-66645313D01*
X65757539Y-66637126D01*
X65777247Y-66632382D01*
X65784476Y-66628460D01*
X65784478Y-66628459D01*
X65830102Y-66603705D01*
X65830104Y-66603704D01*
X65837330Y-66599783D01*
X65843299Y-66594132D01*
X65843306Y-66594127D01*
X65869627Y-66569209D01*
X65932848Y-66536902D01*
X66003498Y-66543904D01*
X66026252Y-66555945D01*
X66061493Y-66579492D01*
X66159699Y-66645111D01*
X66165002Y-66647389D01*
X66165005Y-66647391D01*
X66344784Y-66724630D01*
X66350091Y-66726910D01*
X66552201Y-66772643D01*
X66557972Y-66772870D01*
X66557974Y-66772870D01*
X66627210Y-66775590D01*
X66759262Y-66780778D01*
X66847561Y-66767975D01*
X66958616Y-66751874D01*
X66958621Y-66751873D01*
X66964337Y-66751044D01*
X66969809Y-66749186D01*
X66969811Y-66749186D01*
X67155096Y-66686290D01*
X67155098Y-66686289D01*
X67160560Y-66684435D01*
X67311714Y-66599785D01*
X67336322Y-66586004D01*
X67336323Y-66586003D01*
X67341359Y-66583183D01*
X67345793Y-66579495D01*
X67345805Y-66579487D01*
X67364665Y-66563800D01*
X67429828Y-66535618D01*
X67499884Y-66547140D01*
X67532411Y-66572006D01*
X67532921Y-66571417D01*
X67539732Y-66577319D01*
X67545635Y-66584131D01*
X67608443Y-66624495D01*
X67617092Y-66627035D01*
X67617093Y-66627035D01*
X67672241Y-66643228D01*
X67672245Y-66643229D01*
X67676564Y-66644497D01*
X67681013Y-66645137D01*
X67681019Y-66645138D01*
X67709445Y-66649225D01*
X67709452Y-66649226D01*
X67713893Y-66649864D01*
X71954581Y-66649864D01*
X71972528Y-66648643D01*
X72006344Y-66644020D01*
X72012585Y-66641766D01*
X72012589Y-66641765D01*
X72052227Y-66627449D01*
X72052228Y-66627449D01*
X72058476Y-66625192D01*
X72118730Y-66587642D01*
X72124727Y-66580912D01*
X72129066Y-66577257D01*
X72194050Y-66548664D01*
X72264177Y-66559744D01*
X72280063Y-66568730D01*
X72287930Y-66573967D01*
X72287934Y-66573969D01*
X72295405Y-66578942D01*
X72424019Y-66619124D01*
X72558740Y-66621593D01*
X72634428Y-66600958D01*
X72680080Y-66588512D01*
X72680082Y-66588511D01*
X72688739Y-66586151D01*
X72696386Y-66581456D01*
X72696390Y-66581454D01*
X72723087Y-66565062D01*
X72791604Y-66546464D01*
X72859299Y-66567861D01*
X72871527Y-66577212D01*
X72871655Y-66577323D01*
X72877555Y-66584132D01*
X72899766Y-66598406D01*
X72932170Y-66619231D01*
X72940362Y-66624496D01*
X73008481Y-66644498D01*
X73012925Y-66645137D01*
X73012930Y-66645138D01*
X73041363Y-66649226D01*
X73041370Y-66649226D01*
X73045811Y-66649865D01*
X76005972Y-66649865D01*
X76008501Y-66649825D01*
X76009671Y-66649807D01*
X76009700Y-66649806D01*
X76010164Y-66649799D01*
X76018093Y-66649548D01*
X76022997Y-66648604D01*
X76022998Y-66648604D01*
X76054264Y-66642586D01*
X76054265Y-66642586D01*
X76059168Y-66641642D01*
X76125893Y-66617387D01*
X76132142Y-66612790D01*
X76201020Y-66598406D01*
X76253339Y-66616062D01*
X76253422Y-66615880D01*
X76255185Y-66616685D01*
X76259102Y-66618007D01*
X76261613Y-66619621D01*
X76261620Y-66619624D01*
X76269201Y-66624496D01*
X76277848Y-66627035D01*
X76328477Y-66641901D01*
X76337321Y-66644498D01*
X76341765Y-66645137D01*
X76341770Y-66645138D01*
X76370203Y-66649226D01*
X76370210Y-66649226D01*
X76374651Y-66649865D01*
X84688901Y-66649865D01*
X84719909Y-66646186D01*
X84777245Y-66632385D01*
X84837329Y-66599785D01*
X84843302Y-66594131D01*
X84843304Y-66594129D01*
X84869626Y-66569210D01*
X84932846Y-66536903D01*
X85003496Y-66543903D01*
X85026252Y-66555945D01*
X85061493Y-66579492D01*
X85159699Y-66645111D01*
X85165002Y-66647389D01*
X85165005Y-66647391D01*
X85344784Y-66724630D01*
X85350091Y-66726910D01*
X85552201Y-66772643D01*
X85557972Y-66772870D01*
X85557974Y-66772870D01*
X85627210Y-66775590D01*
X85759262Y-66780778D01*
X85847561Y-66767975D01*
X85958616Y-66751874D01*
X85958621Y-66751873D01*
X85964337Y-66751044D01*
X85969809Y-66749186D01*
X85969811Y-66749186D01*
X86155096Y-66686290D01*
X86155098Y-66686289D01*
X86160560Y-66684435D01*
X86311714Y-66599785D01*
X86336322Y-66586004D01*
X86336323Y-66586003D01*
X86341359Y-66583183D01*
X86364665Y-66563800D01*
X86429828Y-66535619D01*
X86499883Y-66547141D01*
X86532410Y-66572007D01*
X86532920Y-66571418D01*
X86539731Y-66577320D01*
X86545634Y-66584132D01*
X86608442Y-66624496D01*
X86617091Y-66627036D01*
X86617092Y-66627036D01*
X86672240Y-66643229D01*
X86672244Y-66643230D01*
X86676563Y-66644498D01*
X86681012Y-66645138D01*
X86681018Y-66645139D01*
X86709444Y-66649226D01*
X86709451Y-66649227D01*
X86713892Y-66649865D01*
X87322481Y-66649865D01*
X87350645Y-66646837D01*
X87353929Y-66646123D01*
X87353933Y-66646122D01*
X87373961Y-66641765D01*
X87402987Y-66635451D01*
X87461592Y-66606116D01*
X87515248Y-66559623D01*
X87555612Y-66496815D01*
X87558655Y-66486451D01*
X87574345Y-66433017D01*
X87574346Y-66433013D01*
X87575614Y-66428694D01*
X87576255Y-66424239D01*
X87580342Y-66395813D01*
X87580343Y-66395806D01*
X87580981Y-66391365D01*
X87580981Y-65120359D01*
X94068058Y-65120359D01*
X94081611Y-65327135D01*
X94132619Y-65527980D01*
X94219373Y-65716165D01*
X94222704Y-65720878D01*
X94222705Y-65720880D01*
X94293723Y-65821367D01*
X94338970Y-65885390D01*
X94343106Y-65889419D01*
X94456274Y-65999662D01*
X94487402Y-66029986D01*
X94492198Y-66033191D01*
X94492201Y-66033193D01*
X94561493Y-66079492D01*
X94659699Y-66145111D01*
X94665002Y-66147389D01*
X94665005Y-66147391D01*
X94814405Y-66211578D01*
X94850091Y-66226910D01*
X94956748Y-66251044D01*
X95031700Y-66268004D01*
X95052201Y-66272643D01*
X95057972Y-66272870D01*
X95057974Y-66272870D01*
X95127210Y-66275590D01*
X95259262Y-66280778D01*
X95355882Y-66266769D01*
X95458616Y-66251874D01*
X95458621Y-66251873D01*
X95464337Y-66251044D01*
X95469809Y-66249186D01*
X95469811Y-66249186D01*
X95655096Y-66186290D01*
X95655098Y-66186289D01*
X95660560Y-66184435D01*
X95841359Y-66083183D01*
X96000678Y-65950678D01*
X96103428Y-65827135D01*
X96129492Y-65795797D01*
X96133183Y-65791359D01*
X96228947Y-65620359D01*
X103568058Y-65620359D01*
X103581611Y-65827135D01*
X103632619Y-66027980D01*
X103719373Y-66216165D01*
X103722704Y-66220878D01*
X103722705Y-66220880D01*
X103775652Y-66295797D01*
X103838970Y-66385390D01*
X103843106Y-66389419D01*
X103972683Y-66515647D01*
X103987402Y-66529986D01*
X103992198Y-66533191D01*
X103992201Y-66533193D01*
X104061493Y-66579492D01*
X104159699Y-66645111D01*
X104165002Y-66647389D01*
X104165005Y-66647391D01*
X104344784Y-66724630D01*
X104350091Y-66726910D01*
X104552201Y-66772643D01*
X104557972Y-66772870D01*
X104557974Y-66772870D01*
X104627210Y-66775590D01*
X104759262Y-66780778D01*
X104847561Y-66767975D01*
X104958616Y-66751874D01*
X104958621Y-66751873D01*
X104964337Y-66751044D01*
X104969809Y-66749186D01*
X104969811Y-66749186D01*
X105155096Y-66686290D01*
X105155098Y-66686289D01*
X105160560Y-66684435D01*
X105311714Y-66599785D01*
X105336322Y-66586004D01*
X105336323Y-66586003D01*
X105341359Y-66583183D01*
X105500678Y-66450678D01*
X105633183Y-66291359D01*
X105640945Y-66277500D01*
X105672653Y-66220880D01*
X105734435Y-66110560D01*
X105792229Y-65940307D01*
X105799186Y-65919811D01*
X105799186Y-65919809D01*
X105801044Y-65914337D01*
X105801873Y-65908621D01*
X105801874Y-65908616D01*
X105830245Y-65712936D01*
X105830778Y-65709262D01*
X105832330Y-65650000D01*
X105813369Y-65443649D01*
X105806788Y-65420312D01*
X105758689Y-65249768D01*
X105758688Y-65249766D01*
X105757121Y-65244209D01*
X105746265Y-65222194D01*
X105668025Y-65063540D01*
X105665470Y-65058359D01*
X105643362Y-65028752D01*
X105544938Y-64896947D01*
X105544937Y-64896946D01*
X105541485Y-64892323D01*
X105440972Y-64799410D01*
X105393559Y-64755581D01*
X105393556Y-64755579D01*
X105389319Y-64751662D01*
X105303350Y-64697420D01*
X105218951Y-64644168D01*
X105218946Y-64644166D01*
X105214067Y-64641087D01*
X105021599Y-64564300D01*
X104818361Y-64523873D01*
X104812587Y-64523797D01*
X104812583Y-64523797D01*
X104707399Y-64522421D01*
X104611158Y-64521161D01*
X104605461Y-64522140D01*
X104605460Y-64522140D01*
X104412628Y-64555274D01*
X104412627Y-64555274D01*
X104406931Y-64556253D01*
X104212519Y-64627976D01*
X104207558Y-64630928D01*
X104207557Y-64630928D01*
X104063428Y-64716676D01*
X104034433Y-64733926D01*
X103878637Y-64870555D01*
X103750348Y-65033289D01*
X103653863Y-65216676D01*
X103592414Y-65414575D01*
X103568058Y-65620359D01*
X96228947Y-65620359D01*
X96234435Y-65610560D01*
X96301044Y-65414337D01*
X96301873Y-65408621D01*
X96301874Y-65408616D01*
X96330245Y-65212936D01*
X96330778Y-65209262D01*
X96332330Y-65150000D01*
X96313369Y-64943649D01*
X96306788Y-64920312D01*
X96258689Y-64749768D01*
X96258688Y-64749766D01*
X96257121Y-64744209D01*
X96250594Y-64730972D01*
X96168025Y-64563540D01*
X96165470Y-64558359D01*
X96143362Y-64528752D01*
X96044938Y-64396947D01*
X96044937Y-64396946D01*
X96041485Y-64392323D01*
X95950161Y-64307904D01*
X95893559Y-64255581D01*
X95893556Y-64255579D01*
X95889319Y-64251662D01*
X95808829Y-64200877D01*
X95718951Y-64144168D01*
X95718946Y-64144166D01*
X95714067Y-64141087D01*
X95521599Y-64064300D01*
X95318361Y-64023873D01*
X95312587Y-64023797D01*
X95312583Y-64023797D01*
X95207399Y-64022421D01*
X95111158Y-64021161D01*
X95105461Y-64022140D01*
X95105460Y-64022140D01*
X94912628Y-64055274D01*
X94912627Y-64055274D01*
X94906931Y-64056253D01*
X94712519Y-64127976D01*
X94534433Y-64233926D01*
X94378637Y-64370555D01*
X94250348Y-64533289D01*
X94247659Y-64538400D01*
X94247657Y-64538403D01*
X94239592Y-64553732D01*
X94153863Y-64716676D01*
X94092414Y-64914575D01*
X94068058Y-65120359D01*
X87580981Y-65120359D01*
X87580981Y-63817399D01*
X109649712Y-63817399D01*
X109671194Y-63906537D01*
X109675083Y-63917832D01*
X109757629Y-64099382D01*
X109763576Y-64109724D01*
X109878968Y-64272397D01*
X109886761Y-64281425D01*
X110030831Y-64419342D01*
X110040196Y-64426738D01*
X110207741Y-64534921D01*
X110218342Y-64540415D01*
X110332093Y-64586259D01*
X110387799Y-64630275D01*
X110410865Y-64697420D01*
X110393968Y-64766376D01*
X110342472Y-64815251D01*
X110303342Y-64827782D01*
X110265021Y-64833422D01*
X110210038Y-64860417D01*
X110161558Y-64884220D01*
X110161557Y-64884221D01*
X110152210Y-64888810D01*
X110063422Y-64977753D01*
X110008231Y-65090661D01*
X110006820Y-65100336D01*
X110006819Y-65100338D01*
X110003899Y-65120359D01*
X109997500Y-65164219D01*
X109997501Y-65935780D01*
X110008422Y-66009979D01*
X110035417Y-66064962D01*
X110058951Y-66112893D01*
X110063810Y-66122790D01*
X110152753Y-66211578D01*
X110220245Y-66244569D01*
X110256439Y-66262261D01*
X110265661Y-66266769D01*
X110275336Y-66268180D01*
X110275338Y-66268181D01*
X110334693Y-66276840D01*
X110334697Y-66276840D01*
X110339219Y-66277500D01*
X110997480Y-66277500D01*
X111660780Y-66277499D01*
X111734979Y-66266578D01*
X111813176Y-66228185D01*
X111838442Y-66215780D01*
X111838443Y-66215779D01*
X111847790Y-66211190D01*
X111936578Y-66122247D01*
X111980109Y-66033193D01*
X111987475Y-66018124D01*
X111987475Y-66018123D01*
X111991769Y-66009339D01*
X112000327Y-65950678D01*
X112001840Y-65940307D01*
X112001840Y-65940303D01*
X112002500Y-65935781D01*
X112002499Y-65164220D01*
X111991578Y-65090021D01*
X111961496Y-65028752D01*
X111940780Y-64986558D01*
X111940779Y-64986557D01*
X111936190Y-64977210D01*
X111847247Y-64888422D01*
X111779755Y-64855431D01*
X111743124Y-64837525D01*
X111743123Y-64837525D01*
X111734339Y-64833231D01*
X111724664Y-64831820D01*
X111724662Y-64831819D01*
X111705591Y-64829037D01*
X111641071Y-64799410D01*
X111602812Y-64739605D01*
X111602959Y-64668608D01*
X111641466Y-64608962D01*
X111677813Y-64589336D01*
X111677022Y-64587359D01*
X111693675Y-64580698D01*
X111870978Y-64489381D01*
X111881024Y-64482931D01*
X112037857Y-64359738D01*
X112046506Y-64351501D01*
X112177212Y-64200877D01*
X112184147Y-64191153D01*
X112284010Y-64018533D01*
X112288984Y-64007669D01*
X112354407Y-63819273D01*
X112354648Y-63818284D01*
X112353180Y-63807992D01*
X112339615Y-63804000D01*
X109664598Y-63804000D01*
X109651067Y-63807973D01*
X109649712Y-63817399D01*
X87580981Y-63817399D01*
X87580981Y-63281716D01*
X109645352Y-63281716D01*
X109646820Y-63292008D01*
X109660385Y-63296000D01*
X110727885Y-63296000D01*
X110743124Y-63291525D01*
X110744329Y-63290135D01*
X110746000Y-63282452D01*
X110746000Y-63277885D01*
X111254000Y-63277885D01*
X111258475Y-63293124D01*
X111259865Y-63294329D01*
X111267548Y-63296000D01*
X112335402Y-63296000D01*
X112348933Y-63292027D01*
X112350288Y-63282601D01*
X112328806Y-63193463D01*
X112324917Y-63182168D01*
X112242371Y-63000618D01*
X112236424Y-62990276D01*
X112121032Y-62827603D01*
X112113239Y-62818575D01*
X111969169Y-62680658D01*
X111959804Y-62673262D01*
X111792259Y-62565079D01*
X111781655Y-62559583D01*
X111596688Y-62485039D01*
X111585230Y-62481645D01*
X111388072Y-62443143D01*
X111379209Y-62442066D01*
X111376500Y-62442000D01*
X111272115Y-62442000D01*
X111256876Y-62446475D01*
X111255671Y-62447865D01*
X111254000Y-62455548D01*
X111254000Y-63277885D01*
X110746000Y-63277885D01*
X110746000Y-62460115D01*
X110741525Y-62444876D01*
X110740135Y-62443671D01*
X110732452Y-62442000D01*
X110675168Y-62442000D01*
X110669192Y-62442285D01*
X110520506Y-62456471D01*
X110508772Y-62458730D01*
X110317401Y-62514872D01*
X110306325Y-62519302D01*
X110129022Y-62610619D01*
X110118976Y-62617069D01*
X109962143Y-62740262D01*
X109953494Y-62748499D01*
X109822788Y-62899123D01*
X109815853Y-62908847D01*
X109715990Y-63081467D01*
X109711016Y-63092331D01*
X109645593Y-63280727D01*
X109645352Y-63281716D01*
X87580981Y-63281716D01*
X87580981Y-63229533D01*
X87576041Y-63193690D01*
X87557600Y-63128061D01*
X87550331Y-63116302D01*
X87531525Y-63047842D01*
X87548456Y-62991987D01*
X87546996Y-62991320D01*
X87550738Y-62983126D01*
X87555612Y-62975542D01*
X87575614Y-62907421D01*
X87576255Y-62902966D01*
X87580342Y-62874540D01*
X87580343Y-62874533D01*
X87580981Y-62870092D01*
X87580981Y-60120359D01*
X94068058Y-60120359D01*
X94081611Y-60327135D01*
X94132619Y-60527980D01*
X94219373Y-60716165D01*
X94222704Y-60720878D01*
X94222705Y-60720880D01*
X94275652Y-60795797D01*
X94338970Y-60885390D01*
X94487402Y-61029986D01*
X94492198Y-61033191D01*
X94492201Y-61033193D01*
X94561493Y-61079492D01*
X94659699Y-61145111D01*
X94665002Y-61147389D01*
X94665005Y-61147391D01*
X94844784Y-61224630D01*
X94850091Y-61226910D01*
X95052201Y-61272643D01*
X95057972Y-61272870D01*
X95057974Y-61272870D01*
X95127210Y-61275590D01*
X95259262Y-61280778D01*
X95347561Y-61267975D01*
X95458616Y-61251874D01*
X95458621Y-61251873D01*
X95464337Y-61251044D01*
X95469809Y-61249186D01*
X95469811Y-61249186D01*
X95655096Y-61186290D01*
X95655098Y-61186289D01*
X95660560Y-61184435D01*
X95841359Y-61083183D01*
X96000678Y-60950678D01*
X96133183Y-60791359D01*
X96143665Y-60772643D01*
X96172653Y-60720880D01*
X96234435Y-60610560D01*
X96301044Y-60414337D01*
X96301873Y-60408621D01*
X96301874Y-60408616D01*
X96330245Y-60212936D01*
X96330778Y-60209262D01*
X96332330Y-60150000D01*
X96313369Y-59943649D01*
X96306788Y-59920312D01*
X96258689Y-59749768D01*
X96258688Y-59749766D01*
X96257121Y-59744209D01*
X96246265Y-59722194D01*
X96196045Y-59620359D01*
X103568058Y-59620359D01*
X103581611Y-59827135D01*
X103632619Y-60027980D01*
X103719373Y-60216165D01*
X103722704Y-60220878D01*
X103722705Y-60220880D01*
X103793723Y-60321367D01*
X103838970Y-60385390D01*
X103987402Y-60529986D01*
X103992198Y-60533191D01*
X103992201Y-60533193D01*
X104061493Y-60579492D01*
X104159699Y-60645111D01*
X104165002Y-60647389D01*
X104165005Y-60647391D01*
X104312871Y-60710919D01*
X104350091Y-60726910D01*
X104552201Y-60772643D01*
X104557972Y-60772870D01*
X104557974Y-60772870D01*
X104627210Y-60775590D01*
X104759262Y-60780778D01*
X104847561Y-60767975D01*
X104958616Y-60751874D01*
X104958621Y-60751873D01*
X104964337Y-60751044D01*
X104969809Y-60749186D01*
X104969811Y-60749186D01*
X105155096Y-60686290D01*
X105155098Y-60686289D01*
X105160560Y-60684435D01*
X105341359Y-60583183D01*
X105500678Y-60450678D01*
X105603428Y-60327135D01*
X105629492Y-60295797D01*
X105633183Y-60291359D01*
X105734435Y-60110560D01*
X105801044Y-59914337D01*
X105801873Y-59908621D01*
X105801874Y-59908616D01*
X105830245Y-59712936D01*
X105830778Y-59709262D01*
X105832330Y-59650000D01*
X105813369Y-59443649D01*
X105806788Y-59420312D01*
X105758689Y-59249768D01*
X105758688Y-59249766D01*
X105757121Y-59244209D01*
X105750594Y-59230972D01*
X105668025Y-59063540D01*
X105665470Y-59058359D01*
X105643362Y-59028752D01*
X105544938Y-58896947D01*
X105544937Y-58896946D01*
X105541485Y-58892323D01*
X105389319Y-58751662D01*
X105343145Y-58722529D01*
X105218951Y-58644168D01*
X105218946Y-58644166D01*
X105214067Y-58641087D01*
X105021599Y-58564300D01*
X104818361Y-58523873D01*
X104812587Y-58523797D01*
X104812583Y-58523797D01*
X104707399Y-58522421D01*
X104611158Y-58521161D01*
X104605461Y-58522140D01*
X104605460Y-58522140D01*
X104412628Y-58555274D01*
X104412627Y-58555274D01*
X104406931Y-58556253D01*
X104212519Y-58627976D01*
X104034433Y-58733926D01*
X103878637Y-58870555D01*
X103750348Y-59033289D01*
X103653863Y-59216676D01*
X103592414Y-59414575D01*
X103568058Y-59620359D01*
X96196045Y-59620359D01*
X96168025Y-59563540D01*
X96165470Y-59558359D01*
X96143362Y-59528752D01*
X96044938Y-59396947D01*
X96044937Y-59396946D01*
X96041485Y-59392323D01*
X95889319Y-59251662D01*
X95825761Y-59211560D01*
X95718951Y-59144168D01*
X95718946Y-59144166D01*
X95714067Y-59141087D01*
X95521599Y-59064300D01*
X95318361Y-59023873D01*
X95312587Y-59023797D01*
X95312583Y-59023797D01*
X95207399Y-59022421D01*
X95111158Y-59021161D01*
X95105461Y-59022140D01*
X95105460Y-59022140D01*
X94912628Y-59055274D01*
X94912627Y-59055274D01*
X94906931Y-59056253D01*
X94712519Y-59127976D01*
X94707558Y-59130928D01*
X94707557Y-59130928D01*
X94563428Y-59216676D01*
X94534433Y-59233926D01*
X94378637Y-59370555D01*
X94250348Y-59533289D01*
X94153863Y-59716676D01*
X94092414Y-59914575D01*
X94068058Y-60120359D01*
X87580981Y-60120359D01*
X87580981Y-56294194D01*
X91674798Y-56294194D01*
X91675962Y-56303095D01*
X91675962Y-56303099D01*
X91687207Y-56389084D01*
X91692270Y-56427801D01*
X91746537Y-56551133D01*
X91752315Y-56558006D01*
X91752315Y-56558007D01*
X91825595Y-56645184D01*
X91833239Y-56654278D01*
X91945405Y-56728942D01*
X92074019Y-56769124D01*
X92208740Y-56771593D01*
X92262494Y-56756938D01*
X92330080Y-56738512D01*
X92330082Y-56738511D01*
X92338739Y-56736151D01*
X92453566Y-56665647D01*
X92472984Y-56644194D01*
X99974798Y-56644194D01*
X99975962Y-56653095D01*
X99975962Y-56653099D01*
X99986823Y-56736151D01*
X99992270Y-56777801D01*
X100046537Y-56901133D01*
X100133239Y-57004278D01*
X100245405Y-57078942D01*
X100374019Y-57119124D01*
X100508740Y-57121593D01*
X100562494Y-57106938D01*
X100630080Y-57088512D01*
X100630082Y-57088511D01*
X100638739Y-57086151D01*
X100753566Y-57015647D01*
X100843989Y-56915749D01*
X100851071Y-56901133D01*
X100898826Y-56802567D01*
X100898827Y-56802565D01*
X100902740Y-56794488D01*
X100925095Y-56661611D01*
X100925237Y-56650000D01*
X100924406Y-56644194D01*
X104274798Y-56644194D01*
X104275962Y-56653095D01*
X104275962Y-56653099D01*
X104286823Y-56736151D01*
X104292270Y-56777801D01*
X104346537Y-56901133D01*
X104433239Y-57004278D01*
X104545405Y-57078942D01*
X104674019Y-57119124D01*
X104808740Y-57121593D01*
X104862494Y-57106938D01*
X104930080Y-57088512D01*
X104930082Y-57088511D01*
X104938739Y-57086151D01*
X105053566Y-57015647D01*
X105143989Y-56915749D01*
X105151071Y-56901133D01*
X105198826Y-56802567D01*
X105198827Y-56802565D01*
X105202740Y-56794488D01*
X105225095Y-56661611D01*
X105225237Y-56650000D01*
X105206135Y-56516617D01*
X105150365Y-56393956D01*
X105083545Y-56316408D01*
X105068269Y-56298679D01*
X105068266Y-56298677D01*
X105062409Y-56291879D01*
X104949339Y-56218591D01*
X104933052Y-56213720D01*
X104828846Y-56182555D01*
X104828844Y-56182555D01*
X104820245Y-56179983D01*
X104811270Y-56179928D01*
X104811269Y-56179928D01*
X104752874Y-56179571D01*
X104685503Y-56179160D01*
X104676871Y-56181627D01*
X104564577Y-56213720D01*
X104564575Y-56213721D01*
X104555946Y-56216187D01*
X104441989Y-56288089D01*
X104436047Y-56294818D01*
X104436046Y-56294818D01*
X104427178Y-56304859D01*
X104352793Y-56389084D01*
X104348979Y-56397207D01*
X104348978Y-56397209D01*
X104330937Y-56435636D01*
X104295529Y-56511054D01*
X104294148Y-56519924D01*
X104285976Y-56572409D01*
X104274798Y-56644194D01*
X100924406Y-56644194D01*
X100906135Y-56516617D01*
X100850365Y-56393956D01*
X100783545Y-56316408D01*
X100768269Y-56298679D01*
X100768266Y-56298677D01*
X100762409Y-56291879D01*
X100649339Y-56218591D01*
X100633052Y-56213720D01*
X100528846Y-56182555D01*
X100528844Y-56182555D01*
X100520245Y-56179983D01*
X100511270Y-56179928D01*
X100511269Y-56179928D01*
X100452874Y-56179571D01*
X100385503Y-56179160D01*
X100376871Y-56181627D01*
X100264577Y-56213720D01*
X100264575Y-56213721D01*
X100255946Y-56216187D01*
X100141989Y-56288089D01*
X100136047Y-56294818D01*
X100136046Y-56294818D01*
X100127178Y-56304859D01*
X100052793Y-56389084D01*
X100048979Y-56397207D01*
X100048978Y-56397209D01*
X100030937Y-56435636D01*
X99995529Y-56511054D01*
X99994148Y-56519924D01*
X99985976Y-56572409D01*
X99974798Y-56644194D01*
X92472984Y-56644194D01*
X92543989Y-56565749D01*
X92551071Y-56551133D01*
X92598826Y-56452567D01*
X92598827Y-56452565D01*
X92602740Y-56444488D01*
X92625095Y-56311611D01*
X92625237Y-56300000D01*
X92608285Y-56181627D01*
X92607408Y-56175503D01*
X92607407Y-56175500D01*
X92606135Y-56166617D01*
X92550365Y-56043956D01*
X92540370Y-56032356D01*
X92468269Y-55948679D01*
X92468266Y-55948677D01*
X92462409Y-55941879D01*
X92349339Y-55868591D01*
X92333052Y-55863720D01*
X92228846Y-55832555D01*
X92228844Y-55832555D01*
X92220245Y-55829983D01*
X92211270Y-55829928D01*
X92211269Y-55829928D01*
X92152874Y-55829572D01*
X92085503Y-55829160D01*
X92076871Y-55831627D01*
X91964577Y-55863720D01*
X91964575Y-55863721D01*
X91955946Y-55866187D01*
X91841989Y-55938089D01*
X91752793Y-56039084D01*
X91695529Y-56161054D01*
X91694148Y-56169924D01*
X91676495Y-56283298D01*
X91674798Y-56294194D01*
X87580981Y-56294194D01*
X87580981Y-54120359D01*
X94068058Y-54120359D01*
X94081611Y-54327135D01*
X94132619Y-54527980D01*
X94219373Y-54716165D01*
X94222704Y-54720878D01*
X94222705Y-54720880D01*
X94293723Y-54821367D01*
X94338970Y-54885390D01*
X94487402Y-55029986D01*
X94492198Y-55033191D01*
X94492201Y-55033193D01*
X94561493Y-55079492D01*
X94659699Y-55145111D01*
X94665002Y-55147389D01*
X94665005Y-55147391D01*
X94812871Y-55210919D01*
X94850091Y-55226910D01*
X95052201Y-55272643D01*
X95057972Y-55272870D01*
X95057974Y-55272870D01*
X95127210Y-55275590D01*
X95259262Y-55280778D01*
X95347561Y-55267975D01*
X95458616Y-55251874D01*
X95458621Y-55251873D01*
X95464337Y-55251044D01*
X95469809Y-55249186D01*
X95469811Y-55249186D01*
X95655096Y-55186290D01*
X95655098Y-55186289D01*
X95660560Y-55184435D01*
X95841359Y-55083183D01*
X96000678Y-54950678D01*
X96103428Y-54827135D01*
X96129492Y-54795797D01*
X96133183Y-54791359D01*
X96228947Y-54620359D01*
X103568058Y-54620359D01*
X103581611Y-54827135D01*
X103632619Y-55027980D01*
X103719373Y-55216165D01*
X103722704Y-55220878D01*
X103722705Y-55220880D01*
X103775652Y-55295797D01*
X103838970Y-55385390D01*
X103987402Y-55529986D01*
X103992198Y-55533191D01*
X103992201Y-55533193D01*
X104061493Y-55579492D01*
X104159699Y-55645111D01*
X104165002Y-55647389D01*
X104165005Y-55647391D01*
X104344784Y-55724630D01*
X104350091Y-55726910D01*
X104552201Y-55772643D01*
X104557972Y-55772870D01*
X104557974Y-55772870D01*
X104627210Y-55775590D01*
X104759262Y-55780778D01*
X104847561Y-55767975D01*
X104958616Y-55751874D01*
X104958621Y-55751873D01*
X104964337Y-55751044D01*
X104969809Y-55749186D01*
X104969811Y-55749186D01*
X105155096Y-55686290D01*
X105155098Y-55686289D01*
X105160560Y-55684435D01*
X105341359Y-55583183D01*
X105500678Y-55450678D01*
X105633183Y-55291359D01*
X105643665Y-55272643D01*
X105672653Y-55220880D01*
X105734435Y-55110560D01*
X105801044Y-54914337D01*
X105801873Y-54908621D01*
X105801874Y-54908616D01*
X105830245Y-54712936D01*
X105830778Y-54709262D01*
X105832330Y-54650000D01*
X105813369Y-54443649D01*
X105806788Y-54420312D01*
X105758689Y-54249768D01*
X105758688Y-54249766D01*
X105757121Y-54244209D01*
X105746265Y-54222194D01*
X105668025Y-54063540D01*
X105665470Y-54058359D01*
X105643362Y-54028752D01*
X105544938Y-53896947D01*
X105544937Y-53896946D01*
X105541485Y-53892323D01*
X105389319Y-53751662D01*
X105325761Y-53711560D01*
X105218951Y-53644168D01*
X105218946Y-53644166D01*
X105214067Y-53641087D01*
X105021599Y-53564300D01*
X104818361Y-53523873D01*
X104812587Y-53523797D01*
X104812583Y-53523797D01*
X104707399Y-53522421D01*
X104611158Y-53521161D01*
X104605461Y-53522140D01*
X104605460Y-53522140D01*
X104412628Y-53555274D01*
X104412627Y-53555274D01*
X104406931Y-53556253D01*
X104212519Y-53627976D01*
X104207558Y-53630928D01*
X104207557Y-53630928D01*
X104063428Y-53716676D01*
X104034433Y-53733926D01*
X103878637Y-53870555D01*
X103750348Y-54033289D01*
X103653863Y-54216676D01*
X103592414Y-54414575D01*
X103568058Y-54620359D01*
X96228947Y-54620359D01*
X96234435Y-54610560D01*
X96301044Y-54414337D01*
X96301873Y-54408621D01*
X96301874Y-54408616D01*
X96330245Y-54212936D01*
X96330778Y-54209262D01*
X96332330Y-54150000D01*
X96313369Y-53943649D01*
X96306788Y-53920312D01*
X96258689Y-53749768D01*
X96258688Y-53749766D01*
X96257121Y-53744209D01*
X96250594Y-53730972D01*
X96168025Y-53563540D01*
X96165470Y-53558359D01*
X96143362Y-53528752D01*
X96044938Y-53396947D01*
X96044937Y-53396946D01*
X96041485Y-53392323D01*
X95889319Y-53251662D01*
X95843145Y-53222529D01*
X95718951Y-53144168D01*
X95718946Y-53144166D01*
X95714067Y-53141087D01*
X95521599Y-53064300D01*
X95318361Y-53023873D01*
X95312587Y-53023797D01*
X95312583Y-53023797D01*
X95207399Y-53022421D01*
X95111158Y-53021161D01*
X95105461Y-53022140D01*
X95105460Y-53022140D01*
X94912628Y-53055274D01*
X94912627Y-53055274D01*
X94906931Y-53056253D01*
X94712519Y-53127976D01*
X94534433Y-53233926D01*
X94378637Y-53370555D01*
X94250348Y-53533289D01*
X94153863Y-53716676D01*
X94092414Y-53914575D01*
X94068058Y-54120359D01*
X87580981Y-54120359D01*
X87580981Y-49700000D01*
X89550000Y-49700000D01*
X91350000Y-49700000D01*
X91350000Y-49120359D01*
X94068058Y-49120359D01*
X94081611Y-49327135D01*
X94132619Y-49527980D01*
X94219373Y-49716165D01*
X94222704Y-49720878D01*
X94222705Y-49720880D01*
X94275652Y-49795797D01*
X94338970Y-49885390D01*
X94487402Y-50029986D01*
X94492198Y-50033191D01*
X94492201Y-50033193D01*
X94561493Y-50079492D01*
X94659699Y-50145111D01*
X94665002Y-50147389D01*
X94665005Y-50147391D01*
X94844784Y-50224630D01*
X94850091Y-50226910D01*
X95052201Y-50272643D01*
X95057972Y-50272870D01*
X95057974Y-50272870D01*
X95127210Y-50275590D01*
X95259262Y-50280778D01*
X95347561Y-50267975D01*
X95458616Y-50251874D01*
X95458621Y-50251873D01*
X95464337Y-50251044D01*
X95469809Y-50249186D01*
X95469811Y-50249186D01*
X95655096Y-50186290D01*
X95655098Y-50186289D01*
X95660560Y-50184435D01*
X95841359Y-50083183D01*
X96000678Y-49950678D01*
X96133183Y-49791359D01*
X96143665Y-49772643D01*
X96172653Y-49720880D01*
X96234435Y-49610560D01*
X96301044Y-49414337D01*
X96301873Y-49408621D01*
X96301874Y-49408616D01*
X96330245Y-49212936D01*
X96330778Y-49209262D01*
X96332330Y-49150000D01*
X96313369Y-48943649D01*
X96306788Y-48920312D01*
X96258689Y-48749768D01*
X96258688Y-48749766D01*
X96257121Y-48744209D01*
X96246265Y-48722194D01*
X96196045Y-48620359D01*
X103568058Y-48620359D01*
X103581611Y-48827135D01*
X103632619Y-49027980D01*
X103719373Y-49216165D01*
X103722704Y-49220878D01*
X103722705Y-49220880D01*
X103793723Y-49321367D01*
X103838970Y-49385390D01*
X103987402Y-49529986D01*
X103992198Y-49533191D01*
X103992201Y-49533193D01*
X104061493Y-49579492D01*
X104159699Y-49645111D01*
X104165002Y-49647389D01*
X104165005Y-49647391D01*
X104280762Y-49697124D01*
X104350091Y-49726910D01*
X104552201Y-49772643D01*
X104557972Y-49772870D01*
X104557974Y-49772870D01*
X104627210Y-49775590D01*
X104759262Y-49780778D01*
X104847561Y-49767975D01*
X104958616Y-49751874D01*
X104958621Y-49751873D01*
X104964337Y-49751044D01*
X104969809Y-49749186D01*
X104969811Y-49749186D01*
X105155096Y-49686290D01*
X105155098Y-49686289D01*
X105160560Y-49684435D01*
X105341359Y-49583183D01*
X105500678Y-49450678D01*
X105603428Y-49327135D01*
X105629492Y-49295797D01*
X105633183Y-49291359D01*
X105734435Y-49110560D01*
X105801044Y-48914337D01*
X105801873Y-48908621D01*
X105801874Y-48908616D01*
X105830245Y-48712936D01*
X105830778Y-48709262D01*
X105832330Y-48650000D01*
X105813369Y-48443649D01*
X105806788Y-48420312D01*
X105758689Y-48249768D01*
X105758688Y-48249766D01*
X105757121Y-48244209D01*
X105750594Y-48230972D01*
X105668025Y-48063540D01*
X105665470Y-48058359D01*
X105643362Y-48028752D01*
X105544938Y-47896947D01*
X105544937Y-47896946D01*
X105541485Y-47892323D01*
X105389319Y-47751662D01*
X105343145Y-47722529D01*
X105218951Y-47644168D01*
X105218946Y-47644166D01*
X105214067Y-47641087D01*
X105021599Y-47564300D01*
X104818361Y-47523873D01*
X104812587Y-47523797D01*
X104812583Y-47523797D01*
X104707399Y-47522421D01*
X104611158Y-47521161D01*
X104605461Y-47522140D01*
X104605460Y-47522140D01*
X104412628Y-47555274D01*
X104412627Y-47555274D01*
X104406931Y-47556253D01*
X104212519Y-47627976D01*
X104034433Y-47733926D01*
X103878637Y-47870555D01*
X103750348Y-48033289D01*
X103653863Y-48216676D01*
X103592414Y-48414575D01*
X103568058Y-48620359D01*
X96196045Y-48620359D01*
X96168025Y-48563540D01*
X96165470Y-48558359D01*
X96143362Y-48528752D01*
X96044938Y-48396947D01*
X96044937Y-48396946D01*
X96041485Y-48392323D01*
X95889319Y-48251662D01*
X95825761Y-48211560D01*
X95718951Y-48144168D01*
X95718946Y-48144166D01*
X95714067Y-48141087D01*
X95521599Y-48064300D01*
X95318361Y-48023873D01*
X95312587Y-48023797D01*
X95312583Y-48023797D01*
X95207399Y-48022421D01*
X95111158Y-48021161D01*
X95105461Y-48022140D01*
X95105460Y-48022140D01*
X94912628Y-48055274D01*
X94912627Y-48055274D01*
X94906931Y-48056253D01*
X94712519Y-48127976D01*
X94707558Y-48130928D01*
X94707557Y-48130928D01*
X94563428Y-48216676D01*
X94534433Y-48233926D01*
X94378637Y-48370555D01*
X94250348Y-48533289D01*
X94153863Y-48716676D01*
X94092414Y-48914575D01*
X94068058Y-49120359D01*
X91350000Y-49120359D01*
X91350000Y-44494194D01*
X97624798Y-44494194D01*
X97625962Y-44503095D01*
X97625962Y-44503099D01*
X97636435Y-44583183D01*
X97642270Y-44627801D01*
X97696537Y-44751133D01*
X97783239Y-44854278D01*
X97895405Y-44928942D01*
X98024019Y-44969124D01*
X98158740Y-44971593D01*
X98212494Y-44956938D01*
X98280080Y-44938512D01*
X98280082Y-44938511D01*
X98288739Y-44936151D01*
X98403566Y-44865647D01*
X98420081Y-44847402D01*
X98487961Y-44772409D01*
X98487962Y-44772408D01*
X98493989Y-44765749D01*
X98500712Y-44751874D01*
X98548826Y-44652567D01*
X98548827Y-44652565D01*
X98552740Y-44644488D01*
X98575095Y-44511611D01*
X98575237Y-44500000D01*
X98558824Y-44385390D01*
X98557408Y-44375503D01*
X98557407Y-44375500D01*
X98556135Y-44366617D01*
X98500365Y-44243956D01*
X98485677Y-44226910D01*
X98418269Y-44148679D01*
X98418266Y-44148677D01*
X98412409Y-44141879D01*
X98321852Y-44083183D01*
X98306873Y-44073474D01*
X98306872Y-44073473D01*
X98299339Y-44068591D01*
X98283052Y-44063720D01*
X98178846Y-44032555D01*
X98178844Y-44032555D01*
X98170245Y-44029983D01*
X98161270Y-44029928D01*
X98161269Y-44029928D01*
X98102874Y-44029572D01*
X98035503Y-44029160D01*
X98026871Y-44031627D01*
X97914577Y-44063720D01*
X97914575Y-44063721D01*
X97905946Y-44066187D01*
X97898355Y-44070976D01*
X97898354Y-44070977D01*
X97799582Y-44133298D01*
X97791989Y-44138089D01*
X97702793Y-44239084D01*
X97698979Y-44247207D01*
X97698978Y-44247209D01*
X97649345Y-44352926D01*
X97645529Y-44361054D01*
X97624798Y-44494194D01*
X91350000Y-44494194D01*
X91350000Y-43450000D01*
X89550000Y-43450000D01*
X89550000Y-49700000D01*
X87580981Y-49700000D01*
X87580981Y-43120359D01*
X94068058Y-43120359D01*
X94081611Y-43327135D01*
X94132619Y-43527980D01*
X94219373Y-43716165D01*
X94222704Y-43720878D01*
X94222705Y-43720880D01*
X94293723Y-43821367D01*
X94338970Y-43885390D01*
X94487402Y-44029986D01*
X94492198Y-44033191D01*
X94492201Y-44033193D01*
X94548749Y-44070977D01*
X94659699Y-44145111D01*
X94665002Y-44147389D01*
X94665005Y-44147391D01*
X94812871Y-44210919D01*
X94850091Y-44226910D01*
X95052201Y-44272643D01*
X95057972Y-44272870D01*
X95057974Y-44272870D01*
X95127210Y-44275590D01*
X95259262Y-44280778D01*
X95347561Y-44267975D01*
X95458616Y-44251874D01*
X95458621Y-44251873D01*
X95464337Y-44251044D01*
X95469809Y-44249186D01*
X95469811Y-44249186D01*
X95655096Y-44186290D01*
X95655098Y-44186289D01*
X95660560Y-44184435D01*
X95841359Y-44083183D01*
X96000678Y-43950678D01*
X96103428Y-43827135D01*
X96129492Y-43795797D01*
X96133183Y-43791359D01*
X96228947Y-43620359D01*
X103568058Y-43620359D01*
X103581611Y-43827135D01*
X103632619Y-44027980D01*
X103719373Y-44216165D01*
X103722704Y-44220878D01*
X103722705Y-44220880D01*
X103831983Y-44375503D01*
X103838970Y-44385390D01*
X103843106Y-44389419D01*
X103968540Y-44511611D01*
X103987402Y-44529986D01*
X103992198Y-44533191D01*
X103992201Y-44533193D01*
X104061493Y-44579492D01*
X104159699Y-44645111D01*
X104165002Y-44647389D01*
X104165005Y-44647391D01*
X104344784Y-44724630D01*
X104350091Y-44726910D01*
X104552201Y-44772643D01*
X104557972Y-44772870D01*
X104557974Y-44772870D01*
X104627210Y-44775590D01*
X104759262Y-44780778D01*
X104862917Y-44765749D01*
X104958616Y-44751874D01*
X104958621Y-44751873D01*
X104964337Y-44751044D01*
X104969809Y-44749186D01*
X104969811Y-44749186D01*
X105155096Y-44686290D01*
X105155098Y-44686289D01*
X105160560Y-44684435D01*
X105341359Y-44583183D01*
X105500678Y-44450678D01*
X105633183Y-44291359D01*
X105643665Y-44272643D01*
X105672653Y-44220880D01*
X105734435Y-44110560D01*
X105761788Y-44029983D01*
X105799186Y-43919811D01*
X105799186Y-43919809D01*
X105801044Y-43914337D01*
X105801873Y-43908621D01*
X105801874Y-43908616D01*
X105830245Y-43712936D01*
X105830778Y-43709262D01*
X105832330Y-43650000D01*
X105815617Y-43468115D01*
X105813898Y-43449403D01*
X105813897Y-43449400D01*
X105813369Y-43443649D01*
X105806788Y-43420312D01*
X105758689Y-43249768D01*
X105758688Y-43249766D01*
X105757121Y-43244209D01*
X105746265Y-43222194D01*
X105668025Y-43063540D01*
X105665470Y-43058359D01*
X105643362Y-43028752D01*
X105544938Y-42896947D01*
X105544937Y-42896946D01*
X105541485Y-42892323D01*
X105389319Y-42751662D01*
X105325761Y-42711560D01*
X105218951Y-42644168D01*
X105218946Y-42644166D01*
X105214067Y-42641087D01*
X105021599Y-42564300D01*
X104818361Y-42523873D01*
X104812587Y-42523797D01*
X104812583Y-42523797D01*
X104707399Y-42522421D01*
X104611158Y-42521161D01*
X104605461Y-42522140D01*
X104605460Y-42522140D01*
X104412628Y-42555274D01*
X104412627Y-42555274D01*
X104406931Y-42556253D01*
X104212519Y-42627976D01*
X104207558Y-42630928D01*
X104207557Y-42630928D01*
X104063428Y-42716676D01*
X104034433Y-42733926D01*
X103878637Y-42870555D01*
X103750348Y-43033289D01*
X103653863Y-43216676D01*
X103592414Y-43414575D01*
X103568058Y-43620359D01*
X96228947Y-43620359D01*
X96234435Y-43610560D01*
X96301044Y-43414337D01*
X96301873Y-43408621D01*
X96301874Y-43408616D01*
X96330245Y-43212936D01*
X96330778Y-43209262D01*
X96332330Y-43150000D01*
X96313369Y-42943649D01*
X96306788Y-42920312D01*
X96258689Y-42749768D01*
X96258688Y-42749766D01*
X96257121Y-42744209D01*
X96250594Y-42730972D01*
X96168025Y-42563540D01*
X96165470Y-42558359D01*
X96143362Y-42528752D01*
X96044938Y-42396947D01*
X96044937Y-42396946D01*
X96041485Y-42392323D01*
X95889319Y-42251662D01*
X95843145Y-42222529D01*
X95718951Y-42144168D01*
X95718946Y-42144166D01*
X95714067Y-42141087D01*
X95521599Y-42064300D01*
X95318361Y-42023873D01*
X95312587Y-42023797D01*
X95312583Y-42023797D01*
X95207399Y-42022421D01*
X95111158Y-42021161D01*
X95105461Y-42022140D01*
X95105460Y-42022140D01*
X94912628Y-42055274D01*
X94912627Y-42055274D01*
X94906931Y-42056253D01*
X94712519Y-42127976D01*
X94534433Y-42233926D01*
X94378637Y-42370555D01*
X94250348Y-42533289D01*
X94153863Y-42716676D01*
X94092414Y-42914575D01*
X94068058Y-43120359D01*
X87580981Y-43120359D01*
X87580981Y-38120359D01*
X94068058Y-38120359D01*
X94081611Y-38327135D01*
X94132619Y-38527980D01*
X94219373Y-38716165D01*
X94222704Y-38720878D01*
X94222705Y-38720880D01*
X94275652Y-38795797D01*
X94338970Y-38885390D01*
X94487402Y-39029986D01*
X94492198Y-39033191D01*
X94492201Y-39033193D01*
X94561493Y-39079492D01*
X94659699Y-39145111D01*
X94665002Y-39147389D01*
X94665005Y-39147391D01*
X94844784Y-39224630D01*
X94850091Y-39226910D01*
X95052201Y-39272643D01*
X95057972Y-39272870D01*
X95057974Y-39272870D01*
X95127210Y-39275590D01*
X95259262Y-39280778D01*
X95347561Y-39267975D01*
X95458616Y-39251874D01*
X95458621Y-39251873D01*
X95464337Y-39251044D01*
X95469809Y-39249186D01*
X95469811Y-39249186D01*
X95655096Y-39186290D01*
X95655098Y-39186289D01*
X95660560Y-39184435D01*
X95841359Y-39083183D01*
X96000678Y-38950678D01*
X96133183Y-38791359D01*
X96234435Y-38610560D01*
X96301044Y-38414337D01*
X96301873Y-38408621D01*
X96301874Y-38408616D01*
X96330245Y-38212936D01*
X96330778Y-38209262D01*
X96332330Y-38150000D01*
X96313369Y-37943649D01*
X96306788Y-37920312D01*
X96258689Y-37749768D01*
X96258688Y-37749766D01*
X96257121Y-37744209D01*
X96246265Y-37722194D01*
X96168025Y-37563540D01*
X96165470Y-37558359D01*
X96143362Y-37528752D01*
X96044938Y-37396947D01*
X96044937Y-37396946D01*
X96041485Y-37392323D01*
X95889319Y-37251662D01*
X95843145Y-37222529D01*
X95718951Y-37144168D01*
X95718946Y-37144166D01*
X95714067Y-37141087D01*
X95521599Y-37064300D01*
X95318361Y-37023873D01*
X95312587Y-37023797D01*
X95312583Y-37023797D01*
X95207399Y-37022421D01*
X95111158Y-37021161D01*
X95105461Y-37022140D01*
X95105460Y-37022140D01*
X94912628Y-37055274D01*
X94912627Y-37055274D01*
X94906931Y-37056253D01*
X94712519Y-37127976D01*
X94534433Y-37233926D01*
X94378637Y-37370555D01*
X94250348Y-37533289D01*
X94153863Y-37716676D01*
X94092414Y-37914575D01*
X94068058Y-38120359D01*
X87580981Y-38120359D01*
X87580981Y-26601412D01*
X87600983Y-26533291D01*
X87654639Y-26486798D01*
X87724913Y-26476694D01*
X87769981Y-26492293D01*
G37*
%TD.AperFunction*%
%TD*%
M02*
