M48
; DRILL file {KiCad (6.0.5-0)} date 2022 June 15, Wednesday 09:28:00
; FORMAT={-:-/ absolute / inch / decimal}
; #@! TF.CreationDate,2022-06-15T09:28:00+02:00
; #@! TF.GenerationSoftware,Kicad,Pcbnew,(6.0.5-0)
; #@! TF.FileFunction,Plated,1,4,PTH
FMAT,2
INCH
; #@! TA.AperFunction,Plated,PTH,ViaDrill
T1C0.0138
; #@! TA.AperFunction,Plated,PTH,ComponentDrill
T2C0.0354
; #@! TA.AperFunction,Plated,PTH,ComponentDrill
T3C0.0394
; #@! TA.AperFunction,Plated,PTH,ComponentDrill
T4C0.0866
%
G90
G05
T1
X2.36Y-2.3935
X2.5Y-2.7854
X2.5709Y-1.5748
X2.7343Y-2.5335
X2.8433Y-3.128
X2.8583Y-2.0433
X2.8583Y-2.3228
X2.8583Y-2.935
X2.8976Y-1.3209
X2.8976Y-1.3799
X2.9154Y-2.624
X2.9193Y-2.8189
X2.935Y-1.2874
X3.1083Y-2.3243
X3.1437Y-1.1929
X3.1437Y-2.872
X3.1496Y-2.0236
X3.1693Y-2.1555
X3.1693Y-2.3406
X3.1831Y-1.1929
X3.189Y-2.0236
X3.2047Y-2.752
X3.2224Y-1.1929
X3.2579Y-2.248
X3.2618Y-1.1929
X3.2736Y-2.4882
X3.3012Y-1.1929
X3.3282Y-2.9316
X3.3602Y-1.5846
X3.3602Y-1.6201
X3.3976Y-1.5846
X3.3976Y-1.6201
X3.4114Y-2.4154
X3.4272Y-2.0453
X3.4409Y-3.0177
X3.4921Y-3.0177
X3.5728Y-3.128
X3.6035Y-3.0425
X3.6102Y-2.2205
X3.6575Y-3.0433
X3.6654Y-1.2677
X3.6654Y-1.6102
X3.7008Y-1.6102
X3.7362Y-1.6102
X3.7717Y-1.6102
X3.8248Y-2.2874
X3.8504Y-2.7343
X3.8661Y-2.2874
X3.868Y-3.0986
X3.9075Y-2.2874
X4.2205Y-2.8465
X4.3878Y-1.935
X4.388Y-2.4644
T2
X2.6496Y-1.7323
X2.6496Y-1.9291
X2.6496Y-2.1516
X2.6496Y-2.3484
X2.6496Y-2.5709
X2.6496Y-2.7677
X3.0098Y-1.5217
X3.0098Y-1.7185
X3.0118Y-1.9409
X3.0118Y-2.1378
X3.0118Y-2.3602
X3.0118Y-2.5571
X3.0118Y-2.7795
X3.0118Y-2.9764
X3.374Y-1.313
X3.374Y-1.5098
X3.374Y-1.7323
X3.374Y-1.9291
X3.374Y-2.1516
X3.374Y-2.3484
X3.374Y-2.5709
X3.374Y-2.7677
X3.374Y-2.9902
X3.374Y-3.187
X3.7343Y-1.5217
X3.7343Y-1.7185
X3.7362Y-1.9409
X3.7362Y-2.1378
X3.7362Y-2.3602
X3.7362Y-2.5571
X3.7362Y-2.7795
X3.7362Y-2.9764
X4.0984Y-1.7323
X4.0984Y-1.9291
X4.0984Y-2.1516
X4.0984Y-2.3484
X4.0984Y-2.5709
X4.0984Y-2.7677
T3
X2.7992Y-2.1516
X3.2441Y-1.3386
X3.5748Y-2.6732
T4
X2.3937Y-1.685
X2.3937Y-2.815
X4.3543Y-1.685
X4.3543Y-2.815
T0
M30
