%TF.GenerationSoftware,KiCad,Pcbnew,(6.0.5-0)*%
%TF.CreationDate,2022-06-15T09:27:57+02:00*%
%TF.ProjectId,speaker,73706561-6b65-4722-9e6b-696361645f70,rev?*%
%TF.SameCoordinates,Original*%
%TF.FileFunction,Legend,Bot*%
%TF.FilePolarity,Positive*%
%FSLAX46Y46*%
G04 Gerber Fmt 4.6, Leading zero omitted, Abs format (unit mm)*
G04 Created by KiCad (PCBNEW (6.0.5-0)) date 2022-06-15 09:27:57*
%MOMM*%
%LPD*%
G01*
G04 APERTURE LIST*
%TA.AperFunction,Profile*%
%ADD10C,0.088304*%
%TD*%
%ADD11C,0.150000*%
%ADD12C,0.120000*%
%ADD13C,0.260000*%
G04 APERTURE END LIST*
D10*
X57987239Y-73149866D02*
X85700040Y-89150019D01*
X85700040Y-25149982D02*
X57987239Y-41149998D01*
X85700040Y-25149982D02*
X85700040Y-25149982D01*
X57987239Y-73149866D02*
X57987239Y-73149866D01*
X85700040Y-89150019D02*
X113412761Y-73149866D01*
X57987239Y-41149998D02*
X57987239Y-41149998D01*
X113412761Y-41149998D02*
X85700040Y-25149982D01*
X113412761Y-41149998D02*
X113412761Y-41149998D01*
X57987239Y-41149998D02*
X57987239Y-73149866D01*
X113412761Y-73149866D02*
X113412761Y-41149998D01*
X113412761Y-73149866D02*
X113412761Y-73149866D01*
D11*
%TO.C,TP3*%
X92061904Y-64852380D02*
X91490476Y-64852380D01*
X91776190Y-65852380D02*
X91776190Y-64852380D01*
X91157142Y-65852380D02*
X91157142Y-64852380D01*
X90776190Y-64852380D01*
X90680952Y-64900000D01*
X90633333Y-64947619D01*
X90585714Y-65042857D01*
X90585714Y-65185714D01*
X90633333Y-65280952D01*
X90680952Y-65328571D01*
X90776190Y-65376190D01*
X91157142Y-65376190D01*
X90252380Y-64852380D02*
X89633333Y-64852380D01*
X89966666Y-65233333D01*
X89823809Y-65233333D01*
X89728571Y-65280952D01*
X89680952Y-65328571D01*
X89633333Y-65423809D01*
X89633333Y-65661904D01*
X89680952Y-65757142D01*
X89728571Y-65804761D01*
X89823809Y-65852380D01*
X90109523Y-65852380D01*
X90204761Y-65804761D01*
X90252380Y-65757142D01*
%TO.C,C2*%
X78566666Y-37657142D02*
X78614285Y-37704761D01*
X78757142Y-37752380D01*
X78852380Y-37752380D01*
X78995238Y-37704761D01*
X79090476Y-37609523D01*
X79138095Y-37514285D01*
X79185714Y-37323809D01*
X79185714Y-37180952D01*
X79138095Y-36990476D01*
X79090476Y-36895238D01*
X78995238Y-36800000D01*
X78852380Y-36752380D01*
X78757142Y-36752380D01*
X78614285Y-36800000D01*
X78566666Y-36847619D01*
X78185714Y-36847619D02*
X78138095Y-36800000D01*
X78042857Y-36752380D01*
X77804761Y-36752380D01*
X77709523Y-36800000D01*
X77661904Y-36847619D01*
X77614285Y-36942857D01*
X77614285Y-37038095D01*
X77661904Y-37180952D01*
X78233333Y-37752380D01*
X77614285Y-37752380D01*
%TO.C,TP2*%
X72411904Y-56552380D02*
X71840476Y-56552380D01*
X72126190Y-57552380D02*
X72126190Y-56552380D01*
X71507142Y-57552380D02*
X71507142Y-56552380D01*
X71126190Y-56552380D01*
X71030952Y-56600000D01*
X70983333Y-56647619D01*
X70935714Y-56742857D01*
X70935714Y-56885714D01*
X70983333Y-56980952D01*
X71030952Y-57028571D01*
X71126190Y-57076190D01*
X71507142Y-57076190D01*
X70554761Y-56647619D02*
X70507142Y-56600000D01*
X70411904Y-56552380D01*
X70173809Y-56552380D01*
X70078571Y-56600000D01*
X70030952Y-56647619D01*
X69983333Y-56742857D01*
X69983333Y-56838095D01*
X70030952Y-56980952D01*
X70602380Y-57552380D01*
X69983333Y-57552380D01*
%TO.C,TP1*%
X84561904Y-31252380D02*
X83990476Y-31252380D01*
X84276190Y-32252380D02*
X84276190Y-31252380D01*
X83657142Y-32252380D02*
X83657142Y-31252380D01*
X83276190Y-31252380D01*
X83180952Y-31300000D01*
X83133333Y-31347619D01*
X83085714Y-31442857D01*
X83085714Y-31585714D01*
X83133333Y-31680952D01*
X83180952Y-31728571D01*
X83276190Y-31776190D01*
X83657142Y-31776190D01*
X82133333Y-32252380D02*
X82704761Y-32252380D01*
X82419047Y-32252380D02*
X82419047Y-31252380D01*
X82514285Y-31395238D01*
X82609523Y-31490476D01*
X82704761Y-31538095D01*
%TO.C,R2*%
X92316666Y-38452380D02*
X92650000Y-37976190D01*
X92888095Y-38452380D02*
X92888095Y-37452380D01*
X92507142Y-37452380D01*
X92411904Y-37500000D01*
X92364285Y-37547619D01*
X92316666Y-37642857D01*
X92316666Y-37785714D01*
X92364285Y-37880952D01*
X92411904Y-37928571D01*
X92507142Y-37976190D01*
X92888095Y-37976190D01*
X91935714Y-37547619D02*
X91888095Y-37500000D01*
X91792857Y-37452380D01*
X91554761Y-37452380D01*
X91459523Y-37500000D01*
X91411904Y-37547619D01*
X91364285Y-37642857D01*
X91364285Y-37738095D01*
X91411904Y-37880952D01*
X91983333Y-38452380D01*
X91364285Y-38452380D01*
%TO.C,J5*%
X110133333Y-51782380D02*
X110133333Y-52496666D01*
X110180952Y-52639523D01*
X110276190Y-52734761D01*
X110419047Y-52782380D01*
X110514285Y-52782380D01*
X109180952Y-51782380D02*
X109657142Y-51782380D01*
X109704761Y-52258571D01*
X109657142Y-52210952D01*
X109561904Y-52163333D01*
X109323809Y-52163333D01*
X109228571Y-52210952D01*
X109180952Y-52258571D01*
X109133333Y-52353809D01*
X109133333Y-52591904D01*
X109180952Y-52687142D01*
X109228571Y-52734761D01*
X109323809Y-52782380D01*
X109561904Y-52782380D01*
X109657142Y-52734761D01*
X109704761Y-52687142D01*
X106090476Y-57604761D02*
X105947619Y-57652380D01*
X105709523Y-57652380D01*
X105614285Y-57604761D01*
X105566666Y-57557142D01*
X105519047Y-57461904D01*
X105519047Y-57366666D01*
X105566666Y-57271428D01*
X105614285Y-57223809D01*
X105709523Y-57176190D01*
X105900000Y-57128571D01*
X105995238Y-57080952D01*
X106042857Y-57033333D01*
X106090476Y-56938095D01*
X106090476Y-56842857D01*
X106042857Y-56747619D01*
X105995238Y-56700000D01*
X105900000Y-56652380D01*
X105661904Y-56652380D01*
X105519047Y-56700000D01*
X104519047Y-57557142D02*
X104566666Y-57604761D01*
X104709523Y-57652380D01*
X104804761Y-57652380D01*
X104947619Y-57604761D01*
X105042857Y-57509523D01*
X105090476Y-57414285D01*
X105138095Y-57223809D01*
X105138095Y-57080952D01*
X105090476Y-56890476D01*
X105042857Y-56795238D01*
X104947619Y-56700000D01*
X104804761Y-56652380D01*
X104709523Y-56652380D01*
X104566666Y-56700000D01*
X104519047Y-56747619D01*
X103614285Y-57652380D02*
X104090476Y-57652380D01*
X104090476Y-56652380D01*
X107914285Y-60104761D02*
X107771428Y-60152380D01*
X107533333Y-60152380D01*
X107438095Y-60104761D01*
X107390476Y-60057142D01*
X107342857Y-59961904D01*
X107342857Y-59866666D01*
X107390476Y-59771428D01*
X107438095Y-59723809D01*
X107533333Y-59676190D01*
X107723809Y-59628571D01*
X107819047Y-59580952D01*
X107866666Y-59533333D01*
X107914285Y-59438095D01*
X107914285Y-59342857D01*
X107866666Y-59247619D01*
X107819047Y-59200000D01*
X107723809Y-59152380D01*
X107485714Y-59152380D01*
X107342857Y-59200000D01*
X106914285Y-60152380D02*
X106914285Y-59152380D01*
X106676190Y-59152380D01*
X106533333Y-59200000D01*
X106438095Y-59295238D01*
X106390476Y-59390476D01*
X106342857Y-59580952D01*
X106342857Y-59723809D01*
X106390476Y-59914285D01*
X106438095Y-60009523D01*
X106533333Y-60104761D01*
X106676190Y-60152380D01*
X106914285Y-60152380D01*
X105961904Y-59866666D02*
X105485714Y-59866666D01*
X106057142Y-60152380D02*
X105723809Y-59152380D01*
X105390476Y-60152380D01*
X107366666Y-55017142D02*
X107414285Y-55064761D01*
X107557142Y-55112380D01*
X107652380Y-55112380D01*
X107795238Y-55064761D01*
X107890476Y-54969523D01*
X107938095Y-54874285D01*
X107985714Y-54683809D01*
X107985714Y-54540952D01*
X107938095Y-54350476D01*
X107890476Y-54255238D01*
X107795238Y-54160000D01*
X107652380Y-54112380D01*
X107557142Y-54112380D01*
X107414285Y-54160000D01*
X107366666Y-54207619D01*
X106985714Y-55064761D02*
X106842857Y-55112380D01*
X106604761Y-55112380D01*
X106509523Y-55064761D01*
X106461904Y-55017142D01*
X106414285Y-54921904D01*
X106414285Y-54826666D01*
X106461904Y-54731428D01*
X106509523Y-54683809D01*
X106604761Y-54636190D01*
X106795238Y-54588571D01*
X106890476Y-54540952D01*
X106938095Y-54493333D01*
X106985714Y-54398095D01*
X106985714Y-54302857D01*
X106938095Y-54207619D01*
X106890476Y-54160000D01*
X106795238Y-54112380D01*
X106557142Y-54112380D01*
X106414285Y-54160000D01*
%TO.C,C14*%
X74292857Y-50207142D02*
X74340476Y-50254761D01*
X74483333Y-50302380D01*
X74578571Y-50302380D01*
X74721428Y-50254761D01*
X74816666Y-50159523D01*
X74864285Y-50064285D01*
X74911904Y-49873809D01*
X74911904Y-49730952D01*
X74864285Y-49540476D01*
X74816666Y-49445238D01*
X74721428Y-49350000D01*
X74578571Y-49302380D01*
X74483333Y-49302380D01*
X74340476Y-49350000D01*
X74292857Y-49397619D01*
X73340476Y-50302380D02*
X73911904Y-50302380D01*
X73626190Y-50302380D02*
X73626190Y-49302380D01*
X73721428Y-49445238D01*
X73816666Y-49540476D01*
X73911904Y-49588095D01*
X72483333Y-49635714D02*
X72483333Y-50302380D01*
X72721428Y-49254761D02*
X72959523Y-49969047D01*
X72340476Y-49969047D01*
%TO.C,R4*%
X78766666Y-70552380D02*
X79100000Y-70076190D01*
X79338095Y-70552380D02*
X79338095Y-69552380D01*
X78957142Y-69552380D01*
X78861904Y-69600000D01*
X78814285Y-69647619D01*
X78766666Y-69742857D01*
X78766666Y-69885714D01*
X78814285Y-69980952D01*
X78861904Y-70028571D01*
X78957142Y-70076190D01*
X79338095Y-70076190D01*
X77909523Y-69885714D02*
X77909523Y-70552380D01*
X78147619Y-69504761D02*
X78385714Y-70219047D01*
X77766666Y-70219047D01*
%TO.C,J7*%
X100833333Y-54252380D02*
X100833333Y-54966666D01*
X100880952Y-55109523D01*
X100976190Y-55204761D01*
X101119047Y-55252380D01*
X101214285Y-55252380D01*
X100452380Y-54252380D02*
X99785714Y-54252380D01*
X100214285Y-55252380D01*
X97552380Y-59509523D02*
X97552380Y-59033333D01*
X98028571Y-58985714D01*
X97980952Y-59033333D01*
X97933333Y-59128571D01*
X97933333Y-59366666D01*
X97980952Y-59461904D01*
X98028571Y-59509523D01*
X98123809Y-59557142D01*
X98361904Y-59557142D01*
X98457142Y-59509523D01*
X98504761Y-59461904D01*
X98552380Y-59366666D01*
X98552380Y-59128571D01*
X98504761Y-59033333D01*
X98457142Y-58985714D01*
X97552380Y-59842857D02*
X98552380Y-60176190D01*
X97552380Y-60509523D01*
%TO.C,C9*%
X72707142Y-68683333D02*
X72754761Y-68635714D01*
X72802380Y-68492857D01*
X72802380Y-68397619D01*
X72754761Y-68254761D01*
X72659523Y-68159523D01*
X72564285Y-68111904D01*
X72373809Y-68064285D01*
X72230952Y-68064285D01*
X72040476Y-68111904D01*
X71945238Y-68159523D01*
X71850000Y-68254761D01*
X71802380Y-68397619D01*
X71802380Y-68492857D01*
X71850000Y-68635714D01*
X71897619Y-68683333D01*
X72802380Y-69159523D02*
X72802380Y-69350000D01*
X72754761Y-69445238D01*
X72707142Y-69492857D01*
X72564285Y-69588095D01*
X72373809Y-69635714D01*
X71992857Y-69635714D01*
X71897619Y-69588095D01*
X71850000Y-69540476D01*
X71802380Y-69445238D01*
X71802380Y-69254761D01*
X71850000Y-69159523D01*
X71897619Y-69111904D01*
X71992857Y-69064285D01*
X72230952Y-69064285D01*
X72326190Y-69111904D01*
X72373809Y-69159523D01*
X72421428Y-69254761D01*
X72421428Y-69445238D01*
X72373809Y-69540476D01*
X72326190Y-69588095D01*
X72230952Y-69635714D01*
%TO.C,R8*%
X88802380Y-62583333D02*
X88326190Y-62250000D01*
X88802380Y-62011904D02*
X87802380Y-62011904D01*
X87802380Y-62392857D01*
X87850000Y-62488095D01*
X87897619Y-62535714D01*
X87992857Y-62583333D01*
X88135714Y-62583333D01*
X88230952Y-62535714D01*
X88278571Y-62488095D01*
X88326190Y-62392857D01*
X88326190Y-62011904D01*
X88230952Y-63154761D02*
X88183333Y-63059523D01*
X88135714Y-63011904D01*
X88040476Y-62964285D01*
X87992857Y-62964285D01*
X87897619Y-63011904D01*
X87850000Y-63059523D01*
X87802380Y-63154761D01*
X87802380Y-63345238D01*
X87850000Y-63440476D01*
X87897619Y-63488095D01*
X87992857Y-63535714D01*
X88040476Y-63535714D01*
X88135714Y-63488095D01*
X88183333Y-63440476D01*
X88230952Y-63345238D01*
X88230952Y-63154761D01*
X88278571Y-63059523D01*
X88326190Y-63011904D01*
X88421428Y-62964285D01*
X88611904Y-62964285D01*
X88707142Y-63011904D01*
X88754761Y-63059523D01*
X88802380Y-63154761D01*
X88802380Y-63345238D01*
X88754761Y-63440476D01*
X88707142Y-63488095D01*
X88611904Y-63535714D01*
X88421428Y-63535714D01*
X88326190Y-63488095D01*
X88278571Y-63440476D01*
X88230952Y-63345238D01*
%TO.C,R3*%
X82566666Y-66652380D02*
X82900000Y-66176190D01*
X83138095Y-66652380D02*
X83138095Y-65652380D01*
X82757142Y-65652380D01*
X82661904Y-65700000D01*
X82614285Y-65747619D01*
X82566666Y-65842857D01*
X82566666Y-65985714D01*
X82614285Y-66080952D01*
X82661904Y-66128571D01*
X82757142Y-66176190D01*
X83138095Y-66176190D01*
X82233333Y-65652380D02*
X81614285Y-65652380D01*
X81947619Y-66033333D01*
X81804761Y-66033333D01*
X81709523Y-66080952D01*
X81661904Y-66128571D01*
X81614285Y-66223809D01*
X81614285Y-66461904D01*
X81661904Y-66557142D01*
X81709523Y-66604761D01*
X81804761Y-66652380D01*
X82090476Y-66652380D01*
X82185714Y-66604761D01*
X82233333Y-66557142D01*
%TO.C,Q2*%
X78397619Y-57754761D02*
X78350000Y-57659523D01*
X78254761Y-57564285D01*
X78111904Y-57421428D01*
X78064285Y-57326190D01*
X78064285Y-57230952D01*
X78302380Y-57278571D02*
X78254761Y-57183333D01*
X78159523Y-57088095D01*
X77969047Y-57040476D01*
X77635714Y-57040476D01*
X77445238Y-57088095D01*
X77350000Y-57183333D01*
X77302380Y-57278571D01*
X77302380Y-57469047D01*
X77350000Y-57564285D01*
X77445238Y-57659523D01*
X77635714Y-57707142D01*
X77969047Y-57707142D01*
X78159523Y-57659523D01*
X78254761Y-57564285D01*
X78302380Y-57469047D01*
X78302380Y-57278571D01*
X77397619Y-58088095D02*
X77350000Y-58135714D01*
X77302380Y-58230952D01*
X77302380Y-58469047D01*
X77350000Y-58564285D01*
X77397619Y-58611904D01*
X77492857Y-58659523D01*
X77588095Y-58659523D01*
X77730952Y-58611904D01*
X78302380Y-58040476D01*
X78302380Y-58659523D01*
%TO.C,C4*%
X86657142Y-73733333D02*
X86704761Y-73685714D01*
X86752380Y-73542857D01*
X86752380Y-73447619D01*
X86704761Y-73304761D01*
X86609523Y-73209523D01*
X86514285Y-73161904D01*
X86323809Y-73114285D01*
X86180952Y-73114285D01*
X85990476Y-73161904D01*
X85895238Y-73209523D01*
X85800000Y-73304761D01*
X85752380Y-73447619D01*
X85752380Y-73542857D01*
X85800000Y-73685714D01*
X85847619Y-73733333D01*
X86085714Y-74590476D02*
X86752380Y-74590476D01*
X85704761Y-74352380D02*
X86419047Y-74114285D01*
X86419047Y-74733333D01*
%TO.C,C3*%
X83166666Y-75307142D02*
X83214285Y-75354761D01*
X83357142Y-75402380D01*
X83452380Y-75402380D01*
X83595238Y-75354761D01*
X83690476Y-75259523D01*
X83738095Y-75164285D01*
X83785714Y-74973809D01*
X83785714Y-74830952D01*
X83738095Y-74640476D01*
X83690476Y-74545238D01*
X83595238Y-74450000D01*
X83452380Y-74402380D01*
X83357142Y-74402380D01*
X83214285Y-74450000D01*
X83166666Y-74497619D01*
X82833333Y-74402380D02*
X82214285Y-74402380D01*
X82547619Y-74783333D01*
X82404761Y-74783333D01*
X82309523Y-74830952D01*
X82261904Y-74878571D01*
X82214285Y-74973809D01*
X82214285Y-75211904D01*
X82261904Y-75307142D01*
X82309523Y-75354761D01*
X82404761Y-75402380D01*
X82690476Y-75402380D01*
X82785714Y-75354761D01*
X82833333Y-75307142D01*
%TO.C,J1*%
X65291537Y-40770134D02*
X65910126Y-40412991D01*
X66010035Y-40300323D01*
X66044894Y-40170225D01*
X66014705Y-40022698D01*
X65967086Y-39940219D01*
X66657562Y-41136159D02*
X66371848Y-40641288D01*
X66514705Y-40888723D02*
X65648680Y-41388723D01*
X65724779Y-41234816D01*
X65759638Y-41104719D01*
X65753258Y-40998430D01*
X74121672Y-41038662D02*
X74009004Y-40938753D01*
X73889957Y-40732557D01*
X73883577Y-40626269D01*
X73901007Y-40561220D01*
X73959676Y-40472361D01*
X74042155Y-40424742D01*
X74148443Y-40418363D01*
X74213491Y-40435792D01*
X74302350Y-40494462D01*
X74438827Y-40635609D01*
X74527686Y-40694278D01*
X74592734Y-40711708D01*
X74699023Y-40705328D01*
X74781501Y-40657709D01*
X74840170Y-40568851D01*
X74857600Y-40503802D01*
X74851220Y-40397514D01*
X74732173Y-40191318D01*
X74619505Y-40091409D01*
X73580433Y-40196446D02*
X74446458Y-39696446D01*
X74327411Y-39490249D01*
X74214743Y-39390341D01*
X74084645Y-39355481D01*
X73978357Y-39361861D01*
X73789590Y-39415860D01*
X73665872Y-39487288D01*
X73524725Y-39623766D01*
X73466056Y-39712624D01*
X73431196Y-39842722D01*
X73461385Y-39990249D01*
X73580433Y-40196446D01*
X73351678Y-39228803D02*
X73113583Y-38816410D01*
X73151862Y-39454138D02*
X73851220Y-38665463D01*
X72818528Y-38876788D01*
X72844704Y-43826887D02*
X72732036Y-43726979D01*
X72612988Y-43520782D01*
X72606608Y-43414494D01*
X72624038Y-43349445D01*
X72682707Y-43260587D01*
X72765186Y-43212968D01*
X72871474Y-43206588D01*
X72936523Y-43224018D01*
X73025381Y-43282687D01*
X73161858Y-43423835D01*
X73250717Y-43482504D01*
X73315766Y-43499933D01*
X73422054Y-43493554D01*
X73504532Y-43445935D01*
X73563201Y-43357076D01*
X73580631Y-43292028D01*
X73574252Y-43185739D01*
X73455204Y-42979543D01*
X73342536Y-42879634D01*
X72100229Y-42442180D02*
X72082799Y-42507229D01*
X72112988Y-42654757D01*
X72160607Y-42737235D01*
X72273275Y-42837144D01*
X72403373Y-42872003D01*
X72509661Y-42865624D01*
X72698427Y-42811625D01*
X72822145Y-42740196D01*
X72963293Y-42603719D01*
X73021962Y-42514860D01*
X73056822Y-42384763D01*
X73026632Y-42237235D01*
X72979013Y-42154757D01*
X72866346Y-42054848D01*
X72801297Y-42037419D01*
X71565369Y-41706253D02*
X71803464Y-42118646D01*
X72669490Y-41618646D01*
X69024333Y-42194574D02*
X69006903Y-42259623D01*
X69037093Y-42407151D01*
X69084712Y-42489629D01*
X69197379Y-42589538D01*
X69327477Y-42624397D01*
X69433765Y-42618018D01*
X69622532Y-42564019D01*
X69746250Y-42492590D01*
X69887398Y-42356113D01*
X69946067Y-42267254D01*
X69980926Y-42137157D01*
X69950737Y-41989629D01*
X69903118Y-41907151D01*
X69790450Y-41807242D01*
X69725401Y-41789813D01*
X68792618Y-41888470D02*
X68679950Y-41788561D01*
X68560902Y-41582365D01*
X68554522Y-41476077D01*
X68571952Y-41411028D01*
X68630621Y-41322169D01*
X68713100Y-41274550D01*
X68819388Y-41268171D01*
X68884437Y-41285600D01*
X68973295Y-41344269D01*
X69109773Y-41485417D01*
X69198631Y-41544086D01*
X69263680Y-41561516D01*
X69369968Y-41555136D01*
X69452446Y-41507517D01*
X69511116Y-41418659D01*
X69528545Y-41353610D01*
X69522166Y-41247322D01*
X69403118Y-41041125D01*
X69290450Y-40941217D01*
%TO.C,R10*%
X91342857Y-60602380D02*
X91676190Y-60126190D01*
X91914285Y-60602380D02*
X91914285Y-59602380D01*
X91533333Y-59602380D01*
X91438095Y-59650000D01*
X91390476Y-59697619D01*
X91342857Y-59792857D01*
X91342857Y-59935714D01*
X91390476Y-60030952D01*
X91438095Y-60078571D01*
X91533333Y-60126190D01*
X91914285Y-60126190D01*
X90390476Y-60602380D02*
X90961904Y-60602380D01*
X90676190Y-60602380D02*
X90676190Y-59602380D01*
X90771428Y-59745238D01*
X90866666Y-59840476D01*
X90961904Y-59888095D01*
X89771428Y-59602380D02*
X89676190Y-59602380D01*
X89580952Y-59650000D01*
X89533333Y-59697619D01*
X89485714Y-59792857D01*
X89438095Y-59983333D01*
X89438095Y-60221428D01*
X89485714Y-60411904D01*
X89533333Y-60507142D01*
X89580952Y-60554761D01*
X89676190Y-60602380D01*
X89771428Y-60602380D01*
X89866666Y-60554761D01*
X89914285Y-60507142D01*
X89961904Y-60411904D01*
X90009523Y-60221428D01*
X90009523Y-59983333D01*
X89961904Y-59792857D01*
X89914285Y-59697619D01*
X89866666Y-59650000D01*
X89771428Y-59602380D01*
%TO.C,C10*%
X89042857Y-55607142D02*
X89090476Y-55654761D01*
X89233333Y-55702380D01*
X89328571Y-55702380D01*
X89471428Y-55654761D01*
X89566666Y-55559523D01*
X89614285Y-55464285D01*
X89661904Y-55273809D01*
X89661904Y-55130952D01*
X89614285Y-54940476D01*
X89566666Y-54845238D01*
X89471428Y-54750000D01*
X89328571Y-54702380D01*
X89233333Y-54702380D01*
X89090476Y-54750000D01*
X89042857Y-54797619D01*
X88090476Y-55702380D02*
X88661904Y-55702380D01*
X88376190Y-55702380D02*
X88376190Y-54702380D01*
X88471428Y-54845238D01*
X88566666Y-54940476D01*
X88661904Y-54988095D01*
X87471428Y-54702380D02*
X87376190Y-54702380D01*
X87280952Y-54750000D01*
X87233333Y-54797619D01*
X87185714Y-54892857D01*
X87138095Y-55083333D01*
X87138095Y-55321428D01*
X87185714Y-55511904D01*
X87233333Y-55607142D01*
X87280952Y-55654761D01*
X87376190Y-55702380D01*
X87471428Y-55702380D01*
X87566666Y-55654761D01*
X87614285Y-55607142D01*
X87661904Y-55511904D01*
X87709523Y-55321428D01*
X87709523Y-55083333D01*
X87661904Y-54892857D01*
X87614285Y-54797619D01*
X87566666Y-54750000D01*
X87471428Y-54702380D01*
%TO.C,C1*%
X90207142Y-52833333D02*
X90254761Y-52785714D01*
X90302380Y-52642857D01*
X90302380Y-52547619D01*
X90254761Y-52404761D01*
X90159523Y-52309523D01*
X90064285Y-52261904D01*
X89873809Y-52214285D01*
X89730952Y-52214285D01*
X89540476Y-52261904D01*
X89445238Y-52309523D01*
X89350000Y-52404761D01*
X89302380Y-52547619D01*
X89302380Y-52642857D01*
X89350000Y-52785714D01*
X89397619Y-52833333D01*
X90302380Y-53785714D02*
X90302380Y-53214285D01*
X90302380Y-53500000D02*
X89302380Y-53500000D01*
X89445238Y-53404761D01*
X89540476Y-53309523D01*
X89588095Y-53214285D01*
%TO.C,OP1*%
X76502380Y-61478571D02*
X76502380Y-61669047D01*
X76550000Y-61764285D01*
X76645238Y-61859523D01*
X76835714Y-61907142D01*
X77169047Y-61907142D01*
X77359523Y-61859523D01*
X77454761Y-61764285D01*
X77502380Y-61669047D01*
X77502380Y-61478571D01*
X77454761Y-61383333D01*
X77359523Y-61288095D01*
X77169047Y-61240476D01*
X76835714Y-61240476D01*
X76645238Y-61288095D01*
X76550000Y-61383333D01*
X76502380Y-61478571D01*
X77502380Y-62335714D02*
X76502380Y-62335714D01*
X76502380Y-62716666D01*
X76550000Y-62811904D01*
X76597619Y-62859523D01*
X76692857Y-62907142D01*
X76835714Y-62907142D01*
X76930952Y-62859523D01*
X76978571Y-62811904D01*
X77026190Y-62716666D01*
X77026190Y-62335714D01*
X77502380Y-63859523D02*
X77502380Y-63288095D01*
X77502380Y-63573809D02*
X76502380Y-63573809D01*
X76645238Y-63478571D01*
X76740476Y-63383333D01*
X76788095Y-63288095D01*
%TO.C,C6*%
X69757142Y-61033333D02*
X69804761Y-60985714D01*
X69852380Y-60842857D01*
X69852380Y-60747619D01*
X69804761Y-60604761D01*
X69709523Y-60509523D01*
X69614285Y-60461904D01*
X69423809Y-60414285D01*
X69280952Y-60414285D01*
X69090476Y-60461904D01*
X68995238Y-60509523D01*
X68900000Y-60604761D01*
X68852380Y-60747619D01*
X68852380Y-60842857D01*
X68900000Y-60985714D01*
X68947619Y-61033333D01*
X68852380Y-61890476D02*
X68852380Y-61700000D01*
X68900000Y-61604761D01*
X68947619Y-61557142D01*
X69090476Y-61461904D01*
X69280952Y-61414285D01*
X69661904Y-61414285D01*
X69757142Y-61461904D01*
X69804761Y-61509523D01*
X69852380Y-61604761D01*
X69852380Y-61795238D01*
X69804761Y-61890476D01*
X69757142Y-61938095D01*
X69661904Y-61985714D01*
X69423809Y-61985714D01*
X69328571Y-61938095D01*
X69280952Y-61890476D01*
X69233333Y-61795238D01*
X69233333Y-61604761D01*
X69280952Y-61509523D01*
X69328571Y-61461904D01*
X69423809Y-61414285D01*
%TO.C,C15*%
X87607142Y-51507142D02*
X87654761Y-51459523D01*
X87702380Y-51316666D01*
X87702380Y-51221428D01*
X87654761Y-51078571D01*
X87559523Y-50983333D01*
X87464285Y-50935714D01*
X87273809Y-50888095D01*
X87130952Y-50888095D01*
X86940476Y-50935714D01*
X86845238Y-50983333D01*
X86750000Y-51078571D01*
X86702380Y-51221428D01*
X86702380Y-51316666D01*
X86750000Y-51459523D01*
X86797619Y-51507142D01*
X87702380Y-52459523D02*
X87702380Y-51888095D01*
X87702380Y-52173809D02*
X86702380Y-52173809D01*
X86845238Y-52078571D01*
X86940476Y-51983333D01*
X86988095Y-51888095D01*
X86702380Y-53364285D02*
X86702380Y-52888095D01*
X87178571Y-52840476D01*
X87130952Y-52888095D01*
X87083333Y-52983333D01*
X87083333Y-53221428D01*
X87130952Y-53316666D01*
X87178571Y-53364285D01*
X87273809Y-53411904D01*
X87511904Y-53411904D01*
X87607142Y-53364285D01*
X87654761Y-53316666D01*
X87702380Y-53221428D01*
X87702380Y-52983333D01*
X87654761Y-52888095D01*
X87607142Y-52840476D01*
%TO.C,C12*%
X74842857Y-58757142D02*
X74890476Y-58804761D01*
X75033333Y-58852380D01*
X75128571Y-58852380D01*
X75271428Y-58804761D01*
X75366666Y-58709523D01*
X75414285Y-58614285D01*
X75461904Y-58423809D01*
X75461904Y-58280952D01*
X75414285Y-58090476D01*
X75366666Y-57995238D01*
X75271428Y-57900000D01*
X75128571Y-57852380D01*
X75033333Y-57852380D01*
X74890476Y-57900000D01*
X74842857Y-57947619D01*
X73890476Y-58852380D02*
X74461904Y-58852380D01*
X74176190Y-58852380D02*
X74176190Y-57852380D01*
X74271428Y-57995238D01*
X74366666Y-58090476D01*
X74461904Y-58138095D01*
X73509523Y-57947619D02*
X73461904Y-57900000D01*
X73366666Y-57852380D01*
X73128571Y-57852380D01*
X73033333Y-57900000D01*
X72985714Y-57947619D01*
X72938095Y-58042857D01*
X72938095Y-58138095D01*
X72985714Y-58280952D01*
X73557142Y-58852380D01*
X72938095Y-58852380D01*
%TO.C,R7*%
X95316666Y-33952380D02*
X95650000Y-33476190D01*
X95888095Y-33952380D02*
X95888095Y-32952380D01*
X95507142Y-32952380D01*
X95411904Y-33000000D01*
X95364285Y-33047619D01*
X95316666Y-33142857D01*
X95316666Y-33285714D01*
X95364285Y-33380952D01*
X95411904Y-33428571D01*
X95507142Y-33476190D01*
X95888095Y-33476190D01*
X94983333Y-32952380D02*
X94316666Y-32952380D01*
X94745238Y-33952380D01*
%TO.C,J6*%
X96674870Y-35302515D02*
X97293460Y-35659658D01*
X97440987Y-35689847D01*
X97571085Y-35654987D01*
X97683753Y-35555079D01*
X97731372Y-35472600D01*
X96222489Y-36086062D02*
X96317727Y-35921104D01*
X96406586Y-35862435D01*
X96471634Y-35845006D01*
X96642971Y-35833956D01*
X96831738Y-35887954D01*
X97161653Y-36078430D01*
X97220322Y-36167289D01*
X97237751Y-36232338D01*
X97231372Y-36338626D01*
X97136134Y-36503583D01*
X97047275Y-36562252D01*
X96982226Y-36579682D01*
X96875938Y-36573302D01*
X96669742Y-36454255D01*
X96611073Y-36365396D01*
X96593643Y-36300347D01*
X96600023Y-36194059D01*
X96695261Y-36029102D01*
X96784119Y-35970433D01*
X96849168Y-35953003D01*
X96955456Y-35959383D01*
X99695772Y-41714922D02*
X99665582Y-41862449D01*
X99546535Y-42068646D01*
X99457676Y-42127315D01*
X99392628Y-42144745D01*
X99286339Y-42138365D01*
X99203861Y-42090746D01*
X99145192Y-42001888D01*
X99127762Y-41936839D01*
X99134142Y-41830551D01*
X99188141Y-41641784D01*
X99194520Y-41535496D01*
X99177091Y-41470447D01*
X99118421Y-41381588D01*
X99035943Y-41333969D01*
X98929655Y-41327590D01*
X98864606Y-41345019D01*
X98775747Y-41403689D01*
X98656700Y-41609885D01*
X98626511Y-41757413D01*
X98868818Y-43052009D02*
X98933867Y-43034580D01*
X99046535Y-42934671D01*
X99094154Y-42852193D01*
X99124343Y-42704665D01*
X99089484Y-42574567D01*
X99030814Y-42485709D01*
X98889667Y-42349232D01*
X98765949Y-42277803D01*
X98577182Y-42223804D01*
X98470894Y-42217425D01*
X98340796Y-42252284D01*
X98228128Y-42352193D01*
X98180509Y-42434671D01*
X98150320Y-42582199D01*
X98167750Y-42647247D01*
X98498916Y-43883175D02*
X98737011Y-43470782D01*
X97870986Y-42970782D01*
X98092923Y-39315899D02*
X98157971Y-39298470D01*
X98270639Y-39198561D01*
X98318258Y-39116083D01*
X98348448Y-38968555D01*
X98313588Y-38838457D01*
X98254919Y-38749599D01*
X98113771Y-38613122D01*
X97990053Y-38541693D01*
X97801287Y-38487694D01*
X97694999Y-38481315D01*
X97564901Y-38516174D01*
X97452233Y-38616083D01*
X97404614Y-38698561D01*
X97374425Y-38846089D01*
X97391854Y-38911137D01*
X97943686Y-39669623D02*
X97913496Y-39817151D01*
X97794449Y-40023347D01*
X97705590Y-40082016D01*
X97640542Y-40099446D01*
X97534254Y-40093066D01*
X97451775Y-40045447D01*
X97393106Y-39956589D01*
X97375676Y-39891540D01*
X97382056Y-39785252D01*
X97436055Y-39596485D01*
X97442434Y-39490197D01*
X97425005Y-39425148D01*
X97366335Y-39336290D01*
X97283857Y-39288671D01*
X97177569Y-39282291D01*
X97112520Y-39299721D01*
X97023662Y-39358390D01*
X96904614Y-39564587D01*
X96874425Y-39712114D01*
X102772740Y-41385457D02*
X102742551Y-41532985D01*
X102623504Y-41739181D01*
X102534645Y-41797850D01*
X102469596Y-41815280D01*
X102363308Y-41808900D01*
X102280830Y-41761281D01*
X102222161Y-41672423D01*
X102204731Y-41607374D01*
X102211111Y-41501086D01*
X102265109Y-41312319D01*
X102271489Y-41206031D01*
X102254059Y-41140982D01*
X102195390Y-41052124D01*
X102112912Y-41004505D01*
X102006623Y-40998125D01*
X101941575Y-41015555D01*
X101852716Y-41074224D01*
X101733669Y-41280420D01*
X101703479Y-41427948D01*
X102313980Y-42275292D02*
X101447954Y-41775292D01*
X101328907Y-41981489D01*
X101298717Y-42129016D01*
X101333577Y-42259114D01*
X101392246Y-42347972D01*
X101533394Y-42484449D01*
X101657112Y-42555878D01*
X101845878Y-42609877D01*
X101952167Y-42616257D01*
X102082264Y-42581397D01*
X102194932Y-42481489D01*
X102313980Y-42275292D01*
X101590353Y-42957221D02*
X101352258Y-43369614D01*
X101885408Y-43017600D02*
X100852716Y-42806275D01*
X101552075Y-43594950D01*
%TO.C,R1*%
X90266666Y-36252380D02*
X90600000Y-35776190D01*
X90838095Y-36252380D02*
X90838095Y-35252380D01*
X90457142Y-35252380D01*
X90361904Y-35300000D01*
X90314285Y-35347619D01*
X90266666Y-35442857D01*
X90266666Y-35585714D01*
X90314285Y-35680952D01*
X90361904Y-35728571D01*
X90457142Y-35776190D01*
X90838095Y-35776190D01*
X89314285Y-36252380D02*
X89885714Y-36252380D01*
X89600000Y-36252380D02*
X89600000Y-35252380D01*
X89695238Y-35395238D01*
X89790476Y-35490476D01*
X89885714Y-35538095D01*
%TO.C,U2*%
X93811904Y-42002380D02*
X93811904Y-42811904D01*
X93764285Y-42907142D01*
X93716666Y-42954761D01*
X93621428Y-43002380D01*
X93430952Y-43002380D01*
X93335714Y-42954761D01*
X93288095Y-42907142D01*
X93240476Y-42811904D01*
X93240476Y-42002380D01*
X92811904Y-42097619D02*
X92764285Y-42050000D01*
X92669047Y-42002380D01*
X92430952Y-42002380D01*
X92335714Y-42050000D01*
X92288095Y-42097619D01*
X92240476Y-42192857D01*
X92240476Y-42288095D01*
X92288095Y-42430952D01*
X92859523Y-43002380D01*
X92240476Y-43002380D01*
%TO.C,C8*%
X88016666Y-66577142D02*
X88064285Y-66624761D01*
X88207142Y-66672380D01*
X88302380Y-66672380D01*
X88445238Y-66624761D01*
X88540476Y-66529523D01*
X88588095Y-66434285D01*
X88635714Y-66243809D01*
X88635714Y-66100952D01*
X88588095Y-65910476D01*
X88540476Y-65815238D01*
X88445238Y-65720000D01*
X88302380Y-65672380D01*
X88207142Y-65672380D01*
X88064285Y-65720000D01*
X88016666Y-65767619D01*
X87445238Y-66100952D02*
X87540476Y-66053333D01*
X87588095Y-66005714D01*
X87635714Y-65910476D01*
X87635714Y-65862857D01*
X87588095Y-65767619D01*
X87540476Y-65720000D01*
X87445238Y-65672380D01*
X87254761Y-65672380D01*
X87159523Y-65720000D01*
X87111904Y-65767619D01*
X87064285Y-65862857D01*
X87064285Y-65910476D01*
X87111904Y-66005714D01*
X87159523Y-66053333D01*
X87254761Y-66100952D01*
X87445238Y-66100952D01*
X87540476Y-66148571D01*
X87588095Y-66196190D01*
X87635714Y-66291428D01*
X87635714Y-66481904D01*
X87588095Y-66577142D01*
X87540476Y-66624761D01*
X87445238Y-66672380D01*
X87254761Y-66672380D01*
X87159523Y-66624761D01*
X87111904Y-66577142D01*
X87064285Y-66481904D01*
X87064285Y-66291428D01*
X87111904Y-66196190D01*
X87159523Y-66148571D01*
X87254761Y-66100952D01*
%TO.C,Q1*%
X83597619Y-54604761D02*
X83550000Y-54509523D01*
X83454761Y-54414285D01*
X83311904Y-54271428D01*
X83264285Y-54176190D01*
X83264285Y-54080952D01*
X83502380Y-54128571D02*
X83454761Y-54033333D01*
X83359523Y-53938095D01*
X83169047Y-53890476D01*
X82835714Y-53890476D01*
X82645238Y-53938095D01*
X82550000Y-54033333D01*
X82502380Y-54128571D01*
X82502380Y-54319047D01*
X82550000Y-54414285D01*
X82645238Y-54509523D01*
X82835714Y-54557142D01*
X83169047Y-54557142D01*
X83359523Y-54509523D01*
X83454761Y-54414285D01*
X83502380Y-54319047D01*
X83502380Y-54128571D01*
X83502380Y-55509523D02*
X83502380Y-54938095D01*
X83502380Y-55223809D02*
X82502380Y-55223809D01*
X82645238Y-55128571D01*
X82740476Y-55033333D01*
X82788095Y-54938095D01*
%TO.C,R11*%
X98042857Y-66902380D02*
X98376190Y-66426190D01*
X98614285Y-66902380D02*
X98614285Y-65902380D01*
X98233333Y-65902380D01*
X98138095Y-65950000D01*
X98090476Y-65997619D01*
X98042857Y-66092857D01*
X98042857Y-66235714D01*
X98090476Y-66330952D01*
X98138095Y-66378571D01*
X98233333Y-66426190D01*
X98614285Y-66426190D01*
X97090476Y-66902380D02*
X97661904Y-66902380D01*
X97376190Y-66902380D02*
X97376190Y-65902380D01*
X97471428Y-66045238D01*
X97566666Y-66140476D01*
X97661904Y-66188095D01*
X96138095Y-66902380D02*
X96709523Y-66902380D01*
X96423809Y-66902380D02*
X96423809Y-65902380D01*
X96519047Y-66045238D01*
X96614285Y-66140476D01*
X96709523Y-66188095D01*
%TO.C,L1*%
X85816666Y-46402380D02*
X86292857Y-46402380D01*
X86292857Y-45402380D01*
X84959523Y-46402380D02*
X85530952Y-46402380D01*
X85245238Y-46402380D02*
X85245238Y-45402380D01*
X85340476Y-45545238D01*
X85435714Y-45640476D01*
X85530952Y-45688095D01*
%TO.C,D1*%
X79202380Y-38711904D02*
X78202380Y-38711904D01*
X78202380Y-38950000D01*
X78250000Y-39092857D01*
X78345238Y-39188095D01*
X78440476Y-39235714D01*
X78630952Y-39283333D01*
X78773809Y-39283333D01*
X78964285Y-39235714D01*
X79059523Y-39188095D01*
X79154761Y-39092857D01*
X79202380Y-38950000D01*
X79202380Y-38711904D01*
X79202380Y-40235714D02*
X79202380Y-39664285D01*
X79202380Y-39950000D02*
X78202380Y-39950000D01*
X78345238Y-39854761D01*
X78440476Y-39759523D01*
X78488095Y-39664285D01*
%TO.C,U1*%
X93302380Y-72288095D02*
X94111904Y-72288095D01*
X94207142Y-72335714D01*
X94254761Y-72383333D01*
X94302380Y-72478571D01*
X94302380Y-72669047D01*
X94254761Y-72764285D01*
X94207142Y-72811904D01*
X94111904Y-72859523D01*
X93302380Y-72859523D01*
X94302380Y-73859523D02*
X94302380Y-73288095D01*
X94302380Y-73573809D02*
X93302380Y-73573809D01*
X93445238Y-73478571D01*
X93540476Y-73383333D01*
X93588095Y-73288095D01*
%TO.C,C7*%
X87316666Y-29107142D02*
X87364285Y-29154761D01*
X87507142Y-29202380D01*
X87602380Y-29202380D01*
X87745238Y-29154761D01*
X87840476Y-29059523D01*
X87888095Y-28964285D01*
X87935714Y-28773809D01*
X87935714Y-28630952D01*
X87888095Y-28440476D01*
X87840476Y-28345238D01*
X87745238Y-28250000D01*
X87602380Y-28202380D01*
X87507142Y-28202380D01*
X87364285Y-28250000D01*
X87316666Y-28297619D01*
X86983333Y-28202380D02*
X86316666Y-28202380D01*
X86745238Y-29202380D01*
%TO.C,J2*%
X61933333Y-61522380D02*
X61933333Y-62236666D01*
X61980952Y-62379523D01*
X62076190Y-62474761D01*
X62219047Y-62522380D01*
X62314285Y-62522380D01*
X61504761Y-61617619D02*
X61457142Y-61570000D01*
X61361904Y-61522380D01*
X61123809Y-61522380D01*
X61028571Y-61570000D01*
X60980952Y-61617619D01*
X60933333Y-61712857D01*
X60933333Y-61808095D01*
X60980952Y-61950952D01*
X61552380Y-62522380D01*
X60933333Y-62522380D01*
X65914285Y-55104761D02*
X65771428Y-55152380D01*
X65533333Y-55152380D01*
X65438095Y-55104761D01*
X65390476Y-55057142D01*
X65342857Y-54961904D01*
X65342857Y-54866666D01*
X65390476Y-54771428D01*
X65438095Y-54723809D01*
X65533333Y-54676190D01*
X65723809Y-54628571D01*
X65819047Y-54580952D01*
X65866666Y-54533333D01*
X65914285Y-54438095D01*
X65914285Y-54342857D01*
X65866666Y-54247619D01*
X65819047Y-54200000D01*
X65723809Y-54152380D01*
X65485714Y-54152380D01*
X65342857Y-54200000D01*
X64914285Y-55152380D02*
X64914285Y-54152380D01*
X64676190Y-54152380D01*
X64533333Y-54200000D01*
X64438095Y-54295238D01*
X64390476Y-54390476D01*
X64342857Y-54580952D01*
X64342857Y-54723809D01*
X64390476Y-54914285D01*
X64438095Y-55009523D01*
X64533333Y-55104761D01*
X64676190Y-55152380D01*
X64914285Y-55152380D01*
X63961904Y-54866666D02*
X63485714Y-54866666D01*
X64057142Y-55152380D02*
X63723809Y-54152380D01*
X63390476Y-55152380D01*
X64366666Y-60097142D02*
X64414285Y-60144761D01*
X64557142Y-60192380D01*
X64652380Y-60192380D01*
X64795238Y-60144761D01*
X64890476Y-60049523D01*
X64938095Y-59954285D01*
X64985714Y-59763809D01*
X64985714Y-59620952D01*
X64938095Y-59430476D01*
X64890476Y-59335238D01*
X64795238Y-59240000D01*
X64652380Y-59192380D01*
X64557142Y-59192380D01*
X64414285Y-59240000D01*
X64366666Y-59287619D01*
X63985714Y-60144761D02*
X63842857Y-60192380D01*
X63604761Y-60192380D01*
X63509523Y-60144761D01*
X63461904Y-60097142D01*
X63414285Y-60001904D01*
X63414285Y-59906666D01*
X63461904Y-59811428D01*
X63509523Y-59763809D01*
X63604761Y-59716190D01*
X63795238Y-59668571D01*
X63890476Y-59620952D01*
X63938095Y-59573333D01*
X63985714Y-59478095D01*
X63985714Y-59382857D01*
X63938095Y-59287619D01*
X63890476Y-59240000D01*
X63795238Y-59192380D01*
X63557142Y-59192380D01*
X63414285Y-59240000D01*
X67690476Y-57604761D02*
X67547619Y-57652380D01*
X67309523Y-57652380D01*
X67214285Y-57604761D01*
X67166666Y-57557142D01*
X67119047Y-57461904D01*
X67119047Y-57366666D01*
X67166666Y-57271428D01*
X67214285Y-57223809D01*
X67309523Y-57176190D01*
X67500000Y-57128571D01*
X67595238Y-57080952D01*
X67642857Y-57033333D01*
X67690476Y-56938095D01*
X67690476Y-56842857D01*
X67642857Y-56747619D01*
X67595238Y-56700000D01*
X67500000Y-56652380D01*
X67261904Y-56652380D01*
X67119047Y-56700000D01*
X66119047Y-57557142D02*
X66166666Y-57604761D01*
X66309523Y-57652380D01*
X66404761Y-57652380D01*
X66547619Y-57604761D01*
X66642857Y-57509523D01*
X66690476Y-57414285D01*
X66738095Y-57223809D01*
X66738095Y-57080952D01*
X66690476Y-56890476D01*
X66642857Y-56795238D01*
X66547619Y-56700000D01*
X66404761Y-56652380D01*
X66309523Y-56652380D01*
X66166666Y-56700000D01*
X66119047Y-56747619D01*
X65214285Y-57652380D02*
X65690476Y-57652380D01*
X65690476Y-56652380D01*
%TO.C,C11*%
X99042857Y-48457142D02*
X99090476Y-48504761D01*
X99233333Y-48552380D01*
X99328571Y-48552380D01*
X99471428Y-48504761D01*
X99566666Y-48409523D01*
X99614285Y-48314285D01*
X99661904Y-48123809D01*
X99661904Y-47980952D01*
X99614285Y-47790476D01*
X99566666Y-47695238D01*
X99471428Y-47600000D01*
X99328571Y-47552380D01*
X99233333Y-47552380D01*
X99090476Y-47600000D01*
X99042857Y-47647619D01*
X98090476Y-48552380D02*
X98661904Y-48552380D01*
X98376190Y-48552380D02*
X98376190Y-47552380D01*
X98471428Y-47695238D01*
X98566666Y-47790476D01*
X98661904Y-47838095D01*
X97138095Y-48552380D02*
X97709523Y-48552380D01*
X97423809Y-48552380D02*
X97423809Y-47552380D01*
X97519047Y-47695238D01*
X97614285Y-47790476D01*
X97709523Y-47838095D01*
%TO.C,C5*%
X71566666Y-67007142D02*
X71614285Y-67054761D01*
X71757142Y-67102380D01*
X71852380Y-67102380D01*
X71995238Y-67054761D01*
X72090476Y-66959523D01*
X72138095Y-66864285D01*
X72185714Y-66673809D01*
X72185714Y-66530952D01*
X72138095Y-66340476D01*
X72090476Y-66245238D01*
X71995238Y-66150000D01*
X71852380Y-66102380D01*
X71757142Y-66102380D01*
X71614285Y-66150000D01*
X71566666Y-66197619D01*
X70661904Y-66102380D02*
X71138095Y-66102380D01*
X71185714Y-66578571D01*
X71138095Y-66530952D01*
X71042857Y-66483333D01*
X70804761Y-66483333D01*
X70709523Y-66530952D01*
X70661904Y-66578571D01*
X70614285Y-66673809D01*
X70614285Y-66911904D01*
X70661904Y-67007142D01*
X70709523Y-67054761D01*
X70804761Y-67102380D01*
X71042857Y-67102380D01*
X71138095Y-67054761D01*
X71185714Y-67007142D01*
%TO.C,J3*%
X74009958Y-77872515D02*
X74628548Y-78229658D01*
X74776075Y-78259847D01*
X74906173Y-78224987D01*
X75018841Y-78125079D01*
X75066460Y-78042600D01*
X73819482Y-78202429D02*
X73509958Y-78738540D01*
X74006539Y-78640341D01*
X73935111Y-78764059D01*
X73928731Y-78870347D01*
X73946161Y-78935396D01*
X74004830Y-79024255D01*
X74211026Y-79143302D01*
X74317314Y-79149682D01*
X74382363Y-79132252D01*
X74471222Y-79073583D01*
X74614079Y-78826147D01*
X74620459Y-78719859D01*
X74603029Y-78654810D01*
X73345772Y-71271398D02*
X73315582Y-71418925D01*
X73196535Y-71625122D01*
X73107676Y-71683791D01*
X73042628Y-71701221D01*
X72936339Y-71694841D01*
X72853861Y-71647222D01*
X72795192Y-71558364D01*
X72777762Y-71493315D01*
X72784142Y-71387027D01*
X72838141Y-71198260D01*
X72844520Y-71091972D01*
X72827091Y-71026923D01*
X72768421Y-70938064D01*
X72685943Y-70890445D01*
X72579655Y-70884066D01*
X72514606Y-70901495D01*
X72425747Y-70960165D01*
X72306700Y-71166361D01*
X72276511Y-71313889D01*
X72518818Y-72608485D02*
X72583867Y-72591056D01*
X72696535Y-72491147D01*
X72744154Y-72408669D01*
X72774343Y-72261141D01*
X72739484Y-72131043D01*
X72680814Y-72042185D01*
X72539667Y-71905708D01*
X72415949Y-71834279D01*
X72227182Y-71780280D01*
X72120894Y-71773901D01*
X71990796Y-71808760D01*
X71878128Y-71908669D01*
X71830509Y-71991147D01*
X71800320Y-72138675D01*
X71817750Y-72203723D01*
X72148916Y-73439651D02*
X72387011Y-73027258D01*
X71520986Y-72527258D01*
X70442612Y-71216099D02*
X70412423Y-71363627D01*
X70293376Y-71569823D01*
X70204517Y-71628492D01*
X70139468Y-71645922D01*
X70033180Y-71639542D01*
X69950702Y-71591923D01*
X69892033Y-71503065D01*
X69874603Y-71438016D01*
X69880983Y-71331728D01*
X69934981Y-71142961D01*
X69941361Y-71036673D01*
X69923931Y-70971624D01*
X69865262Y-70882766D01*
X69782784Y-70835147D01*
X69676495Y-70828767D01*
X69611447Y-70846197D01*
X69522588Y-70904866D01*
X69403541Y-71111062D01*
X69373351Y-71258590D01*
X69983852Y-72105934D02*
X69117826Y-71605934D01*
X68998779Y-71812131D01*
X68968589Y-71959658D01*
X69003449Y-72089756D01*
X69062118Y-72178614D01*
X69203266Y-72315091D01*
X69326984Y-72386520D01*
X69515750Y-72440519D01*
X69622039Y-72446899D01*
X69752136Y-72412039D01*
X69864804Y-72312131D01*
X69983852Y-72105934D01*
X69260225Y-72787863D02*
X69022130Y-73200256D01*
X69555280Y-72848242D02*
X68522588Y-72636917D01*
X69221947Y-73425592D01*
X73992333Y-75052567D02*
X74057381Y-75035138D01*
X74170049Y-74935229D01*
X74217668Y-74852751D01*
X74247858Y-74705223D01*
X74212998Y-74575125D01*
X74154329Y-74486267D01*
X74013181Y-74349790D01*
X73889463Y-74278361D01*
X73700697Y-74224362D01*
X73594409Y-74217983D01*
X73464311Y-74252842D01*
X73351643Y-74352751D01*
X73304024Y-74435229D01*
X73273835Y-74582757D01*
X73291264Y-74647805D01*
X73843096Y-75406291D02*
X73812906Y-75553819D01*
X73693859Y-75760015D01*
X73605000Y-75818684D01*
X73539952Y-75836114D01*
X73433664Y-75829734D01*
X73351185Y-75782115D01*
X73292516Y-75693257D01*
X73275086Y-75628208D01*
X73281466Y-75521920D01*
X73335465Y-75333153D01*
X73341844Y-75226865D01*
X73324415Y-75161816D01*
X73265745Y-75072958D01*
X73183267Y-75025339D01*
X73076979Y-75018959D01*
X73011930Y-75036389D01*
X72923072Y-75095058D01*
X72804024Y-75301255D01*
X72773835Y-75448782D01*
%TO.C,J4*%
X104776625Y-73550134D02*
X105395214Y-73192991D01*
X105495123Y-73080323D01*
X105529982Y-72950225D01*
X105499793Y-72802698D01*
X105452174Y-72720219D01*
X105517681Y-74167014D02*
X106095031Y-73833681D01*
X105068719Y-74151294D02*
X105568261Y-73587954D01*
X105877785Y-74124065D01*
X97741544Y-75819304D02*
X97628876Y-75719395D01*
X97509829Y-75513199D01*
X97503449Y-75406911D01*
X97520879Y-75341862D01*
X97579548Y-75253003D01*
X97662027Y-75205384D01*
X97768315Y-75199005D01*
X97833363Y-75216434D01*
X97922222Y-75275104D01*
X98058699Y-75416251D01*
X98147558Y-75474920D01*
X98212606Y-75492350D01*
X98318895Y-75485970D01*
X98401373Y-75438351D01*
X98460042Y-75349493D01*
X98477472Y-75284444D01*
X98471092Y-75178156D01*
X98352045Y-74971960D01*
X98239377Y-74872051D01*
X97200305Y-74977088D02*
X98066330Y-74477088D01*
X97947283Y-74270891D01*
X97834615Y-74170983D01*
X97704517Y-74136123D01*
X97598229Y-74142503D01*
X97409462Y-74196502D01*
X97285744Y-74267930D01*
X97144597Y-74404408D01*
X97085928Y-74493266D01*
X97051068Y-74623364D01*
X97081257Y-74770891D01*
X97200305Y-74977088D01*
X96971550Y-74009445D02*
X96733455Y-73597052D01*
X96771734Y-74234780D02*
X97471092Y-73446105D01*
X96438400Y-73657430D01*
X98994704Y-72989839D02*
X98882036Y-72889931D01*
X98762988Y-72683734D01*
X98756608Y-72577446D01*
X98774038Y-72512397D01*
X98832707Y-72423539D01*
X98915186Y-72375920D01*
X99021474Y-72369540D01*
X99086523Y-72386970D01*
X99175381Y-72445639D01*
X99311858Y-72586787D01*
X99400717Y-72645456D01*
X99465766Y-72662885D01*
X99572054Y-72656506D01*
X99654532Y-72608887D01*
X99713201Y-72520028D01*
X99730631Y-72454980D01*
X99724252Y-72348691D01*
X99605204Y-72142495D01*
X99492536Y-72042586D01*
X98250229Y-71605132D02*
X98232799Y-71670181D01*
X98262988Y-71817709D01*
X98310607Y-71900187D01*
X98423275Y-72000096D01*
X98553373Y-72034955D01*
X98659661Y-72028576D01*
X98848427Y-71974577D01*
X98972145Y-71903148D01*
X99113293Y-71766671D01*
X99171962Y-71677812D01*
X99206822Y-71547715D01*
X99176632Y-71400187D01*
X99129013Y-71317709D01*
X99016346Y-71217800D01*
X98951297Y-71200371D01*
X97715369Y-70869205D02*
X97953464Y-71281598D01*
X98819490Y-70781598D01*
X101873743Y-72801242D02*
X101856313Y-72866291D01*
X101886503Y-73013819D01*
X101934122Y-73096297D01*
X102046789Y-73196206D01*
X102176887Y-73231065D01*
X102283175Y-73224686D01*
X102471942Y-73170687D01*
X102595660Y-73099258D01*
X102736808Y-72962781D01*
X102795477Y-72873922D01*
X102830336Y-72743825D01*
X102800147Y-72596297D01*
X102752528Y-72513819D01*
X102639860Y-72413910D01*
X102574811Y-72396481D01*
X101642028Y-72495138D02*
X101529360Y-72395229D01*
X101410312Y-72189033D01*
X101403932Y-72082745D01*
X101421362Y-72017696D01*
X101480031Y-71928837D01*
X101562510Y-71881218D01*
X101668798Y-71874839D01*
X101733847Y-71892268D01*
X101822705Y-71950937D01*
X101959183Y-72092085D01*
X102048041Y-72150754D01*
X102113090Y-72168184D01*
X102219378Y-72161804D01*
X102301856Y-72114185D01*
X102360526Y-72025327D01*
X102377955Y-71960278D01*
X102371576Y-71853990D01*
X102252528Y-71647793D01*
X102139860Y-71547885D01*
%TO.C,R9*%
X81802380Y-68183333D02*
X81326190Y-67850000D01*
X81802380Y-67611904D02*
X80802380Y-67611904D01*
X80802380Y-67992857D01*
X80850000Y-68088095D01*
X80897619Y-68135714D01*
X80992857Y-68183333D01*
X81135714Y-68183333D01*
X81230952Y-68135714D01*
X81278571Y-68088095D01*
X81326190Y-67992857D01*
X81326190Y-67611904D01*
X81802380Y-68659523D02*
X81802380Y-68850000D01*
X81754761Y-68945238D01*
X81707142Y-68992857D01*
X81564285Y-69088095D01*
X81373809Y-69135714D01*
X80992857Y-69135714D01*
X80897619Y-69088095D01*
X80850000Y-69040476D01*
X80802380Y-68945238D01*
X80802380Y-68754761D01*
X80850000Y-68659523D01*
X80897619Y-68611904D01*
X80992857Y-68564285D01*
X81230952Y-68564285D01*
X81326190Y-68611904D01*
X81373809Y-68659523D01*
X81421428Y-68754761D01*
X81421428Y-68945238D01*
X81373809Y-69040476D01*
X81326190Y-69088095D01*
X81230952Y-69135714D01*
%TO.C,C13*%
X80557142Y-31857142D02*
X80604761Y-31809523D01*
X80652380Y-31666666D01*
X80652380Y-31571428D01*
X80604761Y-31428571D01*
X80509523Y-31333333D01*
X80414285Y-31285714D01*
X80223809Y-31238095D01*
X80080952Y-31238095D01*
X79890476Y-31285714D01*
X79795238Y-31333333D01*
X79700000Y-31428571D01*
X79652380Y-31571428D01*
X79652380Y-31666666D01*
X79700000Y-31809523D01*
X79747619Y-31857142D01*
X80652380Y-32809523D02*
X80652380Y-32238095D01*
X80652380Y-32523809D02*
X79652380Y-32523809D01*
X79795238Y-32428571D01*
X79890476Y-32333333D01*
X79938095Y-32238095D01*
X79652380Y-33142857D02*
X79652380Y-33761904D01*
X80033333Y-33428571D01*
X80033333Y-33571428D01*
X80080952Y-33666666D01*
X80128571Y-33714285D01*
X80223809Y-33761904D01*
X80461904Y-33761904D01*
X80557142Y-33714285D01*
X80604761Y-33666666D01*
X80652380Y-33571428D01*
X80652380Y-33285714D01*
X80604761Y-33190476D01*
X80557142Y-33142857D01*
%TO.C,TP3*%
X92200000Y-67900000D02*
G75*
G03*
X92200000Y-67900000I-1400000J0D01*
G01*
D12*
%TO.C,C2*%
X77511252Y-34190000D02*
X76088748Y-34190000D01*
X77511252Y-36010000D02*
X76088748Y-36010000D01*
D11*
%TO.C,TP2*%
X72500000Y-54650000D02*
G75*
G03*
X72500000Y-54650000I-1400000J0D01*
G01*
%TO.C,TP1*%
X83800000Y-34000000D02*
G75*
G03*
X83800000Y-34000000I-1400000J0D01*
G01*
D12*
%TO.C,R2*%
X88922936Y-37315000D02*
X89377064Y-37315000D01*
X88922936Y-38785000D02*
X89377064Y-38785000D01*
%TO.C,J5*%
X111130000Y-53330000D02*
X108470000Y-53330000D01*
X108470000Y-57960000D02*
X108470000Y-61070000D01*
X111130000Y-55420000D02*
X111130000Y-58980000D01*
X111130000Y-53330000D02*
X111130000Y-53900000D01*
X108470000Y-53330000D02*
X108470000Y-56440000D01*
X111130000Y-61070000D02*
X108470000Y-61070000D01*
X108470000Y-60500000D02*
X108470000Y-61070000D01*
X111130000Y-53900000D02*
X112650000Y-53900000D01*
%TO.C,C14*%
X76511252Y-50990000D02*
X75088748Y-50990000D01*
X76511252Y-52810000D02*
X75088748Y-52810000D01*
%TO.C,R4*%
X77877064Y-69035000D02*
X77422936Y-69035000D01*
X77877064Y-67565000D02*
X77422936Y-67565000D01*
%TO.C,J7*%
X101530000Y-58630000D02*
X101530000Y-60150000D01*
X100010000Y-58630000D02*
X96900000Y-58630000D01*
X102100000Y-55970000D02*
X98990000Y-55970000D01*
X102100000Y-58630000D02*
X101530000Y-58630000D01*
X102100000Y-58630000D02*
X102100000Y-55970000D01*
X97470000Y-55970000D02*
X96900000Y-55970000D01*
X96900000Y-58630000D02*
X96900000Y-55970000D01*
%TO.C,C9*%
X74885000Y-69361252D02*
X74885000Y-68838748D01*
X73415000Y-69361252D02*
X73415000Y-68838748D01*
%TO.C,R8*%
X85877064Y-62065000D02*
X85422936Y-62065000D01*
X85877064Y-63535000D02*
X85422936Y-63535000D01*
%TO.C,R3*%
X79322936Y-66935000D02*
X79777064Y-66935000D01*
X79322936Y-65465000D02*
X79777064Y-65465000D01*
%TO.C,Q2*%
X82060000Y-58700000D02*
X82060000Y-58050000D01*
X82060000Y-58700000D02*
X82060000Y-60375000D01*
X78940000Y-58700000D02*
X78940000Y-58050000D01*
X78940000Y-58700000D02*
X78940000Y-59350000D01*
%TO.C,C4*%
X88685000Y-73738748D02*
X88685000Y-74261252D01*
X87215000Y-73738748D02*
X87215000Y-74261252D01*
%TO.C,C3*%
X83711252Y-73860000D02*
X82288748Y-73860000D01*
X83711252Y-72040000D02*
X82288748Y-72040000D01*
%TO.C,J1*%
X66627116Y-38848186D02*
X65867116Y-37531828D01*
X66133482Y-39133186D02*
X66627116Y-38848186D01*
X73672884Y-37851814D02*
X74166518Y-37566814D01*
X67463482Y-41436814D02*
X70156821Y-39881814D01*
X67943475Y-38088186D02*
X71026525Y-36308186D01*
X72836518Y-35263186D02*
X74166518Y-37566814D01*
X66133482Y-39133186D02*
X67463482Y-41436814D01*
X71473179Y-39121814D02*
X74166518Y-37566814D01*
%TO.C,R10*%
X90472936Y-59035000D02*
X90927064Y-59035000D01*
X90472936Y-57565000D02*
X90927064Y-57565000D01*
%TO.C,C10*%
X84888748Y-56190000D02*
X86311252Y-56190000D01*
X84888748Y-58010000D02*
X86311252Y-58010000D01*
%TO.C,C1*%
X92610000Y-52288748D02*
X92610000Y-53711252D01*
X90790000Y-52288748D02*
X90790000Y-53711252D01*
%TO.C,OP1*%
X81000000Y-64810000D02*
X79200000Y-64810000D01*
X79200000Y-61590000D02*
X81650000Y-61590000D01*
%TO.C,C6*%
X70465000Y-61461252D02*
X70465000Y-60938748D01*
X71935000Y-61461252D02*
X71935000Y-60938748D01*
%TO.C,C15*%
X84138748Y-52685000D02*
X84661252Y-52685000D01*
X84138748Y-51215000D02*
X84661252Y-51215000D01*
%TO.C,C12*%
X74835000Y-61461252D02*
X74835000Y-60938748D01*
X73365000Y-61461252D02*
X73365000Y-60938748D01*
%TO.C,R7*%
X93835000Y-34172936D02*
X93835000Y-34627064D01*
X92365000Y-34172936D02*
X92365000Y-34627064D01*
%TO.C,J6*%
X99007116Y-35498186D02*
X99767116Y-34181828D01*
X101193179Y-39831814D02*
X103886518Y-41386814D01*
X98513482Y-35213186D02*
X99007116Y-35498186D01*
X98513482Y-35213186D02*
X97183482Y-37516814D01*
X97183482Y-37516814D02*
X99876821Y-39071814D01*
X105216518Y-39083186D02*
X103886518Y-41386814D01*
X103392884Y-41101814D02*
X103886518Y-41386814D01*
X100323475Y-36258186D02*
X103406525Y-38038186D01*
%TO.C,R1*%
X86922936Y-36535000D02*
X87377064Y-36535000D01*
X86922936Y-35065000D02*
X87377064Y-35065000D01*
%TO.C,U2*%
X88600000Y-39390000D02*
X90400000Y-39390000D01*
X90400000Y-42610000D02*
X87950000Y-42610000D01*
%TO.C,C8*%
X86961252Y-67165000D02*
X86438748Y-67165000D01*
X86961252Y-68635000D02*
X86438748Y-68635000D01*
%TO.C,Q1*%
X78940000Y-54200000D02*
X78940000Y-53550000D01*
X82060000Y-54200000D02*
X82060000Y-55875000D01*
X82060000Y-54200000D02*
X82060000Y-53550000D01*
X78940000Y-54200000D02*
X78940000Y-54850000D01*
%TO.C,R11*%
X94727064Y-67265000D02*
X94272936Y-67265000D01*
X94727064Y-68735000D02*
X94272936Y-68735000D01*
%TO.C,L1*%
X87250000Y-49650000D02*
X93250000Y-49650000D01*
X87250000Y-43450000D02*
X93250000Y-43450000D01*
D13*
X89930000Y-44250000D02*
G75*
G03*
X89930000Y-44250000I-130000J0D01*
G01*
D12*
%TO.C,D1*%
X79700000Y-36250000D02*
X79700000Y-43650000D01*
X79700000Y-36250000D02*
X84000000Y-36250000D01*
X84000000Y-36250000D02*
X84000000Y-43650000D01*
%TO.C,U1*%
X89590000Y-75200000D02*
X89590000Y-73400000D01*
X92810000Y-73400000D02*
X92810000Y-76350000D01*
%TO.C,C7*%
X86838748Y-31435000D02*
X87361252Y-31435000D01*
X86838748Y-29965000D02*
X87361252Y-29965000D01*
%TO.C,J2*%
X60270000Y-53330000D02*
X62930000Y-53330000D01*
X60270000Y-58980000D02*
X60270000Y-55420000D01*
X62930000Y-53900000D02*
X62930000Y-53330000D01*
X60270000Y-61070000D02*
X60270000Y-60500000D01*
X62930000Y-61070000D02*
X62930000Y-57960000D01*
X62930000Y-56440000D02*
X62930000Y-53330000D01*
X60270000Y-61070000D02*
X62930000Y-61070000D01*
X60270000Y-60500000D02*
X58750000Y-60500000D01*
%TO.C,C11*%
X96588748Y-46985000D02*
X97111252Y-46985000D01*
X96588748Y-45515000D02*
X97111252Y-45515000D01*
%TO.C,C5*%
X71738748Y-65610000D02*
X73161252Y-65610000D01*
X71738748Y-63790000D02*
X73161252Y-63790000D01*
%TO.C,J3*%
X70106821Y-74468186D02*
X67413482Y-72913186D01*
X74116518Y-76783186D02*
X71423179Y-75228186D01*
X70976525Y-78041814D02*
X67893475Y-76261814D01*
X67907116Y-73198186D02*
X67413482Y-72913186D01*
X72292884Y-78801814D02*
X71532884Y-80118172D01*
X66083482Y-75216814D02*
X67413482Y-72913186D01*
X72786518Y-79086814D02*
X72292884Y-78801814D01*
X72786518Y-79086814D02*
X74116518Y-76783186D01*
%TO.C,J4*%
X105216518Y-75216814D02*
X104722884Y-75501814D01*
X97677116Y-76498186D02*
X97183482Y-76783186D01*
X99876821Y-75228186D02*
X97183482Y-76783186D01*
X98513482Y-79086814D02*
X97183482Y-76783186D01*
X104722884Y-75501814D02*
X105482884Y-76818172D01*
X103406525Y-76261814D02*
X100323475Y-78041814D01*
X103886518Y-72913186D02*
X101193179Y-74468186D01*
X105216518Y-75216814D02*
X103886518Y-72913186D01*
%TO.C,R9*%
X83735000Y-68672936D02*
X83735000Y-69127064D01*
X82265000Y-68672936D02*
X82265000Y-69127064D01*
%TO.C,C13*%
X77561252Y-32935000D02*
X77038748Y-32935000D01*
X77561252Y-31465000D02*
X77038748Y-31465000D01*
%TD*%
M02*
