%TF.GenerationSoftware,KiCad,Pcbnew,(6.0.5-0)*%
%TF.CreationDate,2022-06-15T10:42:44+02:00*%
%TF.ProjectId,speaker,73706561-6b65-4722-9e6b-696361645f70,rev?*%
%TF.SameCoordinates,Original*%
%TF.FileFunction,Copper,L1,Top*%
%TF.FilePolarity,Positive*%
%FSLAX46Y46*%
G04 Gerber Fmt 4.6, Leading zero omitted, Abs format (unit mm)*
G04 Created by KiCad (PCBNEW (6.0.5-0)) date 2022-06-15 10:42:44*
%MOMM*%
%LPD*%
G01*
G04 APERTURE LIST*
%TA.AperFunction,Profile*%
%ADD10C,0.088304*%
%TD*%
%TA.AperFunction,ComponentPad*%
%ADD11C,2.000000*%
%TD*%
%TA.AperFunction,ComponentPad*%
%ADD12C,2.600000*%
%TD*%
%TA.AperFunction,ConnectorPad*%
%ADD13C,3.800000*%
%TD*%
%TA.AperFunction,ViaPad*%
%ADD14C,0.685800*%
%TD*%
%TA.AperFunction,ViaPad*%
%ADD15C,0.600000*%
%TD*%
%TA.AperFunction,Conductor*%
%ADD16C,0.254000*%
%TD*%
%TA.AperFunction,Conductor*%
%ADD17C,0.500000*%
%TD*%
%TA.AperFunction,Conductor*%
%ADD18C,0.250000*%
%TD*%
G04 APERTURE END LIST*
D10*
X57987239Y-73149866D02*
X85700040Y-89150019D01*
X85700040Y-25149982D02*
X57987239Y-41149998D01*
X85700040Y-25149982D02*
X85700040Y-25149982D01*
X57987239Y-73149866D02*
X57987239Y-73149866D01*
X85700040Y-89150019D02*
X113412761Y-73149866D01*
X57987239Y-41149998D02*
X57987239Y-41149998D01*
X113412761Y-41149998D02*
X85700040Y-25149982D01*
X113412761Y-41149998D02*
X113412761Y-41149998D01*
X57987239Y-41149998D02*
X57987239Y-73149866D01*
X113412761Y-73149866D02*
X113412761Y-41149998D01*
X113412761Y-73149866D02*
X113412761Y-73149866D01*
D11*
%TO.P,M15,1*%
%TO.N,/Trancducer Sig*%
X94900000Y-59950000D03*
%TO.P,M15,2*%
%TO.N,GND*%
X94900000Y-64950000D03*
%TD*%
%TO.P,M6,1*%
%TO.N,/Trancducer Sig*%
X94900000Y-70600000D03*
%TO.P,M6,2*%
%TO.N,GND*%
X94900000Y-75600000D03*
%TD*%
%TO.P,M7,1*%
%TO.N,/Trancducer Sig*%
X85700000Y-75950000D03*
%TO.P,M7,2*%
%TO.N,GND*%
X85700000Y-80950000D03*
%TD*%
%TO.P,M11,1*%
%TO.N,/Trancducer Sig*%
X67300000Y-44000000D03*
%TO.P,M11,2*%
%TO.N,GND*%
X67300000Y-49000000D03*
%TD*%
%TO.P,M12,1*%
%TO.N,/Trancducer Sig*%
X76450000Y-38650000D03*
%TO.P,M12,2*%
%TO.N,GND*%
X76450000Y-43650000D03*
%TD*%
%TO.P,M9,1*%
%TO.N,/Trancducer Sig*%
X67300000Y-65300000D03*
%TO.P,M9,2*%
%TO.N,GND*%
X67300000Y-70300000D03*
%TD*%
%TO.P,M19,1*%
%TO.N,/Trancducer Sig*%
X85700000Y-54650000D03*
%TO.P,M19,2*%
%TO.N,GND*%
X85700000Y-59650000D03*
%TD*%
%TO.P,M5,1*%
%TO.N,/Trancducer Sig*%
X104100000Y-65300000D03*
%TO.P,M5,2*%
%TO.N,GND*%
X104100000Y-70300000D03*
%TD*%
%TO.P,M1,1*%
%TO.N,/Trancducer Sig*%
X85700000Y-33350000D03*
%TO.P,M1,2*%
%TO.N,GND*%
X85700000Y-38350000D03*
%TD*%
%TO.P,M14,1*%
%TO.N,/Trancducer Sig*%
X94900000Y-49300000D03*
%TO.P,M14,2*%
%TO.N,GND*%
X94900000Y-54300000D03*
%TD*%
%TO.P,M8,1*%
%TO.N,/Trancducer Sig*%
X76500000Y-70600000D03*
%TO.P,M8,2*%
%TO.N,GND*%
X76500000Y-75600000D03*
%TD*%
%TO.P,M16,1*%
%TO.N,/Trancducer Sig*%
X85700000Y-65300000D03*
%TO.P,M16,2*%
%TO.N,GND*%
X85700000Y-70300000D03*
%TD*%
%TO.P,M13,1*%
%TO.N,/Trancducer Sig*%
X85700000Y-44000000D03*
%TO.P,M13,2*%
%TO.N,GND*%
X85700000Y-49000000D03*
%TD*%
%TO.P,M4,1*%
%TO.N,/Trancducer Sig*%
X104100000Y-54650000D03*
%TO.P,M4,2*%
%TO.N,GND*%
X104100000Y-59650000D03*
%TD*%
%TO.P,M3,1*%
%TO.N,/Trancducer Sig*%
X104100000Y-44000000D03*
%TO.P,M3,2*%
%TO.N,GND*%
X104100000Y-49000000D03*
%TD*%
%TO.P,M2,1*%
%TO.N,/Trancducer Sig*%
X94850000Y-38650000D03*
%TO.P,M2,2*%
%TO.N,GND*%
X94850000Y-43650000D03*
%TD*%
%TO.P,M10,1*%
%TO.N,/Trancducer Sig*%
X67300000Y-54650000D03*
%TO.P,M10,2*%
%TO.N,GND*%
X67300000Y-59650000D03*
%TD*%
%TO.P,M17,1*%
%TO.N,/Trancducer Sig*%
X76500000Y-59950000D03*
%TO.P,M17,2*%
%TO.N,GND*%
X76500000Y-64950000D03*
%TD*%
%TO.P,M18,1*%
%TO.N,/Trancducer Sig*%
X76500000Y-49300000D03*
%TO.P,M18,2*%
%TO.N,GND*%
X76500000Y-54300000D03*
%TD*%
%TO.P,TP3,1,1*%
%TO.N,/Audio Sig*%
X90800000Y-67900000D03*
%TD*%
%TO.P,TP2,1,1*%
%TO.N,/Trancducer Sig*%
X71100000Y-54650000D03*
%TD*%
%TO.P,TP1,1,1*%
%TO.N,+24V*%
X82400000Y-34000000D03*
%TD*%
D12*
%TO.P,H1,1,1*%
%TO.N,GND*%
X60800000Y-42800000D03*
D13*
X60800000Y-42800000D03*
%TD*%
D12*
%TO.P,H2,1,1*%
%TO.N,GND*%
X60800000Y-71500000D03*
D13*
X60800000Y-71500000D03*
%TD*%
D12*
%TO.P,H4,1,1*%
%TO.N,GND*%
X110600000Y-42800000D03*
D13*
X110600000Y-42800000D03*
%TD*%
%TO.P,H3,1,1*%
%TO.N,GND*%
X110600000Y-71500000D03*
D12*
X110600000Y-71500000D03*
%TD*%
D14*
%TO.N,+5V*%
X98200000Y-58100000D03*
D15*
X93100000Y-40900000D03*
D14*
X99250000Y-58100000D03*
X84537500Y-74462500D03*
D15*
X94900000Y-40900000D03*
D14*
X97150000Y-58100000D03*
D15*
X94000000Y-40900000D03*
X93100000Y-32200000D03*
D14*
X97800000Y-69450000D03*
D15*
X95800000Y-40900000D03*
%TO.N,GND*%
X85350000Y-40250000D03*
D14*
X80500000Y-59450000D03*
D15*
X73600000Y-33550000D03*
X86300000Y-41150000D03*
D14*
X72600000Y-51900000D03*
X74150000Y-71600000D03*
X80500000Y-54750000D03*
X88700000Y-76650000D03*
X81400000Y-69900000D03*
X87050000Y-51950000D03*
D15*
X74550000Y-32700000D03*
D14*
X74050000Y-66650000D03*
D15*
X85350000Y-41150000D03*
D14*
X72600000Y-59000000D03*
X79850000Y-72950000D03*
X87400000Y-76650000D03*
D15*
X91700000Y-56400000D03*
X86300000Y-40250000D03*
D14*
X83150000Y-63200000D03*
D15*
X73600000Y-35050000D03*
%TO.N,+24V*%
X83850000Y-30300000D03*
D14*
X80000000Y-51400000D03*
D15*
X80850000Y-30300000D03*
D14*
X86650000Y-61350000D03*
D15*
X82850000Y-30300000D03*
D14*
X69450000Y-64350000D03*
D15*
X79850000Y-30300000D03*
D14*
X81000000Y-51400000D03*
D15*
X81850000Y-30300000D03*
D14*
%TO.N,/CS*%
X72218933Y-79450000D03*
X59945000Y-60795000D03*
X63500000Y-70750000D03*
X92900000Y-77300000D03*
X65300000Y-40000000D03*
X90750000Y-79450000D03*
%TO.N,/SCL*%
X91530000Y-77280000D03*
X72600000Y-74550000D03*
%TO.N,/SDA*%
X111455000Y-62595000D03*
X111450000Y-49150000D03*
X98246728Y-78703272D03*
X107200000Y-72300000D03*
%TO.N,Net-(C10-Pad1)*%
X78950000Y-59037500D03*
X82750000Y-57100000D03*
%TD*%
D16*
%TO.N,/CS*%
X72200000Y-79450000D02*
X72218933Y-79450000D01*
X63500000Y-70750000D02*
X72200000Y-79450000D01*
X65300000Y-43600000D02*
X59945000Y-48955000D01*
X92900000Y-77300000D02*
X90750000Y-79450000D01*
X59945000Y-48955000D02*
X59945000Y-60795000D01*
X65300000Y-40000000D02*
X65300000Y-43600000D01*
D17*
%TO.N,/Trancducer Sig*%
X100200000Y-44000000D02*
X104100000Y-44000000D01*
X80400000Y-38650000D02*
X85700000Y-33350000D01*
X85700000Y-65300000D02*
X91000000Y-70600000D01*
X100250000Y-54650000D02*
X104100000Y-54650000D01*
X85700000Y-54650000D02*
X81800000Y-54650000D01*
X71200000Y-54650000D02*
X67300000Y-54650000D01*
X71150000Y-65300000D02*
X71200000Y-65300000D01*
X80400000Y-49300000D02*
X85700000Y-44000000D01*
X89550000Y-54650000D02*
X94900000Y-49300000D01*
X71150000Y-65300000D02*
X67300000Y-65300000D01*
X80350000Y-38650000D02*
X76450000Y-38650000D01*
X91000000Y-70650000D02*
X85700000Y-75950000D01*
X91000000Y-70600000D02*
X91000000Y-70650000D01*
X94889259Y-38650000D02*
X94850000Y-38650000D01*
X80350000Y-49300000D02*
X80400000Y-49300000D01*
X94900000Y-59950000D02*
X100250000Y-65300000D01*
X76500000Y-59950000D02*
X71200000Y-54650000D01*
X76500000Y-49300000D02*
X71200000Y-44000000D01*
X81800000Y-54650000D02*
X76500000Y-59950000D01*
X80350000Y-49300000D02*
X76500000Y-49300000D01*
X90925000Y-60075000D02*
X85700000Y-65300000D01*
X100200000Y-43960741D02*
X94889259Y-38650000D01*
X90925000Y-59875000D02*
X91000000Y-59950000D01*
X71200000Y-65300000D02*
X76500000Y-70600000D01*
X94900000Y-49300000D02*
X100250000Y-54650000D01*
X94900000Y-49300000D02*
X100200000Y-44000000D01*
X80350000Y-38650000D02*
X80400000Y-38650000D01*
X71200000Y-44000000D02*
X67300000Y-44000000D01*
X91000000Y-59950000D02*
X94900000Y-59950000D01*
X91000000Y-70600000D02*
X94900000Y-70600000D01*
X85700000Y-54650000D02*
X89550000Y-54650000D01*
X90925000Y-59875000D02*
X90925000Y-60075000D01*
X85700000Y-44000000D02*
X80350000Y-38650000D01*
X76500000Y-59950000D02*
X71150000Y-65300000D01*
X100200000Y-44000000D02*
X100200000Y-43960741D01*
X100250000Y-65300000D02*
X104100000Y-65300000D01*
X85700000Y-54650000D02*
X90925000Y-59875000D01*
X85700000Y-54650000D02*
X80350000Y-49300000D01*
D16*
%TO.N,/SCL*%
X91530000Y-77280000D02*
X90890589Y-77919411D01*
X75969411Y-77919411D02*
X72600000Y-74550000D01*
X90890589Y-77919411D02*
X75969411Y-77919411D01*
%TO.N,/SDA*%
X100750000Y-78750000D02*
X107200000Y-72300000D01*
X98293456Y-78750000D02*
X100750000Y-78750000D01*
X98246728Y-78703272D02*
X98293456Y-78750000D01*
X111455000Y-49155000D02*
X111450000Y-49150000D01*
X111455000Y-62595000D02*
X111455000Y-49155000D01*
D18*
%TO.N,Net-(C10-Pad1)*%
X78962500Y-59037500D02*
X78950000Y-59037500D01*
X82750000Y-57100000D02*
X80900000Y-57100000D01*
X80900000Y-57100000D02*
X78962500Y-59037500D01*
%TD*%
%TA.AperFunction,Conductor*%
%TO.N,GND*%
G36*
X85700040Y-25649984D02*
G01*
X86202559Y-25649984D01*
X86244559Y-25661238D01*
X102667442Y-35143035D01*
X112638977Y-40900128D01*
X112697745Y-40934058D01*
X112728491Y-40964804D01*
X113231007Y-41835190D01*
X113242261Y-41877189D01*
X113242261Y-72422675D01*
X113231007Y-72464675D01*
X112728492Y-73335062D01*
X112697746Y-73365808D01*
X110107042Y-74861571D01*
X86244558Y-88638760D01*
X86202558Y-88650014D01*
X85700040Y-88650015D01*
X85197521Y-88650015D01*
X85155522Y-88638761D01*
X73962008Y-82176118D01*
X84833275Y-82176118D01*
X84834624Y-82181150D01*
X84839660Y-82184676D01*
X85046676Y-82305647D01*
X85052867Y-82308613D01*
X85276857Y-82394147D01*
X85283456Y-82396064D01*
X85518412Y-82443867D01*
X85525224Y-82444679D01*
X85764841Y-82453466D01*
X85771692Y-82453155D01*
X86009520Y-82422688D01*
X86016236Y-82421260D01*
X86245882Y-82352363D01*
X86252294Y-82349850D01*
X86467600Y-82244373D01*
X86473507Y-82240852D01*
X86557048Y-82181262D01*
X86563888Y-82171309D01*
X86563476Y-82167029D01*
X85710473Y-81314026D01*
X85699530Y-81308923D01*
X85692836Y-81310717D01*
X84838378Y-82165175D01*
X84833275Y-82176118D01*
X73962008Y-82176118D01*
X71780598Y-80916668D01*
X84195506Y-80916668D01*
X84209309Y-81156041D01*
X84210264Y-81162832D01*
X84262977Y-81396740D01*
X84265030Y-81403292D01*
X84355233Y-81625434D01*
X84358335Y-81631576D01*
X84467068Y-81809011D01*
X84476518Y-81816528D01*
X84479515Y-81816449D01*
X84480918Y-81815529D01*
X85335974Y-80960473D01*
X85340639Y-80950470D01*
X86058923Y-80950470D01*
X86060717Y-80957164D01*
X86912200Y-81808647D01*
X86923143Y-81813750D01*
X86927340Y-81812625D01*
X86988149Y-81728001D01*
X86991684Y-81722118D01*
X87097919Y-81507167D01*
X87100447Y-81500780D01*
X87170146Y-81271376D01*
X87171600Y-81264652D01*
X87203052Y-81025740D01*
X87203398Y-81021297D01*
X87205087Y-80952227D01*
X87204959Y-80947783D01*
X87185212Y-80707597D01*
X87184091Y-80700833D01*
X87125682Y-80468293D01*
X87123465Y-80461779D01*
X87027862Y-80241909D01*
X87024612Y-80235847D01*
X86931741Y-80092291D01*
X86922112Y-80085008D01*
X86918567Y-80085187D01*
X86917951Y-80085602D01*
X86064026Y-80939527D01*
X86058923Y-80950470D01*
X85340639Y-80950470D01*
X85341077Y-80949530D01*
X85339283Y-80942836D01*
X84487613Y-80091166D01*
X84476670Y-80086063D01*
X84472762Y-80087111D01*
X84393232Y-80203698D01*
X84389837Y-80209674D01*
X84288887Y-80427152D01*
X84286514Y-80433601D01*
X84222441Y-80664639D01*
X84221152Y-80671400D01*
X84195675Y-80909794D01*
X84195506Y-80916668D01*
X71780598Y-80916668D01*
X58705114Y-73367458D01*
X59291935Y-73367458D01*
X59293077Y-73371720D01*
X59509333Y-73528838D01*
X59513788Y-73531666D01*
X59773796Y-73674607D01*
X59778566Y-73676851D01*
X60054433Y-73786074D01*
X60059452Y-73787705D01*
X60346834Y-73861492D01*
X60352017Y-73862481D01*
X60646397Y-73899670D01*
X60651637Y-73900000D01*
X60948363Y-73900000D01*
X60953603Y-73899670D01*
X61247983Y-73862481D01*
X61253166Y-73861492D01*
X61540548Y-73787705D01*
X61545567Y-73786074D01*
X61821434Y-73676851D01*
X61826204Y-73674607D01*
X62086212Y-73531666D01*
X62090667Y-73528838D01*
X62301452Y-73375694D01*
X62308204Y-73365684D01*
X62307743Y-73361296D01*
X60810473Y-71864026D01*
X60799530Y-71858923D01*
X60792836Y-71860717D01*
X59297038Y-73356515D01*
X59291935Y-73367458D01*
X58705114Y-73367458D01*
X58702254Y-73365807D01*
X58671508Y-73335061D01*
X58168993Y-72464675D01*
X58157739Y-72422675D01*
X58157739Y-71502639D01*
X58395421Y-71502639D01*
X58414051Y-71798752D01*
X58414713Y-71803994D01*
X58470309Y-72095443D01*
X58471618Y-72100543D01*
X58563311Y-72382741D01*
X58565250Y-72387636D01*
X58691577Y-72656096D01*
X58694123Y-72660728D01*
X58853102Y-72911240D01*
X58856206Y-72915512D01*
X58925871Y-72999723D01*
X58936285Y-73005833D01*
X58941496Y-73004951D01*
X60435974Y-71510473D01*
X60440639Y-71500470D01*
X61158923Y-71500470D01*
X61160717Y-71507164D01*
X62654215Y-73000662D01*
X62665158Y-73005765D01*
X62670262Y-73004397D01*
X62743794Y-72915512D01*
X62746898Y-72911240D01*
X62905877Y-72660728D01*
X62908423Y-72656096D01*
X63034750Y-72387636D01*
X63036689Y-72382741D01*
X63128382Y-72100543D01*
X63129691Y-72095443D01*
X63185287Y-71803994D01*
X63185949Y-71798752D01*
X63204579Y-71502639D01*
X63204579Y-71497361D01*
X63192882Y-71311434D01*
X63209105Y-71256313D01*
X63256964Y-71224515D01*
X63301765Y-71225982D01*
X63417073Y-71262007D01*
X63423050Y-71262117D01*
X63423053Y-71262117D01*
X63488357Y-71263314D01*
X63560642Y-71264638D01*
X63618499Y-71289227D01*
X71679913Y-79350642D01*
X71704196Y-79402718D01*
X71703516Y-79422962D01*
X71700293Y-79443663D01*
X71701069Y-79449597D01*
X71701069Y-79449598D01*
X71717964Y-79578797D01*
X71719361Y-79589483D01*
X71778589Y-79724090D01*
X71782438Y-79728669D01*
X71782440Y-79728672D01*
X71869364Y-79832080D01*
X71869366Y-79832082D01*
X71873217Y-79836663D01*
X71995636Y-79918152D01*
X72136006Y-79962007D01*
X72141983Y-79962117D01*
X72141986Y-79962117D01*
X72216460Y-79963482D01*
X72283042Y-79964702D01*
X72288814Y-79963128D01*
X72288817Y-79963128D01*
X72419152Y-79927594D01*
X72419153Y-79927594D01*
X72424925Y-79926020D01*
X72430023Y-79922890D01*
X72430025Y-79922889D01*
X72545149Y-79852202D01*
X72545150Y-79852201D01*
X72550248Y-79849071D01*
X72554261Y-79844637D01*
X72554264Y-79844635D01*
X72644924Y-79744475D01*
X72648937Y-79740042D01*
X72654676Y-79728198D01*
X84835781Y-79728198D01*
X84836336Y-79732783D01*
X85689527Y-80585974D01*
X85700470Y-80591077D01*
X85707164Y-80589283D01*
X86559994Y-79736453D01*
X86565097Y-79725510D01*
X86563815Y-79720726D01*
X86535633Y-79698469D01*
X86529918Y-79694672D01*
X86320010Y-79578797D01*
X86313743Y-79575980D01*
X86087733Y-79495945D01*
X86081085Y-79494189D01*
X85845042Y-79452144D01*
X85838200Y-79451497D01*
X85598452Y-79448567D01*
X85591597Y-79449047D01*
X85354595Y-79485313D01*
X85347911Y-79486906D01*
X85120007Y-79561396D01*
X85113681Y-79564055D01*
X84901006Y-79674767D01*
X84895188Y-79678431D01*
X84842374Y-79718084D01*
X84835781Y-79728198D01*
X72654676Y-79728198D01*
X72710450Y-79613081D01*
X72713059Y-79607696D01*
X72737457Y-79462672D01*
X72737612Y-79450000D01*
X72737152Y-79446787D01*
X72736705Y-79443663D01*
X90231360Y-79443663D01*
X90232136Y-79449597D01*
X90232136Y-79449598D01*
X90249031Y-79578797D01*
X90250428Y-79589483D01*
X90309656Y-79724090D01*
X90313505Y-79728669D01*
X90313507Y-79728672D01*
X90400431Y-79832080D01*
X90400433Y-79832082D01*
X90404284Y-79836663D01*
X90526703Y-79918152D01*
X90667073Y-79962007D01*
X90673050Y-79962117D01*
X90673053Y-79962117D01*
X90747527Y-79963482D01*
X90814109Y-79964702D01*
X90819881Y-79963128D01*
X90819884Y-79963128D01*
X90950219Y-79927594D01*
X90950220Y-79927594D01*
X90955992Y-79926020D01*
X90961090Y-79922890D01*
X90961092Y-79922889D01*
X91076216Y-79852202D01*
X91076217Y-79852201D01*
X91081315Y-79849071D01*
X91085328Y-79844637D01*
X91085331Y-79844635D01*
X91175991Y-79744475D01*
X91180004Y-79740042D01*
X91185743Y-79728198D01*
X91241517Y-79613081D01*
X91244126Y-79607696D01*
X91268524Y-79462672D01*
X91268679Y-79450000D01*
X91262365Y-79405912D01*
X91274164Y-79349679D01*
X91286120Y-79334608D01*
X91923793Y-78696935D01*
X97728088Y-78696935D01*
X97747156Y-78842755D01*
X97806384Y-78977362D01*
X97810233Y-78981941D01*
X97810235Y-78981944D01*
X97897159Y-79085352D01*
X97897161Y-79085354D01*
X97901012Y-79089935D01*
X98023431Y-79171424D01*
X98029141Y-79173208D01*
X98038593Y-79176161D01*
X98163801Y-79215279D01*
X98169778Y-79215389D01*
X98169781Y-79215389D01*
X98244255Y-79216754D01*
X98310837Y-79217974D01*
X98316609Y-79216400D01*
X98316612Y-79216400D01*
X98446947Y-79180866D01*
X98446948Y-79180866D01*
X98452720Y-79179292D01*
X98457818Y-79176162D01*
X98457820Y-79176161D01*
X98515382Y-79140817D01*
X98578043Y-79102343D01*
X98602676Y-79075130D01*
X98653479Y-79048287D01*
X98664952Y-79047500D01*
X100696432Y-79047500D01*
X100701271Y-79047855D01*
X100705787Y-79049406D01*
X100713539Y-79049115D01*
X100754983Y-79047559D01*
X100758134Y-79047500D01*
X100777668Y-79047500D01*
X100781472Y-79046791D01*
X100783340Y-79046619D01*
X100787908Y-79046323D01*
X100808788Y-79045539D01*
X100808789Y-79045539D01*
X100816537Y-79045248D01*
X100828435Y-79040136D01*
X100846219Y-79034733D01*
X100851327Y-79033782D01*
X100851329Y-79033781D01*
X100858954Y-79032361D01*
X100882277Y-79017985D01*
X100893192Y-79012315D01*
X100912920Y-79003839D01*
X100918364Y-79001500D01*
X100923202Y-78997526D01*
X100928679Y-78992049D01*
X100943999Y-78979939D01*
X100946694Y-78978278D01*
X100946695Y-78978277D01*
X100953298Y-78974207D01*
X100971365Y-78950448D01*
X100978832Y-78941896D01*
X106553270Y-73367458D01*
X109091935Y-73367458D01*
X109093077Y-73371720D01*
X109309333Y-73528838D01*
X109313788Y-73531666D01*
X109573796Y-73674607D01*
X109578566Y-73676851D01*
X109854433Y-73786074D01*
X109859452Y-73787705D01*
X110146834Y-73861492D01*
X110152017Y-73862481D01*
X110446397Y-73899670D01*
X110451637Y-73900000D01*
X110748363Y-73900000D01*
X110753603Y-73899670D01*
X111047983Y-73862481D01*
X111053166Y-73861492D01*
X111340548Y-73787705D01*
X111345567Y-73786074D01*
X111621434Y-73676851D01*
X111626204Y-73674607D01*
X111886212Y-73531666D01*
X111890667Y-73528838D01*
X112101452Y-73375694D01*
X112108204Y-73365684D01*
X112107743Y-73361296D01*
X110610473Y-71864026D01*
X110599530Y-71858923D01*
X110592836Y-71860717D01*
X109097038Y-73356515D01*
X109091935Y-73367458D01*
X106553270Y-73367458D01*
X107083628Y-72837100D01*
X107135704Y-72812817D01*
X107144564Y-72812511D01*
X107175845Y-72813084D01*
X107264109Y-72814702D01*
X107269881Y-72813128D01*
X107269884Y-72813128D01*
X107400219Y-72777594D01*
X107400220Y-72777594D01*
X107405992Y-72776020D01*
X107411090Y-72772890D01*
X107411092Y-72772889D01*
X107526216Y-72702202D01*
X107526217Y-72702201D01*
X107531315Y-72699071D01*
X107535328Y-72694637D01*
X107535331Y-72694635D01*
X107625991Y-72594475D01*
X107630004Y-72590042D01*
X107694126Y-72457696D01*
X107705913Y-72387636D01*
X107717986Y-72315870D01*
X107718524Y-72312672D01*
X107718679Y-72300000D01*
X107718219Y-72296787D01*
X107698679Y-72160344D01*
X107698679Y-72160343D01*
X107697831Y-72154424D01*
X107636962Y-72020551D01*
X107540967Y-71909142D01*
X107529662Y-71901814D01*
X107422583Y-71832410D01*
X107417561Y-71829155D01*
X107411831Y-71827441D01*
X107411828Y-71827440D01*
X107282398Y-71788732D01*
X107282396Y-71788732D01*
X107276666Y-71787018D01*
X107270686Y-71786981D01*
X107270683Y-71786981D01*
X107201318Y-71786558D01*
X107129607Y-71786120D01*
X107123851Y-71787765D01*
X107070003Y-71803155D01*
X106988208Y-71826532D01*
X106863834Y-71905006D01*
X106766484Y-72015233D01*
X106703985Y-72148353D01*
X106703065Y-72154264D01*
X106703064Y-72154266D01*
X106702118Y-72160344D01*
X106681360Y-72293663D01*
X106682136Y-72299598D01*
X106688050Y-72344827D01*
X106675564Y-72400914D01*
X106664156Y-72415115D01*
X100651375Y-78427897D01*
X100599299Y-78452180D01*
X100591978Y-78452500D01*
X98746902Y-78452500D01*
X98692908Y-78432848D01*
X98683266Y-78423331D01*
X98591600Y-78316946D01*
X98587695Y-78312414D01*
X98576390Y-78305086D01*
X98469311Y-78235682D01*
X98464289Y-78232427D01*
X98458559Y-78230713D01*
X98458556Y-78230712D01*
X98329126Y-78192004D01*
X98329124Y-78192004D01*
X98323394Y-78190290D01*
X98317414Y-78190253D01*
X98317411Y-78190253D01*
X98248046Y-78189830D01*
X98176335Y-78189392D01*
X98170579Y-78191037D01*
X98080531Y-78216773D01*
X98034936Y-78229804D01*
X97910562Y-78308278D01*
X97813212Y-78418505D01*
X97810671Y-78423916D01*
X97810671Y-78423917D01*
X97806478Y-78432848D01*
X97750713Y-78551625D01*
X97728088Y-78696935D01*
X91923793Y-78696935D01*
X92783628Y-77837100D01*
X92835704Y-77812817D01*
X92844564Y-77812511D01*
X92875845Y-77813084D01*
X92964109Y-77814702D01*
X92969881Y-77813128D01*
X92969884Y-77813128D01*
X93100219Y-77777594D01*
X93100220Y-77777594D01*
X93105992Y-77776020D01*
X93111090Y-77772890D01*
X93111092Y-77772889D01*
X93226216Y-77702202D01*
X93226217Y-77702201D01*
X93231315Y-77699071D01*
X93235328Y-77694637D01*
X93235331Y-77694635D01*
X93301447Y-77621591D01*
X93330004Y-77590042D01*
X93337547Y-77574475D01*
X93391517Y-77463081D01*
X93394126Y-77457696D01*
X93418524Y-77312672D01*
X93418679Y-77300000D01*
X93418088Y-77295870D01*
X93398679Y-77160344D01*
X93398679Y-77160343D01*
X93397831Y-77154424D01*
X93336962Y-77020551D01*
X93240967Y-76909142D01*
X93229662Y-76901814D01*
X93122583Y-76832410D01*
X93117561Y-76829155D01*
X93111831Y-76827441D01*
X93111828Y-76827440D01*
X93107408Y-76826118D01*
X94033275Y-76826118D01*
X94034624Y-76831150D01*
X94039660Y-76834676D01*
X94246676Y-76955647D01*
X94252867Y-76958613D01*
X94476857Y-77044147D01*
X94483456Y-77046064D01*
X94718412Y-77093867D01*
X94725224Y-77094679D01*
X94964841Y-77103466D01*
X94971692Y-77103155D01*
X95209520Y-77072688D01*
X95216236Y-77071260D01*
X95445882Y-77002363D01*
X95452294Y-76999850D01*
X95667600Y-76894373D01*
X95673507Y-76890852D01*
X95757048Y-76831262D01*
X95763888Y-76821309D01*
X95763476Y-76817029D01*
X94910473Y-75964026D01*
X94899530Y-75958923D01*
X94892836Y-75960717D01*
X94038378Y-76815175D01*
X94033275Y-76826118D01*
X93107408Y-76826118D01*
X92982398Y-76788732D01*
X92982396Y-76788732D01*
X92976666Y-76787018D01*
X92970686Y-76786981D01*
X92970683Y-76786981D01*
X92901318Y-76786558D01*
X92829607Y-76786120D01*
X92823851Y-76787765D01*
X92755010Y-76807440D01*
X92688208Y-76826532D01*
X92563834Y-76905006D01*
X92466484Y-77015233D01*
X92463943Y-77020644D01*
X92463943Y-77020645D01*
X92462421Y-77023886D01*
X92403985Y-77148353D01*
X92403065Y-77154264D01*
X92403064Y-77154266D01*
X92402118Y-77160344D01*
X92381360Y-77293663D01*
X92388051Y-77344827D01*
X92375566Y-77400912D01*
X92364157Y-77415115D01*
X90866975Y-78912297D01*
X90814899Y-78936580D01*
X90807065Y-78936898D01*
X90757059Y-78936593D01*
X90679607Y-78936120D01*
X90538208Y-78976532D01*
X90413834Y-79055006D01*
X90316484Y-79165233D01*
X90253985Y-79298353D01*
X90253065Y-79304264D01*
X90253064Y-79304266D01*
X90243714Y-79364319D01*
X90231360Y-79443663D01*
X72736705Y-79443663D01*
X72717612Y-79310344D01*
X72717612Y-79310343D01*
X72716764Y-79304424D01*
X72655895Y-79170551D01*
X72559900Y-79059142D01*
X72548595Y-79051814D01*
X72441516Y-78982410D01*
X72436494Y-78979155D01*
X72430764Y-78977441D01*
X72430761Y-78977440D01*
X72301331Y-78938732D01*
X72301329Y-78938732D01*
X72295599Y-78937018D01*
X72289619Y-78936981D01*
X72289616Y-78936981D01*
X72219305Y-78936552D01*
X72148540Y-78936120D01*
X72148546Y-78935071D01*
X72097780Y-78924098D01*
X72083140Y-78912412D01*
X67714391Y-74543663D01*
X72081360Y-74543663D01*
X72082136Y-74549597D01*
X72082136Y-74549598D01*
X72084265Y-74565875D01*
X72100428Y-74689483D01*
X72159656Y-74824090D01*
X72163505Y-74828669D01*
X72163507Y-74828672D01*
X72250431Y-74932080D01*
X72250433Y-74932082D01*
X72254284Y-74936663D01*
X72376703Y-75018152D01*
X72517073Y-75062007D01*
X72523050Y-75062117D01*
X72523053Y-75062117D01*
X72588357Y-75063314D01*
X72660642Y-75064638D01*
X72718499Y-75089227D01*
X75721170Y-78091899D01*
X75724339Y-78095571D01*
X75726436Y-78099860D01*
X75732123Y-78105135D01*
X75762516Y-78133329D01*
X75764786Y-78135515D01*
X75778611Y-78149340D01*
X75781804Y-78151530D01*
X75783229Y-78152714D01*
X75786673Y-78155738D01*
X75807688Y-78175232D01*
X75814889Y-78178105D01*
X75819719Y-78180032D01*
X75836109Y-78188783D01*
X75846794Y-78196113D01*
X75873451Y-78202439D01*
X75885173Y-78206145D01*
X75910625Y-78216300D01*
X75916856Y-78216911D01*
X75924604Y-78216911D01*
X75943997Y-78219181D01*
X75954626Y-78221703D01*
X75962312Y-78220657D01*
X75984202Y-78217678D01*
X75995529Y-78216911D01*
X90837021Y-78216911D01*
X90841860Y-78217266D01*
X90846376Y-78218817D01*
X90854128Y-78218526D01*
X90895572Y-78216970D01*
X90898723Y-78216911D01*
X90918257Y-78216911D01*
X90922061Y-78216202D01*
X90923929Y-78216030D01*
X90928497Y-78215734D01*
X90949377Y-78214950D01*
X90949378Y-78214950D01*
X90957126Y-78214659D01*
X90969024Y-78209547D01*
X90986808Y-78204144D01*
X90991916Y-78203193D01*
X90991918Y-78203192D01*
X90999543Y-78201772D01*
X91022866Y-78187396D01*
X91033781Y-78181726D01*
X91053509Y-78173250D01*
X91058953Y-78170911D01*
X91063791Y-78166937D01*
X91069268Y-78161460D01*
X91084588Y-78149350D01*
X91087283Y-78147689D01*
X91087284Y-78147688D01*
X91093887Y-78143618D01*
X91111953Y-78119859D01*
X91119420Y-78111308D01*
X91413629Y-77817100D01*
X91465705Y-77792817D01*
X91474565Y-77792511D01*
X91502286Y-77793019D01*
X91594109Y-77794702D01*
X91599881Y-77793128D01*
X91599884Y-77793128D01*
X91730219Y-77757594D01*
X91730220Y-77757594D01*
X91735992Y-77756020D01*
X91741090Y-77752890D01*
X91741092Y-77752889D01*
X91856216Y-77682202D01*
X91856217Y-77682201D01*
X91861315Y-77679071D01*
X91865328Y-77674637D01*
X91865331Y-77674635D01*
X91941901Y-77590042D01*
X91960004Y-77570042D01*
X92017296Y-77451794D01*
X92021517Y-77443081D01*
X92024126Y-77437696D01*
X92048524Y-77292672D01*
X92048679Y-77280000D01*
X92048219Y-77276787D01*
X92028679Y-77140344D01*
X92028679Y-77140343D01*
X92027831Y-77134424D01*
X91966962Y-77000551D01*
X91870967Y-76889142D01*
X91859662Y-76881814D01*
X91752583Y-76812410D01*
X91747561Y-76809155D01*
X91741831Y-76807441D01*
X91741828Y-76807440D01*
X91612398Y-76768732D01*
X91612396Y-76768732D01*
X91606666Y-76767018D01*
X91600686Y-76766981D01*
X91600683Y-76766981D01*
X91531318Y-76766558D01*
X91459607Y-76766120D01*
X91453851Y-76767765D01*
X91383873Y-76787765D01*
X91318208Y-76806532D01*
X91193834Y-76885006D01*
X91096484Y-76995233D01*
X91093943Y-77000644D01*
X91093943Y-77000645D01*
X91091429Y-77005999D01*
X91033985Y-77128353D01*
X91033065Y-77134264D01*
X91033064Y-77134266D01*
X91029004Y-77160344D01*
X91011360Y-77273663D01*
X91018051Y-77324827D01*
X91005566Y-77380912D01*
X90994157Y-77395115D01*
X90791964Y-77597308D01*
X90739888Y-77621591D01*
X90732567Y-77621911D01*
X76127433Y-77621911D01*
X76073439Y-77602259D01*
X76068036Y-77597308D01*
X75296846Y-76826118D01*
X75633275Y-76826118D01*
X75634624Y-76831150D01*
X75639660Y-76834676D01*
X75846676Y-76955647D01*
X75852867Y-76958613D01*
X76076857Y-77044147D01*
X76083456Y-77046064D01*
X76318412Y-77093867D01*
X76325224Y-77094679D01*
X76564841Y-77103466D01*
X76571692Y-77103155D01*
X76809520Y-77072688D01*
X76816236Y-77071260D01*
X77045882Y-77002363D01*
X77052294Y-76999850D01*
X77267600Y-76894373D01*
X77273507Y-76890852D01*
X77357048Y-76831262D01*
X77363888Y-76821309D01*
X77363476Y-76817029D01*
X76510473Y-75964026D01*
X76499530Y-75958923D01*
X76492836Y-75960717D01*
X75638378Y-76815175D01*
X75633275Y-76826118D01*
X75296846Y-76826118D01*
X74037396Y-75566668D01*
X74995506Y-75566668D01*
X75009309Y-75806041D01*
X75010264Y-75812832D01*
X75062977Y-76046740D01*
X75065030Y-76053292D01*
X75155233Y-76275434D01*
X75158335Y-76281576D01*
X75267068Y-76459011D01*
X75276518Y-76466528D01*
X75279515Y-76466449D01*
X75280918Y-76465529D01*
X76135974Y-75610473D01*
X76140639Y-75600470D01*
X76858923Y-75600470D01*
X76860717Y-75607164D01*
X77712200Y-76458647D01*
X77723143Y-76463750D01*
X77727340Y-76462625D01*
X77788149Y-76378001D01*
X77791684Y-76372118D01*
X77897919Y-76157167D01*
X77900447Y-76150780D01*
X77970146Y-75921376D01*
X77971600Y-75914652D01*
X78003052Y-75675740D01*
X78003398Y-75671297D01*
X78005087Y-75602227D01*
X78004959Y-75597783D01*
X77985212Y-75357597D01*
X77984091Y-75350833D01*
X77925682Y-75118293D01*
X77923465Y-75111779D01*
X77827862Y-74891909D01*
X77824612Y-74885847D01*
X77731741Y-74742291D01*
X77722112Y-74735008D01*
X77718567Y-74735187D01*
X77717951Y-74735602D01*
X76864026Y-75589527D01*
X76858923Y-75600470D01*
X76140639Y-75600470D01*
X76141077Y-75599530D01*
X76139283Y-75592836D01*
X75287613Y-74741166D01*
X75276670Y-74736063D01*
X75272762Y-74737111D01*
X75193232Y-74853698D01*
X75189837Y-74859674D01*
X75088887Y-75077152D01*
X75086514Y-75083601D01*
X75022441Y-75314639D01*
X75021152Y-75321400D01*
X74995675Y-75559794D01*
X74995506Y-75566668D01*
X74037396Y-75566668D01*
X73136890Y-74666162D01*
X73112607Y-74614086D01*
X73113451Y-74592831D01*
X73117985Y-74565875D01*
X73118524Y-74562672D01*
X73118679Y-74550000D01*
X73118219Y-74546787D01*
X73098679Y-74410344D01*
X73098679Y-74410343D01*
X73097831Y-74404424D01*
X73085907Y-74378198D01*
X75635781Y-74378198D01*
X75636336Y-74382783D01*
X76489527Y-75235974D01*
X76500470Y-75241077D01*
X76507164Y-75239283D01*
X77290284Y-74456163D01*
X84018860Y-74456163D01*
X84019636Y-74462097D01*
X84019636Y-74462098D01*
X84032788Y-74562672D01*
X84037928Y-74601983D01*
X84097156Y-74736590D01*
X84101003Y-74741166D01*
X84101007Y-74741172D01*
X84187931Y-74844580D01*
X84187933Y-74844582D01*
X84191784Y-74849163D01*
X84314203Y-74930652D01*
X84454573Y-74974507D01*
X84460550Y-74974617D01*
X84460553Y-74974617D01*
X84535027Y-74975982D01*
X84601609Y-74977202D01*
X84607381Y-74975628D01*
X84607384Y-74975628D01*
X84737719Y-74940094D01*
X84737720Y-74940094D01*
X84743492Y-74938520D01*
X84748590Y-74935390D01*
X84748592Y-74935389D01*
X84863716Y-74864702D01*
X84863717Y-74864701D01*
X84868815Y-74861571D01*
X84872828Y-74857137D01*
X84872831Y-74857135D01*
X84941858Y-74780875D01*
X84967504Y-74752542D01*
X84974981Y-74737111D01*
X85029017Y-74625581D01*
X85031626Y-74620196D01*
X85044502Y-74543663D01*
X85055486Y-74478370D01*
X85056024Y-74475172D01*
X85056179Y-74462500D01*
X85055719Y-74459287D01*
X85036179Y-74322844D01*
X85036179Y-74322843D01*
X85035331Y-74316924D01*
X84974462Y-74183051D01*
X84878467Y-74071642D01*
X84867162Y-74064314D01*
X84760083Y-73994910D01*
X84755061Y-73991655D01*
X84749331Y-73989941D01*
X84749328Y-73989940D01*
X84619898Y-73951232D01*
X84619896Y-73951232D01*
X84614166Y-73949518D01*
X84608186Y-73949481D01*
X84608183Y-73949481D01*
X84538818Y-73949058D01*
X84467107Y-73948620D01*
X84325708Y-73989032D01*
X84201334Y-74067506D01*
X84103984Y-74177733D01*
X84041485Y-74310853D01*
X84040565Y-74316764D01*
X84040564Y-74316766D01*
X84038748Y-74328431D01*
X84018860Y-74456163D01*
X77290284Y-74456163D01*
X77359994Y-74386453D01*
X77365097Y-74375510D01*
X77363815Y-74370726D01*
X77335633Y-74348469D01*
X77329918Y-74344672D01*
X77120010Y-74228797D01*
X77113743Y-74225980D01*
X76887733Y-74145945D01*
X76881085Y-74144189D01*
X76645042Y-74102144D01*
X76638200Y-74101497D01*
X76398452Y-74098567D01*
X76391597Y-74099047D01*
X76154595Y-74135313D01*
X76147911Y-74136906D01*
X75920007Y-74211396D01*
X75913681Y-74214055D01*
X75701006Y-74324767D01*
X75695188Y-74328431D01*
X75642374Y-74368084D01*
X75635781Y-74378198D01*
X73085907Y-74378198D01*
X73036962Y-74270551D01*
X72940967Y-74159142D01*
X72929662Y-74151814D01*
X72822583Y-74082410D01*
X72817561Y-74079155D01*
X72811831Y-74077441D01*
X72811828Y-74077440D01*
X72682398Y-74038732D01*
X72682396Y-74038732D01*
X72676666Y-74037018D01*
X72670686Y-74036981D01*
X72670683Y-74036981D01*
X72601318Y-74036558D01*
X72529607Y-74036120D01*
X72388208Y-74076532D01*
X72263834Y-74155006D01*
X72166484Y-74265233D01*
X72103985Y-74398353D01*
X72103065Y-74404264D01*
X72103064Y-74404266D01*
X72102118Y-74410344D01*
X72081360Y-74543663D01*
X67714391Y-74543663D01*
X64696846Y-71526118D01*
X66433275Y-71526118D01*
X66434624Y-71531150D01*
X66439660Y-71534676D01*
X66646676Y-71655647D01*
X66652867Y-71658613D01*
X66876857Y-71744147D01*
X66883456Y-71746064D01*
X67118412Y-71793867D01*
X67125224Y-71794679D01*
X67364841Y-71803466D01*
X67371692Y-71803155D01*
X67609520Y-71772688D01*
X67616236Y-71771260D01*
X67845882Y-71702363D01*
X67852294Y-71699850D01*
X68067600Y-71594373D01*
X68073507Y-71590852D01*
X68157048Y-71531262D01*
X68163888Y-71521309D01*
X68163476Y-71517029D01*
X67310473Y-70664026D01*
X67299530Y-70658923D01*
X67292836Y-70660717D01*
X66438378Y-71515175D01*
X66433275Y-71526118D01*
X64696846Y-71526118D01*
X64036890Y-70866162D01*
X64012607Y-70814086D01*
X64013451Y-70792831D01*
X64017985Y-70765875D01*
X64018524Y-70762672D01*
X64018679Y-70750000D01*
X64018212Y-70746740D01*
X63998679Y-70610344D01*
X63998679Y-70610343D01*
X63997831Y-70604424D01*
X63936962Y-70470551D01*
X63840967Y-70359142D01*
X63829662Y-70351814D01*
X63722583Y-70282410D01*
X63717561Y-70279155D01*
X63711831Y-70277441D01*
X63711828Y-70277440D01*
X63675809Y-70266668D01*
X65795506Y-70266668D01*
X65809309Y-70506041D01*
X65810264Y-70512832D01*
X65862977Y-70746740D01*
X65865030Y-70753292D01*
X65955233Y-70975434D01*
X65958335Y-70981576D01*
X66067068Y-71159011D01*
X66076518Y-71166528D01*
X66079515Y-71166449D01*
X66080918Y-71165529D01*
X66935974Y-70310473D01*
X66940639Y-70300470D01*
X67658923Y-70300470D01*
X67660717Y-70307164D01*
X68512200Y-71158647D01*
X68523143Y-71163750D01*
X68527340Y-71162625D01*
X68588149Y-71078001D01*
X68591684Y-71072118D01*
X68697919Y-70857167D01*
X68700447Y-70850780D01*
X68770146Y-70621376D01*
X68771600Y-70614652D01*
X68803052Y-70375740D01*
X68803398Y-70371297D01*
X68805087Y-70302227D01*
X68804959Y-70297783D01*
X68785212Y-70057597D01*
X68784091Y-70050833D01*
X68725682Y-69818293D01*
X68723465Y-69811779D01*
X68627862Y-69591909D01*
X68624612Y-69585847D01*
X68531741Y-69442291D01*
X68522112Y-69435008D01*
X68518567Y-69435187D01*
X68517951Y-69435602D01*
X67664026Y-70289527D01*
X67658923Y-70300470D01*
X66940639Y-70300470D01*
X66941077Y-70299530D01*
X66939283Y-70292836D01*
X66087613Y-69441166D01*
X66076670Y-69436063D01*
X66072762Y-69437111D01*
X65993232Y-69553698D01*
X65989837Y-69559674D01*
X65888887Y-69777152D01*
X65886514Y-69783601D01*
X65822441Y-70014639D01*
X65821152Y-70021400D01*
X65795675Y-70259794D01*
X65795506Y-70266668D01*
X63675809Y-70266668D01*
X63582398Y-70238732D01*
X63582396Y-70238732D01*
X63576666Y-70237018D01*
X63570686Y-70236981D01*
X63570683Y-70236981D01*
X63501318Y-70236558D01*
X63429607Y-70236120D01*
X63423851Y-70237765D01*
X63322722Y-70266668D01*
X63288208Y-70276532D01*
X63247484Y-70302227D01*
X63188773Y-70339271D01*
X63163834Y-70355006D01*
X63159874Y-70359490D01*
X63085184Y-70444060D01*
X63034711Y-70471521D01*
X62978396Y-70460115D01*
X62946218Y-70424221D01*
X62908424Y-70343905D01*
X62905877Y-70339271D01*
X62746898Y-70088760D01*
X62743794Y-70084488D01*
X62674129Y-70000277D01*
X62663715Y-69994167D01*
X62658504Y-69995049D01*
X61164026Y-71489527D01*
X61158923Y-71500470D01*
X60440639Y-71500470D01*
X60441077Y-71499530D01*
X60439283Y-71492836D01*
X58945785Y-69999338D01*
X58934842Y-69994235D01*
X58929738Y-69995603D01*
X58856206Y-70084488D01*
X58853102Y-70088760D01*
X58694123Y-70339272D01*
X58691577Y-70343904D01*
X58565250Y-70612364D01*
X58563311Y-70617259D01*
X58471618Y-70899457D01*
X58470309Y-70904557D01*
X58414713Y-71196006D01*
X58414051Y-71201248D01*
X58395421Y-71497361D01*
X58395421Y-71502639D01*
X58157739Y-71502639D01*
X58157739Y-69634316D01*
X59291796Y-69634316D01*
X59292257Y-69638704D01*
X60789527Y-71135974D01*
X60800470Y-71141077D01*
X60807164Y-71139283D01*
X62302962Y-69643485D01*
X62308065Y-69632542D01*
X62306923Y-69628280D01*
X62090667Y-69471162D01*
X62086212Y-69468334D01*
X61826204Y-69325393D01*
X61821434Y-69323149D01*
X61545567Y-69213926D01*
X61540548Y-69212295D01*
X61253166Y-69138508D01*
X61247983Y-69137519D01*
X60953603Y-69100330D01*
X60948363Y-69100000D01*
X60651637Y-69100000D01*
X60646397Y-69100330D01*
X60352017Y-69137519D01*
X60346834Y-69138508D01*
X60059452Y-69212295D01*
X60054433Y-69213926D01*
X59778566Y-69323149D01*
X59773796Y-69325393D01*
X59513788Y-69468334D01*
X59509333Y-69471162D01*
X59298548Y-69624306D01*
X59291796Y-69634316D01*
X58157739Y-69634316D01*
X58157739Y-69078198D01*
X66435781Y-69078198D01*
X66436336Y-69082783D01*
X67289527Y-69935974D01*
X67300470Y-69941077D01*
X67307164Y-69939283D01*
X68159994Y-69086453D01*
X68165097Y-69075510D01*
X68163815Y-69070726D01*
X68135633Y-69048469D01*
X68129918Y-69044672D01*
X67920010Y-68928797D01*
X67913743Y-68925980D01*
X67687733Y-68845945D01*
X67681085Y-68844189D01*
X67445042Y-68802144D01*
X67438200Y-68801497D01*
X67198452Y-68798567D01*
X67191597Y-68799047D01*
X66954595Y-68835313D01*
X66947911Y-68836906D01*
X66720007Y-68911396D01*
X66713681Y-68914055D01*
X66501006Y-69024767D01*
X66495188Y-69028431D01*
X66442374Y-69068084D01*
X66435781Y-69078198D01*
X58157739Y-69078198D01*
X58157739Y-65269229D01*
X66124888Y-65269229D01*
X66138958Y-65483891D01*
X66191911Y-65692395D01*
X66281974Y-65887757D01*
X66406131Y-66063436D01*
X66560224Y-66213547D01*
X66739093Y-66333063D01*
X66872554Y-66390402D01*
X66885733Y-66396064D01*
X66936746Y-66417981D01*
X67042007Y-66441799D01*
X67142808Y-66464608D01*
X67142809Y-66464608D01*
X67146565Y-66465458D01*
X67268982Y-66470268D01*
X67357673Y-66473753D01*
X67357676Y-66473753D01*
X67361522Y-66473904D01*
X67365328Y-66473352D01*
X67365331Y-66473352D01*
X67434641Y-66463302D01*
X67574419Y-66443035D01*
X67578058Y-66441800D01*
X67578061Y-66441799D01*
X67774475Y-66375125D01*
X67778125Y-66373886D01*
X67965819Y-66268773D01*
X68131215Y-66131215D01*
X68268773Y-65965819D01*
X68373886Y-65778125D01*
X68375125Y-65774474D01*
X68376689Y-65770962D01*
X68378660Y-65771840D01*
X68410012Y-65732719D01*
X68453640Y-65720500D01*
X70991029Y-65720500D01*
X71045023Y-65740152D01*
X71050426Y-65745103D01*
X75387935Y-70082612D01*
X75412218Y-70134688D01*
X75408760Y-70166915D01*
X75350173Y-70355597D01*
X75324888Y-70569229D01*
X75338958Y-70783891D01*
X75391911Y-70992395D01*
X75481974Y-71187757D01*
X75606131Y-71363436D01*
X75760224Y-71513547D01*
X75939093Y-71633063D01*
X76136746Y-71717981D01*
X76242007Y-71741799D01*
X76342808Y-71764608D01*
X76342809Y-71764608D01*
X76346565Y-71765458D01*
X76468982Y-71770268D01*
X76557673Y-71773753D01*
X76557676Y-71773753D01*
X76561522Y-71773904D01*
X76565328Y-71773352D01*
X76565331Y-71773352D01*
X76634641Y-71763302D01*
X76774419Y-71743035D01*
X76778058Y-71741800D01*
X76778061Y-71741799D01*
X76974475Y-71675125D01*
X76978125Y-71673886D01*
X77165819Y-71568773D01*
X77217106Y-71526118D01*
X84833275Y-71526118D01*
X84834624Y-71531150D01*
X84839660Y-71534676D01*
X85046676Y-71655647D01*
X85052867Y-71658613D01*
X85276857Y-71744147D01*
X85283456Y-71746064D01*
X85518412Y-71793867D01*
X85525224Y-71794679D01*
X85764841Y-71803466D01*
X85771692Y-71803155D01*
X86009520Y-71772688D01*
X86016236Y-71771260D01*
X86245882Y-71702363D01*
X86252294Y-71699850D01*
X86467600Y-71594373D01*
X86473507Y-71590852D01*
X86557048Y-71531262D01*
X86563888Y-71521309D01*
X86563476Y-71517029D01*
X85710473Y-70664026D01*
X85699530Y-70658923D01*
X85692836Y-70660717D01*
X84838378Y-71515175D01*
X84833275Y-71526118D01*
X77217106Y-71526118D01*
X77331215Y-71431215D01*
X77468773Y-71265819D01*
X77573886Y-71078125D01*
X77577395Y-71067789D01*
X77641799Y-70878061D01*
X77641800Y-70878058D01*
X77643035Y-70874419D01*
X77673904Y-70661522D01*
X77675515Y-70600000D01*
X77655831Y-70385779D01*
X77622238Y-70266668D01*
X84195506Y-70266668D01*
X84209309Y-70506041D01*
X84210264Y-70512832D01*
X84262977Y-70746740D01*
X84265030Y-70753292D01*
X84355233Y-70975434D01*
X84358335Y-70981576D01*
X84467068Y-71159011D01*
X84476518Y-71166528D01*
X84479515Y-71166449D01*
X84480918Y-71165529D01*
X85335974Y-70310473D01*
X85340639Y-70300470D01*
X86058923Y-70300470D01*
X86060717Y-70307164D01*
X86912200Y-71158647D01*
X86923143Y-71163750D01*
X86927340Y-71162625D01*
X86988149Y-71078001D01*
X86991684Y-71072118D01*
X87097919Y-70857167D01*
X87100447Y-70850780D01*
X87170146Y-70621376D01*
X87171600Y-70614652D01*
X87203052Y-70375740D01*
X87203398Y-70371297D01*
X87205087Y-70302227D01*
X87204959Y-70297783D01*
X87185212Y-70057597D01*
X87184091Y-70050833D01*
X87125682Y-69818293D01*
X87123465Y-69811779D01*
X87027862Y-69591909D01*
X87024612Y-69585847D01*
X86931741Y-69442291D01*
X86922112Y-69435008D01*
X86918567Y-69435187D01*
X86917951Y-69435602D01*
X86064026Y-70289527D01*
X86058923Y-70300470D01*
X85340639Y-70300470D01*
X85341077Y-70299530D01*
X85339283Y-70292836D01*
X84487613Y-69441166D01*
X84476670Y-69436063D01*
X84472762Y-69437111D01*
X84393232Y-69553698D01*
X84389837Y-69559674D01*
X84288887Y-69777152D01*
X84286514Y-69783601D01*
X84222441Y-70014639D01*
X84221152Y-70021400D01*
X84195675Y-70259794D01*
X84195506Y-70266668D01*
X77622238Y-70266668D01*
X77597438Y-70178733D01*
X77588125Y-70159848D01*
X77503998Y-69989255D01*
X77503994Y-69989249D01*
X77502291Y-69985795D01*
X77373578Y-69813427D01*
X77346380Y-69788285D01*
X77218432Y-69670011D01*
X77218429Y-69670009D01*
X77215608Y-69667401D01*
X77212361Y-69665352D01*
X77212358Y-69665350D01*
X77036924Y-69554659D01*
X77036922Y-69554658D01*
X77033673Y-69552608D01*
X76926060Y-69509675D01*
X76837439Y-69474319D01*
X76837436Y-69474318D01*
X76833864Y-69472893D01*
X76622875Y-69430925D01*
X76508557Y-69429428D01*
X76411618Y-69428159D01*
X76411614Y-69428159D01*
X76407770Y-69428109D01*
X76195754Y-69464540D01*
X76073410Y-69509675D01*
X76015953Y-69509926D01*
X75984941Y-69490264D01*
X75572875Y-69078198D01*
X84835781Y-69078198D01*
X84836336Y-69082783D01*
X85689527Y-69935974D01*
X85700470Y-69941077D01*
X85707164Y-69939283D01*
X86559994Y-69086453D01*
X86565097Y-69075510D01*
X86563815Y-69070726D01*
X86535633Y-69048469D01*
X86529918Y-69044672D01*
X86320010Y-68928797D01*
X86313743Y-68925980D01*
X86087733Y-68845945D01*
X86081085Y-68844189D01*
X85845042Y-68802144D01*
X85838200Y-68801497D01*
X85598452Y-68798567D01*
X85591597Y-68799047D01*
X85354595Y-68835313D01*
X85347911Y-68836906D01*
X85120007Y-68911396D01*
X85113681Y-68914055D01*
X84901006Y-69024767D01*
X84895188Y-69028431D01*
X84842374Y-69068084D01*
X84835781Y-69078198D01*
X75572875Y-69078198D01*
X72670795Y-66176118D01*
X75633275Y-66176118D01*
X75634624Y-66181150D01*
X75639660Y-66184676D01*
X75846676Y-66305647D01*
X75852867Y-66308613D01*
X76076857Y-66394147D01*
X76083456Y-66396064D01*
X76318412Y-66443867D01*
X76325224Y-66444679D01*
X76564841Y-66453466D01*
X76571692Y-66453155D01*
X76809520Y-66422688D01*
X76816236Y-66421260D01*
X77045882Y-66352363D01*
X77052294Y-66349850D01*
X77267600Y-66244373D01*
X77273507Y-66240852D01*
X77357048Y-66181262D01*
X77363888Y-66171309D01*
X77363476Y-66167029D01*
X76510473Y-65314026D01*
X76499530Y-65308923D01*
X76492836Y-65310717D01*
X75638378Y-66165175D01*
X75633275Y-66176118D01*
X72670795Y-66176118D01*
X71829074Y-65334397D01*
X71804791Y-65282321D01*
X71819662Y-65226820D01*
X71829074Y-65215603D01*
X72128009Y-64916668D01*
X74995506Y-64916668D01*
X75009309Y-65156041D01*
X75010264Y-65162832D01*
X75062977Y-65396740D01*
X75065030Y-65403292D01*
X75155233Y-65625434D01*
X75158335Y-65631576D01*
X75267068Y-65809011D01*
X75276518Y-65816528D01*
X75279515Y-65816449D01*
X75280918Y-65815529D01*
X76135974Y-64960473D01*
X76140639Y-64950470D01*
X76858923Y-64950470D01*
X76860717Y-64957164D01*
X77712200Y-65808647D01*
X77723143Y-65813750D01*
X77727340Y-65812625D01*
X77788149Y-65728001D01*
X77791684Y-65722118D01*
X77897919Y-65507167D01*
X77900447Y-65500780D01*
X77970146Y-65271376D01*
X77971600Y-65264652D01*
X78003052Y-65025740D01*
X78003398Y-65021297D01*
X78005087Y-64952227D01*
X78004959Y-64947783D01*
X77985212Y-64707597D01*
X77984091Y-64700833D01*
X77925682Y-64468293D01*
X77923465Y-64461779D01*
X77827862Y-64241909D01*
X77824612Y-64235847D01*
X77731741Y-64092291D01*
X77722112Y-64085008D01*
X77718567Y-64085187D01*
X77717951Y-64085602D01*
X76864026Y-64939527D01*
X76858923Y-64950470D01*
X76140639Y-64950470D01*
X76141077Y-64949530D01*
X76139283Y-64942836D01*
X75287613Y-64091166D01*
X75276670Y-64086063D01*
X75272762Y-64087111D01*
X75193232Y-64203698D01*
X75189837Y-64209674D01*
X75088887Y-64427152D01*
X75086514Y-64433601D01*
X75022441Y-64664639D01*
X75021152Y-64671400D01*
X74995675Y-64909794D01*
X74995506Y-64916668D01*
X72128009Y-64916668D01*
X73316479Y-63728198D01*
X75635781Y-63728198D01*
X75636336Y-63732783D01*
X76489527Y-64585974D01*
X76500470Y-64591077D01*
X76507164Y-64589283D01*
X77359994Y-63736453D01*
X77365097Y-63725510D01*
X77363815Y-63720726D01*
X77335633Y-63698469D01*
X77329918Y-63694672D01*
X77120010Y-63578797D01*
X77113743Y-63575980D01*
X76887733Y-63495945D01*
X76881085Y-63494189D01*
X76645042Y-63452144D01*
X76638200Y-63451497D01*
X76398452Y-63448567D01*
X76391597Y-63449047D01*
X76154595Y-63485313D01*
X76147911Y-63486906D01*
X75920007Y-63561396D01*
X75913681Y-63564055D01*
X75701006Y-63674767D01*
X75695188Y-63678431D01*
X75642374Y-63718084D01*
X75635781Y-63728198D01*
X73316479Y-63728198D01*
X75984541Y-61060136D01*
X76036617Y-61035853D01*
X76077096Y-61042354D01*
X76133210Y-61066462D01*
X76136746Y-61067981D01*
X76231736Y-61089475D01*
X76342808Y-61114608D01*
X76342809Y-61114608D01*
X76346565Y-61115458D01*
X76468982Y-61120268D01*
X76557673Y-61123753D01*
X76557676Y-61123753D01*
X76561522Y-61123904D01*
X76565328Y-61123352D01*
X76565331Y-61123352D01*
X76640697Y-61112424D01*
X76774419Y-61093035D01*
X76778058Y-61091800D01*
X76778061Y-61091799D01*
X76974475Y-61025125D01*
X76978125Y-61023886D01*
X77165819Y-60918773D01*
X77217106Y-60876118D01*
X84833275Y-60876118D01*
X84834624Y-60881150D01*
X84839660Y-60884676D01*
X85046676Y-61005647D01*
X85052867Y-61008613D01*
X85276857Y-61094147D01*
X85283456Y-61096064D01*
X85518412Y-61143867D01*
X85525224Y-61144679D01*
X85764841Y-61153466D01*
X85771692Y-61153155D01*
X86009520Y-61122688D01*
X86016232Y-61121261D01*
X86045686Y-61112424D01*
X86103050Y-61115731D01*
X86144868Y-61155138D01*
X86152825Y-61205804D01*
X86131360Y-61343663D01*
X86150428Y-61489483D01*
X86209656Y-61624090D01*
X86213505Y-61628669D01*
X86213507Y-61628672D01*
X86300431Y-61732080D01*
X86300433Y-61732082D01*
X86304284Y-61736663D01*
X86426703Y-61818152D01*
X86567073Y-61862007D01*
X86573050Y-61862117D01*
X86573053Y-61862117D01*
X86647527Y-61863482D01*
X86714109Y-61864702D01*
X86719881Y-61863128D01*
X86719884Y-61863128D01*
X86850219Y-61827594D01*
X86850220Y-61827594D01*
X86855992Y-61826020D01*
X86861090Y-61822890D01*
X86861092Y-61822889D01*
X86976216Y-61752202D01*
X86976217Y-61752201D01*
X86981315Y-61749071D01*
X86985328Y-61744637D01*
X86985331Y-61744635D01*
X87075991Y-61644475D01*
X87080004Y-61640042D01*
X87144126Y-61507696D01*
X87168524Y-61362672D01*
X87168679Y-61350000D01*
X87168219Y-61346787D01*
X87148679Y-61210344D01*
X87148679Y-61210343D01*
X87147831Y-61204424D01*
X87086962Y-61070551D01*
X86990967Y-60959142D01*
X86971917Y-60946794D01*
X86872583Y-60882410D01*
X86867561Y-60879155D01*
X86861831Y-60877441D01*
X86861828Y-60877440D01*
X86732398Y-60838732D01*
X86732396Y-60838732D01*
X86726666Y-60837018D01*
X86720686Y-60836981D01*
X86720683Y-60836981D01*
X86650372Y-60836552D01*
X86579607Y-60836120D01*
X86578388Y-60836469D01*
X86524139Y-60824739D01*
X86509503Y-60813056D01*
X85710473Y-60014026D01*
X85699530Y-60008923D01*
X85692836Y-60010717D01*
X84838378Y-60865175D01*
X84833275Y-60876118D01*
X77217106Y-60876118D01*
X77331215Y-60781215D01*
X77468773Y-60615819D01*
X77573886Y-60428125D01*
X77583431Y-60400006D01*
X77641799Y-60228061D01*
X77641800Y-60228058D01*
X77643035Y-60224419D01*
X77673904Y-60011522D01*
X77675515Y-59950000D01*
X77655831Y-59735779D01*
X77632267Y-59652227D01*
X77622238Y-59616668D01*
X84195506Y-59616668D01*
X84209309Y-59856041D01*
X84210264Y-59862832D01*
X84262977Y-60096740D01*
X84265030Y-60103292D01*
X84355233Y-60325434D01*
X84358335Y-60331576D01*
X84467068Y-60509011D01*
X84476518Y-60516528D01*
X84479515Y-60516449D01*
X84480918Y-60515529D01*
X85335974Y-59660473D01*
X85340639Y-59650470D01*
X86058923Y-59650470D01*
X86060717Y-59657164D01*
X86912200Y-60508647D01*
X86923143Y-60513750D01*
X86927340Y-60512625D01*
X86988149Y-60428001D01*
X86991684Y-60422118D01*
X87097919Y-60207167D01*
X87100447Y-60200780D01*
X87170146Y-59971376D01*
X87171600Y-59964652D01*
X87203052Y-59725740D01*
X87203398Y-59721297D01*
X87205087Y-59652227D01*
X87204959Y-59647783D01*
X87185212Y-59407597D01*
X87184091Y-59400833D01*
X87125682Y-59168293D01*
X87123465Y-59161779D01*
X87027862Y-58941909D01*
X87024612Y-58935847D01*
X86931741Y-58792291D01*
X86922112Y-58785008D01*
X86918567Y-58785187D01*
X86917951Y-58785602D01*
X86064026Y-59639527D01*
X86058923Y-59650470D01*
X85340639Y-59650470D01*
X85341077Y-59649530D01*
X85339283Y-59642836D01*
X84487613Y-58791166D01*
X84476670Y-58786063D01*
X84472762Y-58787111D01*
X84393232Y-58903698D01*
X84389837Y-58909674D01*
X84288887Y-59127152D01*
X84286514Y-59133601D01*
X84222441Y-59364639D01*
X84221152Y-59371400D01*
X84195675Y-59609794D01*
X84195506Y-59616668D01*
X77622238Y-59616668D01*
X77598483Y-59532437D01*
X77598482Y-59532433D01*
X77597438Y-59528733D01*
X77595735Y-59525279D01*
X77594354Y-59521680D01*
X77596370Y-59520906D01*
X77590875Y-59471085D01*
X77613086Y-59431591D01*
X78375749Y-58668928D01*
X78427825Y-58644645D01*
X78483326Y-58659516D01*
X78516284Y-58706584D01*
X78511183Y-58764024D01*
X78453985Y-58885853D01*
X78453065Y-58891764D01*
X78453064Y-58891766D01*
X78451057Y-58904659D01*
X78431360Y-59031163D01*
X78432136Y-59037097D01*
X78432136Y-59037098D01*
X78449292Y-59168293D01*
X78450428Y-59176983D01*
X78509656Y-59311590D01*
X78513505Y-59316169D01*
X78513507Y-59316172D01*
X78600431Y-59419580D01*
X78600433Y-59419582D01*
X78604284Y-59424163D01*
X78726703Y-59505652D01*
X78867073Y-59549507D01*
X78873050Y-59549617D01*
X78873053Y-59549617D01*
X78947527Y-59550982D01*
X79014109Y-59552202D01*
X79019881Y-59550628D01*
X79019884Y-59550628D01*
X79150219Y-59515094D01*
X79150220Y-59515094D01*
X79155992Y-59513520D01*
X79161090Y-59510390D01*
X79161092Y-59510389D01*
X79276216Y-59439702D01*
X79276217Y-59439701D01*
X79281315Y-59436571D01*
X79285328Y-59432137D01*
X79285331Y-59432135D01*
X79346425Y-59364639D01*
X79380004Y-59327542D01*
X79386965Y-59313176D01*
X79441517Y-59200581D01*
X79444126Y-59195196D01*
X79468524Y-59050172D01*
X79468679Y-59037500D01*
X79468219Y-59034287D01*
X79463577Y-59001873D01*
X79475377Y-58945638D01*
X79487332Y-58930568D01*
X79989702Y-58428198D01*
X84835781Y-58428198D01*
X84836336Y-58432783D01*
X85689527Y-59285974D01*
X85700470Y-59291077D01*
X85707164Y-59289283D01*
X86559994Y-58436453D01*
X86565097Y-58425510D01*
X86563815Y-58420726D01*
X86535633Y-58398469D01*
X86529918Y-58394672D01*
X86320010Y-58278797D01*
X86313743Y-58275980D01*
X86087733Y-58195945D01*
X86081085Y-58194189D01*
X85845042Y-58152144D01*
X85838200Y-58151497D01*
X85598452Y-58148567D01*
X85591597Y-58149047D01*
X85354595Y-58185313D01*
X85347911Y-58186906D01*
X85120007Y-58261396D01*
X85113681Y-58264055D01*
X84901006Y-58374767D01*
X84895188Y-58378431D01*
X84842374Y-58418084D01*
X84835781Y-58428198D01*
X79989702Y-58428198D01*
X80997797Y-57420103D01*
X81049873Y-57395820D01*
X81057194Y-57395500D01*
X82288529Y-57395500D01*
X82342523Y-57415152D01*
X82352822Y-57425442D01*
X82404284Y-57486663D01*
X82526703Y-57568152D01*
X82667073Y-57612007D01*
X82673050Y-57612117D01*
X82673053Y-57612117D01*
X82747527Y-57613482D01*
X82814109Y-57614702D01*
X82819881Y-57613128D01*
X82819884Y-57613128D01*
X82950219Y-57577594D01*
X82950220Y-57577594D01*
X82955992Y-57576020D01*
X82961090Y-57572890D01*
X82961092Y-57572889D01*
X83076216Y-57502202D01*
X83076217Y-57502201D01*
X83081315Y-57499071D01*
X83085328Y-57494637D01*
X83085331Y-57494635D01*
X83174774Y-57395820D01*
X83180004Y-57390042D01*
X83244126Y-57257696D01*
X83268524Y-57112672D01*
X83268679Y-57100000D01*
X83247831Y-56954424D01*
X83186962Y-56820551D01*
X83090967Y-56709142D01*
X83079662Y-56701814D01*
X82972583Y-56632410D01*
X82967561Y-56629155D01*
X82961831Y-56627441D01*
X82961828Y-56627440D01*
X82832398Y-56588732D01*
X82832396Y-56588732D01*
X82826666Y-56587018D01*
X82820686Y-56586981D01*
X82820683Y-56586981D01*
X82751318Y-56586558D01*
X82679607Y-56586120D01*
X82538208Y-56626532D01*
X82413834Y-56705006D01*
X82409874Y-56709490D01*
X82351041Y-56776105D01*
X82300568Y-56803567D01*
X82288080Y-56804500D01*
X80953189Y-56804500D01*
X80948409Y-56804149D01*
X80943915Y-56802606D01*
X80936163Y-56802897D01*
X80895039Y-56804441D01*
X80891888Y-56804500D01*
X80872514Y-56804500D01*
X80868708Y-56805208D01*
X80866959Y-56805370D01*
X80862401Y-56805666D01*
X80833910Y-56806736D01*
X80826782Y-56809799D01*
X80826780Y-56809799D01*
X80822146Y-56811790D01*
X80804370Y-56817191D01*
X80791778Y-56819536D01*
X80785178Y-56823604D01*
X80785174Y-56823606D01*
X80768647Y-56833794D01*
X80757724Y-56839468D01*
X80732767Y-56850190D01*
X80727968Y-56854132D01*
X80722570Y-56859530D01*
X80707251Y-56871639D01*
X80704671Y-56873229D01*
X80704668Y-56873232D01*
X80698068Y-56877300D01*
X80693374Y-56883473D01*
X80693373Y-56883474D01*
X80680149Y-56900865D01*
X80672682Y-56909418D01*
X79082209Y-58499890D01*
X79030133Y-58524173D01*
X79022299Y-58524491D01*
X78963448Y-58524132D01*
X78879607Y-58523620D01*
X78738208Y-58564032D01*
X78733148Y-58567225D01*
X78733145Y-58567226D01*
X78676145Y-58603190D01*
X78619994Y-58615382D01*
X78569144Y-58588628D01*
X78547387Y-58535447D01*
X78564904Y-58480723D01*
X78571925Y-58472752D01*
X81949574Y-55095103D01*
X82001650Y-55070820D01*
X82008971Y-55070500D01*
X84551096Y-55070500D01*
X84605090Y-55090152D01*
X84627380Y-55119333D01*
X84681974Y-55237757D01*
X84806131Y-55413436D01*
X84960224Y-55563547D01*
X85139093Y-55683063D01*
X85254301Y-55732560D01*
X85285733Y-55746064D01*
X85336746Y-55767981D01*
X85442007Y-55791799D01*
X85542808Y-55814608D01*
X85542809Y-55814608D01*
X85546565Y-55815458D01*
X85668982Y-55820268D01*
X85757673Y-55823753D01*
X85757676Y-55823753D01*
X85761522Y-55823904D01*
X85765328Y-55823352D01*
X85765331Y-55823352D01*
X85834641Y-55813302D01*
X85974419Y-55793035D01*
X85978058Y-55791800D01*
X85978061Y-55791799D01*
X86129472Y-55740402D01*
X86186918Y-55741655D01*
X86215870Y-55760547D01*
X90370926Y-59915603D01*
X90395209Y-59967679D01*
X90380338Y-60023180D01*
X90370926Y-60034397D01*
X86214930Y-64190393D01*
X86162854Y-64214676D01*
X86124410Y-64209017D01*
X86033864Y-64172893D01*
X85822875Y-64130925D01*
X85708557Y-64129428D01*
X85611618Y-64128159D01*
X85611614Y-64128159D01*
X85607770Y-64128109D01*
X85395754Y-64164540D01*
X85193928Y-64238997D01*
X85190620Y-64240965D01*
X85012750Y-64346787D01*
X85009050Y-64348988D01*
X84847312Y-64490829D01*
X84769697Y-64589283D01*
X84729682Y-64640042D01*
X84714130Y-64659769D01*
X84712340Y-64663172D01*
X84712337Y-64663176D01*
X84649022Y-64783519D01*
X84613966Y-64850150D01*
X84605091Y-64878733D01*
X84559444Y-65025740D01*
X84550173Y-65055597D01*
X84524888Y-65269229D01*
X84538958Y-65483891D01*
X84591911Y-65692395D01*
X84681974Y-65887757D01*
X84806131Y-66063436D01*
X84960224Y-66213547D01*
X85139093Y-66333063D01*
X85272554Y-66390402D01*
X85285733Y-66396064D01*
X85336746Y-66417981D01*
X85442007Y-66441799D01*
X85542808Y-66464608D01*
X85542809Y-66464608D01*
X85546565Y-66465458D01*
X85668982Y-66470268D01*
X85757673Y-66473753D01*
X85757676Y-66473753D01*
X85761522Y-66473904D01*
X85765328Y-66473352D01*
X85765331Y-66473352D01*
X85834641Y-66463302D01*
X85974419Y-66443035D01*
X85978058Y-66441800D01*
X85978061Y-66441799D01*
X86129472Y-66390402D01*
X86186918Y-66391655D01*
X86215870Y-66410547D01*
X90370926Y-70565603D01*
X90395209Y-70617679D01*
X90380338Y-70673180D01*
X90370926Y-70684397D01*
X86214930Y-74840393D01*
X86162854Y-74864676D01*
X86124410Y-74859017D01*
X86033864Y-74822893D01*
X85822875Y-74780925D01*
X85708557Y-74779428D01*
X85611618Y-74778159D01*
X85611614Y-74778159D01*
X85607770Y-74778109D01*
X85395754Y-74814540D01*
X85193928Y-74888997D01*
X85190620Y-74890965D01*
X85048315Y-74975628D01*
X85009050Y-74998988D01*
X84847312Y-75140829D01*
X84714130Y-75309769D01*
X84712340Y-75313172D01*
X84712337Y-75313176D01*
X84629258Y-75471085D01*
X84613966Y-75500150D01*
X84612825Y-75503826D01*
X84559444Y-75675740D01*
X84550173Y-75705597D01*
X84524888Y-75919229D01*
X84538958Y-76133891D01*
X84591911Y-76342395D01*
X84681974Y-76537757D01*
X84806131Y-76713436D01*
X84808890Y-76716124D01*
X84808892Y-76716126D01*
X84861096Y-76766981D01*
X84960224Y-76863547D01*
X85139093Y-76983063D01*
X85239030Y-77025999D01*
X85285733Y-77046064D01*
X85336746Y-77067981D01*
X85442007Y-77091799D01*
X85542808Y-77114608D01*
X85542809Y-77114608D01*
X85546565Y-77115458D01*
X85668982Y-77120268D01*
X85757673Y-77123753D01*
X85757676Y-77123753D01*
X85761522Y-77123904D01*
X85765328Y-77123352D01*
X85765331Y-77123352D01*
X85834641Y-77113302D01*
X85974419Y-77093035D01*
X85978058Y-77091800D01*
X85978061Y-77091799D01*
X86174475Y-77025125D01*
X86178125Y-77023886D01*
X86365819Y-76918773D01*
X86531215Y-76781215D01*
X86668773Y-76615819D01*
X86773886Y-76428125D01*
X86801800Y-76345893D01*
X86841799Y-76228061D01*
X86841800Y-76228058D01*
X86843035Y-76224419D01*
X86873904Y-76011522D01*
X86875515Y-75950000D01*
X86855831Y-75735779D01*
X86819558Y-75607164D01*
X86808137Y-75566668D01*
X93395506Y-75566668D01*
X93409309Y-75806041D01*
X93410264Y-75812832D01*
X93462977Y-76046740D01*
X93465030Y-76053292D01*
X93555233Y-76275434D01*
X93558335Y-76281576D01*
X93667068Y-76459011D01*
X93676518Y-76466528D01*
X93679515Y-76466449D01*
X93680918Y-76465529D01*
X94535974Y-75610473D01*
X94540639Y-75600470D01*
X95258923Y-75600470D01*
X95260717Y-75607164D01*
X96112200Y-76458647D01*
X96123143Y-76463750D01*
X96127340Y-76462625D01*
X96188149Y-76378001D01*
X96191684Y-76372118D01*
X96297919Y-76157167D01*
X96300447Y-76150780D01*
X96370146Y-75921376D01*
X96371600Y-75914652D01*
X96403052Y-75675740D01*
X96403398Y-75671297D01*
X96405087Y-75602227D01*
X96404959Y-75597783D01*
X96385212Y-75357597D01*
X96384091Y-75350833D01*
X96325682Y-75118293D01*
X96323465Y-75111779D01*
X96227862Y-74891909D01*
X96224612Y-74885847D01*
X96131741Y-74742291D01*
X96122112Y-74735008D01*
X96118567Y-74735187D01*
X96117951Y-74735602D01*
X95264026Y-75589527D01*
X95258923Y-75600470D01*
X94540639Y-75600470D01*
X94541077Y-75599530D01*
X94539283Y-75592836D01*
X93687613Y-74741166D01*
X93676670Y-74736063D01*
X93672762Y-74737111D01*
X93593232Y-74853698D01*
X93589837Y-74859674D01*
X93488887Y-75077152D01*
X93486514Y-75083601D01*
X93422441Y-75314639D01*
X93421152Y-75321400D01*
X93395675Y-75559794D01*
X93395506Y-75566668D01*
X86808137Y-75566668D01*
X86798483Y-75532437D01*
X86798482Y-75532433D01*
X86797438Y-75528733D01*
X86795738Y-75525286D01*
X86794354Y-75521680D01*
X86796370Y-75520906D01*
X86790875Y-75471085D01*
X86813086Y-75431591D01*
X87866479Y-74378198D01*
X94035781Y-74378198D01*
X94036336Y-74382783D01*
X94889527Y-75235974D01*
X94900470Y-75241077D01*
X94907164Y-75239283D01*
X95759994Y-74386453D01*
X95765097Y-74375510D01*
X95763815Y-74370726D01*
X95735633Y-74348469D01*
X95729918Y-74344672D01*
X95520010Y-74228797D01*
X95513743Y-74225980D01*
X95287733Y-74145945D01*
X95281085Y-74144189D01*
X95045042Y-74102144D01*
X95038200Y-74101497D01*
X94798452Y-74098567D01*
X94791597Y-74099047D01*
X94554595Y-74135313D01*
X94547911Y-74136906D01*
X94320007Y-74211396D01*
X94313681Y-74214055D01*
X94101006Y-74324767D01*
X94095188Y-74328431D01*
X94042374Y-74368084D01*
X94035781Y-74378198D01*
X87866479Y-74378198D01*
X91199574Y-71045103D01*
X91251650Y-71020820D01*
X91258971Y-71020500D01*
X93751096Y-71020500D01*
X93805090Y-71040152D01*
X93827380Y-71069333D01*
X93881974Y-71187757D01*
X94006131Y-71363436D01*
X94160224Y-71513547D01*
X94339093Y-71633063D01*
X94536746Y-71717981D01*
X94642007Y-71741799D01*
X94742808Y-71764608D01*
X94742809Y-71764608D01*
X94746565Y-71765458D01*
X94868982Y-71770268D01*
X94957673Y-71773753D01*
X94957676Y-71773753D01*
X94961522Y-71773904D01*
X94965328Y-71773352D01*
X94965331Y-71773352D01*
X95034641Y-71763302D01*
X95174419Y-71743035D01*
X95178058Y-71741800D01*
X95178061Y-71741799D01*
X95374475Y-71675125D01*
X95378125Y-71673886D01*
X95565819Y-71568773D01*
X95617106Y-71526118D01*
X103233275Y-71526118D01*
X103234624Y-71531150D01*
X103239660Y-71534676D01*
X103446676Y-71655647D01*
X103452867Y-71658613D01*
X103676857Y-71744147D01*
X103683456Y-71746064D01*
X103918412Y-71793867D01*
X103925224Y-71794679D01*
X104164841Y-71803466D01*
X104171692Y-71803155D01*
X104409520Y-71772688D01*
X104416236Y-71771260D01*
X104645882Y-71702363D01*
X104652294Y-71699850D01*
X104867600Y-71594373D01*
X104873507Y-71590852D01*
X104957048Y-71531262D01*
X104963888Y-71521309D01*
X104963476Y-71517029D01*
X104949086Y-71502639D01*
X108195421Y-71502639D01*
X108214051Y-71798752D01*
X108214713Y-71803994D01*
X108270309Y-72095443D01*
X108271618Y-72100543D01*
X108363311Y-72382741D01*
X108365250Y-72387636D01*
X108491577Y-72656096D01*
X108494123Y-72660728D01*
X108653102Y-72911240D01*
X108656206Y-72915512D01*
X108725871Y-72999723D01*
X108736285Y-73005833D01*
X108741496Y-73004951D01*
X110235974Y-71510473D01*
X110240639Y-71500470D01*
X110958923Y-71500470D01*
X110960717Y-71507164D01*
X112454215Y-73000662D01*
X112465158Y-73005765D01*
X112470262Y-73004397D01*
X112543794Y-72915512D01*
X112546898Y-72911240D01*
X112705877Y-72660728D01*
X112708423Y-72656096D01*
X112834750Y-72387636D01*
X112836689Y-72382741D01*
X112928382Y-72100543D01*
X112929691Y-72095443D01*
X112985287Y-71803994D01*
X112985949Y-71798752D01*
X113004579Y-71502639D01*
X113004579Y-71497361D01*
X112985949Y-71201248D01*
X112985287Y-71196006D01*
X112929691Y-70904557D01*
X112928382Y-70899457D01*
X112836689Y-70617259D01*
X112834750Y-70612364D01*
X112708423Y-70343904D01*
X112705877Y-70339272D01*
X112546898Y-70088760D01*
X112543794Y-70084488D01*
X112474129Y-70000277D01*
X112463715Y-69994167D01*
X112458504Y-69995049D01*
X110964026Y-71489527D01*
X110958923Y-71500470D01*
X110240639Y-71500470D01*
X110241077Y-71499530D01*
X110239283Y-71492836D01*
X108745785Y-69999338D01*
X108734842Y-69994235D01*
X108729738Y-69995603D01*
X108656206Y-70084488D01*
X108653102Y-70088760D01*
X108494123Y-70339272D01*
X108491577Y-70343904D01*
X108365250Y-70612364D01*
X108363311Y-70617259D01*
X108271618Y-70899457D01*
X108270309Y-70904557D01*
X108214713Y-71196006D01*
X108214051Y-71201248D01*
X108195421Y-71497361D01*
X108195421Y-71502639D01*
X104949086Y-71502639D01*
X104110473Y-70664026D01*
X104099530Y-70658923D01*
X104092836Y-70660717D01*
X103238378Y-71515175D01*
X103233275Y-71526118D01*
X95617106Y-71526118D01*
X95731215Y-71431215D01*
X95868773Y-71265819D01*
X95973886Y-71078125D01*
X95977395Y-71067789D01*
X96041799Y-70878061D01*
X96041800Y-70878058D01*
X96043035Y-70874419D01*
X96073904Y-70661522D01*
X96075515Y-70600000D01*
X96055831Y-70385779D01*
X96022238Y-70266668D01*
X102595506Y-70266668D01*
X102609309Y-70506041D01*
X102610264Y-70512832D01*
X102662977Y-70746740D01*
X102665030Y-70753292D01*
X102755233Y-70975434D01*
X102758335Y-70981576D01*
X102867068Y-71159011D01*
X102876518Y-71166528D01*
X102879515Y-71166449D01*
X102880918Y-71165529D01*
X103735974Y-70310473D01*
X103740639Y-70300470D01*
X104458923Y-70300470D01*
X104460717Y-70307164D01*
X105312200Y-71158647D01*
X105323143Y-71163750D01*
X105327340Y-71162625D01*
X105388149Y-71078001D01*
X105391684Y-71072118D01*
X105497919Y-70857167D01*
X105500447Y-70850780D01*
X105570146Y-70621376D01*
X105571600Y-70614652D01*
X105603052Y-70375740D01*
X105603398Y-70371297D01*
X105605087Y-70302227D01*
X105604959Y-70297783D01*
X105585212Y-70057597D01*
X105584091Y-70050833D01*
X105525682Y-69818293D01*
X105523465Y-69811779D01*
X105446301Y-69634316D01*
X109091796Y-69634316D01*
X109092257Y-69638704D01*
X110589527Y-71135974D01*
X110600470Y-71141077D01*
X110607164Y-71139283D01*
X112102962Y-69643485D01*
X112108065Y-69632542D01*
X112106923Y-69628280D01*
X111890667Y-69471162D01*
X111886212Y-69468334D01*
X111626204Y-69325393D01*
X111621434Y-69323149D01*
X111345567Y-69213926D01*
X111340548Y-69212295D01*
X111053166Y-69138508D01*
X111047983Y-69137519D01*
X110753603Y-69100330D01*
X110748363Y-69100000D01*
X110451637Y-69100000D01*
X110446397Y-69100330D01*
X110152017Y-69137519D01*
X110146834Y-69138508D01*
X109859452Y-69212295D01*
X109854433Y-69213926D01*
X109578566Y-69323149D01*
X109573796Y-69325393D01*
X109313788Y-69468334D01*
X109309333Y-69471162D01*
X109098548Y-69624306D01*
X109091796Y-69634316D01*
X105446301Y-69634316D01*
X105427862Y-69591909D01*
X105424612Y-69585847D01*
X105331741Y-69442291D01*
X105322112Y-69435008D01*
X105318567Y-69435187D01*
X105317951Y-69435602D01*
X104464026Y-70289527D01*
X104458923Y-70300470D01*
X103740639Y-70300470D01*
X103741077Y-70299530D01*
X103739283Y-70292836D01*
X102887613Y-69441166D01*
X102876670Y-69436063D01*
X102872762Y-69437111D01*
X102793232Y-69553698D01*
X102789837Y-69559674D01*
X102688887Y-69777152D01*
X102686514Y-69783601D01*
X102622441Y-70014639D01*
X102621152Y-70021400D01*
X102595675Y-70259794D01*
X102595506Y-70266668D01*
X96022238Y-70266668D01*
X95997438Y-70178733D01*
X95988125Y-70159848D01*
X95903998Y-69989255D01*
X95903994Y-69989249D01*
X95902291Y-69985795D01*
X95773578Y-69813427D01*
X95746380Y-69788285D01*
X95618432Y-69670011D01*
X95618429Y-69670009D01*
X95615608Y-69667401D01*
X95612361Y-69665352D01*
X95612358Y-69665350D01*
X95436924Y-69554659D01*
X95436922Y-69554658D01*
X95433673Y-69552608D01*
X95326060Y-69509675D01*
X95237439Y-69474319D01*
X95237436Y-69474318D01*
X95233864Y-69472893D01*
X95086914Y-69443663D01*
X97281360Y-69443663D01*
X97282136Y-69449597D01*
X97282136Y-69449598D01*
X97295749Y-69553698D01*
X97300428Y-69589483D01*
X97359656Y-69724090D01*
X97363505Y-69728669D01*
X97363507Y-69728672D01*
X97450431Y-69832080D01*
X97450433Y-69832082D01*
X97454284Y-69836663D01*
X97576703Y-69918152D01*
X97717073Y-69962007D01*
X97723050Y-69962117D01*
X97723053Y-69962117D01*
X97797527Y-69963482D01*
X97864109Y-69964702D01*
X97869881Y-69963128D01*
X97869884Y-69963128D01*
X98000219Y-69927594D01*
X98000220Y-69927594D01*
X98005992Y-69926020D01*
X98011090Y-69922890D01*
X98011092Y-69922889D01*
X98126216Y-69852202D01*
X98126217Y-69852201D01*
X98131315Y-69849071D01*
X98135328Y-69844637D01*
X98135331Y-69844635D01*
X98225991Y-69744475D01*
X98230004Y-69740042D01*
X98266193Y-69665350D01*
X98291517Y-69613081D01*
X98294126Y-69607696D01*
X98307486Y-69528286D01*
X98317986Y-69465870D01*
X98318524Y-69462672D01*
X98318679Y-69450000D01*
X98318219Y-69446787D01*
X98298679Y-69310344D01*
X98298679Y-69310343D01*
X98297831Y-69304424D01*
X98236962Y-69170551D01*
X98157387Y-69078198D01*
X103235781Y-69078198D01*
X103236336Y-69082783D01*
X104089527Y-69935974D01*
X104100470Y-69941077D01*
X104107164Y-69939283D01*
X104959994Y-69086453D01*
X104965097Y-69075510D01*
X104963815Y-69070726D01*
X104935633Y-69048469D01*
X104929918Y-69044672D01*
X104720010Y-68928797D01*
X104713743Y-68925980D01*
X104487733Y-68845945D01*
X104481085Y-68844189D01*
X104245042Y-68802144D01*
X104238200Y-68801497D01*
X103998452Y-68798567D01*
X103991597Y-68799047D01*
X103754595Y-68835313D01*
X103747911Y-68836906D01*
X103520007Y-68911396D01*
X103513681Y-68914055D01*
X103301006Y-69024767D01*
X103295188Y-69028431D01*
X103242374Y-69068084D01*
X103235781Y-69078198D01*
X98157387Y-69078198D01*
X98140967Y-69059142D01*
X98129662Y-69051814D01*
X98022583Y-68982410D01*
X98017561Y-68979155D01*
X98011831Y-68977441D01*
X98011828Y-68977440D01*
X97882398Y-68938732D01*
X97882396Y-68938732D01*
X97876666Y-68937018D01*
X97870686Y-68936981D01*
X97870683Y-68936981D01*
X97801318Y-68936558D01*
X97729607Y-68936120D01*
X97723851Y-68937765D01*
X97604055Y-68972003D01*
X97588208Y-68976532D01*
X97463834Y-69055006D01*
X97366484Y-69165233D01*
X97303985Y-69298353D01*
X97303065Y-69304264D01*
X97303064Y-69304266D01*
X97302118Y-69310344D01*
X97281360Y-69443663D01*
X95086914Y-69443663D01*
X95022875Y-69430925D01*
X94908557Y-69429428D01*
X94811618Y-69428159D01*
X94811614Y-69428159D01*
X94807770Y-69428109D01*
X94595754Y-69464540D01*
X94393928Y-69538997D01*
X94390620Y-69540965D01*
X94218300Y-69643485D01*
X94209050Y-69648988D01*
X94047312Y-69790829D01*
X94029497Y-69813427D01*
X93932889Y-69935974D01*
X93914130Y-69959769D01*
X93912340Y-69963172D01*
X93912337Y-69963176D01*
X93822141Y-70134612D01*
X93779609Y-70173245D01*
X93747802Y-70179500D01*
X91208971Y-70179500D01*
X91154977Y-70159848D01*
X91149574Y-70154897D01*
X88863906Y-67869229D01*
X89624888Y-67869229D01*
X89638958Y-68083891D01*
X89691911Y-68292395D01*
X89781974Y-68487757D01*
X89906131Y-68663436D01*
X90060224Y-68813547D01*
X90239093Y-68933063D01*
X90436746Y-69017981D01*
X90482929Y-69028431D01*
X90642808Y-69064608D01*
X90642809Y-69064608D01*
X90646565Y-69065458D01*
X90768982Y-69070268D01*
X90857673Y-69073753D01*
X90857676Y-69073753D01*
X90861522Y-69073904D01*
X90865328Y-69073352D01*
X90865331Y-69073352D01*
X90963332Y-69059142D01*
X91074419Y-69043035D01*
X91078058Y-69041800D01*
X91078061Y-69041799D01*
X91274475Y-68975125D01*
X91278125Y-68973886D01*
X91465819Y-68868773D01*
X91631215Y-68731215D01*
X91768773Y-68565819D01*
X91873886Y-68378125D01*
X91901800Y-68295893D01*
X91941799Y-68178061D01*
X91941800Y-68178058D01*
X91943035Y-68174419D01*
X91973904Y-67961522D01*
X91975515Y-67900000D01*
X91955831Y-67685779D01*
X91897438Y-67478733D01*
X91895735Y-67475279D01*
X91803998Y-67289255D01*
X91803994Y-67289249D01*
X91802291Y-67285795D01*
X91673578Y-67113427D01*
X91646380Y-67088285D01*
X91518432Y-66970011D01*
X91518429Y-66970009D01*
X91515608Y-66967401D01*
X91512361Y-66965352D01*
X91512358Y-66965350D01*
X91336924Y-66854659D01*
X91336922Y-66854658D01*
X91333673Y-66852608D01*
X91232841Y-66812380D01*
X91137439Y-66774319D01*
X91137436Y-66774318D01*
X91133864Y-66772893D01*
X90922875Y-66730925D01*
X90808557Y-66729428D01*
X90711618Y-66728159D01*
X90711614Y-66728159D01*
X90707770Y-66728109D01*
X90495754Y-66764540D01*
X90293928Y-66838997D01*
X90290620Y-66840965D01*
X90267603Y-66854659D01*
X90109050Y-66948988D01*
X89947312Y-67090829D01*
X89814130Y-67259769D01*
X89812340Y-67263172D01*
X89812337Y-67263176D01*
X89719843Y-67438981D01*
X89713966Y-67450150D01*
X89650173Y-67655597D01*
X89624888Y-67869229D01*
X88863906Y-67869229D01*
X87170795Y-66176118D01*
X94033275Y-66176118D01*
X94034624Y-66181150D01*
X94039660Y-66184676D01*
X94246676Y-66305647D01*
X94252867Y-66308613D01*
X94476857Y-66394147D01*
X94483456Y-66396064D01*
X94718412Y-66443867D01*
X94725224Y-66444679D01*
X94964841Y-66453466D01*
X94971692Y-66453155D01*
X95209520Y-66422688D01*
X95216236Y-66421260D01*
X95445882Y-66352363D01*
X95452294Y-66349850D01*
X95667600Y-66244373D01*
X95673507Y-66240852D01*
X95757048Y-66181262D01*
X95763888Y-66171309D01*
X95763476Y-66167029D01*
X94910473Y-65314026D01*
X94899530Y-65308923D01*
X94892836Y-65310717D01*
X94038378Y-66165175D01*
X94033275Y-66176118D01*
X87170795Y-66176118D01*
X86810547Y-65815870D01*
X86786264Y-65763794D01*
X86790402Y-65729472D01*
X86841799Y-65578061D01*
X86841800Y-65578058D01*
X86843035Y-65574419D01*
X86873904Y-65361522D01*
X86875515Y-65300000D01*
X86855831Y-65085779D01*
X86819558Y-64957164D01*
X86808137Y-64916668D01*
X93395506Y-64916668D01*
X93409309Y-65156041D01*
X93410264Y-65162832D01*
X93462977Y-65396740D01*
X93465030Y-65403292D01*
X93555233Y-65625434D01*
X93558335Y-65631576D01*
X93667068Y-65809011D01*
X93676518Y-65816528D01*
X93679515Y-65816449D01*
X93680918Y-65815529D01*
X94535974Y-64960473D01*
X94540639Y-64950470D01*
X95258923Y-64950470D01*
X95260717Y-64957164D01*
X96112200Y-65808647D01*
X96123143Y-65813750D01*
X96127340Y-65812625D01*
X96188149Y-65728001D01*
X96191684Y-65722118D01*
X96297919Y-65507167D01*
X96300447Y-65500780D01*
X96370146Y-65271376D01*
X96371600Y-65264652D01*
X96403052Y-65025740D01*
X96403398Y-65021297D01*
X96405087Y-64952227D01*
X96404959Y-64947783D01*
X96385212Y-64707597D01*
X96384091Y-64700833D01*
X96325682Y-64468293D01*
X96323465Y-64461779D01*
X96227862Y-64241909D01*
X96224612Y-64235847D01*
X96131741Y-64092291D01*
X96122112Y-64085008D01*
X96118567Y-64085187D01*
X96117951Y-64085602D01*
X95264026Y-64939527D01*
X95258923Y-64950470D01*
X94540639Y-64950470D01*
X94541077Y-64949530D01*
X94539283Y-64942836D01*
X93687613Y-64091166D01*
X93676670Y-64086063D01*
X93672762Y-64087111D01*
X93593232Y-64203698D01*
X93589837Y-64209674D01*
X93488887Y-64427152D01*
X93486514Y-64433601D01*
X93422441Y-64664639D01*
X93421152Y-64671400D01*
X93395675Y-64909794D01*
X93395506Y-64916668D01*
X86808137Y-64916668D01*
X86798483Y-64882437D01*
X86798482Y-64882433D01*
X86797438Y-64878733D01*
X86795735Y-64875279D01*
X86794354Y-64871680D01*
X86796370Y-64870906D01*
X86790875Y-64821085D01*
X86813086Y-64781591D01*
X87866479Y-63728198D01*
X94035781Y-63728198D01*
X94036336Y-63732783D01*
X94889527Y-64585974D01*
X94900470Y-64591077D01*
X94907164Y-64589283D01*
X95759994Y-63736453D01*
X95765097Y-63725510D01*
X95763815Y-63720726D01*
X95735633Y-63698469D01*
X95729918Y-63694672D01*
X95520010Y-63578797D01*
X95513743Y-63575980D01*
X95287733Y-63495945D01*
X95281085Y-63494189D01*
X95045042Y-63452144D01*
X95038200Y-63451497D01*
X94798452Y-63448567D01*
X94791597Y-63449047D01*
X94554595Y-63485313D01*
X94547911Y-63486906D01*
X94320007Y-63561396D01*
X94313681Y-63564055D01*
X94101006Y-63674767D01*
X94095188Y-63678431D01*
X94042374Y-63718084D01*
X94035781Y-63728198D01*
X87866479Y-63728198D01*
X91175241Y-60419436D01*
X91175244Y-60419434D01*
X91199575Y-60395103D01*
X91251651Y-60370820D01*
X91258972Y-60370500D01*
X93751096Y-60370500D01*
X93805090Y-60390152D01*
X93827380Y-60419333D01*
X93828664Y-60422118D01*
X93881974Y-60537757D01*
X94006131Y-60713436D01*
X94160224Y-60863547D01*
X94339093Y-60983063D01*
X94461966Y-61035853D01*
X94532175Y-61066017D01*
X94536746Y-61067981D01*
X94631736Y-61089475D01*
X94742808Y-61114608D01*
X94742809Y-61114608D01*
X94746565Y-61115458D01*
X94868982Y-61120268D01*
X94957673Y-61123753D01*
X94957676Y-61123753D01*
X94961522Y-61123904D01*
X94965328Y-61123352D01*
X94965331Y-61123352D01*
X95040697Y-61112424D01*
X95174419Y-61093035D01*
X95178058Y-61091800D01*
X95178061Y-61091799D01*
X95329472Y-61040402D01*
X95386918Y-61041655D01*
X95415870Y-61060547D01*
X99905566Y-65550243D01*
X99905567Y-65550245D01*
X99999755Y-65644433D01*
X100023718Y-65656643D01*
X100034953Y-65663527D01*
X100056718Y-65679340D01*
X100063004Y-65681382D01*
X100063005Y-65681383D01*
X100082300Y-65687652D01*
X100094473Y-65692694D01*
X100118438Y-65704905D01*
X100144998Y-65709111D01*
X100157817Y-65712189D01*
X100177110Y-65718458D01*
X100177113Y-65718458D01*
X100183399Y-65720501D01*
X100316601Y-65720501D01*
X100316603Y-65720500D01*
X102951096Y-65720500D01*
X103005090Y-65740152D01*
X103027380Y-65769333D01*
X103081974Y-65887757D01*
X103206131Y-66063436D01*
X103360224Y-66213547D01*
X103539093Y-66333063D01*
X103672554Y-66390402D01*
X103685733Y-66396064D01*
X103736746Y-66417981D01*
X103842007Y-66441799D01*
X103942808Y-66464608D01*
X103942809Y-66464608D01*
X103946565Y-66465458D01*
X104068982Y-66470268D01*
X104157673Y-66473753D01*
X104157676Y-66473753D01*
X104161522Y-66473904D01*
X104165328Y-66473352D01*
X104165331Y-66473352D01*
X104234641Y-66463302D01*
X104374419Y-66443035D01*
X104378058Y-66441800D01*
X104378061Y-66441799D01*
X104574475Y-66375125D01*
X104578125Y-66373886D01*
X104765819Y-66268773D01*
X104931215Y-66131215D01*
X105068773Y-65965819D01*
X105173886Y-65778125D01*
X105178751Y-65763794D01*
X105241799Y-65578061D01*
X105241800Y-65578058D01*
X105243035Y-65574419D01*
X105273904Y-65361522D01*
X105275515Y-65300000D01*
X105255831Y-65085779D01*
X105197438Y-64878733D01*
X105188125Y-64859848D01*
X105103998Y-64689255D01*
X105103994Y-64689249D01*
X105102291Y-64685795D01*
X104973578Y-64513427D01*
X104962997Y-64503646D01*
X104818432Y-64370011D01*
X104818429Y-64370009D01*
X104815608Y-64367401D01*
X104812361Y-64365352D01*
X104812358Y-64365350D01*
X104636924Y-64254659D01*
X104636922Y-64254658D01*
X104633673Y-64252608D01*
X104484105Y-64192937D01*
X104437439Y-64174319D01*
X104437436Y-64174318D01*
X104433864Y-64172893D01*
X104222875Y-64130925D01*
X104108557Y-64129428D01*
X104011618Y-64128159D01*
X104011614Y-64128159D01*
X104007770Y-64128109D01*
X103795754Y-64164540D01*
X103593928Y-64238997D01*
X103590620Y-64240965D01*
X103412750Y-64346787D01*
X103409050Y-64348988D01*
X103247312Y-64490829D01*
X103169697Y-64589283D01*
X103129682Y-64640042D01*
X103114130Y-64659769D01*
X103112340Y-64663172D01*
X103112337Y-64663176D01*
X103022141Y-64834612D01*
X102979609Y-64873245D01*
X102947802Y-64879500D01*
X100458971Y-64879500D01*
X100404977Y-64859848D01*
X100399574Y-64854897D01*
X96420795Y-60876118D01*
X103233275Y-60876118D01*
X103234624Y-60881150D01*
X103239660Y-60884676D01*
X103446676Y-61005647D01*
X103452867Y-61008613D01*
X103676857Y-61094147D01*
X103683456Y-61096064D01*
X103918412Y-61143867D01*
X103925224Y-61144679D01*
X104164841Y-61153466D01*
X104171692Y-61153155D01*
X104409520Y-61122688D01*
X104416236Y-61121260D01*
X104645882Y-61052363D01*
X104652294Y-61049850D01*
X104867600Y-60944373D01*
X104873507Y-60940852D01*
X104957048Y-60881262D01*
X104963888Y-60871309D01*
X104963476Y-60867029D01*
X104110473Y-60014026D01*
X104099530Y-60008923D01*
X104092836Y-60010717D01*
X103238378Y-60865175D01*
X103233275Y-60876118D01*
X96420795Y-60876118D01*
X96010547Y-60465870D01*
X95986264Y-60413794D01*
X95990402Y-60379472D01*
X96041799Y-60228061D01*
X96041800Y-60228058D01*
X96043035Y-60224419D01*
X96073904Y-60011522D01*
X96075515Y-59950000D01*
X96055831Y-59735779D01*
X96022238Y-59616668D01*
X102595506Y-59616668D01*
X102609309Y-59856041D01*
X102610264Y-59862832D01*
X102662977Y-60096740D01*
X102665030Y-60103292D01*
X102755233Y-60325434D01*
X102758335Y-60331576D01*
X102867068Y-60509011D01*
X102876518Y-60516528D01*
X102879515Y-60516449D01*
X102880918Y-60515529D01*
X103735974Y-59660473D01*
X103740639Y-59650470D01*
X104458923Y-59650470D01*
X104460717Y-59657164D01*
X105312200Y-60508647D01*
X105323143Y-60513750D01*
X105327340Y-60512625D01*
X105388149Y-60428001D01*
X105391684Y-60422118D01*
X105497919Y-60207167D01*
X105500447Y-60200780D01*
X105570146Y-59971376D01*
X105571600Y-59964652D01*
X105603052Y-59725740D01*
X105603398Y-59721297D01*
X105605087Y-59652227D01*
X105604959Y-59647783D01*
X105585212Y-59407597D01*
X105584091Y-59400833D01*
X105525682Y-59168293D01*
X105523465Y-59161779D01*
X105427862Y-58941909D01*
X105424612Y-58935847D01*
X105331741Y-58792291D01*
X105322112Y-58785008D01*
X105318567Y-58785187D01*
X105317951Y-58785602D01*
X104464026Y-59639527D01*
X104458923Y-59650470D01*
X103740639Y-59650470D01*
X103741077Y-59649530D01*
X103739283Y-59642836D01*
X102887613Y-58791166D01*
X102876670Y-58786063D01*
X102872762Y-58787111D01*
X102793232Y-58903698D01*
X102789837Y-58909674D01*
X102688887Y-59127152D01*
X102686514Y-59133601D01*
X102622441Y-59364639D01*
X102621152Y-59371400D01*
X102595675Y-59609794D01*
X102595506Y-59616668D01*
X96022238Y-59616668D01*
X95997438Y-59528733D01*
X95988125Y-59509848D01*
X95903998Y-59339255D01*
X95903994Y-59339249D01*
X95902291Y-59335795D01*
X95773578Y-59163427D01*
X95746380Y-59138285D01*
X95618432Y-59020011D01*
X95618429Y-59020009D01*
X95615608Y-59017401D01*
X95612361Y-59015352D01*
X95612358Y-59015350D01*
X95436924Y-58904659D01*
X95436922Y-58904658D01*
X95433673Y-58902608D01*
X95324408Y-58859016D01*
X95237439Y-58824319D01*
X95237436Y-58824318D01*
X95233864Y-58822893D01*
X95022875Y-58780925D01*
X94908557Y-58779428D01*
X94811618Y-58778159D01*
X94811614Y-58778159D01*
X94807770Y-58778109D01*
X94595754Y-58814540D01*
X94393928Y-58888997D01*
X94390620Y-58890965D01*
X94324054Y-58930568D01*
X94209050Y-58998988D01*
X94047312Y-59140829D01*
X94000207Y-59200581D01*
X93932889Y-59285974D01*
X93914130Y-59309769D01*
X93912340Y-59313172D01*
X93912337Y-59313176D01*
X93822141Y-59484612D01*
X93779609Y-59523245D01*
X93747802Y-59529500D01*
X91208971Y-59529500D01*
X91154977Y-59509848D01*
X91149574Y-59504897D01*
X89738340Y-58093663D01*
X96631360Y-58093663D01*
X96632136Y-58099597D01*
X96632136Y-58099598D01*
X96643345Y-58185313D01*
X96650428Y-58239483D01*
X96709656Y-58374090D01*
X96713505Y-58378669D01*
X96713507Y-58378672D01*
X96800431Y-58482080D01*
X96800433Y-58482082D01*
X96804284Y-58486663D01*
X96926703Y-58568152D01*
X97067073Y-58612007D01*
X97073050Y-58612117D01*
X97073053Y-58612117D01*
X97147527Y-58613482D01*
X97214109Y-58614702D01*
X97219881Y-58613128D01*
X97219884Y-58613128D01*
X97350219Y-58577594D01*
X97350220Y-58577594D01*
X97355992Y-58576020D01*
X97361090Y-58572890D01*
X97361092Y-58572889D01*
X97476216Y-58502202D01*
X97476217Y-58502201D01*
X97481315Y-58499071D01*
X97485328Y-58494637D01*
X97485331Y-58494635D01*
X97575991Y-58394475D01*
X97580004Y-58390042D01*
X97598566Y-58351731D01*
X97639794Y-58311708D01*
X97697103Y-58307550D01*
X97743677Y-58341202D01*
X97751046Y-58354523D01*
X97759656Y-58374090D01*
X97763505Y-58378669D01*
X97763507Y-58378672D01*
X97850431Y-58482080D01*
X97850433Y-58482082D01*
X97854284Y-58486663D01*
X97976703Y-58568152D01*
X98117073Y-58612007D01*
X98123050Y-58612117D01*
X98123053Y-58612117D01*
X98197527Y-58613482D01*
X98264109Y-58614702D01*
X98269881Y-58613128D01*
X98269884Y-58613128D01*
X98400219Y-58577594D01*
X98400220Y-58577594D01*
X98405992Y-58576020D01*
X98411090Y-58572890D01*
X98411092Y-58572889D01*
X98526216Y-58502202D01*
X98526217Y-58502201D01*
X98531315Y-58499071D01*
X98535328Y-58494637D01*
X98535331Y-58494635D01*
X98625991Y-58394475D01*
X98630004Y-58390042D01*
X98648566Y-58351731D01*
X98689794Y-58311708D01*
X98747103Y-58307550D01*
X98793677Y-58341202D01*
X98801046Y-58354523D01*
X98809656Y-58374090D01*
X98813505Y-58378669D01*
X98813507Y-58378672D01*
X98900431Y-58482080D01*
X98900433Y-58482082D01*
X98904284Y-58486663D01*
X99026703Y-58568152D01*
X99167073Y-58612007D01*
X99173050Y-58612117D01*
X99173053Y-58612117D01*
X99247527Y-58613482D01*
X99314109Y-58614702D01*
X99319881Y-58613128D01*
X99319884Y-58613128D01*
X99450219Y-58577594D01*
X99450220Y-58577594D01*
X99455992Y-58576020D01*
X99461090Y-58572890D01*
X99461092Y-58572889D01*
X99576216Y-58502202D01*
X99576217Y-58502201D01*
X99581315Y-58499071D01*
X99585328Y-58494637D01*
X99585331Y-58494635D01*
X99645467Y-58428198D01*
X103235781Y-58428198D01*
X103236336Y-58432783D01*
X104089527Y-59285974D01*
X104100470Y-59291077D01*
X104107164Y-59289283D01*
X104959994Y-58436453D01*
X104965097Y-58425510D01*
X104963815Y-58420726D01*
X104935633Y-58398469D01*
X104929918Y-58394672D01*
X104720010Y-58278797D01*
X104713743Y-58275980D01*
X104487733Y-58195945D01*
X104481085Y-58194189D01*
X104245042Y-58152144D01*
X104238200Y-58151497D01*
X103998452Y-58148567D01*
X103991597Y-58149047D01*
X103754595Y-58185313D01*
X103747911Y-58186906D01*
X103520007Y-58261396D01*
X103513681Y-58264055D01*
X103301006Y-58374767D01*
X103295188Y-58378431D01*
X103242374Y-58418084D01*
X103235781Y-58428198D01*
X99645467Y-58428198D01*
X99675991Y-58394475D01*
X99680004Y-58390042D01*
X99744126Y-58257696D01*
X99762405Y-58149047D01*
X99767986Y-58115870D01*
X99768524Y-58112672D01*
X99768679Y-58100000D01*
X99768219Y-58096787D01*
X99748679Y-57960344D01*
X99748679Y-57960343D01*
X99747831Y-57954424D01*
X99686962Y-57820551D01*
X99590967Y-57709142D01*
X99579662Y-57701814D01*
X99472583Y-57632410D01*
X99467561Y-57629155D01*
X99461831Y-57627441D01*
X99461828Y-57627440D01*
X99332398Y-57588732D01*
X99332396Y-57588732D01*
X99326666Y-57587018D01*
X99320686Y-57586981D01*
X99320683Y-57586981D01*
X99251318Y-57586558D01*
X99179607Y-57586120D01*
X99173851Y-57587765D01*
X99085108Y-57613128D01*
X99038208Y-57626532D01*
X98913834Y-57705006D01*
X98816484Y-57815233D01*
X98813943Y-57820644D01*
X98813943Y-57820645D01*
X98801315Y-57847542D01*
X98760579Y-57888065D01*
X98703325Y-57892924D01*
X98656343Y-57859843D01*
X98648811Y-57846611D01*
X98639439Y-57825999D01*
X98636962Y-57820551D01*
X98540967Y-57709142D01*
X98529662Y-57701814D01*
X98422583Y-57632410D01*
X98417561Y-57629155D01*
X98411831Y-57627441D01*
X98411828Y-57627440D01*
X98282398Y-57588732D01*
X98282396Y-57588732D01*
X98276666Y-57587018D01*
X98270686Y-57586981D01*
X98270683Y-57586981D01*
X98201318Y-57586558D01*
X98129607Y-57586120D01*
X98123851Y-57587765D01*
X98035108Y-57613128D01*
X97988208Y-57626532D01*
X97863834Y-57705006D01*
X97766484Y-57815233D01*
X97763943Y-57820644D01*
X97763943Y-57820645D01*
X97751315Y-57847542D01*
X97710579Y-57888065D01*
X97653325Y-57892924D01*
X97606343Y-57859843D01*
X97598811Y-57846611D01*
X97589439Y-57825999D01*
X97586962Y-57820551D01*
X97490967Y-57709142D01*
X97479662Y-57701814D01*
X97372583Y-57632410D01*
X97367561Y-57629155D01*
X97361831Y-57627441D01*
X97361828Y-57627440D01*
X97232398Y-57588732D01*
X97232396Y-57588732D01*
X97226666Y-57587018D01*
X97220686Y-57586981D01*
X97220683Y-57586981D01*
X97151318Y-57586558D01*
X97079607Y-57586120D01*
X97073851Y-57587765D01*
X96985108Y-57613128D01*
X96938208Y-57626532D01*
X96813834Y-57705006D01*
X96716484Y-57815233D01*
X96653985Y-57948353D01*
X96653065Y-57954264D01*
X96653064Y-57954266D01*
X96652118Y-57960344D01*
X96631360Y-58093663D01*
X89738340Y-58093663D01*
X87170795Y-55526118D01*
X94033275Y-55526118D01*
X94034624Y-55531150D01*
X94039660Y-55534676D01*
X94246676Y-55655647D01*
X94252867Y-55658613D01*
X94476857Y-55744147D01*
X94483456Y-55746064D01*
X94718412Y-55793867D01*
X94725224Y-55794679D01*
X94964841Y-55803466D01*
X94971692Y-55803155D01*
X95209520Y-55772688D01*
X95216236Y-55771260D01*
X95445882Y-55702363D01*
X95452294Y-55699850D01*
X95667600Y-55594373D01*
X95673507Y-55590852D01*
X95757048Y-55531262D01*
X95763888Y-55521309D01*
X95763476Y-55517029D01*
X94910473Y-54664026D01*
X94899530Y-54658923D01*
X94892836Y-54660717D01*
X94038378Y-55515175D01*
X94033275Y-55526118D01*
X87170795Y-55526118D01*
X86858574Y-55213897D01*
X86834291Y-55161821D01*
X86849162Y-55106320D01*
X86896230Y-55073362D01*
X86917971Y-55070500D01*
X89483397Y-55070500D01*
X89483399Y-55070501D01*
X89616601Y-55070501D01*
X89642183Y-55062189D01*
X89654995Y-55059112D01*
X89681562Y-55054905D01*
X89705534Y-55042691D01*
X89717695Y-55037653D01*
X89743283Y-55029339D01*
X89748630Y-55025454D01*
X89748634Y-55025452D01*
X89765043Y-55013530D01*
X89776278Y-55006645D01*
X89800245Y-54994433D01*
X89894433Y-54900245D01*
X89894434Y-54900243D01*
X90528009Y-54266668D01*
X93395506Y-54266668D01*
X93409309Y-54506041D01*
X93410264Y-54512832D01*
X93462977Y-54746740D01*
X93465030Y-54753292D01*
X93555233Y-54975434D01*
X93558335Y-54981576D01*
X93667068Y-55159011D01*
X93676518Y-55166528D01*
X93679515Y-55166449D01*
X93680918Y-55165529D01*
X94535974Y-54310473D01*
X94540639Y-54300470D01*
X95258923Y-54300470D01*
X95260717Y-54307164D01*
X96112200Y-55158647D01*
X96123143Y-55163750D01*
X96127340Y-55162625D01*
X96188149Y-55078001D01*
X96191684Y-55072118D01*
X96297919Y-54857167D01*
X96300447Y-54850780D01*
X96370146Y-54621376D01*
X96371600Y-54614652D01*
X96403052Y-54375740D01*
X96403398Y-54371297D01*
X96405087Y-54302227D01*
X96404959Y-54297783D01*
X96385212Y-54057597D01*
X96384091Y-54050833D01*
X96325682Y-53818293D01*
X96323465Y-53811779D01*
X96227862Y-53591909D01*
X96224612Y-53585847D01*
X96131741Y-53442291D01*
X96122112Y-53435008D01*
X96118567Y-53435187D01*
X96117951Y-53435602D01*
X95264026Y-54289527D01*
X95258923Y-54300470D01*
X94540639Y-54300470D01*
X94541077Y-54299530D01*
X94539283Y-54292836D01*
X93687613Y-53441166D01*
X93676670Y-53436063D01*
X93672762Y-53437111D01*
X93593232Y-53553698D01*
X93589837Y-53559674D01*
X93488887Y-53777152D01*
X93486514Y-53783601D01*
X93422441Y-54014639D01*
X93421152Y-54021400D01*
X93395675Y-54259794D01*
X93395506Y-54266668D01*
X90528009Y-54266668D01*
X91716479Y-53078198D01*
X94035781Y-53078198D01*
X94036336Y-53082783D01*
X94889527Y-53935974D01*
X94900470Y-53941077D01*
X94907164Y-53939283D01*
X95759994Y-53086453D01*
X95765097Y-53075510D01*
X95763815Y-53070726D01*
X95735633Y-53048469D01*
X95729918Y-53044672D01*
X95520010Y-52928797D01*
X95513743Y-52925980D01*
X95287733Y-52845945D01*
X95281085Y-52844189D01*
X95045042Y-52802144D01*
X95038200Y-52801497D01*
X94798452Y-52798567D01*
X94791597Y-52799047D01*
X94554595Y-52835313D01*
X94547911Y-52836906D01*
X94320007Y-52911396D01*
X94313681Y-52914055D01*
X94101006Y-53024767D01*
X94095188Y-53028431D01*
X94042374Y-53068084D01*
X94035781Y-53078198D01*
X91716479Y-53078198D01*
X94384541Y-50410136D01*
X94436617Y-50385853D01*
X94477096Y-50392354D01*
X94533210Y-50416462D01*
X94536746Y-50417981D01*
X94642007Y-50441799D01*
X94742808Y-50464608D01*
X94742809Y-50464608D01*
X94746565Y-50465458D01*
X94868982Y-50470268D01*
X94957673Y-50473753D01*
X94957676Y-50473753D01*
X94961522Y-50473904D01*
X94965328Y-50473352D01*
X94965331Y-50473352D01*
X95034641Y-50463302D01*
X95174419Y-50443035D01*
X95178058Y-50441800D01*
X95178061Y-50441799D01*
X95329472Y-50390402D01*
X95386918Y-50391655D01*
X95415870Y-50410547D01*
X99905566Y-54900243D01*
X99905567Y-54900245D01*
X99999755Y-54994433D01*
X100023718Y-55006643D01*
X100034953Y-55013527D01*
X100051372Y-55025456D01*
X100056718Y-55029340D01*
X100063004Y-55031382D01*
X100063005Y-55031383D01*
X100082300Y-55037652D01*
X100094473Y-55042694D01*
X100118438Y-55054905D01*
X100144998Y-55059111D01*
X100157817Y-55062189D01*
X100177110Y-55068458D01*
X100177113Y-55068458D01*
X100183399Y-55070501D01*
X100316601Y-55070501D01*
X100316603Y-55070500D01*
X102951096Y-55070500D01*
X103005090Y-55090152D01*
X103027380Y-55119333D01*
X103081974Y-55237757D01*
X103206131Y-55413436D01*
X103360224Y-55563547D01*
X103539093Y-55683063D01*
X103654301Y-55732560D01*
X103685733Y-55746064D01*
X103736746Y-55767981D01*
X103842007Y-55791799D01*
X103942808Y-55814608D01*
X103942809Y-55814608D01*
X103946565Y-55815458D01*
X104068982Y-55820268D01*
X104157673Y-55823753D01*
X104157676Y-55823753D01*
X104161522Y-55823904D01*
X104165328Y-55823352D01*
X104165331Y-55823352D01*
X104234641Y-55813302D01*
X104374419Y-55793035D01*
X104378058Y-55791800D01*
X104378061Y-55791799D01*
X104574475Y-55725125D01*
X104578125Y-55723886D01*
X104765819Y-55618773D01*
X104931215Y-55481215D01*
X105068773Y-55315819D01*
X105173886Y-55128125D01*
X105181288Y-55106320D01*
X105241799Y-54928061D01*
X105241800Y-54928058D01*
X105243035Y-54924419D01*
X105273904Y-54711522D01*
X105275515Y-54650000D01*
X105255831Y-54435779D01*
X105197438Y-54228733D01*
X105188125Y-54209848D01*
X105103998Y-54039255D01*
X105103994Y-54039249D01*
X105102291Y-54035795D01*
X104973578Y-53863427D01*
X104887223Y-53783601D01*
X104818432Y-53720011D01*
X104818429Y-53720009D01*
X104815608Y-53717401D01*
X104812361Y-53715352D01*
X104812358Y-53715350D01*
X104636924Y-53604659D01*
X104636922Y-53604658D01*
X104633673Y-53602608D01*
X104511078Y-53553698D01*
X104437439Y-53524319D01*
X104437436Y-53524318D01*
X104433864Y-53522893D01*
X104222875Y-53480925D01*
X104108557Y-53479428D01*
X104011618Y-53478159D01*
X104011614Y-53478159D01*
X104007770Y-53478109D01*
X103795754Y-53514540D01*
X103593928Y-53588997D01*
X103590620Y-53590965D01*
X103567603Y-53604659D01*
X103409050Y-53698988D01*
X103247312Y-53840829D01*
X103114130Y-54009769D01*
X103112340Y-54013172D01*
X103112337Y-54013176D01*
X103022141Y-54184612D01*
X102979609Y-54223245D01*
X102947802Y-54229500D01*
X100458971Y-54229500D01*
X100404977Y-54209848D01*
X100399574Y-54204897D01*
X96420795Y-50226118D01*
X103233275Y-50226118D01*
X103234624Y-50231150D01*
X103239660Y-50234676D01*
X103446676Y-50355647D01*
X103452867Y-50358613D01*
X103676857Y-50444147D01*
X103683456Y-50446064D01*
X103918412Y-50493867D01*
X103925224Y-50494679D01*
X104164841Y-50503466D01*
X104171692Y-50503155D01*
X104409520Y-50472688D01*
X104416236Y-50471260D01*
X104645882Y-50402363D01*
X104652294Y-50399850D01*
X104867600Y-50294373D01*
X104873507Y-50290852D01*
X104957048Y-50231262D01*
X104963888Y-50221309D01*
X104963476Y-50217029D01*
X104110473Y-49364026D01*
X104099530Y-49358923D01*
X104092836Y-49360717D01*
X103238378Y-50215175D01*
X103233275Y-50226118D01*
X96420795Y-50226118D01*
X96010547Y-49815870D01*
X95986264Y-49763794D01*
X95990402Y-49729472D01*
X96041799Y-49578061D01*
X96041800Y-49578058D01*
X96043035Y-49574419D01*
X96073904Y-49361522D01*
X96075515Y-49300000D01*
X96055831Y-49085779D01*
X96048396Y-49059416D01*
X96022238Y-48966668D01*
X102595506Y-48966668D01*
X102609309Y-49206041D01*
X102610264Y-49212832D01*
X102662977Y-49446740D01*
X102665030Y-49453292D01*
X102755233Y-49675434D01*
X102758335Y-49681576D01*
X102867068Y-49859011D01*
X102876518Y-49866528D01*
X102879515Y-49866449D01*
X102880918Y-49865529D01*
X103735974Y-49010473D01*
X103740639Y-49000470D01*
X104458923Y-49000470D01*
X104460717Y-49007164D01*
X105312200Y-49858647D01*
X105323143Y-49863750D01*
X105327340Y-49862625D01*
X105388149Y-49778001D01*
X105391684Y-49772118D01*
X105497919Y-49557167D01*
X105500447Y-49550780D01*
X105570146Y-49321376D01*
X105571600Y-49314652D01*
X105594110Y-49143663D01*
X110931360Y-49143663D01*
X110932136Y-49149597D01*
X110932136Y-49149598D01*
X110948282Y-49273070D01*
X110950428Y-49289483D01*
X111009656Y-49424090D01*
X111013505Y-49428669D01*
X111013507Y-49428672D01*
X111100431Y-49532080D01*
X111100433Y-49532082D01*
X111104284Y-49536663D01*
X111116260Y-49544635D01*
X111120046Y-49547155D01*
X111154103Y-49593433D01*
X111157500Y-49617080D01*
X111157500Y-62129400D01*
X111137848Y-62183394D01*
X111127940Y-62193371D01*
X111123899Y-62196810D01*
X111118834Y-62200006D01*
X111021484Y-62310233D01*
X110958985Y-62443353D01*
X110958065Y-62449264D01*
X110958064Y-62449266D01*
X110957118Y-62455344D01*
X110936360Y-62588663D01*
X110955428Y-62734483D01*
X111014656Y-62869090D01*
X111018505Y-62873669D01*
X111018507Y-62873672D01*
X111105431Y-62977080D01*
X111105433Y-62977082D01*
X111109284Y-62981663D01*
X111231703Y-63063152D01*
X111372073Y-63107007D01*
X111378050Y-63107117D01*
X111378053Y-63107117D01*
X111452527Y-63108482D01*
X111519109Y-63109702D01*
X111524881Y-63108128D01*
X111524884Y-63108128D01*
X111655219Y-63072594D01*
X111655220Y-63072594D01*
X111660992Y-63071020D01*
X111666090Y-63067890D01*
X111666092Y-63067889D01*
X111781216Y-62997202D01*
X111781217Y-62997201D01*
X111786315Y-62994071D01*
X111790328Y-62989637D01*
X111790331Y-62989635D01*
X111880991Y-62889475D01*
X111885004Y-62885042D01*
X111949126Y-62752696D01*
X111973524Y-62607672D01*
X111973679Y-62595000D01*
X111973219Y-62591787D01*
X111953679Y-62455344D01*
X111953679Y-62455343D01*
X111952831Y-62449424D01*
X111891962Y-62315551D01*
X111795967Y-62204142D01*
X111790814Y-62200802D01*
X111790749Y-62200715D01*
X111786436Y-62196953D01*
X111787225Y-62196048D01*
X111756193Y-62154946D01*
X111752500Y-62130313D01*
X111752500Y-49611329D01*
X111772152Y-49557335D01*
X111779080Y-49550443D01*
X111781315Y-49549071D01*
X111880004Y-49440042D01*
X111919307Y-49358923D01*
X111941517Y-49313081D01*
X111944126Y-49307696D01*
X111950598Y-49269229D01*
X111967986Y-49165870D01*
X111968524Y-49162672D01*
X111968679Y-49150000D01*
X111968219Y-49146787D01*
X111948679Y-49010344D01*
X111948679Y-49010343D01*
X111947831Y-49004424D01*
X111886962Y-48870551D01*
X111790967Y-48759142D01*
X111779662Y-48751814D01*
X111672583Y-48682410D01*
X111667561Y-48679155D01*
X111661831Y-48677441D01*
X111661828Y-48677440D01*
X111532398Y-48638732D01*
X111532396Y-48638732D01*
X111526666Y-48637018D01*
X111520686Y-48636981D01*
X111520683Y-48636981D01*
X111451318Y-48636558D01*
X111379607Y-48636120D01*
X111373851Y-48637765D01*
X111296861Y-48659769D01*
X111238208Y-48676532D01*
X111113834Y-48755006D01*
X111016484Y-48865233D01*
X111013943Y-48870644D01*
X111013943Y-48870645D01*
X111013457Y-48871680D01*
X110953985Y-48998353D01*
X110953065Y-49004264D01*
X110953064Y-49004266D01*
X110941936Y-49075740D01*
X110931360Y-49143663D01*
X105594110Y-49143663D01*
X105603052Y-49075740D01*
X105603398Y-49071297D01*
X105605087Y-49002227D01*
X105604959Y-48997783D01*
X105585212Y-48757597D01*
X105584091Y-48750833D01*
X105525682Y-48518293D01*
X105523465Y-48511779D01*
X105427862Y-48291909D01*
X105424612Y-48285847D01*
X105331741Y-48142291D01*
X105322112Y-48135008D01*
X105318567Y-48135187D01*
X105317951Y-48135602D01*
X104464026Y-48989527D01*
X104458923Y-49000470D01*
X103740639Y-49000470D01*
X103741077Y-48999530D01*
X103739283Y-48992836D01*
X102887613Y-48141166D01*
X102876670Y-48136063D01*
X102872762Y-48137111D01*
X102793232Y-48253698D01*
X102789837Y-48259674D01*
X102688887Y-48477152D01*
X102686514Y-48483601D01*
X102622441Y-48714639D01*
X102621152Y-48721400D01*
X102595675Y-48959794D01*
X102595506Y-48966668D01*
X96022238Y-48966668D01*
X95998483Y-48882437D01*
X95998482Y-48882433D01*
X95997438Y-48878733D01*
X95995738Y-48875286D01*
X95994354Y-48871680D01*
X95996370Y-48870906D01*
X95990875Y-48821085D01*
X96013086Y-48781591D01*
X97016479Y-47778198D01*
X103235781Y-47778198D01*
X103236336Y-47782783D01*
X104089527Y-48635974D01*
X104100470Y-48641077D01*
X104107164Y-48639283D01*
X104959994Y-47786453D01*
X104965097Y-47775510D01*
X104963815Y-47770726D01*
X104935633Y-47748469D01*
X104929918Y-47744672D01*
X104720010Y-47628797D01*
X104713743Y-47625980D01*
X104487733Y-47545945D01*
X104481085Y-47544189D01*
X104245042Y-47502144D01*
X104238200Y-47501497D01*
X103998452Y-47498567D01*
X103991597Y-47499047D01*
X103754595Y-47535313D01*
X103747911Y-47536906D01*
X103520007Y-47611396D01*
X103513681Y-47614055D01*
X103301006Y-47724767D01*
X103295188Y-47728431D01*
X103242374Y-47768084D01*
X103235781Y-47778198D01*
X97016479Y-47778198D01*
X100349574Y-44445103D01*
X100401650Y-44420820D01*
X100408971Y-44420500D01*
X102951096Y-44420500D01*
X103005090Y-44440152D01*
X103027380Y-44469333D01*
X103081974Y-44587757D01*
X103206131Y-44763436D01*
X103360224Y-44913547D01*
X103539093Y-45033063D01*
X103661966Y-45085853D01*
X103685733Y-45096064D01*
X103736746Y-45117981D01*
X103842007Y-45141799D01*
X103942808Y-45164608D01*
X103942809Y-45164608D01*
X103946565Y-45165458D01*
X104068982Y-45170268D01*
X104157673Y-45173753D01*
X104157676Y-45173753D01*
X104161522Y-45173904D01*
X104165328Y-45173352D01*
X104165331Y-45173352D01*
X104247125Y-45161492D01*
X104374419Y-45143035D01*
X104378058Y-45141800D01*
X104378061Y-45141799D01*
X104574475Y-45075125D01*
X104578125Y-45073886D01*
X104765819Y-44968773D01*
X104931215Y-44831215D01*
X105067410Y-44667458D01*
X109091935Y-44667458D01*
X109093077Y-44671720D01*
X109309333Y-44828838D01*
X109313788Y-44831666D01*
X109573796Y-44974607D01*
X109578566Y-44976851D01*
X109854433Y-45086074D01*
X109859452Y-45087705D01*
X110146834Y-45161492D01*
X110152017Y-45162481D01*
X110446397Y-45199670D01*
X110451637Y-45200000D01*
X110748363Y-45200000D01*
X110753603Y-45199670D01*
X111047983Y-45162481D01*
X111053166Y-45161492D01*
X111340548Y-45087705D01*
X111345567Y-45086074D01*
X111621434Y-44976851D01*
X111626204Y-44974607D01*
X111886212Y-44831666D01*
X111890667Y-44828838D01*
X112101452Y-44675694D01*
X112108204Y-44665684D01*
X112107743Y-44661296D01*
X110610473Y-43164026D01*
X110599530Y-43158923D01*
X110592836Y-43160717D01*
X109097038Y-44656515D01*
X109091935Y-44667458D01*
X105067410Y-44667458D01*
X105068773Y-44665819D01*
X105173886Y-44478125D01*
X105177395Y-44467789D01*
X105241799Y-44278061D01*
X105241800Y-44278058D01*
X105243035Y-44274419D01*
X105273904Y-44061522D01*
X105275515Y-44000000D01*
X105255831Y-43785779D01*
X105197438Y-43578733D01*
X105188125Y-43559848D01*
X105103998Y-43389255D01*
X105103994Y-43389249D01*
X105102291Y-43385795D01*
X104973578Y-43213427D01*
X104887223Y-43133601D01*
X104818432Y-43070011D01*
X104818429Y-43070009D01*
X104815608Y-43067401D01*
X104812361Y-43065352D01*
X104812358Y-43065350D01*
X104636924Y-42954659D01*
X104636922Y-42954658D01*
X104633673Y-42952608D01*
X104511078Y-42903698D01*
X104437439Y-42874319D01*
X104437436Y-42874318D01*
X104433864Y-42872893D01*
X104222875Y-42830925D01*
X104108557Y-42829428D01*
X104011618Y-42828159D01*
X104011614Y-42828159D01*
X104007770Y-42828109D01*
X103795754Y-42864540D01*
X103593928Y-42938997D01*
X103590620Y-42940965D01*
X103567603Y-42954659D01*
X103409050Y-43048988D01*
X103247312Y-43190829D01*
X103114130Y-43359769D01*
X103112340Y-43363172D01*
X103112337Y-43363176D01*
X103022141Y-43534612D01*
X102979609Y-43573245D01*
X102947802Y-43579500D01*
X100448230Y-43579500D01*
X100394236Y-43559848D01*
X100388833Y-43554897D01*
X99636575Y-42802639D01*
X108195421Y-42802639D01*
X108214051Y-43098752D01*
X108214713Y-43103994D01*
X108270309Y-43395443D01*
X108271618Y-43400543D01*
X108363311Y-43682741D01*
X108365250Y-43687636D01*
X108491577Y-43956096D01*
X108494123Y-43960728D01*
X108653102Y-44211240D01*
X108656206Y-44215512D01*
X108725871Y-44299723D01*
X108736285Y-44305833D01*
X108741496Y-44304951D01*
X110235974Y-42810473D01*
X110240639Y-42800470D01*
X110958923Y-42800470D01*
X110960717Y-42807164D01*
X112454215Y-44300662D01*
X112465158Y-44305765D01*
X112470262Y-44304397D01*
X112543794Y-44215512D01*
X112546898Y-44211240D01*
X112705877Y-43960728D01*
X112708423Y-43956096D01*
X112834750Y-43687636D01*
X112836689Y-43682741D01*
X112928382Y-43400543D01*
X112929691Y-43395443D01*
X112985287Y-43103994D01*
X112985949Y-43098752D01*
X113004579Y-42802639D01*
X113004579Y-42797361D01*
X112985949Y-42501248D01*
X112985287Y-42496006D01*
X112929691Y-42204557D01*
X112928382Y-42199457D01*
X112836689Y-41917259D01*
X112834750Y-41912364D01*
X112708423Y-41643904D01*
X112705877Y-41639272D01*
X112546898Y-41388760D01*
X112543794Y-41384488D01*
X112474129Y-41300277D01*
X112463715Y-41294167D01*
X112458504Y-41295049D01*
X110964026Y-42789527D01*
X110958923Y-42800470D01*
X110240639Y-42800470D01*
X110241077Y-42799530D01*
X110239283Y-42792836D01*
X108745785Y-41299338D01*
X108734842Y-41294235D01*
X108729738Y-41295603D01*
X108656206Y-41384488D01*
X108653102Y-41388760D01*
X108494123Y-41639272D01*
X108491577Y-41643904D01*
X108365250Y-41912364D01*
X108363311Y-41917259D01*
X108271618Y-42199457D01*
X108270309Y-42204557D01*
X108214713Y-42496006D01*
X108214051Y-42501248D01*
X108195421Y-42797361D01*
X108195421Y-42802639D01*
X99636575Y-42802639D01*
X97768252Y-40934316D01*
X109091796Y-40934316D01*
X109092257Y-40938704D01*
X110589527Y-42435974D01*
X110600470Y-42441077D01*
X110607164Y-42439283D01*
X112102962Y-40943485D01*
X112108065Y-40932542D01*
X112106923Y-40928280D01*
X111890667Y-40771162D01*
X111886212Y-40768334D01*
X111626204Y-40625393D01*
X111621434Y-40623149D01*
X111345567Y-40513926D01*
X111340548Y-40512295D01*
X111053166Y-40438508D01*
X111047983Y-40437519D01*
X110753603Y-40400330D01*
X110748363Y-40400000D01*
X110451637Y-40400000D01*
X110446397Y-40400330D01*
X110152017Y-40437519D01*
X110146834Y-40438508D01*
X109859452Y-40512295D01*
X109854433Y-40513926D01*
X109578566Y-40623149D01*
X109573796Y-40625393D01*
X109313788Y-40768334D01*
X109309333Y-40771162D01*
X109098548Y-40924306D01*
X109091796Y-40934316D01*
X97768252Y-40934316D01*
X95970496Y-39136560D01*
X95946213Y-39084484D01*
X95950351Y-39050162D01*
X95991799Y-38928061D01*
X95991800Y-38928058D01*
X95993035Y-38924419D01*
X96023904Y-38711522D01*
X96025515Y-38650000D01*
X96005831Y-38435779D01*
X95947438Y-38228733D01*
X95938125Y-38209848D01*
X95853998Y-38039255D01*
X95853994Y-38039249D01*
X95852291Y-38035795D01*
X95723578Y-37863427D01*
X95696380Y-37838285D01*
X95568432Y-37720011D01*
X95568429Y-37720009D01*
X95565608Y-37717401D01*
X95562361Y-37715352D01*
X95562358Y-37715350D01*
X95386924Y-37604659D01*
X95386922Y-37604658D01*
X95383673Y-37602608D01*
X95282841Y-37562380D01*
X95187439Y-37524319D01*
X95187436Y-37524318D01*
X95183864Y-37522893D01*
X94972875Y-37480925D01*
X94858557Y-37479428D01*
X94761618Y-37478159D01*
X94761614Y-37478159D01*
X94757770Y-37478109D01*
X94545754Y-37514540D01*
X94343928Y-37588997D01*
X94340620Y-37590965D01*
X94317603Y-37604659D01*
X94159050Y-37698988D01*
X93997312Y-37840829D01*
X93979497Y-37863427D01*
X93882889Y-37985974D01*
X93864130Y-38009769D01*
X93862340Y-38013172D01*
X93862337Y-38013176D01*
X93831704Y-38071400D01*
X93763966Y-38200150D01*
X93755091Y-38228733D01*
X93718125Y-38347783D01*
X93700173Y-38405597D01*
X93674888Y-38619229D01*
X93688958Y-38833891D01*
X93741911Y-39042395D01*
X93831974Y-39237757D01*
X93956131Y-39413436D01*
X94110224Y-39563547D01*
X94289093Y-39683063D01*
X94486746Y-39767981D01*
X94592007Y-39791799D01*
X94692808Y-39814608D01*
X94692809Y-39814608D01*
X94696565Y-39815458D01*
X94818982Y-39820268D01*
X94907673Y-39823753D01*
X94907676Y-39823753D01*
X94911522Y-39823904D01*
X94915328Y-39823352D01*
X94915331Y-39823352D01*
X94984641Y-39813302D01*
X95124419Y-39793035D01*
X95128058Y-39791800D01*
X95128061Y-39791799D01*
X95203048Y-39766344D01*
X95308782Y-39730452D01*
X95366227Y-39731705D01*
X95395179Y-39750597D01*
X95931228Y-40286646D01*
X95955511Y-40338722D01*
X95940640Y-40394223D01*
X95893572Y-40427181D01*
X95870267Y-40428507D01*
X95870259Y-40429883D01*
X95735489Y-40429060D01*
X95605905Y-40466095D01*
X95491924Y-40538012D01*
X95487963Y-40542496D01*
X95487964Y-40542496D01*
X95412565Y-40627869D01*
X95362093Y-40655330D01*
X95305777Y-40643924D01*
X95285969Y-40627096D01*
X95216382Y-40546337D01*
X95216381Y-40546336D01*
X95212475Y-40541803D01*
X95206627Y-40538012D01*
X95104404Y-40471754D01*
X95104403Y-40471754D01*
X95099382Y-40468499D01*
X95004446Y-40440107D01*
X94975991Y-40431597D01*
X94975989Y-40431597D01*
X94970259Y-40429883D01*
X94964279Y-40429846D01*
X94964276Y-40429846D01*
X94901215Y-40429461D01*
X94835489Y-40429060D01*
X94705905Y-40466095D01*
X94591924Y-40538012D01*
X94587963Y-40542496D01*
X94587964Y-40542496D01*
X94512565Y-40627869D01*
X94462093Y-40655330D01*
X94405777Y-40643924D01*
X94385969Y-40627096D01*
X94316382Y-40546337D01*
X94316381Y-40546336D01*
X94312475Y-40541803D01*
X94306627Y-40538012D01*
X94204404Y-40471754D01*
X94204403Y-40471754D01*
X94199382Y-40468499D01*
X94104446Y-40440107D01*
X94075991Y-40431597D01*
X94075989Y-40431597D01*
X94070259Y-40429883D01*
X94064279Y-40429846D01*
X94064276Y-40429846D01*
X94001215Y-40429461D01*
X93935489Y-40429060D01*
X93805905Y-40466095D01*
X93691924Y-40538012D01*
X93687963Y-40542496D01*
X93687964Y-40542496D01*
X93612565Y-40627869D01*
X93562093Y-40655330D01*
X93505777Y-40643924D01*
X93485969Y-40627096D01*
X93416382Y-40546337D01*
X93416381Y-40546336D01*
X93412475Y-40541803D01*
X93406627Y-40538012D01*
X93304404Y-40471754D01*
X93304403Y-40471754D01*
X93299382Y-40468499D01*
X93204446Y-40440107D01*
X93175991Y-40431597D01*
X93175989Y-40431597D01*
X93170259Y-40429883D01*
X93164279Y-40429846D01*
X93164276Y-40429846D01*
X93101215Y-40429461D01*
X93035489Y-40429060D01*
X92905905Y-40466095D01*
X92791924Y-40538012D01*
X92787963Y-40542496D01*
X92787964Y-40542496D01*
X92716734Y-40623149D01*
X92702709Y-40639029D01*
X92700168Y-40644441D01*
X92649634Y-40752076D01*
X92645432Y-40761025D01*
X92644512Y-40766936D01*
X92644511Y-40766938D01*
X92642615Y-40779117D01*
X92624697Y-40894193D01*
X92642172Y-41027828D01*
X92644581Y-41033303D01*
X92664917Y-41079521D01*
X92696451Y-41151187D01*
X92700300Y-41155766D01*
X92716909Y-41175524D01*
X92783172Y-41254353D01*
X92788154Y-41257669D01*
X92890381Y-41325718D01*
X92890384Y-41325720D01*
X92895362Y-41329033D01*
X92901074Y-41330818D01*
X92901075Y-41330818D01*
X93018291Y-41367439D01*
X93018293Y-41367439D01*
X93024002Y-41369223D01*
X93029980Y-41369333D01*
X93029983Y-41369333D01*
X93098192Y-41370583D01*
X93158752Y-41371693D01*
X93174356Y-41367439D01*
X93283007Y-41337818D01*
X93283009Y-41337817D01*
X93288779Y-41336244D01*
X93403631Y-41265725D01*
X93488908Y-41171512D01*
X93539712Y-41144669D01*
X93595884Y-41156763D01*
X93615485Y-41173831D01*
X93620069Y-41179284D01*
X93683172Y-41254353D01*
X93688154Y-41257669D01*
X93790381Y-41325718D01*
X93790384Y-41325720D01*
X93795362Y-41329033D01*
X93801074Y-41330818D01*
X93801075Y-41330818D01*
X93918291Y-41367439D01*
X93918293Y-41367439D01*
X93924002Y-41369223D01*
X93929980Y-41369333D01*
X93929983Y-41369333D01*
X93998192Y-41370583D01*
X94058752Y-41371693D01*
X94074356Y-41367439D01*
X94183007Y-41337818D01*
X94183009Y-41337817D01*
X94188779Y-41336244D01*
X94303631Y-41265725D01*
X94388908Y-41171512D01*
X94439712Y-41144669D01*
X94495884Y-41156763D01*
X94515485Y-41173831D01*
X94520069Y-41179284D01*
X94583172Y-41254353D01*
X94588154Y-41257669D01*
X94690381Y-41325718D01*
X94690384Y-41325720D01*
X94695362Y-41329033D01*
X94701074Y-41330818D01*
X94701075Y-41330818D01*
X94818291Y-41367439D01*
X94818293Y-41367439D01*
X94824002Y-41369223D01*
X94829980Y-41369333D01*
X94829983Y-41369333D01*
X94898192Y-41370583D01*
X94958752Y-41371693D01*
X94974356Y-41367439D01*
X95083007Y-41337818D01*
X95083009Y-41337817D01*
X95088779Y-41336244D01*
X95203631Y-41265725D01*
X95288908Y-41171512D01*
X95339712Y-41144669D01*
X95395884Y-41156763D01*
X95415485Y-41173831D01*
X95420069Y-41179284D01*
X95483172Y-41254353D01*
X95488154Y-41257669D01*
X95590381Y-41325718D01*
X95590384Y-41325720D01*
X95595362Y-41329033D01*
X95601074Y-41330818D01*
X95601075Y-41330818D01*
X95718291Y-41367439D01*
X95718293Y-41367439D01*
X95724002Y-41369223D01*
X95729980Y-41369333D01*
X95729983Y-41369333D01*
X95798192Y-41370583D01*
X95858752Y-41371693D01*
X95874356Y-41367439D01*
X95983007Y-41337818D01*
X95983009Y-41337817D01*
X95988779Y-41336244D01*
X96103631Y-41265725D01*
X96194073Y-41165806D01*
X96198455Y-41156763D01*
X96250225Y-41049907D01*
X96252836Y-41044518D01*
X96275196Y-40911614D01*
X96275338Y-40900000D01*
X96274878Y-40896787D01*
X96266080Y-40835352D01*
X96277880Y-40779117D01*
X96323066Y-40743623D01*
X96380495Y-40745479D01*
X96408629Y-40764047D01*
X99565556Y-43920974D01*
X99589839Y-43973050D01*
X99574968Y-44028551D01*
X99565556Y-44039768D01*
X95414930Y-48190393D01*
X95362854Y-48214676D01*
X95324410Y-48209017D01*
X95233864Y-48172893D01*
X95022875Y-48130925D01*
X94908557Y-48129428D01*
X94811618Y-48128159D01*
X94811614Y-48128159D01*
X94807770Y-48128109D01*
X94595754Y-48164540D01*
X94393928Y-48238997D01*
X94390620Y-48240965D01*
X94367603Y-48254659D01*
X94209050Y-48348988D01*
X94047312Y-48490829D01*
X94029497Y-48513427D01*
X93932066Y-48637018D01*
X93914130Y-48659769D01*
X93912340Y-48663172D01*
X93912337Y-48663176D01*
X93827643Y-48824154D01*
X93813966Y-48850150D01*
X93786000Y-48940215D01*
X93766063Y-49004424D01*
X93750173Y-49055597D01*
X93724888Y-49269229D01*
X93738958Y-49483891D01*
X93754385Y-49544635D01*
X93772784Y-49617080D01*
X93791911Y-49692395D01*
X93793522Y-49695889D01*
X93793525Y-49695898D01*
X93805586Y-49722060D01*
X93810344Y-49779322D01*
X93788699Y-49816624D01*
X89400426Y-54204897D01*
X89348350Y-54229180D01*
X89341029Y-54229500D01*
X86850050Y-54229500D01*
X86796056Y-54209848D01*
X86774713Y-54182652D01*
X86703998Y-54039255D01*
X86703994Y-54039249D01*
X86702291Y-54035795D01*
X86573578Y-53863427D01*
X86487223Y-53783601D01*
X86418432Y-53720011D01*
X86418429Y-53720009D01*
X86415608Y-53717401D01*
X86412361Y-53715352D01*
X86412358Y-53715350D01*
X86236924Y-53604659D01*
X86236922Y-53604658D01*
X86233673Y-53602608D01*
X86111078Y-53553698D01*
X86037439Y-53524319D01*
X86037436Y-53524318D01*
X86033864Y-53522893D01*
X85822875Y-53480925D01*
X85708557Y-53479428D01*
X85611618Y-53478159D01*
X85611614Y-53478159D01*
X85607770Y-53478109D01*
X85395754Y-53514540D01*
X85273410Y-53559675D01*
X85215953Y-53559926D01*
X85184941Y-53540264D01*
X81870795Y-50226118D01*
X84833275Y-50226118D01*
X84834624Y-50231150D01*
X84839660Y-50234676D01*
X85046676Y-50355647D01*
X85052867Y-50358613D01*
X85276857Y-50444147D01*
X85283456Y-50446064D01*
X85518412Y-50493867D01*
X85525224Y-50494679D01*
X85764841Y-50503466D01*
X85771692Y-50503155D01*
X86009520Y-50472688D01*
X86016236Y-50471260D01*
X86245882Y-50402363D01*
X86252294Y-50399850D01*
X86467600Y-50294373D01*
X86473507Y-50290852D01*
X86557048Y-50231262D01*
X86563888Y-50221309D01*
X86563476Y-50217029D01*
X85710473Y-49364026D01*
X85699530Y-49358923D01*
X85692836Y-49360717D01*
X84838378Y-50215175D01*
X84833275Y-50226118D01*
X81870795Y-50226118D01*
X81029074Y-49384397D01*
X81004791Y-49332321D01*
X81019662Y-49276820D01*
X81029074Y-49265603D01*
X81328009Y-48966668D01*
X84195506Y-48966668D01*
X84209309Y-49206041D01*
X84210264Y-49212832D01*
X84262977Y-49446740D01*
X84265030Y-49453292D01*
X84355233Y-49675434D01*
X84358335Y-49681576D01*
X84467068Y-49859011D01*
X84476518Y-49866528D01*
X84479515Y-49866449D01*
X84480918Y-49865529D01*
X85335974Y-49010473D01*
X85340639Y-49000470D01*
X86058923Y-49000470D01*
X86060717Y-49007164D01*
X86912200Y-49858647D01*
X86923143Y-49863750D01*
X86927340Y-49862625D01*
X86988149Y-49778001D01*
X86991684Y-49772118D01*
X87027327Y-49700000D01*
X89400000Y-49700000D01*
X91150000Y-49700000D01*
X91150000Y-44876118D01*
X93983275Y-44876118D01*
X93984624Y-44881150D01*
X93989660Y-44884676D01*
X94196676Y-45005647D01*
X94202867Y-45008613D01*
X94426857Y-45094147D01*
X94433456Y-45096064D01*
X94668412Y-45143867D01*
X94675224Y-45144679D01*
X94914841Y-45153466D01*
X94921692Y-45153155D01*
X95159520Y-45122688D01*
X95166236Y-45121260D01*
X95395882Y-45052363D01*
X95402294Y-45049850D01*
X95617600Y-44944373D01*
X95623507Y-44940852D01*
X95707048Y-44881262D01*
X95713888Y-44871309D01*
X95713476Y-44867029D01*
X94860473Y-44014026D01*
X94849530Y-44008923D01*
X94842836Y-44010717D01*
X93988378Y-44865175D01*
X93983275Y-44876118D01*
X91150000Y-44876118D01*
X91150000Y-43616668D01*
X93345506Y-43616668D01*
X93359309Y-43856041D01*
X93360264Y-43862832D01*
X93412977Y-44096740D01*
X93415030Y-44103292D01*
X93505233Y-44325434D01*
X93508335Y-44331576D01*
X93617068Y-44509011D01*
X93626518Y-44516528D01*
X93629515Y-44516449D01*
X93630918Y-44515529D01*
X94485974Y-43660473D01*
X94490639Y-43650470D01*
X95208923Y-43650470D01*
X95210717Y-43657164D01*
X96062200Y-44508647D01*
X96073143Y-44513750D01*
X96077340Y-44512625D01*
X96138149Y-44428001D01*
X96141684Y-44422118D01*
X96247919Y-44207167D01*
X96250447Y-44200780D01*
X96320146Y-43971376D01*
X96321600Y-43964652D01*
X96353052Y-43725740D01*
X96353398Y-43721297D01*
X96355087Y-43652227D01*
X96354959Y-43647783D01*
X96335212Y-43407597D01*
X96334091Y-43400833D01*
X96275682Y-43168293D01*
X96273465Y-43161779D01*
X96177862Y-42941909D01*
X96174612Y-42935847D01*
X96081741Y-42792291D01*
X96072112Y-42785008D01*
X96068567Y-42785187D01*
X96067951Y-42785602D01*
X95214026Y-43639527D01*
X95208923Y-43650470D01*
X94490639Y-43650470D01*
X94491077Y-43649530D01*
X94489283Y-43642836D01*
X93637613Y-42791166D01*
X93626670Y-42786063D01*
X93622762Y-42787111D01*
X93543232Y-42903698D01*
X93539837Y-42909674D01*
X93438887Y-43127152D01*
X93436514Y-43133601D01*
X93372441Y-43364639D01*
X93371152Y-43371400D01*
X93345675Y-43609794D01*
X93345506Y-43616668D01*
X91150000Y-43616668D01*
X91150000Y-43450000D01*
X89400000Y-43450000D01*
X89400000Y-49700000D01*
X87027327Y-49700000D01*
X87097919Y-49557167D01*
X87100447Y-49550780D01*
X87170146Y-49321376D01*
X87171600Y-49314652D01*
X87203052Y-49075740D01*
X87203398Y-49071297D01*
X87205087Y-49002227D01*
X87204959Y-48997783D01*
X87185212Y-48757597D01*
X87184091Y-48750833D01*
X87125682Y-48518293D01*
X87123465Y-48511779D01*
X87027862Y-48291909D01*
X87024612Y-48285847D01*
X86931741Y-48142291D01*
X86922112Y-48135008D01*
X86918567Y-48135187D01*
X86917951Y-48135602D01*
X86064026Y-48989527D01*
X86058923Y-49000470D01*
X85340639Y-49000470D01*
X85341077Y-48999530D01*
X85339283Y-48992836D01*
X84487613Y-48141166D01*
X84476670Y-48136063D01*
X84472762Y-48137111D01*
X84393232Y-48253698D01*
X84389837Y-48259674D01*
X84288887Y-48477152D01*
X84286514Y-48483601D01*
X84222441Y-48714639D01*
X84221152Y-48721400D01*
X84195675Y-48959794D01*
X84195506Y-48966668D01*
X81328009Y-48966668D01*
X82516479Y-47778198D01*
X84835781Y-47778198D01*
X84836336Y-47782783D01*
X85689527Y-48635974D01*
X85700470Y-48641077D01*
X85707164Y-48639283D01*
X86559994Y-47786453D01*
X86565097Y-47775510D01*
X86563815Y-47770726D01*
X86535633Y-47748469D01*
X86529918Y-47744672D01*
X86320010Y-47628797D01*
X86313743Y-47625980D01*
X86087733Y-47545945D01*
X86081085Y-47544189D01*
X85845042Y-47502144D01*
X85838200Y-47501497D01*
X85598452Y-47498567D01*
X85591597Y-47499047D01*
X85354595Y-47535313D01*
X85347911Y-47536906D01*
X85120007Y-47611396D01*
X85113681Y-47614055D01*
X84901006Y-47724767D01*
X84895188Y-47728431D01*
X84842374Y-47768084D01*
X84835781Y-47778198D01*
X82516479Y-47778198D01*
X85184541Y-45110136D01*
X85236617Y-45085853D01*
X85277096Y-45092354D01*
X85318486Y-45110136D01*
X85336746Y-45117981D01*
X85442007Y-45141799D01*
X85542808Y-45164608D01*
X85542809Y-45164608D01*
X85546565Y-45165458D01*
X85668982Y-45170268D01*
X85757673Y-45173753D01*
X85757676Y-45173753D01*
X85761522Y-45173904D01*
X85765328Y-45173352D01*
X85765331Y-45173352D01*
X85847125Y-45161492D01*
X85974419Y-45143035D01*
X85978058Y-45141800D01*
X85978061Y-45141799D01*
X86174475Y-45075125D01*
X86178125Y-45073886D01*
X86365819Y-44968773D01*
X86531215Y-44831215D01*
X86668773Y-44665819D01*
X86773886Y-44478125D01*
X86777395Y-44467789D01*
X86841799Y-44278061D01*
X86841800Y-44278058D01*
X86843035Y-44274419D01*
X86873904Y-44061522D01*
X86875515Y-44000000D01*
X86855831Y-43785779D01*
X86797438Y-43578733D01*
X86788125Y-43559848D01*
X86703998Y-43389255D01*
X86703994Y-43389249D01*
X86702291Y-43385795D01*
X86573578Y-43213427D01*
X86487223Y-43133601D01*
X86418432Y-43070011D01*
X86418429Y-43070009D01*
X86415608Y-43067401D01*
X86412361Y-43065352D01*
X86412358Y-43065350D01*
X86236924Y-42954659D01*
X86236922Y-42954658D01*
X86233673Y-42952608D01*
X86111078Y-42903698D01*
X86037439Y-42874319D01*
X86037436Y-42874318D01*
X86033864Y-42872893D01*
X85822875Y-42830925D01*
X85708557Y-42829428D01*
X85611618Y-42828159D01*
X85611614Y-42828159D01*
X85607770Y-42828109D01*
X85395754Y-42864540D01*
X85273410Y-42909675D01*
X85215953Y-42909926D01*
X85184941Y-42890264D01*
X84722875Y-42428198D01*
X93985781Y-42428198D01*
X93986336Y-42432783D01*
X94839527Y-43285974D01*
X94850470Y-43291077D01*
X94857164Y-43289283D01*
X95709994Y-42436453D01*
X95715097Y-42425510D01*
X95713815Y-42420726D01*
X95685633Y-42398469D01*
X95679918Y-42394672D01*
X95470010Y-42278797D01*
X95463743Y-42275980D01*
X95237733Y-42195945D01*
X95231085Y-42194189D01*
X94995042Y-42152144D01*
X94988200Y-42151497D01*
X94748452Y-42148567D01*
X94741597Y-42149047D01*
X94504595Y-42185313D01*
X94497911Y-42186906D01*
X94270007Y-42261396D01*
X94263681Y-42264055D01*
X94051006Y-42374767D01*
X94045188Y-42378431D01*
X93992374Y-42418084D01*
X93985781Y-42428198D01*
X84722875Y-42428198D01*
X81870795Y-39576118D01*
X84833275Y-39576118D01*
X84834624Y-39581150D01*
X84839660Y-39584676D01*
X85046676Y-39705647D01*
X85052867Y-39708613D01*
X85276857Y-39794147D01*
X85283456Y-39796064D01*
X85518412Y-39843867D01*
X85525224Y-39844679D01*
X85764841Y-39853466D01*
X85771692Y-39853155D01*
X86009520Y-39822688D01*
X86016236Y-39821260D01*
X86245882Y-39752363D01*
X86252294Y-39749850D01*
X86467600Y-39644373D01*
X86473507Y-39640852D01*
X86557048Y-39581262D01*
X86563888Y-39571309D01*
X86563476Y-39567029D01*
X85710473Y-38714026D01*
X85699530Y-38708923D01*
X85692836Y-38710717D01*
X84838378Y-39565175D01*
X84833275Y-39576118D01*
X81870795Y-39576118D01*
X81029074Y-38734397D01*
X81004791Y-38682321D01*
X81019662Y-38626820D01*
X81029074Y-38615603D01*
X81328009Y-38316668D01*
X84195506Y-38316668D01*
X84209309Y-38556041D01*
X84210264Y-38562832D01*
X84262977Y-38796740D01*
X84265030Y-38803292D01*
X84355233Y-39025434D01*
X84358335Y-39031576D01*
X84467068Y-39209011D01*
X84476518Y-39216528D01*
X84479515Y-39216449D01*
X84480918Y-39215529D01*
X85335974Y-38360473D01*
X85340639Y-38350470D01*
X86058923Y-38350470D01*
X86060717Y-38357164D01*
X86912200Y-39208647D01*
X86923143Y-39213750D01*
X86927340Y-39212625D01*
X86988149Y-39128001D01*
X86991684Y-39122118D01*
X87097919Y-38907167D01*
X87100447Y-38900780D01*
X87170146Y-38671376D01*
X87171600Y-38664652D01*
X87203052Y-38425740D01*
X87203398Y-38421297D01*
X87205087Y-38352227D01*
X87204959Y-38347783D01*
X87185212Y-38107597D01*
X87184091Y-38100833D01*
X87125682Y-37868293D01*
X87123465Y-37861779D01*
X87027862Y-37641909D01*
X87024612Y-37635847D01*
X86931741Y-37492291D01*
X86922112Y-37485008D01*
X86918567Y-37485187D01*
X86917951Y-37485602D01*
X86064026Y-38339527D01*
X86058923Y-38350470D01*
X85340639Y-38350470D01*
X85341077Y-38349530D01*
X85339283Y-38342836D01*
X84487613Y-37491166D01*
X84476670Y-37486063D01*
X84472762Y-37487111D01*
X84393232Y-37603698D01*
X84389837Y-37609674D01*
X84288887Y-37827152D01*
X84286514Y-37833601D01*
X84222441Y-38064639D01*
X84221152Y-38071400D01*
X84195675Y-38309794D01*
X84195506Y-38316668D01*
X81328009Y-38316668D01*
X82516479Y-37128198D01*
X84835781Y-37128198D01*
X84836336Y-37132783D01*
X85689527Y-37985974D01*
X85700470Y-37991077D01*
X85707164Y-37989283D01*
X86559994Y-37136453D01*
X86565097Y-37125510D01*
X86563815Y-37120726D01*
X86535633Y-37098469D01*
X86529918Y-37094672D01*
X86320010Y-36978797D01*
X86313743Y-36975980D01*
X86087733Y-36895945D01*
X86081085Y-36894189D01*
X85845042Y-36852144D01*
X85838200Y-36851497D01*
X85598452Y-36848567D01*
X85591597Y-36849047D01*
X85354595Y-36885313D01*
X85347911Y-36886906D01*
X85120007Y-36961396D01*
X85113681Y-36964055D01*
X84901006Y-37074767D01*
X84895188Y-37078431D01*
X84842374Y-37118084D01*
X84835781Y-37128198D01*
X82516479Y-37128198D01*
X85184541Y-34460136D01*
X85236617Y-34435853D01*
X85277096Y-34442354D01*
X85318486Y-34460136D01*
X85336746Y-34467981D01*
X85442007Y-34491799D01*
X85542808Y-34514608D01*
X85542809Y-34514608D01*
X85546565Y-34515458D01*
X85668982Y-34520268D01*
X85757673Y-34523753D01*
X85757676Y-34523753D01*
X85761522Y-34523904D01*
X85765328Y-34523352D01*
X85765331Y-34523352D01*
X85834641Y-34513302D01*
X85974419Y-34493035D01*
X85978058Y-34491800D01*
X85978061Y-34491799D01*
X86174475Y-34425125D01*
X86178125Y-34423886D01*
X86365819Y-34318773D01*
X86531215Y-34181215D01*
X86668773Y-34015819D01*
X86773886Y-33828125D01*
X86801798Y-33745898D01*
X86841799Y-33628061D01*
X86841800Y-33628058D01*
X86843035Y-33624419D01*
X86873904Y-33411522D01*
X86875515Y-33350000D01*
X86855831Y-33135779D01*
X86797438Y-32928733D01*
X86795735Y-32925279D01*
X86703998Y-32739255D01*
X86703994Y-32739249D01*
X86702291Y-32735795D01*
X86573578Y-32563427D01*
X86472770Y-32470241D01*
X86418432Y-32420011D01*
X86418429Y-32420009D01*
X86415608Y-32417401D01*
X86412361Y-32415352D01*
X86412358Y-32415350D01*
X86236924Y-32304659D01*
X86236922Y-32304658D01*
X86233673Y-32302608D01*
X86132841Y-32262380D01*
X86037439Y-32224319D01*
X86037436Y-32224318D01*
X86033864Y-32222893D01*
X85889578Y-32194193D01*
X92624697Y-32194193D01*
X92642172Y-32327828D01*
X92696451Y-32451187D01*
X92783172Y-32554353D01*
X92788154Y-32557669D01*
X92890381Y-32625718D01*
X92890384Y-32625720D01*
X92895362Y-32629033D01*
X92901074Y-32630818D01*
X92901075Y-32630818D01*
X93018291Y-32667439D01*
X93018293Y-32667439D01*
X93024002Y-32669223D01*
X93029980Y-32669333D01*
X93029983Y-32669333D01*
X93098192Y-32670583D01*
X93158752Y-32671693D01*
X93174356Y-32667439D01*
X93283007Y-32637818D01*
X93283009Y-32637817D01*
X93288779Y-32636244D01*
X93403631Y-32565725D01*
X93494073Y-32465806D01*
X93498938Y-32455766D01*
X93550225Y-32349907D01*
X93552836Y-32344518D01*
X93575196Y-32211614D01*
X93575338Y-32200000D01*
X93574878Y-32196787D01*
X93557080Y-32072508D01*
X93557080Y-32072507D01*
X93556232Y-32066588D01*
X93500450Y-31943902D01*
X93412475Y-31841803D01*
X93406627Y-31838012D01*
X93304404Y-31771754D01*
X93304403Y-31771754D01*
X93299382Y-31768499D01*
X93251468Y-31754170D01*
X93175991Y-31731597D01*
X93175989Y-31731597D01*
X93170259Y-31729883D01*
X93164279Y-31729846D01*
X93164276Y-31729846D01*
X93101215Y-31729461D01*
X93035489Y-31729060D01*
X92905905Y-31766095D01*
X92791924Y-31838012D01*
X92702709Y-31939029D01*
X92645432Y-32061025D01*
X92624697Y-32194193D01*
X85889578Y-32194193D01*
X85822875Y-32180925D01*
X85708557Y-32179428D01*
X85611618Y-32178159D01*
X85611614Y-32178159D01*
X85607770Y-32178109D01*
X85395754Y-32214540D01*
X85193928Y-32288997D01*
X85190620Y-32290965D01*
X85091548Y-32349907D01*
X85009050Y-32398988D01*
X84847312Y-32540829D01*
X84831183Y-32561289D01*
X84744234Y-32671583D01*
X84714130Y-32709769D01*
X84712340Y-32713172D01*
X84712337Y-32713176D01*
X84651868Y-32828109D01*
X84613966Y-32900150D01*
X84597041Y-32954659D01*
X84561223Y-33070011D01*
X84550173Y-33105597D01*
X84524888Y-33319229D01*
X84538958Y-33533891D01*
X84591911Y-33742395D01*
X84593522Y-33745889D01*
X84593525Y-33745898D01*
X84605586Y-33772060D01*
X84610344Y-33829322D01*
X84588699Y-33866624D01*
X80250426Y-38204897D01*
X80198350Y-38229180D01*
X80191029Y-38229500D01*
X77600050Y-38229500D01*
X77546056Y-38209848D01*
X77524713Y-38182652D01*
X77453998Y-38039255D01*
X77453994Y-38039249D01*
X77452291Y-38035795D01*
X77323578Y-37863427D01*
X77296380Y-37838285D01*
X77168432Y-37720011D01*
X77168429Y-37720009D01*
X77165608Y-37717401D01*
X77162361Y-37715352D01*
X77162358Y-37715350D01*
X76986924Y-37604659D01*
X76986922Y-37604658D01*
X76983673Y-37602608D01*
X76882841Y-37562380D01*
X76787439Y-37524319D01*
X76787436Y-37524318D01*
X76783864Y-37522893D01*
X76572875Y-37480925D01*
X76458557Y-37479428D01*
X76361618Y-37478159D01*
X76361614Y-37478159D01*
X76357770Y-37478109D01*
X76145754Y-37514540D01*
X75943928Y-37588997D01*
X75940620Y-37590965D01*
X75917603Y-37604659D01*
X75759050Y-37698988D01*
X75597312Y-37840829D01*
X75579497Y-37863427D01*
X75482889Y-37985974D01*
X75464130Y-38009769D01*
X75462340Y-38013172D01*
X75462337Y-38013176D01*
X75431704Y-38071400D01*
X75363966Y-38200150D01*
X75355091Y-38228733D01*
X75318125Y-38347783D01*
X75300173Y-38405597D01*
X75274888Y-38619229D01*
X75288958Y-38833891D01*
X75341911Y-39042395D01*
X75431974Y-39237757D01*
X75556131Y-39413436D01*
X75710224Y-39563547D01*
X75889093Y-39683063D01*
X76086746Y-39767981D01*
X76192007Y-39791799D01*
X76292808Y-39814608D01*
X76292809Y-39814608D01*
X76296565Y-39815458D01*
X76418982Y-39820268D01*
X76507673Y-39823753D01*
X76507676Y-39823753D01*
X76511522Y-39823904D01*
X76515328Y-39823352D01*
X76515331Y-39823352D01*
X76584641Y-39813302D01*
X76724419Y-39793035D01*
X76728058Y-39791800D01*
X76728061Y-39791799D01*
X76924475Y-39725125D01*
X76928125Y-39723886D01*
X77115819Y-39618773D01*
X77281215Y-39481215D01*
X77418773Y-39315819D01*
X77523886Y-39128125D01*
X77525125Y-39124474D01*
X77526689Y-39120962D01*
X77528660Y-39121840D01*
X77560012Y-39082719D01*
X77603640Y-39070500D01*
X80141029Y-39070500D01*
X80195023Y-39090152D01*
X80200426Y-39095103D01*
X84587935Y-43482612D01*
X84612218Y-43534688D01*
X84608760Y-43566915D01*
X84550173Y-43755597D01*
X84524888Y-43969229D01*
X84538958Y-44183891D01*
X84591911Y-44392395D01*
X84593522Y-44395889D01*
X84593525Y-44395898D01*
X84605586Y-44422060D01*
X84610344Y-44479322D01*
X84588699Y-44516624D01*
X80250426Y-48854897D01*
X80198350Y-48879180D01*
X80191029Y-48879500D01*
X77650050Y-48879500D01*
X77596056Y-48859848D01*
X77574713Y-48832652D01*
X77574581Y-48832383D01*
X77540697Y-48763674D01*
X77503998Y-48689255D01*
X77503994Y-48689249D01*
X77502291Y-48685795D01*
X77373578Y-48513427D01*
X77346380Y-48488285D01*
X77218432Y-48370011D01*
X77218429Y-48370009D01*
X77215608Y-48367401D01*
X77212361Y-48365352D01*
X77212358Y-48365350D01*
X77036924Y-48254659D01*
X77036922Y-48254658D01*
X77033673Y-48252608D01*
X76924408Y-48209016D01*
X76837439Y-48174319D01*
X76837436Y-48174318D01*
X76833864Y-48172893D01*
X76622875Y-48130925D01*
X76508557Y-48129428D01*
X76411618Y-48128159D01*
X76411614Y-48128159D01*
X76407770Y-48128109D01*
X76195754Y-48164540D01*
X76073410Y-48209675D01*
X76015953Y-48209926D01*
X75984941Y-48190264D01*
X72670795Y-44876118D01*
X75583275Y-44876118D01*
X75584624Y-44881150D01*
X75589660Y-44884676D01*
X75796676Y-45005647D01*
X75802867Y-45008613D01*
X76026857Y-45094147D01*
X76033456Y-45096064D01*
X76268412Y-45143867D01*
X76275224Y-45144679D01*
X76514841Y-45153466D01*
X76521692Y-45153155D01*
X76759520Y-45122688D01*
X76766236Y-45121260D01*
X76995882Y-45052363D01*
X77002294Y-45049850D01*
X77217600Y-44944373D01*
X77223507Y-44940852D01*
X77307048Y-44881262D01*
X77313888Y-44871309D01*
X77313476Y-44867029D01*
X76460473Y-44014026D01*
X76449530Y-44008923D01*
X76442836Y-44010717D01*
X75588378Y-44865175D01*
X75583275Y-44876118D01*
X72670795Y-44876118D01*
X71544434Y-43749757D01*
X71544433Y-43749755D01*
X71450245Y-43655567D01*
X71426278Y-43643355D01*
X71415043Y-43636470D01*
X71398634Y-43624548D01*
X71398630Y-43624546D01*
X71393283Y-43620661D01*
X71380994Y-43616668D01*
X74945506Y-43616668D01*
X74959309Y-43856041D01*
X74960264Y-43862832D01*
X75012977Y-44096740D01*
X75015030Y-44103292D01*
X75105233Y-44325434D01*
X75108335Y-44331576D01*
X75217068Y-44509011D01*
X75226518Y-44516528D01*
X75229515Y-44516449D01*
X75230918Y-44515529D01*
X76085974Y-43660473D01*
X76090639Y-43650470D01*
X76808923Y-43650470D01*
X76810717Y-43657164D01*
X77662200Y-44508647D01*
X77673143Y-44513750D01*
X77677340Y-44512625D01*
X77738149Y-44428001D01*
X77741684Y-44422118D01*
X77847919Y-44207167D01*
X77850447Y-44200780D01*
X77920146Y-43971376D01*
X77921600Y-43964652D01*
X77953052Y-43725740D01*
X77953398Y-43721297D01*
X77955087Y-43652227D01*
X77954959Y-43647783D01*
X77935212Y-43407597D01*
X77934091Y-43400833D01*
X77875682Y-43168293D01*
X77873465Y-43161779D01*
X77777862Y-42941909D01*
X77774612Y-42935847D01*
X77681741Y-42792291D01*
X77672112Y-42785008D01*
X77668567Y-42785187D01*
X77667951Y-42785602D01*
X76814026Y-43639527D01*
X76808923Y-43650470D01*
X76090639Y-43650470D01*
X76091077Y-43649530D01*
X76089283Y-43642836D01*
X75237613Y-42791166D01*
X75226670Y-42786063D01*
X75222762Y-42787111D01*
X75143232Y-42903698D01*
X75139837Y-42909674D01*
X75038887Y-43127152D01*
X75036514Y-43133601D01*
X74972441Y-43364639D01*
X74971152Y-43371400D01*
X74945675Y-43609794D01*
X74945506Y-43616668D01*
X71380994Y-43616668D01*
X71367695Y-43612347D01*
X71355534Y-43607309D01*
X71331562Y-43595095D01*
X71304995Y-43590888D01*
X71292183Y-43587811D01*
X71266601Y-43579499D01*
X71133399Y-43579499D01*
X71133397Y-43579500D01*
X68450050Y-43579500D01*
X68396056Y-43559848D01*
X68374713Y-43532652D01*
X68303998Y-43389255D01*
X68303994Y-43389249D01*
X68302291Y-43385795D01*
X68173578Y-43213427D01*
X68087223Y-43133601D01*
X68018432Y-43070011D01*
X68018429Y-43070009D01*
X68015608Y-43067401D01*
X68012361Y-43065352D01*
X68012358Y-43065350D01*
X67836924Y-42954659D01*
X67836922Y-42954658D01*
X67833673Y-42952608D01*
X67711078Y-42903698D01*
X67637439Y-42874319D01*
X67637436Y-42874318D01*
X67633864Y-42872893D01*
X67422875Y-42830925D01*
X67308557Y-42829428D01*
X67211618Y-42828159D01*
X67211614Y-42828159D01*
X67207770Y-42828109D01*
X66995754Y-42864540D01*
X66793928Y-42938997D01*
X66790620Y-42940965D01*
X66767603Y-42954659D01*
X66609050Y-43048988D01*
X66447312Y-43190829D01*
X66314130Y-43359769D01*
X66312340Y-43363172D01*
X66312337Y-43363176D01*
X66223172Y-43532652D01*
X66213966Y-43550150D01*
X66192072Y-43620661D01*
X66152007Y-43749692D01*
X66150173Y-43755597D01*
X66124888Y-43969229D01*
X66138958Y-44183891D01*
X66191911Y-44392395D01*
X66281974Y-44587757D01*
X66406131Y-44763436D01*
X66560224Y-44913547D01*
X66739093Y-45033063D01*
X66861966Y-45085853D01*
X66885733Y-45096064D01*
X66936746Y-45117981D01*
X67042007Y-45141799D01*
X67142808Y-45164608D01*
X67142809Y-45164608D01*
X67146565Y-45165458D01*
X67268982Y-45170268D01*
X67357673Y-45173753D01*
X67357676Y-45173753D01*
X67361522Y-45173904D01*
X67365328Y-45173352D01*
X67365331Y-45173352D01*
X67447125Y-45161492D01*
X67574419Y-45143035D01*
X67578058Y-45141800D01*
X67578061Y-45141799D01*
X67774475Y-45075125D01*
X67778125Y-45073886D01*
X67965819Y-44968773D01*
X68131215Y-44831215D01*
X68268773Y-44665819D01*
X68373886Y-44478125D01*
X68375125Y-44474474D01*
X68376689Y-44470962D01*
X68378660Y-44471840D01*
X68410012Y-44432719D01*
X68453640Y-44420500D01*
X70991029Y-44420500D01*
X71045023Y-44440152D01*
X71050426Y-44445103D01*
X75387935Y-48782612D01*
X75412218Y-48834688D01*
X75408760Y-48866915D01*
X75350173Y-49055597D01*
X75324888Y-49269229D01*
X75338958Y-49483891D01*
X75391911Y-49692395D01*
X75481974Y-49887757D01*
X75606131Y-50063436D01*
X75760224Y-50213547D01*
X75939093Y-50333063D01*
X76136746Y-50417981D01*
X76242007Y-50441799D01*
X76342808Y-50464608D01*
X76342809Y-50464608D01*
X76346565Y-50465458D01*
X76468982Y-50470268D01*
X76557673Y-50473753D01*
X76557676Y-50473753D01*
X76561522Y-50473904D01*
X76565328Y-50473352D01*
X76565331Y-50473352D01*
X76634641Y-50463302D01*
X76774419Y-50443035D01*
X76778058Y-50441800D01*
X76778061Y-50441799D01*
X76974475Y-50375125D01*
X76978125Y-50373886D01*
X77165819Y-50268773D01*
X77331215Y-50131215D01*
X77468773Y-49965819D01*
X77573886Y-49778125D01*
X77575125Y-49774474D01*
X77576689Y-49770962D01*
X77578660Y-49771840D01*
X77610012Y-49732719D01*
X77653640Y-49720500D01*
X80141029Y-49720500D01*
X80195023Y-49740152D01*
X80200426Y-49745103D01*
X81220529Y-50765206D01*
X81244812Y-50817282D01*
X81229941Y-50872783D01*
X81182873Y-50905741D01*
X81137064Y-50905081D01*
X81082398Y-50888732D01*
X81082396Y-50888732D01*
X81076666Y-50887018D01*
X81070686Y-50886981D01*
X81070683Y-50886981D01*
X81001318Y-50886558D01*
X80929607Y-50886120D01*
X80923851Y-50887765D01*
X80863264Y-50905081D01*
X80788208Y-50926532D01*
X80663834Y-51005006D01*
X80566484Y-51115233D01*
X80565662Y-51114507D01*
X80524125Y-51145468D01*
X80466761Y-51142160D01*
X80436351Y-51119842D01*
X80428844Y-51111129D01*
X80340967Y-51009142D01*
X80329662Y-51001814D01*
X80222583Y-50932410D01*
X80217561Y-50929155D01*
X80211831Y-50927441D01*
X80211828Y-50927440D01*
X80082398Y-50888732D01*
X80082396Y-50888732D01*
X80076666Y-50887018D01*
X80070686Y-50886981D01*
X80070683Y-50886981D01*
X80001318Y-50886558D01*
X79929607Y-50886120D01*
X79923851Y-50887765D01*
X79863264Y-50905081D01*
X79788208Y-50926532D01*
X79663834Y-51005006D01*
X79566484Y-51115233D01*
X79503985Y-51248353D01*
X79503065Y-51254264D01*
X79503064Y-51254266D01*
X79500326Y-51271850D01*
X79481360Y-51393663D01*
X79500428Y-51539483D01*
X79559656Y-51674090D01*
X79563505Y-51678669D01*
X79563507Y-51678672D01*
X79650431Y-51782080D01*
X79650433Y-51782082D01*
X79654284Y-51786663D01*
X79776703Y-51868152D01*
X79917073Y-51912007D01*
X79923050Y-51912117D01*
X79923053Y-51912117D01*
X79997527Y-51913482D01*
X80064109Y-51914702D01*
X80069881Y-51913128D01*
X80069884Y-51913128D01*
X80200219Y-51877594D01*
X80200220Y-51877594D01*
X80205992Y-51876020D01*
X80211090Y-51872890D01*
X80211092Y-51872889D01*
X80326216Y-51802202D01*
X80326217Y-51802201D01*
X80331315Y-51799071D01*
X80335328Y-51794637D01*
X80335331Y-51794635D01*
X80425991Y-51694475D01*
X80430004Y-51690042D01*
X80431616Y-51686716D01*
X80477336Y-51653499D01*
X80534655Y-51657508D01*
X80564786Y-51680193D01*
X80654284Y-51786663D01*
X80776703Y-51868152D01*
X80917073Y-51912007D01*
X80923050Y-51912117D01*
X80923053Y-51912117D01*
X80997527Y-51913482D01*
X81064109Y-51914702D01*
X81069881Y-51913128D01*
X81069884Y-51913128D01*
X81200219Y-51877594D01*
X81200220Y-51877594D01*
X81205992Y-51876020D01*
X81211090Y-51872890D01*
X81211092Y-51872889D01*
X81326216Y-51802202D01*
X81326217Y-51802201D01*
X81331315Y-51799071D01*
X81335328Y-51794637D01*
X81335331Y-51794635D01*
X81425991Y-51694475D01*
X81430004Y-51690042D01*
X81494126Y-51557696D01*
X81518524Y-51412672D01*
X81518679Y-51400000D01*
X81517772Y-51393663D01*
X81498155Y-51256686D01*
X81509955Y-51200451D01*
X81555141Y-51164957D01*
X81612570Y-51166812D01*
X81640704Y-51185381D01*
X84541426Y-54086103D01*
X84565709Y-54138179D01*
X84550838Y-54193680D01*
X84503770Y-54226638D01*
X84482029Y-54229500D01*
X81866603Y-54229500D01*
X81866601Y-54229499D01*
X81733399Y-54229499D01*
X81727113Y-54231541D01*
X81727109Y-54231542D01*
X81707815Y-54237811D01*
X81694999Y-54240888D01*
X81668438Y-54245095D01*
X81644469Y-54257308D01*
X81632299Y-54262348D01*
X81613007Y-54268616D01*
X81613005Y-54268617D01*
X81606717Y-54270660D01*
X81601369Y-54274545D01*
X81601368Y-54274546D01*
X81584955Y-54286471D01*
X81573720Y-54293356D01*
X81549755Y-54305567D01*
X81455567Y-54399755D01*
X81455566Y-54399757D01*
X77014930Y-58840393D01*
X76962854Y-58864676D01*
X76924410Y-58859017D01*
X76833864Y-58822893D01*
X76622875Y-58780925D01*
X76508557Y-58779428D01*
X76411618Y-58778159D01*
X76411614Y-58778159D01*
X76407770Y-58778109D01*
X76195754Y-58814540D01*
X76073410Y-58859675D01*
X76015953Y-58859926D01*
X75984941Y-58840264D01*
X72670795Y-55526118D01*
X75633275Y-55526118D01*
X75634624Y-55531150D01*
X75639660Y-55534676D01*
X75846676Y-55655647D01*
X75852867Y-55658613D01*
X76076857Y-55744147D01*
X76083456Y-55746064D01*
X76318412Y-55793867D01*
X76325224Y-55794679D01*
X76564841Y-55803466D01*
X76571692Y-55803155D01*
X76809520Y-55772688D01*
X76816236Y-55771260D01*
X77045882Y-55702363D01*
X77052294Y-55699850D01*
X77267600Y-55594373D01*
X77273507Y-55590852D01*
X77357048Y-55531262D01*
X77363888Y-55521309D01*
X77363476Y-55517029D01*
X76510473Y-54664026D01*
X76499530Y-54658923D01*
X76492836Y-54660717D01*
X75638378Y-55515175D01*
X75633275Y-55526118D01*
X72670795Y-55526118D01*
X72235889Y-55091212D01*
X72211606Y-55039136D01*
X72215744Y-55004814D01*
X72218250Y-54997434D01*
X72243035Y-54924419D01*
X72273904Y-54711522D01*
X72275515Y-54650000D01*
X72255831Y-54435779D01*
X72208137Y-54266668D01*
X74995506Y-54266668D01*
X75009309Y-54506041D01*
X75010264Y-54512832D01*
X75062977Y-54746740D01*
X75065030Y-54753292D01*
X75155233Y-54975434D01*
X75158335Y-54981576D01*
X75267068Y-55159011D01*
X75276518Y-55166528D01*
X75279515Y-55166449D01*
X75280918Y-55165529D01*
X76135974Y-54310473D01*
X76140639Y-54300470D01*
X76858923Y-54300470D01*
X76860717Y-54307164D01*
X77712200Y-55158647D01*
X77723143Y-55163750D01*
X77727340Y-55162625D01*
X77788149Y-55078001D01*
X77791684Y-55072118D01*
X77897919Y-54857167D01*
X77900447Y-54850780D01*
X77970146Y-54621376D01*
X77971600Y-54614652D01*
X78003052Y-54375740D01*
X78003398Y-54371297D01*
X78005087Y-54302227D01*
X78004959Y-54297783D01*
X77985212Y-54057597D01*
X77984091Y-54050833D01*
X77925682Y-53818293D01*
X77923465Y-53811779D01*
X77827862Y-53591909D01*
X77824612Y-53585847D01*
X77731741Y-53442291D01*
X77722112Y-53435008D01*
X77718567Y-53435187D01*
X77717951Y-53435602D01*
X76864026Y-54289527D01*
X76858923Y-54300470D01*
X76140639Y-54300470D01*
X76141077Y-54299530D01*
X76139283Y-54292836D01*
X75287613Y-53441166D01*
X75276670Y-53436063D01*
X75272762Y-53437111D01*
X75193232Y-53553698D01*
X75189837Y-53559674D01*
X75088887Y-53777152D01*
X75086514Y-53783601D01*
X75022441Y-54014639D01*
X75021152Y-54021400D01*
X74995675Y-54259794D01*
X74995506Y-54266668D01*
X72208137Y-54266668D01*
X72197438Y-54228733D01*
X72188125Y-54209848D01*
X72103998Y-54039255D01*
X72103994Y-54039249D01*
X72102291Y-54035795D01*
X71973578Y-53863427D01*
X71887223Y-53783601D01*
X71818432Y-53720011D01*
X71818429Y-53720009D01*
X71815608Y-53717401D01*
X71812361Y-53715352D01*
X71812358Y-53715350D01*
X71636924Y-53604659D01*
X71636922Y-53604658D01*
X71633673Y-53602608D01*
X71511078Y-53553698D01*
X71437439Y-53524319D01*
X71437436Y-53524318D01*
X71433864Y-53522893D01*
X71222875Y-53480925D01*
X71108557Y-53479428D01*
X71011618Y-53478159D01*
X71011614Y-53478159D01*
X71007770Y-53478109D01*
X70795754Y-53514540D01*
X70593928Y-53588997D01*
X70590620Y-53590965D01*
X70567603Y-53604659D01*
X70409050Y-53698988D01*
X70247312Y-53840829D01*
X70114130Y-54009769D01*
X70112340Y-54013172D01*
X70112337Y-54013176D01*
X70022141Y-54184612D01*
X69979609Y-54223245D01*
X69947802Y-54229500D01*
X68450050Y-54229500D01*
X68396056Y-54209848D01*
X68374713Y-54182652D01*
X68303998Y-54039255D01*
X68303994Y-54039249D01*
X68302291Y-54035795D01*
X68173578Y-53863427D01*
X68087223Y-53783601D01*
X68018432Y-53720011D01*
X68018429Y-53720009D01*
X68015608Y-53717401D01*
X68012361Y-53715352D01*
X68012358Y-53715350D01*
X67836924Y-53604659D01*
X67836922Y-53604658D01*
X67833673Y-53602608D01*
X67711078Y-53553698D01*
X67637439Y-53524319D01*
X67637436Y-53524318D01*
X67633864Y-53522893D01*
X67422875Y-53480925D01*
X67308557Y-53479428D01*
X67211618Y-53478159D01*
X67211614Y-53478159D01*
X67207770Y-53478109D01*
X66995754Y-53514540D01*
X66793928Y-53588997D01*
X66790620Y-53590965D01*
X66767603Y-53604659D01*
X66609050Y-53698988D01*
X66447312Y-53840829D01*
X66314130Y-54009769D01*
X66312340Y-54013172D01*
X66312337Y-54013176D01*
X66223172Y-54182652D01*
X66213966Y-54200150D01*
X66187163Y-54286471D01*
X66159444Y-54375740D01*
X66150173Y-54405597D01*
X66124888Y-54619229D01*
X66138958Y-54833891D01*
X66191911Y-55042395D01*
X66281974Y-55237757D01*
X66406131Y-55413436D01*
X66560224Y-55563547D01*
X66739093Y-55683063D01*
X66854301Y-55732560D01*
X66885733Y-55746064D01*
X66936746Y-55767981D01*
X67042007Y-55791799D01*
X67142808Y-55814608D01*
X67142809Y-55814608D01*
X67146565Y-55815458D01*
X67268982Y-55820268D01*
X67357673Y-55823753D01*
X67357676Y-55823753D01*
X67361522Y-55823904D01*
X67365328Y-55823352D01*
X67365331Y-55823352D01*
X67434641Y-55813302D01*
X67574419Y-55793035D01*
X67578058Y-55791800D01*
X67578061Y-55791799D01*
X67774475Y-55725125D01*
X67778125Y-55723886D01*
X67965819Y-55618773D01*
X68131215Y-55481215D01*
X68268773Y-55315819D01*
X68373886Y-55128125D01*
X68375125Y-55124474D01*
X68376689Y-55120962D01*
X68378660Y-55121840D01*
X68410012Y-55082719D01*
X68453640Y-55070500D01*
X69951096Y-55070500D01*
X70005090Y-55090152D01*
X70027380Y-55119333D01*
X70081974Y-55237757D01*
X70206131Y-55413436D01*
X70360224Y-55563547D01*
X70539093Y-55683063D01*
X70654301Y-55732560D01*
X70685733Y-55746064D01*
X70736746Y-55767981D01*
X70842007Y-55791799D01*
X70942808Y-55814608D01*
X70942809Y-55814608D01*
X70946565Y-55815458D01*
X71068982Y-55820268D01*
X71157673Y-55823753D01*
X71157676Y-55823753D01*
X71161522Y-55823904D01*
X71165328Y-55823352D01*
X71165331Y-55823352D01*
X71234641Y-55813302D01*
X71374419Y-55793035D01*
X71378058Y-55791800D01*
X71378061Y-55791799D01*
X71473303Y-55759468D01*
X71578125Y-55723886D01*
X71587439Y-55718670D01*
X71644149Y-55709430D01*
X71687883Y-55732560D01*
X75387935Y-59432612D01*
X75412218Y-59484688D01*
X75408760Y-59516915D01*
X75350173Y-59705597D01*
X75324888Y-59919229D01*
X75338958Y-60133891D01*
X75339908Y-60137631D01*
X75388843Y-60330313D01*
X75391911Y-60342395D01*
X75393522Y-60345889D01*
X75393525Y-60345898D01*
X75405586Y-60372060D01*
X75410344Y-60429322D01*
X75388699Y-60466624D01*
X71000426Y-64854897D01*
X70948350Y-64879180D01*
X70941029Y-64879500D01*
X69852590Y-64879500D01*
X69798596Y-64859848D01*
X69769866Y-64810086D01*
X69779844Y-64753500D01*
X69790308Y-64739135D01*
X69880004Y-64640042D01*
X69944126Y-64507696D01*
X69968524Y-64362672D01*
X69968679Y-64350000D01*
X69968219Y-64346787D01*
X69948679Y-64210344D01*
X69948679Y-64210343D01*
X69947831Y-64204424D01*
X69886962Y-64070551D01*
X69790967Y-63959142D01*
X69779662Y-63951814D01*
X69672583Y-63882410D01*
X69667561Y-63879155D01*
X69661831Y-63877441D01*
X69661828Y-63877440D01*
X69532398Y-63838732D01*
X69532396Y-63838732D01*
X69526666Y-63837018D01*
X69520686Y-63836981D01*
X69520683Y-63836981D01*
X69451318Y-63836558D01*
X69379607Y-63836120D01*
X69238208Y-63876532D01*
X69113834Y-63955006D01*
X69016484Y-64065233D01*
X68953985Y-64198353D01*
X68953065Y-64204264D01*
X68953064Y-64204266D01*
X68947350Y-64240965D01*
X68931360Y-64343663D01*
X68932136Y-64349597D01*
X68932136Y-64349598D01*
X68943121Y-64433601D01*
X68950428Y-64489483D01*
X69009656Y-64624090D01*
X69013505Y-64628669D01*
X69013507Y-64628672D01*
X69079851Y-64707597D01*
X69104284Y-64736663D01*
X69103644Y-64737201D01*
X69128479Y-64783519D01*
X69116729Y-64839764D01*
X69071574Y-64875298D01*
X69045338Y-64879500D01*
X68450050Y-64879500D01*
X68396056Y-64859848D01*
X68374713Y-64832652D01*
X68371443Y-64826020D01*
X68335680Y-64753500D01*
X68303998Y-64689255D01*
X68303994Y-64689249D01*
X68302291Y-64685795D01*
X68173578Y-64513427D01*
X68162997Y-64503646D01*
X68018432Y-64370011D01*
X68018429Y-64370009D01*
X68015608Y-64367401D01*
X68012361Y-64365352D01*
X68012358Y-64365350D01*
X67836924Y-64254659D01*
X67836922Y-64254658D01*
X67833673Y-64252608D01*
X67684105Y-64192937D01*
X67637439Y-64174319D01*
X67637436Y-64174318D01*
X67633864Y-64172893D01*
X67422875Y-64130925D01*
X67308557Y-64129428D01*
X67211618Y-64128159D01*
X67211614Y-64128159D01*
X67207770Y-64128109D01*
X66995754Y-64164540D01*
X66793928Y-64238997D01*
X66790620Y-64240965D01*
X66612750Y-64346787D01*
X66609050Y-64348988D01*
X66447312Y-64490829D01*
X66369697Y-64589283D01*
X66329682Y-64640042D01*
X66314130Y-64659769D01*
X66312340Y-64663172D01*
X66312337Y-64663176D01*
X66249022Y-64783519D01*
X66213966Y-64850150D01*
X66205091Y-64878733D01*
X66159444Y-65025740D01*
X66150173Y-65055597D01*
X66124888Y-65269229D01*
X58157739Y-65269229D01*
X58157739Y-60788663D01*
X59426360Y-60788663D01*
X59427136Y-60794597D01*
X59427136Y-60794598D01*
X59443374Y-60918773D01*
X59445428Y-60934483D01*
X59504656Y-61069090D01*
X59508505Y-61073669D01*
X59508507Y-61073672D01*
X59595431Y-61177080D01*
X59595433Y-61177082D01*
X59599284Y-61181663D01*
X59721703Y-61263152D01*
X59862073Y-61307007D01*
X59868050Y-61307117D01*
X59868053Y-61307117D01*
X59942527Y-61308482D01*
X60009109Y-61309702D01*
X60014881Y-61308128D01*
X60014884Y-61308128D01*
X60145219Y-61272594D01*
X60145220Y-61272594D01*
X60150992Y-61271020D01*
X60156090Y-61267890D01*
X60156092Y-61267889D01*
X60271216Y-61197202D01*
X60271217Y-61197201D01*
X60276315Y-61194071D01*
X60280328Y-61189637D01*
X60280331Y-61189635D01*
X60347336Y-61115609D01*
X60375004Y-61085042D01*
X60379386Y-61075999D01*
X60436517Y-60958081D01*
X60439126Y-60952696D01*
X60451163Y-60881150D01*
X60452010Y-60876118D01*
X66433275Y-60876118D01*
X66434624Y-60881150D01*
X66439660Y-60884676D01*
X66646676Y-61005647D01*
X66652867Y-61008613D01*
X66876857Y-61094147D01*
X66883456Y-61096064D01*
X67118412Y-61143867D01*
X67125224Y-61144679D01*
X67364841Y-61153466D01*
X67371692Y-61153155D01*
X67609520Y-61122688D01*
X67616236Y-61121260D01*
X67845882Y-61052363D01*
X67852294Y-61049850D01*
X68067600Y-60944373D01*
X68073507Y-60940852D01*
X68157048Y-60881262D01*
X68163888Y-60871309D01*
X68163476Y-60867029D01*
X67310473Y-60014026D01*
X67299530Y-60008923D01*
X67292836Y-60010717D01*
X66438378Y-60865175D01*
X66433275Y-60876118D01*
X60452010Y-60876118D01*
X60462986Y-60810870D01*
X60463524Y-60807672D01*
X60463679Y-60795000D01*
X60463219Y-60791787D01*
X60443679Y-60655344D01*
X60443679Y-60655343D01*
X60442831Y-60649424D01*
X60381962Y-60515551D01*
X60285967Y-60404142D01*
X60280814Y-60400802D01*
X60280749Y-60400715D01*
X60276436Y-60396953D01*
X60277225Y-60396048D01*
X60246193Y-60354946D01*
X60242500Y-60330313D01*
X60242500Y-59616668D01*
X65795506Y-59616668D01*
X65809309Y-59856041D01*
X65810264Y-59862832D01*
X65862977Y-60096740D01*
X65865030Y-60103292D01*
X65955233Y-60325434D01*
X65958335Y-60331576D01*
X66067068Y-60509011D01*
X66076518Y-60516528D01*
X66079515Y-60516449D01*
X66080918Y-60515529D01*
X66935974Y-59660473D01*
X66940639Y-59650470D01*
X67658923Y-59650470D01*
X67660717Y-59657164D01*
X68512200Y-60508647D01*
X68523143Y-60513750D01*
X68527340Y-60512625D01*
X68588149Y-60428001D01*
X68591684Y-60422118D01*
X68697919Y-60207167D01*
X68700447Y-60200780D01*
X68770146Y-59971376D01*
X68771600Y-59964652D01*
X68803052Y-59725740D01*
X68803398Y-59721297D01*
X68805087Y-59652227D01*
X68804959Y-59647783D01*
X68785212Y-59407597D01*
X68784091Y-59400833D01*
X68725682Y-59168293D01*
X68723465Y-59161779D01*
X68627862Y-58941909D01*
X68624612Y-58935847D01*
X68531741Y-58792291D01*
X68522112Y-58785008D01*
X68518567Y-58785187D01*
X68517951Y-58785602D01*
X67664026Y-59639527D01*
X67658923Y-59650470D01*
X66940639Y-59650470D01*
X66941077Y-59649530D01*
X66939283Y-59642836D01*
X66087613Y-58791166D01*
X66076670Y-58786063D01*
X66072762Y-58787111D01*
X65993232Y-58903698D01*
X65989837Y-58909674D01*
X65888887Y-59127152D01*
X65886514Y-59133601D01*
X65822441Y-59364639D01*
X65821152Y-59371400D01*
X65795675Y-59609794D01*
X65795506Y-59616668D01*
X60242500Y-59616668D01*
X60242500Y-58428198D01*
X66435781Y-58428198D01*
X66436336Y-58432783D01*
X67289527Y-59285974D01*
X67300470Y-59291077D01*
X67307164Y-59289283D01*
X68159994Y-58436453D01*
X68165097Y-58425510D01*
X68163815Y-58420726D01*
X68135633Y-58398469D01*
X68129918Y-58394672D01*
X67920010Y-58278797D01*
X67913743Y-58275980D01*
X67687733Y-58195945D01*
X67681085Y-58194189D01*
X67445042Y-58152144D01*
X67438200Y-58151497D01*
X67198452Y-58148567D01*
X67191597Y-58149047D01*
X66954595Y-58185313D01*
X66947911Y-58186906D01*
X66720007Y-58261396D01*
X66713681Y-58264055D01*
X66501006Y-58374767D01*
X66495188Y-58378431D01*
X66442374Y-58418084D01*
X66435781Y-58428198D01*
X60242500Y-58428198D01*
X60242500Y-53078198D01*
X75635781Y-53078198D01*
X75636336Y-53082783D01*
X76489527Y-53935974D01*
X76500470Y-53941077D01*
X76507164Y-53939283D01*
X77359994Y-53086453D01*
X77365097Y-53075510D01*
X77363815Y-53070726D01*
X77335633Y-53048469D01*
X77329918Y-53044672D01*
X77120010Y-52928797D01*
X77113743Y-52925980D01*
X76887733Y-52845945D01*
X76881085Y-52844189D01*
X76645042Y-52802144D01*
X76638200Y-52801497D01*
X76398452Y-52798567D01*
X76391597Y-52799047D01*
X76154595Y-52835313D01*
X76147911Y-52836906D01*
X75920007Y-52911396D01*
X75913681Y-52914055D01*
X75701006Y-53024767D01*
X75695188Y-53028431D01*
X75642374Y-53068084D01*
X75635781Y-53078198D01*
X60242500Y-53078198D01*
X60242500Y-50226118D01*
X66433275Y-50226118D01*
X66434624Y-50231150D01*
X66439660Y-50234676D01*
X66646676Y-50355647D01*
X66652867Y-50358613D01*
X66876857Y-50444147D01*
X66883456Y-50446064D01*
X67118412Y-50493867D01*
X67125224Y-50494679D01*
X67364841Y-50503466D01*
X67371692Y-50503155D01*
X67609520Y-50472688D01*
X67616236Y-50471260D01*
X67845882Y-50402363D01*
X67852294Y-50399850D01*
X68067600Y-50294373D01*
X68073507Y-50290852D01*
X68157048Y-50231262D01*
X68163888Y-50221309D01*
X68163476Y-50217029D01*
X67310473Y-49364026D01*
X67299530Y-49358923D01*
X67292836Y-49360717D01*
X66438378Y-50215175D01*
X66433275Y-50226118D01*
X60242500Y-50226118D01*
X60242500Y-49113022D01*
X60262152Y-49059028D01*
X60267103Y-49053625D01*
X60354060Y-48966668D01*
X65795506Y-48966668D01*
X65809309Y-49206041D01*
X65810264Y-49212832D01*
X65862977Y-49446740D01*
X65865030Y-49453292D01*
X65955233Y-49675434D01*
X65958335Y-49681576D01*
X66067068Y-49859011D01*
X66076518Y-49866528D01*
X66079515Y-49866449D01*
X66080918Y-49865529D01*
X66935974Y-49010473D01*
X66940639Y-49000470D01*
X67658923Y-49000470D01*
X67660717Y-49007164D01*
X68512200Y-49858647D01*
X68523143Y-49863750D01*
X68527340Y-49862625D01*
X68588149Y-49778001D01*
X68591684Y-49772118D01*
X68697919Y-49557167D01*
X68700447Y-49550780D01*
X68770146Y-49321376D01*
X68771600Y-49314652D01*
X68803052Y-49075740D01*
X68803398Y-49071297D01*
X68805087Y-49002227D01*
X68804959Y-48997783D01*
X68785212Y-48757597D01*
X68784091Y-48750833D01*
X68725682Y-48518293D01*
X68723465Y-48511779D01*
X68627862Y-48291909D01*
X68624612Y-48285847D01*
X68531741Y-48142291D01*
X68522112Y-48135008D01*
X68518567Y-48135187D01*
X68517951Y-48135602D01*
X67664026Y-48989527D01*
X67658923Y-49000470D01*
X66940639Y-49000470D01*
X66941077Y-48999530D01*
X66939283Y-48992836D01*
X66087613Y-48141166D01*
X66076670Y-48136063D01*
X66072762Y-48137111D01*
X65993232Y-48253698D01*
X65989837Y-48259674D01*
X65888887Y-48477152D01*
X65886514Y-48483601D01*
X65822441Y-48714639D01*
X65821152Y-48721400D01*
X65795675Y-48959794D01*
X65795506Y-48966668D01*
X60354060Y-48966668D01*
X61542530Y-47778198D01*
X66435781Y-47778198D01*
X66436336Y-47782783D01*
X67289527Y-48635974D01*
X67300470Y-48641077D01*
X67307164Y-48639283D01*
X68159994Y-47786453D01*
X68165097Y-47775510D01*
X68163815Y-47770726D01*
X68135633Y-47748469D01*
X68129918Y-47744672D01*
X67920010Y-47628797D01*
X67913743Y-47625980D01*
X67687733Y-47545945D01*
X67681085Y-47544189D01*
X67445042Y-47502144D01*
X67438200Y-47501497D01*
X67198452Y-47498567D01*
X67191597Y-47499047D01*
X66954595Y-47535313D01*
X66947911Y-47536906D01*
X66720007Y-47611396D01*
X66713681Y-47614055D01*
X66501006Y-47724767D01*
X66495188Y-47728431D01*
X66442374Y-47768084D01*
X66435781Y-47778198D01*
X61542530Y-47778198D01*
X65472488Y-43848241D01*
X65476160Y-43845072D01*
X65480449Y-43842975D01*
X65513918Y-43806895D01*
X65516104Y-43804625D01*
X65529929Y-43790800D01*
X65532119Y-43787607D01*
X65533303Y-43786182D01*
X65536329Y-43782735D01*
X65550549Y-43767406D01*
X65555821Y-43761723D01*
X65559729Y-43751928D01*
X65560621Y-43749692D01*
X65569372Y-43733302D01*
X65572314Y-43729013D01*
X65576702Y-43722617D01*
X65583028Y-43695960D01*
X65586734Y-43684238D01*
X65596889Y-43658786D01*
X65597500Y-43652555D01*
X65597500Y-43644807D01*
X65599770Y-43625411D01*
X65600501Y-43622331D01*
X65602292Y-43614785D01*
X65598267Y-43585209D01*
X65597500Y-43573882D01*
X65597500Y-42428198D01*
X75585781Y-42428198D01*
X75586336Y-42432783D01*
X76439527Y-43285974D01*
X76450470Y-43291077D01*
X76457164Y-43289283D01*
X77309994Y-42436453D01*
X77315097Y-42425510D01*
X77313815Y-42420726D01*
X77285633Y-42398469D01*
X77279918Y-42394672D01*
X77070010Y-42278797D01*
X77063743Y-42275980D01*
X76837733Y-42195945D01*
X76831085Y-42194189D01*
X76595042Y-42152144D01*
X76588200Y-42151497D01*
X76348452Y-42148567D01*
X76341597Y-42149047D01*
X76104595Y-42185313D01*
X76097911Y-42186906D01*
X75870007Y-42261396D01*
X75863681Y-42264055D01*
X75651006Y-42374767D01*
X75645188Y-42378431D01*
X75592374Y-42418084D01*
X75585781Y-42428198D01*
X65597500Y-42428198D01*
X65597500Y-40465480D01*
X65617152Y-40411486D01*
X65626919Y-40401770D01*
X65631315Y-40399071D01*
X65635328Y-40394637D01*
X65635331Y-40394635D01*
X65725991Y-40294475D01*
X65730004Y-40290042D01*
X65794126Y-40157696D01*
X65818524Y-40012672D01*
X65818679Y-40000000D01*
X65818219Y-39996787D01*
X65798679Y-39860344D01*
X65798679Y-39860343D01*
X65797831Y-39854424D01*
X65736962Y-39720551D01*
X65640967Y-39609142D01*
X65629662Y-39601814D01*
X65522583Y-39532410D01*
X65517561Y-39529155D01*
X65511831Y-39527441D01*
X65511828Y-39527440D01*
X65382398Y-39488732D01*
X65382396Y-39488732D01*
X65376666Y-39487018D01*
X65370686Y-39486981D01*
X65370683Y-39486981D01*
X65301318Y-39486558D01*
X65229607Y-39486120D01*
X65088208Y-39526532D01*
X64963834Y-39605006D01*
X64866484Y-39715233D01*
X64863943Y-39720644D01*
X64863943Y-39720645D01*
X64862421Y-39723886D01*
X64803985Y-39848353D01*
X64803065Y-39854264D01*
X64803064Y-39854266D01*
X64802118Y-39860344D01*
X64781360Y-39993663D01*
X64800428Y-40139483D01*
X64859656Y-40274090D01*
X64863505Y-40278669D01*
X64863507Y-40278672D01*
X64950431Y-40382080D01*
X64950433Y-40382082D01*
X64954284Y-40386663D01*
X64959266Y-40389979D01*
X64959268Y-40389981D01*
X64965047Y-40393828D01*
X64999103Y-40440107D01*
X65002500Y-40463752D01*
X65002500Y-43441977D01*
X64982848Y-43495971D01*
X64977897Y-43501374D01*
X59772516Y-48706756D01*
X59768842Y-48709928D01*
X59764551Y-48712025D01*
X59731044Y-48748146D01*
X59728884Y-48750388D01*
X59715072Y-48764200D01*
X59712885Y-48767389D01*
X59711701Y-48768814D01*
X59708674Y-48772262D01*
X59689179Y-48793277D01*
X59684377Y-48805313D01*
X59675627Y-48821701D01*
X59668299Y-48832383D01*
X59666508Y-48839928D01*
X59666506Y-48839933D01*
X59661971Y-48859041D01*
X59658264Y-48870764D01*
X59648111Y-48896214D01*
X59647500Y-48902445D01*
X59647500Y-48910192D01*
X59645230Y-48929588D01*
X59642708Y-48940215D01*
X59643754Y-48947900D01*
X59646733Y-48969791D01*
X59647500Y-48981118D01*
X59647500Y-60329400D01*
X59627848Y-60383394D01*
X59617940Y-60393371D01*
X59613899Y-60396810D01*
X59608834Y-60400006D01*
X59511484Y-60510233D01*
X59508943Y-60515644D01*
X59508943Y-60515645D01*
X59506429Y-60520999D01*
X59448985Y-60643353D01*
X59448065Y-60649264D01*
X59448064Y-60649266D01*
X59447118Y-60655344D01*
X59426360Y-60788663D01*
X58157739Y-60788663D01*
X58157739Y-44667458D01*
X59291935Y-44667458D01*
X59293077Y-44671720D01*
X59509333Y-44828838D01*
X59513788Y-44831666D01*
X59773796Y-44974607D01*
X59778566Y-44976851D01*
X60054433Y-45086074D01*
X60059452Y-45087705D01*
X60346834Y-45161492D01*
X60352017Y-45162481D01*
X60646397Y-45199670D01*
X60651637Y-45200000D01*
X60948363Y-45200000D01*
X60953603Y-45199670D01*
X61247983Y-45162481D01*
X61253166Y-45161492D01*
X61540548Y-45087705D01*
X61545567Y-45086074D01*
X61821434Y-44976851D01*
X61826204Y-44974607D01*
X62086212Y-44831666D01*
X62090667Y-44828838D01*
X62301452Y-44675694D01*
X62308204Y-44665684D01*
X62307743Y-44661296D01*
X60810473Y-43164026D01*
X60799530Y-43158923D01*
X60792836Y-43160717D01*
X59297038Y-44656515D01*
X59291935Y-44667458D01*
X58157739Y-44667458D01*
X58157739Y-42802639D01*
X58395421Y-42802639D01*
X58414051Y-43098752D01*
X58414713Y-43103994D01*
X58470309Y-43395443D01*
X58471618Y-43400543D01*
X58563311Y-43682741D01*
X58565250Y-43687636D01*
X58691577Y-43956096D01*
X58694123Y-43960728D01*
X58853102Y-44211240D01*
X58856206Y-44215512D01*
X58925871Y-44299723D01*
X58936285Y-44305833D01*
X58941496Y-44304951D01*
X60435974Y-42810473D01*
X60440639Y-42800470D01*
X61158923Y-42800470D01*
X61160717Y-42807164D01*
X62654215Y-44300662D01*
X62665158Y-44305765D01*
X62670262Y-44304397D01*
X62743794Y-44215512D01*
X62746898Y-44211240D01*
X62905877Y-43960728D01*
X62908423Y-43956096D01*
X63034750Y-43687636D01*
X63036689Y-43682741D01*
X63128382Y-43400543D01*
X63129691Y-43395443D01*
X63185287Y-43103994D01*
X63185949Y-43098752D01*
X63204579Y-42802639D01*
X63204579Y-42797361D01*
X63185949Y-42501248D01*
X63185287Y-42496006D01*
X63129691Y-42204557D01*
X63128382Y-42199457D01*
X63036689Y-41917259D01*
X63034750Y-41912364D01*
X62908423Y-41643904D01*
X62905877Y-41639272D01*
X62746898Y-41388760D01*
X62743794Y-41384488D01*
X62674129Y-41300277D01*
X62663715Y-41294167D01*
X62658504Y-41295049D01*
X61164026Y-42789527D01*
X61158923Y-42800470D01*
X60440639Y-42800470D01*
X60441077Y-42799530D01*
X60439283Y-42792836D01*
X58945785Y-41299338D01*
X58934842Y-41294235D01*
X58929738Y-41295603D01*
X58856206Y-41384488D01*
X58853102Y-41388760D01*
X58694123Y-41639272D01*
X58691577Y-41643904D01*
X58565250Y-41912364D01*
X58563311Y-41917259D01*
X58471618Y-42199457D01*
X58470309Y-42204557D01*
X58414713Y-42496006D01*
X58414051Y-42501248D01*
X58395421Y-42797361D01*
X58395421Y-42802639D01*
X58157739Y-42802639D01*
X58157739Y-41877190D01*
X58168993Y-41835190D01*
X58429206Y-41384488D01*
X58671511Y-40964803D01*
X58701998Y-40934316D01*
X59291796Y-40934316D01*
X59292257Y-40938704D01*
X60789527Y-42435974D01*
X60800470Y-42441077D01*
X60807164Y-42439283D01*
X62302962Y-40943485D01*
X62308065Y-40932542D01*
X62306923Y-40928280D01*
X62090667Y-40771162D01*
X62086212Y-40768334D01*
X61826204Y-40625393D01*
X61821434Y-40623149D01*
X61545567Y-40513926D01*
X61540548Y-40512295D01*
X61253166Y-40438508D01*
X61247983Y-40437519D01*
X60953603Y-40400330D01*
X60948363Y-40400000D01*
X60651637Y-40400000D01*
X60646397Y-40400330D01*
X60352017Y-40437519D01*
X60346834Y-40438508D01*
X60059452Y-40512295D01*
X60054433Y-40513926D01*
X59778566Y-40623149D01*
X59773796Y-40625393D01*
X59513788Y-40768334D01*
X59509333Y-40771162D01*
X59298548Y-40924306D01*
X59291796Y-40934316D01*
X58701998Y-40934316D01*
X58702255Y-40934059D01*
X70765677Y-33969229D01*
X81224888Y-33969229D01*
X81238958Y-34183891D01*
X81291911Y-34392395D01*
X81381974Y-34587757D01*
X81506131Y-34763436D01*
X81660224Y-34913547D01*
X81839093Y-35033063D01*
X82036746Y-35117981D01*
X82142007Y-35141799D01*
X82242808Y-35164608D01*
X82242809Y-35164608D01*
X82246565Y-35165458D01*
X82368982Y-35170268D01*
X82457673Y-35173753D01*
X82457676Y-35173753D01*
X82461522Y-35173904D01*
X82465328Y-35173352D01*
X82465331Y-35173352D01*
X82534641Y-35163302D01*
X82674419Y-35143035D01*
X82678058Y-35141800D01*
X82678061Y-35141799D01*
X82874475Y-35075125D01*
X82878125Y-35073886D01*
X83065819Y-34968773D01*
X83231215Y-34831215D01*
X83368773Y-34665819D01*
X83473886Y-34478125D01*
X83501800Y-34395893D01*
X83541799Y-34278061D01*
X83541800Y-34278058D01*
X83543035Y-34274419D01*
X83573904Y-34061522D01*
X83575515Y-34000000D01*
X83555831Y-33785779D01*
X83497438Y-33578733D01*
X83495735Y-33575279D01*
X83403998Y-33389255D01*
X83403994Y-33389249D01*
X83402291Y-33385795D01*
X83273578Y-33213427D01*
X83161060Y-33109416D01*
X83118432Y-33070011D01*
X83118429Y-33070009D01*
X83115608Y-33067401D01*
X83112361Y-33065352D01*
X83112358Y-33065350D01*
X82936924Y-32954659D01*
X82936922Y-32954658D01*
X82933673Y-32952608D01*
X82793648Y-32896744D01*
X82737439Y-32874319D01*
X82737436Y-32874318D01*
X82733864Y-32872893D01*
X82522875Y-32830925D01*
X82408557Y-32829428D01*
X82311618Y-32828159D01*
X82311614Y-32828159D01*
X82307770Y-32828109D01*
X82095754Y-32864540D01*
X81893928Y-32938997D01*
X81890620Y-32940965D01*
X81867603Y-32954659D01*
X81709050Y-33048988D01*
X81547312Y-33190829D01*
X81529497Y-33213427D01*
X81419883Y-33352472D01*
X81414130Y-33359769D01*
X81412340Y-33363172D01*
X81412337Y-33363176D01*
X81385610Y-33413976D01*
X81313966Y-33550150D01*
X81305091Y-33578733D01*
X81253185Y-33745898D01*
X81250173Y-33755597D01*
X81224888Y-33969229D01*
X70765677Y-33969229D01*
X77131017Y-30294193D01*
X79374697Y-30294193D01*
X79392172Y-30427828D01*
X79446451Y-30551187D01*
X79533172Y-30654353D01*
X79538154Y-30657669D01*
X79640381Y-30725718D01*
X79640384Y-30725720D01*
X79645362Y-30729033D01*
X79651074Y-30730818D01*
X79651075Y-30730818D01*
X79768291Y-30767439D01*
X79768293Y-30767439D01*
X79774002Y-30769223D01*
X79779980Y-30769333D01*
X79779983Y-30769333D01*
X79848192Y-30770583D01*
X79908752Y-30771693D01*
X79924356Y-30767439D01*
X80033007Y-30737818D01*
X80033009Y-30737817D01*
X80038779Y-30736244D01*
X80153631Y-30665725D01*
X80244073Y-30565806D01*
X80248938Y-30555766D01*
X80274237Y-30503547D01*
X80315465Y-30463524D01*
X80372774Y-30459366D01*
X80419348Y-30493017D01*
X80426718Y-30506341D01*
X80446451Y-30551187D01*
X80533172Y-30654353D01*
X80538154Y-30657669D01*
X80640381Y-30725718D01*
X80640384Y-30725720D01*
X80645362Y-30729033D01*
X80651074Y-30730818D01*
X80651075Y-30730818D01*
X80768291Y-30767439D01*
X80768293Y-30767439D01*
X80774002Y-30769223D01*
X80779980Y-30769333D01*
X80779983Y-30769333D01*
X80848192Y-30770583D01*
X80908752Y-30771693D01*
X80924356Y-30767439D01*
X81033007Y-30737818D01*
X81033009Y-30737817D01*
X81038779Y-30736244D01*
X81153631Y-30665725D01*
X81244073Y-30565806D01*
X81248938Y-30555766D01*
X81274237Y-30503547D01*
X81315465Y-30463524D01*
X81372774Y-30459366D01*
X81419348Y-30493017D01*
X81426718Y-30506341D01*
X81446451Y-30551187D01*
X81533172Y-30654353D01*
X81538154Y-30657669D01*
X81640381Y-30725718D01*
X81640384Y-30725720D01*
X81645362Y-30729033D01*
X81651074Y-30730818D01*
X81651075Y-30730818D01*
X81768291Y-30767439D01*
X81768293Y-30767439D01*
X81774002Y-30769223D01*
X81779980Y-30769333D01*
X81779983Y-30769333D01*
X81848192Y-30770583D01*
X81908752Y-30771693D01*
X81924356Y-30767439D01*
X82033007Y-30737818D01*
X82033009Y-30737817D01*
X82038779Y-30736244D01*
X82153631Y-30665725D01*
X82244073Y-30565806D01*
X82248938Y-30555766D01*
X82274237Y-30503547D01*
X82315465Y-30463524D01*
X82372774Y-30459366D01*
X82419348Y-30493017D01*
X82426718Y-30506341D01*
X82446451Y-30551187D01*
X82533172Y-30654353D01*
X82538154Y-30657669D01*
X82640381Y-30725718D01*
X82640384Y-30725720D01*
X82645362Y-30729033D01*
X82651074Y-30730818D01*
X82651075Y-30730818D01*
X82768291Y-30767439D01*
X82768293Y-30767439D01*
X82774002Y-30769223D01*
X82779980Y-30769333D01*
X82779983Y-30769333D01*
X82848192Y-30770583D01*
X82908752Y-30771693D01*
X82924356Y-30767439D01*
X83033007Y-30737818D01*
X83033009Y-30737817D01*
X83038779Y-30736244D01*
X83153631Y-30665725D01*
X83244073Y-30565806D01*
X83248938Y-30555766D01*
X83274237Y-30503547D01*
X83315465Y-30463524D01*
X83372774Y-30459366D01*
X83419348Y-30493017D01*
X83426718Y-30506341D01*
X83446451Y-30551187D01*
X83533172Y-30654353D01*
X83538154Y-30657669D01*
X83640381Y-30725718D01*
X83640384Y-30725720D01*
X83645362Y-30729033D01*
X83651074Y-30730818D01*
X83651075Y-30730818D01*
X83768291Y-30767439D01*
X83768293Y-30767439D01*
X83774002Y-30769223D01*
X83779980Y-30769333D01*
X83779983Y-30769333D01*
X83848192Y-30770583D01*
X83908752Y-30771693D01*
X83924356Y-30767439D01*
X84033007Y-30737818D01*
X84033009Y-30737817D01*
X84038779Y-30736244D01*
X84153631Y-30665725D01*
X84244073Y-30565806D01*
X84248938Y-30555766D01*
X84300225Y-30449907D01*
X84302836Y-30444518D01*
X84325196Y-30311614D01*
X84325338Y-30300000D01*
X84324878Y-30296787D01*
X84307080Y-30172508D01*
X84307080Y-30172507D01*
X84306232Y-30166588D01*
X84250450Y-30043902D01*
X84162475Y-29941803D01*
X84156627Y-29938012D01*
X84054404Y-29871754D01*
X84054403Y-29871754D01*
X84049382Y-29868499D01*
X84001468Y-29854170D01*
X83925991Y-29831597D01*
X83925989Y-29831597D01*
X83920259Y-29829883D01*
X83914279Y-29829846D01*
X83914276Y-29829846D01*
X83851215Y-29829461D01*
X83785489Y-29829060D01*
X83655905Y-29866095D01*
X83541924Y-29938012D01*
X83452709Y-30039029D01*
X83450168Y-30044441D01*
X83426092Y-30095722D01*
X83385356Y-30136245D01*
X83328102Y-30141104D01*
X83281121Y-30108023D01*
X83273588Y-30094791D01*
X83252926Y-30049348D01*
X83250450Y-30043902D01*
X83162475Y-29941803D01*
X83156627Y-29938012D01*
X83054404Y-29871754D01*
X83054403Y-29871754D01*
X83049382Y-29868499D01*
X83001468Y-29854170D01*
X82925991Y-29831597D01*
X82925989Y-29831597D01*
X82920259Y-29829883D01*
X82914279Y-29829846D01*
X82914276Y-29829846D01*
X82851215Y-29829461D01*
X82785489Y-29829060D01*
X82655905Y-29866095D01*
X82541924Y-29938012D01*
X82452709Y-30039029D01*
X82450168Y-30044441D01*
X82426092Y-30095722D01*
X82385356Y-30136245D01*
X82328102Y-30141104D01*
X82281121Y-30108023D01*
X82273588Y-30094791D01*
X82252926Y-30049348D01*
X82250450Y-30043902D01*
X82162475Y-29941803D01*
X82156627Y-29938012D01*
X82054404Y-29871754D01*
X82054403Y-29871754D01*
X82049382Y-29868499D01*
X82001468Y-29854170D01*
X81925991Y-29831597D01*
X81925989Y-29831597D01*
X81920259Y-29829883D01*
X81914279Y-29829846D01*
X81914276Y-29829846D01*
X81851215Y-29829461D01*
X81785489Y-29829060D01*
X81655905Y-29866095D01*
X81541924Y-29938012D01*
X81452709Y-30039029D01*
X81450168Y-30044441D01*
X81426092Y-30095722D01*
X81385356Y-30136245D01*
X81328102Y-30141104D01*
X81281121Y-30108023D01*
X81273588Y-30094791D01*
X81252926Y-30049348D01*
X81250450Y-30043902D01*
X81162475Y-29941803D01*
X81156627Y-29938012D01*
X81054404Y-29871754D01*
X81054403Y-29871754D01*
X81049382Y-29868499D01*
X81001468Y-29854170D01*
X80925991Y-29831597D01*
X80925989Y-29831597D01*
X80920259Y-29829883D01*
X80914279Y-29829846D01*
X80914276Y-29829846D01*
X80851215Y-29829461D01*
X80785489Y-29829060D01*
X80655905Y-29866095D01*
X80541924Y-29938012D01*
X80452709Y-30039029D01*
X80450168Y-30044441D01*
X80426092Y-30095722D01*
X80385356Y-30136245D01*
X80328102Y-30141104D01*
X80281121Y-30108023D01*
X80273588Y-30094791D01*
X80252926Y-30049348D01*
X80250450Y-30043902D01*
X80162475Y-29941803D01*
X80156627Y-29938012D01*
X80054404Y-29871754D01*
X80054403Y-29871754D01*
X80049382Y-29868499D01*
X80001468Y-29854170D01*
X79925991Y-29831597D01*
X79925989Y-29831597D01*
X79920259Y-29829883D01*
X79914279Y-29829846D01*
X79914276Y-29829846D01*
X79851215Y-29829461D01*
X79785489Y-29829060D01*
X79655905Y-29866095D01*
X79541924Y-29938012D01*
X79452709Y-30039029D01*
X79395432Y-30161025D01*
X79374697Y-30294193D01*
X77131017Y-30294193D01*
X85155521Y-25661237D01*
X85197519Y-25649983D01*
X85700040Y-25649984D01*
G37*
%TD.AperFunction*%
%TD*%
M02*
