%TF.GenerationSoftware,KiCad,Pcbnew,(6.0.5-0)*%
%TF.CreationDate,2022-06-15T10:42:45+02:00*%
%TF.ProjectId,speaker,73706561-6b65-4722-9e6b-696361645f70,rev?*%
%TF.SameCoordinates,Original*%
%TF.FileFunction,Soldermask,Top*%
%TF.FilePolarity,Negative*%
%FSLAX46Y46*%
G04 Gerber Fmt 4.6, Leading zero omitted, Abs format (unit mm)*
G04 Created by KiCad (PCBNEW (6.0.5-0)) date 2022-06-15 10:42:45*
%MOMM*%
%LPD*%
G01*
G04 APERTURE LIST*
%TA.AperFunction,Profile*%
%ADD10C,0.088304*%
%TD*%
%ADD11C,2.000000*%
%ADD12C,2.600000*%
%ADD13C,3.800000*%
G04 APERTURE END LIST*
D10*
X57987239Y-73149866D02*
X85700040Y-89150019D01*
X85700040Y-25149982D02*
X57987239Y-41149998D01*
X85700040Y-25149982D02*
X85700040Y-25149982D01*
X57987239Y-73149866D02*
X57987239Y-73149866D01*
X85700040Y-89150019D02*
X113412761Y-73149866D01*
X57987239Y-41149998D02*
X57987239Y-41149998D01*
X113412761Y-41149998D02*
X85700040Y-25149982D01*
X113412761Y-41149998D02*
X113412761Y-41149998D01*
X57987239Y-41149998D02*
X57987239Y-73149866D01*
X113412761Y-73149866D02*
X113412761Y-41149998D01*
X113412761Y-73149866D02*
X113412761Y-73149866D01*
D11*
%TO.C,M15*%
X94900000Y-59950000D03*
X94900000Y-64950000D03*
%TD*%
%TO.C,M6*%
X94900000Y-70600000D03*
X94900000Y-75600000D03*
%TD*%
%TO.C,M7*%
X85700000Y-75950000D03*
X85700000Y-80950000D03*
%TD*%
%TO.C,M11*%
X67300000Y-44000000D03*
X67300000Y-49000000D03*
%TD*%
%TO.C,M12*%
X76450000Y-38650000D03*
X76450000Y-43650000D03*
%TD*%
%TO.C,M9*%
X67300000Y-65300000D03*
X67300000Y-70300000D03*
%TD*%
%TO.C,M19*%
X85700000Y-54650000D03*
X85700000Y-59650000D03*
%TD*%
%TO.C,M5*%
X104100000Y-65300000D03*
X104100000Y-70300000D03*
%TD*%
%TO.C,M1*%
X85700000Y-33350000D03*
X85700000Y-38350000D03*
%TD*%
%TO.C,M14*%
X94900000Y-49300000D03*
X94900000Y-54300000D03*
%TD*%
%TO.C,M8*%
X76500000Y-70600000D03*
X76500000Y-75600000D03*
%TD*%
%TO.C,M16*%
X85700000Y-65300000D03*
X85700000Y-70300000D03*
%TD*%
%TO.C,M13*%
X85700000Y-44000000D03*
X85700000Y-49000000D03*
%TD*%
%TO.C,M4*%
X104100000Y-54650000D03*
X104100000Y-59650000D03*
%TD*%
%TO.C,M3*%
X104100000Y-44000000D03*
X104100000Y-49000000D03*
%TD*%
%TO.C,M2*%
X94850000Y-38650000D03*
X94850000Y-43650000D03*
%TD*%
%TO.C,M10*%
X67300000Y-54650000D03*
X67300000Y-59650000D03*
%TD*%
%TO.C,M17*%
X76500000Y-59950000D03*
X76500000Y-64950000D03*
%TD*%
%TO.C,M18*%
X76500000Y-49300000D03*
X76500000Y-54300000D03*
%TD*%
%TO.C,TP3*%
X90800000Y-67900000D03*
%TD*%
%TO.C,TP2*%
X71100000Y-54650000D03*
%TD*%
%TO.C,TP1*%
X82400000Y-34000000D03*
%TD*%
D12*
%TO.C,H1*%
X60800000Y-42800000D03*
D13*
X60800000Y-42800000D03*
%TD*%
D12*
%TO.C,H2*%
X60800000Y-71500000D03*
D13*
X60800000Y-71500000D03*
%TD*%
D12*
%TO.C,H4*%
X110600000Y-42800000D03*
D13*
X110600000Y-42800000D03*
%TD*%
%TO.C,H3*%
X110600000Y-71500000D03*
D12*
X110600000Y-71500000D03*
%TD*%
M02*
