%TF.GenerationSoftware,KiCad,Pcbnew,(6.0.5-0)*%
%TF.CreationDate,2022-06-15T09:27:56+02:00*%
%TF.ProjectId,speaker,73706561-6b65-4722-9e6b-696361645f70,rev?*%
%TF.SameCoordinates,Original*%
%TF.FileFunction,Copper,L3,Inr*%
%TF.FilePolarity,Positive*%
%FSLAX46Y46*%
G04 Gerber Fmt 4.6, Leading zero omitted, Abs format (unit mm)*
G04 Created by KiCad (PCBNEW (6.0.5-0)) date 2022-06-15 09:27:56*
%MOMM*%
%LPD*%
G01*
G04 APERTURE LIST*
%TA.AperFunction,Profile*%
%ADD10C,0.088304*%
%TD*%
%TA.AperFunction,ComponentPad*%
%ADD11C,2.000000*%
%TD*%
%TA.AperFunction,ComponentPad*%
%ADD12C,2.600000*%
%TD*%
%TA.AperFunction,ViaPad*%
%ADD13C,0.685800*%
%TD*%
%TA.AperFunction,ViaPad*%
%ADD14C,0.600000*%
%TD*%
G04 APERTURE END LIST*
D10*
X57987239Y-73149866D02*
X85700040Y-89150019D01*
X85700040Y-25149982D02*
X57987239Y-41149998D01*
X85700040Y-25149982D02*
X85700040Y-25149982D01*
X57987239Y-73149866D02*
X57987239Y-73149866D01*
X85700040Y-89150019D02*
X113412761Y-73149866D01*
X57987239Y-41149998D02*
X57987239Y-41149998D01*
X113412761Y-41149998D02*
X85700040Y-25149982D01*
X113412761Y-41149998D02*
X113412761Y-41149998D01*
X57987239Y-41149998D02*
X57987239Y-73149866D01*
X113412761Y-73149866D02*
X113412761Y-41149998D01*
X113412761Y-73149866D02*
X113412761Y-73149866D01*
D11*
%TO.N,/Trancducer Sig*%
%TO.C,M15*%
X94900000Y-59950000D03*
%TO.N,GND*%
X94900000Y-64950000D03*
%TD*%
%TO.N,/Trancducer Sig*%
%TO.C,M6*%
X94900000Y-70600000D03*
%TO.N,GND*%
X94900000Y-75600000D03*
%TD*%
%TO.N,/Trancducer Sig*%
%TO.C,M7*%
X85700000Y-75950000D03*
%TO.N,GND*%
X85700000Y-80950000D03*
%TD*%
%TO.N,/Trancducer Sig*%
%TO.C,M11*%
X67300000Y-44000000D03*
%TO.N,GND*%
X67300000Y-49000000D03*
%TD*%
%TO.N,/Trancducer Sig*%
%TO.C,M12*%
X76450000Y-38650000D03*
%TO.N,GND*%
X76450000Y-43650000D03*
%TD*%
%TO.N,/Trancducer Sig*%
%TO.C,M9*%
X67300000Y-65300000D03*
%TO.N,GND*%
X67300000Y-70300000D03*
%TD*%
%TO.N,/Trancducer Sig*%
%TO.C,M19*%
X85700000Y-54650000D03*
%TO.N,GND*%
X85700000Y-59650000D03*
%TD*%
%TO.N,/Trancducer Sig*%
%TO.C,M5*%
X104100000Y-65300000D03*
%TO.N,GND*%
X104100000Y-70300000D03*
%TD*%
%TO.N,/Trancducer Sig*%
%TO.C,M1*%
X85700000Y-33350000D03*
%TO.N,GND*%
X85700000Y-38350000D03*
%TD*%
%TO.N,/Trancducer Sig*%
%TO.C,M14*%
X94900000Y-49300000D03*
%TO.N,GND*%
X94900000Y-54300000D03*
%TD*%
%TO.N,/Trancducer Sig*%
%TO.C,M8*%
X76500000Y-70600000D03*
%TO.N,GND*%
X76500000Y-75600000D03*
%TD*%
%TO.N,/Trancducer Sig*%
%TO.C,M16*%
X85700000Y-65300000D03*
%TO.N,GND*%
X85700000Y-70300000D03*
%TD*%
%TO.N,/Trancducer Sig*%
%TO.C,M13*%
X85700000Y-44000000D03*
%TO.N,GND*%
X85700000Y-49000000D03*
%TD*%
%TO.N,/Trancducer Sig*%
%TO.C,M4*%
X104100000Y-54650000D03*
%TO.N,GND*%
X104100000Y-59650000D03*
%TD*%
%TO.N,/Trancducer Sig*%
%TO.C,M3*%
X104100000Y-44000000D03*
%TO.N,GND*%
X104100000Y-49000000D03*
%TD*%
%TO.N,/Trancducer Sig*%
%TO.C,M2*%
X94850000Y-38650000D03*
%TO.N,GND*%
X94850000Y-43650000D03*
%TD*%
%TO.N,/Trancducer Sig*%
%TO.C,M10*%
X67300000Y-54650000D03*
%TO.N,GND*%
X67300000Y-59650000D03*
%TD*%
%TO.N,/Trancducer Sig*%
%TO.C,M17*%
X76500000Y-59950000D03*
%TO.N,GND*%
X76500000Y-64950000D03*
%TD*%
%TO.N,/Trancducer Sig*%
%TO.C,M18*%
X76500000Y-49300000D03*
%TO.N,GND*%
X76500000Y-54300000D03*
%TD*%
%TO.N,/Audio Sig*%
%TO.C,TP3*%
X90800000Y-67900000D03*
%TD*%
%TO.N,/Trancducer Sig*%
%TO.C,TP2*%
X71100000Y-54650000D03*
%TD*%
%TO.N,+24V*%
%TO.C,TP1*%
X82400000Y-34000000D03*
%TD*%
D12*
%TO.N,GND*%
%TO.C,H1*%
X60800000Y-42800000D03*
%TD*%
%TO.N,GND*%
%TO.C,H2*%
X60800000Y-71500000D03*
%TD*%
%TO.N,GND*%
%TO.C,H4*%
X110600000Y-42800000D03*
%TD*%
%TO.N,GND*%
%TO.C,H3*%
X110600000Y-71500000D03*
%TD*%
D13*
%TO.N,+5V*%
X98200000Y-58100000D03*
D14*
X93100000Y-40900000D03*
D13*
X99250000Y-58100000D03*
X84537500Y-74462500D03*
D14*
X94900000Y-40900000D03*
D13*
X97150000Y-58100000D03*
D14*
X94000000Y-40900000D03*
X93100000Y-32200000D03*
D13*
X97800000Y-69450000D03*
D14*
X95800000Y-40900000D03*
%TO.N,GND*%
X85350000Y-40250000D03*
D13*
X80500000Y-59450000D03*
D14*
X73600000Y-33550000D03*
X86300000Y-41150000D03*
D13*
X72600000Y-51900000D03*
X74150000Y-71600000D03*
X80500000Y-54750000D03*
X88700000Y-76650000D03*
X81400000Y-69900000D03*
X87050000Y-51950000D03*
D14*
X74550000Y-32700000D03*
D13*
X74050000Y-66650000D03*
D14*
X85350000Y-41150000D03*
D13*
X72600000Y-59000000D03*
X79850000Y-72950000D03*
X87400000Y-76650000D03*
D14*
X91700000Y-56400000D03*
X86300000Y-40250000D03*
D13*
X83150000Y-63200000D03*
D14*
X73600000Y-35050000D03*
%TO.N,+24V*%
X83850000Y-30300000D03*
D13*
X80000000Y-51400000D03*
D14*
X80850000Y-30300000D03*
D13*
X86650000Y-61350000D03*
D14*
X82850000Y-30300000D03*
D13*
X69450000Y-64350000D03*
D14*
X79850000Y-30300000D03*
D13*
X81000000Y-51400000D03*
D14*
X81850000Y-30300000D03*
D13*
%TO.N,/CS*%
X72218933Y-79450000D03*
X59945000Y-60795000D03*
X63500000Y-70750000D03*
X92900000Y-77300000D03*
X65300000Y-40000000D03*
X90750000Y-79450000D03*
%TO.N,/SCL*%
X91530000Y-77280000D03*
X72600000Y-74550000D03*
%TO.N,/SDA*%
X111455000Y-62595000D03*
X111450000Y-49150000D03*
X98246728Y-78703272D03*
X107200000Y-72300000D03*
%TO.N,Net-(C10-Pad1)*%
X78950000Y-59037500D03*
X82750000Y-57100000D03*
%TD*%
%TA.AperFunction,Conductor*%
%TO.N,GND*%
G36*
X85700040Y-25649984D02*
G01*
X86202559Y-25649984D01*
X86244559Y-25661238D01*
X102667442Y-35143035D01*
X112638977Y-40900128D01*
X112697745Y-40934058D01*
X112728491Y-40964804D01*
X113231007Y-41835190D01*
X113242261Y-41877189D01*
X113242261Y-72422675D01*
X113231007Y-72464675D01*
X112728492Y-73335062D01*
X112697746Y-73365808D01*
X109819485Y-75027594D01*
X86244558Y-88638760D01*
X86202558Y-88650014D01*
X85700040Y-88650015D01*
X85197521Y-88650015D01*
X85155522Y-88638761D01*
X73962008Y-82176118D01*
X84833275Y-82176118D01*
X84834624Y-82181150D01*
X84839660Y-82184676D01*
X85046676Y-82305647D01*
X85052867Y-82308613D01*
X85276857Y-82394147D01*
X85283456Y-82396064D01*
X85518412Y-82443867D01*
X85525224Y-82444679D01*
X85764841Y-82453466D01*
X85771692Y-82453155D01*
X86009520Y-82422688D01*
X86016236Y-82421260D01*
X86245882Y-82352363D01*
X86252294Y-82349850D01*
X86467600Y-82244373D01*
X86473507Y-82240852D01*
X86557048Y-82181262D01*
X86563888Y-82171309D01*
X86563476Y-82167029D01*
X85710473Y-81314026D01*
X85699530Y-81308923D01*
X85692836Y-81310717D01*
X84838378Y-82165175D01*
X84833275Y-82176118D01*
X73962008Y-82176118D01*
X71780598Y-80916668D01*
X84195506Y-80916668D01*
X84209309Y-81156041D01*
X84210264Y-81162832D01*
X84262977Y-81396740D01*
X84265030Y-81403292D01*
X84355233Y-81625434D01*
X84358335Y-81631576D01*
X84467068Y-81809011D01*
X84476518Y-81816528D01*
X84479515Y-81816449D01*
X84480918Y-81815529D01*
X85335974Y-80960473D01*
X85340639Y-80950470D01*
X86058923Y-80950470D01*
X86060717Y-80957164D01*
X86912200Y-81808647D01*
X86923143Y-81813750D01*
X86927340Y-81812625D01*
X86988149Y-81728001D01*
X86991684Y-81722118D01*
X87097919Y-81507167D01*
X87100447Y-81500780D01*
X87170146Y-81271376D01*
X87171600Y-81264652D01*
X87203052Y-81025740D01*
X87203398Y-81021297D01*
X87205087Y-80952227D01*
X87204959Y-80947783D01*
X87185212Y-80707597D01*
X87184091Y-80700833D01*
X87125682Y-80468293D01*
X87123465Y-80461779D01*
X87027862Y-80241909D01*
X87024612Y-80235847D01*
X86931741Y-80092291D01*
X86922112Y-80085008D01*
X86918567Y-80085187D01*
X86917951Y-80085602D01*
X86064026Y-80939527D01*
X86058923Y-80950470D01*
X85340639Y-80950470D01*
X85341077Y-80949530D01*
X85339283Y-80942836D01*
X84487613Y-80091166D01*
X84476670Y-80086063D01*
X84472762Y-80087111D01*
X84393232Y-80203698D01*
X84389837Y-80209674D01*
X84288887Y-80427152D01*
X84286514Y-80433601D01*
X84222441Y-80664639D01*
X84221152Y-80671400D01*
X84195675Y-80909794D01*
X84195506Y-80916668D01*
X71780598Y-80916668D01*
X69229304Y-79443663D01*
X71700293Y-79443663D01*
X71701069Y-79449597D01*
X71701069Y-79449598D01*
X71717964Y-79578797D01*
X71719361Y-79589483D01*
X71778589Y-79724090D01*
X71782438Y-79728669D01*
X71782440Y-79728672D01*
X71869364Y-79832080D01*
X71869366Y-79832082D01*
X71873217Y-79836663D01*
X71995636Y-79918152D01*
X72136006Y-79962007D01*
X72141983Y-79962117D01*
X72141986Y-79962117D01*
X72216460Y-79963482D01*
X72283042Y-79964702D01*
X72288814Y-79963128D01*
X72288817Y-79963128D01*
X72419152Y-79927594D01*
X72419153Y-79927594D01*
X72424925Y-79926020D01*
X72430023Y-79922890D01*
X72430025Y-79922889D01*
X72545149Y-79852202D01*
X72545150Y-79852201D01*
X72550248Y-79849071D01*
X72554261Y-79844637D01*
X72554264Y-79844635D01*
X72644924Y-79744475D01*
X72648937Y-79740042D01*
X72654676Y-79728198D01*
X84835781Y-79728198D01*
X84836336Y-79732783D01*
X85689527Y-80585974D01*
X85700470Y-80591077D01*
X85707164Y-80589283D01*
X86559994Y-79736453D01*
X86565097Y-79725510D01*
X86563815Y-79720726D01*
X86535633Y-79698469D01*
X86529918Y-79694672D01*
X86320010Y-79578797D01*
X86313743Y-79575980D01*
X86087733Y-79495945D01*
X86081085Y-79494189D01*
X85845042Y-79452144D01*
X85838200Y-79451497D01*
X85598452Y-79448567D01*
X85591597Y-79449047D01*
X85354595Y-79485313D01*
X85347911Y-79486906D01*
X85120007Y-79561396D01*
X85113681Y-79564055D01*
X84901006Y-79674767D01*
X84895188Y-79678431D01*
X84842374Y-79718084D01*
X84835781Y-79728198D01*
X72654676Y-79728198D01*
X72710450Y-79613081D01*
X72713059Y-79607696D01*
X72737457Y-79462672D01*
X72737612Y-79450000D01*
X72737152Y-79446787D01*
X72736705Y-79443663D01*
X90231360Y-79443663D01*
X90232136Y-79449597D01*
X90232136Y-79449598D01*
X90249031Y-79578797D01*
X90250428Y-79589483D01*
X90309656Y-79724090D01*
X90313505Y-79728669D01*
X90313507Y-79728672D01*
X90400431Y-79832080D01*
X90400433Y-79832082D01*
X90404284Y-79836663D01*
X90526703Y-79918152D01*
X90667073Y-79962007D01*
X90673050Y-79962117D01*
X90673053Y-79962117D01*
X90747527Y-79963482D01*
X90814109Y-79964702D01*
X90819881Y-79963128D01*
X90819884Y-79963128D01*
X90950219Y-79927594D01*
X90950220Y-79927594D01*
X90955992Y-79926020D01*
X90961090Y-79922890D01*
X90961092Y-79922889D01*
X91076216Y-79852202D01*
X91076217Y-79852201D01*
X91081315Y-79849071D01*
X91085328Y-79844637D01*
X91085331Y-79844635D01*
X91175991Y-79744475D01*
X91180004Y-79740042D01*
X91185743Y-79728198D01*
X91241517Y-79613081D01*
X91244126Y-79607696D01*
X91268524Y-79462672D01*
X91268679Y-79450000D01*
X91268219Y-79446787D01*
X91248679Y-79310344D01*
X91248679Y-79310343D01*
X91247831Y-79304424D01*
X91186962Y-79170551D01*
X91090967Y-79059142D01*
X91079662Y-79051814D01*
X90972583Y-78982410D01*
X90967561Y-78979155D01*
X90961831Y-78977441D01*
X90961828Y-78977440D01*
X90832398Y-78938732D01*
X90832396Y-78938732D01*
X90826666Y-78937018D01*
X90820686Y-78936981D01*
X90820683Y-78936981D01*
X90751318Y-78936558D01*
X90679607Y-78936120D01*
X90538208Y-78976532D01*
X90413834Y-79055006D01*
X90316484Y-79165233D01*
X90253985Y-79298353D01*
X90253065Y-79304264D01*
X90253064Y-79304266D01*
X90252118Y-79310344D01*
X90231360Y-79443663D01*
X72736705Y-79443663D01*
X72717612Y-79310344D01*
X72717612Y-79310343D01*
X72716764Y-79304424D01*
X72655895Y-79170551D01*
X72559900Y-79059142D01*
X72548595Y-79051814D01*
X72441516Y-78982410D01*
X72436494Y-78979155D01*
X72430764Y-78977441D01*
X72430761Y-78977440D01*
X72301331Y-78938732D01*
X72301329Y-78938732D01*
X72295599Y-78937018D01*
X72289619Y-78936981D01*
X72289616Y-78936981D01*
X72220251Y-78936558D01*
X72148540Y-78936120D01*
X72007141Y-78976532D01*
X71882767Y-79055006D01*
X71785417Y-79165233D01*
X71722918Y-79298353D01*
X71721998Y-79304264D01*
X71721997Y-79304266D01*
X71721051Y-79310344D01*
X71700293Y-79443663D01*
X69229304Y-79443663D01*
X67935946Y-78696935D01*
X97728088Y-78696935D01*
X97747156Y-78842755D01*
X97806384Y-78977362D01*
X97810233Y-78981941D01*
X97810235Y-78981944D01*
X97897159Y-79085352D01*
X97897161Y-79085354D01*
X97901012Y-79089935D01*
X98023431Y-79171424D01*
X98029141Y-79173208D01*
X98038593Y-79176161D01*
X98163801Y-79215279D01*
X98169778Y-79215389D01*
X98169781Y-79215389D01*
X98244255Y-79216754D01*
X98310837Y-79217974D01*
X98316609Y-79216400D01*
X98316612Y-79216400D01*
X98446947Y-79180866D01*
X98446948Y-79180866D01*
X98452720Y-79179292D01*
X98457818Y-79176162D01*
X98457820Y-79176161D01*
X98572944Y-79105474D01*
X98572945Y-79105473D01*
X98578043Y-79102343D01*
X98582056Y-79097909D01*
X98582059Y-79097907D01*
X98672719Y-78997747D01*
X98676732Y-78993314D01*
X98683317Y-78979724D01*
X98738245Y-78866353D01*
X98740854Y-78860968D01*
X98765252Y-78715944D01*
X98765407Y-78703272D01*
X98764947Y-78700059D01*
X98745407Y-78563616D01*
X98745407Y-78563615D01*
X98744559Y-78557696D01*
X98683690Y-78423823D01*
X98587695Y-78312414D01*
X98576390Y-78305086D01*
X98469311Y-78235682D01*
X98464289Y-78232427D01*
X98458559Y-78230713D01*
X98458556Y-78230712D01*
X98329126Y-78192004D01*
X98329124Y-78192004D01*
X98323394Y-78190290D01*
X98317414Y-78190253D01*
X98317411Y-78190253D01*
X98248046Y-78189830D01*
X98176335Y-78189392D01*
X98034936Y-78229804D01*
X97910562Y-78308278D01*
X97813212Y-78418505D01*
X97750713Y-78551625D01*
X97749793Y-78557536D01*
X97749792Y-78557538D01*
X97748846Y-78563616D01*
X97728088Y-78696935D01*
X67935946Y-78696935D01*
X65470792Y-77273663D01*
X91011360Y-77273663D01*
X91030428Y-77419483D01*
X91089656Y-77554090D01*
X91093505Y-77558669D01*
X91093507Y-77558672D01*
X91180431Y-77662080D01*
X91180433Y-77662082D01*
X91184284Y-77666663D01*
X91306703Y-77748152D01*
X91447073Y-77792007D01*
X91453050Y-77792117D01*
X91453053Y-77792117D01*
X91527527Y-77793482D01*
X91594109Y-77794702D01*
X91599881Y-77793128D01*
X91599884Y-77793128D01*
X91730219Y-77757594D01*
X91730220Y-77757594D01*
X91735992Y-77756020D01*
X91741090Y-77752890D01*
X91741092Y-77752889D01*
X91856216Y-77682202D01*
X91856217Y-77682201D01*
X91861315Y-77679071D01*
X91865328Y-77674637D01*
X91865331Y-77674635D01*
X91941901Y-77590042D01*
X91960004Y-77570042D01*
X92017296Y-77451794D01*
X92021517Y-77443081D01*
X92024126Y-77437696D01*
X92048357Y-77293663D01*
X92381360Y-77293663D01*
X92382136Y-77299597D01*
X92382136Y-77299598D01*
X92399423Y-77431794D01*
X92400428Y-77439483D01*
X92459656Y-77574090D01*
X92463505Y-77578669D01*
X92463507Y-77578672D01*
X92550431Y-77682080D01*
X92550433Y-77682082D01*
X92554284Y-77686663D01*
X92676703Y-77768152D01*
X92817073Y-77812007D01*
X92823050Y-77812117D01*
X92823053Y-77812117D01*
X92897527Y-77813482D01*
X92964109Y-77814702D01*
X92969881Y-77813128D01*
X92969884Y-77813128D01*
X93100219Y-77777594D01*
X93100220Y-77777594D01*
X93105992Y-77776020D01*
X93111090Y-77772890D01*
X93111092Y-77772889D01*
X93226216Y-77702202D01*
X93226217Y-77702201D01*
X93231315Y-77699071D01*
X93235328Y-77694637D01*
X93235331Y-77694635D01*
X93325991Y-77594475D01*
X93330004Y-77590042D01*
X93337547Y-77574475D01*
X93391517Y-77463081D01*
X93394126Y-77457696D01*
X93418524Y-77312672D01*
X93418679Y-77300000D01*
X93418088Y-77295870D01*
X93398679Y-77160344D01*
X93398679Y-77160343D01*
X93397831Y-77154424D01*
X93336962Y-77020551D01*
X93240967Y-76909142D01*
X93229662Y-76901814D01*
X93122583Y-76832410D01*
X93117561Y-76829155D01*
X93111831Y-76827441D01*
X93111828Y-76827440D01*
X93107408Y-76826118D01*
X94033275Y-76826118D01*
X94034624Y-76831150D01*
X94039660Y-76834676D01*
X94246676Y-76955647D01*
X94252867Y-76958613D01*
X94476857Y-77044147D01*
X94483456Y-77046064D01*
X94718412Y-77093867D01*
X94725224Y-77094679D01*
X94964841Y-77103466D01*
X94971692Y-77103155D01*
X95209520Y-77072688D01*
X95216236Y-77071260D01*
X95445882Y-77002363D01*
X95452294Y-76999850D01*
X95667600Y-76894373D01*
X95673507Y-76890852D01*
X95757048Y-76831262D01*
X95763888Y-76821309D01*
X95763476Y-76817029D01*
X94910473Y-75964026D01*
X94899530Y-75958923D01*
X94892836Y-75960717D01*
X94038378Y-76815175D01*
X94033275Y-76826118D01*
X93107408Y-76826118D01*
X92982398Y-76788732D01*
X92982396Y-76788732D01*
X92976666Y-76787018D01*
X92970686Y-76786981D01*
X92970683Y-76786981D01*
X92901318Y-76786558D01*
X92829607Y-76786120D01*
X92823851Y-76787765D01*
X92755010Y-76807440D01*
X92688208Y-76826532D01*
X92563834Y-76905006D01*
X92466484Y-77015233D01*
X92463943Y-77020644D01*
X92463943Y-77020645D01*
X92462421Y-77023886D01*
X92403985Y-77148353D01*
X92403065Y-77154264D01*
X92403064Y-77154266D01*
X92402118Y-77160344D01*
X92381360Y-77293663D01*
X92048357Y-77293663D01*
X92048524Y-77292672D01*
X92048679Y-77280000D01*
X92048219Y-77276787D01*
X92028679Y-77140344D01*
X92028679Y-77140343D01*
X92027831Y-77134424D01*
X91966962Y-77000551D01*
X91870967Y-76889142D01*
X91859662Y-76881814D01*
X91752583Y-76812410D01*
X91747561Y-76809155D01*
X91741831Y-76807441D01*
X91741828Y-76807440D01*
X91612398Y-76768732D01*
X91612396Y-76768732D01*
X91606666Y-76767018D01*
X91600686Y-76766981D01*
X91600683Y-76766981D01*
X91531318Y-76766558D01*
X91459607Y-76766120D01*
X91453851Y-76767765D01*
X91383873Y-76787765D01*
X91318208Y-76806532D01*
X91193834Y-76885006D01*
X91096484Y-76995233D01*
X91093943Y-77000644D01*
X91093943Y-77000645D01*
X91091429Y-77005999D01*
X91033985Y-77128353D01*
X91033065Y-77134264D01*
X91033064Y-77134266D01*
X91029004Y-77160344D01*
X91011360Y-77273663D01*
X65470792Y-77273663D01*
X64695629Y-76826118D01*
X75633275Y-76826118D01*
X75634624Y-76831150D01*
X75639660Y-76834676D01*
X75846676Y-76955647D01*
X75852867Y-76958613D01*
X76076857Y-77044147D01*
X76083456Y-77046064D01*
X76318412Y-77093867D01*
X76325224Y-77094679D01*
X76564841Y-77103466D01*
X76571692Y-77103155D01*
X76809520Y-77072688D01*
X76816236Y-77071260D01*
X77045882Y-77002363D01*
X77052294Y-76999850D01*
X77267600Y-76894373D01*
X77273507Y-76890852D01*
X77357048Y-76831262D01*
X77363888Y-76821309D01*
X77363476Y-76817029D01*
X76510473Y-75964026D01*
X76499530Y-75958923D01*
X76492836Y-75960717D01*
X75638378Y-76815175D01*
X75633275Y-76826118D01*
X64695629Y-76826118D01*
X62514219Y-75566668D01*
X74995506Y-75566668D01*
X75009309Y-75806041D01*
X75010264Y-75812832D01*
X75062977Y-76046740D01*
X75065030Y-76053292D01*
X75155233Y-76275434D01*
X75158335Y-76281576D01*
X75267068Y-76459011D01*
X75276518Y-76466528D01*
X75279515Y-76466449D01*
X75280918Y-76465529D01*
X76135974Y-75610473D01*
X76140639Y-75600470D01*
X76858923Y-75600470D01*
X76860717Y-75607164D01*
X77712200Y-76458647D01*
X77723143Y-76463750D01*
X77727340Y-76462625D01*
X77788149Y-76378001D01*
X77791684Y-76372118D01*
X77897919Y-76157167D01*
X77900447Y-76150780D01*
X77970146Y-75921376D01*
X77970610Y-75919229D01*
X84524888Y-75919229D01*
X84538958Y-76133891D01*
X84591911Y-76342395D01*
X84681974Y-76537757D01*
X84806131Y-76713436D01*
X84808890Y-76716124D01*
X84808892Y-76716126D01*
X84861096Y-76766981D01*
X84960224Y-76863547D01*
X85139093Y-76983063D01*
X85239030Y-77025999D01*
X85285733Y-77046064D01*
X85336746Y-77067981D01*
X85442007Y-77091799D01*
X85542808Y-77114608D01*
X85542809Y-77114608D01*
X85546565Y-77115458D01*
X85668982Y-77120268D01*
X85757673Y-77123753D01*
X85757676Y-77123753D01*
X85761522Y-77123904D01*
X85765328Y-77123352D01*
X85765331Y-77123352D01*
X85834641Y-77113302D01*
X85974419Y-77093035D01*
X85978058Y-77091800D01*
X85978061Y-77091799D01*
X86174475Y-77025125D01*
X86178125Y-77023886D01*
X86365819Y-76918773D01*
X86531215Y-76781215D01*
X86668773Y-76615819D01*
X86773886Y-76428125D01*
X86801800Y-76345893D01*
X86841799Y-76228061D01*
X86841800Y-76228058D01*
X86843035Y-76224419D01*
X86873904Y-76011522D01*
X86875515Y-75950000D01*
X86855831Y-75735779D01*
X86808137Y-75566668D01*
X93395506Y-75566668D01*
X93409309Y-75806041D01*
X93410264Y-75812832D01*
X93462977Y-76046740D01*
X93465030Y-76053292D01*
X93555233Y-76275434D01*
X93558335Y-76281576D01*
X93667068Y-76459011D01*
X93676518Y-76466528D01*
X93679515Y-76466449D01*
X93680918Y-76465529D01*
X94535974Y-75610473D01*
X94540639Y-75600470D01*
X95258923Y-75600470D01*
X95260717Y-75607164D01*
X96112200Y-76458647D01*
X96123143Y-76463750D01*
X96127340Y-76462625D01*
X96188149Y-76378001D01*
X96191684Y-76372118D01*
X96297919Y-76157167D01*
X96300447Y-76150780D01*
X96370146Y-75921376D01*
X96371600Y-75914652D01*
X96403052Y-75675740D01*
X96403398Y-75671297D01*
X96405087Y-75602227D01*
X96404959Y-75597783D01*
X96385212Y-75357597D01*
X96384091Y-75350833D01*
X96325682Y-75118293D01*
X96323465Y-75111779D01*
X96227862Y-74891909D01*
X96224612Y-74885847D01*
X96131741Y-74742291D01*
X96122112Y-74735008D01*
X96118567Y-74735187D01*
X96117951Y-74735602D01*
X95264026Y-75589527D01*
X95258923Y-75600470D01*
X94540639Y-75600470D01*
X94541077Y-75599530D01*
X94539283Y-75592836D01*
X93687613Y-74741166D01*
X93676670Y-74736063D01*
X93672762Y-74737111D01*
X93593232Y-74853698D01*
X93589837Y-74859674D01*
X93488887Y-75077152D01*
X93486514Y-75083601D01*
X93422441Y-75314639D01*
X93421152Y-75321400D01*
X93395675Y-75559794D01*
X93395506Y-75566668D01*
X86808137Y-75566668D01*
X86797438Y-75528733D01*
X86795735Y-75525279D01*
X86703998Y-75339255D01*
X86703994Y-75339249D01*
X86702291Y-75335795D01*
X86573578Y-75163427D01*
X86487223Y-75083601D01*
X86418432Y-75020011D01*
X86418429Y-75020009D01*
X86415608Y-75017401D01*
X86412361Y-75015352D01*
X86412358Y-75015350D01*
X86236924Y-74904659D01*
X86236922Y-74904658D01*
X86233673Y-74902608D01*
X86099711Y-74849163D01*
X86037439Y-74824319D01*
X86037436Y-74824318D01*
X86033864Y-74822893D01*
X85822875Y-74780925D01*
X85708557Y-74779428D01*
X85611618Y-74778159D01*
X85611614Y-74778159D01*
X85607770Y-74778109D01*
X85395754Y-74814540D01*
X85193928Y-74888997D01*
X85190620Y-74890965D01*
X85048315Y-74975628D01*
X85009050Y-74998988D01*
X84847312Y-75140829D01*
X84714130Y-75309769D01*
X84712340Y-75313172D01*
X84712337Y-75313176D01*
X84619843Y-75488981D01*
X84613966Y-75500150D01*
X84605091Y-75528733D01*
X84559444Y-75675740D01*
X84550173Y-75705597D01*
X84524888Y-75919229D01*
X77970610Y-75919229D01*
X77971600Y-75914652D01*
X78003052Y-75675740D01*
X78003398Y-75671297D01*
X78005087Y-75602227D01*
X78004959Y-75597783D01*
X77985212Y-75357597D01*
X77984091Y-75350833D01*
X77925682Y-75118293D01*
X77923465Y-75111779D01*
X77827862Y-74891909D01*
X77824612Y-74885847D01*
X77731741Y-74742291D01*
X77722112Y-74735008D01*
X77718567Y-74735187D01*
X77717951Y-74735602D01*
X76864026Y-75589527D01*
X76858923Y-75600470D01*
X76140639Y-75600470D01*
X76141077Y-75599530D01*
X76139283Y-75592836D01*
X75287613Y-74741166D01*
X75276670Y-74736063D01*
X75272762Y-74737111D01*
X75193232Y-74853698D01*
X75189837Y-74859674D01*
X75088887Y-75077152D01*
X75086514Y-75083601D01*
X75022441Y-75314639D01*
X75021152Y-75321400D01*
X74995675Y-75559794D01*
X74995506Y-75566668D01*
X62514219Y-75566668D01*
X60742340Y-74543663D01*
X72081360Y-74543663D01*
X72100428Y-74689483D01*
X72159656Y-74824090D01*
X72163505Y-74828669D01*
X72163507Y-74828672D01*
X72250431Y-74932080D01*
X72250433Y-74932082D01*
X72254284Y-74936663D01*
X72376703Y-75018152D01*
X72517073Y-75062007D01*
X72523050Y-75062117D01*
X72523053Y-75062117D01*
X72597527Y-75063482D01*
X72664109Y-75064702D01*
X72669881Y-75063128D01*
X72669884Y-75063128D01*
X72800219Y-75027594D01*
X72800220Y-75027594D01*
X72805992Y-75026020D01*
X72811090Y-75022890D01*
X72811092Y-75022889D01*
X72926216Y-74952202D01*
X72926217Y-74952201D01*
X72931315Y-74949071D01*
X72935328Y-74944637D01*
X72935331Y-74944635D01*
X72992272Y-74881727D01*
X73030004Y-74840042D01*
X73042676Y-74813889D01*
X73091517Y-74713081D01*
X73094126Y-74707696D01*
X73108847Y-74620196D01*
X73117986Y-74565870D01*
X73118524Y-74562672D01*
X73118679Y-74550000D01*
X73118219Y-74546787D01*
X73098679Y-74410344D01*
X73098679Y-74410343D01*
X73097831Y-74404424D01*
X73085907Y-74378198D01*
X75635781Y-74378198D01*
X75636336Y-74382783D01*
X76489527Y-75235974D01*
X76500470Y-75241077D01*
X76507164Y-75239283D01*
X77290284Y-74456163D01*
X84018860Y-74456163D01*
X84019636Y-74462097D01*
X84019636Y-74462098D01*
X84033206Y-74565870D01*
X84037928Y-74601983D01*
X84097156Y-74736590D01*
X84101003Y-74741166D01*
X84101007Y-74741172D01*
X84187931Y-74844580D01*
X84187933Y-74844582D01*
X84191784Y-74849163D01*
X84314203Y-74930652D01*
X84454573Y-74974507D01*
X84460550Y-74974617D01*
X84460553Y-74974617D01*
X84535027Y-74975982D01*
X84601609Y-74977202D01*
X84607381Y-74975628D01*
X84607384Y-74975628D01*
X84737719Y-74940094D01*
X84737720Y-74940094D01*
X84743492Y-74938520D01*
X84748590Y-74935390D01*
X84748592Y-74935389D01*
X84863716Y-74864702D01*
X84863717Y-74864701D01*
X84868815Y-74861571D01*
X84872828Y-74857137D01*
X84872831Y-74857135D01*
X84941858Y-74780875D01*
X84967504Y-74752542D01*
X84974981Y-74737111D01*
X85029017Y-74625581D01*
X85031626Y-74620196D01*
X85040766Y-74565870D01*
X85055486Y-74478370D01*
X85056024Y-74475172D01*
X85056179Y-74462500D01*
X85055719Y-74459287D01*
X85044106Y-74378198D01*
X94035781Y-74378198D01*
X94036336Y-74382783D01*
X94889527Y-75235974D01*
X94900470Y-75241077D01*
X94907164Y-75239283D01*
X95759994Y-74386453D01*
X95765097Y-74375510D01*
X95763815Y-74370726D01*
X95735633Y-74348469D01*
X95729918Y-74344672D01*
X95520010Y-74228797D01*
X95513743Y-74225980D01*
X95287733Y-74145945D01*
X95281085Y-74144189D01*
X95045042Y-74102144D01*
X95038200Y-74101497D01*
X94798452Y-74098567D01*
X94791597Y-74099047D01*
X94554595Y-74135313D01*
X94547911Y-74136906D01*
X94320007Y-74211396D01*
X94313681Y-74214055D01*
X94101006Y-74324767D01*
X94095188Y-74328431D01*
X94042374Y-74368084D01*
X94035781Y-74378198D01*
X85044106Y-74378198D01*
X85036179Y-74322844D01*
X85036179Y-74322843D01*
X85035331Y-74316924D01*
X84974462Y-74183051D01*
X84878467Y-74071642D01*
X84867162Y-74064314D01*
X84760083Y-73994910D01*
X84755061Y-73991655D01*
X84749331Y-73989941D01*
X84749328Y-73989940D01*
X84619898Y-73951232D01*
X84619896Y-73951232D01*
X84614166Y-73949518D01*
X84608186Y-73949481D01*
X84608183Y-73949481D01*
X84538818Y-73949058D01*
X84467107Y-73948620D01*
X84325708Y-73989032D01*
X84201334Y-74067506D01*
X84103984Y-74177733D01*
X84041485Y-74310853D01*
X84040565Y-74316764D01*
X84040564Y-74316766D01*
X84038748Y-74328431D01*
X84018860Y-74456163D01*
X77290284Y-74456163D01*
X77359994Y-74386453D01*
X77365097Y-74375510D01*
X77363815Y-74370726D01*
X77335633Y-74348469D01*
X77329918Y-74344672D01*
X77120010Y-74228797D01*
X77113743Y-74225980D01*
X76887733Y-74145945D01*
X76881085Y-74144189D01*
X76645042Y-74102144D01*
X76638200Y-74101497D01*
X76398452Y-74098567D01*
X76391597Y-74099047D01*
X76154595Y-74135313D01*
X76147911Y-74136906D01*
X75920007Y-74211396D01*
X75913681Y-74214055D01*
X75701006Y-74324767D01*
X75695188Y-74328431D01*
X75642374Y-74368084D01*
X75635781Y-74378198D01*
X73085907Y-74378198D01*
X73036962Y-74270551D01*
X72940967Y-74159142D01*
X72929662Y-74151814D01*
X72822583Y-74082410D01*
X72817561Y-74079155D01*
X72811831Y-74077441D01*
X72811828Y-74077440D01*
X72682398Y-74038732D01*
X72682396Y-74038732D01*
X72676666Y-74037018D01*
X72670686Y-74036981D01*
X72670683Y-74036981D01*
X72601318Y-74036558D01*
X72529607Y-74036120D01*
X72388208Y-74076532D01*
X72263834Y-74155006D01*
X72166484Y-74265233D01*
X72103985Y-74398353D01*
X72103065Y-74404264D01*
X72103064Y-74404266D01*
X72102118Y-74410344D01*
X72081360Y-74543663D01*
X60742340Y-74543663D01*
X58702254Y-73365807D01*
X58671508Y-73335061D01*
X58442195Y-72937878D01*
X59721515Y-72937878D01*
X59722672Y-72942194D01*
X59840958Y-73028925D01*
X59846225Y-73032216D01*
X60077478Y-73153885D01*
X60083188Y-73156367D01*
X60329868Y-73242512D01*
X60335886Y-73244124D01*
X60592605Y-73292863D01*
X60598775Y-73293566D01*
X60859878Y-73303825D01*
X60866092Y-73303608D01*
X61125854Y-73275159D01*
X61131950Y-73274030D01*
X61384649Y-73207499D01*
X61390537Y-73205471D01*
X61630609Y-73102328D01*
X61636127Y-73099457D01*
X61858337Y-72961949D01*
X61863353Y-72958306D01*
X61874469Y-72948896D01*
X61880460Y-72938414D01*
X61880363Y-72937878D01*
X109521515Y-72937878D01*
X109522672Y-72942194D01*
X109640958Y-73028925D01*
X109646225Y-73032216D01*
X109877478Y-73153885D01*
X109883188Y-73156367D01*
X110129868Y-73242512D01*
X110135886Y-73244124D01*
X110392605Y-73292863D01*
X110398775Y-73293566D01*
X110659878Y-73303825D01*
X110666092Y-73303608D01*
X110925854Y-73275159D01*
X110931950Y-73274030D01*
X111184649Y-73207499D01*
X111190537Y-73205471D01*
X111430609Y-73102328D01*
X111436127Y-73099457D01*
X111658337Y-72961949D01*
X111663353Y-72958306D01*
X111674469Y-72948896D01*
X111680460Y-72938414D01*
X111679488Y-72933041D01*
X110610473Y-71864026D01*
X110599530Y-71858923D01*
X110592836Y-71860717D01*
X109526618Y-72926935D01*
X109521515Y-72937878D01*
X61880363Y-72937878D01*
X61879488Y-72933041D01*
X60810473Y-71864026D01*
X60799530Y-71858923D01*
X60792836Y-71860717D01*
X59726618Y-72926935D01*
X59721515Y-72937878D01*
X58442195Y-72937878D01*
X58168993Y-72464675D01*
X58157739Y-72422675D01*
X58157739Y-71455863D01*
X58995722Y-71455863D01*
X59008258Y-71716866D01*
X59009016Y-71723035D01*
X59059994Y-71979323D01*
X59061655Y-71985309D01*
X59149955Y-72231245D01*
X59152483Y-72236925D01*
X59276161Y-72467101D01*
X59279510Y-72472356D01*
X59353831Y-72571884D01*
X59363929Y-72578505D01*
X59368481Y-72577966D01*
X60435974Y-71510473D01*
X60440639Y-71500470D01*
X61158923Y-71500470D01*
X61160717Y-71507164D01*
X62230299Y-72576746D01*
X62241242Y-72581849D01*
X62245107Y-72580813D01*
X62384617Y-72363919D01*
X62387588Y-72358448D01*
X62416771Y-72293663D01*
X106681360Y-72293663D01*
X106682136Y-72299597D01*
X106682136Y-72299598D01*
X106689832Y-72358448D01*
X106700428Y-72439483D01*
X106759656Y-72574090D01*
X106763505Y-72578669D01*
X106763507Y-72578672D01*
X106850431Y-72682080D01*
X106850433Y-72682082D01*
X106854284Y-72686663D01*
X106976703Y-72768152D01*
X107117073Y-72812007D01*
X107123050Y-72812117D01*
X107123053Y-72812117D01*
X107197527Y-72813482D01*
X107264109Y-72814702D01*
X107269881Y-72813128D01*
X107269884Y-72813128D01*
X107400219Y-72777594D01*
X107400220Y-72777594D01*
X107405992Y-72776020D01*
X107411090Y-72772890D01*
X107411092Y-72772889D01*
X107526216Y-72702202D01*
X107526217Y-72702201D01*
X107531315Y-72699071D01*
X107535328Y-72694637D01*
X107535331Y-72694635D01*
X107625991Y-72594475D01*
X107630004Y-72590042D01*
X107634476Y-72580813D01*
X107691517Y-72463081D01*
X107694126Y-72457696D01*
X107718524Y-72312672D01*
X107718679Y-72300000D01*
X107718219Y-72296787D01*
X107698679Y-72160344D01*
X107698679Y-72160343D01*
X107697831Y-72154424D01*
X107636962Y-72020551D01*
X107540967Y-71909142D01*
X107529662Y-71901814D01*
X107422583Y-71832410D01*
X107417561Y-71829155D01*
X107411831Y-71827441D01*
X107411828Y-71827440D01*
X107282398Y-71788732D01*
X107282396Y-71788732D01*
X107276666Y-71787018D01*
X107270686Y-71786981D01*
X107270683Y-71786981D01*
X107201318Y-71786558D01*
X107129607Y-71786120D01*
X107123851Y-71787765D01*
X107070003Y-71803155D01*
X106988208Y-71826532D01*
X106863834Y-71905006D01*
X106766484Y-72015233D01*
X106703985Y-72148353D01*
X106703065Y-72154264D01*
X106703064Y-72154266D01*
X106702118Y-72160344D01*
X106681360Y-72293663D01*
X62416771Y-72293663D01*
X62494910Y-72120201D01*
X62497034Y-72114365D01*
X62567962Y-71862873D01*
X62569204Y-71856770D01*
X62602306Y-71596566D01*
X62602628Y-71592358D01*
X62604363Y-71526118D01*
X66433275Y-71526118D01*
X66434624Y-71531150D01*
X66439660Y-71534676D01*
X66646676Y-71655647D01*
X66652867Y-71658613D01*
X66876857Y-71744147D01*
X66883456Y-71746064D01*
X67118412Y-71793867D01*
X67125224Y-71794679D01*
X67364841Y-71803466D01*
X67371692Y-71803155D01*
X67609520Y-71772688D01*
X67616236Y-71771260D01*
X67845882Y-71702363D01*
X67852294Y-71699850D01*
X68067600Y-71594373D01*
X68073507Y-71590852D01*
X68157048Y-71531262D01*
X68163888Y-71521309D01*
X68163476Y-71517029D01*
X67310473Y-70664026D01*
X67299530Y-70658923D01*
X67292836Y-70660717D01*
X66438378Y-71515175D01*
X66433275Y-71526118D01*
X62604363Y-71526118D01*
X62604992Y-71502113D01*
X62604890Y-71497894D01*
X62585451Y-71236310D01*
X62584532Y-71230155D01*
X62526863Y-70975294D01*
X62525046Y-70969351D01*
X62437281Y-70743663D01*
X62981360Y-70743663D01*
X62982136Y-70749597D01*
X62982136Y-70749598D01*
X62997961Y-70870615D01*
X63000428Y-70889483D01*
X63059656Y-71024090D01*
X63063505Y-71028669D01*
X63063507Y-71028672D01*
X63150431Y-71132080D01*
X63150433Y-71132082D01*
X63154284Y-71136663D01*
X63276703Y-71218152D01*
X63417073Y-71262007D01*
X63423050Y-71262117D01*
X63423053Y-71262117D01*
X63497527Y-71263482D01*
X63564109Y-71264702D01*
X63569881Y-71263128D01*
X63569884Y-71263128D01*
X63700219Y-71227594D01*
X63700220Y-71227594D01*
X63705992Y-71226020D01*
X63711090Y-71222890D01*
X63711092Y-71222889D01*
X63826216Y-71152202D01*
X63826217Y-71152201D01*
X63831315Y-71149071D01*
X63835328Y-71144637D01*
X63835331Y-71144635D01*
X63895645Y-71078001D01*
X63930004Y-71040042D01*
X63951395Y-70995893D01*
X63991517Y-70913081D01*
X63994126Y-70907696D01*
X64018524Y-70762672D01*
X64018679Y-70750000D01*
X64018212Y-70746740D01*
X63998679Y-70610344D01*
X63998679Y-70610343D01*
X63997831Y-70604424D01*
X63936962Y-70470551D01*
X63840967Y-70359142D01*
X63829662Y-70351814D01*
X63722583Y-70282410D01*
X63717561Y-70279155D01*
X63711831Y-70277441D01*
X63711828Y-70277440D01*
X63675809Y-70266668D01*
X65795506Y-70266668D01*
X65809309Y-70506041D01*
X65810264Y-70512832D01*
X65862977Y-70746740D01*
X65865030Y-70753292D01*
X65955233Y-70975434D01*
X65958335Y-70981576D01*
X66067068Y-71159011D01*
X66076518Y-71166528D01*
X66079515Y-71166449D01*
X66080918Y-71165529D01*
X66935974Y-70310473D01*
X66940639Y-70300470D01*
X67658923Y-70300470D01*
X67660717Y-70307164D01*
X68512200Y-71158647D01*
X68523143Y-71163750D01*
X68527340Y-71162625D01*
X68588149Y-71078001D01*
X68591684Y-71072118D01*
X68697919Y-70857167D01*
X68700447Y-70850780D01*
X68770146Y-70621376D01*
X68771600Y-70614652D01*
X68777580Y-70569229D01*
X75324888Y-70569229D01*
X75338958Y-70783891D01*
X75391911Y-70992395D01*
X75481974Y-71187757D01*
X75606131Y-71363436D01*
X75760224Y-71513547D01*
X75939093Y-71633063D01*
X76136746Y-71717981D01*
X76159082Y-71723035D01*
X76342808Y-71764608D01*
X76342809Y-71764608D01*
X76346565Y-71765458D01*
X76468982Y-71770268D01*
X76557673Y-71773753D01*
X76557676Y-71773753D01*
X76561522Y-71773904D01*
X76565328Y-71773352D01*
X76565331Y-71773352D01*
X76634641Y-71763302D01*
X76774419Y-71743035D01*
X76778058Y-71741800D01*
X76778061Y-71741799D01*
X76974475Y-71675125D01*
X76978125Y-71673886D01*
X77165819Y-71568773D01*
X77217106Y-71526118D01*
X84833275Y-71526118D01*
X84834624Y-71531150D01*
X84839660Y-71534676D01*
X85046676Y-71655647D01*
X85052867Y-71658613D01*
X85276857Y-71744147D01*
X85283456Y-71746064D01*
X85518412Y-71793867D01*
X85525224Y-71794679D01*
X85764841Y-71803466D01*
X85771692Y-71803155D01*
X86009520Y-71772688D01*
X86016236Y-71771260D01*
X86245882Y-71702363D01*
X86252294Y-71699850D01*
X86467600Y-71594373D01*
X86473507Y-71590852D01*
X86557048Y-71531262D01*
X86563888Y-71521309D01*
X86563476Y-71517029D01*
X85710473Y-70664026D01*
X85699530Y-70658923D01*
X85692836Y-70660717D01*
X84838378Y-71515175D01*
X84833275Y-71526118D01*
X77217106Y-71526118D01*
X77331215Y-71431215D01*
X77468773Y-71265819D01*
X77573886Y-71078125D01*
X77585309Y-71044475D01*
X77641799Y-70878061D01*
X77641800Y-70878058D01*
X77643035Y-70874419D01*
X77673904Y-70661522D01*
X77675515Y-70600000D01*
X77655831Y-70385779D01*
X77622238Y-70266668D01*
X84195506Y-70266668D01*
X84209309Y-70506041D01*
X84210264Y-70512832D01*
X84262977Y-70746740D01*
X84265030Y-70753292D01*
X84355233Y-70975434D01*
X84358335Y-70981576D01*
X84467068Y-71159011D01*
X84476518Y-71166528D01*
X84479515Y-71166449D01*
X84480918Y-71165529D01*
X85335974Y-70310473D01*
X85340639Y-70300470D01*
X86058923Y-70300470D01*
X86060717Y-70307164D01*
X86912200Y-71158647D01*
X86923143Y-71163750D01*
X86927340Y-71162625D01*
X86988149Y-71078001D01*
X86991684Y-71072118D01*
X87097919Y-70857167D01*
X87100447Y-70850780D01*
X87170146Y-70621376D01*
X87171600Y-70614652D01*
X87177580Y-70569229D01*
X93724888Y-70569229D01*
X93738958Y-70783891D01*
X93791911Y-70992395D01*
X93881974Y-71187757D01*
X94006131Y-71363436D01*
X94160224Y-71513547D01*
X94339093Y-71633063D01*
X94536746Y-71717981D01*
X94559082Y-71723035D01*
X94742808Y-71764608D01*
X94742809Y-71764608D01*
X94746565Y-71765458D01*
X94868982Y-71770268D01*
X94957673Y-71773753D01*
X94957676Y-71773753D01*
X94961522Y-71773904D01*
X94965328Y-71773352D01*
X94965331Y-71773352D01*
X95034641Y-71763302D01*
X95174419Y-71743035D01*
X95178058Y-71741800D01*
X95178061Y-71741799D01*
X95374475Y-71675125D01*
X95378125Y-71673886D01*
X95565819Y-71568773D01*
X95617106Y-71526118D01*
X103233275Y-71526118D01*
X103234624Y-71531150D01*
X103239660Y-71534676D01*
X103446676Y-71655647D01*
X103452867Y-71658613D01*
X103676857Y-71744147D01*
X103683456Y-71746064D01*
X103918412Y-71793867D01*
X103925224Y-71794679D01*
X104164841Y-71803466D01*
X104171692Y-71803155D01*
X104409520Y-71772688D01*
X104416236Y-71771260D01*
X104645882Y-71702363D01*
X104652294Y-71699850D01*
X104867600Y-71594373D01*
X104873507Y-71590852D01*
X104957048Y-71531262D01*
X104963888Y-71521309D01*
X104963476Y-71517029D01*
X104902310Y-71455863D01*
X108795722Y-71455863D01*
X108808258Y-71716866D01*
X108809016Y-71723035D01*
X108859994Y-71979323D01*
X108861655Y-71985309D01*
X108949955Y-72231245D01*
X108952483Y-72236925D01*
X109076161Y-72467101D01*
X109079510Y-72472356D01*
X109153831Y-72571884D01*
X109163929Y-72578505D01*
X109168481Y-72577966D01*
X110235974Y-71510473D01*
X110240639Y-71500470D01*
X110958923Y-71500470D01*
X110960717Y-71507164D01*
X112030299Y-72576746D01*
X112041242Y-72581849D01*
X112045107Y-72580813D01*
X112184617Y-72363919D01*
X112187588Y-72358448D01*
X112294910Y-72120201D01*
X112297034Y-72114365D01*
X112367962Y-71862873D01*
X112369204Y-71856770D01*
X112402306Y-71596566D01*
X112402628Y-71592358D01*
X112404992Y-71502113D01*
X112404890Y-71497894D01*
X112385451Y-71236310D01*
X112384532Y-71230155D01*
X112326863Y-70975294D01*
X112325046Y-70969351D01*
X112230339Y-70725812D01*
X112227662Y-70720200D01*
X112097997Y-70493335D01*
X112094525Y-70488186D01*
X112046759Y-70427596D01*
X112036491Y-70421242D01*
X112031602Y-70421951D01*
X110964026Y-71489527D01*
X110958923Y-71500470D01*
X110240639Y-71500470D01*
X110241077Y-71499530D01*
X110239283Y-71492836D01*
X109171727Y-70425280D01*
X109160784Y-70420177D01*
X109155641Y-70421556D01*
X109132479Y-70449404D01*
X109128864Y-70454472D01*
X108993305Y-70677867D01*
X108990488Y-70683395D01*
X108889434Y-70924381D01*
X108887464Y-70930269D01*
X108823145Y-71183528D01*
X108822063Y-71189666D01*
X108795884Y-71449646D01*
X108795722Y-71455863D01*
X104902310Y-71455863D01*
X104110473Y-70664026D01*
X104099530Y-70658923D01*
X104092836Y-70660717D01*
X103238378Y-71515175D01*
X103233275Y-71526118D01*
X95617106Y-71526118D01*
X95731215Y-71431215D01*
X95868773Y-71265819D01*
X95973886Y-71078125D01*
X95985309Y-71044475D01*
X96041799Y-70878061D01*
X96041800Y-70878058D01*
X96043035Y-70874419D01*
X96073904Y-70661522D01*
X96075515Y-70600000D01*
X96055831Y-70385779D01*
X96022238Y-70266668D01*
X102595506Y-70266668D01*
X102609309Y-70506041D01*
X102610264Y-70512832D01*
X102662977Y-70746740D01*
X102665030Y-70753292D01*
X102755233Y-70975434D01*
X102758335Y-70981576D01*
X102867068Y-71159011D01*
X102876518Y-71166528D01*
X102879515Y-71166449D01*
X102880918Y-71165529D01*
X103735974Y-70310473D01*
X103740639Y-70300470D01*
X104458923Y-70300470D01*
X104460717Y-70307164D01*
X105312200Y-71158647D01*
X105323143Y-71163750D01*
X105327340Y-71162625D01*
X105388149Y-71078001D01*
X105391684Y-71072118D01*
X105497919Y-70857167D01*
X105500447Y-70850780D01*
X105570146Y-70621376D01*
X105571600Y-70614652D01*
X105603052Y-70375740D01*
X105603398Y-70371297D01*
X105605087Y-70302227D01*
X105604959Y-70297783D01*
X105585529Y-70061453D01*
X109518615Y-70061453D01*
X109518824Y-70065136D01*
X109519107Y-70065554D01*
X110589527Y-71135974D01*
X110600470Y-71141077D01*
X110607164Y-71139283D01*
X111674279Y-70072168D01*
X111679382Y-70061225D01*
X111678310Y-70057226D01*
X111518699Y-69946500D01*
X111513327Y-69943336D01*
X111278986Y-69827773D01*
X111273208Y-69825438D01*
X111024356Y-69745780D01*
X111018298Y-69744325D01*
X110760388Y-69702322D01*
X110754212Y-69701781D01*
X110492914Y-69698361D01*
X110486725Y-69698739D01*
X110227799Y-69733978D01*
X110221714Y-69735271D01*
X109970849Y-69808391D01*
X109965030Y-69810567D01*
X109727726Y-69919965D01*
X109722292Y-69922977D01*
X109525839Y-70051778D01*
X109518615Y-70061453D01*
X105585529Y-70061453D01*
X105585212Y-70057597D01*
X105584091Y-70050833D01*
X105525682Y-69818293D01*
X105523465Y-69811779D01*
X105427862Y-69591909D01*
X105424612Y-69585847D01*
X105331741Y-69442291D01*
X105322112Y-69435008D01*
X105318567Y-69435187D01*
X105317951Y-69435602D01*
X104464026Y-70289527D01*
X104458923Y-70300470D01*
X103740639Y-70300470D01*
X103741077Y-70299530D01*
X103739283Y-70292836D01*
X102887613Y-69441166D01*
X102876670Y-69436063D01*
X102872762Y-69437111D01*
X102793232Y-69553698D01*
X102789837Y-69559674D01*
X102688887Y-69777152D01*
X102686514Y-69783601D01*
X102622441Y-70014639D01*
X102621152Y-70021400D01*
X102595675Y-70259794D01*
X102595506Y-70266668D01*
X96022238Y-70266668D01*
X95997438Y-70178733D01*
X95995735Y-70175279D01*
X95903998Y-69989255D01*
X95903994Y-69989249D01*
X95902291Y-69985795D01*
X95773578Y-69813427D01*
X95746380Y-69788285D01*
X95618432Y-69670011D01*
X95618429Y-69670009D01*
X95615608Y-69667401D01*
X95612361Y-69665352D01*
X95612358Y-69665350D01*
X95436924Y-69554659D01*
X95436922Y-69554658D01*
X95433673Y-69552608D01*
X95332841Y-69512380D01*
X95237439Y-69474319D01*
X95237436Y-69474318D01*
X95233864Y-69472893D01*
X95086914Y-69443663D01*
X97281360Y-69443663D01*
X97282136Y-69449597D01*
X97282136Y-69449598D01*
X97295749Y-69553698D01*
X97300428Y-69589483D01*
X97359656Y-69724090D01*
X97363505Y-69728669D01*
X97363507Y-69728672D01*
X97450431Y-69832080D01*
X97450433Y-69832082D01*
X97454284Y-69836663D01*
X97576703Y-69918152D01*
X97717073Y-69962007D01*
X97723050Y-69962117D01*
X97723053Y-69962117D01*
X97797527Y-69963482D01*
X97864109Y-69964702D01*
X97869881Y-69963128D01*
X97869884Y-69963128D01*
X98000219Y-69927594D01*
X98000220Y-69927594D01*
X98005992Y-69926020D01*
X98011090Y-69922890D01*
X98011092Y-69922889D01*
X98126216Y-69852202D01*
X98126217Y-69852201D01*
X98131315Y-69849071D01*
X98135328Y-69844637D01*
X98135331Y-69844635D01*
X98225991Y-69744475D01*
X98230004Y-69740042D01*
X98248280Y-69702322D01*
X98291517Y-69613081D01*
X98294126Y-69607696D01*
X98318524Y-69462672D01*
X98318679Y-69450000D01*
X98318219Y-69446787D01*
X98298679Y-69310344D01*
X98298679Y-69310343D01*
X98297831Y-69304424D01*
X98236962Y-69170551D01*
X98157387Y-69078198D01*
X103235781Y-69078198D01*
X103236336Y-69082783D01*
X104089527Y-69935974D01*
X104100470Y-69941077D01*
X104107164Y-69939283D01*
X104959994Y-69086453D01*
X104965097Y-69075510D01*
X104963815Y-69070726D01*
X104935633Y-69048469D01*
X104929918Y-69044672D01*
X104720010Y-68928797D01*
X104713743Y-68925980D01*
X104487733Y-68845945D01*
X104481085Y-68844189D01*
X104245042Y-68802144D01*
X104238200Y-68801497D01*
X103998452Y-68798567D01*
X103991597Y-68799047D01*
X103754595Y-68835313D01*
X103747911Y-68836906D01*
X103520007Y-68911396D01*
X103513681Y-68914055D01*
X103301006Y-69024767D01*
X103295188Y-69028431D01*
X103242374Y-69068084D01*
X103235781Y-69078198D01*
X98157387Y-69078198D01*
X98140967Y-69059142D01*
X98129662Y-69051814D01*
X98022583Y-68982410D01*
X98017561Y-68979155D01*
X98011831Y-68977441D01*
X98011828Y-68977440D01*
X97882398Y-68938732D01*
X97882396Y-68938732D01*
X97876666Y-68937018D01*
X97870686Y-68936981D01*
X97870683Y-68936981D01*
X97801318Y-68936558D01*
X97729607Y-68936120D01*
X97723851Y-68937765D01*
X97604055Y-68972003D01*
X97588208Y-68976532D01*
X97463834Y-69055006D01*
X97366484Y-69165233D01*
X97303985Y-69298353D01*
X97303065Y-69304264D01*
X97303064Y-69304266D01*
X97302118Y-69310344D01*
X97281360Y-69443663D01*
X95086914Y-69443663D01*
X95022875Y-69430925D01*
X94908557Y-69429428D01*
X94811618Y-69428159D01*
X94811614Y-69428159D01*
X94807770Y-69428109D01*
X94595754Y-69464540D01*
X94393928Y-69538997D01*
X94390620Y-69540965D01*
X94278456Y-69607696D01*
X94209050Y-69648988D01*
X94047312Y-69790829D01*
X94018188Y-69827773D01*
X93932889Y-69935974D01*
X93914130Y-69959769D01*
X93912340Y-69963172D01*
X93912337Y-69963176D01*
X93858694Y-70065136D01*
X93813966Y-70150150D01*
X93805091Y-70178733D01*
X93751348Y-70351814D01*
X93750173Y-70355597D01*
X93724888Y-70569229D01*
X87177580Y-70569229D01*
X87203052Y-70375740D01*
X87203398Y-70371297D01*
X87205087Y-70302227D01*
X87204959Y-70297783D01*
X87185212Y-70057597D01*
X87184091Y-70050833D01*
X87125682Y-69818293D01*
X87123465Y-69811779D01*
X87027862Y-69591909D01*
X87024612Y-69585847D01*
X86931741Y-69442291D01*
X86922112Y-69435008D01*
X86918567Y-69435187D01*
X86917951Y-69435602D01*
X86064026Y-70289527D01*
X86058923Y-70300470D01*
X85340639Y-70300470D01*
X85341077Y-70299530D01*
X85339283Y-70292836D01*
X84487613Y-69441166D01*
X84476670Y-69436063D01*
X84472762Y-69437111D01*
X84393232Y-69553698D01*
X84389837Y-69559674D01*
X84288887Y-69777152D01*
X84286514Y-69783601D01*
X84222441Y-70014639D01*
X84221152Y-70021400D01*
X84195675Y-70259794D01*
X84195506Y-70266668D01*
X77622238Y-70266668D01*
X77597438Y-70178733D01*
X77595735Y-70175279D01*
X77503998Y-69989255D01*
X77503994Y-69989249D01*
X77502291Y-69985795D01*
X77373578Y-69813427D01*
X77346380Y-69788285D01*
X77218432Y-69670011D01*
X77218429Y-69670009D01*
X77215608Y-69667401D01*
X77212361Y-69665352D01*
X77212358Y-69665350D01*
X77036924Y-69554659D01*
X77036922Y-69554658D01*
X77033673Y-69552608D01*
X76932841Y-69512380D01*
X76837439Y-69474319D01*
X76837436Y-69474318D01*
X76833864Y-69472893D01*
X76622875Y-69430925D01*
X76508557Y-69429428D01*
X76411618Y-69428159D01*
X76411614Y-69428159D01*
X76407770Y-69428109D01*
X76195754Y-69464540D01*
X75993928Y-69538997D01*
X75990620Y-69540965D01*
X75878456Y-69607696D01*
X75809050Y-69648988D01*
X75647312Y-69790829D01*
X75618188Y-69827773D01*
X75532889Y-69935974D01*
X75514130Y-69959769D01*
X75512340Y-69963172D01*
X75512337Y-69963176D01*
X75458694Y-70065136D01*
X75413966Y-70150150D01*
X75405091Y-70178733D01*
X75351348Y-70351814D01*
X75350173Y-70355597D01*
X75324888Y-70569229D01*
X68777580Y-70569229D01*
X68803052Y-70375740D01*
X68803398Y-70371297D01*
X68805087Y-70302227D01*
X68804959Y-70297783D01*
X68785212Y-70057597D01*
X68784091Y-70050833D01*
X68725682Y-69818293D01*
X68723465Y-69811779D01*
X68627862Y-69591909D01*
X68624612Y-69585847D01*
X68531741Y-69442291D01*
X68522112Y-69435008D01*
X68518567Y-69435187D01*
X68517951Y-69435602D01*
X67664026Y-70289527D01*
X67658923Y-70300470D01*
X66940639Y-70300470D01*
X66941077Y-70299530D01*
X66939283Y-70292836D01*
X66087613Y-69441166D01*
X66076670Y-69436063D01*
X66072762Y-69437111D01*
X65993232Y-69553698D01*
X65989837Y-69559674D01*
X65888887Y-69777152D01*
X65886514Y-69783601D01*
X65822441Y-70014639D01*
X65821152Y-70021400D01*
X65795675Y-70259794D01*
X65795506Y-70266668D01*
X63675809Y-70266668D01*
X63582398Y-70238732D01*
X63582396Y-70238732D01*
X63576666Y-70237018D01*
X63570686Y-70236981D01*
X63570683Y-70236981D01*
X63501318Y-70236558D01*
X63429607Y-70236120D01*
X63423851Y-70237765D01*
X63322722Y-70266668D01*
X63288208Y-70276532D01*
X63163834Y-70355006D01*
X63066484Y-70465233D01*
X63003985Y-70598353D01*
X63003065Y-70604264D01*
X63003064Y-70604266D01*
X62990744Y-70683395D01*
X62981360Y-70743663D01*
X62437281Y-70743663D01*
X62430339Y-70725812D01*
X62427662Y-70720200D01*
X62297997Y-70493335D01*
X62294525Y-70488186D01*
X62246759Y-70427596D01*
X62236491Y-70421242D01*
X62231602Y-70421951D01*
X61164026Y-71489527D01*
X61158923Y-71500470D01*
X60440639Y-71500470D01*
X60441077Y-71499530D01*
X60439283Y-71492836D01*
X59371727Y-70425280D01*
X59360784Y-70420177D01*
X59355641Y-70421556D01*
X59332479Y-70449404D01*
X59328864Y-70454472D01*
X59193305Y-70677867D01*
X59190488Y-70683395D01*
X59089434Y-70924381D01*
X59087464Y-70930269D01*
X59023145Y-71183528D01*
X59022063Y-71189666D01*
X58995884Y-71449646D01*
X58995722Y-71455863D01*
X58157739Y-71455863D01*
X58157739Y-70061453D01*
X59718615Y-70061453D01*
X59718824Y-70065136D01*
X59719107Y-70065554D01*
X60789527Y-71135974D01*
X60800470Y-71141077D01*
X60807164Y-71139283D01*
X61874279Y-70072168D01*
X61879382Y-70061225D01*
X61878310Y-70057226D01*
X61718699Y-69946500D01*
X61713327Y-69943336D01*
X61478986Y-69827773D01*
X61473208Y-69825438D01*
X61224356Y-69745780D01*
X61218298Y-69744325D01*
X60960388Y-69702322D01*
X60954212Y-69701781D01*
X60692914Y-69698361D01*
X60686725Y-69698739D01*
X60427799Y-69733978D01*
X60421714Y-69735271D01*
X60170849Y-69808391D01*
X60165030Y-69810567D01*
X59927726Y-69919965D01*
X59922292Y-69922977D01*
X59725839Y-70051778D01*
X59718615Y-70061453D01*
X58157739Y-70061453D01*
X58157739Y-69078198D01*
X66435781Y-69078198D01*
X66436336Y-69082783D01*
X67289527Y-69935974D01*
X67300470Y-69941077D01*
X67307164Y-69939283D01*
X68159994Y-69086453D01*
X68163844Y-69078198D01*
X84835781Y-69078198D01*
X84836336Y-69082783D01*
X85689527Y-69935974D01*
X85700470Y-69941077D01*
X85707164Y-69939283D01*
X86559994Y-69086453D01*
X86565097Y-69075510D01*
X86563815Y-69070726D01*
X86535633Y-69048469D01*
X86529918Y-69044672D01*
X86320010Y-68928797D01*
X86313743Y-68925980D01*
X86087733Y-68845945D01*
X86081085Y-68844189D01*
X85845042Y-68802144D01*
X85838200Y-68801497D01*
X85598452Y-68798567D01*
X85591597Y-68799047D01*
X85354595Y-68835313D01*
X85347911Y-68836906D01*
X85120007Y-68911396D01*
X85113681Y-68914055D01*
X84901006Y-69024767D01*
X84895188Y-69028431D01*
X84842374Y-69068084D01*
X84835781Y-69078198D01*
X68163844Y-69078198D01*
X68165097Y-69075510D01*
X68163815Y-69070726D01*
X68135633Y-69048469D01*
X68129918Y-69044672D01*
X67920010Y-68928797D01*
X67913743Y-68925980D01*
X67687733Y-68845945D01*
X67681085Y-68844189D01*
X67445042Y-68802144D01*
X67438200Y-68801497D01*
X67198452Y-68798567D01*
X67191597Y-68799047D01*
X66954595Y-68835313D01*
X66947911Y-68836906D01*
X66720007Y-68911396D01*
X66713681Y-68914055D01*
X66501006Y-69024767D01*
X66495188Y-69028431D01*
X66442374Y-69068084D01*
X66435781Y-69078198D01*
X58157739Y-69078198D01*
X58157739Y-67869229D01*
X89624888Y-67869229D01*
X89638958Y-68083891D01*
X89691911Y-68292395D01*
X89781974Y-68487757D01*
X89906131Y-68663436D01*
X90060224Y-68813547D01*
X90239093Y-68933063D01*
X90436746Y-69017981D01*
X90482929Y-69028431D01*
X90642808Y-69064608D01*
X90642809Y-69064608D01*
X90646565Y-69065458D01*
X90768982Y-69070268D01*
X90857673Y-69073753D01*
X90857676Y-69073753D01*
X90861522Y-69073904D01*
X90865328Y-69073352D01*
X90865331Y-69073352D01*
X90963332Y-69059142D01*
X91074419Y-69043035D01*
X91078058Y-69041800D01*
X91078061Y-69041799D01*
X91274475Y-68975125D01*
X91278125Y-68973886D01*
X91465819Y-68868773D01*
X91631215Y-68731215D01*
X91768773Y-68565819D01*
X91873886Y-68378125D01*
X91901800Y-68295893D01*
X91941799Y-68178061D01*
X91941800Y-68178058D01*
X91943035Y-68174419D01*
X91973904Y-67961522D01*
X91975515Y-67900000D01*
X91955831Y-67685779D01*
X91897438Y-67478733D01*
X91895735Y-67475279D01*
X91803998Y-67289255D01*
X91803994Y-67289249D01*
X91802291Y-67285795D01*
X91673578Y-67113427D01*
X91646380Y-67088285D01*
X91518432Y-66970011D01*
X91518429Y-66970009D01*
X91515608Y-66967401D01*
X91512361Y-66965352D01*
X91512358Y-66965350D01*
X91336924Y-66854659D01*
X91336922Y-66854658D01*
X91333673Y-66852608D01*
X91232841Y-66812380D01*
X91137439Y-66774319D01*
X91137436Y-66774318D01*
X91133864Y-66772893D01*
X90922875Y-66730925D01*
X90808557Y-66729428D01*
X90711618Y-66728159D01*
X90711614Y-66728159D01*
X90707770Y-66728109D01*
X90495754Y-66764540D01*
X90293928Y-66838997D01*
X90290620Y-66840965D01*
X90267603Y-66854659D01*
X90109050Y-66948988D01*
X89947312Y-67090829D01*
X89814130Y-67259769D01*
X89812340Y-67263172D01*
X89812337Y-67263176D01*
X89719843Y-67438981D01*
X89713966Y-67450150D01*
X89650173Y-67655597D01*
X89624888Y-67869229D01*
X58157739Y-67869229D01*
X58157739Y-65269229D01*
X66124888Y-65269229D01*
X66138958Y-65483891D01*
X66191911Y-65692395D01*
X66281974Y-65887757D01*
X66406131Y-66063436D01*
X66560224Y-66213547D01*
X66739093Y-66333063D01*
X66880021Y-66393610D01*
X66885733Y-66396064D01*
X66936746Y-66417981D01*
X67042007Y-66441799D01*
X67142808Y-66464608D01*
X67142809Y-66464608D01*
X67146565Y-66465458D01*
X67268982Y-66470268D01*
X67357673Y-66473753D01*
X67357676Y-66473753D01*
X67361522Y-66473904D01*
X67365328Y-66473352D01*
X67365331Y-66473352D01*
X67434641Y-66463302D01*
X67574419Y-66443035D01*
X67578058Y-66441800D01*
X67578061Y-66441799D01*
X67774475Y-66375125D01*
X67778125Y-66373886D01*
X67965819Y-66268773D01*
X68077225Y-66176118D01*
X75633275Y-66176118D01*
X75634624Y-66181150D01*
X75639660Y-66184676D01*
X75846676Y-66305647D01*
X75852867Y-66308613D01*
X76076857Y-66394147D01*
X76083456Y-66396064D01*
X76318412Y-66443867D01*
X76325224Y-66444679D01*
X76564841Y-66453466D01*
X76571692Y-66453155D01*
X76809520Y-66422688D01*
X76816236Y-66421260D01*
X77045882Y-66352363D01*
X77052294Y-66349850D01*
X77267600Y-66244373D01*
X77273507Y-66240852D01*
X77357048Y-66181262D01*
X77363888Y-66171309D01*
X77363476Y-66167029D01*
X76510473Y-65314026D01*
X76499530Y-65308923D01*
X76492836Y-65310717D01*
X75638378Y-66165175D01*
X75633275Y-66176118D01*
X68077225Y-66176118D01*
X68131215Y-66131215D01*
X68268773Y-65965819D01*
X68373886Y-65778125D01*
X68401800Y-65695893D01*
X68441799Y-65578061D01*
X68441800Y-65578058D01*
X68443035Y-65574419D01*
X68473904Y-65361522D01*
X68475515Y-65300000D01*
X68455831Y-65085779D01*
X68408137Y-64916668D01*
X74995506Y-64916668D01*
X75009309Y-65156041D01*
X75010264Y-65162832D01*
X75062977Y-65396740D01*
X75065030Y-65403292D01*
X75155233Y-65625434D01*
X75158335Y-65631576D01*
X75267068Y-65809011D01*
X75276518Y-65816528D01*
X75279515Y-65816449D01*
X75280918Y-65815529D01*
X76135974Y-64960473D01*
X76140639Y-64950470D01*
X76858923Y-64950470D01*
X76860717Y-64957164D01*
X77712200Y-65808647D01*
X77723143Y-65813750D01*
X77727340Y-65812625D01*
X77788149Y-65728001D01*
X77791684Y-65722118D01*
X77897919Y-65507167D01*
X77900447Y-65500780D01*
X77970146Y-65271376D01*
X77970610Y-65269229D01*
X84524888Y-65269229D01*
X84538958Y-65483891D01*
X84591911Y-65692395D01*
X84681974Y-65887757D01*
X84806131Y-66063436D01*
X84960224Y-66213547D01*
X85139093Y-66333063D01*
X85280021Y-66393610D01*
X85285733Y-66396064D01*
X85336746Y-66417981D01*
X85442007Y-66441799D01*
X85542808Y-66464608D01*
X85542809Y-66464608D01*
X85546565Y-66465458D01*
X85668982Y-66470268D01*
X85757673Y-66473753D01*
X85757676Y-66473753D01*
X85761522Y-66473904D01*
X85765328Y-66473352D01*
X85765331Y-66473352D01*
X85834641Y-66463302D01*
X85974419Y-66443035D01*
X85978058Y-66441800D01*
X85978061Y-66441799D01*
X86174475Y-66375125D01*
X86178125Y-66373886D01*
X86365819Y-66268773D01*
X86477225Y-66176118D01*
X94033275Y-66176118D01*
X94034624Y-66181150D01*
X94039660Y-66184676D01*
X94246676Y-66305647D01*
X94252867Y-66308613D01*
X94476857Y-66394147D01*
X94483456Y-66396064D01*
X94718412Y-66443867D01*
X94725224Y-66444679D01*
X94964841Y-66453466D01*
X94971692Y-66453155D01*
X95209520Y-66422688D01*
X95216236Y-66421260D01*
X95445882Y-66352363D01*
X95452294Y-66349850D01*
X95667600Y-66244373D01*
X95673507Y-66240852D01*
X95757048Y-66181262D01*
X95763888Y-66171309D01*
X95763476Y-66167029D01*
X94910473Y-65314026D01*
X94899530Y-65308923D01*
X94892836Y-65310717D01*
X94038378Y-66165175D01*
X94033275Y-66176118D01*
X86477225Y-66176118D01*
X86531215Y-66131215D01*
X86668773Y-65965819D01*
X86773886Y-65778125D01*
X86801800Y-65695893D01*
X86841799Y-65578061D01*
X86841800Y-65578058D01*
X86843035Y-65574419D01*
X86873904Y-65361522D01*
X86875515Y-65300000D01*
X86855831Y-65085779D01*
X86808137Y-64916668D01*
X93395506Y-64916668D01*
X93409309Y-65156041D01*
X93410264Y-65162832D01*
X93462977Y-65396740D01*
X93465030Y-65403292D01*
X93555233Y-65625434D01*
X93558335Y-65631576D01*
X93667068Y-65809011D01*
X93676518Y-65816528D01*
X93679515Y-65816449D01*
X93680918Y-65815529D01*
X94535974Y-64960473D01*
X94540639Y-64950470D01*
X95258923Y-64950470D01*
X95260717Y-64957164D01*
X96112200Y-65808647D01*
X96123143Y-65813750D01*
X96127340Y-65812625D01*
X96188149Y-65728001D01*
X96191684Y-65722118D01*
X96297919Y-65507167D01*
X96300447Y-65500780D01*
X96370146Y-65271376D01*
X96370610Y-65269229D01*
X102924888Y-65269229D01*
X102938958Y-65483891D01*
X102991911Y-65692395D01*
X103081974Y-65887757D01*
X103206131Y-66063436D01*
X103360224Y-66213547D01*
X103539093Y-66333063D01*
X103680021Y-66393610D01*
X103685733Y-66396064D01*
X103736746Y-66417981D01*
X103842007Y-66441799D01*
X103942808Y-66464608D01*
X103942809Y-66464608D01*
X103946565Y-66465458D01*
X104068982Y-66470268D01*
X104157673Y-66473753D01*
X104157676Y-66473753D01*
X104161522Y-66473904D01*
X104165328Y-66473352D01*
X104165331Y-66473352D01*
X104234641Y-66463302D01*
X104374419Y-66443035D01*
X104378058Y-66441800D01*
X104378061Y-66441799D01*
X104574475Y-66375125D01*
X104578125Y-66373886D01*
X104765819Y-66268773D01*
X104931215Y-66131215D01*
X105068773Y-65965819D01*
X105173886Y-65778125D01*
X105201800Y-65695893D01*
X105241799Y-65578061D01*
X105241800Y-65578058D01*
X105243035Y-65574419D01*
X105273904Y-65361522D01*
X105275515Y-65300000D01*
X105255831Y-65085779D01*
X105197438Y-64878733D01*
X105190519Y-64864702D01*
X105103998Y-64689255D01*
X105103994Y-64689249D01*
X105102291Y-64685795D01*
X104973578Y-64513427D01*
X104962997Y-64503646D01*
X104818432Y-64370011D01*
X104818429Y-64370009D01*
X104815608Y-64367401D01*
X104812361Y-64365352D01*
X104812358Y-64365350D01*
X104636924Y-64254659D01*
X104636922Y-64254658D01*
X104633673Y-64252608D01*
X104484105Y-64192937D01*
X104437439Y-64174319D01*
X104437436Y-64174318D01*
X104433864Y-64172893D01*
X104222875Y-64130925D01*
X104108557Y-64129428D01*
X104011618Y-64128159D01*
X104011614Y-64128159D01*
X104007770Y-64128109D01*
X103795754Y-64164540D01*
X103593928Y-64238997D01*
X103590620Y-64240965D01*
X103412750Y-64346787D01*
X103409050Y-64348988D01*
X103247312Y-64490829D01*
X103169697Y-64589283D01*
X103129682Y-64640042D01*
X103114130Y-64659769D01*
X103112340Y-64663172D01*
X103112337Y-64663176D01*
X103069480Y-64744635D01*
X103013966Y-64850150D01*
X103005091Y-64878733D01*
X102959444Y-65025740D01*
X102950173Y-65055597D01*
X102924888Y-65269229D01*
X96370610Y-65269229D01*
X96371600Y-65264652D01*
X96403052Y-65025740D01*
X96403398Y-65021297D01*
X96405087Y-64952227D01*
X96404959Y-64947783D01*
X96385212Y-64707597D01*
X96384091Y-64700833D01*
X96325682Y-64468293D01*
X96323465Y-64461779D01*
X96227862Y-64241909D01*
X96224612Y-64235847D01*
X96131741Y-64092291D01*
X96122112Y-64085008D01*
X96118567Y-64085187D01*
X96117951Y-64085602D01*
X95264026Y-64939527D01*
X95258923Y-64950470D01*
X94540639Y-64950470D01*
X94541077Y-64949530D01*
X94539283Y-64942836D01*
X93687613Y-64091166D01*
X93676670Y-64086063D01*
X93672762Y-64087111D01*
X93593232Y-64203698D01*
X93589837Y-64209674D01*
X93488887Y-64427152D01*
X93486514Y-64433601D01*
X93422441Y-64664639D01*
X93421152Y-64671400D01*
X93395675Y-64909794D01*
X93395506Y-64916668D01*
X86808137Y-64916668D01*
X86797438Y-64878733D01*
X86790519Y-64864702D01*
X86703998Y-64689255D01*
X86703994Y-64689249D01*
X86702291Y-64685795D01*
X86573578Y-64513427D01*
X86562997Y-64503646D01*
X86418432Y-64370011D01*
X86418429Y-64370009D01*
X86415608Y-64367401D01*
X86412361Y-64365352D01*
X86412358Y-64365350D01*
X86236924Y-64254659D01*
X86236922Y-64254658D01*
X86233673Y-64252608D01*
X86084105Y-64192937D01*
X86037439Y-64174319D01*
X86037436Y-64174318D01*
X86033864Y-64172893D01*
X85822875Y-64130925D01*
X85708557Y-64129428D01*
X85611618Y-64128159D01*
X85611614Y-64128159D01*
X85607770Y-64128109D01*
X85395754Y-64164540D01*
X85193928Y-64238997D01*
X85190620Y-64240965D01*
X85012750Y-64346787D01*
X85009050Y-64348988D01*
X84847312Y-64490829D01*
X84769697Y-64589283D01*
X84729682Y-64640042D01*
X84714130Y-64659769D01*
X84712340Y-64663172D01*
X84712337Y-64663176D01*
X84669480Y-64744635D01*
X84613966Y-64850150D01*
X84605091Y-64878733D01*
X84559444Y-65025740D01*
X84550173Y-65055597D01*
X84524888Y-65269229D01*
X77970610Y-65269229D01*
X77971600Y-65264652D01*
X78003052Y-65025740D01*
X78003398Y-65021297D01*
X78005087Y-64952227D01*
X78004959Y-64947783D01*
X77985212Y-64707597D01*
X77984091Y-64700833D01*
X77925682Y-64468293D01*
X77923465Y-64461779D01*
X77827862Y-64241909D01*
X77824612Y-64235847D01*
X77731741Y-64092291D01*
X77722112Y-64085008D01*
X77718567Y-64085187D01*
X77717951Y-64085602D01*
X76864026Y-64939527D01*
X76858923Y-64950470D01*
X76140639Y-64950470D01*
X76141077Y-64949530D01*
X76139283Y-64942836D01*
X75287613Y-64091166D01*
X75276670Y-64086063D01*
X75272762Y-64087111D01*
X75193232Y-64203698D01*
X75189837Y-64209674D01*
X75088887Y-64427152D01*
X75086514Y-64433601D01*
X75022441Y-64664639D01*
X75021152Y-64671400D01*
X74995675Y-64909794D01*
X74995506Y-64916668D01*
X68408137Y-64916668D01*
X68397438Y-64878733D01*
X68390519Y-64864702D01*
X68303998Y-64689255D01*
X68303994Y-64689249D01*
X68302291Y-64685795D01*
X68173578Y-64513427D01*
X68162997Y-64503646D01*
X68018432Y-64370011D01*
X68018429Y-64370009D01*
X68015608Y-64367401D01*
X68012361Y-64365352D01*
X68012358Y-64365350D01*
X67977986Y-64343663D01*
X68931360Y-64343663D01*
X68932136Y-64349597D01*
X68932136Y-64349598D01*
X68943121Y-64433601D01*
X68950428Y-64489483D01*
X69009656Y-64624090D01*
X69013505Y-64628669D01*
X69013507Y-64628672D01*
X69100431Y-64732080D01*
X69100433Y-64732082D01*
X69104284Y-64736663D01*
X69226703Y-64818152D01*
X69367073Y-64862007D01*
X69373050Y-64862117D01*
X69373053Y-64862117D01*
X69447527Y-64863482D01*
X69514109Y-64864702D01*
X69519881Y-64863128D01*
X69519884Y-64863128D01*
X69650219Y-64827594D01*
X69650220Y-64827594D01*
X69655992Y-64826020D01*
X69661090Y-64822890D01*
X69661092Y-64822889D01*
X69776216Y-64752202D01*
X69776217Y-64752201D01*
X69781315Y-64749071D01*
X69785328Y-64744637D01*
X69785331Y-64744635D01*
X69875991Y-64644475D01*
X69880004Y-64640042D01*
X69944126Y-64507696D01*
X69968524Y-64362672D01*
X69968679Y-64350000D01*
X69968219Y-64346787D01*
X69948679Y-64210344D01*
X69948679Y-64210343D01*
X69947831Y-64204424D01*
X69886962Y-64070551D01*
X69790967Y-63959142D01*
X69779662Y-63951814D01*
X69672583Y-63882410D01*
X69667561Y-63879155D01*
X69661831Y-63877441D01*
X69661828Y-63877440D01*
X69532398Y-63838732D01*
X69532396Y-63838732D01*
X69526666Y-63837018D01*
X69520686Y-63836981D01*
X69520683Y-63836981D01*
X69451318Y-63836558D01*
X69379607Y-63836120D01*
X69238208Y-63876532D01*
X69113834Y-63955006D01*
X69016484Y-64065233D01*
X68953985Y-64198353D01*
X68953065Y-64204264D01*
X68953064Y-64204266D01*
X68947350Y-64240965D01*
X68931360Y-64343663D01*
X67977986Y-64343663D01*
X67836924Y-64254659D01*
X67836922Y-64254658D01*
X67833673Y-64252608D01*
X67684105Y-64192937D01*
X67637439Y-64174319D01*
X67637436Y-64174318D01*
X67633864Y-64172893D01*
X67422875Y-64130925D01*
X67308557Y-64129428D01*
X67211618Y-64128159D01*
X67211614Y-64128159D01*
X67207770Y-64128109D01*
X66995754Y-64164540D01*
X66793928Y-64238997D01*
X66790620Y-64240965D01*
X66612750Y-64346787D01*
X66609050Y-64348988D01*
X66447312Y-64490829D01*
X66369697Y-64589283D01*
X66329682Y-64640042D01*
X66314130Y-64659769D01*
X66312340Y-64663172D01*
X66312337Y-64663176D01*
X66269480Y-64744635D01*
X66213966Y-64850150D01*
X66205091Y-64878733D01*
X66159444Y-65025740D01*
X66150173Y-65055597D01*
X66124888Y-65269229D01*
X58157739Y-65269229D01*
X58157739Y-63728198D01*
X75635781Y-63728198D01*
X75636336Y-63732783D01*
X76489527Y-64585974D01*
X76500470Y-64591077D01*
X76507164Y-64589283D01*
X77359994Y-63736453D01*
X77363844Y-63728198D01*
X94035781Y-63728198D01*
X94036336Y-63732783D01*
X94889527Y-64585974D01*
X94900470Y-64591077D01*
X94907164Y-64589283D01*
X95759994Y-63736453D01*
X95765097Y-63725510D01*
X95763815Y-63720726D01*
X95735633Y-63698469D01*
X95729918Y-63694672D01*
X95520010Y-63578797D01*
X95513743Y-63575980D01*
X95287733Y-63495945D01*
X95281085Y-63494189D01*
X95045042Y-63452144D01*
X95038200Y-63451497D01*
X94798452Y-63448567D01*
X94791597Y-63449047D01*
X94554595Y-63485313D01*
X94547911Y-63486906D01*
X94320007Y-63561396D01*
X94313681Y-63564055D01*
X94101006Y-63674767D01*
X94095188Y-63678431D01*
X94042374Y-63718084D01*
X94035781Y-63728198D01*
X77363844Y-63728198D01*
X77365097Y-63725510D01*
X77363815Y-63720726D01*
X77335633Y-63698469D01*
X77329918Y-63694672D01*
X77120010Y-63578797D01*
X77113743Y-63575980D01*
X76887733Y-63495945D01*
X76881085Y-63494189D01*
X76645042Y-63452144D01*
X76638200Y-63451497D01*
X76398452Y-63448567D01*
X76391597Y-63449047D01*
X76154595Y-63485313D01*
X76147911Y-63486906D01*
X75920007Y-63561396D01*
X75913681Y-63564055D01*
X75701006Y-63674767D01*
X75695188Y-63678431D01*
X75642374Y-63718084D01*
X75635781Y-63728198D01*
X58157739Y-63728198D01*
X58157739Y-62588663D01*
X110936360Y-62588663D01*
X110955428Y-62734483D01*
X111014656Y-62869090D01*
X111018505Y-62873669D01*
X111018507Y-62873672D01*
X111105431Y-62977080D01*
X111105433Y-62977082D01*
X111109284Y-62981663D01*
X111231703Y-63063152D01*
X111372073Y-63107007D01*
X111378050Y-63107117D01*
X111378053Y-63107117D01*
X111452527Y-63108482D01*
X111519109Y-63109702D01*
X111524881Y-63108128D01*
X111524884Y-63108128D01*
X111655219Y-63072594D01*
X111655220Y-63072594D01*
X111660992Y-63071020D01*
X111666090Y-63067890D01*
X111666092Y-63067889D01*
X111781216Y-62997202D01*
X111781217Y-62997201D01*
X111786315Y-62994071D01*
X111790328Y-62989637D01*
X111790331Y-62989635D01*
X111880991Y-62889475D01*
X111885004Y-62885042D01*
X111949126Y-62752696D01*
X111973524Y-62607672D01*
X111973679Y-62595000D01*
X111973219Y-62591787D01*
X111953679Y-62455344D01*
X111953679Y-62455343D01*
X111952831Y-62449424D01*
X111891962Y-62315551D01*
X111795967Y-62204142D01*
X111784662Y-62196814D01*
X111677583Y-62127410D01*
X111672561Y-62124155D01*
X111666831Y-62122441D01*
X111666828Y-62122440D01*
X111537398Y-62083732D01*
X111537396Y-62083732D01*
X111531666Y-62082018D01*
X111525686Y-62081981D01*
X111525683Y-62081981D01*
X111456318Y-62081558D01*
X111384607Y-62081120D01*
X111243208Y-62121532D01*
X111118834Y-62200006D01*
X111021484Y-62310233D01*
X110958985Y-62443353D01*
X110958065Y-62449264D01*
X110958064Y-62449266D01*
X110957118Y-62455344D01*
X110936360Y-62588663D01*
X58157739Y-62588663D01*
X58157739Y-60788663D01*
X59426360Y-60788663D01*
X59427136Y-60794597D01*
X59427136Y-60794598D01*
X59443374Y-60918773D01*
X59445428Y-60934483D01*
X59504656Y-61069090D01*
X59508505Y-61073669D01*
X59508507Y-61073672D01*
X59595431Y-61177080D01*
X59595433Y-61177082D01*
X59599284Y-61181663D01*
X59721703Y-61263152D01*
X59862073Y-61307007D01*
X59868050Y-61307117D01*
X59868053Y-61307117D01*
X59942527Y-61308482D01*
X60009109Y-61309702D01*
X60014881Y-61308128D01*
X60014884Y-61308128D01*
X60145219Y-61272594D01*
X60145220Y-61272594D01*
X60150992Y-61271020D01*
X60156090Y-61267890D01*
X60156092Y-61267889D01*
X60271216Y-61197202D01*
X60271217Y-61197201D01*
X60276315Y-61194071D01*
X60280328Y-61189637D01*
X60280331Y-61189635D01*
X60347336Y-61115609D01*
X60375004Y-61085042D01*
X60379386Y-61075999D01*
X60436517Y-60958081D01*
X60439126Y-60952696D01*
X60451163Y-60881150D01*
X60452010Y-60876118D01*
X66433275Y-60876118D01*
X66434624Y-60881150D01*
X66439660Y-60884676D01*
X66646676Y-61005647D01*
X66652867Y-61008613D01*
X66876857Y-61094147D01*
X66883456Y-61096064D01*
X67118412Y-61143867D01*
X67125224Y-61144679D01*
X67364841Y-61153466D01*
X67371692Y-61153155D01*
X67609520Y-61122688D01*
X67616236Y-61121260D01*
X67845882Y-61052363D01*
X67852294Y-61049850D01*
X68067600Y-60944373D01*
X68073507Y-60940852D01*
X68157048Y-60881262D01*
X68163888Y-60871309D01*
X68163476Y-60867029D01*
X67310473Y-60014026D01*
X67299530Y-60008923D01*
X67292836Y-60010717D01*
X66438378Y-60865175D01*
X66433275Y-60876118D01*
X60452010Y-60876118D01*
X60462986Y-60810870D01*
X60463524Y-60807672D01*
X60463679Y-60795000D01*
X60463219Y-60791787D01*
X60443679Y-60655344D01*
X60443679Y-60655343D01*
X60442831Y-60649424D01*
X60381962Y-60515551D01*
X60285967Y-60404142D01*
X60274662Y-60396814D01*
X60167583Y-60327410D01*
X60162561Y-60324155D01*
X60156831Y-60322441D01*
X60156828Y-60322440D01*
X60027398Y-60283732D01*
X60027396Y-60283732D01*
X60021666Y-60282018D01*
X60015686Y-60281981D01*
X60015683Y-60281981D01*
X59946318Y-60281558D01*
X59874607Y-60281120D01*
X59733208Y-60321532D01*
X59608834Y-60400006D01*
X59511484Y-60510233D01*
X59508943Y-60515644D01*
X59508943Y-60515645D01*
X59506429Y-60520999D01*
X59448985Y-60643353D01*
X59448065Y-60649264D01*
X59448064Y-60649266D01*
X59447118Y-60655344D01*
X59426360Y-60788663D01*
X58157739Y-60788663D01*
X58157739Y-59616668D01*
X65795506Y-59616668D01*
X65809309Y-59856041D01*
X65810264Y-59862832D01*
X65862977Y-60096740D01*
X65865030Y-60103292D01*
X65955233Y-60325434D01*
X65958335Y-60331576D01*
X66067068Y-60509011D01*
X66076518Y-60516528D01*
X66079515Y-60516449D01*
X66080918Y-60515529D01*
X66935974Y-59660473D01*
X66940639Y-59650470D01*
X67658923Y-59650470D01*
X67660717Y-59657164D01*
X68512200Y-60508647D01*
X68523143Y-60513750D01*
X68527340Y-60512625D01*
X68588149Y-60428001D01*
X68591684Y-60422118D01*
X68697919Y-60207167D01*
X68700447Y-60200780D01*
X68770146Y-59971376D01*
X68771600Y-59964652D01*
X68777580Y-59919229D01*
X75324888Y-59919229D01*
X75338958Y-60133891D01*
X75391911Y-60342395D01*
X75481974Y-60537757D01*
X75606131Y-60713436D01*
X75760224Y-60863547D01*
X75939093Y-60983063D01*
X76080021Y-61043610D01*
X76132175Y-61066017D01*
X76136746Y-61067981D01*
X76231736Y-61089475D01*
X76342808Y-61114608D01*
X76342809Y-61114608D01*
X76346565Y-61115458D01*
X76468982Y-61120268D01*
X76557673Y-61123753D01*
X76557676Y-61123753D01*
X76561522Y-61123904D01*
X76565328Y-61123352D01*
X76565331Y-61123352D01*
X76640697Y-61112424D01*
X76774419Y-61093035D01*
X76778058Y-61091800D01*
X76778061Y-61091799D01*
X76974475Y-61025125D01*
X76978125Y-61023886D01*
X77165819Y-60918773D01*
X77217106Y-60876118D01*
X84833275Y-60876118D01*
X84834624Y-60881150D01*
X84839660Y-60884676D01*
X85046676Y-61005647D01*
X85052867Y-61008613D01*
X85276857Y-61094147D01*
X85283456Y-61096064D01*
X85518412Y-61143867D01*
X85525224Y-61144679D01*
X85764841Y-61153466D01*
X85771692Y-61153155D01*
X86009520Y-61122688D01*
X86016232Y-61121261D01*
X86045686Y-61112424D01*
X86103050Y-61115731D01*
X86144868Y-61155138D01*
X86152825Y-61205804D01*
X86131360Y-61343663D01*
X86150428Y-61489483D01*
X86209656Y-61624090D01*
X86213505Y-61628669D01*
X86213507Y-61628672D01*
X86300431Y-61732080D01*
X86300433Y-61732082D01*
X86304284Y-61736663D01*
X86426703Y-61818152D01*
X86567073Y-61862007D01*
X86573050Y-61862117D01*
X86573053Y-61862117D01*
X86647527Y-61863482D01*
X86714109Y-61864702D01*
X86719881Y-61863128D01*
X86719884Y-61863128D01*
X86850219Y-61827594D01*
X86850220Y-61827594D01*
X86855992Y-61826020D01*
X86861090Y-61822890D01*
X86861092Y-61822889D01*
X86976216Y-61752202D01*
X86976217Y-61752201D01*
X86981315Y-61749071D01*
X86985328Y-61744637D01*
X86985331Y-61744635D01*
X87075991Y-61644475D01*
X87080004Y-61640042D01*
X87144126Y-61507696D01*
X87168524Y-61362672D01*
X87168679Y-61350000D01*
X87168219Y-61346787D01*
X87148679Y-61210344D01*
X87148679Y-61210343D01*
X87147831Y-61204424D01*
X87086962Y-61070551D01*
X86990967Y-60959142D01*
X86971917Y-60946794D01*
X86872583Y-60882410D01*
X86867561Y-60879155D01*
X86861831Y-60877441D01*
X86861828Y-60877440D01*
X86732398Y-60838732D01*
X86732396Y-60838732D01*
X86726666Y-60837018D01*
X86720686Y-60836981D01*
X86720683Y-60836981D01*
X86650372Y-60836552D01*
X86579607Y-60836120D01*
X86578388Y-60836469D01*
X86524139Y-60824739D01*
X86509503Y-60813056D01*
X85710473Y-60014026D01*
X85699530Y-60008923D01*
X85692836Y-60010717D01*
X84838378Y-60865175D01*
X84833275Y-60876118D01*
X77217106Y-60876118D01*
X77331215Y-60781215D01*
X77468773Y-60615819D01*
X77573886Y-60428125D01*
X77601800Y-60345893D01*
X77641799Y-60228061D01*
X77641800Y-60228058D01*
X77643035Y-60224419D01*
X77673904Y-60011522D01*
X77675515Y-59950000D01*
X77655831Y-59735779D01*
X77622238Y-59616668D01*
X84195506Y-59616668D01*
X84209309Y-59856041D01*
X84210264Y-59862832D01*
X84262977Y-60096740D01*
X84265030Y-60103292D01*
X84355233Y-60325434D01*
X84358335Y-60331576D01*
X84467068Y-60509011D01*
X84476518Y-60516528D01*
X84479515Y-60516449D01*
X84480918Y-60515529D01*
X85335974Y-59660473D01*
X85340639Y-59650470D01*
X86058923Y-59650470D01*
X86060717Y-59657164D01*
X86912200Y-60508647D01*
X86923143Y-60513750D01*
X86927340Y-60512625D01*
X86988149Y-60428001D01*
X86991684Y-60422118D01*
X87097919Y-60207167D01*
X87100447Y-60200780D01*
X87170146Y-59971376D01*
X87171600Y-59964652D01*
X87177580Y-59919229D01*
X93724888Y-59919229D01*
X93738958Y-60133891D01*
X93791911Y-60342395D01*
X93881974Y-60537757D01*
X94006131Y-60713436D01*
X94160224Y-60863547D01*
X94339093Y-60983063D01*
X94480021Y-61043610D01*
X94532175Y-61066017D01*
X94536746Y-61067981D01*
X94631736Y-61089475D01*
X94742808Y-61114608D01*
X94742809Y-61114608D01*
X94746565Y-61115458D01*
X94868982Y-61120268D01*
X94957673Y-61123753D01*
X94957676Y-61123753D01*
X94961522Y-61123904D01*
X94965328Y-61123352D01*
X94965331Y-61123352D01*
X95040697Y-61112424D01*
X95174419Y-61093035D01*
X95178058Y-61091800D01*
X95178061Y-61091799D01*
X95374475Y-61025125D01*
X95378125Y-61023886D01*
X95565819Y-60918773D01*
X95617106Y-60876118D01*
X103233275Y-60876118D01*
X103234624Y-60881150D01*
X103239660Y-60884676D01*
X103446676Y-61005647D01*
X103452867Y-61008613D01*
X103676857Y-61094147D01*
X103683456Y-61096064D01*
X103918412Y-61143867D01*
X103925224Y-61144679D01*
X104164841Y-61153466D01*
X104171692Y-61153155D01*
X104409520Y-61122688D01*
X104416236Y-61121260D01*
X104645882Y-61052363D01*
X104652294Y-61049850D01*
X104867600Y-60944373D01*
X104873507Y-60940852D01*
X104957048Y-60881262D01*
X104963888Y-60871309D01*
X104963476Y-60867029D01*
X104110473Y-60014026D01*
X104099530Y-60008923D01*
X104092836Y-60010717D01*
X103238378Y-60865175D01*
X103233275Y-60876118D01*
X95617106Y-60876118D01*
X95731215Y-60781215D01*
X95868773Y-60615819D01*
X95973886Y-60428125D01*
X96001800Y-60345893D01*
X96041799Y-60228061D01*
X96041800Y-60228058D01*
X96043035Y-60224419D01*
X96073904Y-60011522D01*
X96075515Y-59950000D01*
X96055831Y-59735779D01*
X96022238Y-59616668D01*
X102595506Y-59616668D01*
X102609309Y-59856041D01*
X102610264Y-59862832D01*
X102662977Y-60096740D01*
X102665030Y-60103292D01*
X102755233Y-60325434D01*
X102758335Y-60331576D01*
X102867068Y-60509011D01*
X102876518Y-60516528D01*
X102879515Y-60516449D01*
X102880918Y-60515529D01*
X103735974Y-59660473D01*
X103740639Y-59650470D01*
X104458923Y-59650470D01*
X104460717Y-59657164D01*
X105312200Y-60508647D01*
X105323143Y-60513750D01*
X105327340Y-60512625D01*
X105388149Y-60428001D01*
X105391684Y-60422118D01*
X105497919Y-60207167D01*
X105500447Y-60200780D01*
X105570146Y-59971376D01*
X105571600Y-59964652D01*
X105603052Y-59725740D01*
X105603398Y-59721297D01*
X105605087Y-59652227D01*
X105604959Y-59647783D01*
X105585212Y-59407597D01*
X105584091Y-59400833D01*
X105525682Y-59168293D01*
X105523465Y-59161779D01*
X105427862Y-58941909D01*
X105424612Y-58935847D01*
X105331741Y-58792291D01*
X105322112Y-58785008D01*
X105318567Y-58785187D01*
X105317951Y-58785602D01*
X104464026Y-59639527D01*
X104458923Y-59650470D01*
X103740639Y-59650470D01*
X103741077Y-59649530D01*
X103739283Y-59642836D01*
X102887613Y-58791166D01*
X102876670Y-58786063D01*
X102872762Y-58787111D01*
X102793232Y-58903698D01*
X102789837Y-58909674D01*
X102688887Y-59127152D01*
X102686514Y-59133601D01*
X102622441Y-59364639D01*
X102621152Y-59371400D01*
X102595675Y-59609794D01*
X102595506Y-59616668D01*
X96022238Y-59616668D01*
X95997438Y-59528733D01*
X95988392Y-59510389D01*
X95903998Y-59339255D01*
X95903994Y-59339249D01*
X95902291Y-59335795D01*
X95773578Y-59163427D01*
X95746380Y-59138285D01*
X95618432Y-59020011D01*
X95618429Y-59020009D01*
X95615608Y-59017401D01*
X95612361Y-59015352D01*
X95612358Y-59015350D01*
X95436924Y-58904659D01*
X95436922Y-58904658D01*
X95433673Y-58902608D01*
X95332841Y-58862380D01*
X95237439Y-58824319D01*
X95237436Y-58824318D01*
X95233864Y-58822893D01*
X95022875Y-58780925D01*
X94908557Y-58779428D01*
X94811618Y-58778159D01*
X94811614Y-58778159D01*
X94807770Y-58778109D01*
X94595754Y-58814540D01*
X94393928Y-58888997D01*
X94390620Y-58890965D01*
X94367603Y-58904659D01*
X94209050Y-58998988D01*
X94047312Y-59140829D01*
X94000207Y-59200581D01*
X93932889Y-59285974D01*
X93914130Y-59309769D01*
X93912340Y-59313172D01*
X93912337Y-59313176D01*
X93852200Y-59427479D01*
X93813966Y-59500150D01*
X93784344Y-59595547D01*
X93768125Y-59647783D01*
X93750173Y-59705597D01*
X93724888Y-59919229D01*
X87177580Y-59919229D01*
X87203052Y-59725740D01*
X87203398Y-59721297D01*
X87205087Y-59652227D01*
X87204959Y-59647783D01*
X87185212Y-59407597D01*
X87184091Y-59400833D01*
X87125682Y-59168293D01*
X87123465Y-59161779D01*
X87027862Y-58941909D01*
X87024612Y-58935847D01*
X86931741Y-58792291D01*
X86922112Y-58785008D01*
X86918567Y-58785187D01*
X86917951Y-58785602D01*
X86064026Y-59639527D01*
X86058923Y-59650470D01*
X85340639Y-59650470D01*
X85341077Y-59649530D01*
X85339283Y-59642836D01*
X84487613Y-58791166D01*
X84476670Y-58786063D01*
X84472762Y-58787111D01*
X84393232Y-58903698D01*
X84389837Y-58909674D01*
X84288887Y-59127152D01*
X84286514Y-59133601D01*
X84222441Y-59364639D01*
X84221152Y-59371400D01*
X84195675Y-59609794D01*
X84195506Y-59616668D01*
X77622238Y-59616668D01*
X77597438Y-59528733D01*
X77588392Y-59510389D01*
X77503998Y-59339255D01*
X77503994Y-59339249D01*
X77502291Y-59335795D01*
X77373578Y-59163427D01*
X77346380Y-59138285D01*
X77230496Y-59031163D01*
X78431360Y-59031163D01*
X78432136Y-59037097D01*
X78432136Y-59037098D01*
X78449292Y-59168293D01*
X78450428Y-59176983D01*
X78509656Y-59311590D01*
X78513505Y-59316169D01*
X78513507Y-59316172D01*
X78600431Y-59419580D01*
X78600433Y-59419582D01*
X78604284Y-59424163D01*
X78726703Y-59505652D01*
X78867073Y-59549507D01*
X78873050Y-59549617D01*
X78873053Y-59549617D01*
X78947527Y-59550982D01*
X79014109Y-59552202D01*
X79019881Y-59550628D01*
X79019884Y-59550628D01*
X79150219Y-59515094D01*
X79150220Y-59515094D01*
X79155992Y-59513520D01*
X79161090Y-59510390D01*
X79161092Y-59510389D01*
X79276216Y-59439702D01*
X79276217Y-59439701D01*
X79281315Y-59436571D01*
X79285328Y-59432137D01*
X79285331Y-59432135D01*
X79346425Y-59364639D01*
X79380004Y-59327542D01*
X79386965Y-59313176D01*
X79441517Y-59200581D01*
X79444126Y-59195196D01*
X79468524Y-59050172D01*
X79468679Y-59037500D01*
X79468219Y-59034287D01*
X79448679Y-58897844D01*
X79448679Y-58897843D01*
X79447831Y-58891924D01*
X79386962Y-58758051D01*
X79290967Y-58646642D01*
X79279662Y-58639314D01*
X79172583Y-58569910D01*
X79167561Y-58566655D01*
X79161831Y-58564941D01*
X79161828Y-58564940D01*
X79032398Y-58526232D01*
X79032396Y-58526232D01*
X79026666Y-58524518D01*
X79020686Y-58524481D01*
X79020683Y-58524481D01*
X78951318Y-58524058D01*
X78879607Y-58523620D01*
X78738208Y-58564032D01*
X78613834Y-58642506D01*
X78516484Y-58752733D01*
X78513943Y-58758144D01*
X78513943Y-58758145D01*
X78503248Y-58780925D01*
X78453985Y-58885853D01*
X78453065Y-58891764D01*
X78453064Y-58891766D01*
X78451057Y-58904659D01*
X78431360Y-59031163D01*
X77230496Y-59031163D01*
X77218432Y-59020011D01*
X77218429Y-59020009D01*
X77215608Y-59017401D01*
X77212361Y-59015352D01*
X77212358Y-59015350D01*
X77036924Y-58904659D01*
X77036922Y-58904658D01*
X77033673Y-58902608D01*
X76932841Y-58862380D01*
X76837439Y-58824319D01*
X76837436Y-58824318D01*
X76833864Y-58822893D01*
X76622875Y-58780925D01*
X76508557Y-58779428D01*
X76411618Y-58778159D01*
X76411614Y-58778159D01*
X76407770Y-58778109D01*
X76195754Y-58814540D01*
X75993928Y-58888997D01*
X75990620Y-58890965D01*
X75967603Y-58904659D01*
X75809050Y-58998988D01*
X75647312Y-59140829D01*
X75600207Y-59200581D01*
X75532889Y-59285974D01*
X75514130Y-59309769D01*
X75512340Y-59313172D01*
X75512337Y-59313176D01*
X75452200Y-59427479D01*
X75413966Y-59500150D01*
X75384344Y-59595547D01*
X75368125Y-59647783D01*
X75350173Y-59705597D01*
X75324888Y-59919229D01*
X68777580Y-59919229D01*
X68803052Y-59725740D01*
X68803398Y-59721297D01*
X68805087Y-59652227D01*
X68804959Y-59647783D01*
X68785212Y-59407597D01*
X68784091Y-59400833D01*
X68725682Y-59168293D01*
X68723465Y-59161779D01*
X68627862Y-58941909D01*
X68624612Y-58935847D01*
X68531741Y-58792291D01*
X68522112Y-58785008D01*
X68518567Y-58785187D01*
X68517951Y-58785602D01*
X67664026Y-59639527D01*
X67658923Y-59650470D01*
X66940639Y-59650470D01*
X66941077Y-59649530D01*
X66939283Y-59642836D01*
X66087613Y-58791166D01*
X66076670Y-58786063D01*
X66072762Y-58787111D01*
X65993232Y-58903698D01*
X65989837Y-58909674D01*
X65888887Y-59127152D01*
X65886514Y-59133601D01*
X65822441Y-59364639D01*
X65821152Y-59371400D01*
X65795675Y-59609794D01*
X65795506Y-59616668D01*
X58157739Y-59616668D01*
X58157739Y-58428198D01*
X66435781Y-58428198D01*
X66436336Y-58432783D01*
X67289527Y-59285974D01*
X67300470Y-59291077D01*
X67307164Y-59289283D01*
X68159994Y-58436453D01*
X68163844Y-58428198D01*
X84835781Y-58428198D01*
X84836336Y-58432783D01*
X85689527Y-59285974D01*
X85700470Y-59291077D01*
X85707164Y-59289283D01*
X86559994Y-58436453D01*
X86565097Y-58425510D01*
X86563815Y-58420726D01*
X86535633Y-58398469D01*
X86529918Y-58394672D01*
X86320010Y-58278797D01*
X86313743Y-58275980D01*
X86087733Y-58195945D01*
X86081085Y-58194189D01*
X85845042Y-58152144D01*
X85838200Y-58151497D01*
X85598452Y-58148567D01*
X85591597Y-58149047D01*
X85354595Y-58185313D01*
X85347911Y-58186906D01*
X85120007Y-58261396D01*
X85113681Y-58264055D01*
X84901006Y-58374767D01*
X84895188Y-58378431D01*
X84842374Y-58418084D01*
X84835781Y-58428198D01*
X68163844Y-58428198D01*
X68165097Y-58425510D01*
X68163815Y-58420726D01*
X68135633Y-58398469D01*
X68129918Y-58394672D01*
X67920010Y-58278797D01*
X67913743Y-58275980D01*
X67687733Y-58195945D01*
X67681085Y-58194189D01*
X67445042Y-58152144D01*
X67438200Y-58151497D01*
X67198452Y-58148567D01*
X67191597Y-58149047D01*
X66954595Y-58185313D01*
X66947911Y-58186906D01*
X66720007Y-58261396D01*
X66713681Y-58264055D01*
X66501006Y-58374767D01*
X66495188Y-58378431D01*
X66442374Y-58418084D01*
X66435781Y-58428198D01*
X58157739Y-58428198D01*
X58157739Y-58093663D01*
X96631360Y-58093663D01*
X96632136Y-58099597D01*
X96632136Y-58099598D01*
X96643345Y-58185313D01*
X96650428Y-58239483D01*
X96709656Y-58374090D01*
X96713505Y-58378669D01*
X96713507Y-58378672D01*
X96800431Y-58482080D01*
X96800433Y-58482082D01*
X96804284Y-58486663D01*
X96926703Y-58568152D01*
X97067073Y-58612007D01*
X97073050Y-58612117D01*
X97073053Y-58612117D01*
X97147527Y-58613482D01*
X97214109Y-58614702D01*
X97219881Y-58613128D01*
X97219884Y-58613128D01*
X97350219Y-58577594D01*
X97350220Y-58577594D01*
X97355992Y-58576020D01*
X97361090Y-58572890D01*
X97361092Y-58572889D01*
X97476216Y-58502202D01*
X97476217Y-58502201D01*
X97481315Y-58499071D01*
X97485328Y-58494637D01*
X97485331Y-58494635D01*
X97575991Y-58394475D01*
X97580004Y-58390042D01*
X97598566Y-58351731D01*
X97639794Y-58311708D01*
X97697103Y-58307550D01*
X97743677Y-58341202D01*
X97751046Y-58354523D01*
X97759656Y-58374090D01*
X97763505Y-58378669D01*
X97763507Y-58378672D01*
X97850431Y-58482080D01*
X97850433Y-58482082D01*
X97854284Y-58486663D01*
X97976703Y-58568152D01*
X98117073Y-58612007D01*
X98123050Y-58612117D01*
X98123053Y-58612117D01*
X98197527Y-58613482D01*
X98264109Y-58614702D01*
X98269881Y-58613128D01*
X98269884Y-58613128D01*
X98400219Y-58577594D01*
X98400220Y-58577594D01*
X98405992Y-58576020D01*
X98411090Y-58572890D01*
X98411092Y-58572889D01*
X98526216Y-58502202D01*
X98526217Y-58502201D01*
X98531315Y-58499071D01*
X98535328Y-58494637D01*
X98535331Y-58494635D01*
X98625991Y-58394475D01*
X98630004Y-58390042D01*
X98648566Y-58351731D01*
X98689794Y-58311708D01*
X98747103Y-58307550D01*
X98793677Y-58341202D01*
X98801046Y-58354523D01*
X98809656Y-58374090D01*
X98813505Y-58378669D01*
X98813507Y-58378672D01*
X98900431Y-58482080D01*
X98900433Y-58482082D01*
X98904284Y-58486663D01*
X99026703Y-58568152D01*
X99167073Y-58612007D01*
X99173050Y-58612117D01*
X99173053Y-58612117D01*
X99247527Y-58613482D01*
X99314109Y-58614702D01*
X99319881Y-58613128D01*
X99319884Y-58613128D01*
X99450219Y-58577594D01*
X99450220Y-58577594D01*
X99455992Y-58576020D01*
X99461090Y-58572890D01*
X99461092Y-58572889D01*
X99576216Y-58502202D01*
X99576217Y-58502201D01*
X99581315Y-58499071D01*
X99585328Y-58494637D01*
X99585331Y-58494635D01*
X99645467Y-58428198D01*
X103235781Y-58428198D01*
X103236336Y-58432783D01*
X104089527Y-59285974D01*
X104100470Y-59291077D01*
X104107164Y-59289283D01*
X104959994Y-58436453D01*
X104965097Y-58425510D01*
X104963815Y-58420726D01*
X104935633Y-58398469D01*
X104929918Y-58394672D01*
X104720010Y-58278797D01*
X104713743Y-58275980D01*
X104487733Y-58195945D01*
X104481085Y-58194189D01*
X104245042Y-58152144D01*
X104238200Y-58151497D01*
X103998452Y-58148567D01*
X103991597Y-58149047D01*
X103754595Y-58185313D01*
X103747911Y-58186906D01*
X103520007Y-58261396D01*
X103513681Y-58264055D01*
X103301006Y-58374767D01*
X103295188Y-58378431D01*
X103242374Y-58418084D01*
X103235781Y-58428198D01*
X99645467Y-58428198D01*
X99675991Y-58394475D01*
X99680004Y-58390042D01*
X99744126Y-58257696D01*
X99762405Y-58149047D01*
X99767986Y-58115870D01*
X99768524Y-58112672D01*
X99768679Y-58100000D01*
X99768219Y-58096787D01*
X99748679Y-57960344D01*
X99748679Y-57960343D01*
X99747831Y-57954424D01*
X99686962Y-57820551D01*
X99590967Y-57709142D01*
X99579662Y-57701814D01*
X99472583Y-57632410D01*
X99467561Y-57629155D01*
X99461831Y-57627441D01*
X99461828Y-57627440D01*
X99332398Y-57588732D01*
X99332396Y-57588732D01*
X99326666Y-57587018D01*
X99320686Y-57586981D01*
X99320683Y-57586981D01*
X99251318Y-57586558D01*
X99179607Y-57586120D01*
X99173851Y-57587765D01*
X99085108Y-57613128D01*
X99038208Y-57626532D01*
X98913834Y-57705006D01*
X98816484Y-57815233D01*
X98813943Y-57820644D01*
X98813943Y-57820645D01*
X98801315Y-57847542D01*
X98760579Y-57888065D01*
X98703325Y-57892924D01*
X98656343Y-57859843D01*
X98648811Y-57846611D01*
X98639439Y-57825999D01*
X98636962Y-57820551D01*
X98540967Y-57709142D01*
X98529662Y-57701814D01*
X98422583Y-57632410D01*
X98417561Y-57629155D01*
X98411831Y-57627441D01*
X98411828Y-57627440D01*
X98282398Y-57588732D01*
X98282396Y-57588732D01*
X98276666Y-57587018D01*
X98270686Y-57586981D01*
X98270683Y-57586981D01*
X98201318Y-57586558D01*
X98129607Y-57586120D01*
X98123851Y-57587765D01*
X98035108Y-57613128D01*
X97988208Y-57626532D01*
X97863834Y-57705006D01*
X97766484Y-57815233D01*
X97763943Y-57820644D01*
X97763943Y-57820645D01*
X97751315Y-57847542D01*
X97710579Y-57888065D01*
X97653325Y-57892924D01*
X97606343Y-57859843D01*
X97598811Y-57846611D01*
X97589439Y-57825999D01*
X97586962Y-57820551D01*
X97490967Y-57709142D01*
X97479662Y-57701814D01*
X97372583Y-57632410D01*
X97367561Y-57629155D01*
X97361831Y-57627441D01*
X97361828Y-57627440D01*
X97232398Y-57588732D01*
X97232396Y-57588732D01*
X97226666Y-57587018D01*
X97220686Y-57586981D01*
X97220683Y-57586981D01*
X97151318Y-57586558D01*
X97079607Y-57586120D01*
X97073851Y-57587765D01*
X96985108Y-57613128D01*
X96938208Y-57626532D01*
X96813834Y-57705006D01*
X96716484Y-57815233D01*
X96653985Y-57948353D01*
X96653065Y-57954264D01*
X96653064Y-57954266D01*
X96652118Y-57960344D01*
X96631360Y-58093663D01*
X58157739Y-58093663D01*
X58157739Y-57093663D01*
X82231360Y-57093663D01*
X82250428Y-57239483D01*
X82309656Y-57374090D01*
X82313505Y-57378669D01*
X82313507Y-57378672D01*
X82400431Y-57482080D01*
X82400433Y-57482082D01*
X82404284Y-57486663D01*
X82526703Y-57568152D01*
X82667073Y-57612007D01*
X82673050Y-57612117D01*
X82673053Y-57612117D01*
X82747527Y-57613482D01*
X82814109Y-57614702D01*
X82819881Y-57613128D01*
X82819884Y-57613128D01*
X82950219Y-57577594D01*
X82950220Y-57577594D01*
X82955992Y-57576020D01*
X82961090Y-57572890D01*
X82961092Y-57572889D01*
X83076216Y-57502202D01*
X83076217Y-57502201D01*
X83081315Y-57499071D01*
X83085328Y-57494637D01*
X83085331Y-57494635D01*
X83175991Y-57394475D01*
X83180004Y-57390042D01*
X83244126Y-57257696D01*
X83268524Y-57112672D01*
X83268679Y-57100000D01*
X83268219Y-57096787D01*
X83248679Y-56960344D01*
X83248679Y-56960343D01*
X83247831Y-56954424D01*
X83186962Y-56820551D01*
X83090967Y-56709142D01*
X83079662Y-56701814D01*
X82972583Y-56632410D01*
X82967561Y-56629155D01*
X82961831Y-56627441D01*
X82961828Y-56627440D01*
X82832398Y-56588732D01*
X82832396Y-56588732D01*
X82826666Y-56587018D01*
X82820686Y-56586981D01*
X82820683Y-56586981D01*
X82751318Y-56586558D01*
X82679607Y-56586120D01*
X82538208Y-56626532D01*
X82413834Y-56705006D01*
X82316484Y-56815233D01*
X82253985Y-56948353D01*
X82253065Y-56954264D01*
X82253064Y-56954266D01*
X82252118Y-56960344D01*
X82231360Y-57093663D01*
X58157739Y-57093663D01*
X58157739Y-54619229D01*
X66124888Y-54619229D01*
X66138958Y-54833891D01*
X66191911Y-55042395D01*
X66281974Y-55237757D01*
X66406131Y-55413436D01*
X66560224Y-55563547D01*
X66739093Y-55683063D01*
X66880021Y-55743610D01*
X66885733Y-55746064D01*
X66936746Y-55767981D01*
X67042007Y-55791799D01*
X67142808Y-55814608D01*
X67142809Y-55814608D01*
X67146565Y-55815458D01*
X67268982Y-55820268D01*
X67357673Y-55823753D01*
X67357676Y-55823753D01*
X67361522Y-55823904D01*
X67365328Y-55823352D01*
X67365331Y-55823352D01*
X67434641Y-55813302D01*
X67574419Y-55793035D01*
X67578058Y-55791800D01*
X67578061Y-55791799D01*
X67774475Y-55725125D01*
X67778125Y-55723886D01*
X67965819Y-55618773D01*
X68131215Y-55481215D01*
X68268773Y-55315819D01*
X68373886Y-55128125D01*
X68401800Y-55045893D01*
X68441799Y-54928061D01*
X68441800Y-54928058D01*
X68443035Y-54924419D01*
X68473904Y-54711522D01*
X68475515Y-54650000D01*
X68472688Y-54619229D01*
X69924888Y-54619229D01*
X69938958Y-54833891D01*
X69991911Y-55042395D01*
X70081974Y-55237757D01*
X70206131Y-55413436D01*
X70360224Y-55563547D01*
X70539093Y-55683063D01*
X70680021Y-55743610D01*
X70685733Y-55746064D01*
X70736746Y-55767981D01*
X70842007Y-55791799D01*
X70942808Y-55814608D01*
X70942809Y-55814608D01*
X70946565Y-55815458D01*
X71068982Y-55820268D01*
X71157673Y-55823753D01*
X71157676Y-55823753D01*
X71161522Y-55823904D01*
X71165328Y-55823352D01*
X71165331Y-55823352D01*
X71234641Y-55813302D01*
X71374419Y-55793035D01*
X71378058Y-55791800D01*
X71378061Y-55791799D01*
X71574475Y-55725125D01*
X71578125Y-55723886D01*
X71765819Y-55618773D01*
X71877225Y-55526118D01*
X75633275Y-55526118D01*
X75634624Y-55531150D01*
X75639660Y-55534676D01*
X75846676Y-55655647D01*
X75852867Y-55658613D01*
X76076857Y-55744147D01*
X76083456Y-55746064D01*
X76318412Y-55793867D01*
X76325224Y-55794679D01*
X76564841Y-55803466D01*
X76571692Y-55803155D01*
X76809520Y-55772688D01*
X76816236Y-55771260D01*
X77045882Y-55702363D01*
X77052294Y-55699850D01*
X77267600Y-55594373D01*
X77273507Y-55590852D01*
X77357048Y-55531262D01*
X77363888Y-55521309D01*
X77363476Y-55517029D01*
X76510473Y-54664026D01*
X76499530Y-54658923D01*
X76492836Y-54660717D01*
X75638378Y-55515175D01*
X75633275Y-55526118D01*
X71877225Y-55526118D01*
X71931215Y-55481215D01*
X72068773Y-55315819D01*
X72173886Y-55128125D01*
X72201800Y-55045893D01*
X72241799Y-54928061D01*
X72241800Y-54928058D01*
X72243035Y-54924419D01*
X72273904Y-54711522D01*
X72275515Y-54650000D01*
X72255831Y-54435779D01*
X72208137Y-54266668D01*
X74995506Y-54266668D01*
X75009309Y-54506041D01*
X75010264Y-54512832D01*
X75062977Y-54746740D01*
X75065030Y-54753292D01*
X75155233Y-54975434D01*
X75158335Y-54981576D01*
X75267068Y-55159011D01*
X75276518Y-55166528D01*
X75279515Y-55166449D01*
X75280918Y-55165529D01*
X76135974Y-54310473D01*
X76140639Y-54300470D01*
X76858923Y-54300470D01*
X76860717Y-54307164D01*
X77712200Y-55158647D01*
X77723143Y-55163750D01*
X77727340Y-55162625D01*
X77788149Y-55078001D01*
X77791684Y-55072118D01*
X77897919Y-54857167D01*
X77900447Y-54850780D01*
X77970146Y-54621376D01*
X77970610Y-54619229D01*
X84524888Y-54619229D01*
X84538958Y-54833891D01*
X84591911Y-55042395D01*
X84681974Y-55237757D01*
X84806131Y-55413436D01*
X84960224Y-55563547D01*
X85139093Y-55683063D01*
X85280021Y-55743610D01*
X85285733Y-55746064D01*
X85336746Y-55767981D01*
X85442007Y-55791799D01*
X85542808Y-55814608D01*
X85542809Y-55814608D01*
X85546565Y-55815458D01*
X85668982Y-55820268D01*
X85757673Y-55823753D01*
X85757676Y-55823753D01*
X85761522Y-55823904D01*
X85765328Y-55823352D01*
X85765331Y-55823352D01*
X85834641Y-55813302D01*
X85974419Y-55793035D01*
X85978058Y-55791800D01*
X85978061Y-55791799D01*
X86174475Y-55725125D01*
X86178125Y-55723886D01*
X86365819Y-55618773D01*
X86477225Y-55526118D01*
X94033275Y-55526118D01*
X94034624Y-55531150D01*
X94039660Y-55534676D01*
X94246676Y-55655647D01*
X94252867Y-55658613D01*
X94476857Y-55744147D01*
X94483456Y-55746064D01*
X94718412Y-55793867D01*
X94725224Y-55794679D01*
X94964841Y-55803466D01*
X94971692Y-55803155D01*
X95209520Y-55772688D01*
X95216236Y-55771260D01*
X95445882Y-55702363D01*
X95452294Y-55699850D01*
X95667600Y-55594373D01*
X95673507Y-55590852D01*
X95757048Y-55531262D01*
X95763888Y-55521309D01*
X95763476Y-55517029D01*
X94910473Y-54664026D01*
X94899530Y-54658923D01*
X94892836Y-54660717D01*
X94038378Y-55515175D01*
X94033275Y-55526118D01*
X86477225Y-55526118D01*
X86531215Y-55481215D01*
X86668773Y-55315819D01*
X86773886Y-55128125D01*
X86801800Y-55045893D01*
X86841799Y-54928061D01*
X86841800Y-54928058D01*
X86843035Y-54924419D01*
X86873904Y-54711522D01*
X86875515Y-54650000D01*
X86855831Y-54435779D01*
X86808137Y-54266668D01*
X93395506Y-54266668D01*
X93409309Y-54506041D01*
X93410264Y-54512832D01*
X93462977Y-54746740D01*
X93465030Y-54753292D01*
X93555233Y-54975434D01*
X93558335Y-54981576D01*
X93667068Y-55159011D01*
X93676518Y-55166528D01*
X93679515Y-55166449D01*
X93680918Y-55165529D01*
X94535974Y-54310473D01*
X94540639Y-54300470D01*
X95258923Y-54300470D01*
X95260717Y-54307164D01*
X96112200Y-55158647D01*
X96123143Y-55163750D01*
X96127340Y-55162625D01*
X96188149Y-55078001D01*
X96191684Y-55072118D01*
X96297919Y-54857167D01*
X96300447Y-54850780D01*
X96370146Y-54621376D01*
X96370610Y-54619229D01*
X102924888Y-54619229D01*
X102938958Y-54833891D01*
X102991911Y-55042395D01*
X103081974Y-55237757D01*
X103206131Y-55413436D01*
X103360224Y-55563547D01*
X103539093Y-55683063D01*
X103680021Y-55743610D01*
X103685733Y-55746064D01*
X103736746Y-55767981D01*
X103842007Y-55791799D01*
X103942808Y-55814608D01*
X103942809Y-55814608D01*
X103946565Y-55815458D01*
X104068982Y-55820268D01*
X104157673Y-55823753D01*
X104157676Y-55823753D01*
X104161522Y-55823904D01*
X104165328Y-55823352D01*
X104165331Y-55823352D01*
X104234641Y-55813302D01*
X104374419Y-55793035D01*
X104378058Y-55791800D01*
X104378061Y-55791799D01*
X104574475Y-55725125D01*
X104578125Y-55723886D01*
X104765819Y-55618773D01*
X104931215Y-55481215D01*
X105068773Y-55315819D01*
X105173886Y-55128125D01*
X105201800Y-55045893D01*
X105241799Y-54928061D01*
X105241800Y-54928058D01*
X105243035Y-54924419D01*
X105273904Y-54711522D01*
X105275515Y-54650000D01*
X105255831Y-54435779D01*
X105197438Y-54228733D01*
X105195735Y-54225279D01*
X105103998Y-54039255D01*
X105103994Y-54039249D01*
X105102291Y-54035795D01*
X104973578Y-53863427D01*
X104887223Y-53783601D01*
X104818432Y-53720011D01*
X104818429Y-53720009D01*
X104815608Y-53717401D01*
X104812361Y-53715352D01*
X104812358Y-53715350D01*
X104636924Y-53604659D01*
X104636922Y-53604658D01*
X104633673Y-53602608D01*
X104511078Y-53553698D01*
X104437439Y-53524319D01*
X104437436Y-53524318D01*
X104433864Y-53522893D01*
X104222875Y-53480925D01*
X104108557Y-53479428D01*
X104011618Y-53478159D01*
X104011614Y-53478159D01*
X104007770Y-53478109D01*
X103795754Y-53514540D01*
X103593928Y-53588997D01*
X103590620Y-53590965D01*
X103567603Y-53604659D01*
X103409050Y-53698988D01*
X103247312Y-53840829D01*
X103114130Y-54009769D01*
X103112340Y-54013172D01*
X103112337Y-54013176D01*
X103019843Y-54188981D01*
X103013966Y-54200150D01*
X103005091Y-54228733D01*
X102959444Y-54375740D01*
X102950173Y-54405597D01*
X102924888Y-54619229D01*
X96370610Y-54619229D01*
X96371600Y-54614652D01*
X96403052Y-54375740D01*
X96403398Y-54371297D01*
X96405087Y-54302227D01*
X96404959Y-54297783D01*
X96385212Y-54057597D01*
X96384091Y-54050833D01*
X96325682Y-53818293D01*
X96323465Y-53811779D01*
X96227862Y-53591909D01*
X96224612Y-53585847D01*
X96131741Y-53442291D01*
X96122112Y-53435008D01*
X96118567Y-53435187D01*
X96117951Y-53435602D01*
X95264026Y-54289527D01*
X95258923Y-54300470D01*
X94540639Y-54300470D01*
X94541077Y-54299530D01*
X94539283Y-54292836D01*
X93687613Y-53441166D01*
X93676670Y-53436063D01*
X93672762Y-53437111D01*
X93593232Y-53553698D01*
X93589837Y-53559674D01*
X93488887Y-53777152D01*
X93486514Y-53783601D01*
X93422441Y-54014639D01*
X93421152Y-54021400D01*
X93395675Y-54259794D01*
X93395506Y-54266668D01*
X86808137Y-54266668D01*
X86797438Y-54228733D01*
X86795735Y-54225279D01*
X86703998Y-54039255D01*
X86703994Y-54039249D01*
X86702291Y-54035795D01*
X86573578Y-53863427D01*
X86487223Y-53783601D01*
X86418432Y-53720011D01*
X86418429Y-53720009D01*
X86415608Y-53717401D01*
X86412361Y-53715352D01*
X86412358Y-53715350D01*
X86236924Y-53604659D01*
X86236922Y-53604658D01*
X86233673Y-53602608D01*
X86111078Y-53553698D01*
X86037439Y-53524319D01*
X86037436Y-53524318D01*
X86033864Y-53522893D01*
X85822875Y-53480925D01*
X85708557Y-53479428D01*
X85611618Y-53478159D01*
X85611614Y-53478159D01*
X85607770Y-53478109D01*
X85395754Y-53514540D01*
X85193928Y-53588997D01*
X85190620Y-53590965D01*
X85167603Y-53604659D01*
X85009050Y-53698988D01*
X84847312Y-53840829D01*
X84714130Y-54009769D01*
X84712340Y-54013172D01*
X84712337Y-54013176D01*
X84619843Y-54188981D01*
X84613966Y-54200150D01*
X84605091Y-54228733D01*
X84559444Y-54375740D01*
X84550173Y-54405597D01*
X84524888Y-54619229D01*
X77970610Y-54619229D01*
X77971600Y-54614652D01*
X78003052Y-54375740D01*
X78003398Y-54371297D01*
X78005087Y-54302227D01*
X78004959Y-54297783D01*
X77985212Y-54057597D01*
X77984091Y-54050833D01*
X77925682Y-53818293D01*
X77923465Y-53811779D01*
X77827862Y-53591909D01*
X77824612Y-53585847D01*
X77731741Y-53442291D01*
X77722112Y-53435008D01*
X77718567Y-53435187D01*
X77717951Y-53435602D01*
X76864026Y-54289527D01*
X76858923Y-54300470D01*
X76140639Y-54300470D01*
X76141077Y-54299530D01*
X76139283Y-54292836D01*
X75287613Y-53441166D01*
X75276670Y-53436063D01*
X75272762Y-53437111D01*
X75193232Y-53553698D01*
X75189837Y-53559674D01*
X75088887Y-53777152D01*
X75086514Y-53783601D01*
X75022441Y-54014639D01*
X75021152Y-54021400D01*
X74995675Y-54259794D01*
X74995506Y-54266668D01*
X72208137Y-54266668D01*
X72197438Y-54228733D01*
X72195735Y-54225279D01*
X72103998Y-54039255D01*
X72103994Y-54039249D01*
X72102291Y-54035795D01*
X71973578Y-53863427D01*
X71887223Y-53783601D01*
X71818432Y-53720011D01*
X71818429Y-53720009D01*
X71815608Y-53717401D01*
X71812361Y-53715352D01*
X71812358Y-53715350D01*
X71636924Y-53604659D01*
X71636922Y-53604658D01*
X71633673Y-53602608D01*
X71511078Y-53553698D01*
X71437439Y-53524319D01*
X71437436Y-53524318D01*
X71433864Y-53522893D01*
X71222875Y-53480925D01*
X71108557Y-53479428D01*
X71011618Y-53478159D01*
X71011614Y-53478159D01*
X71007770Y-53478109D01*
X70795754Y-53514540D01*
X70593928Y-53588997D01*
X70590620Y-53590965D01*
X70567603Y-53604659D01*
X70409050Y-53698988D01*
X70247312Y-53840829D01*
X70114130Y-54009769D01*
X70112340Y-54013172D01*
X70112337Y-54013176D01*
X70019843Y-54188981D01*
X70013966Y-54200150D01*
X70005091Y-54228733D01*
X69959444Y-54375740D01*
X69950173Y-54405597D01*
X69924888Y-54619229D01*
X68472688Y-54619229D01*
X68455831Y-54435779D01*
X68397438Y-54228733D01*
X68395735Y-54225279D01*
X68303998Y-54039255D01*
X68303994Y-54039249D01*
X68302291Y-54035795D01*
X68173578Y-53863427D01*
X68087223Y-53783601D01*
X68018432Y-53720011D01*
X68018429Y-53720009D01*
X68015608Y-53717401D01*
X68012361Y-53715352D01*
X68012358Y-53715350D01*
X67836924Y-53604659D01*
X67836922Y-53604658D01*
X67833673Y-53602608D01*
X67711078Y-53553698D01*
X67637439Y-53524319D01*
X67637436Y-53524318D01*
X67633864Y-53522893D01*
X67422875Y-53480925D01*
X67308557Y-53479428D01*
X67211618Y-53478159D01*
X67211614Y-53478159D01*
X67207770Y-53478109D01*
X66995754Y-53514540D01*
X66793928Y-53588997D01*
X66790620Y-53590965D01*
X66767603Y-53604659D01*
X66609050Y-53698988D01*
X66447312Y-53840829D01*
X66314130Y-54009769D01*
X66312340Y-54013172D01*
X66312337Y-54013176D01*
X66219843Y-54188981D01*
X66213966Y-54200150D01*
X66205091Y-54228733D01*
X66159444Y-54375740D01*
X66150173Y-54405597D01*
X66124888Y-54619229D01*
X58157739Y-54619229D01*
X58157739Y-53078198D01*
X75635781Y-53078198D01*
X75636336Y-53082783D01*
X76489527Y-53935974D01*
X76500470Y-53941077D01*
X76507164Y-53939283D01*
X77359994Y-53086453D01*
X77363844Y-53078198D01*
X94035781Y-53078198D01*
X94036336Y-53082783D01*
X94889527Y-53935974D01*
X94900470Y-53941077D01*
X94907164Y-53939283D01*
X95759994Y-53086453D01*
X95765097Y-53075510D01*
X95763815Y-53070726D01*
X95735633Y-53048469D01*
X95729918Y-53044672D01*
X95520010Y-52928797D01*
X95513743Y-52925980D01*
X95287733Y-52845945D01*
X95281085Y-52844189D01*
X95045042Y-52802144D01*
X95038200Y-52801497D01*
X94798452Y-52798567D01*
X94791597Y-52799047D01*
X94554595Y-52835313D01*
X94547911Y-52836906D01*
X94320007Y-52911396D01*
X94313681Y-52914055D01*
X94101006Y-53024767D01*
X94095188Y-53028431D01*
X94042374Y-53068084D01*
X94035781Y-53078198D01*
X77363844Y-53078198D01*
X77365097Y-53075510D01*
X77363815Y-53070726D01*
X77335633Y-53048469D01*
X77329918Y-53044672D01*
X77120010Y-52928797D01*
X77113743Y-52925980D01*
X76887733Y-52845945D01*
X76881085Y-52844189D01*
X76645042Y-52802144D01*
X76638200Y-52801497D01*
X76398452Y-52798567D01*
X76391597Y-52799047D01*
X76154595Y-52835313D01*
X76147911Y-52836906D01*
X75920007Y-52911396D01*
X75913681Y-52914055D01*
X75701006Y-53024767D01*
X75695188Y-53028431D01*
X75642374Y-53068084D01*
X75635781Y-53078198D01*
X58157739Y-53078198D01*
X58157739Y-51393663D01*
X79481360Y-51393663D01*
X79500428Y-51539483D01*
X79559656Y-51674090D01*
X79563505Y-51678669D01*
X79563507Y-51678672D01*
X79650431Y-51782080D01*
X79650433Y-51782082D01*
X79654284Y-51786663D01*
X79776703Y-51868152D01*
X79917073Y-51912007D01*
X79923050Y-51912117D01*
X79923053Y-51912117D01*
X79997527Y-51913482D01*
X80064109Y-51914702D01*
X80069881Y-51913128D01*
X80069884Y-51913128D01*
X80200219Y-51877594D01*
X80200220Y-51877594D01*
X80205992Y-51876020D01*
X80211090Y-51872890D01*
X80211092Y-51872889D01*
X80326216Y-51802202D01*
X80326217Y-51802201D01*
X80331315Y-51799071D01*
X80335328Y-51794637D01*
X80335331Y-51794635D01*
X80425991Y-51694475D01*
X80430004Y-51690042D01*
X80431616Y-51686716D01*
X80477336Y-51653499D01*
X80534655Y-51657508D01*
X80564786Y-51680193D01*
X80654284Y-51786663D01*
X80776703Y-51868152D01*
X80917073Y-51912007D01*
X80923050Y-51912117D01*
X80923053Y-51912117D01*
X80997527Y-51913482D01*
X81064109Y-51914702D01*
X81069881Y-51913128D01*
X81069884Y-51913128D01*
X81200219Y-51877594D01*
X81200220Y-51877594D01*
X81205992Y-51876020D01*
X81211090Y-51872890D01*
X81211092Y-51872889D01*
X81326216Y-51802202D01*
X81326217Y-51802201D01*
X81331315Y-51799071D01*
X81335328Y-51794637D01*
X81335331Y-51794635D01*
X81425991Y-51694475D01*
X81430004Y-51690042D01*
X81494126Y-51557696D01*
X81518524Y-51412672D01*
X81518679Y-51400000D01*
X81518219Y-51396787D01*
X81498679Y-51260344D01*
X81498679Y-51260343D01*
X81497831Y-51254424D01*
X81436962Y-51120551D01*
X81340967Y-51009142D01*
X81329662Y-51001814D01*
X81222583Y-50932410D01*
X81217561Y-50929155D01*
X81211831Y-50927441D01*
X81211828Y-50927440D01*
X81082398Y-50888732D01*
X81082396Y-50888732D01*
X81076666Y-50887018D01*
X81070686Y-50886981D01*
X81070683Y-50886981D01*
X81001318Y-50886558D01*
X80929607Y-50886120D01*
X80788208Y-50926532D01*
X80663834Y-51005006D01*
X80566484Y-51115233D01*
X80565662Y-51114507D01*
X80524125Y-51145468D01*
X80466761Y-51142160D01*
X80436351Y-51119842D01*
X80428844Y-51111129D01*
X80340967Y-51009142D01*
X80329662Y-51001814D01*
X80222583Y-50932410D01*
X80217561Y-50929155D01*
X80211831Y-50927441D01*
X80211828Y-50927440D01*
X80082398Y-50888732D01*
X80082396Y-50888732D01*
X80076666Y-50887018D01*
X80070686Y-50886981D01*
X80070683Y-50886981D01*
X80001318Y-50886558D01*
X79929607Y-50886120D01*
X79788208Y-50926532D01*
X79663834Y-51005006D01*
X79566484Y-51115233D01*
X79503985Y-51248353D01*
X79503065Y-51254264D01*
X79503064Y-51254266D01*
X79502118Y-51260344D01*
X79481360Y-51393663D01*
X58157739Y-51393663D01*
X58157739Y-50226118D01*
X66433275Y-50226118D01*
X66434624Y-50231150D01*
X66439660Y-50234676D01*
X66646676Y-50355647D01*
X66652867Y-50358613D01*
X66876857Y-50444147D01*
X66883456Y-50446064D01*
X67118412Y-50493867D01*
X67125224Y-50494679D01*
X67364841Y-50503466D01*
X67371692Y-50503155D01*
X67609520Y-50472688D01*
X67616236Y-50471260D01*
X67845882Y-50402363D01*
X67852294Y-50399850D01*
X68067600Y-50294373D01*
X68073507Y-50290852D01*
X68157048Y-50231262D01*
X68163888Y-50221309D01*
X68163476Y-50217029D01*
X67310473Y-49364026D01*
X67299530Y-49358923D01*
X67292836Y-49360717D01*
X66438378Y-50215175D01*
X66433275Y-50226118D01*
X58157739Y-50226118D01*
X58157739Y-48966668D01*
X65795506Y-48966668D01*
X65809309Y-49206041D01*
X65810264Y-49212832D01*
X65862977Y-49446740D01*
X65865030Y-49453292D01*
X65955233Y-49675434D01*
X65958335Y-49681576D01*
X66067068Y-49859011D01*
X66076518Y-49866528D01*
X66079515Y-49866449D01*
X66080918Y-49865529D01*
X66935974Y-49010473D01*
X66940639Y-49000470D01*
X67658923Y-49000470D01*
X67660717Y-49007164D01*
X68512200Y-49858647D01*
X68523143Y-49863750D01*
X68527340Y-49862625D01*
X68588149Y-49778001D01*
X68591684Y-49772118D01*
X68697919Y-49557167D01*
X68700447Y-49550780D01*
X68770146Y-49321376D01*
X68771600Y-49314652D01*
X68777580Y-49269229D01*
X75324888Y-49269229D01*
X75338958Y-49483891D01*
X75391911Y-49692395D01*
X75481974Y-49887757D01*
X75606131Y-50063436D01*
X75760224Y-50213547D01*
X75939093Y-50333063D01*
X76136746Y-50417981D01*
X76242007Y-50441799D01*
X76342808Y-50464608D01*
X76342809Y-50464608D01*
X76346565Y-50465458D01*
X76468982Y-50470268D01*
X76557673Y-50473753D01*
X76557676Y-50473753D01*
X76561522Y-50473904D01*
X76565328Y-50473352D01*
X76565331Y-50473352D01*
X76634641Y-50463302D01*
X76774419Y-50443035D01*
X76778058Y-50441800D01*
X76778061Y-50441799D01*
X76974475Y-50375125D01*
X76978125Y-50373886D01*
X77165819Y-50268773D01*
X77217106Y-50226118D01*
X84833275Y-50226118D01*
X84834624Y-50231150D01*
X84839660Y-50234676D01*
X85046676Y-50355647D01*
X85052867Y-50358613D01*
X85276857Y-50444147D01*
X85283456Y-50446064D01*
X85518412Y-50493867D01*
X85525224Y-50494679D01*
X85764841Y-50503466D01*
X85771692Y-50503155D01*
X86009520Y-50472688D01*
X86016236Y-50471260D01*
X86245882Y-50402363D01*
X86252294Y-50399850D01*
X86467600Y-50294373D01*
X86473507Y-50290852D01*
X86557048Y-50231262D01*
X86563888Y-50221309D01*
X86563476Y-50217029D01*
X85710473Y-49364026D01*
X85699530Y-49358923D01*
X85692836Y-49360717D01*
X84838378Y-50215175D01*
X84833275Y-50226118D01*
X77217106Y-50226118D01*
X77331215Y-50131215D01*
X77468773Y-49965819D01*
X77573886Y-49778125D01*
X77600406Y-49700000D01*
X77641799Y-49578061D01*
X77641800Y-49578058D01*
X77643035Y-49574419D01*
X77673904Y-49361522D01*
X77675515Y-49300000D01*
X77655831Y-49085779D01*
X77622238Y-48966668D01*
X84195506Y-48966668D01*
X84209309Y-49206041D01*
X84210264Y-49212832D01*
X84262977Y-49446740D01*
X84265030Y-49453292D01*
X84355233Y-49675434D01*
X84358335Y-49681576D01*
X84467068Y-49859011D01*
X84476518Y-49866528D01*
X84479515Y-49866449D01*
X84480918Y-49865529D01*
X85335974Y-49010473D01*
X85340639Y-49000470D01*
X86058923Y-49000470D01*
X86060717Y-49007164D01*
X86912200Y-49858647D01*
X86923143Y-49863750D01*
X86927340Y-49862625D01*
X86988149Y-49778001D01*
X86991684Y-49772118D01*
X87027327Y-49700000D01*
X89400000Y-49700000D01*
X91150000Y-49700000D01*
X91150000Y-49269229D01*
X93724888Y-49269229D01*
X93738958Y-49483891D01*
X93791911Y-49692395D01*
X93881974Y-49887757D01*
X94006131Y-50063436D01*
X94160224Y-50213547D01*
X94339093Y-50333063D01*
X94536746Y-50417981D01*
X94642007Y-50441799D01*
X94742808Y-50464608D01*
X94742809Y-50464608D01*
X94746565Y-50465458D01*
X94868982Y-50470268D01*
X94957673Y-50473753D01*
X94957676Y-50473753D01*
X94961522Y-50473904D01*
X94965328Y-50473352D01*
X94965331Y-50473352D01*
X95034641Y-50463302D01*
X95174419Y-50443035D01*
X95178058Y-50441800D01*
X95178061Y-50441799D01*
X95374475Y-50375125D01*
X95378125Y-50373886D01*
X95565819Y-50268773D01*
X95617106Y-50226118D01*
X103233275Y-50226118D01*
X103234624Y-50231150D01*
X103239660Y-50234676D01*
X103446676Y-50355647D01*
X103452867Y-50358613D01*
X103676857Y-50444147D01*
X103683456Y-50446064D01*
X103918412Y-50493867D01*
X103925224Y-50494679D01*
X104164841Y-50503466D01*
X104171692Y-50503155D01*
X104409520Y-50472688D01*
X104416236Y-50471260D01*
X104645882Y-50402363D01*
X104652294Y-50399850D01*
X104867600Y-50294373D01*
X104873507Y-50290852D01*
X104957048Y-50231262D01*
X104963888Y-50221309D01*
X104963476Y-50217029D01*
X104110473Y-49364026D01*
X104099530Y-49358923D01*
X104092836Y-49360717D01*
X103238378Y-50215175D01*
X103233275Y-50226118D01*
X95617106Y-50226118D01*
X95731215Y-50131215D01*
X95868773Y-49965819D01*
X95973886Y-49778125D01*
X96000406Y-49700000D01*
X96041799Y-49578061D01*
X96041800Y-49578058D01*
X96043035Y-49574419D01*
X96073904Y-49361522D01*
X96075515Y-49300000D01*
X96055831Y-49085779D01*
X96022238Y-48966668D01*
X102595506Y-48966668D01*
X102609309Y-49206041D01*
X102610264Y-49212832D01*
X102662977Y-49446740D01*
X102665030Y-49453292D01*
X102755233Y-49675434D01*
X102758335Y-49681576D01*
X102867068Y-49859011D01*
X102876518Y-49866528D01*
X102879515Y-49866449D01*
X102880918Y-49865529D01*
X103735974Y-49010473D01*
X103740639Y-49000470D01*
X104458923Y-49000470D01*
X104460717Y-49007164D01*
X105312200Y-49858647D01*
X105323143Y-49863750D01*
X105327340Y-49862625D01*
X105388149Y-49778001D01*
X105391684Y-49772118D01*
X105497919Y-49557167D01*
X105500447Y-49550780D01*
X105570146Y-49321376D01*
X105571600Y-49314652D01*
X105594110Y-49143663D01*
X110931360Y-49143663D01*
X110932136Y-49149597D01*
X110932136Y-49149598D01*
X110948282Y-49273070D01*
X110950428Y-49289483D01*
X111009656Y-49424090D01*
X111013505Y-49428669D01*
X111013507Y-49428672D01*
X111100431Y-49532080D01*
X111100433Y-49532082D01*
X111104284Y-49536663D01*
X111226703Y-49618152D01*
X111367073Y-49662007D01*
X111373050Y-49662117D01*
X111373053Y-49662117D01*
X111447527Y-49663482D01*
X111514109Y-49664702D01*
X111519881Y-49663128D01*
X111519884Y-49663128D01*
X111650219Y-49627594D01*
X111650220Y-49627594D01*
X111655992Y-49626020D01*
X111661090Y-49622890D01*
X111661092Y-49622889D01*
X111776216Y-49552202D01*
X111776217Y-49552201D01*
X111781315Y-49549071D01*
X111785328Y-49544637D01*
X111785331Y-49544635D01*
X111843798Y-49480041D01*
X111880004Y-49440042D01*
X111919307Y-49358923D01*
X111941517Y-49313081D01*
X111944126Y-49307696D01*
X111950598Y-49269229D01*
X111967986Y-49165870D01*
X111968524Y-49162672D01*
X111968679Y-49150000D01*
X111968219Y-49146787D01*
X111948679Y-49010344D01*
X111948679Y-49010343D01*
X111947831Y-49004424D01*
X111886962Y-48870551D01*
X111790967Y-48759142D01*
X111779662Y-48751814D01*
X111672583Y-48682410D01*
X111667561Y-48679155D01*
X111661831Y-48677441D01*
X111661828Y-48677440D01*
X111532398Y-48638732D01*
X111532396Y-48638732D01*
X111526666Y-48637018D01*
X111520686Y-48636981D01*
X111520683Y-48636981D01*
X111451318Y-48636558D01*
X111379607Y-48636120D01*
X111373851Y-48637765D01*
X111296861Y-48659769D01*
X111238208Y-48676532D01*
X111113834Y-48755006D01*
X111016484Y-48865233D01*
X110953985Y-48998353D01*
X110953065Y-49004264D01*
X110953064Y-49004266D01*
X110941936Y-49075740D01*
X110931360Y-49143663D01*
X105594110Y-49143663D01*
X105603052Y-49075740D01*
X105603398Y-49071297D01*
X105605087Y-49002227D01*
X105604959Y-48997783D01*
X105585212Y-48757597D01*
X105584091Y-48750833D01*
X105525682Y-48518293D01*
X105523465Y-48511779D01*
X105427862Y-48291909D01*
X105424612Y-48285847D01*
X105331741Y-48142291D01*
X105322112Y-48135008D01*
X105318567Y-48135187D01*
X105317951Y-48135602D01*
X104464026Y-48989527D01*
X104458923Y-49000470D01*
X103740639Y-49000470D01*
X103741077Y-48999530D01*
X103739283Y-48992836D01*
X102887613Y-48141166D01*
X102876670Y-48136063D01*
X102872762Y-48137111D01*
X102793232Y-48253698D01*
X102789837Y-48259674D01*
X102688887Y-48477152D01*
X102686514Y-48483601D01*
X102622441Y-48714639D01*
X102621152Y-48721400D01*
X102595675Y-48959794D01*
X102595506Y-48966668D01*
X96022238Y-48966668D01*
X95997438Y-48878733D01*
X95995735Y-48875279D01*
X95903998Y-48689255D01*
X95903994Y-48689249D01*
X95902291Y-48685795D01*
X95773578Y-48513427D01*
X95746380Y-48488285D01*
X95618432Y-48370011D01*
X95618429Y-48370009D01*
X95615608Y-48367401D01*
X95612361Y-48365352D01*
X95612358Y-48365350D01*
X95436924Y-48254659D01*
X95436922Y-48254658D01*
X95433673Y-48252608D01*
X95332841Y-48212380D01*
X95237439Y-48174319D01*
X95237436Y-48174318D01*
X95233864Y-48172893D01*
X95022875Y-48130925D01*
X94908557Y-48129428D01*
X94811618Y-48128159D01*
X94811614Y-48128159D01*
X94807770Y-48128109D01*
X94595754Y-48164540D01*
X94393928Y-48238997D01*
X94390620Y-48240965D01*
X94367603Y-48254659D01*
X94209050Y-48348988D01*
X94047312Y-48490829D01*
X94029497Y-48513427D01*
X93932066Y-48637018D01*
X93914130Y-48659769D01*
X93912340Y-48663172D01*
X93912337Y-48663176D01*
X93863559Y-48755888D01*
X93813966Y-48850150D01*
X93805940Y-48875999D01*
X93766063Y-49004424D01*
X93750173Y-49055597D01*
X93724888Y-49269229D01*
X91150000Y-49269229D01*
X91150000Y-47778198D01*
X103235781Y-47778198D01*
X103236336Y-47782783D01*
X104089527Y-48635974D01*
X104100470Y-48641077D01*
X104107164Y-48639283D01*
X104959994Y-47786453D01*
X104965097Y-47775510D01*
X104963815Y-47770726D01*
X104935633Y-47748469D01*
X104929918Y-47744672D01*
X104720010Y-47628797D01*
X104713743Y-47625980D01*
X104487733Y-47545945D01*
X104481085Y-47544189D01*
X104245042Y-47502144D01*
X104238200Y-47501497D01*
X103998452Y-47498567D01*
X103991597Y-47499047D01*
X103754595Y-47535313D01*
X103747911Y-47536906D01*
X103520007Y-47611396D01*
X103513681Y-47614055D01*
X103301006Y-47724767D01*
X103295188Y-47728431D01*
X103242374Y-47768084D01*
X103235781Y-47778198D01*
X91150000Y-47778198D01*
X91150000Y-44876118D01*
X93983275Y-44876118D01*
X93984624Y-44881150D01*
X93989660Y-44884676D01*
X94196676Y-45005647D01*
X94202867Y-45008613D01*
X94426857Y-45094147D01*
X94433456Y-45096064D01*
X94668412Y-45143867D01*
X94675224Y-45144679D01*
X94914841Y-45153466D01*
X94921692Y-45153155D01*
X95159520Y-45122688D01*
X95166236Y-45121260D01*
X95395882Y-45052363D01*
X95402294Y-45049850D01*
X95617600Y-44944373D01*
X95623507Y-44940852D01*
X95707048Y-44881262D01*
X95713888Y-44871309D01*
X95713476Y-44867029D01*
X94860473Y-44014026D01*
X94849530Y-44008923D01*
X94842836Y-44010717D01*
X93988378Y-44865175D01*
X93983275Y-44876118D01*
X91150000Y-44876118D01*
X91150000Y-43616668D01*
X93345506Y-43616668D01*
X93359309Y-43856041D01*
X93360264Y-43862832D01*
X93412977Y-44096740D01*
X93415030Y-44103292D01*
X93505233Y-44325434D01*
X93508335Y-44331576D01*
X93617068Y-44509011D01*
X93626518Y-44516528D01*
X93629515Y-44516449D01*
X93630918Y-44515529D01*
X94485974Y-43660473D01*
X94490639Y-43650470D01*
X95208923Y-43650470D01*
X95210717Y-43657164D01*
X96062200Y-44508647D01*
X96073143Y-44513750D01*
X96077340Y-44512625D01*
X96138149Y-44428001D01*
X96141684Y-44422118D01*
X96247919Y-44207167D01*
X96250447Y-44200780D01*
X96320146Y-43971376D01*
X96320610Y-43969229D01*
X102924888Y-43969229D01*
X102938958Y-44183891D01*
X102991911Y-44392395D01*
X103081974Y-44587757D01*
X103206131Y-44763436D01*
X103360224Y-44913547D01*
X103539093Y-45033063D01*
X103680021Y-45093610D01*
X103685733Y-45096064D01*
X103736746Y-45117981D01*
X103842007Y-45141799D01*
X103942808Y-45164608D01*
X103942809Y-45164608D01*
X103946565Y-45165458D01*
X104068982Y-45170268D01*
X104157673Y-45173753D01*
X104157676Y-45173753D01*
X104161522Y-45173904D01*
X104165328Y-45173352D01*
X104165331Y-45173352D01*
X104234641Y-45163302D01*
X104374419Y-45143035D01*
X104378058Y-45141800D01*
X104378061Y-45141799D01*
X104574475Y-45075125D01*
X104578125Y-45073886D01*
X104765819Y-44968773D01*
X104931215Y-44831215D01*
X105068773Y-44665819D01*
X105173886Y-44478125D01*
X105201800Y-44395893D01*
X105241799Y-44278061D01*
X105241800Y-44278058D01*
X105243035Y-44274419D01*
X105248333Y-44237878D01*
X109521515Y-44237878D01*
X109522672Y-44242194D01*
X109640958Y-44328925D01*
X109646225Y-44332216D01*
X109877478Y-44453885D01*
X109883188Y-44456367D01*
X110129868Y-44542512D01*
X110135886Y-44544124D01*
X110392605Y-44592863D01*
X110398775Y-44593566D01*
X110659878Y-44603825D01*
X110666092Y-44603608D01*
X110925854Y-44575159D01*
X110931950Y-44574030D01*
X111184649Y-44507499D01*
X111190537Y-44505471D01*
X111430609Y-44402328D01*
X111436127Y-44399457D01*
X111658337Y-44261949D01*
X111663353Y-44258306D01*
X111674469Y-44248896D01*
X111680460Y-44238414D01*
X111679488Y-44233041D01*
X110610473Y-43164026D01*
X110599530Y-43158923D01*
X110592836Y-43160717D01*
X109526618Y-44226935D01*
X109521515Y-44237878D01*
X105248333Y-44237878D01*
X105273904Y-44061522D01*
X105275515Y-44000000D01*
X105255831Y-43785779D01*
X105197438Y-43578733D01*
X105195735Y-43575279D01*
X105103998Y-43389255D01*
X105103994Y-43389249D01*
X105102291Y-43385795D01*
X104973578Y-43213427D01*
X104887223Y-43133601D01*
X104818432Y-43070011D01*
X104818429Y-43070009D01*
X104815608Y-43067401D01*
X104812361Y-43065352D01*
X104812358Y-43065350D01*
X104636924Y-42954659D01*
X104636922Y-42954658D01*
X104633673Y-42952608D01*
X104511078Y-42903698D01*
X104437439Y-42874319D01*
X104437436Y-42874318D01*
X104433864Y-42872893D01*
X104222875Y-42830925D01*
X104108557Y-42829428D01*
X104011618Y-42828159D01*
X104011614Y-42828159D01*
X104007770Y-42828109D01*
X103795754Y-42864540D01*
X103593928Y-42938997D01*
X103590620Y-42940965D01*
X103567603Y-42954659D01*
X103409050Y-43048988D01*
X103247312Y-43190829D01*
X103114130Y-43359769D01*
X103112340Y-43363172D01*
X103112337Y-43363176D01*
X103058865Y-43464810D01*
X103013966Y-43550150D01*
X103005091Y-43578733D01*
X102959444Y-43725740D01*
X102950173Y-43755597D01*
X102949721Y-43759416D01*
X102936410Y-43871884D01*
X102924888Y-43969229D01*
X96320610Y-43969229D01*
X96321600Y-43964652D01*
X96353052Y-43725740D01*
X96353398Y-43721297D01*
X96355087Y-43652227D01*
X96354959Y-43647783D01*
X96335212Y-43407597D01*
X96334091Y-43400833D01*
X96275682Y-43168293D01*
X96273465Y-43161779D01*
X96177862Y-42941909D01*
X96174612Y-42935847D01*
X96081741Y-42792291D01*
X96072112Y-42785008D01*
X96068567Y-42785187D01*
X96067951Y-42785602D01*
X95214026Y-43639527D01*
X95208923Y-43650470D01*
X94490639Y-43650470D01*
X94491077Y-43649530D01*
X94489283Y-43642836D01*
X93637613Y-42791166D01*
X93626670Y-42786063D01*
X93622762Y-42787111D01*
X93543232Y-42903698D01*
X93539837Y-42909674D01*
X93438887Y-43127152D01*
X93436514Y-43133601D01*
X93372441Y-43364639D01*
X93371152Y-43371400D01*
X93345675Y-43609794D01*
X93345506Y-43616668D01*
X91150000Y-43616668D01*
X91150000Y-43450000D01*
X89400000Y-43450000D01*
X89400000Y-49700000D01*
X87027327Y-49700000D01*
X87097919Y-49557167D01*
X87100447Y-49550780D01*
X87170146Y-49321376D01*
X87171600Y-49314652D01*
X87203052Y-49075740D01*
X87203398Y-49071297D01*
X87205087Y-49002227D01*
X87204959Y-48997783D01*
X87185212Y-48757597D01*
X87184091Y-48750833D01*
X87125682Y-48518293D01*
X87123465Y-48511779D01*
X87027862Y-48291909D01*
X87024612Y-48285847D01*
X86931741Y-48142291D01*
X86922112Y-48135008D01*
X86918567Y-48135187D01*
X86917951Y-48135602D01*
X86064026Y-48989527D01*
X86058923Y-49000470D01*
X85340639Y-49000470D01*
X85341077Y-48999530D01*
X85339283Y-48992836D01*
X84487613Y-48141166D01*
X84476670Y-48136063D01*
X84472762Y-48137111D01*
X84393232Y-48253698D01*
X84389837Y-48259674D01*
X84288887Y-48477152D01*
X84286514Y-48483601D01*
X84222441Y-48714639D01*
X84221152Y-48721400D01*
X84195675Y-48959794D01*
X84195506Y-48966668D01*
X77622238Y-48966668D01*
X77597438Y-48878733D01*
X77595735Y-48875279D01*
X77503998Y-48689255D01*
X77503994Y-48689249D01*
X77502291Y-48685795D01*
X77373578Y-48513427D01*
X77346380Y-48488285D01*
X77218432Y-48370011D01*
X77218429Y-48370009D01*
X77215608Y-48367401D01*
X77212361Y-48365352D01*
X77212358Y-48365350D01*
X77036924Y-48254659D01*
X77036922Y-48254658D01*
X77033673Y-48252608D01*
X76932841Y-48212380D01*
X76837439Y-48174319D01*
X76837436Y-48174318D01*
X76833864Y-48172893D01*
X76622875Y-48130925D01*
X76508557Y-48129428D01*
X76411618Y-48128159D01*
X76411614Y-48128159D01*
X76407770Y-48128109D01*
X76195754Y-48164540D01*
X75993928Y-48238997D01*
X75990620Y-48240965D01*
X75967603Y-48254659D01*
X75809050Y-48348988D01*
X75647312Y-48490829D01*
X75629497Y-48513427D01*
X75532066Y-48637018D01*
X75514130Y-48659769D01*
X75512340Y-48663172D01*
X75512337Y-48663176D01*
X75463559Y-48755888D01*
X75413966Y-48850150D01*
X75405940Y-48875999D01*
X75366063Y-49004424D01*
X75350173Y-49055597D01*
X75324888Y-49269229D01*
X68777580Y-49269229D01*
X68803052Y-49075740D01*
X68803398Y-49071297D01*
X68805087Y-49002227D01*
X68804959Y-48997783D01*
X68785212Y-48757597D01*
X68784091Y-48750833D01*
X68725682Y-48518293D01*
X68723465Y-48511779D01*
X68627862Y-48291909D01*
X68624612Y-48285847D01*
X68531741Y-48142291D01*
X68522112Y-48135008D01*
X68518567Y-48135187D01*
X68517951Y-48135602D01*
X67664026Y-48989527D01*
X67658923Y-49000470D01*
X66940639Y-49000470D01*
X66941077Y-48999530D01*
X66939283Y-48992836D01*
X66087613Y-48141166D01*
X66076670Y-48136063D01*
X66072762Y-48137111D01*
X65993232Y-48253698D01*
X65989837Y-48259674D01*
X65888887Y-48477152D01*
X65886514Y-48483601D01*
X65822441Y-48714639D01*
X65821152Y-48721400D01*
X65795675Y-48959794D01*
X65795506Y-48966668D01*
X58157739Y-48966668D01*
X58157739Y-47778198D01*
X66435781Y-47778198D01*
X66436336Y-47782783D01*
X67289527Y-48635974D01*
X67300470Y-48641077D01*
X67307164Y-48639283D01*
X68159994Y-47786453D01*
X68163844Y-47778198D01*
X84835781Y-47778198D01*
X84836336Y-47782783D01*
X85689527Y-48635974D01*
X85700470Y-48641077D01*
X85707164Y-48639283D01*
X86559994Y-47786453D01*
X86565097Y-47775510D01*
X86563815Y-47770726D01*
X86535633Y-47748469D01*
X86529918Y-47744672D01*
X86320010Y-47628797D01*
X86313743Y-47625980D01*
X86087733Y-47545945D01*
X86081085Y-47544189D01*
X85845042Y-47502144D01*
X85838200Y-47501497D01*
X85598452Y-47498567D01*
X85591597Y-47499047D01*
X85354595Y-47535313D01*
X85347911Y-47536906D01*
X85120007Y-47611396D01*
X85113681Y-47614055D01*
X84901006Y-47724767D01*
X84895188Y-47728431D01*
X84842374Y-47768084D01*
X84835781Y-47778198D01*
X68163844Y-47778198D01*
X68165097Y-47775510D01*
X68163815Y-47770726D01*
X68135633Y-47748469D01*
X68129918Y-47744672D01*
X67920010Y-47628797D01*
X67913743Y-47625980D01*
X67687733Y-47545945D01*
X67681085Y-47544189D01*
X67445042Y-47502144D01*
X67438200Y-47501497D01*
X67198452Y-47498567D01*
X67191597Y-47499047D01*
X66954595Y-47535313D01*
X66947911Y-47536906D01*
X66720007Y-47611396D01*
X66713681Y-47614055D01*
X66501006Y-47724767D01*
X66495188Y-47728431D01*
X66442374Y-47768084D01*
X66435781Y-47778198D01*
X58157739Y-47778198D01*
X58157739Y-44237878D01*
X59721515Y-44237878D01*
X59722672Y-44242194D01*
X59840958Y-44328925D01*
X59846225Y-44332216D01*
X60077478Y-44453885D01*
X60083188Y-44456367D01*
X60329868Y-44542512D01*
X60335886Y-44544124D01*
X60592605Y-44592863D01*
X60598775Y-44593566D01*
X60859878Y-44603825D01*
X60866092Y-44603608D01*
X61125854Y-44575159D01*
X61131950Y-44574030D01*
X61384649Y-44507499D01*
X61390537Y-44505471D01*
X61630609Y-44402328D01*
X61636127Y-44399457D01*
X61858337Y-44261949D01*
X61863353Y-44258306D01*
X61874469Y-44248896D01*
X61880460Y-44238414D01*
X61879488Y-44233041D01*
X61615676Y-43969229D01*
X66124888Y-43969229D01*
X66138958Y-44183891D01*
X66191911Y-44392395D01*
X66281974Y-44587757D01*
X66406131Y-44763436D01*
X66560224Y-44913547D01*
X66739093Y-45033063D01*
X66880021Y-45093610D01*
X66885733Y-45096064D01*
X66936746Y-45117981D01*
X67042007Y-45141799D01*
X67142808Y-45164608D01*
X67142809Y-45164608D01*
X67146565Y-45165458D01*
X67268982Y-45170268D01*
X67357673Y-45173753D01*
X67357676Y-45173753D01*
X67361522Y-45173904D01*
X67365328Y-45173352D01*
X67365331Y-45173352D01*
X67434641Y-45163302D01*
X67574419Y-45143035D01*
X67578058Y-45141800D01*
X67578061Y-45141799D01*
X67774475Y-45075125D01*
X67778125Y-45073886D01*
X67965819Y-44968773D01*
X68077225Y-44876118D01*
X75583275Y-44876118D01*
X75584624Y-44881150D01*
X75589660Y-44884676D01*
X75796676Y-45005647D01*
X75802867Y-45008613D01*
X76026857Y-45094147D01*
X76033456Y-45096064D01*
X76268412Y-45143867D01*
X76275224Y-45144679D01*
X76514841Y-45153466D01*
X76521692Y-45153155D01*
X76759520Y-45122688D01*
X76766236Y-45121260D01*
X76995882Y-45052363D01*
X77002294Y-45049850D01*
X77217600Y-44944373D01*
X77223507Y-44940852D01*
X77307048Y-44881262D01*
X77313888Y-44871309D01*
X77313476Y-44867029D01*
X76460473Y-44014026D01*
X76449530Y-44008923D01*
X76442836Y-44010717D01*
X75588378Y-44865175D01*
X75583275Y-44876118D01*
X68077225Y-44876118D01*
X68131215Y-44831215D01*
X68268773Y-44665819D01*
X68373886Y-44478125D01*
X68401800Y-44395893D01*
X68441799Y-44278061D01*
X68441800Y-44278058D01*
X68443035Y-44274419D01*
X68473904Y-44061522D01*
X68475515Y-44000000D01*
X68455831Y-43785779D01*
X68408137Y-43616668D01*
X74945506Y-43616668D01*
X74959309Y-43856041D01*
X74960264Y-43862832D01*
X75012977Y-44096740D01*
X75015030Y-44103292D01*
X75105233Y-44325434D01*
X75108335Y-44331576D01*
X75217068Y-44509011D01*
X75226518Y-44516528D01*
X75229515Y-44516449D01*
X75230918Y-44515529D01*
X76085974Y-43660473D01*
X76090639Y-43650470D01*
X76808923Y-43650470D01*
X76810717Y-43657164D01*
X77662200Y-44508647D01*
X77673143Y-44513750D01*
X77677340Y-44512625D01*
X77738149Y-44428001D01*
X77741684Y-44422118D01*
X77847919Y-44207167D01*
X77850447Y-44200780D01*
X77920146Y-43971376D01*
X77920610Y-43969229D01*
X84524888Y-43969229D01*
X84538958Y-44183891D01*
X84591911Y-44392395D01*
X84681974Y-44587757D01*
X84806131Y-44763436D01*
X84960224Y-44913547D01*
X85139093Y-45033063D01*
X85280021Y-45093610D01*
X85285733Y-45096064D01*
X85336746Y-45117981D01*
X85442007Y-45141799D01*
X85542808Y-45164608D01*
X85542809Y-45164608D01*
X85546565Y-45165458D01*
X85668982Y-45170268D01*
X85757673Y-45173753D01*
X85757676Y-45173753D01*
X85761522Y-45173904D01*
X85765328Y-45173352D01*
X85765331Y-45173352D01*
X85834641Y-45163302D01*
X85974419Y-45143035D01*
X85978058Y-45141800D01*
X85978061Y-45141799D01*
X86174475Y-45075125D01*
X86178125Y-45073886D01*
X86365819Y-44968773D01*
X86531215Y-44831215D01*
X86668773Y-44665819D01*
X86773886Y-44478125D01*
X86801800Y-44395893D01*
X86841799Y-44278061D01*
X86841800Y-44278058D01*
X86843035Y-44274419D01*
X86873904Y-44061522D01*
X86875515Y-44000000D01*
X86855831Y-43785779D01*
X86797438Y-43578733D01*
X86795735Y-43575279D01*
X86703998Y-43389255D01*
X86703994Y-43389249D01*
X86702291Y-43385795D01*
X86573578Y-43213427D01*
X86487223Y-43133601D01*
X86418432Y-43070011D01*
X86418429Y-43070009D01*
X86415608Y-43067401D01*
X86412361Y-43065352D01*
X86412358Y-43065350D01*
X86236924Y-42954659D01*
X86236922Y-42954658D01*
X86233673Y-42952608D01*
X86111078Y-42903698D01*
X86037439Y-42874319D01*
X86037436Y-42874318D01*
X86033864Y-42872893D01*
X85822875Y-42830925D01*
X85708557Y-42829428D01*
X85611618Y-42828159D01*
X85611614Y-42828159D01*
X85607770Y-42828109D01*
X85395754Y-42864540D01*
X85193928Y-42938997D01*
X85190620Y-42940965D01*
X85167603Y-42954659D01*
X85009050Y-43048988D01*
X84847312Y-43190829D01*
X84714130Y-43359769D01*
X84712340Y-43363172D01*
X84712337Y-43363176D01*
X84658865Y-43464810D01*
X84613966Y-43550150D01*
X84605091Y-43578733D01*
X84559444Y-43725740D01*
X84550173Y-43755597D01*
X84549721Y-43759416D01*
X84536410Y-43871884D01*
X84524888Y-43969229D01*
X77920610Y-43969229D01*
X77921600Y-43964652D01*
X77953052Y-43725740D01*
X77953398Y-43721297D01*
X77955087Y-43652227D01*
X77954959Y-43647783D01*
X77935212Y-43407597D01*
X77934091Y-43400833D01*
X77875682Y-43168293D01*
X77873465Y-43161779D01*
X77777862Y-42941909D01*
X77774612Y-42935847D01*
X77681741Y-42792291D01*
X77672112Y-42785008D01*
X77668567Y-42785187D01*
X77667951Y-42785602D01*
X76814026Y-43639527D01*
X76808923Y-43650470D01*
X76090639Y-43650470D01*
X76091077Y-43649530D01*
X76089283Y-43642836D01*
X75237613Y-42791166D01*
X75226670Y-42786063D01*
X75222762Y-42787111D01*
X75143232Y-42903698D01*
X75139837Y-42909674D01*
X75038887Y-43127152D01*
X75036514Y-43133601D01*
X74972441Y-43364639D01*
X74971152Y-43371400D01*
X74945675Y-43609794D01*
X74945506Y-43616668D01*
X68408137Y-43616668D01*
X68397438Y-43578733D01*
X68395735Y-43575279D01*
X68303998Y-43389255D01*
X68303994Y-43389249D01*
X68302291Y-43385795D01*
X68173578Y-43213427D01*
X68087223Y-43133601D01*
X68018432Y-43070011D01*
X68018429Y-43070009D01*
X68015608Y-43067401D01*
X68012361Y-43065352D01*
X68012358Y-43065350D01*
X67836924Y-42954659D01*
X67836922Y-42954658D01*
X67833673Y-42952608D01*
X67711078Y-42903698D01*
X67637439Y-42874319D01*
X67637436Y-42874318D01*
X67633864Y-42872893D01*
X67422875Y-42830925D01*
X67308557Y-42829428D01*
X67211618Y-42828159D01*
X67211614Y-42828159D01*
X67207770Y-42828109D01*
X66995754Y-42864540D01*
X66793928Y-42938997D01*
X66790620Y-42940965D01*
X66767603Y-42954659D01*
X66609050Y-43048988D01*
X66447312Y-43190829D01*
X66314130Y-43359769D01*
X66312340Y-43363172D01*
X66312337Y-43363176D01*
X66258865Y-43464810D01*
X66213966Y-43550150D01*
X66205091Y-43578733D01*
X66159444Y-43725740D01*
X66150173Y-43755597D01*
X66149721Y-43759416D01*
X66136410Y-43871884D01*
X66124888Y-43969229D01*
X61615676Y-43969229D01*
X60810473Y-43164026D01*
X60799530Y-43158923D01*
X60792836Y-43160717D01*
X59726618Y-44226935D01*
X59721515Y-44237878D01*
X58157739Y-44237878D01*
X58157739Y-42755863D01*
X58995722Y-42755863D01*
X59008258Y-43016866D01*
X59009016Y-43023035D01*
X59059994Y-43279323D01*
X59061655Y-43285309D01*
X59149955Y-43531245D01*
X59152483Y-43536925D01*
X59276161Y-43767101D01*
X59279510Y-43772356D01*
X59353831Y-43871884D01*
X59363929Y-43878505D01*
X59368481Y-43877966D01*
X60435974Y-42810473D01*
X60440639Y-42800470D01*
X61158923Y-42800470D01*
X61160717Y-42807164D01*
X62230299Y-43876746D01*
X62241242Y-43881849D01*
X62245107Y-43880813D01*
X62384617Y-43663919D01*
X62387588Y-43658448D01*
X62494910Y-43420201D01*
X62497034Y-43414365D01*
X62567962Y-43162873D01*
X62569204Y-43156770D01*
X62602306Y-42896566D01*
X62602628Y-42892358D01*
X62604992Y-42802113D01*
X62604890Y-42797894D01*
X62585451Y-42536310D01*
X62584532Y-42530155D01*
X62561462Y-42428198D01*
X75585781Y-42428198D01*
X75586336Y-42432783D01*
X76439527Y-43285974D01*
X76450470Y-43291077D01*
X76457164Y-43289283D01*
X77309994Y-42436453D01*
X77313844Y-42428198D01*
X93985781Y-42428198D01*
X93986336Y-42432783D01*
X94839527Y-43285974D01*
X94850470Y-43291077D01*
X94857164Y-43289283D01*
X95390584Y-42755863D01*
X108795722Y-42755863D01*
X108808258Y-43016866D01*
X108809016Y-43023035D01*
X108859994Y-43279323D01*
X108861655Y-43285309D01*
X108949955Y-43531245D01*
X108952483Y-43536925D01*
X109076161Y-43767101D01*
X109079510Y-43772356D01*
X109153831Y-43871884D01*
X109163929Y-43878505D01*
X109168481Y-43877966D01*
X110235974Y-42810473D01*
X110240639Y-42800470D01*
X110958923Y-42800470D01*
X110960717Y-42807164D01*
X112030299Y-43876746D01*
X112041242Y-43881849D01*
X112045107Y-43880813D01*
X112184617Y-43663919D01*
X112187588Y-43658448D01*
X112294910Y-43420201D01*
X112297034Y-43414365D01*
X112367962Y-43162873D01*
X112369204Y-43156770D01*
X112402306Y-42896566D01*
X112402628Y-42892358D01*
X112404992Y-42802113D01*
X112404890Y-42797894D01*
X112385451Y-42536310D01*
X112384532Y-42530155D01*
X112326863Y-42275294D01*
X112325046Y-42269351D01*
X112230339Y-42025812D01*
X112227662Y-42020200D01*
X112097997Y-41793335D01*
X112094525Y-41788186D01*
X112046759Y-41727596D01*
X112036491Y-41721242D01*
X112031602Y-41721951D01*
X110964026Y-42789527D01*
X110958923Y-42800470D01*
X110240639Y-42800470D01*
X110241077Y-42799530D01*
X110239283Y-42792836D01*
X109171727Y-41725280D01*
X109160784Y-41720177D01*
X109155641Y-41721556D01*
X109132479Y-41749404D01*
X109128864Y-41754472D01*
X108993305Y-41977867D01*
X108990488Y-41983395D01*
X108889434Y-42224381D01*
X108887464Y-42230269D01*
X108823145Y-42483528D01*
X108822063Y-42489666D01*
X108795884Y-42749646D01*
X108795722Y-42755863D01*
X95390584Y-42755863D01*
X95709994Y-42436453D01*
X95715097Y-42425510D01*
X95713815Y-42420726D01*
X95685633Y-42398469D01*
X95679918Y-42394672D01*
X95470010Y-42278797D01*
X95463743Y-42275980D01*
X95237733Y-42195945D01*
X95231085Y-42194189D01*
X94995042Y-42152144D01*
X94988200Y-42151497D01*
X94748452Y-42148567D01*
X94741597Y-42149047D01*
X94504595Y-42185313D01*
X94497911Y-42186906D01*
X94270007Y-42261396D01*
X94263681Y-42264055D01*
X94051006Y-42374767D01*
X94045188Y-42378431D01*
X93992374Y-42418084D01*
X93985781Y-42428198D01*
X77313844Y-42428198D01*
X77315097Y-42425510D01*
X77313815Y-42420726D01*
X77285633Y-42398469D01*
X77279918Y-42394672D01*
X77070010Y-42278797D01*
X77063743Y-42275980D01*
X76837733Y-42195945D01*
X76831085Y-42194189D01*
X76595042Y-42152144D01*
X76588200Y-42151497D01*
X76348452Y-42148567D01*
X76341597Y-42149047D01*
X76104595Y-42185313D01*
X76097911Y-42186906D01*
X75870007Y-42261396D01*
X75863681Y-42264055D01*
X75651006Y-42374767D01*
X75645188Y-42378431D01*
X75592374Y-42418084D01*
X75585781Y-42428198D01*
X62561462Y-42428198D01*
X62526863Y-42275294D01*
X62525046Y-42269351D01*
X62430339Y-42025812D01*
X62427662Y-42020200D01*
X62297997Y-41793335D01*
X62294525Y-41788186D01*
X62246759Y-41727596D01*
X62236491Y-41721242D01*
X62231602Y-41721951D01*
X61164026Y-42789527D01*
X61158923Y-42800470D01*
X60440639Y-42800470D01*
X60441077Y-42799530D01*
X60439283Y-42792836D01*
X59371727Y-41725280D01*
X59360784Y-41720177D01*
X59355641Y-41721556D01*
X59332479Y-41749404D01*
X59328864Y-41754472D01*
X59193305Y-41977867D01*
X59190488Y-41983395D01*
X59089434Y-42224381D01*
X59087464Y-42230269D01*
X59023145Y-42483528D01*
X59022063Y-42489666D01*
X58995884Y-42749646D01*
X58995722Y-42755863D01*
X58157739Y-42755863D01*
X58157739Y-41877190D01*
X58168993Y-41835190D01*
X58218522Y-41749404D01*
X58442505Y-41361453D01*
X59718615Y-41361453D01*
X59718824Y-41365136D01*
X59719107Y-41365554D01*
X60789527Y-42435974D01*
X60800470Y-42441077D01*
X60807164Y-42439283D01*
X61874279Y-41372168D01*
X61879382Y-41361225D01*
X61878310Y-41357226D01*
X61718699Y-41246500D01*
X61713327Y-41243336D01*
X61478986Y-41127773D01*
X61473208Y-41125438D01*
X61224356Y-41045780D01*
X61218298Y-41044325D01*
X60960388Y-41002322D01*
X60954212Y-41001781D01*
X60692914Y-40998361D01*
X60686725Y-40998739D01*
X60427799Y-41033978D01*
X60421714Y-41035271D01*
X60170849Y-41108391D01*
X60165030Y-41110567D01*
X59927726Y-41219965D01*
X59922292Y-41222977D01*
X59725839Y-41351778D01*
X59718615Y-41361453D01*
X58442505Y-41361453D01*
X58671511Y-40964803D01*
X58702255Y-40934059D01*
X58771305Y-40894193D01*
X92624697Y-40894193D01*
X92642172Y-41027828D01*
X92644581Y-41033303D01*
X92664917Y-41079521D01*
X92696451Y-41151187D01*
X92700300Y-41155766D01*
X92754266Y-41219965D01*
X92783172Y-41254353D01*
X92788154Y-41257669D01*
X92890381Y-41325718D01*
X92890384Y-41325720D01*
X92895362Y-41329033D01*
X92901074Y-41330818D01*
X92901075Y-41330818D01*
X93018291Y-41367439D01*
X93018293Y-41367439D01*
X93024002Y-41369223D01*
X93029980Y-41369333D01*
X93029983Y-41369333D01*
X93098192Y-41370583D01*
X93158752Y-41371693D01*
X93182803Y-41365136D01*
X93283007Y-41337818D01*
X93283009Y-41337817D01*
X93288779Y-41336244D01*
X93403631Y-41265725D01*
X93488908Y-41171512D01*
X93539712Y-41144669D01*
X93595884Y-41156763D01*
X93615485Y-41173831D01*
X93656797Y-41222977D01*
X93683172Y-41254353D01*
X93688154Y-41257669D01*
X93790381Y-41325718D01*
X93790384Y-41325720D01*
X93795362Y-41329033D01*
X93801074Y-41330818D01*
X93801075Y-41330818D01*
X93918291Y-41367439D01*
X93918293Y-41367439D01*
X93924002Y-41369223D01*
X93929980Y-41369333D01*
X93929983Y-41369333D01*
X93998192Y-41370583D01*
X94058752Y-41371693D01*
X94082803Y-41365136D01*
X94183007Y-41337818D01*
X94183009Y-41337817D01*
X94188779Y-41336244D01*
X94303631Y-41265725D01*
X94388908Y-41171512D01*
X94439712Y-41144669D01*
X94495884Y-41156763D01*
X94515485Y-41173831D01*
X94556797Y-41222977D01*
X94583172Y-41254353D01*
X94588154Y-41257669D01*
X94690381Y-41325718D01*
X94690384Y-41325720D01*
X94695362Y-41329033D01*
X94701074Y-41330818D01*
X94701075Y-41330818D01*
X94818291Y-41367439D01*
X94818293Y-41367439D01*
X94824002Y-41369223D01*
X94829980Y-41369333D01*
X94829983Y-41369333D01*
X94898192Y-41370583D01*
X94958752Y-41371693D01*
X94982803Y-41365136D01*
X95083007Y-41337818D01*
X95083009Y-41337817D01*
X95088779Y-41336244D01*
X95203631Y-41265725D01*
X95288908Y-41171512D01*
X95339712Y-41144669D01*
X95395884Y-41156763D01*
X95415485Y-41173831D01*
X95456797Y-41222977D01*
X95483172Y-41254353D01*
X95488154Y-41257669D01*
X95590381Y-41325718D01*
X95590384Y-41325720D01*
X95595362Y-41329033D01*
X95601074Y-41330818D01*
X95601075Y-41330818D01*
X95718291Y-41367439D01*
X95718293Y-41367439D01*
X95724002Y-41369223D01*
X95729980Y-41369333D01*
X95729983Y-41369333D01*
X95798192Y-41370583D01*
X95858752Y-41371693D01*
X95882803Y-41365136D01*
X95896312Y-41361453D01*
X109518615Y-41361453D01*
X109518824Y-41365136D01*
X109519107Y-41365554D01*
X110589527Y-42435974D01*
X110600470Y-42441077D01*
X110607164Y-42439283D01*
X111674279Y-41372168D01*
X111679382Y-41361225D01*
X111678310Y-41357226D01*
X111518699Y-41246500D01*
X111513327Y-41243336D01*
X111278986Y-41127773D01*
X111273208Y-41125438D01*
X111024356Y-41045780D01*
X111018298Y-41044325D01*
X110760388Y-41002322D01*
X110754212Y-41001781D01*
X110492914Y-40998361D01*
X110486725Y-40998739D01*
X110227799Y-41033978D01*
X110221714Y-41035271D01*
X109970849Y-41108391D01*
X109965030Y-41110567D01*
X109727726Y-41219965D01*
X109722292Y-41222977D01*
X109525839Y-41351778D01*
X109518615Y-41361453D01*
X95896312Y-41361453D01*
X95983007Y-41337818D01*
X95983009Y-41337817D01*
X95988779Y-41336244D01*
X96103631Y-41265725D01*
X96194073Y-41165806D01*
X96198455Y-41156763D01*
X96250225Y-41049907D01*
X96252836Y-41044518D01*
X96275196Y-40911614D01*
X96275338Y-40900000D01*
X96274878Y-40896787D01*
X96257080Y-40772508D01*
X96257080Y-40772507D01*
X96256232Y-40766588D01*
X96200450Y-40643902D01*
X96112475Y-40541803D01*
X96106627Y-40538012D01*
X96004404Y-40471754D01*
X96004403Y-40471754D01*
X95999382Y-40468499D01*
X95951468Y-40454170D01*
X95875991Y-40431597D01*
X95875989Y-40431597D01*
X95870259Y-40429883D01*
X95864279Y-40429846D01*
X95864276Y-40429846D01*
X95801215Y-40429461D01*
X95735489Y-40429060D01*
X95605905Y-40466095D01*
X95491924Y-40538012D01*
X95487963Y-40542496D01*
X95487964Y-40542496D01*
X95412565Y-40627869D01*
X95362093Y-40655330D01*
X95305777Y-40643924D01*
X95285969Y-40627096D01*
X95216382Y-40546337D01*
X95216381Y-40546336D01*
X95212475Y-40541803D01*
X95206627Y-40538012D01*
X95104404Y-40471754D01*
X95104403Y-40471754D01*
X95099382Y-40468499D01*
X95051468Y-40454170D01*
X94975991Y-40431597D01*
X94975989Y-40431597D01*
X94970259Y-40429883D01*
X94964279Y-40429846D01*
X94964276Y-40429846D01*
X94901215Y-40429461D01*
X94835489Y-40429060D01*
X94705905Y-40466095D01*
X94591924Y-40538012D01*
X94587963Y-40542496D01*
X94587964Y-40542496D01*
X94512565Y-40627869D01*
X94462093Y-40655330D01*
X94405777Y-40643924D01*
X94385969Y-40627096D01*
X94316382Y-40546337D01*
X94316381Y-40546336D01*
X94312475Y-40541803D01*
X94306627Y-40538012D01*
X94204404Y-40471754D01*
X94204403Y-40471754D01*
X94199382Y-40468499D01*
X94151468Y-40454170D01*
X94075991Y-40431597D01*
X94075989Y-40431597D01*
X94070259Y-40429883D01*
X94064279Y-40429846D01*
X94064276Y-40429846D01*
X94001215Y-40429461D01*
X93935489Y-40429060D01*
X93805905Y-40466095D01*
X93691924Y-40538012D01*
X93687963Y-40542496D01*
X93687964Y-40542496D01*
X93612565Y-40627869D01*
X93562093Y-40655330D01*
X93505777Y-40643924D01*
X93485969Y-40627096D01*
X93416382Y-40546337D01*
X93416381Y-40546336D01*
X93412475Y-40541803D01*
X93406627Y-40538012D01*
X93304404Y-40471754D01*
X93304403Y-40471754D01*
X93299382Y-40468499D01*
X93251468Y-40454170D01*
X93175991Y-40431597D01*
X93175989Y-40431597D01*
X93170259Y-40429883D01*
X93164279Y-40429846D01*
X93164276Y-40429846D01*
X93101215Y-40429461D01*
X93035489Y-40429060D01*
X92905905Y-40466095D01*
X92791924Y-40538012D01*
X92702709Y-40639029D01*
X92700168Y-40644441D01*
X92649634Y-40752076D01*
X92645432Y-40761025D01*
X92624697Y-40894193D01*
X58771305Y-40894193D01*
X60331066Y-39993663D01*
X64781360Y-39993663D01*
X64800428Y-40139483D01*
X64859656Y-40274090D01*
X64863505Y-40278669D01*
X64863507Y-40278672D01*
X64950431Y-40382080D01*
X64950433Y-40382082D01*
X64954284Y-40386663D01*
X65076703Y-40468152D01*
X65217073Y-40512007D01*
X65223050Y-40512117D01*
X65223053Y-40512117D01*
X65297527Y-40513482D01*
X65364109Y-40514702D01*
X65369881Y-40513128D01*
X65369884Y-40513128D01*
X65500219Y-40477594D01*
X65500220Y-40477594D01*
X65505992Y-40476020D01*
X65511090Y-40472890D01*
X65511092Y-40472889D01*
X65626216Y-40402202D01*
X65626217Y-40402201D01*
X65631315Y-40399071D01*
X65635328Y-40394637D01*
X65635331Y-40394635D01*
X65725991Y-40294475D01*
X65730004Y-40290042D01*
X65794126Y-40157696D01*
X65818524Y-40012672D01*
X65818679Y-40000000D01*
X65818219Y-39996787D01*
X65798679Y-39860344D01*
X65798679Y-39860343D01*
X65797831Y-39854424D01*
X65736962Y-39720551D01*
X65640967Y-39609142D01*
X65629662Y-39601814D01*
X65522583Y-39532410D01*
X65517561Y-39529155D01*
X65511831Y-39527441D01*
X65511828Y-39527440D01*
X65382398Y-39488732D01*
X65382396Y-39488732D01*
X65376666Y-39487018D01*
X65370686Y-39486981D01*
X65370683Y-39486981D01*
X65301318Y-39486558D01*
X65229607Y-39486120D01*
X65088208Y-39526532D01*
X64963834Y-39605006D01*
X64866484Y-39715233D01*
X64863943Y-39720644D01*
X64863943Y-39720645D01*
X64862421Y-39723886D01*
X64803985Y-39848353D01*
X64803065Y-39854264D01*
X64803064Y-39854266D01*
X64802118Y-39860344D01*
X64781360Y-39993663D01*
X60331066Y-39993663D01*
X62711652Y-38619229D01*
X75274888Y-38619229D01*
X75288958Y-38833891D01*
X75341911Y-39042395D01*
X75431974Y-39237757D01*
X75556131Y-39413436D01*
X75710224Y-39563547D01*
X75889093Y-39683063D01*
X76086746Y-39767981D01*
X76192007Y-39791799D01*
X76292808Y-39814608D01*
X76292809Y-39814608D01*
X76296565Y-39815458D01*
X76418982Y-39820268D01*
X76507673Y-39823753D01*
X76507676Y-39823753D01*
X76511522Y-39823904D01*
X76515328Y-39823352D01*
X76515331Y-39823352D01*
X76584641Y-39813302D01*
X76724419Y-39793035D01*
X76728058Y-39791800D01*
X76728061Y-39791799D01*
X76924475Y-39725125D01*
X76928125Y-39723886D01*
X77115819Y-39618773D01*
X77167106Y-39576118D01*
X84833275Y-39576118D01*
X84834624Y-39581150D01*
X84839660Y-39584676D01*
X85046676Y-39705647D01*
X85052867Y-39708613D01*
X85276857Y-39794147D01*
X85283456Y-39796064D01*
X85518412Y-39843867D01*
X85525224Y-39844679D01*
X85764841Y-39853466D01*
X85771692Y-39853155D01*
X86009520Y-39822688D01*
X86016236Y-39821260D01*
X86245882Y-39752363D01*
X86252294Y-39749850D01*
X86467600Y-39644373D01*
X86473507Y-39640852D01*
X86557048Y-39581262D01*
X86563888Y-39571309D01*
X86563476Y-39567029D01*
X85710473Y-38714026D01*
X85699530Y-38708923D01*
X85692836Y-38710717D01*
X84838378Y-39565175D01*
X84833275Y-39576118D01*
X77167106Y-39576118D01*
X77281215Y-39481215D01*
X77418773Y-39315819D01*
X77523886Y-39128125D01*
X77551800Y-39045893D01*
X77591799Y-38928061D01*
X77591800Y-38928058D01*
X77593035Y-38924419D01*
X77623904Y-38711522D01*
X77625515Y-38650000D01*
X77605831Y-38435779D01*
X77572238Y-38316668D01*
X84195506Y-38316668D01*
X84209309Y-38556041D01*
X84210264Y-38562832D01*
X84262977Y-38796740D01*
X84265030Y-38803292D01*
X84355233Y-39025434D01*
X84358335Y-39031576D01*
X84467068Y-39209011D01*
X84476518Y-39216528D01*
X84479515Y-39216449D01*
X84480918Y-39215529D01*
X85335974Y-38360473D01*
X85340639Y-38350470D01*
X86058923Y-38350470D01*
X86060717Y-38357164D01*
X86912200Y-39208647D01*
X86923143Y-39213750D01*
X86927340Y-39212625D01*
X86988149Y-39128001D01*
X86991684Y-39122118D01*
X87097919Y-38907167D01*
X87100447Y-38900780D01*
X87170146Y-38671376D01*
X87171600Y-38664652D01*
X87177580Y-38619229D01*
X93674888Y-38619229D01*
X93688958Y-38833891D01*
X93741911Y-39042395D01*
X93831974Y-39237757D01*
X93956131Y-39413436D01*
X94110224Y-39563547D01*
X94289093Y-39683063D01*
X94486746Y-39767981D01*
X94592007Y-39791799D01*
X94692808Y-39814608D01*
X94692809Y-39814608D01*
X94696565Y-39815458D01*
X94818982Y-39820268D01*
X94907673Y-39823753D01*
X94907676Y-39823753D01*
X94911522Y-39823904D01*
X94915328Y-39823352D01*
X94915331Y-39823352D01*
X94984641Y-39813302D01*
X95124419Y-39793035D01*
X95128058Y-39791800D01*
X95128061Y-39791799D01*
X95324475Y-39725125D01*
X95328125Y-39723886D01*
X95515819Y-39618773D01*
X95681215Y-39481215D01*
X95818773Y-39315819D01*
X95923886Y-39128125D01*
X95951800Y-39045893D01*
X95991799Y-38928061D01*
X95991800Y-38928058D01*
X95993035Y-38924419D01*
X96023904Y-38711522D01*
X96025515Y-38650000D01*
X96005831Y-38435779D01*
X95947438Y-38228733D01*
X95945735Y-38225279D01*
X95853998Y-38039255D01*
X95853994Y-38039249D01*
X95852291Y-38035795D01*
X95723578Y-37863427D01*
X95696380Y-37838285D01*
X95568432Y-37720011D01*
X95568429Y-37720009D01*
X95565608Y-37717401D01*
X95562361Y-37715352D01*
X95562358Y-37715350D01*
X95386924Y-37604659D01*
X95386922Y-37604658D01*
X95383673Y-37602608D01*
X95282841Y-37562380D01*
X95187439Y-37524319D01*
X95187436Y-37524318D01*
X95183864Y-37522893D01*
X94972875Y-37480925D01*
X94858557Y-37479428D01*
X94761618Y-37478159D01*
X94761614Y-37478159D01*
X94757770Y-37478109D01*
X94545754Y-37514540D01*
X94343928Y-37588997D01*
X94340620Y-37590965D01*
X94317603Y-37604659D01*
X94159050Y-37698988D01*
X93997312Y-37840829D01*
X93979497Y-37863427D01*
X93882889Y-37985974D01*
X93864130Y-38009769D01*
X93862340Y-38013172D01*
X93862337Y-38013176D01*
X93831704Y-38071400D01*
X93763966Y-38200150D01*
X93755091Y-38228733D01*
X93718125Y-38347783D01*
X93700173Y-38405597D01*
X93674888Y-38619229D01*
X87177580Y-38619229D01*
X87203052Y-38425740D01*
X87203398Y-38421297D01*
X87205087Y-38352227D01*
X87204959Y-38347783D01*
X87185212Y-38107597D01*
X87184091Y-38100833D01*
X87125682Y-37868293D01*
X87123465Y-37861779D01*
X87027862Y-37641909D01*
X87024612Y-37635847D01*
X86931741Y-37492291D01*
X86922112Y-37485008D01*
X86918567Y-37485187D01*
X86917951Y-37485602D01*
X86064026Y-38339527D01*
X86058923Y-38350470D01*
X85340639Y-38350470D01*
X85341077Y-38349530D01*
X85339283Y-38342836D01*
X84487613Y-37491166D01*
X84476670Y-37486063D01*
X84472762Y-37487111D01*
X84393232Y-37603698D01*
X84389837Y-37609674D01*
X84288887Y-37827152D01*
X84286514Y-37833601D01*
X84222441Y-38064639D01*
X84221152Y-38071400D01*
X84195675Y-38309794D01*
X84195506Y-38316668D01*
X77572238Y-38316668D01*
X77547438Y-38228733D01*
X77545735Y-38225279D01*
X77453998Y-38039255D01*
X77453994Y-38039249D01*
X77452291Y-38035795D01*
X77323578Y-37863427D01*
X77296380Y-37838285D01*
X77168432Y-37720011D01*
X77168429Y-37720009D01*
X77165608Y-37717401D01*
X77162361Y-37715352D01*
X77162358Y-37715350D01*
X76986924Y-37604659D01*
X76986922Y-37604658D01*
X76983673Y-37602608D01*
X76882841Y-37562380D01*
X76787439Y-37524319D01*
X76787436Y-37524318D01*
X76783864Y-37522893D01*
X76572875Y-37480925D01*
X76458557Y-37479428D01*
X76361618Y-37478159D01*
X76361614Y-37478159D01*
X76357770Y-37478109D01*
X76145754Y-37514540D01*
X75943928Y-37588997D01*
X75940620Y-37590965D01*
X75917603Y-37604659D01*
X75759050Y-37698988D01*
X75597312Y-37840829D01*
X75579497Y-37863427D01*
X75482889Y-37985974D01*
X75464130Y-38009769D01*
X75462340Y-38013172D01*
X75462337Y-38013176D01*
X75431704Y-38071400D01*
X75363966Y-38200150D01*
X75355091Y-38228733D01*
X75318125Y-38347783D01*
X75300173Y-38405597D01*
X75274888Y-38619229D01*
X62711652Y-38619229D01*
X65294190Y-37128198D01*
X84835781Y-37128198D01*
X84836336Y-37132783D01*
X85689527Y-37985974D01*
X85700470Y-37991077D01*
X85707164Y-37989283D01*
X86559994Y-37136453D01*
X86565097Y-37125510D01*
X86563815Y-37120726D01*
X86535633Y-37098469D01*
X86529918Y-37094672D01*
X86320010Y-36978797D01*
X86313743Y-36975980D01*
X86087733Y-36895945D01*
X86081085Y-36894189D01*
X85845042Y-36852144D01*
X85838200Y-36851497D01*
X85598452Y-36848567D01*
X85591597Y-36849047D01*
X85354595Y-36885313D01*
X85347911Y-36886906D01*
X85120007Y-36961396D01*
X85113681Y-36964055D01*
X84901006Y-37074767D01*
X84895188Y-37078431D01*
X84842374Y-37118084D01*
X84835781Y-37128198D01*
X65294190Y-37128198D01*
X70765677Y-33969229D01*
X81224888Y-33969229D01*
X81238958Y-34183891D01*
X81291911Y-34392395D01*
X81381974Y-34587757D01*
X81506131Y-34763436D01*
X81660224Y-34913547D01*
X81839093Y-35033063D01*
X82036746Y-35117981D01*
X82142007Y-35141799D01*
X82242808Y-35164608D01*
X82242809Y-35164608D01*
X82246565Y-35165458D01*
X82368982Y-35170268D01*
X82457673Y-35173753D01*
X82457676Y-35173753D01*
X82461522Y-35173904D01*
X82465328Y-35173352D01*
X82465331Y-35173352D01*
X82534641Y-35163302D01*
X82674419Y-35143035D01*
X82678058Y-35141800D01*
X82678061Y-35141799D01*
X82874475Y-35075125D01*
X82878125Y-35073886D01*
X83065819Y-34968773D01*
X83231215Y-34831215D01*
X83368773Y-34665819D01*
X83473886Y-34478125D01*
X83501800Y-34395893D01*
X83541799Y-34278061D01*
X83541800Y-34278058D01*
X83543035Y-34274419D01*
X83573904Y-34061522D01*
X83575515Y-34000000D01*
X83555831Y-33785779D01*
X83497438Y-33578733D01*
X83495735Y-33575279D01*
X83403998Y-33389255D01*
X83403994Y-33389249D01*
X83402291Y-33385795D01*
X83352584Y-33319229D01*
X84524888Y-33319229D01*
X84538958Y-33533891D01*
X84591911Y-33742395D01*
X84681974Y-33937757D01*
X84806131Y-34113436D01*
X84960224Y-34263547D01*
X85139093Y-34383063D01*
X85336746Y-34467981D01*
X85442007Y-34491799D01*
X85542808Y-34514608D01*
X85542809Y-34514608D01*
X85546565Y-34515458D01*
X85668982Y-34520268D01*
X85757673Y-34523753D01*
X85757676Y-34523753D01*
X85761522Y-34523904D01*
X85765328Y-34523352D01*
X85765331Y-34523352D01*
X85834641Y-34513302D01*
X85974419Y-34493035D01*
X85978058Y-34491800D01*
X85978061Y-34491799D01*
X86174475Y-34425125D01*
X86178125Y-34423886D01*
X86365819Y-34318773D01*
X86531215Y-34181215D01*
X86668773Y-34015819D01*
X86773886Y-33828125D01*
X86801800Y-33745893D01*
X86841799Y-33628061D01*
X86841800Y-33628058D01*
X86843035Y-33624419D01*
X86873904Y-33411522D01*
X86875515Y-33350000D01*
X86855831Y-33135779D01*
X86797438Y-32928733D01*
X86795735Y-32925279D01*
X86703998Y-32739255D01*
X86703994Y-32739249D01*
X86702291Y-32735795D01*
X86573578Y-32563427D01*
X86472770Y-32470241D01*
X86418432Y-32420011D01*
X86418429Y-32420009D01*
X86415608Y-32417401D01*
X86412361Y-32415352D01*
X86412358Y-32415350D01*
X86236924Y-32304659D01*
X86236922Y-32304658D01*
X86233673Y-32302608D01*
X86132841Y-32262380D01*
X86037439Y-32224319D01*
X86037436Y-32224318D01*
X86033864Y-32222893D01*
X85889578Y-32194193D01*
X92624697Y-32194193D01*
X92642172Y-32327828D01*
X92696451Y-32451187D01*
X92783172Y-32554353D01*
X92788154Y-32557669D01*
X92890381Y-32625718D01*
X92890384Y-32625720D01*
X92895362Y-32629033D01*
X92901074Y-32630818D01*
X92901075Y-32630818D01*
X93018291Y-32667439D01*
X93018293Y-32667439D01*
X93024002Y-32669223D01*
X93029980Y-32669333D01*
X93029983Y-32669333D01*
X93098192Y-32670583D01*
X93158752Y-32671693D01*
X93174356Y-32667439D01*
X93283007Y-32637818D01*
X93283009Y-32637817D01*
X93288779Y-32636244D01*
X93403631Y-32565725D01*
X93494073Y-32465806D01*
X93498938Y-32455766D01*
X93550225Y-32349907D01*
X93552836Y-32344518D01*
X93575196Y-32211614D01*
X93575338Y-32200000D01*
X93574878Y-32196787D01*
X93557080Y-32072508D01*
X93557080Y-32072507D01*
X93556232Y-32066588D01*
X93500450Y-31943902D01*
X93412475Y-31841803D01*
X93406627Y-31838012D01*
X93304404Y-31771754D01*
X93304403Y-31771754D01*
X93299382Y-31768499D01*
X93251468Y-31754170D01*
X93175991Y-31731597D01*
X93175989Y-31731597D01*
X93170259Y-31729883D01*
X93164279Y-31729846D01*
X93164276Y-31729846D01*
X93101215Y-31729461D01*
X93035489Y-31729060D01*
X92905905Y-31766095D01*
X92791924Y-31838012D01*
X92702709Y-31939029D01*
X92645432Y-32061025D01*
X92624697Y-32194193D01*
X85889578Y-32194193D01*
X85822875Y-32180925D01*
X85708557Y-32179428D01*
X85611618Y-32178159D01*
X85611614Y-32178159D01*
X85607770Y-32178109D01*
X85395754Y-32214540D01*
X85193928Y-32288997D01*
X85190620Y-32290965D01*
X85091548Y-32349907D01*
X85009050Y-32398988D01*
X84847312Y-32540829D01*
X84831183Y-32561289D01*
X84744234Y-32671583D01*
X84714130Y-32709769D01*
X84712340Y-32713172D01*
X84712337Y-32713176D01*
X84651868Y-32828109D01*
X84613966Y-32900150D01*
X84597041Y-32954659D01*
X84561223Y-33070011D01*
X84550173Y-33105597D01*
X84524888Y-33319229D01*
X83352584Y-33319229D01*
X83273578Y-33213427D01*
X83161060Y-33109416D01*
X83118432Y-33070011D01*
X83118429Y-33070009D01*
X83115608Y-33067401D01*
X83112361Y-33065352D01*
X83112358Y-33065350D01*
X82936924Y-32954659D01*
X82936922Y-32954658D01*
X82933673Y-32952608D01*
X82793648Y-32896744D01*
X82737439Y-32874319D01*
X82737436Y-32874318D01*
X82733864Y-32872893D01*
X82522875Y-32830925D01*
X82408557Y-32829428D01*
X82311618Y-32828159D01*
X82311614Y-32828159D01*
X82307770Y-32828109D01*
X82095754Y-32864540D01*
X81893928Y-32938997D01*
X81890620Y-32940965D01*
X81867603Y-32954659D01*
X81709050Y-33048988D01*
X81547312Y-33190829D01*
X81529497Y-33213427D01*
X81419883Y-33352472D01*
X81414130Y-33359769D01*
X81412340Y-33363172D01*
X81412337Y-33363176D01*
X81385610Y-33413976D01*
X81313966Y-33550150D01*
X81305091Y-33578733D01*
X81255432Y-33738661D01*
X81250173Y-33755597D01*
X81224888Y-33969229D01*
X70765677Y-33969229D01*
X77131017Y-30294193D01*
X79374697Y-30294193D01*
X79392172Y-30427828D01*
X79446451Y-30551187D01*
X79533172Y-30654353D01*
X79538154Y-30657669D01*
X79640381Y-30725718D01*
X79640384Y-30725720D01*
X79645362Y-30729033D01*
X79651074Y-30730818D01*
X79651075Y-30730818D01*
X79768291Y-30767439D01*
X79768293Y-30767439D01*
X79774002Y-30769223D01*
X79779980Y-30769333D01*
X79779983Y-30769333D01*
X79848192Y-30770583D01*
X79908752Y-30771693D01*
X79924356Y-30767439D01*
X80033007Y-30737818D01*
X80033009Y-30737817D01*
X80038779Y-30736244D01*
X80153631Y-30665725D01*
X80244073Y-30565806D01*
X80248938Y-30555766D01*
X80274237Y-30503547D01*
X80315465Y-30463524D01*
X80372774Y-30459366D01*
X80419348Y-30493017D01*
X80426718Y-30506341D01*
X80446451Y-30551187D01*
X80533172Y-30654353D01*
X80538154Y-30657669D01*
X80640381Y-30725718D01*
X80640384Y-30725720D01*
X80645362Y-30729033D01*
X80651074Y-30730818D01*
X80651075Y-30730818D01*
X80768291Y-30767439D01*
X80768293Y-30767439D01*
X80774002Y-30769223D01*
X80779980Y-30769333D01*
X80779983Y-30769333D01*
X80848192Y-30770583D01*
X80908752Y-30771693D01*
X80924356Y-30767439D01*
X81033007Y-30737818D01*
X81033009Y-30737817D01*
X81038779Y-30736244D01*
X81153631Y-30665725D01*
X81244073Y-30565806D01*
X81248938Y-30555766D01*
X81274237Y-30503547D01*
X81315465Y-30463524D01*
X81372774Y-30459366D01*
X81419348Y-30493017D01*
X81426718Y-30506341D01*
X81446451Y-30551187D01*
X81533172Y-30654353D01*
X81538154Y-30657669D01*
X81640381Y-30725718D01*
X81640384Y-30725720D01*
X81645362Y-30729033D01*
X81651074Y-30730818D01*
X81651075Y-30730818D01*
X81768291Y-30767439D01*
X81768293Y-30767439D01*
X81774002Y-30769223D01*
X81779980Y-30769333D01*
X81779983Y-30769333D01*
X81848192Y-30770583D01*
X81908752Y-30771693D01*
X81924356Y-30767439D01*
X82033007Y-30737818D01*
X82033009Y-30737817D01*
X82038779Y-30736244D01*
X82153631Y-30665725D01*
X82244073Y-30565806D01*
X82248938Y-30555766D01*
X82274237Y-30503547D01*
X82315465Y-30463524D01*
X82372774Y-30459366D01*
X82419348Y-30493017D01*
X82426718Y-30506341D01*
X82446451Y-30551187D01*
X82533172Y-30654353D01*
X82538154Y-30657669D01*
X82640381Y-30725718D01*
X82640384Y-30725720D01*
X82645362Y-30729033D01*
X82651074Y-30730818D01*
X82651075Y-30730818D01*
X82768291Y-30767439D01*
X82768293Y-30767439D01*
X82774002Y-30769223D01*
X82779980Y-30769333D01*
X82779983Y-30769333D01*
X82848192Y-30770583D01*
X82908752Y-30771693D01*
X82924356Y-30767439D01*
X83033007Y-30737818D01*
X83033009Y-30737817D01*
X83038779Y-30736244D01*
X83153631Y-30665725D01*
X83244073Y-30565806D01*
X83248938Y-30555766D01*
X83274237Y-30503547D01*
X83315465Y-30463524D01*
X83372774Y-30459366D01*
X83419348Y-30493017D01*
X83426718Y-30506341D01*
X83446451Y-30551187D01*
X83533172Y-30654353D01*
X83538154Y-30657669D01*
X83640381Y-30725718D01*
X83640384Y-30725720D01*
X83645362Y-30729033D01*
X83651074Y-30730818D01*
X83651075Y-30730818D01*
X83768291Y-30767439D01*
X83768293Y-30767439D01*
X83774002Y-30769223D01*
X83779980Y-30769333D01*
X83779983Y-30769333D01*
X83848192Y-30770583D01*
X83908752Y-30771693D01*
X83924356Y-30767439D01*
X84033007Y-30737818D01*
X84033009Y-30737817D01*
X84038779Y-30736244D01*
X84153631Y-30665725D01*
X84244073Y-30565806D01*
X84248938Y-30555766D01*
X84300225Y-30449907D01*
X84302836Y-30444518D01*
X84325196Y-30311614D01*
X84325338Y-30300000D01*
X84324878Y-30296787D01*
X84307080Y-30172508D01*
X84307080Y-30172507D01*
X84306232Y-30166588D01*
X84250450Y-30043902D01*
X84162475Y-29941803D01*
X84156627Y-29938012D01*
X84054404Y-29871754D01*
X84054403Y-29871754D01*
X84049382Y-29868499D01*
X84001468Y-29854170D01*
X83925991Y-29831597D01*
X83925989Y-29831597D01*
X83920259Y-29829883D01*
X83914279Y-29829846D01*
X83914276Y-29829846D01*
X83851215Y-29829461D01*
X83785489Y-29829060D01*
X83655905Y-29866095D01*
X83541924Y-29938012D01*
X83452709Y-30039029D01*
X83450168Y-30044441D01*
X83426092Y-30095722D01*
X83385356Y-30136245D01*
X83328102Y-30141104D01*
X83281121Y-30108023D01*
X83273588Y-30094791D01*
X83252926Y-30049348D01*
X83250450Y-30043902D01*
X83162475Y-29941803D01*
X83156627Y-29938012D01*
X83054404Y-29871754D01*
X83054403Y-29871754D01*
X83049382Y-29868499D01*
X83001468Y-29854170D01*
X82925991Y-29831597D01*
X82925989Y-29831597D01*
X82920259Y-29829883D01*
X82914279Y-29829846D01*
X82914276Y-29829846D01*
X82851215Y-29829461D01*
X82785489Y-29829060D01*
X82655905Y-29866095D01*
X82541924Y-29938012D01*
X82452709Y-30039029D01*
X82450168Y-30044441D01*
X82426092Y-30095722D01*
X82385356Y-30136245D01*
X82328102Y-30141104D01*
X82281121Y-30108023D01*
X82273588Y-30094791D01*
X82252926Y-30049348D01*
X82250450Y-30043902D01*
X82162475Y-29941803D01*
X82156627Y-29938012D01*
X82054404Y-29871754D01*
X82054403Y-29871754D01*
X82049382Y-29868499D01*
X82001468Y-29854170D01*
X81925991Y-29831597D01*
X81925989Y-29831597D01*
X81920259Y-29829883D01*
X81914279Y-29829846D01*
X81914276Y-29829846D01*
X81851215Y-29829461D01*
X81785489Y-29829060D01*
X81655905Y-29866095D01*
X81541924Y-29938012D01*
X81452709Y-30039029D01*
X81450168Y-30044441D01*
X81426092Y-30095722D01*
X81385356Y-30136245D01*
X81328102Y-30141104D01*
X81281121Y-30108023D01*
X81273588Y-30094791D01*
X81252926Y-30049348D01*
X81250450Y-30043902D01*
X81162475Y-29941803D01*
X81156627Y-29938012D01*
X81054404Y-29871754D01*
X81054403Y-29871754D01*
X81049382Y-29868499D01*
X81001468Y-29854170D01*
X80925991Y-29831597D01*
X80925989Y-29831597D01*
X80920259Y-29829883D01*
X80914279Y-29829846D01*
X80914276Y-29829846D01*
X80851215Y-29829461D01*
X80785489Y-29829060D01*
X80655905Y-29866095D01*
X80541924Y-29938012D01*
X80452709Y-30039029D01*
X80450168Y-30044441D01*
X80426092Y-30095722D01*
X80385356Y-30136245D01*
X80328102Y-30141104D01*
X80281121Y-30108023D01*
X80273588Y-30094791D01*
X80252926Y-30049348D01*
X80250450Y-30043902D01*
X80162475Y-29941803D01*
X80156627Y-29938012D01*
X80054404Y-29871754D01*
X80054403Y-29871754D01*
X80049382Y-29868499D01*
X80001468Y-29854170D01*
X79925991Y-29831597D01*
X79925989Y-29831597D01*
X79920259Y-29829883D01*
X79914279Y-29829846D01*
X79914276Y-29829846D01*
X79851215Y-29829461D01*
X79785489Y-29829060D01*
X79655905Y-29866095D01*
X79541924Y-29938012D01*
X79452709Y-30039029D01*
X79395432Y-30161025D01*
X79374697Y-30294193D01*
X77131017Y-30294193D01*
X85155521Y-25661237D01*
X85197519Y-25649983D01*
X85700040Y-25649984D01*
G37*
%TD.AperFunction*%
%TD*%
M02*
