%TF.GenerationSoftware,KiCad,Pcbnew,(6.0.4-0)*%
%TF.CreationDate,2022-04-19T08:43:48+02:00*%
%TF.ProjectId,speaker,73706561-6b65-4722-9e6b-696361645f70,rev?*%
%TF.SameCoordinates,Original*%
%TF.FileFunction,Legend,Bot*%
%TF.FilePolarity,Positive*%
%FSLAX46Y46*%
G04 Gerber Fmt 4.6, Leading zero omitted, Abs format (unit mm)*
G04 Created by KiCad (PCBNEW (6.0.4-0)) date 2022-04-19 08:43:48*
%MOMM*%
%LPD*%
G01*
G04 APERTURE LIST*
%TA.AperFunction,Profile*%
%ADD10C,0.088304*%
%TD*%
%ADD11C,0.150000*%
%ADD12C,0.120000*%
%ADD13C,0.260000*%
G04 APERTURE END LIST*
D10*
X57987239Y-73149866D02*
X85700040Y-89150019D01*
X85700040Y-25149982D02*
X57987239Y-41149998D01*
X85700040Y-25149982D02*
X85700040Y-25149982D01*
X57987239Y-73149866D02*
X57987239Y-73149866D01*
X85700040Y-89150019D02*
X113412761Y-73149866D01*
X57987239Y-41149998D02*
X57987239Y-41149998D01*
X113412761Y-41149998D02*
X85700040Y-25149982D01*
X113412761Y-41149998D02*
X113412761Y-41149998D01*
X57987239Y-41149998D02*
X57987239Y-73149866D01*
X113412761Y-73149866D02*
X113412761Y-41149998D01*
X113412761Y-73149866D02*
X113412761Y-73149866D01*
D11*
%TO.C,J5*%
X98112515Y-42765469D02*
X98469658Y-42146879D01*
X98499847Y-41999352D01*
X98464987Y-41869254D01*
X98365079Y-41756586D01*
X98282600Y-41708967D01*
X98937301Y-43241659D02*
X98524908Y-43003564D01*
X98721764Y-42567362D01*
X98739194Y-42632410D01*
X98797863Y-42721269D01*
X99004059Y-42840316D01*
X99110347Y-42846696D01*
X99175396Y-42829266D01*
X99264255Y-42770597D01*
X99383302Y-42564401D01*
X99389682Y-42458113D01*
X99372252Y-42393064D01*
X99313583Y-42304205D01*
X99107387Y-42185158D01*
X99001098Y-42178778D01*
X98936050Y-42196208D01*
%TO.C,C2*%
X80316666Y-35907142D02*
X80364285Y-35954761D01*
X80507142Y-36002380D01*
X80602380Y-36002380D01*
X80745238Y-35954761D01*
X80840476Y-35859523D01*
X80888095Y-35764285D01*
X80935714Y-35573809D01*
X80935714Y-35430952D01*
X80888095Y-35240476D01*
X80840476Y-35145238D01*
X80745238Y-35050000D01*
X80602380Y-35002380D01*
X80507142Y-35002380D01*
X80364285Y-35050000D01*
X80316666Y-35097619D01*
X79935714Y-35097619D02*
X79888095Y-35050000D01*
X79792857Y-35002380D01*
X79554761Y-35002380D01*
X79459523Y-35050000D01*
X79411904Y-35097619D01*
X79364285Y-35192857D01*
X79364285Y-35288095D01*
X79411904Y-35430952D01*
X79983333Y-36002380D01*
X79364285Y-36002380D01*
%TO.C,TP1*%
X82311904Y-31302380D02*
X81740476Y-31302380D01*
X82026190Y-32302380D02*
X82026190Y-31302380D01*
X81407142Y-32302380D02*
X81407142Y-31302380D01*
X81026190Y-31302380D01*
X80930952Y-31350000D01*
X80883333Y-31397619D01*
X80835714Y-31492857D01*
X80835714Y-31635714D01*
X80883333Y-31730952D01*
X80930952Y-31778571D01*
X81026190Y-31826190D01*
X81407142Y-31826190D01*
X79883333Y-32302380D02*
X80454761Y-32302380D01*
X80169047Y-32302380D02*
X80169047Y-31302380D01*
X80264285Y-31445238D01*
X80359523Y-31540476D01*
X80454761Y-31588095D01*
%TO.C,R2*%
X92316666Y-38452380D02*
X92650000Y-37976190D01*
X92888095Y-38452380D02*
X92888095Y-37452380D01*
X92507142Y-37452380D01*
X92411904Y-37500000D01*
X92364285Y-37547619D01*
X92316666Y-37642857D01*
X92316666Y-37785714D01*
X92364285Y-37880952D01*
X92411904Y-37928571D01*
X92507142Y-37976190D01*
X92888095Y-37976190D01*
X91935714Y-37547619D02*
X91888095Y-37500000D01*
X91792857Y-37452380D01*
X91554761Y-37452380D01*
X91459523Y-37500000D01*
X91411904Y-37547619D01*
X91364285Y-37642857D01*
X91364285Y-37738095D01*
X91411904Y-37880952D01*
X91983333Y-38452380D01*
X91364285Y-38452380D01*
%TO.C,TP2*%
X74311904Y-48502380D02*
X73740476Y-48502380D01*
X74026190Y-49502380D02*
X74026190Y-48502380D01*
X73407142Y-49502380D02*
X73407142Y-48502380D01*
X73026190Y-48502380D01*
X72930952Y-48550000D01*
X72883333Y-48597619D01*
X72835714Y-48692857D01*
X72835714Y-48835714D01*
X72883333Y-48930952D01*
X72930952Y-48978571D01*
X73026190Y-49026190D01*
X73407142Y-49026190D01*
X72454761Y-48597619D02*
X72407142Y-48550000D01*
X72311904Y-48502380D01*
X72073809Y-48502380D01*
X71978571Y-48550000D01*
X71930952Y-48597619D01*
X71883333Y-48692857D01*
X71883333Y-48788095D01*
X71930952Y-48930952D01*
X72502380Y-49502380D01*
X71883333Y-49502380D01*
%TO.C,JP3*%
X86252380Y-73466666D02*
X86966666Y-73466666D01*
X87109523Y-73419047D01*
X87204761Y-73323809D01*
X87252380Y-73180952D01*
X87252380Y-73085714D01*
X87252380Y-73942857D02*
X86252380Y-73942857D01*
X86252380Y-74323809D01*
X86300000Y-74419047D01*
X86347619Y-74466666D01*
X86442857Y-74514285D01*
X86585714Y-74514285D01*
X86680952Y-74466666D01*
X86728571Y-74419047D01*
X86776190Y-74323809D01*
X86776190Y-73942857D01*
X86252380Y-74847619D02*
X86252380Y-75466666D01*
X86633333Y-75133333D01*
X86633333Y-75276190D01*
X86680952Y-75371428D01*
X86728571Y-75419047D01*
X86823809Y-75466666D01*
X87061904Y-75466666D01*
X87157142Y-75419047D01*
X87204761Y-75371428D01*
X87252380Y-75276190D01*
X87252380Y-74990476D01*
X87204761Y-74895238D01*
X87157142Y-74847619D01*
X88252380Y-70916666D02*
X88252380Y-71535714D01*
X88633333Y-71202380D01*
X88633333Y-71345238D01*
X88680952Y-71440476D01*
X88728571Y-71488095D01*
X88823809Y-71535714D01*
X89061904Y-71535714D01*
X89157142Y-71488095D01*
X89204761Y-71440476D01*
X89252380Y-71345238D01*
X89252380Y-71059523D01*
X89204761Y-70964285D01*
X89157142Y-70916666D01*
X89202380Y-77035714D02*
X89202380Y-76464285D01*
X89202380Y-76750000D02*
X88202380Y-76750000D01*
X88345238Y-76654761D01*
X88440476Y-76559523D01*
X88488095Y-76464285D01*
%TO.C,U1*%
X85447619Y-73411904D02*
X84638095Y-73411904D01*
X84542857Y-73364285D01*
X84495238Y-73316666D01*
X84447619Y-73221428D01*
X84447619Y-73030952D01*
X84495238Y-72935714D01*
X84542857Y-72888095D01*
X84638095Y-72840476D01*
X85447619Y-72840476D01*
X84447619Y-71840476D02*
X84447619Y-72411904D01*
X84447619Y-72126190D02*
X85447619Y-72126190D01*
X85304761Y-72221428D01*
X85209523Y-72316666D01*
X85161904Y-72411904D01*
%TO.C,R4*%
X74166666Y-61302380D02*
X74500000Y-60826190D01*
X74738095Y-61302380D02*
X74738095Y-60302380D01*
X74357142Y-60302380D01*
X74261904Y-60350000D01*
X74214285Y-60397619D01*
X74166666Y-60492857D01*
X74166666Y-60635714D01*
X74214285Y-60730952D01*
X74261904Y-60778571D01*
X74357142Y-60826190D01*
X74738095Y-60826190D01*
X73309523Y-60635714D02*
X73309523Y-61302380D01*
X73547619Y-60254761D02*
X73785714Y-60969047D01*
X73166666Y-60969047D01*
%TO.C,C12*%
X72892857Y-57807142D02*
X72940476Y-57854761D01*
X73083333Y-57902380D01*
X73178571Y-57902380D01*
X73321428Y-57854761D01*
X73416666Y-57759523D01*
X73464285Y-57664285D01*
X73511904Y-57473809D01*
X73511904Y-57330952D01*
X73464285Y-57140476D01*
X73416666Y-57045238D01*
X73321428Y-56950000D01*
X73178571Y-56902380D01*
X73083333Y-56902380D01*
X72940476Y-56950000D01*
X72892857Y-56997619D01*
X71940476Y-57902380D02*
X72511904Y-57902380D01*
X72226190Y-57902380D02*
X72226190Y-56902380D01*
X72321428Y-57045238D01*
X72416666Y-57140476D01*
X72511904Y-57188095D01*
X71559523Y-56997619D02*
X71511904Y-56950000D01*
X71416666Y-56902380D01*
X71178571Y-56902380D01*
X71083333Y-56950000D01*
X71035714Y-56997619D01*
X70988095Y-57092857D01*
X70988095Y-57188095D01*
X71035714Y-57330952D01*
X71607142Y-57902380D01*
X70988095Y-57902380D01*
%TO.C,C3*%
X75116666Y-68007142D02*
X75164285Y-68054761D01*
X75307142Y-68102380D01*
X75402380Y-68102380D01*
X75545238Y-68054761D01*
X75640476Y-67959523D01*
X75688095Y-67864285D01*
X75735714Y-67673809D01*
X75735714Y-67530952D01*
X75688095Y-67340476D01*
X75640476Y-67245238D01*
X75545238Y-67150000D01*
X75402380Y-67102380D01*
X75307142Y-67102380D01*
X75164285Y-67150000D01*
X75116666Y-67197619D01*
X74783333Y-67102380D02*
X74164285Y-67102380D01*
X74497619Y-67483333D01*
X74354761Y-67483333D01*
X74259523Y-67530952D01*
X74211904Y-67578571D01*
X74164285Y-67673809D01*
X74164285Y-67911904D01*
X74211904Y-68007142D01*
X74259523Y-68054761D01*
X74354761Y-68102380D01*
X74640476Y-68102380D01*
X74735714Y-68054761D01*
X74783333Y-68007142D01*
%TO.C,J6*%
X98814865Y-70901197D02*
X99172008Y-71519786D01*
X99284676Y-71619695D01*
X99414774Y-71654554D01*
X99562301Y-71624365D01*
X99644780Y-71576746D01*
X98031318Y-71353578D02*
X98196276Y-71258340D01*
X98302564Y-71251960D01*
X98367612Y-71269390D01*
X98521520Y-71345489D01*
X98657997Y-71486636D01*
X98848473Y-71816551D01*
X98854853Y-71922839D01*
X98837423Y-71987888D01*
X98778754Y-72076746D01*
X98613797Y-72171984D01*
X98507509Y-72178364D01*
X98442460Y-72160934D01*
X98353602Y-72102265D01*
X98234554Y-71896068D01*
X98228174Y-71789780D01*
X98245604Y-71724732D01*
X98304273Y-71635873D01*
X98469230Y-71540635D01*
X98575518Y-71534255D01*
X98640567Y-71551685D01*
X98729426Y-71610354D01*
%TO.C,OP1*%
X77952380Y-59378571D02*
X77952380Y-59569047D01*
X78000000Y-59664285D01*
X78095238Y-59759523D01*
X78285714Y-59807142D01*
X78619047Y-59807142D01*
X78809523Y-59759523D01*
X78904761Y-59664285D01*
X78952380Y-59569047D01*
X78952380Y-59378571D01*
X78904761Y-59283333D01*
X78809523Y-59188095D01*
X78619047Y-59140476D01*
X78285714Y-59140476D01*
X78095238Y-59188095D01*
X78000000Y-59283333D01*
X77952380Y-59378571D01*
X78952380Y-60235714D02*
X77952380Y-60235714D01*
X77952380Y-60616666D01*
X78000000Y-60711904D01*
X78047619Y-60759523D01*
X78142857Y-60807142D01*
X78285714Y-60807142D01*
X78380952Y-60759523D01*
X78428571Y-60711904D01*
X78476190Y-60616666D01*
X78476190Y-60235714D01*
X78952380Y-61759523D02*
X78952380Y-61188095D01*
X78952380Y-61473809D02*
X77952380Y-61473809D01*
X78095238Y-61378571D01*
X78190476Y-61283333D01*
X78238095Y-61188095D01*
%TO.C,C6*%
X82116666Y-50327142D02*
X82164285Y-50374761D01*
X82307142Y-50422380D01*
X82402380Y-50422380D01*
X82545238Y-50374761D01*
X82640476Y-50279523D01*
X82688095Y-50184285D01*
X82735714Y-49993809D01*
X82735714Y-49850952D01*
X82688095Y-49660476D01*
X82640476Y-49565238D01*
X82545238Y-49470000D01*
X82402380Y-49422380D01*
X82307142Y-49422380D01*
X82164285Y-49470000D01*
X82116666Y-49517619D01*
X81259523Y-49422380D02*
X81450000Y-49422380D01*
X81545238Y-49470000D01*
X81592857Y-49517619D01*
X81688095Y-49660476D01*
X81735714Y-49850952D01*
X81735714Y-50231904D01*
X81688095Y-50327142D01*
X81640476Y-50374761D01*
X81545238Y-50422380D01*
X81354761Y-50422380D01*
X81259523Y-50374761D01*
X81211904Y-50327142D01*
X81164285Y-50231904D01*
X81164285Y-49993809D01*
X81211904Y-49898571D01*
X81259523Y-49850952D01*
X81354761Y-49803333D01*
X81545238Y-49803333D01*
X81640476Y-49850952D01*
X81688095Y-49898571D01*
X81735714Y-49993809D01*
%TO.C,R8*%
X79416666Y-66852380D02*
X79750000Y-66376190D01*
X79988095Y-66852380D02*
X79988095Y-65852380D01*
X79607142Y-65852380D01*
X79511904Y-65900000D01*
X79464285Y-65947619D01*
X79416666Y-66042857D01*
X79416666Y-66185714D01*
X79464285Y-66280952D01*
X79511904Y-66328571D01*
X79607142Y-66376190D01*
X79988095Y-66376190D01*
X78845238Y-66280952D02*
X78940476Y-66233333D01*
X78988095Y-66185714D01*
X79035714Y-66090476D01*
X79035714Y-66042857D01*
X78988095Y-65947619D01*
X78940476Y-65900000D01*
X78845238Y-65852380D01*
X78654761Y-65852380D01*
X78559523Y-65900000D01*
X78511904Y-65947619D01*
X78464285Y-66042857D01*
X78464285Y-66090476D01*
X78511904Y-66185714D01*
X78559523Y-66233333D01*
X78654761Y-66280952D01*
X78845238Y-66280952D01*
X78940476Y-66328571D01*
X78988095Y-66376190D01*
X79035714Y-66471428D01*
X79035714Y-66661904D01*
X78988095Y-66757142D01*
X78940476Y-66804761D01*
X78845238Y-66852380D01*
X78654761Y-66852380D01*
X78559523Y-66804761D01*
X78511904Y-66757142D01*
X78464285Y-66661904D01*
X78464285Y-66471428D01*
X78511904Y-66376190D01*
X78559523Y-66328571D01*
X78654761Y-66280952D01*
%TO.C,C9*%
X70566666Y-63807142D02*
X70614285Y-63854761D01*
X70757142Y-63902380D01*
X70852380Y-63902380D01*
X70995238Y-63854761D01*
X71090476Y-63759523D01*
X71138095Y-63664285D01*
X71185714Y-63473809D01*
X71185714Y-63330952D01*
X71138095Y-63140476D01*
X71090476Y-63045238D01*
X70995238Y-62950000D01*
X70852380Y-62902380D01*
X70757142Y-62902380D01*
X70614285Y-62950000D01*
X70566666Y-62997619D01*
X70090476Y-63902380D02*
X69900000Y-63902380D01*
X69804761Y-63854761D01*
X69757142Y-63807142D01*
X69661904Y-63664285D01*
X69614285Y-63473809D01*
X69614285Y-63092857D01*
X69661904Y-62997619D01*
X69709523Y-62950000D01*
X69804761Y-62902380D01*
X69995238Y-62902380D01*
X70090476Y-62950000D01*
X70138095Y-62997619D01*
X70185714Y-63092857D01*
X70185714Y-63330952D01*
X70138095Y-63426190D01*
X70090476Y-63473809D01*
X69995238Y-63521428D01*
X69804761Y-63521428D01*
X69709523Y-63473809D01*
X69661904Y-63426190D01*
X69614285Y-63330952D01*
%TO.C,J2*%
X72364865Y-41866965D02*
X72722008Y-42485554D01*
X72834676Y-42585463D01*
X72964774Y-42620322D01*
X73112301Y-42590133D01*
X73194780Y-42542514D01*
X72041330Y-42163729D02*
X71976282Y-42146299D01*
X71869993Y-42152679D01*
X71663797Y-42271727D01*
X71605128Y-42360585D01*
X71587698Y-42425634D01*
X71594078Y-42531922D01*
X71641697Y-42614401D01*
X71754365Y-42714309D01*
X72534951Y-42923466D01*
X71998840Y-43232990D01*
%TO.C,JP2*%
X92752380Y-73916666D02*
X93466666Y-73916666D01*
X93609523Y-73869047D01*
X93704761Y-73773809D01*
X93752380Y-73630952D01*
X93752380Y-73535714D01*
X93752380Y-74392857D02*
X92752380Y-74392857D01*
X92752380Y-74773809D01*
X92800000Y-74869047D01*
X92847619Y-74916666D01*
X92942857Y-74964285D01*
X93085714Y-74964285D01*
X93180952Y-74916666D01*
X93228571Y-74869047D01*
X93276190Y-74773809D01*
X93276190Y-74392857D01*
X92847619Y-75345238D02*
X92800000Y-75392857D01*
X92752380Y-75488095D01*
X92752380Y-75726190D01*
X92800000Y-75821428D01*
X92847619Y-75869047D01*
X92942857Y-75916666D01*
X93038095Y-75916666D01*
X93180952Y-75869047D01*
X93752380Y-75297619D01*
X93752380Y-75916666D01*
X90702380Y-70916666D02*
X90702380Y-71535714D01*
X91083333Y-71202380D01*
X91083333Y-71345238D01*
X91130952Y-71440476D01*
X91178571Y-71488095D01*
X91273809Y-71535714D01*
X91511904Y-71535714D01*
X91607142Y-71488095D01*
X91654761Y-71440476D01*
X91702380Y-71345238D01*
X91702380Y-71059523D01*
X91654761Y-70964285D01*
X91607142Y-70916666D01*
X91702380Y-77035714D02*
X91702380Y-76464285D01*
X91702380Y-76750000D02*
X90702380Y-76750000D01*
X90845238Y-76654761D01*
X90940476Y-76559523D01*
X90988095Y-76464285D01*
%TO.C,R3*%
X78666666Y-65252380D02*
X79000000Y-64776190D01*
X79238095Y-65252380D02*
X79238095Y-64252380D01*
X78857142Y-64252380D01*
X78761904Y-64300000D01*
X78714285Y-64347619D01*
X78666666Y-64442857D01*
X78666666Y-64585714D01*
X78714285Y-64680952D01*
X78761904Y-64728571D01*
X78857142Y-64776190D01*
X79238095Y-64776190D01*
X78333333Y-64252380D02*
X77714285Y-64252380D01*
X78047619Y-64633333D01*
X77904761Y-64633333D01*
X77809523Y-64680952D01*
X77761904Y-64728571D01*
X77714285Y-64823809D01*
X77714285Y-65061904D01*
X77761904Y-65157142D01*
X77809523Y-65204761D01*
X77904761Y-65252380D01*
X78190476Y-65252380D01*
X78285714Y-65204761D01*
X78333333Y-65157142D01*
%TO.C,C5*%
X79266666Y-49307142D02*
X79314285Y-49354761D01*
X79457142Y-49402380D01*
X79552380Y-49402380D01*
X79695238Y-49354761D01*
X79790476Y-49259523D01*
X79838095Y-49164285D01*
X79885714Y-48973809D01*
X79885714Y-48830952D01*
X79838095Y-48640476D01*
X79790476Y-48545238D01*
X79695238Y-48450000D01*
X79552380Y-48402380D01*
X79457142Y-48402380D01*
X79314285Y-48450000D01*
X79266666Y-48497619D01*
X78361904Y-48402380D02*
X78838095Y-48402380D01*
X78885714Y-48878571D01*
X78838095Y-48830952D01*
X78742857Y-48783333D01*
X78504761Y-48783333D01*
X78409523Y-48830952D01*
X78361904Y-48878571D01*
X78314285Y-48973809D01*
X78314285Y-49211904D01*
X78361904Y-49307142D01*
X78409523Y-49354761D01*
X78504761Y-49402380D01*
X78742857Y-49402380D01*
X78838095Y-49354761D01*
X78885714Y-49307142D01*
%TO.C,C1*%
X90657142Y-52783333D02*
X90704761Y-52735714D01*
X90752380Y-52592857D01*
X90752380Y-52497619D01*
X90704761Y-52354761D01*
X90609523Y-52259523D01*
X90514285Y-52211904D01*
X90323809Y-52164285D01*
X90180952Y-52164285D01*
X89990476Y-52211904D01*
X89895238Y-52259523D01*
X89800000Y-52354761D01*
X89752380Y-52497619D01*
X89752380Y-52592857D01*
X89800000Y-52735714D01*
X89847619Y-52783333D01*
X90752380Y-53735714D02*
X90752380Y-53164285D01*
X90752380Y-53450000D02*
X89752380Y-53450000D01*
X89895238Y-53354761D01*
X89990476Y-53259523D01*
X90038095Y-53164285D01*
%TO.C,R7*%
X95316666Y-33952380D02*
X95650000Y-33476190D01*
X95888095Y-33952380D02*
X95888095Y-32952380D01*
X95507142Y-32952380D01*
X95411904Y-33000000D01*
X95364285Y-33047619D01*
X95316666Y-33142857D01*
X95316666Y-33285714D01*
X95364285Y-33380952D01*
X95411904Y-33428571D01*
X95507142Y-33476190D01*
X95888095Y-33476190D01*
X94983333Y-32952380D02*
X94316666Y-32952380D01*
X94745238Y-33952380D01*
%TO.C,TP3*%
X93961904Y-67402380D02*
X93390476Y-67402380D01*
X93676190Y-68402380D02*
X93676190Y-67402380D01*
X93057142Y-68402380D02*
X93057142Y-67402380D01*
X92676190Y-67402380D01*
X92580952Y-67450000D01*
X92533333Y-67497619D01*
X92485714Y-67592857D01*
X92485714Y-67735714D01*
X92533333Y-67830952D01*
X92580952Y-67878571D01*
X92676190Y-67926190D01*
X93057142Y-67926190D01*
X92152380Y-67402380D02*
X91533333Y-67402380D01*
X91866666Y-67783333D01*
X91723809Y-67783333D01*
X91628571Y-67830952D01*
X91580952Y-67878571D01*
X91533333Y-67973809D01*
X91533333Y-68211904D01*
X91580952Y-68307142D01*
X91628571Y-68354761D01*
X91723809Y-68402380D01*
X92009523Y-68402380D01*
X92104761Y-68354761D01*
X92152380Y-68307142D01*
%TO.C,J1*%
X71787515Y-71849701D02*
X72144658Y-71231111D01*
X72174847Y-71083584D01*
X72139987Y-70953486D01*
X72040079Y-70840818D01*
X71957600Y-70793199D01*
X73153540Y-71483675D02*
X72658669Y-71197961D01*
X72906104Y-71340818D02*
X72406104Y-72206844D01*
X72395054Y-72035507D01*
X72360195Y-71905409D01*
X72301526Y-71816551D01*
%TO.C,R9*%
X87216666Y-62602380D02*
X87550000Y-62126190D01*
X87788095Y-62602380D02*
X87788095Y-61602380D01*
X87407142Y-61602380D01*
X87311904Y-61650000D01*
X87264285Y-61697619D01*
X87216666Y-61792857D01*
X87216666Y-61935714D01*
X87264285Y-62030952D01*
X87311904Y-62078571D01*
X87407142Y-62126190D01*
X87788095Y-62126190D01*
X86740476Y-62602380D02*
X86550000Y-62602380D01*
X86454761Y-62554761D01*
X86407142Y-62507142D01*
X86311904Y-62364285D01*
X86264285Y-62173809D01*
X86264285Y-61792857D01*
X86311904Y-61697619D01*
X86359523Y-61650000D01*
X86454761Y-61602380D01*
X86645238Y-61602380D01*
X86740476Y-61650000D01*
X86788095Y-61697619D01*
X86835714Y-61792857D01*
X86835714Y-62030952D01*
X86788095Y-62126190D01*
X86740476Y-62173809D01*
X86645238Y-62221428D01*
X86454761Y-62221428D01*
X86359523Y-62173809D01*
X86311904Y-62126190D01*
X86264285Y-62030952D01*
%TO.C,R1*%
X90266666Y-35502380D02*
X90600000Y-35026190D01*
X90838095Y-35502380D02*
X90838095Y-34502380D01*
X90457142Y-34502380D01*
X90361904Y-34550000D01*
X90314285Y-34597619D01*
X90266666Y-34692857D01*
X90266666Y-34835714D01*
X90314285Y-34930952D01*
X90361904Y-34978571D01*
X90457142Y-35026190D01*
X90838095Y-35026190D01*
X89314285Y-35502380D02*
X89885714Y-35502380D01*
X89600000Y-35502380D02*
X89600000Y-34502380D01*
X89695238Y-34645238D01*
X89790476Y-34740476D01*
X89885714Y-34788095D01*
%TO.C,U2*%
X93811904Y-42002380D02*
X93811904Y-42811904D01*
X93764285Y-42907142D01*
X93716666Y-42954761D01*
X93621428Y-43002380D01*
X93430952Y-43002380D01*
X93335714Y-42954761D01*
X93288095Y-42907142D01*
X93240476Y-42811904D01*
X93240476Y-42002380D01*
X92811904Y-42097619D02*
X92764285Y-42050000D01*
X92669047Y-42002380D01*
X92430952Y-42002380D01*
X92335714Y-42050000D01*
X92288095Y-42097619D01*
X92240476Y-42192857D01*
X92240476Y-42288095D01*
X92288095Y-42430952D01*
X92859523Y-43002380D01*
X92240476Y-43002380D01*
%TO.C,J7*%
X106352380Y-64016666D02*
X107066666Y-64016666D01*
X107209523Y-63969047D01*
X107304761Y-63873809D01*
X107352380Y-63730952D01*
X107352380Y-63635714D01*
X106352380Y-64397619D02*
X106352380Y-65064285D01*
X107352380Y-64635714D01*
%TO.C,C10*%
X88792857Y-57257142D02*
X88840476Y-57304761D01*
X88983333Y-57352380D01*
X89078571Y-57352380D01*
X89221428Y-57304761D01*
X89316666Y-57209523D01*
X89364285Y-57114285D01*
X89411904Y-56923809D01*
X89411904Y-56780952D01*
X89364285Y-56590476D01*
X89316666Y-56495238D01*
X89221428Y-56400000D01*
X89078571Y-56352380D01*
X88983333Y-56352380D01*
X88840476Y-56400000D01*
X88792857Y-56447619D01*
X87840476Y-57352380D02*
X88411904Y-57352380D01*
X88126190Y-57352380D02*
X88126190Y-56352380D01*
X88221428Y-56495238D01*
X88316666Y-56590476D01*
X88411904Y-56638095D01*
X87221428Y-56352380D02*
X87126190Y-56352380D01*
X87030952Y-56400000D01*
X86983333Y-56447619D01*
X86935714Y-56542857D01*
X86888095Y-56733333D01*
X86888095Y-56971428D01*
X86935714Y-57161904D01*
X86983333Y-57257142D01*
X87030952Y-57304761D01*
X87126190Y-57352380D01*
X87221428Y-57352380D01*
X87316666Y-57304761D01*
X87364285Y-57257142D01*
X87411904Y-57161904D01*
X87459523Y-56971428D01*
X87459523Y-56733333D01*
X87411904Y-56542857D01*
X87364285Y-56447619D01*
X87316666Y-56400000D01*
X87221428Y-56352380D01*
%TO.C,L1*%
X85966666Y-46402380D02*
X86442857Y-46402380D01*
X86442857Y-45402380D01*
X85109523Y-46402380D02*
X85680952Y-46402380D01*
X85395238Y-46402380D02*
X85395238Y-45402380D01*
X85490476Y-45545238D01*
X85585714Y-45640476D01*
X85680952Y-45688095D01*
%TO.C,D1*%
X79252380Y-39311904D02*
X78252380Y-39311904D01*
X78252380Y-39550000D01*
X78300000Y-39692857D01*
X78395238Y-39788095D01*
X78490476Y-39835714D01*
X78680952Y-39883333D01*
X78823809Y-39883333D01*
X79014285Y-39835714D01*
X79109523Y-39788095D01*
X79204761Y-39692857D01*
X79252380Y-39550000D01*
X79252380Y-39311904D01*
X79252380Y-40835714D02*
X79252380Y-40264285D01*
X79252380Y-40550000D02*
X78252380Y-40550000D01*
X78395238Y-40454761D01*
X78490476Y-40359523D01*
X78538095Y-40264285D01*
%TO.C,C7*%
X87316666Y-28407142D02*
X87364285Y-28454761D01*
X87507142Y-28502380D01*
X87602380Y-28502380D01*
X87745238Y-28454761D01*
X87840476Y-28359523D01*
X87888095Y-28264285D01*
X87935714Y-28073809D01*
X87935714Y-27930952D01*
X87888095Y-27740476D01*
X87840476Y-27645238D01*
X87745238Y-27550000D01*
X87602380Y-27502380D01*
X87507142Y-27502380D01*
X87364285Y-27550000D01*
X87316666Y-27597619D01*
X86983333Y-27502380D02*
X86316666Y-27502380D01*
X86745238Y-28502380D01*
%TO.C,R5*%
X83902380Y-82283333D02*
X83426190Y-81950000D01*
X83902380Y-81711904D02*
X82902380Y-81711904D01*
X82902380Y-82092857D01*
X82950000Y-82188095D01*
X82997619Y-82235714D01*
X83092857Y-82283333D01*
X83235714Y-82283333D01*
X83330952Y-82235714D01*
X83378571Y-82188095D01*
X83426190Y-82092857D01*
X83426190Y-81711904D01*
X82902380Y-83188095D02*
X82902380Y-82711904D01*
X83378571Y-82664285D01*
X83330952Y-82711904D01*
X83283333Y-82807142D01*
X83283333Y-83045238D01*
X83330952Y-83140476D01*
X83378571Y-83188095D01*
X83473809Y-83235714D01*
X83711904Y-83235714D01*
X83807142Y-83188095D01*
X83854761Y-83140476D01*
X83902380Y-83045238D01*
X83902380Y-82807142D01*
X83854761Y-82711904D01*
X83807142Y-82664285D01*
%TO.C,C8*%
X85216666Y-67907142D02*
X85264285Y-67954761D01*
X85407142Y-68002380D01*
X85502380Y-68002380D01*
X85645238Y-67954761D01*
X85740476Y-67859523D01*
X85788095Y-67764285D01*
X85835714Y-67573809D01*
X85835714Y-67430952D01*
X85788095Y-67240476D01*
X85740476Y-67145238D01*
X85645238Y-67050000D01*
X85502380Y-67002380D01*
X85407142Y-67002380D01*
X85264285Y-67050000D01*
X85216666Y-67097619D01*
X84645238Y-67430952D02*
X84740476Y-67383333D01*
X84788095Y-67335714D01*
X84835714Y-67240476D01*
X84835714Y-67192857D01*
X84788095Y-67097619D01*
X84740476Y-67050000D01*
X84645238Y-67002380D01*
X84454761Y-67002380D01*
X84359523Y-67050000D01*
X84311904Y-67097619D01*
X84264285Y-67192857D01*
X84264285Y-67240476D01*
X84311904Y-67335714D01*
X84359523Y-67383333D01*
X84454761Y-67430952D01*
X84645238Y-67430952D01*
X84740476Y-67478571D01*
X84788095Y-67526190D01*
X84835714Y-67621428D01*
X84835714Y-67811904D01*
X84788095Y-67907142D01*
X84740476Y-67954761D01*
X84645238Y-68002380D01*
X84454761Y-68002380D01*
X84359523Y-67954761D01*
X84311904Y-67907142D01*
X84264285Y-67811904D01*
X84264285Y-67621428D01*
X84311904Y-67526190D01*
X84359523Y-67478571D01*
X84454761Y-67430952D01*
%TO.C,C11*%
X99042857Y-48457142D02*
X99090476Y-48504761D01*
X99233333Y-48552380D01*
X99328571Y-48552380D01*
X99471428Y-48504761D01*
X99566666Y-48409523D01*
X99614285Y-48314285D01*
X99661904Y-48123809D01*
X99661904Y-47980952D01*
X99614285Y-47790476D01*
X99566666Y-47695238D01*
X99471428Y-47600000D01*
X99328571Y-47552380D01*
X99233333Y-47552380D01*
X99090476Y-47600000D01*
X99042857Y-47647619D01*
X98090476Y-48552380D02*
X98661904Y-48552380D01*
X98376190Y-48552380D02*
X98376190Y-47552380D01*
X98471428Y-47695238D01*
X98566666Y-47790476D01*
X98661904Y-47838095D01*
X97138095Y-48552380D02*
X97709523Y-48552380D01*
X97423809Y-48552380D02*
X97423809Y-47552380D01*
X97519047Y-47695238D01*
X97614285Y-47790476D01*
X97709523Y-47838095D01*
%TO.C,C4*%
X77657142Y-73133333D02*
X77704761Y-73085714D01*
X77752380Y-72942857D01*
X77752380Y-72847619D01*
X77704761Y-72704761D01*
X77609523Y-72609523D01*
X77514285Y-72561904D01*
X77323809Y-72514285D01*
X77180952Y-72514285D01*
X76990476Y-72561904D01*
X76895238Y-72609523D01*
X76800000Y-72704761D01*
X76752380Y-72847619D01*
X76752380Y-72942857D01*
X76800000Y-73085714D01*
X76847619Y-73133333D01*
X77085714Y-73990476D02*
X77752380Y-73990476D01*
X76704761Y-73752380D02*
X77419047Y-73514285D01*
X77419047Y-74133333D01*
%TO.C,J3*%
X65552380Y-56816666D02*
X66266666Y-56816666D01*
X66409523Y-56769047D01*
X66504761Y-56673809D01*
X66552380Y-56530952D01*
X66552380Y-56435714D01*
X65552380Y-57197619D02*
X65552380Y-57816666D01*
X65933333Y-57483333D01*
X65933333Y-57626190D01*
X65980952Y-57721428D01*
X66028571Y-57769047D01*
X66123809Y-57816666D01*
X66361904Y-57816666D01*
X66457142Y-57769047D01*
X66504761Y-57721428D01*
X66552380Y-57626190D01*
X66552380Y-57340476D01*
X66504761Y-57245238D01*
X66457142Y-57197619D01*
%TO.C,C13*%
X80392857Y-33607142D02*
X80440476Y-33654761D01*
X80583333Y-33702380D01*
X80678571Y-33702380D01*
X80821428Y-33654761D01*
X80916666Y-33559523D01*
X80964285Y-33464285D01*
X81011904Y-33273809D01*
X81011904Y-33130952D01*
X80964285Y-32940476D01*
X80916666Y-32845238D01*
X80821428Y-32750000D01*
X80678571Y-32702380D01*
X80583333Y-32702380D01*
X80440476Y-32750000D01*
X80392857Y-32797619D01*
X79440476Y-33702380D02*
X80011904Y-33702380D01*
X79726190Y-33702380D02*
X79726190Y-32702380D01*
X79821428Y-32845238D01*
X79916666Y-32940476D01*
X80011904Y-32988095D01*
X79107142Y-32702380D02*
X78488095Y-32702380D01*
X78821428Y-33083333D01*
X78678571Y-33083333D01*
X78583333Y-33130952D01*
X78535714Y-33178571D01*
X78488095Y-33273809D01*
X78488095Y-33511904D01*
X78535714Y-33607142D01*
X78583333Y-33654761D01*
X78678571Y-33702380D01*
X78964285Y-33702380D01*
X79059523Y-33654761D01*
X79107142Y-33607142D01*
%TO.C,R6*%
X78002380Y-82583333D02*
X77526190Y-82250000D01*
X78002380Y-82011904D02*
X77002380Y-82011904D01*
X77002380Y-82392857D01*
X77050000Y-82488095D01*
X77097619Y-82535714D01*
X77192857Y-82583333D01*
X77335714Y-82583333D01*
X77430952Y-82535714D01*
X77478571Y-82488095D01*
X77526190Y-82392857D01*
X77526190Y-82011904D01*
X77002380Y-83440476D02*
X77002380Y-83250000D01*
X77050000Y-83154761D01*
X77097619Y-83107142D01*
X77240476Y-83011904D01*
X77430952Y-82964285D01*
X77811904Y-82964285D01*
X77907142Y-83011904D01*
X77954761Y-83059523D01*
X78002380Y-83154761D01*
X78002380Y-83345238D01*
X77954761Y-83440476D01*
X77907142Y-83488095D01*
X77811904Y-83535714D01*
X77573809Y-83535714D01*
X77478571Y-83488095D01*
X77430952Y-83440476D01*
X77383333Y-83345238D01*
X77383333Y-83154761D01*
X77430952Y-83059523D01*
X77478571Y-83011904D01*
X77573809Y-82964285D01*
%TO.C,J4*%
X104752380Y-56816666D02*
X105466666Y-56816666D01*
X105609523Y-56769047D01*
X105704761Y-56673809D01*
X105752380Y-56530952D01*
X105752380Y-56435714D01*
X105085714Y-57721428D02*
X105752380Y-57721428D01*
X104704761Y-57483333D02*
X105419047Y-57245238D01*
X105419047Y-57864285D01*
D12*
%TO.C,J5*%
X98477686Y-38579641D02*
X99052686Y-37583712D01*
X99052686Y-37583712D02*
X99962013Y-38108712D01*
X102707314Y-39693712D02*
X101797987Y-39168712D01*
X99962013Y-38108712D02*
X100457013Y-37251347D01*
X102132314Y-40689641D02*
X102707314Y-39693712D01*
X98505936Y-40870711D02*
X100134064Y-41810711D01*
%TO.C,C2*%
X77161252Y-36460000D02*
X75738748Y-36460000D01*
X77161252Y-34640000D02*
X75738748Y-34640000D01*
D11*
%TO.C,TP1*%
X84200000Y-33950000D02*
G75*
G03*
X84200000Y-33950000I-1400000J0D01*
G01*
D12*
%TO.C,R2*%
X88922936Y-37315000D02*
X89377064Y-37315000D01*
X88922936Y-38785000D02*
X89377064Y-38785000D01*
D11*
%TO.C,TP2*%
X75350000Y-51400000D02*
G75*
G03*
X75350000Y-51400000I-1400000J0D01*
G01*
D12*
%TO.C,JP3*%
X89750000Y-76050000D02*
X89750000Y-71950000D01*
X87750000Y-76050000D02*
X89750000Y-76050000D01*
X87750000Y-71950000D02*
X87750000Y-76050000D01*
X89750000Y-71950000D02*
X87750000Y-71950000D01*
%TO.C,U1*%
X80800000Y-73550000D02*
X80800000Y-71750000D01*
X84020000Y-71750000D02*
X84020000Y-74700000D01*
%TO.C,R4*%
X75777064Y-63285000D02*
X75322936Y-63285000D01*
X75777064Y-61815000D02*
X75322936Y-61815000D01*
%TO.C,C12*%
X76061252Y-56715000D02*
X75538748Y-56715000D01*
X76061252Y-58185000D02*
X75538748Y-58185000D01*
%TO.C,C3*%
X78211252Y-67965000D02*
X77688748Y-67965000D01*
X78211252Y-69435000D02*
X77688748Y-69435000D01*
%TO.C,J6*%
X100259064Y-72189289D02*
X98630936Y-73129289D01*
X102832314Y-74306288D02*
X101922987Y-74831288D01*
X101922987Y-74831288D02*
X102417987Y-75688653D01*
X102257314Y-73310359D02*
X102832314Y-74306288D01*
X98602686Y-75420359D02*
X99177686Y-76416288D01*
X99177686Y-76416288D02*
X100087013Y-75891288D01*
%TO.C,OP1*%
X82550000Y-61660000D02*
X80750000Y-61660000D01*
X80750000Y-58440000D02*
X83200000Y-58440000D01*
%TO.C,C6*%
X81265000Y-53181252D02*
X81265000Y-52658748D01*
X82735000Y-53181252D02*
X82735000Y-52658748D01*
%TO.C,R8*%
X81872936Y-64565000D02*
X82327064Y-64565000D01*
X81872936Y-66035000D02*
X82327064Y-66035000D01*
%TO.C,C9*%
X71765000Y-63711252D02*
X71765000Y-63188748D01*
X73235000Y-63711252D02*
X73235000Y-63188748D01*
%TO.C,J2*%
X71972314Y-37633712D02*
X71062987Y-38158712D01*
X70890936Y-41860711D02*
X72519064Y-40920711D01*
X68317686Y-39743712D02*
X69227013Y-39218712D01*
X68892686Y-40739641D02*
X68317686Y-39743712D01*
X72547314Y-38629641D02*
X71972314Y-37633712D01*
X69227013Y-39218712D02*
X68732013Y-38361347D01*
%TO.C,JP2*%
X92250000Y-76050000D02*
X92250000Y-71950000D01*
X90250000Y-71950000D02*
X90250000Y-76050000D01*
X92250000Y-71950000D02*
X90250000Y-71950000D01*
X90250000Y-76050000D02*
X92250000Y-76050000D01*
%TO.C,R3*%
X79727064Y-62315000D02*
X79272936Y-62315000D01*
X79727064Y-63785000D02*
X79272936Y-63785000D01*
%TO.C,C5*%
X78140000Y-53111252D02*
X78140000Y-51688748D01*
X79960000Y-53111252D02*
X79960000Y-51688748D01*
%TO.C,C1*%
X91240000Y-52238748D02*
X91240000Y-53661252D01*
X93060000Y-52238748D02*
X93060000Y-53661252D01*
%TO.C,R7*%
X92365000Y-34172936D02*
X92365000Y-34627064D01*
X93835000Y-34172936D02*
X93835000Y-34627064D01*
D11*
%TO.C,TP3*%
X90600000Y-67950000D02*
G75*
G03*
X90600000Y-67950000I-1400000J0D01*
G01*
D12*
%TO.C,J1*%
X72547314Y-75420359D02*
X71972314Y-76416288D01*
X68892686Y-73310359D02*
X68317686Y-74306288D01*
X71062987Y-75891288D02*
X70567987Y-76748653D01*
X72519064Y-73129289D02*
X70890936Y-72189289D01*
X71972314Y-76416288D02*
X71062987Y-75891288D01*
X68317686Y-74306288D02*
X69227013Y-74831288D01*
%TO.C,R9*%
X83872936Y-62315000D02*
X84327064Y-62315000D01*
X83872936Y-63785000D02*
X84327064Y-63785000D01*
%TO.C,R1*%
X86922936Y-34315000D02*
X87377064Y-34315000D01*
X86922936Y-35785000D02*
X87377064Y-35785000D01*
%TO.C,U2*%
X90400000Y-42610000D02*
X87950000Y-42610000D01*
X88600000Y-39390000D02*
X90400000Y-39390000D01*
%TO.C,J7*%
X108700000Y-64650000D02*
X109200000Y-64650000D01*
X112810000Y-65050000D02*
X112200000Y-65050000D01*
X112810000Y-67610000D02*
X108090000Y-67610000D01*
X113110000Y-66660000D02*
X113110000Y-67910000D01*
X112910000Y-65850000D02*
X112910000Y-66150000D01*
X111500000Y-67610000D02*
X111500000Y-67000000D01*
X109200000Y-64650000D02*
X109200000Y-64450000D01*
X112200000Y-64050000D02*
X112810000Y-64050000D01*
X108090000Y-61490000D02*
X112810000Y-61490000D01*
X110200000Y-67610000D02*
X110200000Y-67000000D01*
X109200000Y-64450000D02*
X108700000Y-64450000D01*
X108700000Y-64550000D02*
X109200000Y-64550000D01*
X113010000Y-65850000D02*
X113010000Y-66150000D01*
X112810000Y-65850000D02*
X113010000Y-65850000D01*
X111500000Y-61490000D02*
X111500000Y-62100000D01*
X113110000Y-67910000D02*
X111860000Y-67910000D01*
X112810000Y-61490000D02*
X112810000Y-67610000D01*
X112200000Y-67000000D02*
X108700000Y-67000000D01*
X110200000Y-61490000D02*
X110200000Y-62100000D01*
X112200000Y-62100000D02*
X112200000Y-64050000D01*
X108700000Y-62100000D02*
X112200000Y-62100000D01*
X113010000Y-66150000D02*
X112810000Y-66150000D01*
X112200000Y-65050000D02*
X112200000Y-67000000D01*
X108090000Y-67610000D02*
X108090000Y-61490000D01*
X108700000Y-67000000D02*
X108700000Y-62100000D01*
%TO.C,C10*%
X84388748Y-56215000D02*
X84911252Y-56215000D01*
X84388748Y-57685000D02*
X84911252Y-57685000D01*
%TO.C,L1*%
X87400000Y-49650000D02*
X93400000Y-49650000D01*
X87400000Y-43450000D02*
X93400000Y-43450000D01*
D13*
X90080000Y-44250000D02*
G75*
G03*
X90080000Y-44250000I-130000J0D01*
G01*
D12*
%TO.C,D1*%
X84050000Y-36950000D02*
X84050000Y-44250000D01*
X83350000Y-36950000D02*
X84050000Y-36950000D01*
X79750000Y-36950000D02*
X79750000Y-44250000D01*
X79750000Y-36950000D02*
X80450000Y-36950000D01*
%TO.C,C7*%
X86838748Y-30735000D02*
X87361252Y-30735000D01*
X86838748Y-29265000D02*
X87361252Y-29265000D01*
%TO.C,R5*%
X80815000Y-82027064D02*
X80815000Y-81572936D01*
X82285000Y-82027064D02*
X82285000Y-81572936D01*
%TO.C,C8*%
X81838748Y-68285000D02*
X82361252Y-68285000D01*
X81838748Y-66815000D02*
X82361252Y-66815000D01*
%TO.C,C11*%
X96588748Y-45515000D02*
X97111252Y-45515000D01*
X96588748Y-46985000D02*
X97111252Y-46985000D01*
%TO.C,C4*%
X79735000Y-72438748D02*
X79735000Y-72961252D01*
X78265000Y-72438748D02*
X78265000Y-72961252D01*
%TO.C,J3*%
X62840000Y-55040000D02*
X61690000Y-55040000D01*
X62840000Y-59260000D02*
X61690000Y-59260000D01*
X64810000Y-58090000D02*
X64810000Y-56210000D01*
X61690000Y-55040000D02*
X61690000Y-56090000D01*
X61690000Y-59260000D02*
X61690000Y-58210000D01*
X61690000Y-58210000D02*
X60700000Y-58210000D01*
%TO.C,C13*%
X76611252Y-33335000D02*
X76088748Y-33335000D01*
X76611252Y-31865000D02*
X76088748Y-31865000D01*
%TO.C,R6*%
X80035000Y-82927064D02*
X80035000Y-82472936D01*
X78565000Y-82927064D02*
X78565000Y-82472936D01*
%TO.C,J4*%
X108560000Y-55040000D02*
X109710000Y-55040000D01*
X109710000Y-55040000D02*
X109710000Y-56090000D01*
X108560000Y-59260000D02*
X109710000Y-59260000D01*
X106590000Y-56210000D02*
X106590000Y-58090000D01*
X109710000Y-56090000D02*
X110700000Y-56090000D01*
X109710000Y-59260000D02*
X109710000Y-58210000D01*
%TD*%
M02*
