M48
; DRILL file {KiCad (6.0.4-0)} date 2022 April 19, Tuesday 08:43:36
; FORMAT={-:-/ absolute / inch / decimal}
; #@! TF.CreationDate,2022-04-19T08:43:36+02:00
; #@! TF.GenerationSoftware,Kicad,Pcbnew,(6.0.4-0)
; #@! TF.FileFunction,Plated,1,4,PTH
FMAT,2
INCH
; #@! TA.AperFunction,Plated,PTH,ViaDrill
T1C0.0130
; #@! TA.AperFunction,Plated,PTH,ComponentDrill
T2C0.0295
; #@! TA.AperFunction,Plated,PTH,ComponentDrill
T3C0.0354
; #@! TA.AperFunction,Plated,PTH,ComponentDrill
T4C0.0394
%
G90
G05
T1
X2.6161Y-2.2697
X2.6929Y-2.1929
X2.7795Y-1.5846
X2.7795Y-1.8012
X2.7835Y-2.2835
X2.7835Y-2.7697
X2.7835Y-2.9154
X2.8543Y-2.6043
X2.876Y-1.3858
X2.876Y-1.3189
X2.876Y-1.4213
X2.876Y-1.3543
X2.939Y-2.1909
X2.9626Y-2.7047
X3.0354Y-2.002
X3.0984Y-2.2362
X3.0984Y-2.2008
X3.1097Y-2.7623
X3.1102Y-2.9626
X3.122Y-3.0768
X3.122Y-3.1693
X3.1339Y-2.2362
X3.1339Y-2.2008
X3.1417Y-1.1673
X3.1417Y-1.2067
X3.1417Y-2.565
X3.1693Y-2.2008
X3.1693Y-2.2362
X3.1732Y-3.2953
X3.1811Y-1.1673
X3.1811Y-1.2067
X3.2047Y-2.2008
X3.2047Y-2.2362
X3.2106Y-3.0295
X3.2106Y-3.126
X3.2205Y-1.1673
X3.2205Y-1.2067
X3.2598Y-1.1673
X3.2598Y-1.2067
X3.2992Y-1.1673
X3.2992Y-1.2067
X3.2992Y-2.0197
X3.3583Y-1.561
X3.3583Y-1.6083
X3.3957Y-2.8622
X3.3976Y-1.561
X3.3976Y-1.6083
X3.4154Y-2.4823
X3.5433Y-2.8031
X3.5433Y-2.9646
X3.628Y-2.2165
X3.6614Y-1.5925
X3.6614Y-1.628
X3.6654Y-1.2677
X3.6673Y-2.8622
X3.6969Y-1.5925
X3.6969Y-1.628
X3.7146Y-2.0098
X3.7146Y-2.0453
X3.7323Y-1.5925
X3.7323Y-1.628
X3.75Y-2.0098
X3.75Y-2.0453
X3.7677Y-1.5925
X3.7677Y-1.628
X3.7854Y-2.0453
X3.8189Y-3.124
X3.8622Y-1.752
X3.9213Y-3.0217
X3.9547Y-2.2303
X4.0Y-2.7717
X4.124Y-2.2303
T2
X4.3701Y-2.502
X4.3701Y-2.5807
T3
X2.626Y-1.7185
X2.626Y-1.9154
X2.626Y-2.1516
X2.626Y-2.3484
X2.626Y-2.5846
X2.626Y-2.7815
X3.0Y-1.502
X3.0Y-1.6988
X3.0Y-1.935
X3.0Y-2.1319
X3.0Y-2.3681
X3.0Y-2.565
X3.0Y-2.8012
X3.0Y-2.998
X3.374Y-1.2854
X3.374Y-1.4823
X3.374Y-1.7185
X3.374Y-1.9154
X3.374Y-2.1516
X3.374Y-2.3484
X3.374Y-2.5846
X3.374Y-2.7815
X3.374Y-3.0177
X3.374Y-3.2146
X3.748Y-1.502
X3.748Y-1.6988
X3.748Y-1.935
X3.748Y-2.1319
X3.748Y-2.3681
X3.748Y-2.565
X3.748Y-2.8012
X3.748Y-2.998
X4.122Y-1.7185
X4.122Y-1.9154
X4.122Y-2.1516
X4.122Y-2.3484
X4.122Y-2.5846
X4.122Y-2.7815
T4
X2.9114Y-2.0236
X3.2598Y-1.3366
X3.5118Y-2.6752
T0
M30
