<svg width="5000" height="5000" viewBox="0 0 5000 5000" fill="none" xmlns="http://www.w3.org/2000/svg">
<rect width="5000" height="5000" fill="white"/>
<path d="M3298.68 4212.69L3218.81 4041.42" stroke="black" stroke-width="10" stroke-linecap="round" stroke-linejoin="round"/>
<path d="M2311.02 2827.31L1555.1 4136.57L1460.61 4300.23" stroke="black" stroke-width="10" stroke-linecap="round" stroke-linejoin="round"/>
<path d="M2434.35 2872.21L2171.76 4361.04L2138.94 4547.14" stroke="black" stroke-width="10" stroke-linecap="round" stroke-linejoin="round"/>
<path d="M2172.68 2688.98L863.417 3444.88L699.758 3539.37" stroke="black" stroke-width="10" stroke-linecap="round" stroke-linejoin="round"/>
<path d="M2629.26 2855.16L3146.3 4275.81L3210.93 4453.39" stroke="black" stroke-width="10" stroke-linecap="round" stroke-linejoin="round"/>
<path d="M2493.42 2877.9L2470.4 4200.53L2463.83 4578.43" stroke="black" stroke-width="10" stroke-linecap="round" stroke-linejoin="round"/>
<path d="M3836.28 3836.25L3702.65 3702.63L1030.09 1030.12" stroke="black" stroke-width="20" stroke-linecap="round" stroke-linejoin="round"/>
<path d="M2402.17 2865.07L2010.85 4325.36L1961.94 4507.9" stroke="black" stroke-width="10" stroke-linecap="round" stroke-linejoin="round"/>
<path fill-rule="evenodd" clip-rule="evenodd" d="M4200.79 2500L4200.7 2482.99L4200.45 2465.99L4200.02 2448.98L4199.43 2431.99L4198.66 2415L4197.73 2398.01L4196.62 2381.04L4195.35 2364.08L4193.9 2347.14L4192.29 2330.2L4190.51 2313.29L4188.56 2296.39L4186.44 2279.52L4184.15 2262.67L4181.69 2245.84L4179.06 2229.03L4176.27 2212.26L4173.31 2195.51L4170.18 2178.79L4166.88 2162.11L4163.42 2145.45L4159.79 2128.84L4156 2112.26L4152.04 2095.72L4147.91 2079.22L4143.62 2062.76L4139.17 2046.35L4134.55 2029.98L4129.77 2013.66L4124.82 1997.38L4119.72 1981.16L4114.45 1964.99L4109.02 1948.87L4103.43 1932.81L4097.67 1916.8L4091.76 1900.86L4085.69 1884.97L4079.46 1869.14L4073.07 1853.38L4066.53 1837.68L4059.83 1822.05L4052.97 1806.49L4045.96 1790.99L4038.79 1775.57L4031.47 1760.22L4023.99 1744.94L4016.37 1729.74L4008.59 1714.61L4000.66 1699.57L3992.58 1684.6L3984.35 1669.71L3975.98 1654.91L3967.45 1640.2L3958.78 1625.56L3949.96 1611.02L3941 1596.57L3931.89 1582.2L3922.65 1567.93L3913.25 1553.75L3903.72 1539.66L3894.05 1525.67L3884.23 1511.78L3874.28 1497.99L3864.19 1484.3L3853.97 1470.71L3843.61 1457.22L3833.11 1443.83L3822.49 1430.56L3811.73 1417.39L3800.83 1404.32L3789.81 1391.37L3778.66 1378.53L3767.38 1365.8L3755.98 1353.18L3744.45 1340.68L3732.79 1328.29L3721.01 1316.02L3709.11 1303.87L3697.09 1291.84L3684.95 1279.93L3672.69 1268.14L3660.31 1256.48L3647.82 1244.94L3635.21 1233.52L3622.49 1222.23L3609.66 1211.07L3596.71 1200.04L3583.66 1189.14L3570.5 1178.37L3557.23 1167.73L3543.85 1157.22L3530.37 1146.85L3516.79 1136.61L3503.1 1126.52L3489.32 1116.55L3475.44 1106.73L3461.45 1097.04L3447.38 1087.5L3433.2 1078.1L3418.94 1068.84L3404.58 1059.72L3390.13 1050.74L3375.6 1041.92L3360.97 1033.23L3346.26 1024.7L3331.47 1016.31L3316.59 1008.07L3301.63 999.977L3286.59 992.036L3271.47 984.246L3256.27 976.607L3241 969.121L3225.66 961.787L3210.24 954.608L3194.75 947.583L3179.19 940.713L3163.57 933.999L3147.87 927.442L3132.11 921.042L3116.29 914.8L3100.41 908.716L3084.47 902.792L3068.47 897.027L3052.41 891.422L3036.3 885.979L3020.13 880.697L3003.91 875.576L2987.64 870.619L2971.32 865.824L2954.96 861.192L2938.55 856.725L2922.09 852.422L2905.6 848.283L2889.06 844.31L2872.48 840.502L2855.87 836.86L2839.22 833.385L2822.54 830.076L2805.82 826.934L2789.08 823.96L2772.3 821.153L2755.5 818.514L2738.67 816.043L2721.82 813.74L2704.95 811.606L2688.06 809.641L2671.14 807.845L2654.21 806.218L2637.27 804.761L2620.31 803.473L2603.34 802.355L2586.36 801.406L2569.37 800.628L2552.37 800.019L2535.37 799.58L2518.36 799.312L2501.35 799.213L2484.35 799.285L2467.34 799.526L2450.34 799.938L2433.34 800.519L2416.35 801.271L2399.37 802.192L2382.39 803.284L2365.43 804.545L2348.48 805.975L2331.55 807.575L2314.64 809.344L2297.74 811.282L2280.86 813.389L2264.01 815.665L2247.18 818.109L2230.37 820.721L2213.59 823.501L2196.84 826.449L2180.12 829.564L2163.43 832.847L2146.78 836.296L2130.16 839.911L2113.58 843.692L2097.03 847.639L2080.53 851.751L2064.07 856.028L2047.65 860.47L2031.28 865.075L2014.95 869.844L1998.68 874.776L1982.45 879.87L1966.27 885.127L1950.15 890.545L1934.09 896.124L1918.08 901.863L1902.12 907.762L1886.23 913.82L1870.4 920.037L1854.63 926.412L1838.93 932.944L1823.29 939.633L1807.72 946.478L1792.22 953.478L1776.79 960.633L1761.44 967.942L1746.15 975.404L1730.94 983.019L1715.81 990.785L1700.76 998.702L1685.79 1006.77L1670.9 1014.99L1656.09 1023.35L1641.36 1031.86L1626.73 1040.52L1612.18 1049.33L1597.71 1058.28L1583.34 1067.38L1569.06 1076.61L1554.87 1085.99L1540.78 1095.52L1526.78 1105.18L1512.89 1114.98L1499.08 1124.92L1485.38 1135L1471.79 1145.21L1458.29 1155.56L1444.9 1166.04L1431.61 1176.66L1418.43 1187.41L1405.36 1198.29L1392.4 1209.3L1379.55 1220.45L1366.81 1231.71L1354.18 1243.11L1341.67 1254.63L1329.27 1266.28L1316.99 1278.04L1304.83 1289.94L1292.79 1301.95L1280.87 1314.08L1269.08 1326.33L1257.4 1338.7L1245.85 1351.18L1234.42 1363.78L1223.13 1376.49L1211.96 1389.32L1200.91 1402.25L1190 1415.3L1179.22 1428.45L1168.57 1441.71L1158.05 1455.08L1147.67 1468.55L1137.43 1482.13L1127.32 1495.8L1117.34 1509.58L1107.51 1523.46L1097.81 1537.43L1088.26 1551.5L1078.84 1565.66L1069.57 1579.92L1060.44 1594.27L1051.46 1608.71L1042.61 1623.24L1033.92 1637.86L1025.37 1652.56L1016.97 1667.35L1008.72 1682.22L1000.62 1697.18L992.663 1712.21L984.861 1727.32L977.21 1742.51L969.711 1757.78L962.365 1773.12L955.174 1788.53L948.136 1804.01L941.254 1819.57L934.528 1835.19L927.958 1850.88L921.546 1866.63L915.291 1882.44L909.195 1898.32L903.258 1914.26L897.48 1930.26L891.863 1946.31L886.406 1962.42L881.111 1978.58L875.978 1994.8L871.008 2011.06L866.2 2027.38L861.555 2043.74L857.075 2060.14L852.758 2076.59L848.607 2093.09L844.62 2109.62L840.799 2126.19L837.144 2142.81L833.655 2159.45L830.333 2176.13L827.178 2192.84L824.19 2209.59L821.37 2226.36L818.718 2243.16L816.233 2259.98L813.917 2276.83L811.77 2293.71L809.791 2310.6L807.982 2327.51L806.342 2344.44L804.871 2361.38L803.569 2378.34L802.438 2395.31L801.476 2412.29L800.684 2429.28L800.061 2446.28L799.609 2463.28L799.327 2480.28L799.215 2497.29L799.273 2514.3L799.501 2531.31L799.899 2548.31L800.467 2565.31L801.205 2582.3L802.113 2599.28L803.191 2616.26L804.438 2633.22L805.855 2650.17L807.441 2667.1L809.197 2684.02L811.121 2700.92L813.215 2717.79L815.477 2734.65L817.908 2751.48L820.507 2768.29L823.274 2785.07L826.208 2801.83L829.31 2818.55L832.579 2835.24L836.015 2851.9L839.617 2868.52L843.385 2885.1L847.319 2901.65L851.418 2918.16L855.682 2934.62L860.11 2951.04L864.703 2967.42L869.458 2983.75L874.377 3000.03L879.459 3016.26L884.702 3032.44L890.107 3048.56L895.673 3064.64L901.4 3080.65L907.286 3096.61L913.332 3112.5L919.536 3128.34L925.898 3144.11L932.418 3159.82L939.095 3175.46L945.927 3191.04L952.915 3206.55L960.058 3221.98L967.355 3237.34L974.805 3252.63L982.407 3267.85L990.161 3282.98L998.066 3298.04L1006.12 3313.02L1014.33 3327.92L1022.68 3342.74L1031.18 3357.47L1039.83 3372.11L1048.62 3386.67L1057.56 3401.14L1066.65 3415.52L1075.87 3429.81L1085.24 3444L1094.75 3458.1L1104.4 3472.1L1114.19 3486.01L1124.12 3499.82L1134.19 3513.53L1144.39 3527.14L1154.73 3540.64L1165.21 3554.04L1175.81 3567.34L1186.55 3580.52L1197.42 3593.6L1208.42 3606.58L1219.55 3619.44L1230.81 3632.18L1242.2 3644.82L1253.71 3657.34L1265.34 3669.74L1277.1 3682.03L1288.98 3694.2L1300.99 3706.25L1313.11 3718.18L1325.35 3729.99L1337.71 3741.67L1350.18 3753.23L1362.77 3764.67L1375.48 3775.98L1388.29 3787.16L1401.22 3798.21L1414.25 3809.14L1427.4 3819.93L1440.65 3830.59L1454.01 3841.11L1467.47 3851.51L1481.04 3861.76L1494.71 3871.89L1508.48 3881.87L1522.35 3891.72L1536.31 3901.42L1550.37 3910.99L1564.53 3920.41L1578.78 3929.7L1593.13 3938.84L1607.56 3947.84L1622.08 3956.69L1636.69 3965.39L1651.39 3973.95L1666.17 3982.37L1681.04 3990.63L1695.98 3998.74L1711.01 4006.71L1726.12 4014.52L1741.3 4022.19L1756.56 4029.7L1771.89 4037.06L1787.3 4044.26L1802.78 4051.31L1818.33 4058.2L1833.94 4064.94L1849.62 4071.52L1865.37 4077.95L1881.18 4084.22L1897.06 4090.33L1912.99 4096.28L1928.98 4102.07L1945.03 4107.7L1961.13 4113.16L1977.29 4118.47L1993.5 4123.62L2009.76 4128.6L2026.07 4133.42L2042.43 4138.08L2058.84 4142.57L2075.28 4146.9L2091.77 4151.07L2108.3 4155.07L2124.87 4158.9L2141.48 4162.57L2158.12 4166.07L2174.8 4169.41L2191.51 4172.58L2208.25 4175.58L2225.02 4178.41L2241.82 4181.08L2258.64 4183.58L2275.49 4185.9L2292.36 4188.07L2309.25 4190.06L2326.16 4191.88L2343.09 4193.53L2360.03 4195.02L2376.99 4196.33L2393.96 4197.48L2410.94 4198.45L2427.93 4199.26L2444.92 4199.9L2461.92 4200.36L2478.93 4200.66L2495.94 4200.78L2512.94 4200.74L2529.95 4200.52L2546.95 4200.14L2563.95 4199.58L2580.95 4198.86L2597.93 4197.97L2614.9 4196.9L2631.87 4195.67L2648.82 4194.26L2665.75 4192.69L2682.67 4190.95L2699.57 4189.04L2716.45 4186.96L2733.31 4184.71L2750.14 4182.29L2766.95 4179.71L2783.74 4176.95L2800.49 4174.03L2817.22 4170.94L2833.91 4167.69L2850.57 4164.26L2867.2 4160.68L2883.78 4156.92L2900.33 4153L2916.84 4148.91L2933.31 4144.66L2949.74 4140.25L2966.12 4135.67L2982.45 4130.93L2998.73 4126.02L3014.97 4120.95L3031.15 4115.72L3047.28 4110.33L3063.36 4104.78L3079.38 4099.06L3095.34 4093.19L3111.24 4087.16L3127.08 4080.96L3142.86 4074.61L3158.57 4068.11L3174.22 4061.44L3189.8 4054.62L3205.31 4047.65L3220.75 4040.52L3236.12 4033.23L3251.42 4025.79L3266.64 4018.2L3281.78 4010.46L3296.85 4002.57L3311.83 3994.53L3326.74 3986.33L3341.56 3977.99L3356.3 3969.5L3370.95 3960.86L3385.51 3952.08L3399.99 3943.15L3414.38 3934.08L3428.67 3924.87L3442.87 3915.51L3456.98 3906.01L3470.99 3896.37L3484.91 3886.59L3498.72 3876.67L3512.44 3866.62L3526.06 3856.42L3539.57 3846.1L3552.98 3835.63L3566.28 3825.04L3579.48 3814.31L3592.57 3803.45L3605.55 3792.46L3618.42 3781.34L3631.17 3770.09L3643.82 3758.71L3656.35 3747.21L3668.76 3735.59L3681.06 3723.84L3693.24 3711.97L3705.3 3699.97L3717.24 3687.86L3729.05 3675.63L3740.75 3663.28L3752.32 3650.82L3763.76 3638.23L3775.08 3625.54L3786.27 3612.73L3797.34 3599.82L3808.27 3586.79L3819.07 3573.65L3829.74 3560.41L3840.28 3547.06L3850.68 3533.6L3860.95 3520.04L3871.08 3506.38L3881.08 3492.62L3890.94 3478.76L3900.65 3464.8L3910.23 3450.75L3919.67 3436.6L3928.96 3422.36L3938.12 3408.02L3947.12 3393.59L3955.99 3379.08L3964.71 3364.47L3973.28 3349.78L3981.7 3335.01L3989.98 3320.15L3998.1 3305.21L4006.08 3290.19L4013.91 3275.09L4021.58 3259.91L4029.1 3244.66L4036.47 3229.33L4043.69 3213.93L4050.75 3198.46L4057.66 3182.91L4064.41 3167.3L4071.01 3151.63L4077.44 3135.88L4083.72 3120.08L4089.84 3104.21L4095.81 3088.28L4101.61 3072.3L4107.25 3056.25L4112.74 3040.15L4118.06 3024L4123.22 3007.79L4128.21 2991.53L4133.05 2975.23L4137.72 2958.87L4142.22 2942.47L4146.57 2926.03L4150.74 2909.54L4154.76 2893.01L4158.6 2876.45L4162.28 2859.84L4165.8 2843.2L4169.15 2826.53L4172.33 2809.82L4175.35 2793.08L4178.19 2776.31L4180.87 2759.52L4183.38 2742.7L4185.73 2725.85L4187.9 2708.98L4189.9 2692.09L4191.74 2675.19L4193.41 2658.26L4194.91 2641.32L4196.23 2624.36L4197.39 2607.39L4198.38 2590.41L4199.2 2573.43L4199.85 2556.43L4200.33 2539.43L4200.64 2522.42L4200.78 2505.42L4200.79 2500Z" stroke="black" stroke-width="10" stroke-linecap="round" stroke-linejoin="round"/>
<path d="M857.166 2940.2L674.629 2989.11" stroke="black" stroke-width="10" stroke-linecap="round" stroke-linejoin="round"/>
<path d="M2500 4578.74V2500V421.26" stroke="black" stroke-width="20" stroke-linecap="round" stroke-linejoin="round"/>
<path d="M421.26 2500H2500H4578.74" stroke="black" stroke-width="20" stroke-linecap="round" stroke-linejoin="round"/>
<path d="M2872.21 2565.63L4361.06 2828.14L4547.16 2860.95" stroke="black" stroke-width="10" stroke-linecap="round" stroke-linejoin="round"/>
<path d="M2144.84 2629.27L724.203 3146.34L546.623 3210.97" stroke="black" stroke-width="10" stroke-linecap="round" stroke-linejoin="round"/>
<path d="M2370.74 2855.16L1853.7 4275.81L1789.07 4453.39" stroke="black" stroke-width="10" stroke-linecap="round" stroke-linejoin="round"/>
<path d="M2789.53 2742.94L3947.66 3714.7L4092.42 3836.17" stroke="black" stroke-width="10" stroke-linecap="round" stroke-linejoin="round"/>
<path d="M2688.98 2827.31L3444.9 4136.57L3539.39 4300.23" stroke="black" stroke-width="10" stroke-linecap="round" stroke-linejoin="round"/>
<path d="M2853 4471.39L2907.35 4490.87L2897.05 4434.06L2853 4471.39ZM2871.97 4467.95L2872.86 4472.87C2872.88 4472.87 2872.9 4472.86 2872.91 4472.86L2871.97 4467.95ZM2890.9 4464.31L2891.84 4469.22C2891.86 4469.22 2891.88 4469.21 2891.89 4469.21L2890.9 4464.31ZM2909.79 4460.49L2910.78 4465.39C2910.8 4465.39 2910.81 4465.38 2910.83 4465.38L2909.79 4460.49ZM2928.64 4456.48L2929.68 4461.37C2929.7 4461.37 2929.71 4461.36 2929.73 4461.36L2928.64 4456.48ZM2947.46 4452.28L2948.55 4457.16C2948.56 4457.16 2948.58 4457.15 2948.6 4457.15L2947.46 4452.28ZM2966.23 4447.9L2967.37 4452.77C2967.38 4452.77 2967.4 4452.76 2967.42 4452.76L2966.23 4447.9ZM2984.95 4443.32L2986.14 4448.18C2986.15 4448.17 2986.17 4448.17 2986.18 4448.17L2984.95 4443.32ZM3003.63 4438.56L3004.86 4443.41C3004.88 4443.4 3004.89 4443.4 3004.9 4443.39L3003.63 4438.56ZM3017.13 4435L2961.42 4419.84L2976.14 4475.66L3017.13 4435ZM2872.91 4472.86L2891.84 4469.22L2889.96 4459.4L2871.03 4463.04L2872.91 4472.86ZM2891.89 4469.21L2910.78 4465.39L2908.8 4455.59L2889.91 4459.41L2891.89 4469.21ZM2910.83 4465.38L2929.68 4461.37L2927.6 4451.59L2908.75 4455.6L2910.83 4465.38ZM2929.73 4461.36L2948.55 4457.16L2946.37 4447.4L2927.55 4451.6L2929.73 4461.36ZM2948.6 4457.15L2967.37 4452.77L2965.09 4443.03L2946.32 4447.41L2948.6 4457.15ZM2967.42 4452.76L2986.14 4448.18L2983.76 4438.46L2965.04 4443.04L2967.42 4452.76ZM2986.18 4448.17L3004.86 4443.41L3002.4 4433.71L2983.72 4438.47L2986.18 4448.17Z" fill="black"/>
<path d="M3583.9 4048.02L3475.51 3893.22" stroke="black" stroke-width="10" stroke-linecap="round" stroke-linejoin="round"/>
<path d="M2876.51 2532.94L4382.57 2664.71L4570.83 2681.18" stroke="black" stroke-width="10" stroke-linecap="round" stroke-linejoin="round"/>
<path d="M2827.32 2688.98L4136.58 3444.88L4300.24 3539.37" stroke="black" stroke-width="10" stroke-linecap="round" stroke-linejoin="round"/>
<path d="M1524.49 3893.22L1416.1 4048.02" stroke="black" stroke-width="10" stroke-linecap="round" stroke-linejoin="round"/>
<path d="M1163.72 3836.25L1297.35 3702.63L3836.28 1163.75L3969.91 1030.12" stroke="black" stroke-width="20" stroke-linecap="round" stroke-linejoin="round"/>
<path d="M1106.8 3475.54L952.001 3583.93" stroke="black" stroke-width="10" stroke-linecap="round" stroke-linejoin="round"/>
<path d="M2565.65 2872.21L2828.24 4361.04L2861.06 4547.14" stroke="black" stroke-width="10" stroke-linecap="round" stroke-linejoin="round"/>
<path d="M2532.92 2876.52L2681.05 4570.84" stroke="black" stroke-width="10" stroke-linecap="round" stroke-linejoin="round"/>
<path d="M958.565 3218.79L787.294 3298.65" stroke="black" stroke-width="10" stroke-linecap="round" stroke-linejoin="round"/>
<path d="M805.685 2648.24L617.428 2664.71L429.171 2681.18" stroke="black" stroke-width="10" stroke-linecap="round" stroke-linejoin="round"/>
<path d="M2257.05 2789.53L1285.27 3947.63L1163.8 4092.4" stroke="black" stroke-width="10" stroke-linecap="round" stroke-linejoin="round"/>
<path d="M4048 3583.93L3893.2 3475.54" stroke="black" stroke-width="10" stroke-linecap="round" stroke-linejoin="round"/>
<path d="M2855.16 2629.27L4275.8 3146.34L4453.38 3210.97" stroke="black" stroke-width="10" stroke-linecap="round" stroke-linejoin="round"/>
<path d="M1781.19 4041.42L1701.32 4212.69" stroke="black" stroke-width="10" stroke-linecap="round" stroke-linejoin="round"/>
<path d="M4212.71 3298.65L4041.44 3218.79" stroke="black" stroke-width="10" stroke-linecap="round" stroke-linejoin="round"/>
<path d="M2742.95 2789.53L3714.73 3947.63L3836.2 4092.4" stroke="black" stroke-width="10" stroke-linecap="round" stroke-linejoin="round"/>
<path d="M2127.79 2565.63L638.943 2828.14L452.838 2860.95" stroke="black" stroke-width="10" stroke-linecap="round" stroke-linejoin="round"/>
<path fill-rule="evenodd" clip-rule="evenodd" d="M2877.95 2500L2877.93 2496.22L2877.88 2492.44L2877.78 2488.66L2877.65 2484.89L2877.48 2481.11L2877.27 2477.34L2877.03 2473.56L2876.74 2469.8L2876.42 2466.03L2876.06 2462.27L2875.67 2458.51L2875.23 2454.75L2874.76 2451L2874.25 2447.26L2873.71 2443.52L2873.13 2439.79L2872.5 2436.06L2871.85 2432.34L2871.15 2428.62L2870.42 2424.91L2869.65 2421.21L2868.84 2417.52L2868 2413.84L2867.12 2410.16L2866.2 2406.49L2865.25 2402.84L2864.26 2399.19L2863.23 2395.55L2862.17 2391.92L2861.07 2388.31L2859.94 2384.7L2858.77 2381.11L2857.56 2377.53L2856.32 2373.96L2855.04 2370.4L2853.72 2366.86L2852.38 2363.33L2850.99 2359.81L2849.57 2356.31L2848.12 2352.82L2846.63 2349.34L2845.1 2345.89L2843.55 2342.44L2841.95 2339.02L2840.33 2335.6L2838.67 2332.21L2836.97 2328.83L2835.24 2325.47L2833.48 2322.13L2831.68 2318.8L2829.86 2315.49L2827.99 2312.2L2826.1 2308.93L2824.17 2305.68L2822.21 2302.45L2820.22 2299.24L2818.2 2296.04L2816.14 2292.87L2814.06 2289.72L2811.94 2286.59L2809.79 2283.48L2807.61 2280.4L2805.4 2277.33L2803.15 2274.29L2800.88 2271.27L2798.58 2268.27L2796.25 2265.3L2793.89 2262.35L2791.49 2259.42L2789.07 2256.52L2786.62 2253.64L2784.15 2250.78L2781.64 2247.95L2779.11 2245.15L2776.54 2242.37L2773.95 2239.62L2771.34 2236.89L2768.69 2234.19L2766.02 2231.52L2763.32 2228.87L2760.6 2226.25L2757.85 2223.66L2755.07 2221.1L2752.27 2218.56L2749.44 2216.05L2746.59 2213.57L2743.71 2211.12L2740.81 2208.7L2737.89 2206.3L2734.94 2203.94L2731.97 2201.6L2728.97 2199.3L2725.95 2197.03L2722.91 2194.78L2719.85 2192.57L2716.76 2190.38L2713.66 2188.23L2710.53 2186.11L2707.38 2184.02L2704.21 2181.96L2701.02 2179.94L2697.81 2177.94L2694.58 2175.98L2691.33 2174.05L2688.06 2172.16L2684.77 2170.29L2681.46 2168.46L2678.14 2166.66L2674.8 2164.9L2671.44 2163.17L2668.06 2161.47L2664.67 2159.8L2661.26 2158.17L2657.83 2156.58L2654.39 2155.02L2650.93 2153.49L2647.46 2152L2643.97 2150.54L2640.47 2149.12L2636.95 2147.73L2633.42 2146.38L2629.88 2145.06L2626.33 2143.78L2622.76 2142.54L2619.18 2141.33L2615.58 2140.15L2611.98 2139.02L2608.36 2137.92L2604.74 2136.85L2601.1 2135.82L2597.46 2134.83L2593.8 2133.87L2590.13 2132.95L2586.46 2132.07L2582.77 2131.22L2579.08 2130.41L2575.38 2129.64L2571.68 2128.91L2567.96 2128.21L2564.24 2127.55L2560.51 2126.92L2556.78 2126.34L2553.04 2125.79L2549.29 2125.28L2545.54 2124.8L2541.79 2124.36L2538.03 2123.97L2534.27 2123.6L2530.5 2123.28L2526.74 2122.99L2522.96 2122.75L2519.19 2122.53L2515.41 2122.36L2511.64 2122.23L2507.86 2122.13L2504.08 2122.07L2500.3 2122.05L2496.52 2122.06L2492.74 2122.12L2488.96 2122.21L2485.19 2122.34L2481.41 2122.5L2477.64 2122.71L2473.87 2122.95L2470.1 2123.23L2466.33 2123.55L2462.57 2123.91L2458.81 2124.3L2455.05 2124.73L2451.3 2125.2L2447.56 2125.7L2443.82 2126.25L2440.08 2126.83L2436.35 2127.44L2432.63 2128.1L2428.92 2128.79L2425.21 2129.52L2421.51 2130.29L2417.81 2131.09L2414.13 2131.93L2410.45 2132.81L2406.78 2133.72L2403.13 2134.67L2399.48 2135.66L2395.84 2136.68L2392.21 2137.74L2388.59 2138.84L2384.99 2139.97L2381.39 2141.14L2377.81 2142.34L2374.24 2143.58L2370.68 2144.86L2367.14 2146.17L2363.61 2147.52L2360.09 2148.9L2356.59 2150.31L2353.1 2151.77L2349.62 2153.25L2346.16 2154.77L2342.72 2156.33L2339.29 2157.92L2335.87 2159.54L2332.48 2161.2L2329.1 2162.89L2325.74 2164.62L2322.39 2166.38L2319.06 2168.17L2315.75 2170L2312.46 2171.86L2309.19 2173.75L2305.94 2175.67L2302.71 2177.63L2299.49 2179.62L2296.3 2181.64L2293.12 2183.69L2289.97 2185.78L2286.84 2187.89L2283.73 2190.04L2280.64 2192.22L2277.57 2194.43L2274.53 2196.67L2271.51 2198.94L2268.51 2201.24L2265.53 2203.57L2262.58 2205.93L2259.65 2208.31L2256.75 2210.73L2253.87 2213.18L2251.01 2215.65L2248.18 2218.16L2245.37 2220.69L2242.59 2223.25L2239.84 2225.84L2237.11 2228.45L2234.41 2231.1L2231.73 2233.77L2229.08 2236.46L2226.46 2239.18L2223.87 2241.93L2221.3 2244.71L2218.76 2247.51L2216.25 2250.33L2213.77 2253.18L2211.31 2256.06L2208.89 2258.96L2206.49 2261.88L2204.13 2264.83L2201.79 2267.8L2199.48 2270.79L2197.21 2273.81L2194.96 2276.85L2192.74 2279.91L2190.56 2282.99L2188.4 2286.1L2186.28 2289.22L2184.19 2292.37L2182.13 2295.54L2180.1 2298.73L2178.1 2301.94L2176.14 2305.16L2174.2 2308.41L2172.3 2311.68L2170.44 2314.97L2168.6 2318.27L2166.8 2321.59L2165.04 2324.94L2163.3 2328.29L2161.6 2331.67L2159.94 2335.06L2158.3 2338.47L2156.71 2341.9L2155.14 2345.34L2153.61 2348.79L2152.12 2352.26L2150.66 2355.75L2149.23 2359.25L2147.84 2362.77L2146.49 2366.29L2145.17 2369.84L2143.88 2373.39L2142.64 2376.96L2141.42 2380.54L2140.25 2384.13L2139.11 2387.73L2138 2391.35L2136.93 2394.97L2135.9 2398.61L2134.91 2402.25L2133.95 2405.91L2133.02 2409.58L2132.14 2413.25L2131.29 2416.93L2130.48 2420.62L2129.7 2424.32L2128.96 2428.03L2128.26 2431.74L2127.6 2435.46L2126.97 2439.19L2126.38 2442.92L2125.83 2446.66L2125.31 2450.41L2124.84 2454.16L2124.4 2457.91L2124 2461.67L2123.63 2465.43L2123.3 2469.2L2123.02 2472.96L2122.76 2476.74L2122.55 2480.51L2122.37 2484.28L2122.24 2488.06L2122.14 2491.84L2122.07 2495.62L2122.05 2499.4L2122.06 2503.18L2122.11 2506.96L2122.2 2510.74L2122.33 2514.51L2122.49 2518.29L2122.69 2522.06L2122.93 2525.83L2123.21 2529.6L2123.52 2533.37L2123.88 2537.13L2124.27 2540.89L2124.69 2544.65L2125.16 2548.4L2125.66 2552.14L2126.2 2555.89L2126.78 2559.62L2127.39 2563.35L2128.05 2567.07L2128.74 2570.79L2129.46 2574.5L2130.23 2578.2L2131.03 2581.89L2131.86 2585.58L2132.74 2589.26L2133.65 2592.92L2134.6 2596.58L2135.58 2600.23L2136.6 2603.87L2137.66 2607.5L2138.75 2611.12L2139.88 2614.72L2141.04 2618.32L2142.25 2621.9L2143.48 2625.47L2144.76 2629.03L2146.06 2632.58L2147.41 2636.11L2148.79 2639.63L2150.2 2643.14L2151.65 2646.63L2153.13 2650.1L2154.65 2653.56L2156.2 2657.01L2157.79 2660.44L2159.41 2663.85L2161.07 2667.25L2162.76 2670.63L2164.48 2674L2166.24 2677.34L2168.03 2680.67L2169.85 2683.98L2171.71 2687.27L2173.6 2690.55L2175.52 2693.8L2177.47 2697.04L2179.46 2700.25L2181.48 2703.45L2183.53 2706.62L2185.61 2709.78L2187.72 2712.91L2189.87 2716.02L2192.04 2719.11L2194.25 2722.18L2196.49 2725.23L2198.75 2728.25L2201.05 2731.25L2203.38 2734.23L2205.74 2737.19L2208.12 2740.12L2210.54 2743.02L2212.98 2745.91L2215.46 2748.76L2217.96 2751.6L2220.49 2754.4L2223.05 2757.19L2225.63 2759.94L2228.24 2762.67L2230.89 2765.38L2233.55 2768.06L2236.25 2770.71L2238.97 2773.33L2241.71 2775.93L2244.48 2778.5L2247.28 2781.04L2250.11 2783.55L2252.95 2786.04L2255.83 2788.49L2258.72 2790.92L2261.64 2793.32L2264.59 2795.69L2267.56 2798.03L2270.55 2800.33L2273.56 2802.61L2276.6 2804.86L2279.66 2807.08L2282.74 2809.27L2285.85 2811.43L2288.97 2813.55L2292.12 2815.65L2295.28 2817.71L2298.47 2819.74L2301.68 2821.74L2304.91 2823.71L2308.15 2825.64L2311.42 2827.55L2314.7 2829.41L2318.01 2831.25L2321.33 2833.05L2324.67 2834.82L2328.03 2836.56L2331.4 2838.26L2334.79 2839.93L2338.2 2841.57L2341.62 2843.17L2345.06 2844.74L2348.52 2846.27L2351.99 2847.76L2355.47 2849.23L2358.97 2850.66L2362.49 2852.05L2366.01 2853.41L2369.55 2854.73L2373.11 2856.01L2376.67 2857.27L2380.25 2858.48L2383.84 2859.66L2387.45 2860.8L2391.06 2861.91L2394.68 2862.98L2398.32 2864.02L2401.96 2865.02L2405.62 2865.98L2409.28 2866.9L2412.96 2867.79L2416.64 2868.65L2420.33 2869.46L2424.03 2870.24L2427.73 2870.98L2431.45 2871.68L2435.17 2872.35L2438.89 2872.98L2442.63 2873.57L2446.37 2874.13L2450.11 2874.65L2453.86 2875.13L2457.61 2875.57L2461.37 2875.97L2465.13 2876.34L2468.9 2876.67L2472.66 2876.96L2476.44 2877.22L2480.21 2877.43L2483.98 2877.61L2487.76 2877.75L2491.54 2877.86L2495.32 2877.92L2499.1 2877.95L2502.88 2877.94L2506.66 2877.89L2510.43 2877.81L2514.21 2877.69L2517.99 2877.52L2521.76 2877.33L2525.53 2877.09L2529.3 2876.82L2533.07 2876.5L2536.83 2876.15L2540.59 2875.77L2544.35 2875.34L2548.1 2874.88L2551.85 2874.38L2555.59 2873.84L2559.32 2873.27L2563.05 2872.66L2566.78 2872.01L2570.49 2871.32L2574.2 2870.6L2577.9 2869.84L2581.6 2869.04L2585.29 2868.2L2588.96 2867.33L2592.63 2866.43L2596.29 2865.48L2599.94 2864.5L2603.58 2863.48L2607.21 2862.43L2610.83 2861.34L2614.44 2860.21L2618.03 2859.05L2621.62 2857.85L2625.19 2856.62L2628.75 2855.35L2632.3 2854.04L2635.83 2852.7L2639.35 2851.33L2642.86 2849.91L2646.35 2848.47L2649.83 2846.99L2653.29 2845.47L2656.74 2843.92L2660.17 2842.34L2663.58 2840.72L2666.98 2839.07L2670.36 2837.38L2673.73 2835.66L2677.08 2833.9L2680.41 2832.12L2683.72 2830.3L2687.01 2828.44L2690.29 2826.56L2693.54 2824.64L2696.78 2822.69L2700 2820.7L2703.19 2818.69L2706.37 2816.64L2709.53 2814.56L2712.66 2812.45L2715.78 2810.3L2718.87 2808.13L2721.94 2805.93L2724.99 2803.69L2728.01 2801.43L2731.02 2799.13L2733.99 2796.81L2736.95 2794.45L2739.88 2792.07L2742.79 2789.66L2745.68 2787.21L2748.54 2784.74L2751.37 2782.24L2754.18 2779.71L2756.97 2777.16L2759.72 2774.58L2762.46 2771.96L2765.16 2769.33L2767.84 2766.66L2770.5 2763.97L2773.12 2761.25L2775.72 2758.51L2778.29 2755.74L2780.84 2752.94L2783.35 2750.12L2785.84 2747.27L2788.3 2744.4L2790.73 2741.51L2793.13 2738.59L2795.5 2735.65L2797.84 2732.68L2800.15 2729.69L2802.43 2726.68L2804.69 2723.64L2806.91 2720.58L2809.1 2717.5L2811.26 2714.4L2813.38 2711.28L2815.48 2708.13L2817.55 2704.97L2819.58 2701.78L2821.58 2698.58L2823.55 2695.35L2825.49 2692.11L2827.39 2688.84L2829.27 2685.56L2831.11 2682.26L2832.91 2678.94L2834.68 2675.6L2836.42 2672.24L2838.13 2668.87L2839.8 2665.48L2841.44 2662.07L2843.04 2658.65L2844.61 2655.21L2846.15 2651.76L2847.65 2648.29L2849.11 2644.81L2850.54 2641.31L2851.94 2637.8L2853.3 2634.27L2854.62 2630.73L2855.91 2627.18L2857.17 2623.61L2858.39 2620.03L2859.57 2616.44L2860.71 2612.84L2861.82 2609.23L2862.9 2605.61L2863.94 2601.97L2864.94 2598.33L2865.9 2594.67L2866.83 2591.01L2867.72 2587.34L2868.58 2583.65L2869.4 2579.97L2870.18 2576.27L2870.92 2572.56L2871.63 2568.85L2872.3 2565.13L2872.93 2561.4L2873.53 2557.67L2874.08 2553.93L2874.61 2550.19L2875.09 2546.44L2875.53 2542.69L2875.94 2538.93L2876.31 2535.17L2876.65 2531.4L2876.94 2527.64L2877.2 2523.87L2877.42 2520.09L2877.6 2516.32L2877.74 2512.54L2877.85 2508.76L2877.92 2504.98L2877.95 2501.2V2500Z" stroke="black" stroke-width="20" stroke-linecap="round" stroke-linejoin="round"/>
<path d="M2507 2877.89L2531.49 4200.5L2538.49 4578.38" stroke="black" stroke-width="10" stroke-linecap="round" stroke-linejoin="round"/>
<path d="M2210.47 2742.94L1052.34 3714.7L907.579 3836.17" stroke="black" stroke-width="10" stroke-linecap="round" stroke-linejoin="round"/>
<path d="M2318.95 4570.84L2467.08 2876.52" stroke="black" stroke-width="10" stroke-linecap="round" stroke-linejoin="round"/>
<path d="M3038.06 4507.9L2989.15 4325.36L2597.83 2865.07" stroke="black" stroke-width="10" stroke-linecap="round" stroke-linejoin="round"/>
<path d="M4325.37 2989.11L4142.83 2940.2" stroke="black" stroke-width="10" stroke-linecap="round" stroke-linejoin="round"/>
<path fill-rule="evenodd" clip-rule="evenodd" d="M4389.76 2500L4389.67 2481.1L4389.39 2462.21L4388.91 2443.32L4388.25 2424.43L4387.4 2405.55L4386.36 2386.68L4385.14 2367.82L4383.72 2348.98L4382.12 2330.15L4380.32 2311.34L4378.34 2292.54L4376.17 2273.77L4373.82 2255.02L4371.27 2236.3L4368.54 2217.6L4365.63 2198.93L4362.52 2180.29L4359.23 2161.68L4355.76 2143.1L4352.09 2124.56L4348.25 2106.06L4344.22 2087.6L4340 2069.18L4335.6 2050.8L4331.02 2032.46L4326.25 2014.18L4321.3 1995.94L4316.17 1977.75L4310.85 1959.62L4305.36 1941.54L4299.69 1923.51L4293.83 1905.54L4287.8 1887.64L4281.58 1869.79L4275.19 1852L4268.62 1834.28L4261.88 1816.63L4254.96 1799.05L4247.86 1781.53L4240.59 1764.09L4233.14 1746.72L4225.52 1729.43L4217.73 1712.21L4209.77 1695.08L4201.63 1678.02L4193.33 1661.04L4184.85 1644.15L4176.21 1627.35L4167.4 1610.63L4158.42 1594L4149.28 1577.46L4139.97 1561.01L4130.5 1544.66L4120.87 1528.4L4111.07 1512.24L4101.11 1496.18L4090.99 1480.22L4080.72 1464.36L4070.28 1448.61L4059.69 1432.96L4048.94 1417.42L4038.04 1401.98L4026.98 1386.66L4015.77 1371.44L4004.41 1356.34L3992.9 1341.35L3981.24 1326.48L3969.43 1311.73L3957.47 1297.1L3945.37 1282.58L3933.12 1268.19L3920.74 1253.92L3908.2 1239.77L3895.53 1225.76L3882.72 1211.86L3869.77 1198.1L3856.68 1184.47L3843.46 1170.97L3830.1 1157.6L3816.61 1144.37L3802.99 1131.27L3789.24 1118.31L3775.36 1105.48L3761.35 1092.8L3747.21 1080.26L3732.95 1067.86L3718.57 1055.6L3704.07 1043.49L3689.44 1031.52L3674.7 1019.7L3659.83 1008.02L3644.86 996.501L3629.77 985.128L3614.56 973.906L3599.24 962.837L3583.82 951.921L3568.28 941.161L3552.64 930.556L3536.89 920.108L3521.04 909.819L3505.09 899.688L3489.04 889.717L3472.89 879.907L3456.64 870.26L3440.29 860.775L3423.85 851.454L3407.32 842.298L3390.7 833.308L3373.99 824.485L3357.19 815.829L3340.31 807.341L3323.34 799.023L3306.29 790.875L3289.15 782.897L3271.94 775.092L3254.66 767.459L3237.29 759.999L3219.86 752.713L3202.35 745.602L3184.77 738.666L3167.12 731.907L3149.41 725.324L3131.63 718.919L3113.79 712.692L3095.88 706.643L3077.92 700.774L3059.9 695.085L3041.82 689.576L3023.69 684.249L3005.51 679.103L2987.28 674.139L2968.99 669.357L2950.66 664.759L2932.29 660.344L2913.87 656.113L2895.41 652.067L2876.91 648.205L2858.38 644.529L2839.8 641.038L2821.2 637.733L2802.56 634.614L2783.89 631.682L2765.19 628.936L2746.47 626.378L2727.72 624.007L2708.95 621.824L2690.16 619.828L2671.35 618.02L2652.52 616.401L2633.68 614.97L2614.82 613.728L2595.95 612.674L2577.07 611.809L2558.19 611.132L2539.3 610.645L2520.4 610.346L2501.5 610.237L2482.61 610.316L2463.71 610.585L2444.82 611.042L2425.93 611.688L2407.05 612.523L2388.18 613.547L2369.33 614.76L2350.48 616.161L2331.65 617.75L2312.84 619.528L2294.04 621.493L2275.27 623.647L2256.51 625.988L2237.79 628.516L2219.09 631.232L2200.41 634.134L2181.77 637.224L2163.16 640.499L2144.58 643.96L2126.04 647.607L2107.53 651.439L2089.07 655.457L2070.64 659.658L2052.26 664.044L2033.92 668.613L2015.63 673.365L1997.39 678.3L1979.2 683.417L1961.06 688.716L1942.97 694.196L1924.94 699.856L1906.97 705.696L1889.06 711.716L1871.21 717.915L1853.42 724.292L1835.69 730.847L1818.04 737.578L1800.45 744.486L1782.93 751.569L1765.48 758.827L1748.1 766.259L1730.8 773.865L1713.58 781.643L1696.44 789.593L1679.37 797.714L1662.39 806.005L1645.49 814.466L1628.68 823.095L1611.96 831.892L1595.32 840.855L1578.77 849.985L1562.32 859.28L1545.96 868.738L1529.7 878.36L1513.53 888.144L1497.46 898.089L1481.49 908.194L1465.62 918.459L1449.86 928.882L1434.2 939.461L1418.65 950.197L1403.21 961.088L1387.87 972.133L1372.65 983.33L1357.54 994.679L1342.54 1006.18L1327.66 1017.83L1312.9 1029.63L1298.26 1041.57L1283.73 1053.66L1269.33 1065.9L1255.05 1078.27L1240.9 1090.79L1226.87 1103.46L1212.97 1116.26L1199.19 1129.2L1185.55 1142.27L1172.04 1155.48L1158.66 1168.83L1145.41 1182.31L1132.31 1195.92L1119.33 1209.66L1106.5 1223.53L1093.8 1237.53L1081.25 1251.66L1068.84 1265.91L1056.57 1280.28L1044.45 1294.78L1032.47 1309.39L1020.63 1324.13L1008.95 1338.98L997.413 1353.95L986.028 1369.03L974.794 1384.23L963.713 1399.53L952.785 1414.95L942.012 1430.48L931.395 1446.11L920.935 1461.85L910.632 1477.69L900.489 1493.63L890.505 1509.68L880.683 1525.82L871.022 1542.07L861.524 1558.4L852.19 1574.83L843.021 1591.36L834.018 1607.97L825.181 1624.68L816.512 1641.47L808.011 1658.35L799.679 1675.31L791.517 1692.35L783.526 1709.48L775.707 1726.68L768.06 1743.96L760.587 1761.32L753.287 1778.75L746.162 1796.25L739.212 1813.83L732.439 1831.47L725.842 1849.18L719.422 1866.95L713.181 1884.79L707.118 1902.69L701.235 1920.65L695.531 1938.66L690.008 1956.73L684.666 1974.86L679.506 1993.04L674.527 2011.27L669.731 2029.55L665.118 2047.88L660.689 2066.25L656.444 2084.66L652.382 2103.12L648.506 2121.61L644.815 2140.15L641.309 2158.72L637.989 2177.32L634.856 2195.96L631.908 2214.62L629.148 2233.32L626.575 2252.04L624.189 2270.78L621.991 2289.55L619.98 2308.34L618.157 2327.15L616.523 2345.98L615.077 2364.82L613.82 2383.68L612.751 2402.55L611.871 2421.42L611.179 2440.31L610.677 2459.2L610.363 2478.09L610.239 2496.99L610.303 2515.89L610.556 2534.78L610.999 2553.68L611.63 2572.56L612.45 2591.44L613.459 2610.31L614.656 2629.17L616.042 2648.02L617.616 2666.85L619.379 2685.67L621.33 2704.46L623.468 2723.24L625.794 2741.99L628.308 2760.72L631.009 2779.43L633.896 2798.1L636.971 2816.75L640.231 2835.36L643.678 2853.94L647.31 2872.49L651.128 2891L655.13 2909.46L659.317 2927.89L663.688 2946.28L668.242 2964.62L672.98 2982.91L677.9 3001.16L683.003 3019.35L688.287 3037.5L693.753 3055.59L699.399 3073.62L705.225 3091.6L711.23 3109.52L717.415 3127.37L723.778 3145.17L730.318 3162.9L737.035 3180.56L743.929 3198.16L750.998 3215.68L758.242 3233.14L765.661 3250.52L773.253 3267.82L781.017 3285.05L788.953 3302.2L797.061 3319.27L805.338 3336.26L813.786 3353.16L822.401 3369.98L831.185 3386.72L840.135 3403.36L849.252 3419.91L858.533 3436.37L867.979 3452.74L877.588 3469.01L887.359 3485.19L897.291 3501.27L907.384 3517.24L917.636 3533.12L928.046 3548.89L938.613 3564.56L949.337 3580.12L960.215 3595.57L971.248 3610.91L982.433 3626.14L993.77 3641.26L1005.26 3656.27L1016.9 3671.16L1028.68 3685.93L1040.61 3700.58L1052.69 3715.12L1064.91 3729.53L1077.28 3743.82L1089.79 3757.98L1102.44 3772.02L1115.23 3785.93L1128.16 3799.72L1141.22 3813.37L1154.43 3826.89L1167.76 3840.28L1181.23 3853.53L1194.83 3866.65L1208.56 3879.64L1222.42 3892.48L1236.41 3905.19L1250.53 3917.75L1264.77 3930.18L1279.13 3942.46L1293.62 3954.59L1308.22 3966.59L1322.95 3978.43L1337.79 3990.13L1352.75 4001.67L1367.82 4013.07L1383.01 4024.32L1398.31 4035.41L1413.72 4046.35L1429.24 4057.14L1444.86 4067.77L1460.59 4078.24L1476.42 4088.55L1492.36 4098.71L1508.4 4108.71L1524.53 4118.54L1540.77 4128.21L1557.1 4137.73L1573.52 4147.07L1590.04 4156.25L1606.65 4165.27L1623.34 4174.12L1640.13 4182.8L1657 4191.32L1673.96 4199.66L1690.99 4207.84L1708.11 4215.84L1725.31 4223.68L1742.58 4231.34L1759.94 4238.82L1777.36 4246.14L1794.86 4253.28L1812.43 4260.24L1830.06 4267.03L1847.77 4273.64L1865.53 4280.07L1883.37 4286.33L1901.26 4292.41L1919.21 4298.3L1937.23 4304.02L1955.29 4309.56L1973.42 4314.91L1991.59 4320.09L2009.82 4325.08L2028.09 4329.89L2046.41 4334.52L2064.78 4338.97L2083.19 4343.23L2101.65 4347.3L2120.14 4351.19L2138.67 4354.9L2157.24 4358.42L2175.84 4361.75L2194.47 4364.9L2213.13 4367.86L2231.83 4370.64L2250.55 4373.23L2269.29 4375.63L2288.06 4377.84L2306.85 4379.87L2325.65 4381.7L2344.48 4383.35L2363.32 4384.81L2382.18 4386.09L2401.04 4387.17L2419.92 4388.07L2438.8 4388.77L2457.69 4389.29L2476.59 4389.62L2495.49 4389.76L2514.38 4389.71L2533.28 4389.47L2552.17 4389.04L2571.06 4388.43L2589.94 4387.62L2608.81 4386.63L2627.67 4385.45L2646.52 4384.08L2665.35 4382.52L2684.17 4380.77L2702.97 4378.83L2721.75 4376.71L2740.5 4374.4L2759.23 4371.9L2777.94 4369.21L2796.62 4366.34L2815.26 4363.28L2833.88 4360.04L2852.46 4356.6L2871.01 4352.99L2889.52 4349.18L2908 4345.2L2926.43 4341.02L2944.82 4336.67L2963.16 4332.13L2981.46 4327.4L2999.71 4322.5L3017.91 4317.41L3036.05 4312.14L3054.15 4306.69L3072.19 4301.06L3090.17 4295.25L3108.09 4289.25L3125.95 4283.08L3143.75 4276.74L3161.49 4270.21L3179.16 4263.51L3196.76 4256.63L3214.29 4249.57L3231.75 4242.34L3249.13 4234.94L3266.45 4227.36L3283.68 4219.61L3300.84 4211.68L3317.91 4203.59L3334.91 4195.33L3351.82 4186.89L3368.65 4178.29L3385.39 4169.52L3402.04 4160.58L3418.6 4151.48L3435.07 4142.21L3451.44 4132.78L3467.72 4123.18L3483.9 4113.43L3499.99 4103.51L3515.97 4093.43L3531.86 4083.19L3547.64 4072.79L3563.31 4062.23L3578.88 4051.52L3594.34 4040.66L3609.69 4029.64L3624.93 4018.46L3640.06 4007.14L3655.08 3995.66L3669.97 3984.04L3684.76 3972.26L3699.42 3960.34L3713.96 3948.28L3728.38 3936.06L3742.68 3923.71L3756.86 3911.21L3770.91 3898.57L3784.83 3885.79L3798.62 3872.88L3812.29 3859.82L3825.82 3846.63L3839.22 3833.3L3852.48 3819.85L3865.61 3806.26L3878.61 3792.53L3891.47 3778.68L3904.18 3764.71L3916.76 3750.6L3929.19 3736.37L3941.49 3722.02L3953.63 3707.54L3965.64 3692.94L3977.49 3678.23L3989.2 3663.4L4000.76 3648.45L4012.17 3633.38L4023.43 3618.2L4034.53 3602.91L4045.48 3587.51L4056.28 3572L4066.92 3556.39L4077.41 3540.67L4087.74 3524.84L4097.91 3508.91L4107.92 3492.88L4117.76 3476.75L4127.45 3460.53L4136.97 3444.21L4146.33 3427.79L4155.53 3411.28L4164.56 3394.68L4173.42 3377.99L4182.12 3361.21L4190.65 3344.35L4199.01 3327.4L4207.19 3310.37L4215.21 3293.25L4223.06 3276.06L4230.73 3258.79L4238.23 3241.45L4245.56 3224.03L4252.72 3206.54L4259.69 3188.98L4266.49 3171.35L4273.12 3153.65L4279.57 3135.88L4285.84 3118.06L4291.93 3100.17L4297.84 3082.22L4303.57 3064.21L4309.12 3046.15L4314.5 3028.03L4319.68 3009.86L4324.69 2991.64L4329.52 2973.37L4334.16 2955.05L4338.62 2936.68L4342.89 2918.27L4346.98 2899.83L4350.89 2881.34L4354.61 2862.81L4358.15 2844.24L4361.49 2825.65L4364.66 2807.01L4367.63 2788.35L4370.42 2769.66L4373.03 2750.95L4375.44 2732.2L4377.67 2713.44L4379.71 2694.65L4381.56 2675.84L4383.23 2657.02L4384.71 2638.18L4385.99 2619.33L4387.09 2600.46L4388 2581.58L4388.72 2562.7L4389.26 2543.81L4389.6 2524.92L4389.75 2506.02L4389.76 2500Z" stroke="black" stroke-width="20" stroke-linecap="round" stroke-linejoin="round"/>
<path d="M3513 4239.98L3570.73 4239.67L3541.6 4189.83L3513 4239.98ZM3529.64 4230.25L3532.17 4234.57C3532.18 4234.56 3532.19 4234.55 3532.21 4234.54L3529.64 4230.25ZM3546.19 4220.37L3548.75 4224.66C3548.77 4224.65 3548.78 4224.64 3548.8 4224.63L3546.19 4220.37ZM3562.63 4210.32L3565.24 4214.59C3565.26 4214.58 3565.27 4214.57 3565.28 4214.56L3562.63 4210.32ZM3578.99 4200.1L3581.64 4204.34C3581.65 4204.33 3581.67 4204.33 3581.68 4204.32L3578.99 4200.1ZM3595.23 4189.73L3597.92 4193.94C3597.93 4193.93 3597.95 4193.92 3597.96 4193.91L3595.23 4189.73ZM3611.36 4179.18L3614.1 4183.36C3614.11 4183.35 3614.13 4183.34 3614.14 4183.34L3611.36 4179.18ZM3627.39 4168.48L3630.17 4172.64C3630.18 4172.63 3630.2 4172.62 3630.21 4172.61L3627.39 4168.48ZM3643.32 4157.62L3646.14 4161.75C3646.15 4161.74 3646.17 4161.73 3646.18 4161.72L3643.32 4157.62ZM3659.14 4146.6L3661.99 4150.7C3662.01 4150.69 3662.02 4150.68 3662.04 4150.67L3659.14 4146.6ZM3674.84 4135.41L3677.74 4139.49C3677.75 4139.48 3677.76 4139.47 3677.77 4139.46L3674.84 4135.41ZM3690.43 4124.09L3693.37 4128.14C3693.38 4128.13 3693.4 4128.11 3693.41 4128.1L3690.43 4124.09ZM3705.91 4112.59L3708.89 4116.61C3708.91 4116.6 3708.92 4116.59 3708.93 4116.58L3705.91 4112.59ZM3721.27 4100.95L3724.29 4104.94C3724.3 4104.93 3724.31 4104.92 3724.33 4104.91L3721.27 4100.95ZM3736.52 4089.15L3739.58 4093.11C3739.59 4093.1 3739.6 4093.09 3739.62 4093.08L3736.52 4089.15ZM3751.64 4077.21L3754.74 4081.13C3754.75 4081.12 3754.77 4081.11 3754.78 4081.1L3751.64 4077.21ZM3766.64 4065.11L3769.78 4069C3769.79 4068.99 3769.8 4068.98 3769.82 4068.97L3766.64 4065.11ZM3781.52 4052.86L3784.7 4056.72C3784.71 4056.71 3784.72 4056.7 3784.73 4056.7L3781.52 4052.86ZM3788.24 4047.26L3731.35 4057.11L3768.32 4101.45L3788.24 4047.26ZM3532.21 4234.54L3548.75 4224.66L3543.63 4216.07L3527.08 4225.96L3532.21 4234.54ZM3548.8 4224.63L3565.24 4214.59L3560.03 4206.05L3543.58 4216.1L3548.8 4224.63ZM3565.28 4214.56L3581.64 4204.34L3576.34 4195.86L3559.99 4206.08L3565.28 4214.56ZM3581.68 4204.32L3597.92 4193.94L3592.53 4185.51L3576.29 4195.89L3581.68 4204.32ZM3597.96 4193.91L3614.1 4183.36L3608.63 4174.99L3592.49 4185.54L3597.96 4193.91ZM3614.14 4183.34L3630.17 4172.64L3624.62 4164.32L3608.59 4175.02L3614.14 4183.34ZM3630.21 4172.61L3646.14 4161.75L3640.51 4153.49L3624.58 4164.35L3630.21 4172.61ZM3646.18 4161.72L3661.99 4150.7L3656.28 4142.5L3640.46 4153.52L3646.18 4161.72ZM3662.04 4150.67L3677.74 4139.49L3671.94 4131.34L3656.23 4142.53L3662.04 4150.67ZM3677.77 4139.46L3693.37 4128.14L3687.49 4120.04L3671.9 4131.37L3677.77 4139.46ZM3693.41 4128.1L3708.89 4116.61L3702.93 4108.58L3687.45 4120.08L3693.41 4128.1ZM3708.93 4116.58L3724.29 4104.94L3718.25 4096.97L3702.89 4108.61L3708.93 4116.58ZM3724.33 4104.91L3739.58 4093.11L3733.46 4085.2L3718.21 4097L3724.33 4104.91ZM3739.62 4093.08L3754.74 4081.13L3748.54 4073.28L3733.42 4085.23L3739.62 4093.08ZM3754.78 4081.1L3769.78 4069L3763.5 4061.22L3748.5 4073.32L3754.78 4081.1ZM3769.82 4068.97L3784.7 4056.72L3778.35 4049L3763.46 4061.25L3769.82 4068.97Z" fill="black"/>
<line x1="805.551" y1="2648.02" x2="2121.57" y2="2529.27" stroke="black" stroke-width="10"/>
<path d="M2505.45 4723.24C2498.61 4723.24 2492.77 4721.38 2487.95 4717.65C2483.14 4713.89 2479.45 4708.45 2476.91 4701.33C2474.36 4694.18 2473.09 4685.54 2473.09 4675.42C2473.09 4665.36 2474.36 4656.77 2476.91 4649.65C2479.48 4642.5 2483.18 4637.04 2488 4633.28C2492.85 4629.5 2498.67 4627.6 2505.45 4627.6C2512.24 4627.6 2518.05 4629.5 2522.86 4633.28C2527.71 4637.04 2531.41 4642.5 2533.95 4649.65C2536.53 4656.77 2537.82 4665.36 2537.82 4675.42C2537.82 4685.54 2536.55 4694.18 2534 4701.33C2531.45 4708.45 2527.77 4713.89 2522.95 4717.65C2518.14 4721.38 2512.3 4723.24 2505.45 4723.24ZM2505.45 4713.24C2512.24 4713.24 2517.52 4709.97 2521.27 4703.42C2525.03 4696.88 2526.91 4687.54 2526.91 4675.42C2526.91 4667.36 2526.05 4660.5 2524.32 4654.83C2522.62 4649.16 2520.17 4644.85 2516.95 4641.88C2513.77 4638.91 2509.94 4637.42 2505.45 4637.42C2498.73 4637.42 2493.47 4640.74 2489.68 4647.38C2485.89 4653.98 2484 4663.33 2484 4675.42C2484 4683.48 2484.85 4690.33 2486.55 4695.97C2488.24 4701.6 2490.68 4705.89 2493.86 4708.83C2497.08 4711.77 2500.94 4713.24 2505.45 4713.24ZM2574.55 4669.97C2570.7 4669.97 2567.18 4669.03 2564 4667.15C2560.85 4665.27 2558.33 4662.75 2556.45 4659.6C2554.58 4656.42 2553.64 4652.91 2553.64 4649.06C2553.64 4645.21 2554.58 4641.71 2556.45 4638.56C2558.33 4635.38 2560.85 4632.85 2564 4630.97C2567.18 4629.09 2570.7 4628.15 2574.55 4628.15C2578.39 4628.15 2581.89 4629.09 2585.05 4630.97C2588.23 4632.85 2590.76 4635.38 2592.64 4638.56C2594.52 4641.71 2595.45 4645.21 2595.45 4649.06C2595.45 4652.91 2594.52 4656.42 2592.64 4659.6C2590.76 4662.75 2588.23 4665.27 2585.05 4667.15C2581.89 4669.03 2578.39 4669.97 2574.55 4669.97ZM2574.55 4660.88C2576.73 4660.88 2578.71 4660.35 2580.5 4659.28C2582.29 4658.22 2583.71 4656.8 2584.77 4655.01C2585.83 4653.22 2586.36 4651.24 2586.36 4649.06C2586.36 4646.88 2585.83 4644.89 2584.77 4643.1C2583.71 4641.32 2582.29 4639.89 2580.5 4638.83C2578.71 4637.77 2576.73 4637.24 2574.55 4637.24C2572.36 4637.24 2570.38 4637.77 2568.59 4638.83C2566.8 4639.89 2565.38 4641.32 2564.32 4643.1C2563.26 4644.89 2562.73 4646.88 2562.73 4649.06C2562.73 4651.24 2563.26 4653.22 2564.32 4655.01C2565.38 4656.8 2566.8 4658.22 2568.59 4659.28C2570.38 4660.35 2572.36 4660.88 2574.55 4660.88Z" fill="black"/>
<path d="M2941.26 4571.99C2937.09 4571.99 2933.34 4571.17 2930 4569.51C2926.66 4567.85 2923.99 4565.58 2921.97 4562.69C2919.96 4559.8 2918.86 4556.51 2918.67 4552.82H2927.19C2927.52 4556.11 2929.02 4558.83 2931.67 4560.99C2934.34 4563.12 2937.54 4564.18 2941.26 4564.18C2944.24 4564.18 2946.89 4563.48 2949.21 4562.09C2951.55 4560.69 2953.39 4558.77 2954.71 4556.33C2956.06 4553.87 2956.74 4551.09 2956.74 4547.99C2956.74 4544.82 2956.04 4541.99 2954.64 4539.5C2953.27 4536.99 2951.38 4535.02 2948.96 4533.57C2946.55 4532.13 2943.79 4531.39 2940.69 4531.37C2938.46 4531.35 2936.18 4531.69 2933.83 4532.4C2931.49 4533.09 2929.56 4533.97 2928.05 4535.06L2919.81 4534.07L2924.21 4498.27H2961.99V4506.09H2931.6L2929.04 4527.53H2929.47C2930.96 4526.35 2932.83 4525.37 2935.08 4524.59C2937.33 4523.81 2939.67 4523.41 2942.11 4523.41C2946.56 4523.41 2950.52 4524.48 2954 4526.61C2957.51 4528.72 2960.25 4531.61 2962.24 4535.28C2964.26 4538.95 2965.26 4543.14 2965.26 4547.85C2965.26 4552.49 2964.22 4556.63 2962.14 4560.28C2960.08 4563.9 2957.24 4566.76 2953.61 4568.87C2949.99 4570.95 2945.87 4571.99 2941.26 4571.99ZM2994.57 4530.38C2991.56 4530.38 2988.81 4529.64 2986.33 4528.17C2983.87 4526.71 2981.9 4524.74 2980.43 4522.28C2978.97 4519.79 2978.23 4517.05 2978.23 4514.04C2978.23 4511.03 2978.97 4508.3 2980.43 4505.84C2981.9 4503.35 2983.87 4501.37 2986.33 4499.91C2988.81 4498.44 2991.56 4497.7 2994.57 4497.7C2997.57 4497.7 3000.31 4498.44 3002.77 4499.91C3005.26 4501.37 3007.23 4503.35 3008.7 4505.84C3010.17 4508.3 3010.9 4511.03 3010.9 4514.04C3010.9 4517.05 3010.17 4519.79 3008.7 4522.28C3007.23 4524.74 3005.26 4526.71 3002.77 4528.17C3000.31 4529.64 2997.57 4530.38 2994.57 4530.38ZM2994.57 4523.27C2996.27 4523.27 2997.82 4522.86 2999.22 4522.03C3000.62 4521.2 3001.73 4520.09 3002.56 4518.69C3003.39 4517.29 3003.8 4515.74 3003.8 4514.04C3003.8 4512.34 3003.39 4510.78 3002.56 4509.39C3001.73 4507.99 3000.62 4506.88 2999.22 4506.05C2997.82 4505.22 2996.27 4504.81 2994.57 4504.81C2992.86 4504.81 2991.31 4505.22 2989.92 4506.05C2988.52 4506.88 2987.41 4507.99 2986.58 4509.39C2985.75 4510.78 2985.33 4512.34 2985.33 4514.04C2985.33 4515.74 2985.75 4517.29 2986.58 4518.69C2987.41 4520.09 2988.52 4521.2 2989.92 4522.03C2991.31 4522.86 2992.86 4523.27 2994.57 4523.27Z" fill="black"/>
<path d="M3684.1 4177.27V4250H3675.29V4186.51H3674.86L3657.11 4198.3V4189.35L3675.29 4177.27H3684.1ZM3728.73 4250.99C3723.38 4250.99 3718.83 4249.54 3715.06 4246.63C3711.3 4243.69 3708.42 4239.44 3706.43 4233.88C3704.44 4228.29 3703.45 4221.54 3703.45 4213.64C3703.45 4205.78 3704.44 4199.06 3706.43 4193.5C3708.45 4187.91 3711.33 4183.65 3715.1 4180.72C3718.89 4177.76 3723.43 4176.28 3728.73 4176.28C3734.04 4176.28 3738.57 4177.76 3742.34 4180.72C3746.12 4183.65 3749.01 4187.91 3751 4193.5C3753.01 4199.06 3754.02 4205.78 3754.02 4213.64C3754.02 4221.54 3753.02 4228.29 3751.04 4233.88C3749.05 4239.44 3746.17 4243.69 3742.41 4246.63C3738.64 4249.54 3734.08 4250.99 3728.73 4250.99ZM3728.73 4243.18C3734.04 4243.18 3738.16 4240.62 3741.09 4235.51C3744.03 4230.4 3745.5 4223.11 3745.5 4213.64C3745.5 4207.34 3744.82 4201.98 3743.47 4197.55C3742.15 4193.12 3740.23 4189.75 3737.72 4187.43C3735.23 4185.11 3732.24 4183.95 3728.73 4183.95C3723.48 4183.95 3719.37 4186.54 3716.41 4191.73C3713.45 4196.89 3711.97 4204.19 3711.97 4213.64C3711.97 4219.93 3712.64 4225.28 3713.96 4229.69C3715.29 4234.09 3717.19 4237.44 3719.68 4239.74C3722.19 4242.03 3725.21 4243.18 3728.73 4243.18ZM3782.71 4209.38C3779.71 4209.38 3776.96 4208.64 3774.47 4207.17C3772.01 4205.71 3770.05 4203.74 3768.58 4201.28C3767.11 4198.79 3766.38 4196.05 3766.38 4193.04C3766.38 4190.03 3767.11 4187.3 3768.58 4184.84C3770.05 4182.35 3772.01 4180.37 3774.47 4178.91C3776.96 4177.44 3779.71 4176.7 3782.71 4176.7C3785.72 4176.7 3788.45 4177.44 3790.91 4178.91C3793.4 4180.37 3795.38 4182.35 3796.85 4184.84C3798.31 4187.3 3799.05 4190.03 3799.05 4193.04C3799.05 4196.05 3798.31 4198.79 3796.85 4201.28C3795.38 4203.74 3793.4 4205.71 3790.91 4207.17C3788.45 4208.64 3785.72 4209.38 3782.71 4209.38ZM3782.71 4202.27C3784.42 4202.27 3785.97 4201.86 3787.36 4201.03C3788.76 4200.2 3789.87 4199.09 3790.7 4197.69C3791.53 4196.29 3791.94 4194.74 3791.94 4193.04C3791.94 4191.34 3791.53 4189.78 3790.7 4188.39C3789.87 4186.99 3788.76 4185.88 3787.36 4185.05C3785.97 4184.22 3784.42 4183.81 3782.71 4183.81C3781.01 4183.81 3779.46 4184.22 3778.06 4185.05C3776.66 4185.88 3775.55 4186.99 3774.72 4188.39C3773.89 4189.78 3773.48 4191.34 3773.48 4193.04C3773.48 4194.74 3773.89 4196.29 3774.72 4197.69C3775.55 4199.09 3776.66 4200.2 3778.06 4201.03C3779.46 4201.86 3781.01 4202.27 3782.71 4202.27Z" fill="black"/>
<path d="M137.636 2543V2534.82L168.364 2501.18C171.97 2497.24 174.939 2493.82 177.273 2490.91C179.606 2487.97 181.333 2485.21 182.455 2482.64C183.606 2480.03 184.182 2477.3 184.182 2474.45C184.182 2471.18 183.394 2468.35 181.818 2465.95C180.273 2463.56 178.152 2461.71 175.455 2460.41C172.758 2459.11 169.727 2458.45 166.364 2458.45C162.788 2458.45 159.667 2459.2 157 2460.68C154.364 2462.14 152.318 2464.18 150.864 2466.82C149.439 2469.45 148.727 2472.55 148.727 2476.09H138C138 2470.64 139.258 2465.85 141.773 2461.73C144.288 2457.61 147.712 2454.39 152.045 2452.09C156.409 2449.79 161.303 2448.64 166.727 2448.64C172.182 2448.64 177.015 2449.79 181.227 2452.09C185.439 2454.39 188.742 2457.5 191.136 2461.41C193.53 2465.32 194.727 2469.67 194.727 2474.45C194.727 2477.88 194.106 2481.23 192.864 2484.5C191.652 2487.74 189.53 2491.36 186.5 2495.36C183.5 2499.33 179.333 2504.18 174 2509.91L153.091 2532.27V2533H196.364V2543H137.636ZM218.045 2543L259.682 2460.64V2459.91H211.682V2449.91H271.318V2460.45L229.864 2543H218.045ZM316.625 2544.27C309.777 2544.27 303.943 2542.41 299.125 2538.68C294.307 2534.92 290.625 2529.48 288.08 2522.36C285.534 2515.21 284.261 2506.58 284.261 2496.45C284.261 2486.39 285.534 2477.8 288.08 2470.68C290.655 2463.53 294.352 2458.08 299.17 2454.32C304.019 2450.53 309.837 2448.64 316.625 2448.64C323.413 2448.64 329.216 2450.53 334.034 2454.32C338.883 2458.08 342.58 2463.53 345.125 2470.68C347.701 2477.8 348.989 2486.39 348.989 2496.45C348.989 2506.58 347.716 2515.21 345.17 2522.36C342.625 2529.48 338.943 2534.92 334.125 2538.68C329.307 2542.41 323.473 2544.27 316.625 2544.27ZM316.625 2534.27C323.413 2534.27 328.686 2531 332.443 2524.45C336.201 2517.91 338.08 2508.58 338.08 2496.45C338.08 2488.39 337.216 2481.53 335.489 2475.86C333.792 2470.2 331.337 2465.88 328.125 2462.91C324.943 2459.94 321.11 2458.45 316.625 2458.45C309.898 2458.45 304.64 2461.77 300.852 2468.41C297.064 2475.02 295.17 2484.36 295.17 2496.45C295.17 2504.52 296.019 2511.36 297.716 2517C299.413 2522.64 301.852 2526.92 305.034 2529.86C308.246 2532.8 312.11 2534.27 316.625 2534.27ZM385.716 2491C381.867 2491 378.352 2490.06 375.17 2488.18C372.019 2486.3 369.504 2483.79 367.625 2480.64C365.746 2477.45 364.807 2473.94 364.807 2470.09C364.807 2466.24 365.746 2462.74 367.625 2459.59C369.504 2456.41 372.019 2453.88 375.17 2452C378.352 2450.12 381.867 2449.18 385.716 2449.18C389.564 2449.18 393.064 2450.12 396.216 2452C399.398 2453.88 401.928 2456.41 403.807 2459.59C405.686 2462.74 406.625 2466.24 406.625 2470.09C406.625 2473.94 405.686 2477.45 403.807 2480.64C401.928 2483.79 399.398 2486.3 396.216 2488.18C393.064 2490.06 389.564 2491 385.716 2491ZM385.716 2481.91C387.898 2481.91 389.883 2481.38 391.67 2480.32C393.458 2479.26 394.883 2477.83 395.943 2476.05C397.004 2474.26 397.534 2472.27 397.534 2470.09C397.534 2467.91 397.004 2465.92 395.943 2464.14C394.883 2462.35 393.458 2460.92 391.67 2459.86C389.883 2458.8 387.898 2458.27 385.716 2458.27C383.534 2458.27 381.549 2458.8 379.761 2459.86C377.973 2460.92 376.549 2462.35 375.489 2464.14C374.428 2465.92 373.898 2467.91 373.898 2470.09C373.898 2472.27 374.428 2474.26 375.489 2476.05C376.549 2477.83 377.973 2479.26 379.761 2480.32C381.549 2481.38 383.534 2481.91 385.716 2481.91Z" fill="black"/>
<path d="M919.091 3961.27C913.091 3961.27 907.742 3960.24 903.045 3958.18C898.379 3956.12 894.667 3953.26 891.909 3949.59C889.182 3945.89 887.697 3941.61 887.455 3936.73H898.909C899.152 3939.73 900.182 3942.32 902 3944.5C903.818 3946.65 906.197 3948.32 909.136 3949.5C912.076 3950.68 915.333 3951.27 918.909 3951.27C922.909 3951.27 926.455 3950.58 929.545 3949.18C932.636 3947.79 935.061 3945.85 936.818 3943.36C938.576 3940.88 939.455 3938 939.455 3934.73C939.455 3931.3 938.606 3928.29 936.909 3925.68C935.212 3923.05 932.727 3920.98 929.455 3919.5C926.182 3918.02 922.182 3917.27 917.455 3917.27H910V3907.27H917.455C921.152 3907.27 924.394 3906.61 927.182 3905.27C930 3903.94 932.197 3902.06 933.773 3899.64C935.379 3897.21 936.182 3894.36 936.182 3891.09C936.182 3887.94 935.485 3885.2 934.091 3882.86C932.697 3880.53 930.727 3878.71 928.182 3877.41C925.667 3876.11 922.697 3875.45 919.273 3875.45C916.061 3875.45 913.03 3876.05 910.182 3877.23C907.364 3878.38 905.061 3880.06 903.273 3882.27C901.485 3884.45 900.515 3887.09 900.364 3890.18H889.455C889.636 3885.3 891.106 3881.03 893.864 3877.36C896.621 3873.67 900.227 3870.79 904.682 3868.73C909.167 3866.67 914.091 3865.64 919.455 3865.64C925.212 3865.64 930.152 3866.8 934.273 3869.14C938.394 3871.44 941.561 3874.48 943.773 3878.27C945.985 3882.06 947.091 3886.15 947.091 3890.55C947.091 3895.79 945.712 3900.26 942.955 3903.95C940.227 3907.65 936.515 3910.21 931.818 3911.64V3912.36C937.697 3913.33 942.288 3915.83 945.591 3919.86C948.894 3923.86 950.545 3928.82 950.545 3934.73C950.545 3939.79 949.167 3944.33 946.409 3948.36C943.682 3952.36 939.955 3955.52 935.227 3957.82C930.5 3960.12 925.121 3961.27 919.091 3961.27ZM1001.86 3866.91V3960H990.591V3878.73H990.045L967.318 3893.82V3882.36L990.591 3866.91H1001.86ZM1057.73 3961.27C1052.39 3961.27 1047.59 3960.21 1043.32 3958.09C1039.05 3955.97 1035.62 3953.06 1033.05 3949.36C1030.47 3945.67 1029.06 3941.45 1028.82 3936.73H1039.73C1040.15 3940.94 1042.06 3944.42 1045.45 3947.18C1048.88 3949.91 1052.97 3951.27 1057.73 3951.27C1061.55 3951.27 1064.94 3950.38 1067.91 3948.59C1070.91 3946.8 1073.26 3944.35 1074.95 3941.23C1076.68 3938.08 1077.55 3934.52 1077.55 3930.55C1077.55 3926.48 1076.65 3922.86 1074.86 3919.68C1073.11 3916.47 1070.68 3913.94 1067.59 3912.09C1064.5 3910.24 1060.97 3909.3 1057 3909.27C1054.15 3909.24 1051.23 3909.68 1048.23 3910.59C1045.23 3911.47 1042.76 3912.61 1040.82 3914L1030.27 3912.73L1035.91 3866.91H1084.27V3876.91H1045.36L1042.09 3904.36H1042.64C1044.55 3902.85 1046.94 3901.59 1049.82 3900.59C1052.7 3899.59 1055.7 3899.09 1058.82 3899.09C1064.52 3899.09 1069.59 3900.45 1074.05 3903.18C1078.53 3905.88 1082.05 3909.58 1084.59 3914.27C1087.17 3918.97 1088.45 3924.33 1088.45 3930.36C1088.45 3936.3 1087.12 3941.61 1084.45 3946.27C1081.82 3950.91 1078.18 3954.58 1073.55 3957.27C1068.91 3959.94 1063.64 3961.27 1057.73 3961.27ZM1125.97 3908C1122.12 3908 1118.6 3907.06 1115.42 3905.18C1112.27 3903.3 1109.75 3900.79 1107.88 3897.64C1106 3894.45 1105.06 3890.94 1105.06 3887.09C1105.06 3883.24 1106 3879.74 1107.88 3876.59C1109.75 3873.41 1112.27 3870.88 1115.42 3869C1118.6 3867.12 1122.12 3866.18 1125.97 3866.18C1129.81 3866.18 1133.31 3867.12 1136.47 3869C1139.65 3870.88 1142.18 3873.41 1144.06 3876.59C1145.94 3879.74 1146.88 3883.24 1146.88 3887.09C1146.88 3890.94 1145.94 3894.45 1144.06 3897.64C1142.18 3900.79 1139.65 3903.3 1136.47 3905.18C1133.31 3907.06 1129.81 3908 1125.97 3908ZM1125.97 3898.91C1128.15 3898.91 1130.13 3898.38 1131.92 3897.32C1133.71 3896.26 1135.13 3894.83 1136.19 3893.05C1137.25 3891.26 1137.78 3889.27 1137.78 3887.09C1137.78 3884.91 1137.25 3882.92 1136.19 3881.14C1135.13 3879.35 1133.71 3877.92 1131.92 3876.86C1130.13 3875.8 1128.15 3875.27 1125.97 3875.27C1123.78 3875.27 1121.8 3875.8 1120.01 3876.86C1118.22 3877.92 1116.8 3879.35 1115.74 3881.14C1114.68 3882.92 1114.15 3884.91 1114.15 3887.09C1114.15 3889.27 1114.68 3891.26 1115.74 3893.05C1116.8 3894.83 1118.22 3896.26 1120.01 3897.32C1121.8 3898.38 1123.78 3898.91 1125.97 3898.91Z" fill="black"/>
<path d="M4646.27 2448.64C4650.09 2448.67 4653.91 2449.39 4657.73 2450.82C4661.55 2452.24 4665.03 2454.61 4668.18 2457.91C4671.33 2461.18 4673.86 2465.65 4675.77 2471.32C4677.68 2476.98 4678.64 2484.09 4678.64 2492.64C4678.64 2500.91 4677.85 2508.26 4676.27 2514.68C4674.73 2521.08 4672.48 2526.47 4669.55 2530.86C4666.64 2535.26 4663.09 2538.59 4658.91 2540.86C4654.76 2543.14 4650.06 2544.27 4644.82 2544.27C4639.61 2544.27 4634.95 2543.24 4630.86 2541.18C4626.8 2539.09 4623.47 2536.2 4620.86 2532.5C4618.29 2528.77 4616.64 2524.45 4615.91 2519.55H4627C4628 2523.82 4629.98 2527.35 4632.95 2530.14C4635.95 2532.89 4639.91 2534.27 4644.82 2534.27C4652 2534.27 4657.67 2531.14 4661.82 2524.86C4666 2518.59 4668.09 2509.73 4668.09 2498.27H4667.36C4665.67 2500.82 4663.65 2503.02 4661.32 2504.86C4658.98 2506.71 4656.39 2508.14 4653.55 2509.14C4650.7 2510.14 4647.67 2510.64 4644.45 2510.64C4639.12 2510.64 4634.23 2509.32 4629.77 2506.68C4625.35 2504.02 4621.8 2500.36 4619.14 2495.73C4616.5 2491.06 4615.18 2485.73 4615.18 2479.73C4615.18 2474.03 4616.45 2468.82 4619 2464.09C4621.58 2459.33 4625.18 2455.55 4629.82 2452.73C4634.48 2449.91 4639.97 2448.55 4646.27 2448.64ZM4646.27 2458.64C4642.45 2458.64 4639.02 2459.59 4635.95 2461.5C4632.92 2463.38 4630.52 2465.92 4628.73 2469.14C4626.97 2472.32 4626.09 2475.85 4626.09 2479.73C4626.09 2483.61 4626.94 2487.14 4628.64 2490.32C4630.36 2493.47 4632.71 2495.98 4635.68 2497.86C4638.68 2499.71 4642.09 2500.64 4645.91 2500.64C4648.79 2500.64 4651.47 2500.08 4653.95 2498.95C4656.44 2497.8 4658.61 2496.24 4660.45 2494.27C4662.33 2492.27 4663.8 2490.02 4664.86 2487.5C4665.92 2484.95 4666.45 2482.3 4666.45 2479.55C4666.45 2475.91 4665.58 2472.5 4663.82 2469.32C4662.09 2466.14 4659.7 2463.56 4656.64 2461.59C4653.61 2459.62 4650.15 2458.64 4646.27 2458.64ZM4726.88 2544.27C4720.03 2544.27 4714.19 2542.41 4709.38 2538.68C4704.56 2534.92 4700.88 2529.48 4698.33 2522.36C4695.78 2515.21 4694.51 2506.58 4694.51 2496.45C4694.51 2486.39 4695.78 2477.8 4698.33 2470.68C4700.91 2463.53 4704.6 2458.08 4709.42 2454.32C4714.27 2450.53 4720.09 2448.64 4726.88 2448.64C4733.66 2448.64 4739.47 2450.53 4744.28 2454.32C4749.13 2458.08 4752.83 2463.53 4755.38 2470.68C4757.95 2477.8 4759.24 2486.39 4759.24 2496.45C4759.24 2506.58 4757.97 2515.21 4755.42 2522.36C4752.88 2529.48 4749.19 2534.92 4744.38 2538.68C4739.56 2542.41 4733.72 2544.27 4726.88 2544.27ZM4726.88 2534.27C4733.66 2534.27 4738.94 2531 4742.69 2524.45C4746.45 2517.91 4748.33 2508.58 4748.33 2496.45C4748.33 2488.39 4747.47 2481.53 4745.74 2475.86C4744.04 2470.2 4741.59 2465.88 4738.38 2462.91C4735.19 2459.94 4731.36 2458.45 4726.88 2458.45C4720.15 2458.45 4714.89 2461.77 4711.1 2468.41C4707.31 2475.02 4705.42 2484.36 4705.42 2496.45C4705.42 2504.52 4706.27 2511.36 4707.97 2517C4709.66 2522.64 4712.1 2526.92 4715.28 2529.86C4718.5 2532.8 4722.36 2534.27 4726.88 2534.27ZM4795.97 2491C4792.12 2491 4788.6 2490.06 4785.42 2488.18C4782.27 2486.3 4779.75 2483.79 4777.88 2480.64C4776 2477.45 4775.06 2473.94 4775.06 2470.09C4775.06 2466.24 4776 2462.74 4777.88 2459.59C4779.75 2456.41 4782.27 2453.88 4785.42 2452C4788.6 2450.12 4792.12 2449.18 4795.97 2449.18C4799.81 2449.18 4803.31 2450.12 4806.47 2452C4809.65 2453.88 4812.18 2456.41 4814.06 2459.59C4815.94 2462.74 4816.88 2466.24 4816.88 2470.09C4816.88 2473.94 4815.94 2477.45 4814.06 2480.64C4812.18 2483.79 4809.65 2486.3 4806.47 2488.18C4803.31 2490.06 4799.81 2491 4795.97 2491ZM4795.97 2481.91C4798.15 2481.91 4800.13 2481.38 4801.92 2480.32C4803.71 2479.26 4805.13 2477.83 4806.19 2476.05C4807.25 2474.26 4807.78 2472.27 4807.78 2470.09C4807.78 2467.91 4807.25 2465.92 4806.19 2464.14C4805.13 2462.35 4803.71 2460.92 4801.92 2459.86C4800.13 2458.8 4798.15 2458.27 4795.97 2458.27C4793.78 2458.27 4791.8 2458.8 4790.01 2459.86C4788.22 2460.92 4786.8 2462.35 4785.74 2464.14C4784.68 2465.92 4784.15 2467.91 4784.15 2470.09C4784.15 2472.27 4784.68 2474.26 4785.74 2476.05C4786.8 2477.83 4788.22 2479.26 4790.01 2480.32C4791.8 2481.38 4793.78 2481.91 4795.97 2481.91Z" fill="black"/>
<path d="M2426.36 303.909V397H2415.09V315.727H2414.55L2391.82 330.818V319.364L2415.09 303.909H2426.36ZM2482.95 398.273C2476.71 398.273 2471.2 397.167 2466.41 394.955C2461.65 392.712 2457.94 389.636 2455.27 385.727C2452.61 381.788 2451.29 377.303 2451.32 372.273C2451.29 368.333 2452.06 364.697 2453.64 361.364C2455.21 358 2457.36 355.197 2460.09 352.955C2462.85 350.682 2465.92 349.242 2469.32 348.636V348.091C2464.86 346.939 2461.32 344.439 2458.68 340.591C2456.05 336.712 2454.74 332.303 2454.77 327.364C2454.74 322.636 2455.94 318.409 2458.36 314.682C2460.79 310.955 2464.12 308.015 2468.36 305.864C2472.64 303.712 2477.5 302.636 2482.95 302.636C2488.35 302.636 2493.17 303.712 2497.41 305.864C2501.65 308.015 2504.98 310.955 2507.41 314.682C2509.86 318.409 2511.11 322.636 2511.14 327.364C2511.11 332.303 2509.76 336.712 2507.09 340.591C2504.45 344.439 2500.95 346.939 2496.59 348.091V348.636C2499.95 349.242 2502.98 350.682 2505.68 352.955C2508.38 355.197 2510.53 358 2512.14 361.364C2513.74 364.697 2514.56 368.333 2514.59 372.273C2514.56 377.303 2513.2 381.788 2510.5 385.727C2507.83 389.636 2504.12 392.712 2499.36 394.955C2494.64 397.167 2489.17 398.273 2482.95 398.273ZM2482.95 388.273C2487.17 388.273 2490.8 387.591 2493.86 386.227C2496.92 384.864 2499.29 382.939 2500.95 380.455C2502.62 377.97 2503.47 375.061 2503.5 371.727C2503.47 368.212 2502.56 365.106 2500.77 362.409C2498.98 359.712 2496.55 357.591 2493.45 356.045C2490.39 354.5 2486.89 353.727 2482.95 353.727C2478.98 353.727 2475.44 354.5 2472.32 356.045C2469.23 357.591 2466.79 359.712 2465 362.409C2463.24 365.106 2462.38 368.212 2462.41 371.727C2462.38 375.061 2463.18 377.97 2464.82 380.455C2466.48 382.939 2468.86 384.864 2471.95 386.227C2475.05 387.591 2478.71 388.273 2482.95 388.273ZM2482.95 344.091C2486.29 344.091 2489.24 343.424 2491.82 342.091C2494.42 340.758 2496.47 338.894 2497.95 336.5C2499.44 334.106 2500.2 331.303 2500.23 328.091C2500.2 324.939 2499.45 322.197 2498 319.864C2496.55 317.5 2494.53 315.682 2491.95 314.409C2489.38 313.106 2486.38 312.455 2482.95 312.455C2479.47 312.455 2476.42 313.106 2473.82 314.409C2471.21 315.682 2469.2 317.5 2467.77 319.864C2466.35 322.197 2465.65 324.939 2465.68 328.091C2465.65 331.303 2466.36 334.106 2467.82 336.5C2469.3 338.894 2471.35 340.758 2473.95 342.091C2476.56 343.424 2479.56 344.091 2482.95 344.091ZM2562.38 398.273C2555.53 398.273 2549.69 396.409 2544.88 392.682C2540.06 388.924 2536.38 383.485 2533.83 376.364C2531.28 369.212 2530.01 360.576 2530.01 350.455C2530.01 340.394 2531.28 331.803 2533.83 324.682C2536.41 317.53 2540.1 312.076 2544.92 308.318C2549.77 304.53 2555.59 302.636 2562.38 302.636C2569.16 302.636 2574.97 304.53 2579.78 308.318C2584.63 312.076 2588.33 317.53 2590.88 324.682C2593.45 331.803 2594.74 340.394 2594.74 350.455C2594.74 360.576 2593.47 369.212 2590.92 376.364C2588.38 383.485 2584.69 388.924 2579.88 392.682C2575.06 396.409 2569.22 398.273 2562.38 398.273ZM2562.38 388.273C2569.16 388.273 2574.44 385 2578.19 378.455C2581.95 371.909 2583.83 362.576 2583.83 350.455C2583.83 342.394 2582.97 335.53 2581.24 329.864C2579.54 324.197 2577.09 319.879 2573.88 316.909C2570.69 313.939 2566.86 312.455 2562.38 312.455C2555.65 312.455 2550.39 315.773 2546.6 322.409C2542.81 329.015 2540.92 338.364 2540.92 350.455C2540.92 358.515 2541.77 365.364 2543.47 371C2545.16 376.636 2547.6 380.924 2550.78 383.864C2554 386.803 2557.86 388.273 2562.38 388.273ZM2631.47 345C2627.62 345 2624.1 344.061 2620.92 342.182C2617.77 340.303 2615.25 337.788 2613.38 334.636C2611.5 331.455 2610.56 327.939 2610.56 324.091C2610.56 320.242 2611.5 316.742 2613.38 313.591C2615.25 310.409 2617.77 307.879 2620.92 306C2624.1 304.121 2627.62 303.182 2631.47 303.182C2635.31 303.182 2638.81 304.121 2641.97 306C2645.15 307.879 2647.68 310.409 2649.56 313.591C2651.44 316.742 2652.38 320.242 2652.38 324.091C2652.38 327.939 2651.44 331.455 2649.56 334.636C2647.68 337.788 2645.15 340.303 2641.97 342.182C2638.81 344.061 2635.31 345 2631.47 345ZM2631.47 335.909C2633.65 335.909 2635.63 335.379 2637.42 334.318C2639.21 333.258 2640.63 331.833 2641.69 330.045C2642.75 328.258 2643.28 326.273 2643.28 324.091C2643.28 321.909 2642.75 319.924 2641.69 318.136C2640.63 316.348 2639.21 314.924 2637.42 313.864C2635.63 312.803 2633.65 312.273 2631.47 312.273C2629.28 312.273 2627.3 312.803 2625.51 313.864C2623.72 314.924 2622.3 316.348 2621.24 318.136C2620.18 319.924 2619.65 321.909 2619.65 324.091C2619.65 326.273 2620.18 328.258 2621.24 330.045C2622.3 331.833 2623.72 333.258 2625.51 334.318C2627.3 335.379 2629.28 335.909 2631.47 335.909Z" fill="black"/>
<path d="M3843.45 3940.91V3931.64L3884.36 3866.91H3891.09V3881.27H3886.55L3855.64 3930.18V3930.91H3910.73V3940.91H3843.45ZM3887.27 3960V3938.09V3933.77V3866.91H3898V3960H3887.27ZM3956.85 3961.27C3951.52 3961.27 3946.72 3960.21 3942.44 3958.09C3938.17 3955.97 3934.75 3953.06 3932.17 3949.36C3929.59 3945.67 3928.19 3941.45 3927.94 3936.73H3938.85C3939.28 3940.94 3941.19 3944.42 3944.58 3947.18C3948 3949.91 3952.09 3951.27 3956.85 3951.27C3960.67 3951.27 3964.06 3950.38 3967.03 3948.59C3970.03 3946.8 3972.38 3944.35 3974.08 3941.23C3975.81 3938.08 3976.67 3934.52 3976.67 3930.55C3976.67 3926.48 3975.78 3922.86 3973.99 3919.68C3972.23 3916.47 3969.81 3913.94 3966.72 3912.09C3963.63 3910.24 3960.09 3909.3 3956.12 3909.27C3953.28 3909.24 3950.35 3909.68 3947.35 3910.59C3944.35 3911.47 3941.88 3912.61 3939.94 3914L3929.4 3912.73L3935.03 3866.91H3983.4V3876.91H3944.49L3941.22 3904.36H3941.76C3943.67 3902.85 3946.06 3901.59 3948.94 3900.59C3951.82 3899.59 3954.82 3899.09 3957.94 3899.09C3963.64 3899.09 3968.72 3900.45 3973.17 3903.18C3977.66 3905.88 3981.17 3909.58 3983.72 3914.27C3986.29 3918.97 3987.58 3924.33 3987.58 3930.36C3987.58 3936.3 3986.25 3941.61 3983.58 3946.27C3980.94 3950.91 3977.31 3954.58 3972.67 3957.27C3968.03 3959.94 3962.76 3961.27 3956.85 3961.27ZM4025.09 3908C4021.24 3908 4017.73 3907.06 4014.55 3905.18C4011.39 3903.3 4008.88 3900.79 4007 3897.64C4005.12 3894.45 4004.18 3890.94 4004.18 3887.09C4004.18 3883.24 4005.12 3879.74 4007 3876.59C4008.88 3873.41 4011.39 3870.88 4014.55 3869C4017.73 3867.12 4021.24 3866.18 4025.09 3866.18C4028.94 3866.18 4032.44 3867.12 4035.59 3869C4038.77 3870.88 4041.3 3873.41 4043.18 3876.59C4045.06 3879.74 4046 3883.24 4046 3887.09C4046 3890.94 4045.06 3894.45 4043.18 3897.64C4041.3 3900.79 4038.77 3903.3 4035.59 3905.18C4032.44 3907.06 4028.94 3908 4025.09 3908ZM4025.09 3898.91C4027.27 3898.91 4029.26 3898.38 4031.05 3897.32C4032.83 3896.26 4034.26 3894.83 4035.32 3893.05C4036.38 3891.26 4036.91 3889.27 4036.91 3887.09C4036.91 3884.91 4036.38 3882.92 4035.32 3881.14C4034.26 3879.35 4032.83 3877.92 4031.05 3876.86C4029.26 3875.8 4027.27 3875.27 4025.09 3875.27C4022.91 3875.27 4020.92 3875.8 4019.14 3876.86C4017.35 3877.92 4015.92 3879.35 4014.86 3881.14C4013.8 3882.92 4013.27 3884.91 4013.27 3887.09C4013.27 3889.27 4013.8 3891.26 4014.86 3893.05C4015.92 3894.83 4017.35 3896.26 4019.14 3897.32C4020.92 3898.38 4022.91 3898.91 4025.09 3898.91Z" fill="black"/>
<path d="M728.636 1030V1021.82L759.364 988.182C762.97 984.242 765.939 980.818 768.273 977.909C770.606 974.97 772.333 972.212 773.455 969.636C774.606 967.03 775.182 964.303 775.182 961.455C775.182 958.182 774.394 955.348 772.818 952.955C771.273 950.561 769.152 948.712 766.455 947.409C763.758 946.106 760.727 945.455 757.364 945.455C753.788 945.455 750.667 946.197 748 947.682C745.364 949.136 743.318 951.182 741.864 953.818C740.439 956.455 739.727 959.545 739.727 963.091H729C729 957.636 730.258 952.848 732.773 948.727C735.288 944.606 738.712 941.394 743.045 939.091C747.409 936.788 752.303 935.636 757.727 935.636C763.182 935.636 768.015 936.788 772.227 939.091C776.439 941.394 779.742 944.5 782.136 948.409C784.53 952.318 785.727 956.667 785.727 961.455C785.727 964.879 785.106 968.227 783.864 971.5C782.652 974.742 780.53 978.364 777.5 982.364C774.5 986.333 770.333 991.182 765 996.909L744.091 1019.27V1020H787.364V1030H728.636ZM806.136 1030V1021.82L836.864 988.182C840.47 984.242 843.439 980.818 845.773 977.909C848.106 974.97 849.833 972.212 850.955 969.636C852.106 967.03 852.682 964.303 852.682 961.455C852.682 958.182 851.894 955.348 850.318 952.955C848.773 950.561 846.652 948.712 843.955 947.409C841.258 946.106 838.227 945.455 834.864 945.455C831.288 945.455 828.167 946.197 825.5 947.682C822.864 949.136 820.818 951.182 819.364 953.818C817.939 956.455 817.227 959.545 817.227 963.091H806.5C806.5 957.636 807.758 952.848 810.273 948.727C812.788 944.606 816.212 941.394 820.545 939.091C824.909 936.788 829.803 935.636 835.227 935.636C840.682 935.636 845.515 936.788 849.727 939.091C853.939 941.394 857.242 944.5 859.636 948.409C862.03 952.318 863.227 956.667 863.227 961.455C863.227 964.879 862.606 968.227 861.364 971.5C860.152 974.742 858.03 978.364 855 982.364C852 986.333 847.833 991.182 842.5 996.909L821.591 1019.27V1020H864.864V1030H806.136ZM912.727 1031.27C907.394 1031.27 902.591 1030.21 898.318 1028.09C894.045 1025.97 890.621 1023.06 888.045 1019.36C885.47 1015.67 884.061 1011.45 883.818 1006.73H894.727C895.152 1010.94 897.061 1014.42 900.455 1017.18C903.879 1019.91 907.97 1021.27 912.727 1021.27C916.545 1021.27 919.939 1020.38 922.909 1018.59C925.909 1016.8 928.258 1014.35 929.955 1011.23C931.682 1008.08 932.545 1004.52 932.545 1000.55C932.545 996.485 931.652 992.864 929.864 989.682C928.106 986.47 925.682 983.939 922.591 982.091C919.5 980.242 915.97 979.303 912 979.273C909.152 979.242 906.227 979.682 903.227 980.591C900.227 981.47 897.758 982.606 895.818 984L885.273 982.727L890.909 936.909H939.273V946.909H900.364L897.091 974.364H897.636C899.545 972.848 901.939 971.591 904.818 970.591C907.697 969.591 910.697 969.091 913.818 969.091C919.515 969.091 924.591 970.455 929.045 973.182C933.53 975.879 937.045 979.576 939.591 984.273C942.167 988.97 943.455 994.333 943.455 1000.36C943.455 1006.3 942.121 1011.61 939.455 1016.27C936.818 1020.91 933.182 1024.58 928.545 1027.27C923.909 1029.94 918.636 1031.27 912.727 1031.27ZM980.966 978C977.117 978 973.602 977.061 970.42 975.182C967.269 973.303 964.754 970.788 962.875 967.636C960.996 964.455 960.057 960.939 960.057 957.091C960.057 953.242 960.996 949.742 962.875 946.591C964.754 943.409 967.269 940.879 970.42 939C973.602 937.121 977.117 936.182 980.966 936.182C984.814 936.182 988.314 937.121 991.466 939C994.648 940.879 997.178 943.409 999.057 946.591C1000.94 949.742 1001.88 953.242 1001.88 957.091C1001.88 960.939 1000.94 964.455 999.057 967.636C997.178 970.788 994.648 973.303 991.466 975.182C988.314 977.061 984.814 978 980.966 978ZM980.966 968.909C983.148 968.909 985.133 968.379 986.92 967.318C988.708 966.258 990.133 964.833 991.193 963.045C992.254 961.258 992.784 959.273 992.784 957.091C992.784 954.909 992.254 952.924 991.193 951.136C990.133 949.348 988.708 947.924 986.92 946.864C985.133 945.803 983.148 945.273 980.966 945.273C978.784 945.273 976.799 945.803 975.011 946.864C973.223 947.924 971.799 949.348 970.739 951.136C969.678 952.924 969.148 954.909 969.148 957.091C969.148 959.273 969.678 961.258 970.739 963.045C971.799 964.833 973.223 966.258 975.011 967.318C976.799 968.379 978.784 968.909 980.966 968.909Z" fill="black"/>
<path d="M4012.36 933.909V1027H4001.09V945.727H4000.55L3977.82 960.818V949.364L4001.09 933.909H4012.36ZM4070.59 1028.27C4064.59 1028.27 4059.24 1027.24 4054.55 1025.18C4049.88 1023.12 4046.17 1020.26 4043.41 1016.59C4040.68 1012.89 4039.2 1008.61 4038.95 1003.73H4050.41C4050.65 1006.73 4051.68 1009.32 4053.5 1011.5C4055.32 1013.65 4057.7 1015.32 4060.64 1016.5C4063.58 1017.68 4066.83 1018.27 4070.41 1018.27C4074.41 1018.27 4077.95 1017.58 4081.05 1016.18C4084.14 1014.79 4086.56 1012.85 4088.32 1010.36C4090.08 1007.88 4090.95 1005 4090.95 1001.73C4090.95 998.303 4090.11 995.288 4088.41 992.682C4086.71 990.045 4084.23 987.985 4080.95 986.5C4077.68 985.015 4073.68 984.273 4068.95 984.273H4061.5V974.273H4068.95C4072.65 974.273 4075.89 973.606 4078.68 972.273C4081.5 970.939 4083.7 969.061 4085.27 966.636C4086.88 964.212 4087.68 961.364 4087.68 958.091C4087.68 954.939 4086.98 952.197 4085.59 949.864C4084.2 947.53 4082.23 945.712 4079.68 944.409C4077.17 943.106 4074.2 942.455 4070.77 942.455C4067.56 942.455 4064.53 943.045 4061.68 944.227C4058.86 945.379 4056.56 947.061 4054.77 949.273C4052.98 951.455 4052.02 954.091 4051.86 957.182H4040.95C4041.14 952.303 4042.61 948.03 4045.36 944.364C4048.12 940.667 4051.73 937.788 4056.18 935.727C4060.67 933.667 4065.59 932.636 4070.95 932.636C4076.71 932.636 4081.65 933.803 4085.77 936.136C4089.89 938.439 4093.06 941.485 4095.27 945.273C4097.48 949.061 4098.59 953.152 4098.59 957.545C4098.59 962.788 4097.21 967.258 4094.45 970.955C4091.73 974.652 4088.02 977.212 4083.32 978.636V979.364C4089.2 980.333 4093.79 982.833 4097.09 986.864C4100.39 990.864 4102.05 995.818 4102.05 1001.73C4102.05 1006.79 4100.67 1011.33 4097.91 1015.36C4095.18 1019.36 4091.45 1022.52 4086.73 1024.82C4082 1027.12 4076.62 1028.27 4070.59 1028.27ZM4149.73 1028.27C4144.39 1028.27 4139.59 1027.21 4135.32 1025.09C4131.05 1022.97 4127.62 1020.06 4125.05 1016.36C4122.47 1012.67 4121.06 1008.45 4120.82 1003.73H4131.73C4132.15 1007.94 4134.06 1011.42 4137.45 1014.18C4140.88 1016.91 4144.97 1018.27 4149.73 1018.27C4153.55 1018.27 4156.94 1017.38 4159.91 1015.59C4162.91 1013.8 4165.26 1011.35 4166.95 1008.23C4168.68 1005.08 4169.55 1001.52 4169.55 997.545C4169.55 993.485 4168.65 989.864 4166.86 986.682C4165.11 983.47 4162.68 980.939 4159.59 979.091C4156.5 977.242 4152.97 976.303 4149 976.273C4146.15 976.242 4143.23 976.682 4140.23 977.591C4137.23 978.47 4134.76 979.606 4132.82 981L4122.27 979.727L4127.91 933.909H4176.27V943.909H4137.36L4134.09 971.364H4134.64C4136.55 969.848 4138.94 968.591 4141.82 967.591C4144.7 966.591 4147.7 966.091 4150.82 966.091C4156.52 966.091 4161.59 967.455 4166.05 970.182C4170.53 972.879 4174.05 976.576 4176.59 981.273C4179.17 985.97 4180.45 991.333 4180.45 997.364C4180.45 1003.3 4179.12 1008.61 4176.45 1013.27C4173.82 1017.91 4170.18 1021.58 4165.55 1024.27C4160.91 1026.94 4155.64 1028.27 4149.73 1028.27ZM4217.97 975C4214.12 975 4210.6 974.061 4207.42 972.182C4204.27 970.303 4201.75 967.788 4199.88 964.636C4198 961.455 4197.06 957.939 4197.06 954.091C4197.06 950.242 4198 946.742 4199.88 943.591C4201.75 940.409 4204.27 937.879 4207.42 936C4210.6 934.121 4214.12 933.182 4217.97 933.182C4221.81 933.182 4225.31 934.121 4228.47 936C4231.65 937.879 4234.18 940.409 4236.06 943.591C4237.94 946.742 4238.88 950.242 4238.88 954.091C4238.88 957.939 4237.94 961.455 4236.06 964.636C4234.18 967.788 4231.65 970.303 4228.47 972.182C4225.31 974.061 4221.81 975 4217.97 975ZM4217.97 965.909C4220.15 965.909 4222.13 965.379 4223.92 964.318C4225.71 963.258 4227.13 961.833 4228.19 960.045C4229.25 958.258 4229.78 956.273 4229.78 954.091C4229.78 951.909 4229.25 949.924 4228.19 948.136C4227.13 946.348 4225.71 944.924 4223.92 943.864C4222.13 942.803 4220.15 942.273 4217.97 942.273C4215.78 942.273 4213.8 942.803 4212.01 943.864C4210.22 944.924 4208.8 946.348 4207.74 948.136C4206.68 949.924 4206.15 951.909 4206.15 954.091C4206.15 956.273 4206.68 958.258 4207.74 960.045C4208.8 961.833 4210.22 963.258 4212.01 964.318C4213.8 965.379 4215.78 965.909 4217.97 965.909Z" fill="black"/>
</svg>
