%TF.GenerationSoftware,KiCad,Pcbnew,(6.0.4-0)*%
%TF.CreationDate,2022-05-13T17:31:48+02:00*%
%TF.ProjectId,vcc_distributor,7663635f-6469-4737-9472-696275746f72,rev?*%
%TF.SameCoordinates,Original*%
%TF.FileFunction,Copper,L1,Top*%
%TF.FilePolarity,Positive*%
%FSLAX46Y46*%
G04 Gerber Fmt 4.6, Leading zero omitted, Abs format (unit mm)*
G04 Created by KiCad (PCBNEW (6.0.4-0)) date 2022-05-13 17:31:48*
%MOMM*%
%LPD*%
G01*
G04 APERTURE LIST*
G04 Aperture macros list*
%AMRoundRect*
0 Rectangle with rounded corners*
0 $1 Rounding radius*
0 $2 $3 $4 $5 $6 $7 $8 $9 X,Y pos of 4 corners*
0 Add a 4 corners polygon primitive as box body*
4,1,4,$2,$3,$4,$5,$6,$7,$8,$9,$2,$3,0*
0 Add four circle primitives for the rounded corners*
1,1,$1+$1,$2,$3*
1,1,$1+$1,$4,$5*
1,1,$1+$1,$6,$7*
1,1,$1+$1,$8,$9*
0 Add four rect primitives between the rounded corners*
20,1,$1+$1,$2,$3,$4,$5,0*
20,1,$1+$1,$4,$5,$6,$7,0*
20,1,$1+$1,$6,$7,$8,$9,0*
20,1,$1+$1,$8,$9,$2,$3,0*%
G04 Aperture macros list end*
%TA.AperFunction,ComponentPad*%
%ADD10RoundRect,0.250000X0.350000X0.625000X-0.350000X0.625000X-0.350000X-0.625000X0.350000X-0.625000X0*%
%TD*%
%TA.AperFunction,ComponentPad*%
%ADD11O,1.200000X1.750000*%
%TD*%
%TA.AperFunction,ComponentPad*%
%ADD12RoundRect,0.250000X-0.350000X-0.625000X0.350000X-0.625000X0.350000X0.625000X-0.350000X0.625000X0*%
%TD*%
%TA.AperFunction,ComponentPad*%
%ADD13C,2.600000*%
%TD*%
%TA.AperFunction,ConnectorPad*%
%ADD14C,3.800000*%
%TD*%
%TA.AperFunction,ComponentPad*%
%ADD15RoundRect,0.250000X-0.625000X0.350000X-0.625000X-0.350000X0.625000X-0.350000X0.625000X0.350000X0*%
%TD*%
%TA.AperFunction,ComponentPad*%
%ADD16O,1.750000X1.200000*%
%TD*%
%TA.AperFunction,ComponentPad*%
%ADD17R,2.600000X2.600000*%
%TD*%
G04 APERTURE END LIST*
D10*
%TO.P,J3,1,Pin_1*%
%TO.N,GND*%
X110000000Y-68250000D03*
D11*
%TO.P,J3,2,Pin_2*%
%TO.N,+5V*%
X108000000Y-68250000D03*
%TD*%
D12*
%TO.P,J2,1,Pin_1*%
%TO.N,GND*%
X108000000Y-49700000D03*
D11*
%TO.P,J2,2,Pin_2*%
%TO.N,+5V*%
X110000000Y-49700000D03*
%TD*%
D13*
%TO.P,REF\u002A\u002A,1*%
%TO.N,N/C*%
X125500000Y-59000000D03*
D14*
X125500000Y-59000000D03*
%TD*%
D13*
%TO.P,REF\u002A\u002A,1*%
%TO.N,N/C*%
X102250000Y-68250000D03*
D14*
X102250000Y-68250000D03*
%TD*%
D13*
%TO.P,REF\u002A\u002A,1*%
%TO.N,N/C*%
X102250000Y-49750000D03*
D14*
X102250000Y-49750000D03*
%TD*%
D15*
%TO.P,J6,1,Pin_1*%
%TO.N,GND*%
X118050000Y-58000000D03*
D16*
%TO.P,J6,2,Pin_2*%
%TO.N,+5V*%
X118050000Y-60000000D03*
%TD*%
D12*
%TO.P,J4,1,Pin_1*%
%TO.N,GND*%
X116000000Y-49700000D03*
D11*
%TO.P,J4,2,Pin_2*%
%TO.N,+5V*%
X118000000Y-49700000D03*
%TD*%
D15*
%TO.P,J8,1,Pin_1*%
%TO.N,GND*%
X125800000Y-50000000D03*
D16*
%TO.P,J8,2,Pin_2*%
%TO.N,+5V*%
X125800000Y-52000000D03*
%TD*%
D15*
%TO.P,J7,1,Pin_1*%
%TO.N,GND*%
X125800000Y-66000000D03*
D16*
%TO.P,J7,2,Pin_2*%
%TO.N,unconnected-(J7-Pad2)*%
X125800000Y-68000000D03*
%TD*%
D10*
%TO.P,J5,1,Pin_1*%
%TO.N,GND*%
X118000000Y-68250000D03*
D11*
%TO.P,J5,2,Pin_2*%
%TO.N,+5V*%
X116000000Y-68250000D03*
%TD*%
D17*
%TO.P,J1,1,Pin_1*%
%TO.N,GND*%
X105305000Y-56500000D03*
D13*
%TO.P,J1,2,Pin_2*%
%TO.N,+5V*%
X105305000Y-61500000D03*
%TD*%
%TA.AperFunction,Conductor*%
%TO.N,+5V*%
G36*
X128433621Y-47028502D02*
G01*
X128480114Y-47082158D01*
X128491500Y-47134500D01*
X128491500Y-70865500D01*
X128471498Y-70933621D01*
X128417842Y-70980114D01*
X128365500Y-70991500D01*
X99634500Y-70991500D01*
X99566379Y-70971498D01*
X99519886Y-70917842D01*
X99508500Y-70865500D01*
X99508500Y-68250000D01*
X99836738Y-68250000D01*
X99855767Y-68552462D01*
X99912555Y-68850154D01*
X99913782Y-68853930D01*
X100003816Y-69131024D01*
X100006206Y-69138381D01*
X100007893Y-69141967D01*
X100007895Y-69141971D01*
X100037069Y-69203968D01*
X100135242Y-69412598D01*
X100137366Y-69415944D01*
X100137366Y-69415945D01*
X100185628Y-69491994D01*
X100297630Y-69668480D01*
X100490808Y-69901992D01*
X100711729Y-70109450D01*
X100956910Y-70287584D01*
X101222483Y-70433585D01*
X101226152Y-70435038D01*
X101226157Y-70435040D01*
X101500591Y-70543696D01*
X101504261Y-70545149D01*
X101797800Y-70620516D01*
X102098470Y-70658500D01*
X102401530Y-70658500D01*
X102702200Y-70620516D01*
X102995739Y-70545149D01*
X102999409Y-70543696D01*
X103273843Y-70435040D01*
X103273848Y-70435038D01*
X103277517Y-70433585D01*
X103543090Y-70287584D01*
X103788271Y-70109450D01*
X104009192Y-69901992D01*
X104202370Y-69668480D01*
X104314372Y-69491994D01*
X104362634Y-69415945D01*
X104362634Y-69415944D01*
X104364758Y-69412598D01*
X104462931Y-69203968D01*
X104492105Y-69141971D01*
X104492107Y-69141967D01*
X104493794Y-69138381D01*
X104496185Y-69131024D01*
X104586218Y-68853930D01*
X104587445Y-68850154D01*
X104626483Y-68645512D01*
X106898458Y-68645512D01*
X106906471Y-68729494D01*
X106908730Y-68741228D01*
X106964872Y-68932599D01*
X106969302Y-68943675D01*
X107060619Y-69120978D01*
X107067069Y-69131024D01*
X107190262Y-69287857D01*
X107198499Y-69296506D01*
X107349123Y-69427212D01*
X107358847Y-69434147D01*
X107531465Y-69534009D01*
X107542335Y-69538986D01*
X107603885Y-69560360D01*
X107617972Y-69561045D01*
X107621000Y-69555186D01*
X107621000Y-69551724D01*
X108379000Y-69551724D01*
X108382973Y-69565255D01*
X108387615Y-69565922D01*
X108549382Y-69492371D01*
X108559724Y-69486424D01*
X108722397Y-69371032D01*
X108731425Y-69363239D01*
X108818535Y-69272243D01*
X108880090Y-69236867D01*
X108951000Y-69240386D01*
X109008750Y-69281683D01*
X109016685Y-69293053D01*
X109051522Y-69349348D01*
X109176697Y-69474305D01*
X109182927Y-69478145D01*
X109182928Y-69478146D01*
X109320090Y-69562694D01*
X109327262Y-69567115D01*
X109407005Y-69593564D01*
X109488611Y-69620632D01*
X109488613Y-69620632D01*
X109495139Y-69622797D01*
X109501975Y-69623497D01*
X109501978Y-69623498D01*
X109545031Y-69627909D01*
X109599600Y-69633500D01*
X110400400Y-69633500D01*
X110403646Y-69633163D01*
X110403650Y-69633163D01*
X110499308Y-69623238D01*
X110499312Y-69623237D01*
X110506166Y-69622526D01*
X110512702Y-69620345D01*
X110512704Y-69620345D01*
X110644806Y-69576272D01*
X110673946Y-69566550D01*
X110824348Y-69473478D01*
X110949305Y-69348303D01*
X110986565Y-69287857D01*
X111038275Y-69203968D01*
X111038276Y-69203966D01*
X111042115Y-69197738D01*
X111085251Y-69067686D01*
X111095632Y-69036389D01*
X111095632Y-69036387D01*
X111097797Y-69029861D01*
X111108500Y-68925400D01*
X111108500Y-68645512D01*
X114898458Y-68645512D01*
X114906471Y-68729494D01*
X114908730Y-68741228D01*
X114964872Y-68932599D01*
X114969302Y-68943675D01*
X115060619Y-69120978D01*
X115067069Y-69131024D01*
X115190262Y-69287857D01*
X115198499Y-69296506D01*
X115349123Y-69427212D01*
X115358847Y-69434147D01*
X115531465Y-69534009D01*
X115542335Y-69538986D01*
X115603885Y-69560360D01*
X115617972Y-69561045D01*
X115621000Y-69555186D01*
X115621000Y-69551724D01*
X116379000Y-69551724D01*
X116382973Y-69565255D01*
X116387615Y-69565922D01*
X116549382Y-69492371D01*
X116559724Y-69486424D01*
X116722397Y-69371032D01*
X116731425Y-69363239D01*
X116818535Y-69272243D01*
X116880090Y-69236867D01*
X116951000Y-69240386D01*
X117008750Y-69281683D01*
X117016685Y-69293053D01*
X117051522Y-69349348D01*
X117176697Y-69474305D01*
X117182927Y-69478145D01*
X117182928Y-69478146D01*
X117320090Y-69562694D01*
X117327262Y-69567115D01*
X117407005Y-69593564D01*
X117488611Y-69620632D01*
X117488613Y-69620632D01*
X117495139Y-69622797D01*
X117501975Y-69623497D01*
X117501978Y-69623498D01*
X117545031Y-69627909D01*
X117599600Y-69633500D01*
X118400400Y-69633500D01*
X118403646Y-69633163D01*
X118403650Y-69633163D01*
X118499308Y-69623238D01*
X118499312Y-69623237D01*
X118506166Y-69622526D01*
X118512702Y-69620345D01*
X118512704Y-69620345D01*
X118644806Y-69576272D01*
X118673946Y-69566550D01*
X118824348Y-69473478D01*
X118949305Y-69348303D01*
X118986565Y-69287857D01*
X119038275Y-69203968D01*
X119038276Y-69203966D01*
X119042115Y-69197738D01*
X119085251Y-69067686D01*
X119095632Y-69036389D01*
X119095632Y-69036387D01*
X119097797Y-69029861D01*
X119108500Y-68925400D01*
X119108500Y-67945604D01*
X124412787Y-67945604D01*
X124422567Y-68156899D01*
X124472125Y-68362534D01*
X124474607Y-68367992D01*
X124474608Y-68367996D01*
X124518053Y-68463546D01*
X124559674Y-68555087D01*
X124682054Y-68727611D01*
X124834850Y-68873881D01*
X125012548Y-68988620D01*
X125018114Y-68990863D01*
X125203168Y-69065442D01*
X125203171Y-69065443D01*
X125208737Y-69067686D01*
X125416337Y-69108228D01*
X125421899Y-69108500D01*
X126127846Y-69108500D01*
X126285566Y-69093452D01*
X126488534Y-69033908D01*
X126496392Y-69029861D01*
X126671249Y-68939804D01*
X126671252Y-68939802D01*
X126676580Y-68937058D01*
X126842920Y-68806396D01*
X126846852Y-68801865D01*
X126846855Y-68801862D01*
X126977621Y-68651167D01*
X126981552Y-68646637D01*
X126984552Y-68641451D01*
X126984555Y-68641447D01*
X127084467Y-68468742D01*
X127087473Y-68463546D01*
X127156861Y-68263729D01*
X127187213Y-68054396D01*
X127177433Y-67843101D01*
X127127875Y-67637466D01*
X127100777Y-67577866D01*
X127054320Y-67475692D01*
X127040326Y-67444913D01*
X126917946Y-67272389D01*
X126913619Y-67268247D01*
X126913614Y-67268241D01*
X126822683Y-67181194D01*
X126787306Y-67119639D01*
X126790825Y-67048730D01*
X126832121Y-66990979D01*
X126843504Y-66983035D01*
X126899348Y-66948478D01*
X127024305Y-66823303D01*
X127117115Y-66672738D01*
X127172797Y-66504861D01*
X127183500Y-66400400D01*
X127183500Y-65599600D01*
X127172526Y-65493834D01*
X127116550Y-65326054D01*
X127023478Y-65175652D01*
X126898303Y-65050695D01*
X126892072Y-65046854D01*
X126753968Y-64961725D01*
X126753966Y-64961724D01*
X126747738Y-64957885D01*
X126587254Y-64904655D01*
X126586389Y-64904368D01*
X126586387Y-64904368D01*
X126579861Y-64902203D01*
X126573025Y-64901503D01*
X126573022Y-64901502D01*
X126529969Y-64897091D01*
X126475400Y-64891500D01*
X125124600Y-64891500D01*
X125121354Y-64891837D01*
X125121350Y-64891837D01*
X125025692Y-64901762D01*
X125025688Y-64901763D01*
X125018834Y-64902474D01*
X125012298Y-64904655D01*
X125012296Y-64904655D01*
X124880194Y-64948728D01*
X124851054Y-64958450D01*
X124700652Y-65051522D01*
X124575695Y-65176697D01*
X124482885Y-65327262D01*
X124427203Y-65495139D01*
X124416500Y-65599600D01*
X124416500Y-66400400D01*
X124427474Y-66506166D01*
X124429655Y-66512702D01*
X124429655Y-66512704D01*
X124458115Y-66598008D01*
X124483450Y-66673946D01*
X124576522Y-66824348D01*
X124581704Y-66829521D01*
X124587056Y-66834864D01*
X124701697Y-66949305D01*
X124707927Y-66953145D01*
X124707928Y-66953146D01*
X124753236Y-66981074D01*
X124800729Y-67033846D01*
X124812153Y-67103918D01*
X124783879Y-67169042D01*
X124764955Y-67187418D01*
X124757080Y-67193604D01*
X124753148Y-67198135D01*
X124753145Y-67198138D01*
X124662791Y-67302262D01*
X124618448Y-67353363D01*
X124615448Y-67358549D01*
X124615445Y-67358553D01*
X124551929Y-67468345D01*
X124512527Y-67536454D01*
X124443139Y-67736271D01*
X124442278Y-67742206D01*
X124442278Y-67742208D01*
X124424455Y-67865135D01*
X124412787Y-67945604D01*
X119108500Y-67945604D01*
X119108500Y-67574600D01*
X119097526Y-67468834D01*
X119089546Y-67444913D01*
X119043868Y-67308002D01*
X119041550Y-67301054D01*
X118948478Y-67150652D01*
X118823303Y-67025695D01*
X118817072Y-67021854D01*
X118678968Y-66936725D01*
X118678966Y-66936724D01*
X118672738Y-66932885D01*
X118512254Y-66879655D01*
X118511389Y-66879368D01*
X118511387Y-66879368D01*
X118504861Y-66877203D01*
X118498025Y-66876503D01*
X118498022Y-66876502D01*
X118454969Y-66872091D01*
X118400400Y-66866500D01*
X117599600Y-66866500D01*
X117596354Y-66866837D01*
X117596350Y-66866837D01*
X117500692Y-66876762D01*
X117500688Y-66876763D01*
X117493834Y-66877474D01*
X117487298Y-66879655D01*
X117487296Y-66879655D01*
X117355194Y-66923728D01*
X117326054Y-66933450D01*
X117175652Y-67026522D01*
X117050695Y-67151697D01*
X117046853Y-67157929D01*
X117046852Y-67157931D01*
X117018645Y-67203690D01*
X116965873Y-67251183D01*
X116895801Y-67262605D01*
X116830677Y-67234331D01*
X116812298Y-67215403D01*
X116809738Y-67212144D01*
X116801501Y-67203494D01*
X116650877Y-67072788D01*
X116641153Y-67065853D01*
X116468535Y-66965991D01*
X116457665Y-66961014D01*
X116396115Y-66939640D01*
X116382028Y-66938955D01*
X116379000Y-66944814D01*
X116379000Y-69551724D01*
X115621000Y-69551724D01*
X115621000Y-68647115D01*
X115616525Y-68631876D01*
X115615135Y-68630671D01*
X115607452Y-68629000D01*
X114914998Y-68629000D01*
X114900521Y-68633251D01*
X114898458Y-68645512D01*
X111108500Y-68645512D01*
X111108500Y-67857425D01*
X114894022Y-67857425D01*
X114896656Y-67868347D01*
X114896796Y-67868481D01*
X114907152Y-67871000D01*
X115602885Y-67871000D01*
X115618124Y-67866525D01*
X115619329Y-67865135D01*
X115621000Y-67857452D01*
X115621000Y-66948276D01*
X115617027Y-66934745D01*
X115612385Y-66934078D01*
X115450618Y-67007629D01*
X115440276Y-67013576D01*
X115277603Y-67128968D01*
X115268575Y-67136761D01*
X115130658Y-67280831D01*
X115123262Y-67290196D01*
X115015079Y-67457741D01*
X115009583Y-67468345D01*
X114935039Y-67653312D01*
X114931645Y-67664770D01*
X114894022Y-67857425D01*
X111108500Y-67857425D01*
X111108500Y-67574600D01*
X111097526Y-67468834D01*
X111089546Y-67444913D01*
X111043868Y-67308002D01*
X111041550Y-67301054D01*
X110948478Y-67150652D01*
X110823303Y-67025695D01*
X110817072Y-67021854D01*
X110678968Y-66936725D01*
X110678966Y-66936724D01*
X110672738Y-66932885D01*
X110512254Y-66879655D01*
X110511389Y-66879368D01*
X110511387Y-66879368D01*
X110504861Y-66877203D01*
X110498025Y-66876503D01*
X110498022Y-66876502D01*
X110454969Y-66872091D01*
X110400400Y-66866500D01*
X109599600Y-66866500D01*
X109596354Y-66866837D01*
X109596350Y-66866837D01*
X109500692Y-66876762D01*
X109500688Y-66876763D01*
X109493834Y-66877474D01*
X109487298Y-66879655D01*
X109487296Y-66879655D01*
X109355194Y-66923728D01*
X109326054Y-66933450D01*
X109175652Y-67026522D01*
X109050695Y-67151697D01*
X109046853Y-67157929D01*
X109046852Y-67157931D01*
X109018645Y-67203690D01*
X108965873Y-67251183D01*
X108895801Y-67262605D01*
X108830677Y-67234331D01*
X108812298Y-67215403D01*
X108809738Y-67212144D01*
X108801501Y-67203494D01*
X108650877Y-67072788D01*
X108641153Y-67065853D01*
X108468535Y-66965991D01*
X108457665Y-66961014D01*
X108396115Y-66939640D01*
X108382028Y-66938955D01*
X108379000Y-66944814D01*
X108379000Y-69551724D01*
X107621000Y-69551724D01*
X107621000Y-68647115D01*
X107616525Y-68631876D01*
X107615135Y-68630671D01*
X107607452Y-68629000D01*
X106914998Y-68629000D01*
X106900521Y-68633251D01*
X106898458Y-68645512D01*
X104626483Y-68645512D01*
X104644233Y-68552462D01*
X104663262Y-68250000D01*
X104644233Y-67947538D01*
X104627043Y-67857425D01*
X106894022Y-67857425D01*
X106896656Y-67868347D01*
X106896796Y-67868481D01*
X106907152Y-67871000D01*
X107602885Y-67871000D01*
X107618124Y-67866525D01*
X107619329Y-67865135D01*
X107621000Y-67857452D01*
X107621000Y-66948276D01*
X107617027Y-66934745D01*
X107612385Y-66934078D01*
X107450618Y-67007629D01*
X107440276Y-67013576D01*
X107277603Y-67128968D01*
X107268575Y-67136761D01*
X107130658Y-67280831D01*
X107123262Y-67290196D01*
X107015079Y-67457741D01*
X107009583Y-67468345D01*
X106935039Y-67653312D01*
X106931645Y-67664770D01*
X106894022Y-67857425D01*
X104627043Y-67857425D01*
X104587445Y-67649846D01*
X104493794Y-67361619D01*
X104487778Y-67348833D01*
X104416866Y-67198138D01*
X104364758Y-67087402D01*
X104317907Y-67013576D01*
X104231361Y-66877203D01*
X104202370Y-66831520D01*
X104195573Y-66823303D01*
X104071014Y-66672738D01*
X104009192Y-66598008D01*
X103798760Y-66400400D01*
X103791158Y-66393261D01*
X103791157Y-66393261D01*
X103788271Y-66390550D01*
X103543090Y-66212416D01*
X103277517Y-66066415D01*
X103273848Y-66064962D01*
X103273843Y-66064960D01*
X102999409Y-65956304D01*
X102999408Y-65956304D01*
X102995739Y-65954851D01*
X102702200Y-65879484D01*
X102401530Y-65841500D01*
X102098470Y-65841500D01*
X101797800Y-65879484D01*
X101504261Y-65954851D01*
X101500592Y-65956304D01*
X101500591Y-65956304D01*
X101226157Y-66064960D01*
X101226152Y-66064962D01*
X101222483Y-66066415D01*
X100956910Y-66212416D01*
X100711729Y-66390550D01*
X100708843Y-66393261D01*
X100708842Y-66393261D01*
X100701240Y-66400400D01*
X100490808Y-66598008D01*
X100428986Y-66672738D01*
X100304428Y-66823303D01*
X100297630Y-66831520D01*
X100268639Y-66877203D01*
X100182094Y-67013576D01*
X100135242Y-67087402D01*
X100083134Y-67198138D01*
X100012223Y-67348833D01*
X100006206Y-67361619D01*
X99912555Y-67649846D01*
X99855767Y-67947538D01*
X99836738Y-68250000D01*
X99508500Y-68250000D01*
X99508500Y-63019690D01*
X104326831Y-63019690D01*
X104335547Y-63031213D01*
X104340447Y-63034805D01*
X104348354Y-63039747D01*
X104577905Y-63160519D01*
X104586454Y-63164236D01*
X104831327Y-63249749D01*
X104840336Y-63252163D01*
X105095166Y-63300544D01*
X105104423Y-63301598D01*
X105363607Y-63311783D01*
X105372921Y-63311457D01*
X105630753Y-63283220D01*
X105639930Y-63281519D01*
X105890758Y-63215481D01*
X105899574Y-63212445D01*
X106137880Y-63110062D01*
X106146167Y-63105748D01*
X106271971Y-63027898D01*
X106281387Y-63017398D01*
X106277499Y-63008486D01*
X105317812Y-62048799D01*
X105303868Y-62041185D01*
X105302035Y-62041316D01*
X105295420Y-62045567D01*
X104333489Y-63007498D01*
X104326831Y-63019690D01*
X99508500Y-63019690D01*
X99508500Y-61457211D01*
X103492775Y-61457211D01*
X103505220Y-61716288D01*
X103506356Y-61725543D01*
X103556961Y-61979945D01*
X103559449Y-61988917D01*
X103647095Y-62233033D01*
X103650895Y-62241568D01*
X103773658Y-62470041D01*
X103774701Y-62471679D01*
X103784405Y-62478961D01*
X103796824Y-62472189D01*
X104756201Y-61512812D01*
X104762579Y-61501132D01*
X105846185Y-61501132D01*
X105846316Y-61502965D01*
X105850567Y-61509580D01*
X106810292Y-62469305D01*
X106822672Y-62476065D01*
X106831013Y-62469821D01*
X106895825Y-62369058D01*
X106900279Y-62360855D01*
X107006807Y-62124370D01*
X107009997Y-62115605D01*
X107080402Y-61865972D01*
X107082262Y-61856830D01*
X107115187Y-61598019D01*
X107115668Y-61591733D01*
X107117987Y-61503160D01*
X107117836Y-61496851D01*
X107098501Y-61236663D01*
X107097125Y-61227457D01*
X107039878Y-60974467D01*
X107037154Y-60965556D01*
X106943143Y-60723806D01*
X106939132Y-60715397D01*
X106834091Y-60531613D01*
X106823928Y-60521837D01*
X106816027Y-60524960D01*
X105853799Y-61487188D01*
X105846185Y-61501132D01*
X104762579Y-61501132D01*
X104763815Y-61498868D01*
X104763684Y-61497035D01*
X104759433Y-61490420D01*
X103799167Y-60530154D01*
X103786787Y-60523394D01*
X103779266Y-60529024D01*
X103691965Y-60672891D01*
X103687736Y-60681192D01*
X103587432Y-60920389D01*
X103584471Y-60929239D01*
X103520628Y-61180625D01*
X103519006Y-61189822D01*
X103493020Y-61447885D01*
X103492775Y-61457211D01*
X99508500Y-61457211D01*
X99508500Y-59982684D01*
X104328876Y-59982684D01*
X104333449Y-59992462D01*
X105292188Y-60951201D01*
X105306132Y-60958815D01*
X105307965Y-60958684D01*
X105314580Y-60954433D01*
X105881398Y-60387615D01*
X116734078Y-60387615D01*
X116807629Y-60549382D01*
X116813576Y-60559724D01*
X116928968Y-60722397D01*
X116936761Y-60731425D01*
X117080831Y-60869342D01*
X117090196Y-60876738D01*
X117257741Y-60984921D01*
X117268345Y-60990417D01*
X117453312Y-61064961D01*
X117464770Y-61068355D01*
X117657425Y-61105978D01*
X117668347Y-61103344D01*
X117668481Y-61103204D01*
X117671000Y-61092848D01*
X117671000Y-61085002D01*
X118429000Y-61085002D01*
X118433251Y-61099479D01*
X118445512Y-61101542D01*
X118529494Y-61093529D01*
X118541228Y-61091270D01*
X118732599Y-61035128D01*
X118743675Y-61030698D01*
X118920978Y-60939381D01*
X118931024Y-60932931D01*
X119087857Y-60809738D01*
X119096506Y-60801501D01*
X119227212Y-60650877D01*
X119234147Y-60641153D01*
X119334009Y-60468535D01*
X119338986Y-60457665D01*
X119360360Y-60396115D01*
X119361045Y-60382028D01*
X119355186Y-60379000D01*
X118447115Y-60379000D01*
X118431876Y-60383475D01*
X118430671Y-60384865D01*
X118429000Y-60392548D01*
X118429000Y-61085002D01*
X117671000Y-61085002D01*
X117671000Y-60397115D01*
X117666525Y-60381876D01*
X117665135Y-60380671D01*
X117657452Y-60379000D01*
X116748276Y-60379000D01*
X116734745Y-60382973D01*
X116734078Y-60387615D01*
X105881398Y-60387615D01*
X106274977Y-59994036D01*
X106281361Y-59982346D01*
X106271949Y-59970235D01*
X106229045Y-59940471D01*
X106221010Y-59935738D01*
X105988376Y-59821016D01*
X105979743Y-59817528D01*
X105732703Y-59738450D01*
X105723643Y-59736274D01*
X105467630Y-59694580D01*
X105458343Y-59693768D01*
X105198992Y-59690373D01*
X105189681Y-59690943D01*
X104932682Y-59725919D01*
X104923546Y-59727860D01*
X104674543Y-59800439D01*
X104665800Y-59803707D01*
X104430252Y-59912296D01*
X104422096Y-59916816D01*
X104338012Y-59971944D01*
X104328876Y-59982684D01*
X99508500Y-59982684D01*
X99508500Y-58400400D01*
X116666500Y-58400400D01*
X116677474Y-58506166D01*
X116733450Y-58673946D01*
X116826522Y-58824348D01*
X116951697Y-58949305D01*
X116957929Y-58953147D01*
X116957931Y-58953148D01*
X117003690Y-58981355D01*
X117051183Y-59034127D01*
X117062605Y-59104199D01*
X117034331Y-59169323D01*
X117015403Y-59187702D01*
X117012144Y-59190262D01*
X117003494Y-59198499D01*
X116872788Y-59349123D01*
X116865853Y-59358847D01*
X116765991Y-59531465D01*
X116761014Y-59542335D01*
X116739640Y-59603885D01*
X116738955Y-59617972D01*
X116744814Y-59621000D01*
X119351724Y-59621000D01*
X119365255Y-59617027D01*
X119365922Y-59612385D01*
X119292371Y-59450618D01*
X119286424Y-59440276D01*
X119171032Y-59277603D01*
X119163239Y-59268575D01*
X119072243Y-59181465D01*
X119036867Y-59119910D01*
X119040386Y-59049000D01*
X119075426Y-59000000D01*
X123086738Y-59000000D01*
X123105767Y-59302462D01*
X123162555Y-59600154D01*
X123256206Y-59888381D01*
X123257893Y-59891967D01*
X123257895Y-59891971D01*
X123305923Y-59994036D01*
X123385242Y-60162598D01*
X123547630Y-60418480D01*
X123550149Y-60421525D01*
X123550152Y-60421529D01*
X123589039Y-60468535D01*
X123740808Y-60651992D01*
X123961729Y-60859450D01*
X124206910Y-61037584D01*
X124210379Y-61039491D01*
X124210382Y-61039493D01*
X124326526Y-61103344D01*
X124472483Y-61183585D01*
X124476152Y-61185038D01*
X124476157Y-61185040D01*
X124606542Y-61236663D01*
X124754261Y-61295149D01*
X125047800Y-61370516D01*
X125348470Y-61408500D01*
X125651530Y-61408500D01*
X125952200Y-61370516D01*
X126245739Y-61295149D01*
X126393458Y-61236663D01*
X126523843Y-61185040D01*
X126523848Y-61185038D01*
X126527517Y-61183585D01*
X126673474Y-61103344D01*
X126789618Y-61039493D01*
X126789621Y-61039491D01*
X126793090Y-61037584D01*
X127038271Y-60859450D01*
X127259192Y-60651992D01*
X127410961Y-60468535D01*
X127449848Y-60421529D01*
X127449851Y-60421525D01*
X127452370Y-60418480D01*
X127614758Y-60162598D01*
X127694077Y-59994036D01*
X127742105Y-59891971D01*
X127742107Y-59891967D01*
X127743794Y-59888381D01*
X127837445Y-59600154D01*
X127894233Y-59302462D01*
X127913262Y-59000000D01*
X127894233Y-58697538D01*
X127837445Y-58399846D01*
X127743794Y-58111619D01*
X127716630Y-58053891D01*
X127652550Y-57917715D01*
X127614758Y-57837402D01*
X127452370Y-57581520D01*
X127259192Y-57348008D01*
X127038271Y-57140550D01*
X126793090Y-56962416D01*
X126784849Y-56957885D01*
X126530986Y-56818322D01*
X126530985Y-56818321D01*
X126527517Y-56816415D01*
X126523848Y-56814962D01*
X126523843Y-56814960D01*
X126249409Y-56706304D01*
X126249408Y-56706304D01*
X126245739Y-56704851D01*
X125952200Y-56629484D01*
X125651530Y-56591500D01*
X125348470Y-56591500D01*
X125047800Y-56629484D01*
X124754261Y-56704851D01*
X124750592Y-56706304D01*
X124750591Y-56706304D01*
X124476157Y-56814960D01*
X124476152Y-56814962D01*
X124472483Y-56816415D01*
X124469015Y-56818321D01*
X124469014Y-56818322D01*
X124215152Y-56957885D01*
X124206910Y-56962416D01*
X123961729Y-57140550D01*
X123740808Y-57348008D01*
X123547630Y-57581520D01*
X123385242Y-57837402D01*
X123347450Y-57917715D01*
X123283371Y-58053891D01*
X123256206Y-58111619D01*
X123162555Y-58399846D01*
X123105767Y-58697538D01*
X123086738Y-59000000D01*
X119075426Y-59000000D01*
X119081683Y-58991250D01*
X119093053Y-58983315D01*
X119149348Y-58948478D01*
X119274305Y-58823303D01*
X119367115Y-58672738D01*
X119422797Y-58504861D01*
X119433500Y-58400400D01*
X119433500Y-57599600D01*
X119422526Y-57493834D01*
X119366550Y-57326054D01*
X119273478Y-57175652D01*
X119241031Y-57143261D01*
X119153483Y-57055866D01*
X119148303Y-57050695D01*
X119005089Y-56962416D01*
X119003968Y-56961725D01*
X119003966Y-56961724D01*
X118997738Y-56957885D01*
X118837254Y-56904655D01*
X118836389Y-56904368D01*
X118836387Y-56904368D01*
X118829861Y-56902203D01*
X118823025Y-56901503D01*
X118823022Y-56901502D01*
X118779969Y-56897091D01*
X118725400Y-56891500D01*
X117374600Y-56891500D01*
X117371354Y-56891837D01*
X117371350Y-56891837D01*
X117275692Y-56901762D01*
X117275688Y-56901763D01*
X117268834Y-56902474D01*
X117262298Y-56904655D01*
X117262296Y-56904655D01*
X117130194Y-56948728D01*
X117101054Y-56958450D01*
X116950652Y-57051522D01*
X116825695Y-57176697D01*
X116732885Y-57327262D01*
X116677203Y-57495139D01*
X116666500Y-57599600D01*
X116666500Y-58400400D01*
X99508500Y-58400400D01*
X99508500Y-57848134D01*
X103496500Y-57848134D01*
X103503255Y-57910316D01*
X103554385Y-58046705D01*
X103641739Y-58163261D01*
X103758295Y-58250615D01*
X103894684Y-58301745D01*
X103956866Y-58308500D01*
X106653134Y-58308500D01*
X106715316Y-58301745D01*
X106851705Y-58250615D01*
X106968261Y-58163261D01*
X107055615Y-58046705D01*
X107106745Y-57910316D01*
X107113500Y-57848134D01*
X107113500Y-55151866D01*
X107106745Y-55089684D01*
X107055615Y-54953295D01*
X106968261Y-54836739D01*
X106851705Y-54749385D01*
X106715316Y-54698255D01*
X106653134Y-54691500D01*
X103956866Y-54691500D01*
X103894684Y-54698255D01*
X103758295Y-54749385D01*
X103641739Y-54836739D01*
X103554385Y-54953295D01*
X103503255Y-55089684D01*
X103496500Y-55151866D01*
X103496500Y-57848134D01*
X99508500Y-57848134D01*
X99508500Y-52387615D01*
X124484078Y-52387615D01*
X124557629Y-52549382D01*
X124563576Y-52559724D01*
X124678968Y-52722397D01*
X124686761Y-52731425D01*
X124830831Y-52869342D01*
X124840196Y-52876738D01*
X125007741Y-52984921D01*
X125018345Y-52990417D01*
X125203312Y-53064961D01*
X125214770Y-53068355D01*
X125407425Y-53105978D01*
X125418347Y-53103344D01*
X125418481Y-53103204D01*
X125421000Y-53092848D01*
X125421000Y-53085002D01*
X126179000Y-53085002D01*
X126183251Y-53099479D01*
X126195512Y-53101542D01*
X126279494Y-53093529D01*
X126291228Y-53091270D01*
X126482599Y-53035128D01*
X126493675Y-53030698D01*
X126670978Y-52939381D01*
X126681024Y-52932931D01*
X126837857Y-52809738D01*
X126846506Y-52801501D01*
X126977212Y-52650877D01*
X126984147Y-52641153D01*
X127084009Y-52468535D01*
X127088986Y-52457665D01*
X127110360Y-52396115D01*
X127111045Y-52382028D01*
X127105186Y-52379000D01*
X126197115Y-52379000D01*
X126181876Y-52383475D01*
X126180671Y-52384865D01*
X126179000Y-52392548D01*
X126179000Y-53085002D01*
X125421000Y-53085002D01*
X125421000Y-52397115D01*
X125416525Y-52381876D01*
X125415135Y-52380671D01*
X125407452Y-52379000D01*
X124498276Y-52379000D01*
X124484745Y-52382973D01*
X124484078Y-52387615D01*
X99508500Y-52387615D01*
X99508500Y-49750000D01*
X99836738Y-49750000D01*
X99855767Y-50052462D01*
X99912555Y-50350154D01*
X100006206Y-50638381D01*
X100007893Y-50641967D01*
X100007895Y-50641971D01*
X100025873Y-50680176D01*
X100135242Y-50912598D01*
X100137366Y-50915944D01*
X100137366Y-50915945D01*
X100145109Y-50928146D01*
X100297630Y-51168480D01*
X100300149Y-51171525D01*
X100300152Y-51171529D01*
X100322464Y-51198499D01*
X100490808Y-51401992D01*
X100711729Y-51609450D01*
X100714931Y-51611777D01*
X100714933Y-51611778D01*
X100727626Y-51621000D01*
X100956910Y-51787584D01*
X101222483Y-51933585D01*
X101226152Y-51935038D01*
X101226157Y-51935040D01*
X101500591Y-52043696D01*
X101504261Y-52045149D01*
X101797800Y-52120516D01*
X102098470Y-52158500D01*
X102401530Y-52158500D01*
X102702200Y-52120516D01*
X102995739Y-52045149D01*
X102999409Y-52043696D01*
X103273843Y-51935040D01*
X103273848Y-51935038D01*
X103277517Y-51933585D01*
X103543090Y-51787584D01*
X103772374Y-51621000D01*
X103785067Y-51611778D01*
X103785069Y-51611777D01*
X103788271Y-51609450D01*
X104009192Y-51401992D01*
X104177536Y-51198499D01*
X104199848Y-51171529D01*
X104199851Y-51171525D01*
X104202370Y-51168480D01*
X104354891Y-50928146D01*
X104362634Y-50915945D01*
X104362634Y-50915944D01*
X104364758Y-50912598D01*
X104474127Y-50680176D01*
X104492105Y-50641971D01*
X104492107Y-50641967D01*
X104493794Y-50638381D01*
X104579242Y-50375400D01*
X106891500Y-50375400D01*
X106891837Y-50378646D01*
X106891837Y-50378650D01*
X106894426Y-50403598D01*
X106902474Y-50481166D01*
X106904655Y-50487702D01*
X106904655Y-50487704D01*
X106912557Y-50511389D01*
X106958450Y-50648946D01*
X107051522Y-50799348D01*
X107176697Y-50924305D01*
X107182927Y-50928145D01*
X107182928Y-50928146D01*
X107320090Y-51012694D01*
X107327262Y-51017115D01*
X107378552Y-51034127D01*
X107488611Y-51070632D01*
X107488613Y-51070632D01*
X107495139Y-51072797D01*
X107501975Y-51073497D01*
X107501978Y-51073498D01*
X107545031Y-51077909D01*
X107599600Y-51083500D01*
X108400400Y-51083500D01*
X108403646Y-51083163D01*
X108403650Y-51083163D01*
X108499308Y-51073238D01*
X108499312Y-51073237D01*
X108506166Y-51072526D01*
X108512702Y-51070345D01*
X108512704Y-51070345D01*
X108644806Y-51026272D01*
X108673946Y-51016550D01*
X108824348Y-50923478D01*
X108949305Y-50798303D01*
X108953148Y-50792069D01*
X108981355Y-50746310D01*
X109034127Y-50698817D01*
X109104199Y-50687395D01*
X109169323Y-50715669D01*
X109187702Y-50734597D01*
X109190262Y-50737856D01*
X109198499Y-50746506D01*
X109349123Y-50877212D01*
X109358847Y-50884147D01*
X109531465Y-50984009D01*
X109542335Y-50988986D01*
X109603885Y-51010360D01*
X109617972Y-51011045D01*
X109621000Y-51005186D01*
X109621000Y-51001724D01*
X110379000Y-51001724D01*
X110382973Y-51015255D01*
X110387615Y-51015922D01*
X110549382Y-50942371D01*
X110559724Y-50936424D01*
X110722397Y-50821032D01*
X110731425Y-50813239D01*
X110869342Y-50669169D01*
X110876738Y-50659804D01*
X110984921Y-50492259D01*
X110990417Y-50481655D01*
X111033239Y-50375400D01*
X114891500Y-50375400D01*
X114891837Y-50378646D01*
X114891837Y-50378650D01*
X114894426Y-50403598D01*
X114902474Y-50481166D01*
X114904655Y-50487702D01*
X114904655Y-50487704D01*
X114912557Y-50511389D01*
X114958450Y-50648946D01*
X115051522Y-50799348D01*
X115176697Y-50924305D01*
X115182927Y-50928145D01*
X115182928Y-50928146D01*
X115320090Y-51012694D01*
X115327262Y-51017115D01*
X115378552Y-51034127D01*
X115488611Y-51070632D01*
X115488613Y-51070632D01*
X115495139Y-51072797D01*
X115501975Y-51073497D01*
X115501978Y-51073498D01*
X115545031Y-51077909D01*
X115599600Y-51083500D01*
X116400400Y-51083500D01*
X116403646Y-51083163D01*
X116403650Y-51083163D01*
X116499308Y-51073238D01*
X116499312Y-51073237D01*
X116506166Y-51072526D01*
X116512702Y-51070345D01*
X116512704Y-51070345D01*
X116644806Y-51026272D01*
X116673946Y-51016550D01*
X116824348Y-50923478D01*
X116949305Y-50798303D01*
X116953148Y-50792069D01*
X116981355Y-50746310D01*
X117034127Y-50698817D01*
X117104199Y-50687395D01*
X117169323Y-50715669D01*
X117187702Y-50734597D01*
X117190262Y-50737856D01*
X117198499Y-50746506D01*
X117349123Y-50877212D01*
X117358847Y-50884147D01*
X117531465Y-50984009D01*
X117542335Y-50988986D01*
X117603885Y-51010360D01*
X117617972Y-51011045D01*
X117621000Y-51005186D01*
X117621000Y-51001724D01*
X118379000Y-51001724D01*
X118382973Y-51015255D01*
X118387615Y-51015922D01*
X118549382Y-50942371D01*
X118559724Y-50936424D01*
X118722397Y-50821032D01*
X118731425Y-50813239D01*
X118869342Y-50669169D01*
X118876738Y-50659804D01*
X118984921Y-50492259D01*
X118990417Y-50481655D01*
X119023164Y-50400400D01*
X124416500Y-50400400D01*
X124416837Y-50403646D01*
X124416837Y-50403650D01*
X124424931Y-50481655D01*
X124427474Y-50506166D01*
X124483450Y-50673946D01*
X124576522Y-50824348D01*
X124701697Y-50949305D01*
X124707929Y-50953147D01*
X124707931Y-50953148D01*
X124753690Y-50981355D01*
X124801183Y-51034127D01*
X124812605Y-51104199D01*
X124784331Y-51169323D01*
X124765403Y-51187702D01*
X124762144Y-51190262D01*
X124753494Y-51198499D01*
X124622788Y-51349123D01*
X124615853Y-51358847D01*
X124515991Y-51531465D01*
X124511014Y-51542335D01*
X124489640Y-51603885D01*
X124488955Y-51617972D01*
X124494814Y-51621000D01*
X127101724Y-51621000D01*
X127115255Y-51617027D01*
X127115922Y-51612385D01*
X127042371Y-51450618D01*
X127036424Y-51440276D01*
X126921032Y-51277603D01*
X126913239Y-51268575D01*
X126822243Y-51181465D01*
X126786867Y-51119910D01*
X126790386Y-51049000D01*
X126831683Y-50991250D01*
X126843053Y-50983315D01*
X126899348Y-50948478D01*
X127024305Y-50823303D01*
X127030509Y-50813239D01*
X127113275Y-50678968D01*
X127113276Y-50678966D01*
X127117115Y-50672738D01*
X127172797Y-50504861D01*
X127175359Y-50479861D01*
X127183172Y-50403598D01*
X127183500Y-50400400D01*
X127183500Y-49599600D01*
X127172526Y-49493834D01*
X127157081Y-49447538D01*
X127118868Y-49333002D01*
X127116550Y-49326054D01*
X127023478Y-49175652D01*
X126898303Y-49050695D01*
X126861188Y-49027817D01*
X126753968Y-48961725D01*
X126753966Y-48961724D01*
X126747738Y-48957885D01*
X126633937Y-48920139D01*
X126586389Y-48904368D01*
X126586387Y-48904368D01*
X126579861Y-48902203D01*
X126573025Y-48901503D01*
X126573022Y-48901502D01*
X126529969Y-48897091D01*
X126475400Y-48891500D01*
X125124600Y-48891500D01*
X125121354Y-48891837D01*
X125121350Y-48891837D01*
X125025692Y-48901762D01*
X125025688Y-48901763D01*
X125018834Y-48902474D01*
X125012298Y-48904655D01*
X125012296Y-48904655D01*
X124880194Y-48948728D01*
X124851054Y-48958450D01*
X124700652Y-49051522D01*
X124575695Y-49176697D01*
X124571855Y-49182927D01*
X124571854Y-49182928D01*
X124548691Y-49220506D01*
X124482885Y-49327262D01*
X124427203Y-49495139D01*
X124416500Y-49599600D01*
X124416500Y-50400400D01*
X119023164Y-50400400D01*
X119064961Y-50296688D01*
X119068355Y-50285230D01*
X119105978Y-50092575D01*
X119103344Y-50081653D01*
X119103204Y-50081519D01*
X119092848Y-50079000D01*
X118397115Y-50079000D01*
X118381876Y-50083475D01*
X118380671Y-50084865D01*
X118379000Y-50092548D01*
X118379000Y-51001724D01*
X117621000Y-51001724D01*
X117621000Y-49302885D01*
X118379000Y-49302885D01*
X118383475Y-49318124D01*
X118384865Y-49319329D01*
X118392548Y-49321000D01*
X119085002Y-49321000D01*
X119099479Y-49316749D01*
X119101542Y-49304488D01*
X119093529Y-49220506D01*
X119091270Y-49208772D01*
X119035128Y-49017401D01*
X119030698Y-49006325D01*
X118939381Y-48829022D01*
X118932931Y-48818976D01*
X118809738Y-48662143D01*
X118801501Y-48653494D01*
X118650877Y-48522788D01*
X118641153Y-48515853D01*
X118468535Y-48415991D01*
X118457665Y-48411014D01*
X118396115Y-48389640D01*
X118382028Y-48388955D01*
X118379000Y-48394814D01*
X118379000Y-49302885D01*
X117621000Y-49302885D01*
X117621000Y-48398276D01*
X117617027Y-48384745D01*
X117612385Y-48384078D01*
X117450618Y-48457629D01*
X117440276Y-48463576D01*
X117277603Y-48578968D01*
X117268575Y-48586761D01*
X117181465Y-48677757D01*
X117119910Y-48713133D01*
X117049000Y-48709614D01*
X116991250Y-48668317D01*
X116983315Y-48656947D01*
X116948478Y-48600652D01*
X116823303Y-48475695D01*
X116817072Y-48471854D01*
X116678968Y-48386725D01*
X116678966Y-48386724D01*
X116672738Y-48382885D01*
X116592995Y-48356436D01*
X116511389Y-48329368D01*
X116511387Y-48329368D01*
X116504861Y-48327203D01*
X116498025Y-48326503D01*
X116498022Y-48326502D01*
X116454969Y-48322091D01*
X116400400Y-48316500D01*
X115599600Y-48316500D01*
X115596354Y-48316837D01*
X115596350Y-48316837D01*
X115500692Y-48326762D01*
X115500688Y-48326763D01*
X115493834Y-48327474D01*
X115487298Y-48329655D01*
X115487296Y-48329655D01*
X115355194Y-48373728D01*
X115326054Y-48383450D01*
X115175652Y-48476522D01*
X115050695Y-48601697D01*
X115046855Y-48607927D01*
X115046854Y-48607928D01*
X114982005Y-48713133D01*
X114957885Y-48752262D01*
X114955581Y-48759209D01*
X114908385Y-48901502D01*
X114902203Y-48920139D01*
X114901503Y-48926975D01*
X114901502Y-48926978D01*
X114898278Y-48958450D01*
X114891500Y-49024600D01*
X114891500Y-50375400D01*
X111033239Y-50375400D01*
X111064961Y-50296688D01*
X111068355Y-50285230D01*
X111105978Y-50092575D01*
X111103344Y-50081653D01*
X111103204Y-50081519D01*
X111092848Y-50079000D01*
X110397115Y-50079000D01*
X110381876Y-50083475D01*
X110380671Y-50084865D01*
X110379000Y-50092548D01*
X110379000Y-51001724D01*
X109621000Y-51001724D01*
X109621000Y-49302885D01*
X110379000Y-49302885D01*
X110383475Y-49318124D01*
X110384865Y-49319329D01*
X110392548Y-49321000D01*
X111085002Y-49321000D01*
X111099479Y-49316749D01*
X111101542Y-49304488D01*
X111093529Y-49220506D01*
X111091270Y-49208772D01*
X111035128Y-49017401D01*
X111030698Y-49006325D01*
X110939381Y-48829022D01*
X110932931Y-48818976D01*
X110809738Y-48662143D01*
X110801501Y-48653494D01*
X110650877Y-48522788D01*
X110641153Y-48515853D01*
X110468535Y-48415991D01*
X110457665Y-48411014D01*
X110396115Y-48389640D01*
X110382028Y-48388955D01*
X110379000Y-48394814D01*
X110379000Y-49302885D01*
X109621000Y-49302885D01*
X109621000Y-48398276D01*
X109617027Y-48384745D01*
X109612385Y-48384078D01*
X109450618Y-48457629D01*
X109440276Y-48463576D01*
X109277603Y-48578968D01*
X109268575Y-48586761D01*
X109181465Y-48677757D01*
X109119910Y-48713133D01*
X109049000Y-48709614D01*
X108991250Y-48668317D01*
X108983315Y-48656947D01*
X108948478Y-48600652D01*
X108823303Y-48475695D01*
X108817072Y-48471854D01*
X108678968Y-48386725D01*
X108678966Y-48386724D01*
X108672738Y-48382885D01*
X108592995Y-48356436D01*
X108511389Y-48329368D01*
X108511387Y-48329368D01*
X108504861Y-48327203D01*
X108498025Y-48326503D01*
X108498022Y-48326502D01*
X108454969Y-48322091D01*
X108400400Y-48316500D01*
X107599600Y-48316500D01*
X107596354Y-48316837D01*
X107596350Y-48316837D01*
X107500692Y-48326762D01*
X107500688Y-48326763D01*
X107493834Y-48327474D01*
X107487298Y-48329655D01*
X107487296Y-48329655D01*
X107355194Y-48373728D01*
X107326054Y-48383450D01*
X107175652Y-48476522D01*
X107050695Y-48601697D01*
X107046855Y-48607927D01*
X107046854Y-48607928D01*
X106982005Y-48713133D01*
X106957885Y-48752262D01*
X106955581Y-48759209D01*
X106908385Y-48901502D01*
X106902203Y-48920139D01*
X106901503Y-48926975D01*
X106901502Y-48926978D01*
X106898278Y-48958450D01*
X106891500Y-49024600D01*
X106891500Y-50375400D01*
X104579242Y-50375400D01*
X104587445Y-50350154D01*
X104644233Y-50052462D01*
X104663262Y-49750000D01*
X104644233Y-49447538D01*
X104587445Y-49149846D01*
X104506753Y-48901502D01*
X104495020Y-48865392D01*
X104495020Y-48865391D01*
X104493794Y-48861619D01*
X104364758Y-48587402D01*
X104202370Y-48331520D01*
X104189945Y-48316500D01*
X104143930Y-48260879D01*
X104009192Y-48098008D01*
X103788271Y-47890550D01*
X103543090Y-47712416D01*
X103277517Y-47566415D01*
X103273848Y-47564962D01*
X103273843Y-47564960D01*
X102999409Y-47456304D01*
X102999408Y-47456304D01*
X102995739Y-47454851D01*
X102702200Y-47379484D01*
X102401530Y-47341500D01*
X102098470Y-47341500D01*
X101797800Y-47379484D01*
X101504261Y-47454851D01*
X101500592Y-47456304D01*
X101500591Y-47456304D01*
X101226157Y-47564960D01*
X101226152Y-47564962D01*
X101222483Y-47566415D01*
X100956910Y-47712416D01*
X100711729Y-47890550D01*
X100490808Y-48098008D01*
X100356070Y-48260879D01*
X100310056Y-48316500D01*
X100297630Y-48331520D01*
X100135242Y-48587402D01*
X100006206Y-48861619D01*
X100004980Y-48865391D01*
X100004980Y-48865392D01*
X99993247Y-48901502D01*
X99912555Y-49149846D01*
X99855767Y-49447538D01*
X99836738Y-49750000D01*
X99508500Y-49750000D01*
X99508500Y-47134500D01*
X99528502Y-47066379D01*
X99582158Y-47019886D01*
X99634500Y-47008500D01*
X128365500Y-47008500D01*
X128433621Y-47028502D01*
G37*
%TD.AperFunction*%
%TD*%
M02*
