%TF.GenerationSoftware,KiCad,Pcbnew,(6.0.4-0)*%
%TF.CreationDate,2022-05-13T17:31:48+02:00*%
%TF.ProjectId,vcc_distributor,7663635f-6469-4737-9472-696275746f72,rev?*%
%TF.SameCoordinates,Original*%
%TF.FileFunction,Copper,L2,Bot*%
%TF.FilePolarity,Positive*%
%FSLAX46Y46*%
G04 Gerber Fmt 4.6, Leading zero omitted, Abs format (unit mm)*
G04 Created by KiCad (PCBNEW (6.0.4-0)) date 2022-05-13 17:31:48*
%MOMM*%
%LPD*%
G01*
G04 APERTURE LIST*
G04 Aperture macros list*
%AMRoundRect*
0 Rectangle with rounded corners*
0 $1 Rounding radius*
0 $2 $3 $4 $5 $6 $7 $8 $9 X,Y pos of 4 corners*
0 Add a 4 corners polygon primitive as box body*
4,1,4,$2,$3,$4,$5,$6,$7,$8,$9,$2,$3,0*
0 Add four circle primitives for the rounded corners*
1,1,$1+$1,$2,$3*
1,1,$1+$1,$4,$5*
1,1,$1+$1,$6,$7*
1,1,$1+$1,$8,$9*
0 Add four rect primitives between the rounded corners*
20,1,$1+$1,$2,$3,$4,$5,0*
20,1,$1+$1,$4,$5,$6,$7,0*
20,1,$1+$1,$6,$7,$8,$9,0*
20,1,$1+$1,$8,$9,$2,$3,0*%
G04 Aperture macros list end*
%TA.AperFunction,ComponentPad*%
%ADD10RoundRect,0.250000X0.350000X0.625000X-0.350000X0.625000X-0.350000X-0.625000X0.350000X-0.625000X0*%
%TD*%
%TA.AperFunction,ComponentPad*%
%ADD11O,1.200000X1.750000*%
%TD*%
%TA.AperFunction,ComponentPad*%
%ADD12RoundRect,0.250000X-0.350000X-0.625000X0.350000X-0.625000X0.350000X0.625000X-0.350000X0.625000X0*%
%TD*%
%TA.AperFunction,ComponentPad*%
%ADD13C,2.600000*%
%TD*%
%TA.AperFunction,ConnectorPad*%
%ADD14C,3.800000*%
%TD*%
%TA.AperFunction,ComponentPad*%
%ADD15RoundRect,0.250000X-0.625000X0.350000X-0.625000X-0.350000X0.625000X-0.350000X0.625000X0.350000X0*%
%TD*%
%TA.AperFunction,ComponentPad*%
%ADD16O,1.750000X1.200000*%
%TD*%
%TA.AperFunction,ComponentPad*%
%ADD17R,2.600000X2.600000*%
%TD*%
G04 APERTURE END LIST*
D10*
%TO.P,J3,1,Pin_1*%
%TO.N,GND*%
X110000000Y-68250000D03*
D11*
%TO.P,J3,2,Pin_2*%
%TO.N,+5V*%
X108000000Y-68250000D03*
%TD*%
D12*
%TO.P,J2,1,Pin_1*%
%TO.N,GND*%
X108000000Y-49700000D03*
D11*
%TO.P,J2,2,Pin_2*%
%TO.N,+5V*%
X110000000Y-49700000D03*
%TD*%
D13*
%TO.P,REF\u002A\u002A,1*%
%TO.N,N/C*%
X125500000Y-59000000D03*
D14*
X125500000Y-59000000D03*
%TD*%
%TO.P,REF\u002A\u002A,1*%
%TO.N,N/C*%
X102250000Y-68250000D03*
D13*
X102250000Y-68250000D03*
%TD*%
%TO.P,REF\u002A\u002A,1*%
%TO.N,N/C*%
X102250000Y-49750000D03*
D14*
X102250000Y-49750000D03*
%TD*%
D15*
%TO.P,J6,1,Pin_1*%
%TO.N,GND*%
X118050000Y-58000000D03*
D16*
%TO.P,J6,2,Pin_2*%
%TO.N,+5V*%
X118050000Y-60000000D03*
%TD*%
D12*
%TO.P,J4,1,Pin_1*%
%TO.N,GND*%
X116000000Y-49700000D03*
D11*
%TO.P,J4,2,Pin_2*%
%TO.N,+5V*%
X118000000Y-49700000D03*
%TD*%
D15*
%TO.P,J8,1,Pin_1*%
%TO.N,GND*%
X125800000Y-50000000D03*
D16*
%TO.P,J8,2,Pin_2*%
%TO.N,+5V*%
X125800000Y-52000000D03*
%TD*%
D15*
%TO.P,J7,1,Pin_1*%
%TO.N,GND*%
X125800000Y-66000000D03*
D16*
%TO.P,J7,2,Pin_2*%
%TO.N,unconnected-(J7-Pad2)*%
X125800000Y-68000000D03*
%TD*%
D10*
%TO.P,J5,1,Pin_1*%
%TO.N,GND*%
X118000000Y-68250000D03*
D11*
%TO.P,J5,2,Pin_2*%
%TO.N,+5V*%
X116000000Y-68250000D03*
%TD*%
D17*
%TO.P,J1,1,Pin_1*%
%TO.N,GND*%
X105305000Y-56500000D03*
D13*
%TO.P,J1,2,Pin_2*%
%TO.N,+5V*%
X105305000Y-61500000D03*
%TD*%
%TA.AperFunction,Conductor*%
%TO.N,GND*%
G36*
X128433621Y-47028502D02*
G01*
X128480114Y-47082158D01*
X128491500Y-47134500D01*
X128491500Y-70865500D01*
X128471498Y-70933621D01*
X128417842Y-70980114D01*
X128365500Y-70991500D01*
X99634500Y-70991500D01*
X99566379Y-70971498D01*
X99519886Y-70917842D01*
X99508500Y-70865500D01*
X99508500Y-68250000D01*
X99836738Y-68250000D01*
X99855767Y-68552462D01*
X99912555Y-68850154D01*
X100006206Y-69138381D01*
X100007893Y-69141967D01*
X100007895Y-69141971D01*
X100052581Y-69236933D01*
X100135242Y-69412598D01*
X100297630Y-69668480D01*
X100490808Y-69901992D01*
X100711729Y-70109450D01*
X100956910Y-70287584D01*
X101222483Y-70433585D01*
X101226152Y-70435038D01*
X101226157Y-70435040D01*
X101500591Y-70543696D01*
X101504261Y-70545149D01*
X101797800Y-70620516D01*
X102098470Y-70658500D01*
X102401530Y-70658500D01*
X102702200Y-70620516D01*
X102995739Y-70545149D01*
X102999409Y-70543696D01*
X103273843Y-70435040D01*
X103273848Y-70435038D01*
X103277517Y-70433585D01*
X103543090Y-70287584D01*
X103788271Y-70109450D01*
X104009192Y-69901992D01*
X104202370Y-69668480D01*
X104364758Y-69412598D01*
X104447419Y-69236933D01*
X104492105Y-69141971D01*
X104492107Y-69141967D01*
X104493794Y-69138381D01*
X104587445Y-68850154D01*
X104639391Y-68577846D01*
X106891500Y-68577846D01*
X106906548Y-68735566D01*
X106966092Y-68938534D01*
X106968836Y-68943861D01*
X106968836Y-68943862D01*
X107053042Y-69107357D01*
X107062942Y-69126580D01*
X107193604Y-69292920D01*
X107198135Y-69296852D01*
X107198138Y-69296855D01*
X107284058Y-69371412D01*
X107353363Y-69431552D01*
X107358549Y-69434552D01*
X107358553Y-69434555D01*
X107454957Y-69490326D01*
X107536454Y-69537473D01*
X107736271Y-69606861D01*
X107742206Y-69607722D01*
X107742208Y-69607722D01*
X107939664Y-69636352D01*
X107939667Y-69636352D01*
X107945604Y-69637213D01*
X108156899Y-69627433D01*
X108288077Y-69595819D01*
X108356701Y-69579281D01*
X108356703Y-69579280D01*
X108362534Y-69577875D01*
X108367992Y-69575393D01*
X108367996Y-69575392D01*
X108483041Y-69523084D01*
X108555087Y-69490326D01*
X108727611Y-69367946D01*
X108731749Y-69363623D01*
X108731754Y-69363619D01*
X108819164Y-69272309D01*
X108880720Y-69236933D01*
X108951629Y-69240452D01*
X109009379Y-69281749D01*
X109017326Y-69293137D01*
X109048063Y-69342807D01*
X109057099Y-69354208D01*
X109171829Y-69468739D01*
X109183240Y-69477751D01*
X109321243Y-69562816D01*
X109334424Y-69568963D01*
X109488710Y-69620138D01*
X109502086Y-69623005D01*
X109596438Y-69632672D01*
X109602854Y-69633000D01*
X109602885Y-69633000D01*
X109618124Y-69628525D01*
X109619329Y-69627135D01*
X109621000Y-69619452D01*
X109621000Y-69614884D01*
X110379000Y-69614884D01*
X110383475Y-69630123D01*
X110384865Y-69631328D01*
X110392548Y-69632999D01*
X110397095Y-69632999D01*
X110403614Y-69632662D01*
X110499206Y-69622743D01*
X110512600Y-69619851D01*
X110666784Y-69568412D01*
X110679962Y-69562239D01*
X110817807Y-69476937D01*
X110829208Y-69467901D01*
X110943739Y-69353171D01*
X110952751Y-69341760D01*
X111037816Y-69203757D01*
X111043963Y-69190576D01*
X111095138Y-69036290D01*
X111098005Y-69022914D01*
X111107672Y-68928562D01*
X111108000Y-68922146D01*
X111108000Y-68647115D01*
X111103525Y-68631876D01*
X111102135Y-68630671D01*
X111094452Y-68629000D01*
X110397115Y-68629000D01*
X110381876Y-68633475D01*
X110380671Y-68634865D01*
X110379000Y-68642548D01*
X110379000Y-69614884D01*
X109621000Y-69614884D01*
X109621000Y-68577846D01*
X114891500Y-68577846D01*
X114906548Y-68735566D01*
X114966092Y-68938534D01*
X114968836Y-68943861D01*
X114968836Y-68943862D01*
X115053042Y-69107357D01*
X115062942Y-69126580D01*
X115193604Y-69292920D01*
X115198135Y-69296852D01*
X115198138Y-69296855D01*
X115284058Y-69371412D01*
X115353363Y-69431552D01*
X115358549Y-69434552D01*
X115358553Y-69434555D01*
X115454957Y-69490326D01*
X115536454Y-69537473D01*
X115736271Y-69606861D01*
X115742206Y-69607722D01*
X115742208Y-69607722D01*
X115939664Y-69636352D01*
X115939667Y-69636352D01*
X115945604Y-69637213D01*
X116156899Y-69627433D01*
X116288077Y-69595819D01*
X116356701Y-69579281D01*
X116356703Y-69579280D01*
X116362534Y-69577875D01*
X116367992Y-69575393D01*
X116367996Y-69575392D01*
X116483041Y-69523084D01*
X116555087Y-69490326D01*
X116727611Y-69367946D01*
X116731749Y-69363623D01*
X116731754Y-69363619D01*
X116819164Y-69272309D01*
X116880720Y-69236933D01*
X116951629Y-69240452D01*
X117009379Y-69281749D01*
X117017326Y-69293137D01*
X117048063Y-69342807D01*
X117057099Y-69354208D01*
X117171829Y-69468739D01*
X117183240Y-69477751D01*
X117321243Y-69562816D01*
X117334424Y-69568963D01*
X117488710Y-69620138D01*
X117502086Y-69623005D01*
X117596438Y-69632672D01*
X117602854Y-69633000D01*
X117602885Y-69633000D01*
X117618124Y-69628525D01*
X117619329Y-69627135D01*
X117621000Y-69619452D01*
X117621000Y-69614884D01*
X118379000Y-69614884D01*
X118383475Y-69630123D01*
X118384865Y-69631328D01*
X118392548Y-69632999D01*
X118397095Y-69632999D01*
X118403614Y-69632662D01*
X118499206Y-69622743D01*
X118512600Y-69619851D01*
X118666784Y-69568412D01*
X118679962Y-69562239D01*
X118817807Y-69476937D01*
X118829208Y-69467901D01*
X118943739Y-69353171D01*
X118952751Y-69341760D01*
X119037816Y-69203757D01*
X119043963Y-69190576D01*
X119095138Y-69036290D01*
X119098005Y-69022914D01*
X119107672Y-68928562D01*
X119108000Y-68922146D01*
X119108000Y-68647115D01*
X119103525Y-68631876D01*
X119102135Y-68630671D01*
X119094452Y-68629000D01*
X118397115Y-68629000D01*
X118381876Y-68633475D01*
X118380671Y-68634865D01*
X118379000Y-68642548D01*
X118379000Y-69614884D01*
X117621000Y-69614884D01*
X117621000Y-67945604D01*
X124412787Y-67945604D01*
X124422567Y-68156899D01*
X124472125Y-68362534D01*
X124474607Y-68367992D01*
X124474608Y-68367996D01*
X124518053Y-68463546D01*
X124559674Y-68555087D01*
X124682054Y-68727611D01*
X124834850Y-68873881D01*
X125012548Y-68988620D01*
X125018114Y-68990863D01*
X125203168Y-69065442D01*
X125203171Y-69065443D01*
X125208737Y-69067686D01*
X125416337Y-69108228D01*
X125421899Y-69108500D01*
X126127846Y-69108500D01*
X126285566Y-69093452D01*
X126488534Y-69033908D01*
X126572111Y-68990863D01*
X126671249Y-68939804D01*
X126671252Y-68939802D01*
X126676580Y-68937058D01*
X126842920Y-68806396D01*
X126846852Y-68801865D01*
X126846855Y-68801862D01*
X126977621Y-68651167D01*
X126981552Y-68646637D01*
X126984552Y-68641451D01*
X126984555Y-68641447D01*
X127084467Y-68468742D01*
X127087473Y-68463546D01*
X127156861Y-68263729D01*
X127187213Y-68054396D01*
X127177433Y-67843101D01*
X127127875Y-67637466D01*
X127084525Y-67542122D01*
X127042806Y-67450368D01*
X127040326Y-67444913D01*
X126917946Y-67272389D01*
X126913623Y-67268251D01*
X126913619Y-67268246D01*
X126822309Y-67180836D01*
X126786933Y-67119280D01*
X126790452Y-67048371D01*
X126831749Y-66990621D01*
X126843137Y-66982674D01*
X126892807Y-66951937D01*
X126904208Y-66942901D01*
X127018739Y-66828171D01*
X127027751Y-66816760D01*
X127112816Y-66678757D01*
X127118963Y-66665576D01*
X127170138Y-66511290D01*
X127173005Y-66497914D01*
X127182672Y-66403562D01*
X127183000Y-66397146D01*
X127183000Y-66397115D01*
X127178525Y-66381876D01*
X127177135Y-66380671D01*
X127169452Y-66379000D01*
X124435116Y-66379000D01*
X124419877Y-66383475D01*
X124418672Y-66384865D01*
X124417001Y-66392548D01*
X124417001Y-66397095D01*
X124417338Y-66403614D01*
X124427257Y-66499206D01*
X124430149Y-66512600D01*
X124481588Y-66666784D01*
X124487761Y-66679962D01*
X124573063Y-66817807D01*
X124582099Y-66829208D01*
X124696829Y-66943739D01*
X124708240Y-66952751D01*
X124753655Y-66980745D01*
X124801148Y-67033517D01*
X124812572Y-67103589D01*
X124784298Y-67168713D01*
X124765375Y-67187088D01*
X124757080Y-67193604D01*
X124753148Y-67198135D01*
X124753145Y-67198138D01*
X124673531Y-67289885D01*
X124618448Y-67353363D01*
X124615448Y-67358549D01*
X124615445Y-67358553D01*
X124568312Y-67440026D01*
X124512527Y-67536454D01*
X124443139Y-67736271D01*
X124442278Y-67742206D01*
X124442278Y-67742208D01*
X124423642Y-67870742D01*
X124412787Y-67945604D01*
X117621000Y-67945604D01*
X117621000Y-67852885D01*
X118379000Y-67852885D01*
X118383475Y-67868124D01*
X118384865Y-67869329D01*
X118392548Y-67871000D01*
X119089884Y-67871000D01*
X119105123Y-67866525D01*
X119106328Y-67865135D01*
X119107999Y-67857452D01*
X119107999Y-67577905D01*
X119107662Y-67571386D01*
X119097743Y-67475794D01*
X119094851Y-67462400D01*
X119043412Y-67308216D01*
X119037239Y-67295038D01*
X118951937Y-67157193D01*
X118942901Y-67145792D01*
X118828171Y-67031261D01*
X118816760Y-67022249D01*
X118678757Y-66937184D01*
X118665576Y-66931037D01*
X118511290Y-66879862D01*
X118497914Y-66876995D01*
X118403562Y-66867328D01*
X118397145Y-66867000D01*
X118397115Y-66867000D01*
X118381876Y-66871475D01*
X118380671Y-66872865D01*
X118379000Y-66880548D01*
X118379000Y-67852885D01*
X117621000Y-67852885D01*
X117621000Y-66885116D01*
X117616525Y-66869877D01*
X117615135Y-66868672D01*
X117607452Y-66867001D01*
X117602905Y-66867001D01*
X117596386Y-66867338D01*
X117500794Y-66877257D01*
X117487400Y-66880149D01*
X117333216Y-66931588D01*
X117320038Y-66937761D01*
X117182193Y-67023063D01*
X117170792Y-67032099D01*
X117056261Y-67146829D01*
X117047249Y-67158240D01*
X117019255Y-67203655D01*
X116966483Y-67251148D01*
X116896411Y-67262572D01*
X116831287Y-67234298D01*
X116812912Y-67215375D01*
X116806396Y-67207080D01*
X116801865Y-67203148D01*
X116801862Y-67203145D01*
X116651167Y-67072379D01*
X116646637Y-67068448D01*
X116641451Y-67065448D01*
X116641447Y-67065445D01*
X116468742Y-66965533D01*
X116463546Y-66962527D01*
X116263729Y-66893139D01*
X116257794Y-66892278D01*
X116257792Y-66892278D01*
X116060336Y-66863648D01*
X116060333Y-66863648D01*
X116054396Y-66862787D01*
X115843101Y-66872567D01*
X115711923Y-66904181D01*
X115643299Y-66920719D01*
X115643297Y-66920720D01*
X115637466Y-66922125D01*
X115632008Y-66924607D01*
X115632004Y-66924608D01*
X115540766Y-66966092D01*
X115444913Y-67009674D01*
X115272389Y-67132054D01*
X115126119Y-67284850D01*
X115011380Y-67462548D01*
X115009137Y-67468114D01*
X114938536Y-67643299D01*
X114932314Y-67658737D01*
X114891772Y-67866337D01*
X114891500Y-67871899D01*
X114891500Y-68577846D01*
X109621000Y-68577846D01*
X109621000Y-67852885D01*
X110379000Y-67852885D01*
X110383475Y-67868124D01*
X110384865Y-67869329D01*
X110392548Y-67871000D01*
X111089884Y-67871000D01*
X111105123Y-67866525D01*
X111106328Y-67865135D01*
X111107999Y-67857452D01*
X111107999Y-67577905D01*
X111107662Y-67571386D01*
X111097743Y-67475794D01*
X111094851Y-67462400D01*
X111043412Y-67308216D01*
X111037239Y-67295038D01*
X110951937Y-67157193D01*
X110942901Y-67145792D01*
X110828171Y-67031261D01*
X110816760Y-67022249D01*
X110678757Y-66937184D01*
X110665576Y-66931037D01*
X110511290Y-66879862D01*
X110497914Y-66876995D01*
X110403562Y-66867328D01*
X110397145Y-66867000D01*
X110397115Y-66867000D01*
X110381876Y-66871475D01*
X110380671Y-66872865D01*
X110379000Y-66880548D01*
X110379000Y-67852885D01*
X109621000Y-67852885D01*
X109621000Y-66885116D01*
X109616525Y-66869877D01*
X109615135Y-66868672D01*
X109607452Y-66867001D01*
X109602905Y-66867001D01*
X109596386Y-66867338D01*
X109500794Y-66877257D01*
X109487400Y-66880149D01*
X109333216Y-66931588D01*
X109320038Y-66937761D01*
X109182193Y-67023063D01*
X109170792Y-67032099D01*
X109056261Y-67146829D01*
X109047249Y-67158240D01*
X109019255Y-67203655D01*
X108966483Y-67251148D01*
X108896411Y-67262572D01*
X108831287Y-67234298D01*
X108812912Y-67215375D01*
X108806396Y-67207080D01*
X108801865Y-67203148D01*
X108801862Y-67203145D01*
X108651167Y-67072379D01*
X108646637Y-67068448D01*
X108641451Y-67065448D01*
X108641447Y-67065445D01*
X108468742Y-66965533D01*
X108463546Y-66962527D01*
X108263729Y-66893139D01*
X108257794Y-66892278D01*
X108257792Y-66892278D01*
X108060336Y-66863648D01*
X108060333Y-66863648D01*
X108054396Y-66862787D01*
X107843101Y-66872567D01*
X107711923Y-66904181D01*
X107643299Y-66920719D01*
X107643297Y-66920720D01*
X107637466Y-66922125D01*
X107632008Y-66924607D01*
X107632004Y-66924608D01*
X107540766Y-66966092D01*
X107444913Y-67009674D01*
X107272389Y-67132054D01*
X107126119Y-67284850D01*
X107011380Y-67462548D01*
X107009137Y-67468114D01*
X106938536Y-67643299D01*
X106932314Y-67658737D01*
X106891772Y-67866337D01*
X106891500Y-67871899D01*
X106891500Y-68577846D01*
X104639391Y-68577846D01*
X104644233Y-68552462D01*
X104663262Y-68250000D01*
X104644233Y-67947538D01*
X104587445Y-67649846D01*
X104493794Y-67361619D01*
X104487778Y-67348833D01*
X104416866Y-67198138D01*
X104364758Y-67087402D01*
X104202370Y-66831520D01*
X104199600Y-66828171D01*
X104065089Y-66665576D01*
X104009192Y-66598008D01*
X103788271Y-66390550D01*
X103543090Y-66212416D01*
X103277517Y-66066415D01*
X103273848Y-66064962D01*
X103273843Y-66064960D01*
X102999409Y-65956304D01*
X102999408Y-65956304D01*
X102995739Y-65954851D01*
X102702200Y-65879484D01*
X102401530Y-65841500D01*
X102098470Y-65841500D01*
X101797800Y-65879484D01*
X101504261Y-65954851D01*
X101500592Y-65956304D01*
X101500591Y-65956304D01*
X101226157Y-66064960D01*
X101226152Y-66064962D01*
X101222483Y-66066415D01*
X100956910Y-66212416D01*
X100711729Y-66390550D01*
X100490808Y-66598008D01*
X100434911Y-66665576D01*
X100300401Y-66828171D01*
X100297630Y-66831520D01*
X100135242Y-67087402D01*
X100083134Y-67198138D01*
X100012223Y-67348833D01*
X100006206Y-67361619D01*
X99912555Y-67649846D01*
X99855767Y-67947538D01*
X99836738Y-68250000D01*
X99508500Y-68250000D01*
X99508500Y-65602885D01*
X124417000Y-65602885D01*
X124421475Y-65618124D01*
X124422865Y-65619329D01*
X124430548Y-65621000D01*
X125402885Y-65621000D01*
X125418124Y-65616525D01*
X125419329Y-65615135D01*
X125421000Y-65607452D01*
X125421000Y-65602885D01*
X126179000Y-65602885D01*
X126183475Y-65618124D01*
X126184865Y-65619329D01*
X126192548Y-65621000D01*
X127164884Y-65621000D01*
X127180123Y-65616525D01*
X127181328Y-65615135D01*
X127182999Y-65607452D01*
X127182999Y-65602905D01*
X127182662Y-65596386D01*
X127172743Y-65500794D01*
X127169851Y-65487400D01*
X127118412Y-65333216D01*
X127112239Y-65320038D01*
X127026937Y-65182193D01*
X127017901Y-65170792D01*
X126903171Y-65056261D01*
X126891760Y-65047249D01*
X126753757Y-64962184D01*
X126740576Y-64956037D01*
X126586290Y-64904862D01*
X126572914Y-64901995D01*
X126478562Y-64892328D01*
X126472145Y-64892000D01*
X126197115Y-64892000D01*
X126181876Y-64896475D01*
X126180671Y-64897865D01*
X126179000Y-64905548D01*
X126179000Y-65602885D01*
X125421000Y-65602885D01*
X125421000Y-64910116D01*
X125416525Y-64894877D01*
X125415135Y-64893672D01*
X125407452Y-64892001D01*
X125127905Y-64892001D01*
X125121386Y-64892338D01*
X125025794Y-64902257D01*
X125012400Y-64905149D01*
X124858216Y-64956588D01*
X124845038Y-64962761D01*
X124707193Y-65048063D01*
X124695792Y-65057099D01*
X124581261Y-65171829D01*
X124572249Y-65183240D01*
X124487184Y-65321243D01*
X124481037Y-65334424D01*
X124429862Y-65488710D01*
X124426995Y-65502086D01*
X124417328Y-65596438D01*
X124417000Y-65602855D01*
X124417000Y-65602885D01*
X99508500Y-65602885D01*
X99508500Y-61452526D01*
X103492050Y-61452526D01*
X103504947Y-61721019D01*
X103557388Y-61984656D01*
X103648220Y-62237646D01*
X103775450Y-62474431D01*
X103778241Y-62478168D01*
X103778245Y-62478175D01*
X103859887Y-62587506D01*
X103936281Y-62689810D01*
X103939590Y-62693090D01*
X103939595Y-62693096D01*
X104123863Y-62875762D01*
X104127180Y-62879050D01*
X104130942Y-62881808D01*
X104130945Y-62881811D01*
X104243299Y-62964192D01*
X104343954Y-63037995D01*
X104348089Y-63040171D01*
X104348093Y-63040173D01*
X104577698Y-63160975D01*
X104581840Y-63163154D01*
X104835613Y-63251775D01*
X104840206Y-63252647D01*
X105095109Y-63301042D01*
X105095112Y-63301042D01*
X105099698Y-63301913D01*
X105227370Y-63306929D01*
X105363625Y-63312283D01*
X105363630Y-63312283D01*
X105368293Y-63312466D01*
X105472607Y-63301042D01*
X105630844Y-63283713D01*
X105630850Y-63283712D01*
X105635497Y-63283203D01*
X105640021Y-63282012D01*
X105890918Y-63215956D01*
X105890920Y-63215955D01*
X105895441Y-63214765D01*
X105899738Y-63212919D01*
X106138120Y-63110502D01*
X106138122Y-63110501D01*
X106142414Y-63108657D01*
X106261071Y-63035230D01*
X106367017Y-62969669D01*
X106367021Y-62969666D01*
X106370990Y-62967210D01*
X106576149Y-62793530D01*
X106753382Y-62591434D01*
X106898797Y-62365361D01*
X107009199Y-62120278D01*
X107046209Y-61989051D01*
X107080893Y-61866072D01*
X107080894Y-61866069D01*
X107082163Y-61861568D01*
X107100043Y-61721019D01*
X107115688Y-61598045D01*
X107115688Y-61598041D01*
X107116086Y-61594915D01*
X107118571Y-61500000D01*
X107108875Y-61369531D01*
X107098996Y-61236592D01*
X107098996Y-61236591D01*
X107098650Y-61231937D01*
X107088047Y-61185077D01*
X107040361Y-60974331D01*
X107040360Y-60974326D01*
X107039327Y-60969763D01*
X106941902Y-60719238D01*
X106808518Y-60485864D01*
X106795021Y-60468742D01*
X106711293Y-60362534D01*
X106642105Y-60274769D01*
X106446317Y-60090591D01*
X106245965Y-59951601D01*
X106237321Y-59945604D01*
X116662787Y-59945604D01*
X116672567Y-60156899D01*
X116673971Y-60162724D01*
X116673971Y-60162725D01*
X116701858Y-60278437D01*
X116722125Y-60362534D01*
X116724607Y-60367992D01*
X116724608Y-60367996D01*
X116768053Y-60463546D01*
X116809674Y-60555087D01*
X116932054Y-60727611D01*
X117084850Y-60873881D01*
X117262548Y-60988620D01*
X117268114Y-60990863D01*
X117453168Y-61065442D01*
X117453171Y-61065443D01*
X117458737Y-61067686D01*
X117666337Y-61108228D01*
X117671899Y-61108500D01*
X118377846Y-61108500D01*
X118535566Y-61093452D01*
X118738534Y-61033908D01*
X118822111Y-60990863D01*
X118921249Y-60939804D01*
X118921252Y-60939802D01*
X118926580Y-60937058D01*
X119092920Y-60806396D01*
X119096852Y-60801865D01*
X119096855Y-60801862D01*
X119227621Y-60651167D01*
X119231552Y-60646637D01*
X119234552Y-60641451D01*
X119234555Y-60641447D01*
X119334467Y-60468742D01*
X119337473Y-60463546D01*
X119406861Y-60263729D01*
X119407722Y-60257792D01*
X119436352Y-60060336D01*
X119436352Y-60060333D01*
X119437213Y-60054396D01*
X119427433Y-59843101D01*
X119391324Y-59693269D01*
X119379281Y-59643299D01*
X119379280Y-59643297D01*
X119377875Y-59637466D01*
X119359137Y-59596253D01*
X119292806Y-59450368D01*
X119290326Y-59444913D01*
X119167946Y-59272389D01*
X119163623Y-59268251D01*
X119163619Y-59268246D01*
X119072309Y-59180836D01*
X119036933Y-59119280D01*
X119040452Y-59048371D01*
X119075042Y-59000000D01*
X123086738Y-59000000D01*
X123105767Y-59302462D01*
X123162555Y-59600154D01*
X123256206Y-59888381D01*
X123385242Y-60162598D01*
X123547630Y-60418480D01*
X123740808Y-60651992D01*
X123961729Y-60859450D01*
X123964931Y-60861777D01*
X123964933Y-60861778D01*
X123986066Y-60877132D01*
X124206910Y-61037584D01*
X124210379Y-61039491D01*
X124210382Y-61039493D01*
X124469014Y-61181678D01*
X124472483Y-61183585D01*
X124476152Y-61185038D01*
X124476157Y-61185040D01*
X124606363Y-61236592D01*
X124754261Y-61295149D01*
X125047800Y-61370516D01*
X125348470Y-61408500D01*
X125651530Y-61408500D01*
X125952200Y-61370516D01*
X126245739Y-61295149D01*
X126393637Y-61236592D01*
X126523843Y-61185040D01*
X126523848Y-61185038D01*
X126527517Y-61183585D01*
X126530986Y-61181678D01*
X126789618Y-61039493D01*
X126789621Y-61039491D01*
X126793090Y-61037584D01*
X127013934Y-60877132D01*
X127035067Y-60861778D01*
X127035069Y-60861777D01*
X127038271Y-60859450D01*
X127259192Y-60651992D01*
X127452370Y-60418480D01*
X127614758Y-60162598D01*
X127743794Y-59888381D01*
X127837445Y-59600154D01*
X127894233Y-59302462D01*
X127913262Y-59000000D01*
X127894233Y-58697538D01*
X127837445Y-58399846D01*
X127743794Y-58111619D01*
X127614758Y-57837402D01*
X127452370Y-57581520D01*
X127259192Y-57348008D01*
X127038271Y-57140550D01*
X126793090Y-56962416D01*
X126697958Y-56910116D01*
X126530986Y-56818322D01*
X126530985Y-56818321D01*
X126527517Y-56816415D01*
X126523848Y-56814962D01*
X126523843Y-56814960D01*
X126249409Y-56706304D01*
X126249408Y-56706304D01*
X126245739Y-56704851D01*
X125952200Y-56629484D01*
X125651530Y-56591500D01*
X125348470Y-56591500D01*
X125047800Y-56629484D01*
X124754261Y-56704851D01*
X124750592Y-56706304D01*
X124750591Y-56706304D01*
X124476157Y-56814960D01*
X124476152Y-56814962D01*
X124472483Y-56816415D01*
X124469015Y-56818321D01*
X124469014Y-56818322D01*
X124302043Y-56910116D01*
X124206910Y-56962416D01*
X123961729Y-57140550D01*
X123740808Y-57348008D01*
X123547630Y-57581520D01*
X123385242Y-57837402D01*
X123256206Y-58111619D01*
X123162555Y-58399846D01*
X123105767Y-58697538D01*
X123086738Y-59000000D01*
X119075042Y-59000000D01*
X119081749Y-58990621D01*
X119093137Y-58982674D01*
X119142807Y-58951937D01*
X119154208Y-58942901D01*
X119268739Y-58828171D01*
X119277751Y-58816760D01*
X119362816Y-58678757D01*
X119368963Y-58665576D01*
X119420138Y-58511290D01*
X119423005Y-58497914D01*
X119432672Y-58403562D01*
X119433000Y-58397146D01*
X119433000Y-58397115D01*
X119428525Y-58381876D01*
X119427135Y-58380671D01*
X119419452Y-58379000D01*
X116685116Y-58379000D01*
X116669877Y-58383475D01*
X116668672Y-58384865D01*
X116667001Y-58392548D01*
X116667001Y-58397095D01*
X116667338Y-58403614D01*
X116677257Y-58499206D01*
X116680149Y-58512600D01*
X116731588Y-58666784D01*
X116737761Y-58679962D01*
X116823063Y-58817807D01*
X116832099Y-58829208D01*
X116946829Y-58943739D01*
X116958240Y-58952751D01*
X117003655Y-58980745D01*
X117051148Y-59033517D01*
X117062572Y-59103589D01*
X117034298Y-59168713D01*
X117015375Y-59187088D01*
X117007080Y-59193604D01*
X117003148Y-59198135D01*
X117003145Y-59198138D01*
X116912618Y-59302462D01*
X116868448Y-59353363D01*
X116865448Y-59358549D01*
X116865445Y-59358553D01*
X116818312Y-59440026D01*
X116762527Y-59536454D01*
X116693139Y-59736271D01*
X116692278Y-59742206D01*
X116692278Y-59742208D01*
X116667025Y-59916378D01*
X116662787Y-59945604D01*
X106237321Y-59945604D01*
X106229299Y-59940039D01*
X106229296Y-59940037D01*
X106225457Y-59937374D01*
X106221264Y-59935306D01*
X105988564Y-59820551D01*
X105988561Y-59820550D01*
X105984376Y-59818486D01*
X105936745Y-59803239D01*
X105882621Y-59785914D01*
X105728370Y-59736538D01*
X105723763Y-59735788D01*
X105723760Y-59735787D01*
X105467674Y-59694081D01*
X105467675Y-59694081D01*
X105463063Y-59693330D01*
X105332719Y-59691624D01*
X105198961Y-59689873D01*
X105198958Y-59689873D01*
X105194284Y-59689812D01*
X104927937Y-59726060D01*
X104923451Y-59727368D01*
X104923449Y-59727368D01*
X104894565Y-59735787D01*
X104669874Y-59801278D01*
X104425763Y-59913815D01*
X104421854Y-59916378D01*
X104204881Y-60058631D01*
X104204876Y-60058635D01*
X104200968Y-60061197D01*
X104000426Y-60240188D01*
X103968615Y-60278437D01*
X103849607Y-60421529D01*
X103828544Y-60446854D01*
X103689096Y-60676656D01*
X103687287Y-60680970D01*
X103687285Y-60680974D01*
X103669414Y-60723592D01*
X103585148Y-60924545D01*
X103518981Y-61185077D01*
X103492050Y-61452526D01*
X99508500Y-61452526D01*
X99508500Y-57844669D01*
X103497001Y-57844669D01*
X103497371Y-57851490D01*
X103502895Y-57902352D01*
X103506521Y-57917604D01*
X103551676Y-58038054D01*
X103560214Y-58053649D01*
X103636715Y-58155724D01*
X103649276Y-58168285D01*
X103751351Y-58244786D01*
X103766946Y-58253324D01*
X103887394Y-58298478D01*
X103902649Y-58302105D01*
X103953514Y-58307631D01*
X103960328Y-58308000D01*
X104907885Y-58308000D01*
X104923124Y-58303525D01*
X104924329Y-58302135D01*
X104926000Y-58294452D01*
X104926000Y-58289884D01*
X105684000Y-58289884D01*
X105688475Y-58305123D01*
X105689865Y-58306328D01*
X105697548Y-58307999D01*
X106649669Y-58307999D01*
X106656490Y-58307629D01*
X106707352Y-58302105D01*
X106722604Y-58298479D01*
X106843054Y-58253324D01*
X106858649Y-58244786D01*
X106960724Y-58168285D01*
X106973285Y-58155724D01*
X107049786Y-58053649D01*
X107058324Y-58038054D01*
X107103478Y-57917606D01*
X107107105Y-57902351D01*
X107112631Y-57851486D01*
X107113000Y-57844672D01*
X107113000Y-57602885D01*
X116667000Y-57602885D01*
X116671475Y-57618124D01*
X116672865Y-57619329D01*
X116680548Y-57621000D01*
X117652885Y-57621000D01*
X117668124Y-57616525D01*
X117669329Y-57615135D01*
X117671000Y-57607452D01*
X117671000Y-57602885D01*
X118429000Y-57602885D01*
X118433475Y-57618124D01*
X118434865Y-57619329D01*
X118442548Y-57621000D01*
X119414884Y-57621000D01*
X119430123Y-57616525D01*
X119431328Y-57615135D01*
X119432999Y-57607452D01*
X119432999Y-57602905D01*
X119432662Y-57596386D01*
X119422743Y-57500794D01*
X119419851Y-57487400D01*
X119368412Y-57333216D01*
X119362239Y-57320038D01*
X119276937Y-57182193D01*
X119267901Y-57170792D01*
X119153171Y-57056261D01*
X119141760Y-57047249D01*
X119003757Y-56962184D01*
X118990576Y-56956037D01*
X118836290Y-56904862D01*
X118822914Y-56901995D01*
X118728562Y-56892328D01*
X118722145Y-56892000D01*
X118447115Y-56892000D01*
X118431876Y-56896475D01*
X118430671Y-56897865D01*
X118429000Y-56905548D01*
X118429000Y-57602885D01*
X117671000Y-57602885D01*
X117671000Y-56910116D01*
X117666525Y-56894877D01*
X117665135Y-56893672D01*
X117657452Y-56892001D01*
X117377905Y-56892001D01*
X117371386Y-56892338D01*
X117275794Y-56902257D01*
X117262400Y-56905149D01*
X117108216Y-56956588D01*
X117095038Y-56962761D01*
X116957193Y-57048063D01*
X116945792Y-57057099D01*
X116831261Y-57171829D01*
X116822249Y-57183240D01*
X116737184Y-57321243D01*
X116731037Y-57334424D01*
X116679862Y-57488710D01*
X116676995Y-57502086D01*
X116667328Y-57596438D01*
X116667000Y-57602855D01*
X116667000Y-57602885D01*
X107113000Y-57602885D01*
X107113000Y-56897115D01*
X107108525Y-56881876D01*
X107107135Y-56880671D01*
X107099452Y-56879000D01*
X105702115Y-56879000D01*
X105686876Y-56883475D01*
X105685671Y-56884865D01*
X105684000Y-56892548D01*
X105684000Y-58289884D01*
X104926000Y-58289884D01*
X104926000Y-56897115D01*
X104921525Y-56881876D01*
X104920135Y-56880671D01*
X104912452Y-56879000D01*
X103515116Y-56879000D01*
X103499877Y-56883475D01*
X103498672Y-56884865D01*
X103497001Y-56892548D01*
X103497001Y-57844669D01*
X99508500Y-57844669D01*
X99508500Y-56102885D01*
X103497000Y-56102885D01*
X103501475Y-56118124D01*
X103502865Y-56119329D01*
X103510548Y-56121000D01*
X104907885Y-56121000D01*
X104923124Y-56116525D01*
X104924329Y-56115135D01*
X104926000Y-56107452D01*
X104926000Y-56102885D01*
X105684000Y-56102885D01*
X105688475Y-56118124D01*
X105689865Y-56119329D01*
X105697548Y-56121000D01*
X107094884Y-56121000D01*
X107110123Y-56116525D01*
X107111328Y-56115135D01*
X107112999Y-56107452D01*
X107112999Y-55155331D01*
X107112629Y-55148510D01*
X107107105Y-55097648D01*
X107103479Y-55082396D01*
X107058324Y-54961946D01*
X107049786Y-54946351D01*
X106973285Y-54844276D01*
X106960724Y-54831715D01*
X106858649Y-54755214D01*
X106843054Y-54746676D01*
X106722606Y-54701522D01*
X106707351Y-54697895D01*
X106656486Y-54692369D01*
X106649672Y-54692000D01*
X105702115Y-54692000D01*
X105686876Y-54696475D01*
X105685671Y-54697865D01*
X105684000Y-54705548D01*
X105684000Y-56102885D01*
X104926000Y-56102885D01*
X104926000Y-54710116D01*
X104921525Y-54694877D01*
X104920135Y-54693672D01*
X104912452Y-54692001D01*
X103960331Y-54692001D01*
X103953510Y-54692371D01*
X103902648Y-54697895D01*
X103887396Y-54701521D01*
X103766946Y-54746676D01*
X103751351Y-54755214D01*
X103649276Y-54831715D01*
X103636715Y-54844276D01*
X103560214Y-54946351D01*
X103551676Y-54961946D01*
X103506522Y-55082394D01*
X103502895Y-55097649D01*
X103497369Y-55148514D01*
X103497000Y-55155328D01*
X103497000Y-56102885D01*
X99508500Y-56102885D01*
X99508500Y-49750000D01*
X99836738Y-49750000D01*
X99855767Y-50052462D01*
X99912555Y-50350154D01*
X100006206Y-50638381D01*
X100007893Y-50641967D01*
X100007895Y-50641971D01*
X100034661Y-50698852D01*
X100135242Y-50912598D01*
X100137366Y-50915944D01*
X100137366Y-50915945D01*
X100152839Y-50940326D01*
X100297630Y-51168480D01*
X100300149Y-51171525D01*
X100300152Y-51171529D01*
X100318414Y-51193604D01*
X100490808Y-51401992D01*
X100711729Y-51609450D01*
X100956910Y-51787584D01*
X101222483Y-51933585D01*
X101226152Y-51935038D01*
X101226157Y-51935040D01*
X101500591Y-52043696D01*
X101504261Y-52045149D01*
X101797800Y-52120516D01*
X102098470Y-52158500D01*
X102401530Y-52158500D01*
X102702200Y-52120516D01*
X102995739Y-52045149D01*
X102999409Y-52043696D01*
X103247161Y-51945604D01*
X124412787Y-51945604D01*
X124422567Y-52156899D01*
X124472125Y-52362534D01*
X124474607Y-52367992D01*
X124474608Y-52367996D01*
X124518053Y-52463546D01*
X124559674Y-52555087D01*
X124682054Y-52727611D01*
X124834850Y-52873881D01*
X125012548Y-52988620D01*
X125018114Y-52990863D01*
X125203168Y-53065442D01*
X125203171Y-53065443D01*
X125208737Y-53067686D01*
X125416337Y-53108228D01*
X125421899Y-53108500D01*
X126127846Y-53108500D01*
X126285566Y-53093452D01*
X126488534Y-53033908D01*
X126572111Y-52990863D01*
X126671249Y-52939804D01*
X126671252Y-52939802D01*
X126676580Y-52937058D01*
X126842920Y-52806396D01*
X126846852Y-52801865D01*
X126846855Y-52801862D01*
X126977621Y-52651167D01*
X126981552Y-52646637D01*
X126984552Y-52641451D01*
X126984555Y-52641447D01*
X127084467Y-52468742D01*
X127087473Y-52463546D01*
X127156861Y-52263729D01*
X127187213Y-52054396D01*
X127177433Y-51843101D01*
X127127875Y-51637466D01*
X127116196Y-51611778D01*
X127042806Y-51450368D01*
X127040326Y-51444913D01*
X126917946Y-51272389D01*
X126913623Y-51268251D01*
X126913619Y-51268246D01*
X126822309Y-51180836D01*
X126786933Y-51119280D01*
X126790452Y-51048371D01*
X126831749Y-50990621D01*
X126843137Y-50982674D01*
X126892807Y-50951937D01*
X126904208Y-50942901D01*
X127018739Y-50828171D01*
X127027751Y-50816760D01*
X127112816Y-50678757D01*
X127118963Y-50665576D01*
X127170138Y-50511290D01*
X127173005Y-50497914D01*
X127182672Y-50403562D01*
X127183000Y-50397146D01*
X127183000Y-50397115D01*
X127178525Y-50381876D01*
X127177135Y-50380671D01*
X127169452Y-50379000D01*
X124435116Y-50379000D01*
X124419877Y-50383475D01*
X124418672Y-50384865D01*
X124417001Y-50392548D01*
X124417001Y-50397095D01*
X124417338Y-50403614D01*
X124427257Y-50499206D01*
X124430149Y-50512600D01*
X124481588Y-50666784D01*
X124487761Y-50679962D01*
X124573063Y-50817807D01*
X124582099Y-50829208D01*
X124696829Y-50943739D01*
X124708240Y-50952751D01*
X124753655Y-50980745D01*
X124801148Y-51033517D01*
X124812572Y-51103589D01*
X124784298Y-51168713D01*
X124765375Y-51187088D01*
X124757080Y-51193604D01*
X124753148Y-51198135D01*
X124753145Y-51198138D01*
X124684474Y-51277275D01*
X124618448Y-51353363D01*
X124615448Y-51358549D01*
X124615445Y-51358553D01*
X124592081Y-51398940D01*
X124512527Y-51536454D01*
X124443139Y-51736271D01*
X124442278Y-51742206D01*
X124442278Y-51742208D01*
X124414319Y-51935040D01*
X124412787Y-51945604D01*
X103247161Y-51945604D01*
X103273843Y-51935040D01*
X103273848Y-51935038D01*
X103277517Y-51933585D01*
X103543090Y-51787584D01*
X103788271Y-51609450D01*
X104009192Y-51401992D01*
X104181586Y-51193604D01*
X104199848Y-51171529D01*
X104199851Y-51171525D01*
X104202370Y-51168480D01*
X104347161Y-50940326D01*
X104362634Y-50915945D01*
X104362634Y-50915944D01*
X104364758Y-50912598D01*
X104465339Y-50698852D01*
X104492105Y-50641971D01*
X104492107Y-50641967D01*
X104493794Y-50638381D01*
X104580316Y-50372095D01*
X106892001Y-50372095D01*
X106892338Y-50378614D01*
X106902257Y-50474206D01*
X106905149Y-50487600D01*
X106956588Y-50641784D01*
X106962761Y-50654962D01*
X107048063Y-50792807D01*
X107057099Y-50804208D01*
X107171829Y-50918739D01*
X107183240Y-50927751D01*
X107321243Y-51012816D01*
X107334424Y-51018963D01*
X107488710Y-51070138D01*
X107502086Y-51073005D01*
X107596438Y-51082672D01*
X107602854Y-51083000D01*
X107602885Y-51083000D01*
X107618124Y-51078525D01*
X107619329Y-51077135D01*
X107621000Y-51069452D01*
X107621000Y-51064884D01*
X108379000Y-51064884D01*
X108383475Y-51080123D01*
X108384865Y-51081328D01*
X108392548Y-51082999D01*
X108397095Y-51082999D01*
X108403614Y-51082662D01*
X108499206Y-51072743D01*
X108512600Y-51069851D01*
X108666784Y-51018412D01*
X108679962Y-51012239D01*
X108817807Y-50926937D01*
X108829208Y-50917901D01*
X108943739Y-50803171D01*
X108952751Y-50791760D01*
X108980745Y-50746345D01*
X109033517Y-50698852D01*
X109103589Y-50687428D01*
X109168713Y-50715702D01*
X109187088Y-50734625D01*
X109193604Y-50742920D01*
X109198135Y-50746852D01*
X109198138Y-50746855D01*
X109284058Y-50821412D01*
X109353363Y-50881552D01*
X109358549Y-50884552D01*
X109358553Y-50884555D01*
X109460857Y-50943739D01*
X109536454Y-50987473D01*
X109736271Y-51056861D01*
X109742206Y-51057722D01*
X109742208Y-51057722D01*
X109939664Y-51086352D01*
X109939667Y-51086352D01*
X109945604Y-51087213D01*
X110156899Y-51077433D01*
X110288077Y-51045819D01*
X110356701Y-51029281D01*
X110356703Y-51029280D01*
X110362534Y-51027875D01*
X110367992Y-51025393D01*
X110367996Y-51025392D01*
X110498418Y-50966092D01*
X110555087Y-50940326D01*
X110711735Y-50829208D01*
X110722725Y-50821412D01*
X110722726Y-50821411D01*
X110727611Y-50817946D01*
X110873881Y-50665150D01*
X110988620Y-50487452D01*
X111012840Y-50427354D01*
X111035110Y-50372095D01*
X114892001Y-50372095D01*
X114892338Y-50378614D01*
X114902257Y-50474206D01*
X114905149Y-50487600D01*
X114956588Y-50641784D01*
X114962761Y-50654962D01*
X115048063Y-50792807D01*
X115057099Y-50804208D01*
X115171829Y-50918739D01*
X115183240Y-50927751D01*
X115321243Y-51012816D01*
X115334424Y-51018963D01*
X115488710Y-51070138D01*
X115502086Y-51073005D01*
X115596438Y-51082672D01*
X115602854Y-51083000D01*
X115602885Y-51083000D01*
X115618124Y-51078525D01*
X115619329Y-51077135D01*
X115621000Y-51069452D01*
X115621000Y-51064884D01*
X116379000Y-51064884D01*
X116383475Y-51080123D01*
X116384865Y-51081328D01*
X116392548Y-51082999D01*
X116397095Y-51082999D01*
X116403614Y-51082662D01*
X116499206Y-51072743D01*
X116512600Y-51069851D01*
X116666784Y-51018412D01*
X116679962Y-51012239D01*
X116817807Y-50926937D01*
X116829208Y-50917901D01*
X116943739Y-50803171D01*
X116952751Y-50791760D01*
X116980745Y-50746345D01*
X117033517Y-50698852D01*
X117103589Y-50687428D01*
X117168713Y-50715702D01*
X117187088Y-50734625D01*
X117193604Y-50742920D01*
X117198135Y-50746852D01*
X117198138Y-50746855D01*
X117284058Y-50821412D01*
X117353363Y-50881552D01*
X117358549Y-50884552D01*
X117358553Y-50884555D01*
X117460857Y-50943739D01*
X117536454Y-50987473D01*
X117736271Y-51056861D01*
X117742206Y-51057722D01*
X117742208Y-51057722D01*
X117939664Y-51086352D01*
X117939667Y-51086352D01*
X117945604Y-51087213D01*
X118156899Y-51077433D01*
X118288077Y-51045819D01*
X118356701Y-51029281D01*
X118356703Y-51029280D01*
X118362534Y-51027875D01*
X118367992Y-51025393D01*
X118367996Y-51025392D01*
X118498418Y-50966092D01*
X118555087Y-50940326D01*
X118711735Y-50829208D01*
X118722725Y-50821412D01*
X118722726Y-50821411D01*
X118727611Y-50817946D01*
X118873881Y-50665150D01*
X118988620Y-50487452D01*
X119012840Y-50427354D01*
X119065442Y-50296832D01*
X119065443Y-50296829D01*
X119067686Y-50291263D01*
X119108228Y-50083663D01*
X119108500Y-50078101D01*
X119108500Y-49602885D01*
X124417000Y-49602885D01*
X124421475Y-49618124D01*
X124422865Y-49619329D01*
X124430548Y-49621000D01*
X125402885Y-49621000D01*
X125418124Y-49616525D01*
X125419329Y-49615135D01*
X125421000Y-49607452D01*
X125421000Y-49602885D01*
X126179000Y-49602885D01*
X126183475Y-49618124D01*
X126184865Y-49619329D01*
X126192548Y-49621000D01*
X127164884Y-49621000D01*
X127180123Y-49616525D01*
X127181328Y-49615135D01*
X127182999Y-49607452D01*
X127182999Y-49602905D01*
X127182662Y-49596386D01*
X127172743Y-49500794D01*
X127169851Y-49487400D01*
X127118412Y-49333216D01*
X127112239Y-49320038D01*
X127026937Y-49182193D01*
X127017901Y-49170792D01*
X126903171Y-49056261D01*
X126891760Y-49047249D01*
X126753757Y-48962184D01*
X126740576Y-48956037D01*
X126586290Y-48904862D01*
X126572914Y-48901995D01*
X126478562Y-48892328D01*
X126472145Y-48892000D01*
X126197115Y-48892000D01*
X126181876Y-48896475D01*
X126180671Y-48897865D01*
X126179000Y-48905548D01*
X126179000Y-49602885D01*
X125421000Y-49602885D01*
X125421000Y-48910116D01*
X125416525Y-48894877D01*
X125415135Y-48893672D01*
X125407452Y-48892001D01*
X125127905Y-48892001D01*
X125121386Y-48892338D01*
X125025794Y-48902257D01*
X125012400Y-48905149D01*
X124858216Y-48956588D01*
X124845038Y-48962761D01*
X124707193Y-49048063D01*
X124695792Y-49057099D01*
X124581261Y-49171829D01*
X124572249Y-49183240D01*
X124487184Y-49321243D01*
X124481037Y-49334424D01*
X124429862Y-49488710D01*
X124426995Y-49502086D01*
X124417328Y-49596438D01*
X124417000Y-49602855D01*
X124417000Y-49602885D01*
X119108500Y-49602885D01*
X119108500Y-49372154D01*
X119093452Y-49214434D01*
X119033908Y-49011466D01*
X119005360Y-48956037D01*
X118939804Y-48828751D01*
X118939802Y-48828748D01*
X118937058Y-48823420D01*
X118806396Y-48657080D01*
X118801865Y-48653148D01*
X118801862Y-48653145D01*
X118651167Y-48522379D01*
X118646637Y-48518448D01*
X118641451Y-48515448D01*
X118641447Y-48515445D01*
X118468742Y-48415533D01*
X118463546Y-48412527D01*
X118263729Y-48343139D01*
X118257794Y-48342278D01*
X118257792Y-48342278D01*
X118060336Y-48313648D01*
X118060333Y-48313648D01*
X118054396Y-48312787D01*
X117843101Y-48322567D01*
X117711923Y-48354181D01*
X117643299Y-48370719D01*
X117643297Y-48370720D01*
X117637466Y-48372125D01*
X117632008Y-48374607D01*
X117632004Y-48374608D01*
X117516959Y-48426916D01*
X117444913Y-48459674D01*
X117272389Y-48582054D01*
X117268251Y-48586377D01*
X117268246Y-48586381D01*
X117180836Y-48677691D01*
X117119280Y-48713067D01*
X117048371Y-48709548D01*
X116990621Y-48668251D01*
X116982674Y-48656863D01*
X116951937Y-48607193D01*
X116942901Y-48595792D01*
X116828171Y-48481261D01*
X116816760Y-48472249D01*
X116678757Y-48387184D01*
X116665576Y-48381037D01*
X116511290Y-48329862D01*
X116497914Y-48326995D01*
X116403562Y-48317328D01*
X116397145Y-48317000D01*
X116397115Y-48317000D01*
X116381876Y-48321475D01*
X116380671Y-48322865D01*
X116379000Y-48330548D01*
X116379000Y-51064884D01*
X115621000Y-51064884D01*
X115621000Y-50097115D01*
X115616525Y-50081876D01*
X115615135Y-50080671D01*
X115607452Y-50079000D01*
X114910116Y-50079000D01*
X114894877Y-50083475D01*
X114893672Y-50084865D01*
X114892001Y-50092548D01*
X114892001Y-50372095D01*
X111035110Y-50372095D01*
X111065442Y-50296832D01*
X111065443Y-50296829D01*
X111067686Y-50291263D01*
X111108228Y-50083663D01*
X111108500Y-50078101D01*
X111108500Y-49372154D01*
X111101891Y-49302885D01*
X114892000Y-49302885D01*
X114896475Y-49318124D01*
X114897865Y-49319329D01*
X114905548Y-49321000D01*
X115602885Y-49321000D01*
X115618124Y-49316525D01*
X115619329Y-49315135D01*
X115621000Y-49307452D01*
X115621000Y-48335116D01*
X115616525Y-48319877D01*
X115615135Y-48318672D01*
X115607452Y-48317001D01*
X115602905Y-48317001D01*
X115596386Y-48317338D01*
X115500794Y-48327257D01*
X115487400Y-48330149D01*
X115333216Y-48381588D01*
X115320038Y-48387761D01*
X115182193Y-48473063D01*
X115170792Y-48482099D01*
X115056261Y-48596829D01*
X115047249Y-48608240D01*
X114962184Y-48746243D01*
X114956037Y-48759424D01*
X114904862Y-48913710D01*
X114901995Y-48927086D01*
X114892328Y-49021438D01*
X114892000Y-49027855D01*
X114892000Y-49302885D01*
X111101891Y-49302885D01*
X111093452Y-49214434D01*
X111033908Y-49011466D01*
X111005360Y-48956037D01*
X110939804Y-48828751D01*
X110939802Y-48828748D01*
X110937058Y-48823420D01*
X110806396Y-48657080D01*
X110801865Y-48653148D01*
X110801862Y-48653145D01*
X110651167Y-48522379D01*
X110646637Y-48518448D01*
X110641451Y-48515448D01*
X110641447Y-48515445D01*
X110468742Y-48415533D01*
X110463546Y-48412527D01*
X110263729Y-48343139D01*
X110257794Y-48342278D01*
X110257792Y-48342278D01*
X110060336Y-48313648D01*
X110060333Y-48313648D01*
X110054396Y-48312787D01*
X109843101Y-48322567D01*
X109711923Y-48354181D01*
X109643299Y-48370719D01*
X109643297Y-48370720D01*
X109637466Y-48372125D01*
X109632008Y-48374607D01*
X109632004Y-48374608D01*
X109516959Y-48426916D01*
X109444913Y-48459674D01*
X109272389Y-48582054D01*
X109268251Y-48586377D01*
X109268246Y-48586381D01*
X109180836Y-48677691D01*
X109119280Y-48713067D01*
X109048371Y-48709548D01*
X108990621Y-48668251D01*
X108982674Y-48656863D01*
X108951937Y-48607193D01*
X108942901Y-48595792D01*
X108828171Y-48481261D01*
X108816760Y-48472249D01*
X108678757Y-48387184D01*
X108665576Y-48381037D01*
X108511290Y-48329862D01*
X108497914Y-48326995D01*
X108403562Y-48317328D01*
X108397145Y-48317000D01*
X108397115Y-48317000D01*
X108381876Y-48321475D01*
X108380671Y-48322865D01*
X108379000Y-48330548D01*
X108379000Y-51064884D01*
X107621000Y-51064884D01*
X107621000Y-50097115D01*
X107616525Y-50081876D01*
X107615135Y-50080671D01*
X107607452Y-50079000D01*
X106910116Y-50079000D01*
X106894877Y-50083475D01*
X106893672Y-50084865D01*
X106892001Y-50092548D01*
X106892001Y-50372095D01*
X104580316Y-50372095D01*
X104587445Y-50350154D01*
X104644233Y-50052462D01*
X104663262Y-49750000D01*
X104644233Y-49447538D01*
X104616639Y-49302885D01*
X106892000Y-49302885D01*
X106896475Y-49318124D01*
X106897865Y-49319329D01*
X106905548Y-49321000D01*
X107602885Y-49321000D01*
X107618124Y-49316525D01*
X107619329Y-49315135D01*
X107621000Y-49307452D01*
X107621000Y-48335116D01*
X107616525Y-48319877D01*
X107615135Y-48318672D01*
X107607452Y-48317001D01*
X107602905Y-48317001D01*
X107596386Y-48317338D01*
X107500794Y-48327257D01*
X107487400Y-48330149D01*
X107333216Y-48381588D01*
X107320038Y-48387761D01*
X107182193Y-48473063D01*
X107170792Y-48482099D01*
X107056261Y-48596829D01*
X107047249Y-48608240D01*
X106962184Y-48746243D01*
X106956037Y-48759424D01*
X106904862Y-48913710D01*
X106901995Y-48927086D01*
X106892328Y-49021438D01*
X106892000Y-49027855D01*
X106892000Y-49302885D01*
X104616639Y-49302885D01*
X104587445Y-49149846D01*
X104515066Y-48927086D01*
X104495020Y-48865392D01*
X104495020Y-48865391D01*
X104493794Y-48861619D01*
X104473601Y-48818705D01*
X104422235Y-48709548D01*
X104364758Y-48587402D01*
X104359165Y-48578588D01*
X104292196Y-48473063D01*
X104202370Y-48331520D01*
X104198844Y-48327257D01*
X104143930Y-48260879D01*
X104009192Y-48098008D01*
X103788271Y-47890550D01*
X103543090Y-47712416D01*
X103277517Y-47566415D01*
X103273848Y-47564962D01*
X103273843Y-47564960D01*
X102999409Y-47456304D01*
X102999408Y-47456304D01*
X102995739Y-47454851D01*
X102702200Y-47379484D01*
X102401530Y-47341500D01*
X102098470Y-47341500D01*
X101797800Y-47379484D01*
X101504261Y-47454851D01*
X101500592Y-47456304D01*
X101500591Y-47456304D01*
X101226157Y-47564960D01*
X101226152Y-47564962D01*
X101222483Y-47566415D01*
X100956910Y-47712416D01*
X100711729Y-47890550D01*
X100490808Y-48098008D01*
X100356070Y-48260879D01*
X100301157Y-48327257D01*
X100297630Y-48331520D01*
X100207804Y-48473063D01*
X100140836Y-48578588D01*
X100135242Y-48587402D01*
X100077765Y-48709548D01*
X100026400Y-48818705D01*
X100006206Y-48861619D01*
X100004980Y-48865391D01*
X100004980Y-48865392D01*
X99984934Y-48927086D01*
X99912555Y-49149846D01*
X99855767Y-49447538D01*
X99836738Y-49750000D01*
X99508500Y-49750000D01*
X99508500Y-47134500D01*
X99528502Y-47066379D01*
X99582158Y-47019886D01*
X99634500Y-47008500D01*
X128365500Y-47008500D01*
X128433621Y-47028502D01*
G37*
%TD.AperFunction*%
%TD*%
M02*
