%TF.GenerationSoftware,KiCad,Pcbnew,(6.0.4-0)*%
%TF.CreationDate,2022-05-13T17:31:48+02:00*%
%TF.ProjectId,vcc_distributor,7663635f-6469-4737-9472-696275746f72,rev?*%
%TF.SameCoordinates,Original*%
%TF.FileFunction,Legend,Top*%
%TF.FilePolarity,Positive*%
%FSLAX46Y46*%
G04 Gerber Fmt 4.6, Leading zero omitted, Abs format (unit mm)*
G04 Created by KiCad (PCBNEW (6.0.4-0)) date 2022-05-13 17:31:48*
%MOMM*%
%LPD*%
G01*
G04 APERTURE LIST*
%ADD10C,0.150000*%
%ADD11C,0.120000*%
G04 APERTURE END LIST*
D10*
%TO.C,J3*%
X111966666Y-63552380D02*
X111966666Y-64266666D01*
X111919047Y-64409523D01*
X111823809Y-64504761D01*
X111680952Y-64552380D01*
X111585714Y-64552380D01*
X112347619Y-63552380D02*
X112966666Y-63552380D01*
X112633333Y-63933333D01*
X112776190Y-63933333D01*
X112871428Y-63980952D01*
X112919047Y-64028571D01*
X112966666Y-64123809D01*
X112966666Y-64361904D01*
X112919047Y-64457142D01*
X112871428Y-64504761D01*
X112776190Y-64552380D01*
X112490476Y-64552380D01*
X112395238Y-64504761D01*
X112347619Y-64457142D01*
%TO.C,J2*%
X111766666Y-53402380D02*
X111766666Y-54116666D01*
X111719047Y-54259523D01*
X111623809Y-54354761D01*
X111480952Y-54402380D01*
X111385714Y-54402380D01*
X112195238Y-53497619D02*
X112242857Y-53450000D01*
X112338095Y-53402380D01*
X112576190Y-53402380D01*
X112671428Y-53450000D01*
X112719047Y-53497619D01*
X112766666Y-53592857D01*
X112766666Y-53688095D01*
X112719047Y-53830952D01*
X112147619Y-54402380D01*
X112766666Y-54402380D01*
%TO.C,J6*%
X120652380Y-59333333D02*
X121366666Y-59333333D01*
X121509523Y-59380952D01*
X121604761Y-59476190D01*
X121652380Y-59619047D01*
X121652380Y-59714285D01*
X120652380Y-58428571D02*
X120652380Y-58619047D01*
X120700000Y-58714285D01*
X120747619Y-58761904D01*
X120890476Y-58857142D01*
X121080952Y-58904761D01*
X121461904Y-58904761D01*
X121557142Y-58857142D01*
X121604761Y-58809523D01*
X121652380Y-58714285D01*
X121652380Y-58523809D01*
X121604761Y-58428571D01*
X121557142Y-58380952D01*
X121461904Y-58333333D01*
X121223809Y-58333333D01*
X121128571Y-58380952D01*
X121080952Y-58428571D01*
X121033333Y-58523809D01*
X121033333Y-58714285D01*
X121080952Y-58809523D01*
X121128571Y-58857142D01*
X121223809Y-58904761D01*
%TO.C,J4*%
X116666666Y-53452380D02*
X116666666Y-54166666D01*
X116619047Y-54309523D01*
X116523809Y-54404761D01*
X116380952Y-54452380D01*
X116285714Y-54452380D01*
X117571428Y-53785714D02*
X117571428Y-54452380D01*
X117333333Y-53404761D02*
X117095238Y-54119047D01*
X117714285Y-54119047D01*
%TO.C,J8*%
X121002380Y-51333333D02*
X121716666Y-51333333D01*
X121859523Y-51380952D01*
X121954761Y-51476190D01*
X122002380Y-51619047D01*
X122002380Y-51714285D01*
X121430952Y-50714285D02*
X121383333Y-50809523D01*
X121335714Y-50857142D01*
X121240476Y-50904761D01*
X121192857Y-50904761D01*
X121097619Y-50857142D01*
X121050000Y-50809523D01*
X121002380Y-50714285D01*
X121002380Y-50523809D01*
X121050000Y-50428571D01*
X121097619Y-50380952D01*
X121192857Y-50333333D01*
X121240476Y-50333333D01*
X121335714Y-50380952D01*
X121383333Y-50428571D01*
X121430952Y-50523809D01*
X121430952Y-50714285D01*
X121478571Y-50809523D01*
X121526190Y-50857142D01*
X121621428Y-50904761D01*
X121811904Y-50904761D01*
X121907142Y-50857142D01*
X121954761Y-50809523D01*
X122002380Y-50714285D01*
X122002380Y-50523809D01*
X121954761Y-50428571D01*
X121907142Y-50380952D01*
X121811904Y-50333333D01*
X121621428Y-50333333D01*
X121526190Y-50380952D01*
X121478571Y-50428571D01*
X121430952Y-50523809D01*
%TO.C,J7*%
X121202380Y-67333333D02*
X121916666Y-67333333D01*
X122059523Y-67380952D01*
X122154761Y-67476190D01*
X122202380Y-67619047D01*
X122202380Y-67714285D01*
X121202380Y-66952380D02*
X121202380Y-66285714D01*
X122202380Y-66714285D01*
%TO.C,J5*%
X116666666Y-63652380D02*
X116666666Y-64366666D01*
X116619047Y-64509523D01*
X116523809Y-64604761D01*
X116380952Y-64652380D01*
X116285714Y-64652380D01*
X117619047Y-63652380D02*
X117142857Y-63652380D01*
X117095238Y-64128571D01*
X117142857Y-64080952D01*
X117238095Y-64033333D01*
X117476190Y-64033333D01*
X117571428Y-64080952D01*
X117619047Y-64128571D01*
X117666666Y-64223809D01*
X117666666Y-64461904D01*
X117619047Y-64557142D01*
X117571428Y-64604761D01*
X117476190Y-64652380D01*
X117238095Y-64652380D01*
X117142857Y-64604761D01*
X117095238Y-64557142D01*
%TO.C,J1*%
X111202380Y-59333333D02*
X111916666Y-59333333D01*
X112059523Y-59380952D01*
X112154761Y-59476190D01*
X112202380Y-59619047D01*
X112202380Y-59714285D01*
X112202380Y-58333333D02*
X112202380Y-58904761D01*
X112202380Y-58619047D02*
X111202380Y-58619047D01*
X111345238Y-58714285D01*
X111440476Y-58809523D01*
X111488095Y-58904761D01*
D11*
%TO.C,J3*%
X111450000Y-65950000D02*
X106550000Y-65950000D01*
X109100000Y-65950000D02*
X109100000Y-66450000D01*
X110600000Y-70260000D02*
X110600000Y-70060000D01*
X109000000Y-65950000D02*
X109000000Y-66450000D01*
X112060000Y-65340000D02*
X105940000Y-65340000D01*
X111110000Y-70360000D02*
X112360000Y-70360000D01*
X110300000Y-70160000D02*
X110600000Y-70160000D01*
X109500000Y-70060000D02*
X109500000Y-69450000D01*
X108500000Y-69450000D02*
X108500000Y-70060000D01*
X110300000Y-70260000D02*
X110600000Y-70260000D01*
X105940000Y-65340000D02*
X105940000Y-70060000D01*
X105940000Y-70060000D02*
X112060000Y-70060000D01*
X105940000Y-67450000D02*
X106550000Y-67450000D01*
X112060000Y-68750000D02*
X111450000Y-68750000D01*
X112060000Y-67450000D02*
X111450000Y-67450000D01*
X110300000Y-70060000D02*
X110300000Y-70260000D01*
X106550000Y-69450000D02*
X108500000Y-69450000D01*
X109500000Y-69450000D02*
X111450000Y-69450000D01*
X105940000Y-68750000D02*
X106550000Y-68750000D01*
X112360000Y-70360000D02*
X112360000Y-69110000D01*
X112060000Y-70060000D02*
X112060000Y-65340000D01*
X109100000Y-66450000D02*
X108900000Y-66450000D01*
X111450000Y-69450000D02*
X111450000Y-65950000D01*
X108900000Y-66450000D02*
X108900000Y-65950000D01*
X106550000Y-65950000D02*
X106550000Y-69450000D01*
%TO.C,J2*%
X112060000Y-49200000D02*
X111450000Y-49200000D01*
X107700000Y-47790000D02*
X107400000Y-47790000D01*
X107400000Y-47690000D02*
X107400000Y-47890000D01*
X108900000Y-51500000D02*
X109100000Y-51500000D01*
X108500000Y-48500000D02*
X106550000Y-48500000D01*
X106550000Y-52000000D02*
X111450000Y-52000000D01*
X105940000Y-47890000D02*
X105940000Y-52610000D01*
X112060000Y-52610000D02*
X112060000Y-47890000D01*
X111450000Y-48500000D02*
X109500000Y-48500000D01*
X112060000Y-50500000D02*
X111450000Y-50500000D01*
X107700000Y-47690000D02*
X107400000Y-47690000D01*
X109100000Y-51500000D02*
X109100000Y-52000000D01*
X107700000Y-47890000D02*
X107700000Y-47690000D01*
X112060000Y-47890000D02*
X105940000Y-47890000D01*
X105640000Y-47590000D02*
X105640000Y-48840000D01*
X106890000Y-47590000D02*
X105640000Y-47590000D01*
X106550000Y-48500000D02*
X106550000Y-52000000D01*
X109000000Y-52000000D02*
X109000000Y-51500000D01*
X108900000Y-52000000D02*
X108900000Y-51500000D01*
X109500000Y-48500000D02*
X109500000Y-47890000D01*
X105940000Y-50500000D02*
X106550000Y-50500000D01*
X105940000Y-49200000D02*
X106550000Y-49200000D01*
X108500000Y-47890000D02*
X108500000Y-48500000D01*
X111450000Y-52000000D02*
X111450000Y-48500000D01*
X105940000Y-52610000D02*
X112060000Y-52610000D01*
%TO.C,J6*%
X115140000Y-55940000D02*
X115140000Y-62060000D01*
X119960000Y-57700000D02*
X119960000Y-57400000D01*
X118550000Y-55940000D02*
X118550000Y-56550000D01*
X119250000Y-61450000D02*
X119250000Y-59500000D01*
X117250000Y-62060000D02*
X117250000Y-61450000D01*
X115750000Y-59000000D02*
X116250000Y-59000000D01*
X116250000Y-58900000D02*
X116250000Y-59100000D01*
X120060000Y-57700000D02*
X120060000Y-57400000D01*
X119250000Y-59500000D02*
X119860000Y-59500000D01*
X115750000Y-58900000D02*
X116250000Y-58900000D01*
X120060000Y-57400000D02*
X119860000Y-57400000D01*
X119860000Y-62060000D02*
X119860000Y-55940000D01*
X119250000Y-58500000D02*
X119250000Y-56550000D01*
X115750000Y-56550000D02*
X115750000Y-61450000D01*
X118550000Y-62060000D02*
X118550000Y-61450000D01*
X120160000Y-55640000D02*
X118910000Y-55640000D01*
X119860000Y-57700000D02*
X120060000Y-57700000D01*
X116250000Y-59100000D02*
X115750000Y-59100000D01*
X120160000Y-56890000D02*
X120160000Y-55640000D01*
X119860000Y-55940000D02*
X115140000Y-55940000D01*
X119250000Y-56550000D02*
X115750000Y-56550000D01*
X117250000Y-55940000D02*
X117250000Y-56550000D01*
X115750000Y-61450000D02*
X119250000Y-61450000D01*
X119860000Y-58500000D02*
X119250000Y-58500000D01*
X115140000Y-62060000D02*
X119860000Y-62060000D01*
%TO.C,J4*%
X114890000Y-47590000D02*
X113640000Y-47590000D01*
X116900000Y-52000000D02*
X116900000Y-51500000D01*
X113940000Y-50500000D02*
X114550000Y-50500000D01*
X115700000Y-47790000D02*
X115400000Y-47790000D01*
X116500000Y-47890000D02*
X116500000Y-48500000D01*
X113940000Y-49200000D02*
X114550000Y-49200000D01*
X120060000Y-52610000D02*
X120060000Y-47890000D01*
X114550000Y-48500000D02*
X114550000Y-52000000D01*
X115400000Y-47690000D02*
X115400000Y-47890000D01*
X117100000Y-51500000D02*
X117100000Y-52000000D01*
X113640000Y-47590000D02*
X113640000Y-48840000D01*
X115700000Y-47690000D02*
X115400000Y-47690000D01*
X115700000Y-47890000D02*
X115700000Y-47690000D01*
X113940000Y-47890000D02*
X113940000Y-52610000D01*
X117500000Y-48500000D02*
X117500000Y-47890000D01*
X119450000Y-48500000D02*
X117500000Y-48500000D01*
X113940000Y-52610000D02*
X120060000Y-52610000D01*
X120060000Y-49200000D02*
X119450000Y-49200000D01*
X119450000Y-52000000D02*
X119450000Y-48500000D01*
X117000000Y-52000000D02*
X117000000Y-51500000D01*
X116500000Y-48500000D02*
X114550000Y-48500000D01*
X120060000Y-50500000D02*
X119450000Y-50500000D01*
X120060000Y-47890000D02*
X113940000Y-47890000D01*
X114550000Y-52000000D02*
X119450000Y-52000000D01*
X116900000Y-51500000D02*
X117100000Y-51500000D01*
%TO.C,J8*%
X127610000Y-50500000D02*
X127000000Y-50500000D01*
X127810000Y-49400000D02*
X127610000Y-49400000D01*
X122890000Y-47940000D02*
X122890000Y-54060000D01*
X127000000Y-50500000D02*
X127000000Y-48550000D01*
X124000000Y-50900000D02*
X124000000Y-51100000D01*
X126300000Y-47940000D02*
X126300000Y-48550000D01*
X127000000Y-48550000D02*
X123500000Y-48550000D01*
X127610000Y-54060000D02*
X127610000Y-47940000D01*
X126300000Y-54060000D02*
X126300000Y-53450000D01*
X123500000Y-53450000D02*
X127000000Y-53450000D01*
X127910000Y-47640000D02*
X126660000Y-47640000D01*
X123500000Y-51000000D02*
X124000000Y-51000000D01*
X123500000Y-50900000D02*
X124000000Y-50900000D01*
X123500000Y-48550000D02*
X123500000Y-53450000D01*
X127710000Y-49700000D02*
X127710000Y-49400000D01*
X125000000Y-54060000D02*
X125000000Y-53450000D01*
X122890000Y-54060000D02*
X127610000Y-54060000D01*
X127000000Y-53450000D02*
X127000000Y-51500000D01*
X127000000Y-51500000D02*
X127610000Y-51500000D01*
X127610000Y-47940000D02*
X122890000Y-47940000D01*
X125000000Y-47940000D02*
X125000000Y-48550000D01*
X124000000Y-51100000D02*
X123500000Y-51100000D01*
X127610000Y-49700000D02*
X127810000Y-49700000D01*
X127810000Y-49700000D02*
X127810000Y-49400000D01*
X127910000Y-48890000D02*
X127910000Y-47640000D01*
%TO.C,J7*%
X127610000Y-66500000D02*
X127000000Y-66500000D01*
X127810000Y-65700000D02*
X127810000Y-65400000D01*
X122890000Y-70060000D02*
X127610000Y-70060000D01*
X123500000Y-67000000D02*
X124000000Y-67000000D01*
X127710000Y-65700000D02*
X127710000Y-65400000D01*
X127610000Y-63940000D02*
X122890000Y-63940000D01*
X127000000Y-66500000D02*
X127000000Y-64550000D01*
X123500000Y-66900000D02*
X124000000Y-66900000D01*
X127000000Y-64550000D02*
X123500000Y-64550000D01*
X126300000Y-70060000D02*
X126300000Y-69450000D01*
X125000000Y-63940000D02*
X125000000Y-64550000D01*
X127000000Y-69450000D02*
X127000000Y-67500000D01*
X127910000Y-63640000D02*
X126660000Y-63640000D01*
X123500000Y-69450000D02*
X127000000Y-69450000D01*
X124000000Y-66900000D02*
X124000000Y-67100000D01*
X122890000Y-63940000D02*
X122890000Y-70060000D01*
X127910000Y-64890000D02*
X127910000Y-63640000D01*
X124000000Y-67100000D02*
X123500000Y-67100000D01*
X127810000Y-65400000D02*
X127610000Y-65400000D01*
X123500000Y-64550000D02*
X123500000Y-69450000D01*
X126300000Y-63940000D02*
X126300000Y-64550000D01*
X125000000Y-70060000D02*
X125000000Y-69450000D01*
X127610000Y-65700000D02*
X127810000Y-65700000D01*
X127610000Y-70060000D02*
X127610000Y-63940000D01*
X127000000Y-67500000D02*
X127610000Y-67500000D01*
%TO.C,J5*%
X113940000Y-67450000D02*
X114550000Y-67450000D01*
X118600000Y-70260000D02*
X118600000Y-70060000D01*
X113940000Y-70060000D02*
X120060000Y-70060000D01*
X113940000Y-68750000D02*
X114550000Y-68750000D01*
X119450000Y-69450000D02*
X119450000Y-65950000D01*
X117500000Y-69450000D02*
X119450000Y-69450000D01*
X117100000Y-65950000D02*
X117100000Y-66450000D01*
X114550000Y-65950000D02*
X114550000Y-69450000D01*
X116900000Y-66450000D02*
X116900000Y-65950000D01*
X117500000Y-70060000D02*
X117500000Y-69450000D01*
X120360000Y-70360000D02*
X120360000Y-69110000D01*
X119450000Y-65950000D02*
X114550000Y-65950000D01*
X117100000Y-66450000D02*
X116900000Y-66450000D01*
X114550000Y-69450000D02*
X116500000Y-69450000D01*
X119110000Y-70360000D02*
X120360000Y-70360000D01*
X120060000Y-67450000D02*
X119450000Y-67450000D01*
X120060000Y-65340000D02*
X113940000Y-65340000D01*
X117000000Y-65950000D02*
X117000000Y-66450000D01*
X120060000Y-70060000D02*
X120060000Y-65340000D01*
X116500000Y-69450000D02*
X116500000Y-70060000D01*
X113940000Y-65340000D02*
X113940000Y-70060000D01*
X120060000Y-68750000D02*
X119450000Y-68750000D01*
X118300000Y-70160000D02*
X118600000Y-70160000D01*
X118300000Y-70060000D02*
X118300000Y-70260000D01*
X118300000Y-70260000D02*
X118600000Y-70260000D01*
%TO.C,J1*%
X106580000Y-62570000D02*
X106544000Y-62535000D01*
X104282000Y-60273000D02*
X104236000Y-60226000D01*
X110566000Y-64060000D02*
X100645000Y-64060000D01*
X104066000Y-60466000D02*
X104031000Y-60431000D01*
X100645000Y-53940000D02*
X100645000Y-64060000D01*
X107606000Y-53940000D02*
X107606000Y-64060000D01*
X102705000Y-53940000D02*
X102705000Y-64060000D01*
X100405000Y-53700000D02*
X100405000Y-54200000D01*
X110566000Y-53940000D02*
X100645000Y-53940000D01*
X101145000Y-53700000D02*
X100405000Y-53700000D01*
X106374000Y-62775000D02*
X106328000Y-62728000D01*
X101205000Y-53940000D02*
X101205000Y-64060000D01*
X110566000Y-53940000D02*
X110566000Y-64060000D01*
X106840000Y-57184000D02*
G75*
G03*
X106840427Y-55816958I-1534993J684001D01*
G01*
X105989000Y-54965000D02*
G75*
G03*
X104621958Y-54964573I-684001J-1534993D01*
G01*
X103625000Y-56500000D02*
G75*
G03*
X103770244Y-57183318I1680000J0D01*
G01*
X103770000Y-55816000D02*
G75*
G03*
X103624747Y-56528805I1535001J-683999D01*
G01*
X104621000Y-58035001D02*
G75*
G03*
X105988042Y-58035427I684000J1535001D01*
G01*
X106985000Y-61500000D02*
G75*
G03*
X106985000Y-61500000I-1680000J0D01*
G01*
%TD*%
M02*
