  0
SECTION
  2
HEADER
  9
$ANGBASE
  50
0.0
  9
$ANGDIR
  70
1
  9
$MEASUREMENT
  70
0
  0
ENDSEC
  0
SECTION
  2
TABLES
  0
TABLE
  2
LTYPE
  70
4
  0
LTYPE
  5
40F
  2
CONTINUOUS
  70
0
  3
Solid line
  72
65
  73
0
  40
0.0
  0
LTYPE
  5
410
  2
DASHDOT
 70
0
  3
Dash Dot ____ _ ____ _
 72
65
 73
4
 40
2.0
 49
1.25
 49
-0.25
 49
0.25
 49
-0.25
  0
LTYPE
  5
411
  2
DASHED
 70
0
  3
Dashed __ __ __ __ __
 72
65
 73
2
 40
0.75
 49
0.5
 49
-0.25
  0
LTYPE
  5
43B
  2
DOTTED
 70
0
  3
Dotted .  .  .  .
 72
65
 73
2
 40
0.2
 49
0.0
 49
-0.2
  0
ENDTAB
  0
TABLE
  2
STYLE
  70
4
  0
STYLE
  2
KICAD
  70
0
  40
0
  41
1
  42
1
  50
0
  71
0
  3
isocp.shx
  0
STYLE
  2
KICADB
  70
0
  40
0
  41
1
  42
1
  50
0
  71
0
  3
isocp.shx
  0
STYLE
  2
KICADI
  70
0
  40
0
  41
1
  42
1
  50
15
  71
0
  3
isocp.shx
  0
STYLE
  2
KICADBI
  70
0
  40
0
  41
1
  42
1
  50
15
  71
0
  3
isocp.shx
  0
ENDTAB
  0
TABLE
  2
LAYER
  70
1
  0
LAYER
  2
BLACK
  70
0
  62
7
  6
CONTINUOUS
  0
ENDTAB
  0
ENDSEC
  0
SECTION
  2
ENTITIES
0
LINE
8
BLACK
6
CONTINUOUS
10
5.51203
20
-1.77
11
5.51226
21
-1.76997
0
LINE
8
BLACK
6
CONTINUOUS
10
5.51226
20
-1.76997
11
5.51245
21
-1.77012
0
LINE
8
BLACK
6
CONTINUOUS
10
5.51245
20
-1.77012
11
5.51268
21
-1.77015
0
LINE
8
BLACK
6
CONTINUOUS
10
5.51268
20
-1.77015
11
6.60373
21
-2.40007
0
LINE
8
BLACK
6
CONTINUOUS
10
6.60373
20
-2.40007
11
6.60388
21
-2.40026
0
LINE
8
BLACK
6
CONTINUOUS
10
6.60388
20
-2.40026
11
6.60409
21
-2.40035
0
LINE
8
BLACK
6
CONTINUOUS
10
6.60409
20
-2.40035
11
6.60427
21
-2.40076
0
LINE
8
BLACK
6
CONTINUOUS
10
6.60427
20
-2.40076
11
6.60454
21
-2.40112
0
LINE
8
BLACK
6
CONTINUOUS
10
6.60454
20
-2.40112
11
6.60451
21
-2.40136
0
LINE
8
BLACK
6
CONTINUOUS
10
6.60451
20
-2.40136
11
6.6046
21
-2.40157
0
LINE
8
BLACK
6
CONTINUOUS
10
6.6046
20
-2.40157
11
6.6046
21
-3.66141
0
LINE
8
BLACK
6
CONTINUOUS
10
6.6046
20
-3.66141
11
6.60451
21
-3.66163
0
LINE
8
BLACK
6
CONTINUOUS
10
6.60451
20
-3.66163
11
6.60454
21
-3.66186
0
LINE
8
BLACK
6
CONTINUOUS
10
6.60454
20
-3.66186
11
6.60427
21
-3.66222
0
LINE
8
BLACK
6
CONTINUOUS
10
6.60427
20
-3.66222
11
6.60409
21
-3.66264
0
LINE
8
BLACK
6
CONTINUOUS
10
6.60409
20
-3.66264
11
6.60388
21
-3.66273
0
LINE
8
BLACK
6
CONTINUOUS
10
6.60388
20
-3.66273
11
6.60373
21
-3.66292
0
LINE
8
BLACK
6
CONTINUOUS
10
6.60373
20
-3.66292
11
5.51268
21
-4.29284
0
LINE
8
BLACK
6
CONTINUOUS
10
5.51268
20
-4.29284
11
5.51245
21
-4.29288
0
LINE
8
BLACK
6
CONTINUOUS
10
5.51245
20
-4.29288
11
5.51226
21
-4.29302
0
LINE
8
BLACK
6
CONTINUOUS
10
5.51226
20
-4.29302
11
5.51181
21
-4.29296
0
LINE
8
BLACK
6
CONTINUOUS
10
5.51181
20
-4.29296
11
5.51136
21
-4.29302
0
LINE
8
BLACK
6
CONTINUOUS
10
5.51136
20
-4.29302
11
5.51118
21
-4.29288
0
LINE
8
BLACK
6
CONTINUOUS
10
5.51118
20
-4.29288
11
5.51094
21
-4.29284
0
LINE
8
BLACK
6
CONTINUOUS
10
5.51094
20
-4.29284
11
4.41989
21
-3.66292
0
LINE
8
BLACK
6
CONTINUOUS
10
4.41989
20
-3.66292
11
4.41975
21
-3.66273
0
LINE
8
BLACK
6
CONTINUOUS
10
4.41975
20
-3.66273
11
4.41953
21
-3.66264
0
LINE
8
BLACK
6
CONTINUOUS
10
4.41953
20
-3.66264
11
4.41935
21
-3.66222
0
LINE
8
BLACK
6
CONTINUOUS
10
4.41935
20
-3.66222
11
4.41908
21
-3.66186
0
LINE
8
BLACK
6
CONTINUOUS
10
4.41908
20
-3.66186
11
4.41911
21
-3.66163
0
LINE
8
BLACK
6
CONTINUOUS
10
4.41911
20
-3.66163
11
4.41902
21
-3.66141
0
LINE
8
BLACK
6
CONTINUOUS
10
4.41902
20
-3.66141
11
4.41902
21
-2.40157
0
LINE
8
BLACK
6
CONTINUOUS
10
4.41902
20
-2.40157
11
4.41911
21
-2.40136
0
LINE
8
BLACK
6
CONTINUOUS
10
4.41911
20
-2.40136
11
4.41908
21
-2.40112
0
LINE
8
BLACK
6
CONTINUOUS
10
4.41908
20
-2.40112
11
4.41935
21
-2.40076
0
LINE
8
BLACK
6
CONTINUOUS
10
4.41935
20
-2.40076
11
4.41953
21
-2.40035
0
LINE
8
BLACK
6
CONTINUOUS
10
4.41953
20
-2.40035
11
4.41975
21
-2.40026
0
LINE
8
BLACK
6
CONTINUOUS
10
4.41975
20
-2.40026
11
4.41989
21
-2.40007
0
LINE
8
BLACK
6
CONTINUOUS
10
4.41989
20
-2.40007
11
5.51094
21
-1.77015
0
LINE
8
BLACK
6
CONTINUOUS
10
5.51094
20
-1.77015
11
5.51118
21
-1.77012
0
LINE
8
BLACK
6
CONTINUOUS
10
5.51118
20
-1.77012
11
5.51136
21
-1.76997
0
LINE
8
BLACK
6
CONTINUOUS
10
5.51136
20
-1.76997
11
5.5116
21
-1.77
0
LINE
8
BLACK
6
CONTINUOUS
10
5.5116
20
-1.77
11
5.51181
21
-1.76991
0
LINE
8
BLACK
6
CONTINUOUS
10
5.51181
20
-1.76991
11
5.51203
21
-1.77
0
LINE
8
BLACK
6
CONTINUOUS
10
4.4225
20
-2.40258
11
4.4225
21
-3.66041
0
LINE
8
BLACK
6
CONTINUOUS
10
4.4225
20
-3.66041
11
5.51181
21
-4.28933
0
LINE
8
BLACK
6
CONTINUOUS
10
5.51181
20
-4.28933
11
6.60113
21
-3.66041
0
LINE
8
BLACK
6
CONTINUOUS
10
6.60113
20
-3.66041
11
6.60113
21
-2.40258
0
LINE
8
BLACK
6
CONTINUOUS
10
6.60113
20
-2.40258
11
5.51181
21
-1.77366
0
LINE
8
BLACK
6
CONTINUOUS
10
5.51181
20
-1.77366
11
4.4225
21
-2.40258
  0
ENDSEC
  0
EOF
