  0
SECTION
  2
HEADER
  9
$ANGBASE
  50
0.0
  9
$ANGDIR
  70
1
  9
$MEASUREMENT
  70
0
  0
ENDSEC
  0
SECTION
  2
TABLES
  0
TABLE
  2
LTYPE
  70
4
  0
LTYPE
  5
40F
  2
CONTINUOUS
  70
0
  3
Solid line
  72
65
  73
0
  40
0.0
  0
LTYPE
  5
410
  2
DASHDOT
 70
0
  3
Dash Dot ____ _ ____ _
 72
65
 73
4
 40
2.0
 49
1.25
 49
-0.25
 49
0.25
 49
-0.25
  0
LTYPE
  5
411
  2
DASHED
 70
0
  3
Dashed __ __ __ __ __
 72
65
 73
2
 40
0.75
 49
0.5
 49
-0.25
  0
LTYPE
  5
43B
  2
DOTTED
 70
0
  3
Dotted .  .  .  .
 72
65
 73
2
 40
0.2
 49
0.0
 49
-0.2
  0
ENDTAB
  0
TABLE
  2
STYLE
  70
4
  0
STYLE
  2
KICAD
  70
0
  40
0
  41
1
  42
1
  50
0
  71
0
  3
isocp.shx
  0
STYLE
  2
KICADB
  70
0
  40
0
  41
1
  42
1
  50
0
  71
0
  3
isocp.shx
  0
STYLE
  2
KICADI
  70
0
  40
0
  41
1
  42
1
  50
15
  71
0
  3
isocp.shx
  0
STYLE
  2
KICADBI
  70
0
  40
0
  41
1
  42
1
  50
15
  71
0
  3
isocp.shx
  0
ENDTAB
  0
TABLE
  2
LAYER
  70
1
  0
LAYER
  2
BLACK
  70
0
  62
7
  6
CONTINUOUS
  0
ENDTAB
  0
ENDSEC
  0
SECTION
  2
ENTITIES
0
CIRCLE
8
BLACK
10
6.49606
20
-3.59843
40
0.0433071
0
CIRCLE
8
BLACK
10
4.52756
20
-2.46457
40
0.0433071
0
CIRCLE
8
BLACK
10
4.52756
20
-3.59449
40
0.0433071
0
CIRCLE
8
BLACK
10
6.49606
20
-2.46063
40
0.0433071
0
LINE
8
BLACK
6
CONTINUOUS
10
6.49705
20
-3.30709
11
6.5187
21
-3.30709
0
LINE
8
BLACK
6
CONTINUOUS
10
6.49705
20
-3.25984
11
6.5187
21
-3.25984
0
ARC
8
BLACK
10
6.5187
20
-3.28346
40
0.023622
50
270
51
450
0
ARC
8
BLACK
10
6.49705
20
-3.28346
40
0.023622
50
90
51
270
0
LINE
8
BLACK
6
CONTINUOUS
10
6.48327
20
-3.38583
11
6.4795
21
-3.38508
0
LINE
8
BLACK
6
CONTINUOUS
10
6.4795
20
-3.38508
11
6.47631
21
-3.38294
0
LINE
8
BLACK
6
CONTINUOUS
10
6.47631
20
-3.38294
11
6.47417
21
-3.37975
0
LINE
8
BLACK
6
CONTINUOUS
10
6.47417
20
-3.37975
11
6.47343
21
-3.37598
0
LINE
8
BLACK
6
CONTINUOUS
10
6.47343
20
-3.37598
11
6.47343
21
-3.34843
0
LINE
8
BLACK
6
CONTINUOUS
10
6.47343
20
-3.34843
11
6.47417
21
-3.34466
0
LINE
8
BLACK
6
CONTINUOUS
10
6.47417
20
-3.34466
11
6.47631
21
-3.34147
0
LINE
8
BLACK
6
CONTINUOUS
10
6.47631
20
-3.34147
11
6.4795
21
-3.33933
0
LINE
8
BLACK
6
CONTINUOUS
10
6.4795
20
-3.33933
11
6.48327
21
-3.33858
0
LINE
8
BLACK
6
CONTINUOUS
10
6.48327
20
-3.33858
11
6.53248
21
-3.33858
0
LINE
8
BLACK
6
CONTINUOUS
10
6.53248
20
-3.33858
11
6.53625
21
-3.33933
0
LINE
8
BLACK
6
CONTINUOUS
10
6.53625
20
-3.33933
11
6.53944
21
-3.34147
0
LINE
8
BLACK
6
CONTINUOUS
10
6.53944
20
-3.34147
11
6.54157
21
-3.34466
0
LINE
8
BLACK
6
CONTINUOUS
10
6.54157
20
-3.34466
11
6.54232
21
-3.34843
0
LINE
8
BLACK
6
CONTINUOUS
10
6.54232
20
-3.34843
11
6.54232
21
-3.37598
0
LINE
8
BLACK
6
CONTINUOUS
10
6.54232
20
-3.37598
11
6.54157
21
-3.37975
0
LINE
8
BLACK
6
CONTINUOUS
10
6.54157
20
-3.37975
11
6.53944
21
-3.38294
0
LINE
8
BLACK
6
CONTINUOUS
10
6.53944
20
-3.38294
11
6.53625
21
-3.38508
0
LINE
8
BLACK
6
CONTINUOUS
10
6.53625
20
-3.38508
11
6.53248
21
-3.38583
0
LINE
8
BLACK
6
CONTINUOUS
10
6.53248
20
-3.38583
11
6.48327
21
-3.38583
0
CIRCLE
8
BLACK
10
5.88583
20
-3.14961
40
0.0393701
0
CIRCLE
8
BLACK
10
5.88583
20
-3.34646
40
0.0393701
0
CIRCLE
8
BLACK
10
5.88583
20
-3.58268
40
0.0393701
0
CIRCLE
8
BLACK
10
5.88583
20
-3.77953
40
0.0393701
0
CIRCLE
8
BLACK
10
5.51181
20
-3.79921
40
0.0393701
0
CIRCLE
8
BLACK
10
5.51181
20
-3.99606
40
0.0393701
0
CIRCLE
8
BLACK
10
4.76378
20
-2.69685
40
0.0393701
0
CIRCLE
8
BLACK
10
4.76378
20
-2.5
40
0.0393701
0
CIRCLE
8
BLACK
10
5.1378
20
-2.48031
40
0.0393701
0
CIRCLE
8
BLACK
10
5.1378
20
-2.28346
40
0.0393701
0
CIRCLE
8
BLACK
10
4.76378
20
-3.36614
40
0.0393701
0
CIRCLE
8
BLACK
10
4.76378
20
-3.56299
40
0.0393701
0
CIRCLE
8
BLACK
10
5.51181
20
-2.93307
40
0.0393701
0
CIRCLE
8
BLACK
10
5.51181
20
-3.12992
40
0.0393701
0
CIRCLE
8
BLACK
10
6.25984
20
-3.36614
40
0.0393701
0
CIRCLE
8
BLACK
10
6.25984
20
-3.56299
40
0.0393701
0
CIRCLE
8
BLACK
10
5.51181
20
-2.06693
40
0.0393701
0
CIRCLE
8
BLACK
10
5.51181
20
-2.26378
40
0.0393701
0
CIRCLE
8
BLACK
10
5.88583
20
-2.71654
40
0.0393701
0
CIRCLE
8
BLACK
10
5.88583
20
-2.91339
40
0.0393701
0
CIRCLE
8
BLACK
10
5.1378
20
-3.58268
40
0.0393701
0
CIRCLE
8
BLACK
10
5.1378
20
-3.77953
40
0.0393701
0
CIRCLE
8
BLACK
10
5.51181
20
-3.36614
40
0.0393701
0
CIRCLE
8
BLACK
10
5.51181
20
-3.56299
40
0.0393701
0
CIRCLE
8
BLACK
10
5.51181
20
-2.5
40
0.0393701
0
CIRCLE
8
BLACK
10
5.51181
20
-2.69685
40
0.0393701
0
CIRCLE
8
BLACK
10
6.25984
20
-2.93307
40
0.0393701
0
CIRCLE
8
BLACK
10
6.25984
20
-3.12992
40
0.0393701
0
CIRCLE
8
BLACK
10
6.25984
20
-2.5
40
0.0393701
0
CIRCLE
8
BLACK
10
6.25984
20
-2.69685
40
0.0393701
0
CIRCLE
8
BLACK
10
5.88583
20
-2.28346
40
0.0393701
0
CIRCLE
8
BLACK
10
5.88583
20
-2.48031
40
0.0393701
0
CIRCLE
8
BLACK
10
4.76378
20
-2.93307
40
0.0393701
0
CIRCLE
8
BLACK
10
4.76378
20
-3.12992
40
0.0393701
0
CIRCLE
8
BLACK
10
5.1378
20
-3.14961
40
0.0393701
0
CIRCLE
8
BLACK
10
5.1378
20
-3.34646
40
0.0393701
0
CIRCLE
8
BLACK
10
5.1378
20
-2.71654
40
0.0393701
0
CIRCLE
8
BLACK
10
5.1378
20
-2.91339
40
0.0393701
0
CIRCLE
8
BLACK
10
5.76772
20
-2.8248
40
0.0393701
0
CIRCLE
8
BLACK
10
5.62205
20
-2.82283
40
0.0393701
0
CIRCLE
8
BLACK
10
5.35433
20
-3.20276
40
0.0393701
  0
ENDSEC
  0
EOF
