  0
SECTION
  2
HEADER
  9
$ANGBASE
  50
0.0
  9
$ANGDIR
  70
1
  9
$MEASUREMENT
  70
0
  0
ENDSEC
  0
SECTION
  2
TABLES
  0
TABLE
  2
LTYPE
  70
4
  0
LTYPE
  5
40F
  2
CONTINUOUS
  70
0
  3
Solid line
  72
65
  73
0
  40
0.0
  0
LTYPE
  5
410
  2
DASHDOT
 70
0
  3
Dash Dot ____ _ ____ _
 72
65
 73
4
 40
2.0
 49
1.25
 49
-0.25
 49
0.25
 49
-0.25
  0
LTYPE
  5
411
  2
DASHED
 70
0
  3
Dashed __ __ __ __ __
 72
65
 73
2
 40
0.75
 49
0.5
 49
-0.25
  0
LTYPE
  5
43B
  2
DOTTED
 70
0
  3
Dotted .  .  .  .
 72
65
 73
2
 40
0.2
 49
0.0
 49
-0.2
  0
ENDTAB
  0
TABLE
  2
STYLE
  70
4
  0
STYLE
  2
KICAD
  70
0
  40
0
  41
1
  42
1
  50
0
  71
0
  3
isocp.shx
  0
STYLE
  2
KICADB
  70
0
  40
0
  41
1
  42
1
  50
0
  71
0
  3
isocp.shx
  0
STYLE
  2
KICADI
  70
0
  40
0
  41
1
  42
1
  50
15
  71
0
  3
isocp.shx
  0
STYLE
  2
KICADBI
  70
0
  40
0
  41
1
  42
1
  50
15
  71
0
  3
isocp.shx
  0
ENDTAB
  0
TABLE
  2
LAYER
  70
1
  0
LAYER
  2
BLACK
  70
0
  62
7
  6
CONTINUOUS
  0
ENDTAB
  0
ENDSEC
  0
SECTION
  2
ENTITIES
0
LINE
8
BLACK
6
CONTINUOUS
10
5.29227
20
-4.00864
11
5.29666
21
-4.01088
0
LINE
8
BLACK
6
CONTINUOUS
10
5.29666
20
-4.01088
11
5.30014
21
-4.01437
0
LINE
8
BLACK
6
CONTINUOUS
10
5.30014
20
-4.01437
11
5.30238
21
-4.01876
0
LINE
8
BLACK
6
CONTINUOUS
10
5.30238
20
-4.01876
11
5.30315
21
-4.02362
0
LINE
8
BLACK
6
CONTINUOUS
10
5.30315
20
-4.02362
11
5.30238
21
-4.02849
0
LINE
8
BLACK
6
CONTINUOUS
10
5.30238
20
-4.02849
11
5.30014
21
-4.03288
0
LINE
8
BLACK
6
CONTINUOUS
10
5.30014
20
-4.03288
11
5.29666
21
-4.03636
0
LINE
8
BLACK
6
CONTINUOUS
10
5.29666
20
-4.03636
11
5.29227
21
-4.0386
0
LINE
8
BLACK
6
CONTINUOUS
10
5.29227
20
-4.0386
11
5.2874
21
-4.03937
0
LINE
8
BLACK
6
CONTINUOUS
10
5.2874
20
-4.03937
11
5.28254
21
-4.0386
0
LINE
8
BLACK
6
CONTINUOUS
10
5.28254
20
-4.0386
11
5.27815
21
-4.03636
0
LINE
8
BLACK
6
CONTINUOUS
10
5.27815
20
-4.03636
11
5.27466
21
-4.03288
0
LINE
8
BLACK
6
CONTINUOUS
10
5.27466
20
-4.03288
11
5.27242
21
-4.02849
0
LINE
8
BLACK
6
CONTINUOUS
10
5.27242
20
-4.02849
11
5.27165
21
-4.02362
0
LINE
8
BLACK
6
CONTINUOUS
10
5.27165
20
-4.02362
11
5.27242
21
-4.01876
0
LINE
8
BLACK
6
CONTINUOUS
10
5.27242
20
-4.01876
11
5.27466
21
-4.01437
0
LINE
8
BLACK
6
CONTINUOUS
10
5.27466
20
-4.01437
11
5.27815
21
-4.01088
0
LINE
8
BLACK
6
CONTINUOUS
10
5.27815
20
-4.01088
11
5.28254
21
-4.00864
0
LINE
8
BLACK
6
CONTINUOUS
10
5.28254
20
-4.00864
11
5.2874
21
-4.00787
0
LINE
8
BLACK
6
CONTINUOUS
10
5.2874
20
-4.00787
11
5.29227
21
-4.00864
0
LINE
8
BLACK
6
CONTINUOUS
10
5.51973
20
-3.9575
11
5.52707
21
-3.95977
0
LINE
8
BLACK
6
CONTINUOUS
10
5.52707
20
-3.95977
11
5.53383
21
-3.96342
0
LINE
8
BLACK
6
CONTINUOUS
10
5.53383
20
-3.96342
11
5.53975
21
-3.96832
0
LINE
8
BLACK
6
CONTINUOUS
10
5.53975
20
-3.96832
11
5.5446
21
-3.97428
0
LINE
8
BLACK
6
CONTINUOUS
10
5.5446
20
-3.97428
11
5.54821
21
-3.98106
0
LINE
8
BLACK
6
CONTINUOUS
10
5.54821
20
-3.98106
11
5.55043
21
-3.98842
0
LINE
8
BLACK
6
CONTINUOUS
10
5.55043
20
-3.98842
11
5.55118
21
-3.99606
0
LINE
8
BLACK
6
CONTINUOUS
10
5.55118
20
-3.99606
11
5.55117
21
-3.99716
0
LINE
8
BLACK
6
CONTINUOUS
10
5.55117
20
-3.99716
11
5.5502
21
-4.00479
0
LINE
8
BLACK
6
CONTINUOUS
10
5.5502
20
-4.00479
11
5.54778
21
-4.01208
0
LINE
8
BLACK
6
CONTINUOUS
10
5.54778
20
-4.01208
11
5.54398
21
-4.01876
0
LINE
8
BLACK
6
CONTINUOUS
10
5.54398
20
-4.01876
11
5.53896
21
-4.02457
0
LINE
8
BLACK
6
CONTINUOUS
10
5.53896
20
-4.02457
11
5.53291
21
-4.0293
0
LINE
8
BLACK
6
CONTINUOUS
10
5.53291
20
-4.0293
11
5.52605
21
-4.03277
0
LINE
8
BLACK
6
CONTINUOUS
10
5.52605
20
-4.03277
11
5.51865
21
-4.03483
0
LINE
8
BLACK
6
CONTINUOUS
10
5.51865
20
-4.03483
11
5.51099
21
-4.03542
0
LINE
8
BLACK
6
CONTINUOUS
10
5.51099
20
-4.03542
11
5.50336
21
-4.03451
0
LINE
8
BLACK
6
CONTINUOUS
10
5.50336
20
-4.03451
11
5.49605
21
-4.03214
0
LINE
8
BLACK
6
CONTINUOUS
10
5.49605
20
-4.03214
11
5.48934
21
-4.02839
0
LINE
8
BLACK
6
CONTINUOUS
10
5.48934
20
-4.02839
11
5.48349
21
-4.02341
0
LINE
8
BLACK
6
CONTINUOUS
10
5.48349
20
-4.02341
11
5.47872
21
-4.01739
0
LINE
8
BLACK
6
CONTINUOUS
10
5.47872
20
-4.01739
11
5.47521
21
-4.01056
0
LINE
8
BLACK
6
CONTINUOUS
10
5.47521
20
-4.01056
11
5.47309
21
-4.00317
0
LINE
8
BLACK
6
CONTINUOUS
10
5.47309
20
-4.00317
11
5.47244
21
-3.99551
0
LINE
8
BLACK
6
CONTINUOUS
10
5.47244
20
-3.99551
11
5.4733
21
-3.98788
0
LINE
8
BLACK
6
CONTINUOUS
10
5.4733
20
-3.98788
11
5.47562
21
-3.98055
0
LINE
8
BLACK
6
CONTINUOUS
10
5.47562
20
-3.98055
11
5.47933
21
-3.97382
0
LINE
8
BLACK
6
CONTINUOUS
10
5.47933
20
-3.97382
11
5.48427
21
-3.96793
0
LINE
8
BLACK
6
CONTINUOUS
10
5.48427
20
-3.96793
11
5.49025
21
-3.96312
0
LINE
8
BLACK
6
CONTINUOUS
10
5.49025
20
-3.96312
11
5.49706
21
-3.95956
0
LINE
8
BLACK
6
CONTINUOUS
10
5.49706
20
-3.95956
11
5.50443
21
-3.95739
0
LINE
8
BLACK
6
CONTINUOUS
10
5.50443
20
-3.95739
11
5.51209
21
-3.95669
0
LINE
8
BLACK
6
CONTINUOUS
10
5.51209
20
-3.95669
11
5.51973
21
-3.9575
0
LINE
8
BLACK
6
CONTINUOUS
10
5.33479
20
-3.80904
11
5.33918
21
-3.81128
0
LINE
8
BLACK
6
CONTINUOUS
10
5.33918
20
-3.81128
11
5.34266
21
-3.81476
0
LINE
8
BLACK
6
CONTINUOUS
10
5.34266
20
-3.81476
11
5.3449
21
-3.81915
0
LINE
8
BLACK
6
CONTINUOUS
10
5.3449
20
-3.81915
11
5.34567
21
-3.82402
0
LINE
8
BLACK
6
CONTINUOUS
10
5.34567
20
-3.82402
11
5.3449
21
-3.82888
0
LINE
8
BLACK
6
CONTINUOUS
10
5.3449
20
-3.82888
11
5.34387
21
-3.8309
0
LINE
8
BLACK
6
CONTINUOUS
10
5.34387
20
-3.8309
11
5.37698
21
-3.864
0
LINE
8
BLACK
6
CONTINUOUS
10
5.37698
20
-3.864
11
5.37899
21
-3.86298
0
LINE
8
BLACK
6
CONTINUOUS
10
5.37899
20
-3.86298
11
5.38386
21
-3.8622
0
LINE
8
BLACK
6
CONTINUOUS
10
5.38386
20
-3.8622
11
5.38872
21
-3.86298
0
LINE
8
BLACK
6
CONTINUOUS
10
5.38872
20
-3.86298
11
5.39311
21
-3.86521
0
LINE
8
BLACK
6
CONTINUOUS
10
5.39311
20
-3.86521
11
5.3966
21
-3.8687
0
LINE
8
BLACK
6
CONTINUOUS
10
5.3966
20
-3.8687
11
5.39884
21
-3.87309
0
LINE
8
BLACK
6
CONTINUOUS
10
5.39884
20
-3.87309
11
5.39961
21
-3.87795
0
LINE
8
BLACK
6
CONTINUOUS
10
5.39961
20
-3.87795
11
5.39884
21
-3.88282
0
LINE
8
BLACK
6
CONTINUOUS
10
5.39884
20
-3.88282
11
5.3966
21
-3.88721
0
LINE
8
BLACK
6
CONTINUOUS
10
5.3966
20
-3.88721
11
5.39311
21
-3.89069
0
LINE
8
BLACK
6
CONTINUOUS
10
5.39311
20
-3.89069
11
5.38872
21
-3.89293
0
LINE
8
BLACK
6
CONTINUOUS
10
5.38872
20
-3.89293
11
5.38386
21
-3.8937
0
LINE
8
BLACK
6
CONTINUOUS
10
5.38386
20
-3.8937
11
5.37899
21
-3.89293
0
LINE
8
BLACK
6
CONTINUOUS
10
5.37899
20
-3.89293
11
5.3746
21
-3.89069
0
LINE
8
BLACK
6
CONTINUOUS
10
5.3746
20
-3.89069
11
5.37112
21
-3.88721
0
LINE
8
BLACK
6
CONTINUOUS
10
5.37112
20
-3.88721
11
5.36888
21
-3.88282
0
LINE
8
BLACK
6
CONTINUOUS
10
5.36888
20
-3.88282
11
5.36811
21
-3.87795
0
LINE
8
BLACK
6
CONTINUOUS
10
5.36811
20
-3.87795
11
5.36888
21
-3.87309
0
LINE
8
BLACK
6
CONTINUOUS
10
5.36888
20
-3.87309
11
5.36991
21
-3.87107
0
LINE
8
BLACK
6
CONTINUOUS
10
5.36991
20
-3.87107
11
5.3368
21
-3.83797
0
LINE
8
BLACK
6
CONTINUOUS
10
5.3368
20
-3.83797
11
5.33479
21
-3.83899
0
LINE
8
BLACK
6
CONTINUOUS
10
5.33479
20
-3.83899
11
5.32992
21
-3.83976
0
LINE
8
BLACK
6
CONTINUOUS
10
5.32992
20
-3.83976
11
5.32505
21
-3.83899
0
LINE
8
BLACK
6
CONTINUOUS
10
5.32505
20
-3.83899
11
5.32066
21
-3.83676
0
LINE
8
BLACK
6
CONTINUOUS
10
5.32066
20
-3.83676
11
5.31718
21
-3.83327
0
LINE
8
BLACK
6
CONTINUOUS
10
5.31718
20
-3.83327
11
5.31494
21
-3.82888
0
LINE
8
BLACK
6
CONTINUOUS
10
5.31494
20
-3.82888
11
5.31417
21
-3.82402
0
LINE
8
BLACK
6
CONTINUOUS
10
5.31417
20
-3.82402
11
5.31494
21
-3.81915
0
LINE
8
BLACK
6
CONTINUOUS
10
5.31494
20
-3.81915
11
5.31718
21
-3.81476
0
LINE
8
BLACK
6
CONTINUOUS
10
5.31718
20
-3.81476
11
5.32066
21
-3.81128
0
LINE
8
BLACK
6
CONTINUOUS
10
5.32066
20
-3.81128
11
5.32505
21
-3.80904
0
LINE
8
BLACK
6
CONTINUOUS
10
5.32505
20
-3.80904
11
5.32992
21
-3.80827
0
LINE
8
BLACK
6
CONTINUOUS
10
5.32992
20
-3.80827
11
5.33479
21
-3.80904
0
LINE
8
BLACK
6
CONTINUOUS
10
5.51973
20
-2.02836
11
5.52707
21
-2.03064
0
LINE
8
BLACK
6
CONTINUOUS
10
5.52707
20
-2.03064
11
5.53383
21
-2.03429
0
LINE
8
BLACK
6
CONTINUOUS
10
5.53383
20
-2.03429
11
5.53975
21
-2.03919
0
LINE
8
BLACK
6
CONTINUOUS
10
5.53975
20
-2.03919
11
5.5446
21
-2.04514
0
LINE
8
BLACK
6
CONTINUOUS
10
5.5446
20
-2.04514
11
5.54821
21
-2.05193
0
LINE
8
BLACK
6
CONTINUOUS
10
5.54821
20
-2.05193
11
5.55043
21
-2.05928
0
LINE
8
BLACK
6
CONTINUOUS
10
5.55043
20
-2.05928
11
5.55118
21
-2.06693
0
LINE
8
BLACK
6
CONTINUOUS
10
5.55118
20
-2.06693
11
5.55117
21
-2.06803
0
LINE
8
BLACK
6
CONTINUOUS
10
5.55117
20
-2.06803
11
5.5502
21
-2.07565
0
LINE
8
BLACK
6
CONTINUOUS
10
5.5502
20
-2.07565
11
5.54809
21
-2.082
0
LINE
8
BLACK
6
CONTINUOUS
10
5.54809
20
-2.082
11
5.73456
21
-2.26846
0
LINE
8
BLACK
6
CONTINUOUS
10
5.73456
20
-2.26846
11
5.84948
21
-2.26846
0
LINE
8
BLACK
6
CONTINUOUS
10
5.84948
20
-2.26846
11
5.84964
21
-2.26796
0
LINE
8
BLACK
6
CONTINUOUS
10
5.84964
20
-2.26796
11
5.85334
21
-2.26122
0
LINE
8
BLACK
6
CONTINUOUS
10
5.85334
20
-2.26122
11
5.85828
21
-2.25534
0
LINE
8
BLACK
6
CONTINUOUS
10
5.85828
20
-2.25534
11
5.86427
21
-2.25052
0
LINE
8
BLACK
6
CONTINUOUS
10
5.86427
20
-2.25052
11
5.87108
21
-2.24696
0
LINE
8
BLACK
6
CONTINUOUS
10
5.87108
20
-2.24696
11
5.87845
21
-2.24479
0
LINE
8
BLACK
6
CONTINUOUS
10
5.87845
20
-2.24479
11
5.8861
21
-2.2441
0
LINE
8
BLACK
6
CONTINUOUS
10
5.8861
20
-2.2441
11
5.89374
21
-2.2449
0
LINE
8
BLACK
6
CONTINUOUS
10
5.89374
20
-2.2449
11
5.90108
21
-2.24717
0
LINE
8
BLACK
6
CONTINUOUS
10
5.90108
20
-2.24717
11
5.90784
21
-2.25083
0
LINE
8
BLACK
6
CONTINUOUS
10
5.90784
20
-2.25083
11
5.91376
21
-2.25572
0
LINE
8
BLACK
6
CONTINUOUS
10
5.91376
20
-2.25572
11
5.91862
21
-2.26168
0
LINE
8
BLACK
6
CONTINUOUS
10
5.91862
20
-2.26168
11
5.92223
21
-2.26846
0
LINE
8
BLACK
6
CONTINUOUS
10
5.92223
20
-2.26846
11
5.92445
21
-2.27582
0
LINE
8
BLACK
6
CONTINUOUS
10
5.92445
20
-2.27582
11
5.9252
21
-2.28346
0
LINE
8
BLACK
6
CONTINUOUS
10
5.9252
20
-2.28346
11
5.92518
21
-2.28456
0
LINE
8
BLACK
6
CONTINUOUS
10
5.92518
20
-2.28456
11
5.92422
21
-2.29219
0
LINE
8
BLACK
6
CONTINUOUS
10
5.92422
20
-2.29219
11
5.92179
21
-2.29948
0
LINE
8
BLACK
6
CONTINUOUS
10
5.92179
20
-2.29948
11
5.918
21
-2.30616
0
LINE
8
BLACK
6
CONTINUOUS
10
5.918
20
-2.30616
11
5.91298
21
-2.31198
0
LINE
8
BLACK
6
CONTINUOUS
10
5.91298
20
-2.31198
11
5.90692
21
-2.31671
0
LINE
8
BLACK
6
CONTINUOUS
10
5.90692
20
-2.31671
11
5.90006
21
-2.32017
0
LINE
8
BLACK
6
CONTINUOUS
10
5.90006
20
-2.32017
11
5.89266
21
-2.32224
0
LINE
8
BLACK
6
CONTINUOUS
10
5.89266
20
-2.32224
11
5.885
21
-2.32283
0
LINE
8
BLACK
6
CONTINUOUS
10
5.885
20
-2.32283
11
5.87737
21
-2.32192
0
LINE
8
BLACK
6
CONTINUOUS
10
5.87737
20
-2.32192
11
5.87007
21
-2.31954
0
LINE
8
BLACK
6
CONTINUOUS
10
5.87007
20
-2.31954
11
5.86336
21
-2.31579
0
LINE
8
BLACK
6
CONTINUOUS
10
5.86336
20
-2.31579
11
5.85751
21
-2.31081
0
LINE
8
BLACK
6
CONTINUOUS
10
5.85751
20
-2.31081
11
5.85273
21
-2.30479
0
LINE
8
BLACK
6
CONTINUOUS
10
5.85273
20
-2.30479
11
5.84948
21
-2.29846
0
LINE
8
BLACK
6
CONTINUOUS
10
5.84948
20
-2.29846
11
5.73456
21
-2.29846
0
LINE
8
BLACK
6
CONTINUOUS
10
5.73456
20
-2.29846
11
5.54815
21
-2.48488
0
LINE
8
BLACK
6
CONTINUOUS
10
5.54815
20
-2.48488
11
5.54821
21
-2.485
0
LINE
8
BLACK
6
CONTINUOUS
10
5.54821
20
-2.485
11
5.55043
21
-2.49235
0
LINE
8
BLACK
6
CONTINUOUS
10
5.55043
20
-2.49235
11
5.55118
21
-2.5
0
LINE
8
BLACK
6
CONTINUOUS
10
5.55118
20
-2.5
11
5.55117
21
-2.5011
0
LINE
8
BLACK
6
CONTINUOUS
10
5.55117
20
-2.5011
11
5.5502
21
-2.50872
0
LINE
8
BLACK
6
CONTINUOUS
10
5.5502
20
-2.50872
11
5.54778
21
-2.51601
0
LINE
8
BLACK
6
CONTINUOUS
10
5.54778
20
-2.51601
11
5.54398
21
-2.52269
0
LINE
8
BLACK
6
CONTINUOUS
10
5.54398
20
-2.52269
11
5.53896
21
-2.52851
0
LINE
8
BLACK
6
CONTINUOUS
10
5.53896
20
-2.52851
11
5.53291
21
-2.53324
0
LINE
8
BLACK
6
CONTINUOUS
10
5.53291
20
-2.53324
11
5.52605
21
-2.53671
0
LINE
8
BLACK
6
CONTINUOUS
10
5.52605
20
-2.53671
11
5.51865
21
-2.53877
0
LINE
8
BLACK
6
CONTINUOUS
10
5.51865
20
-2.53877
11
5.51099
21
-2.53936
0
LINE
8
BLACK
6
CONTINUOUS
10
5.51099
20
-2.53936
11
5.50336
21
-2.53845
0
LINE
8
BLACK
6
CONTINUOUS
10
5.50336
20
-2.53845
11
5.49673
21
-2.5363
0
LINE
8
BLACK
6
CONTINUOUS
10
5.49673
20
-2.5363
11
5.31649
21
-2.71654
0
LINE
8
BLACK
6
CONTINUOUS
10
5.31649
20
-2.71654
11
5.49671
21
-2.89675
0
LINE
8
BLACK
6
CONTINUOUS
10
5.49671
20
-2.89675
11
5.49706
21
-2.89657
0
LINE
8
BLACK
6
CONTINUOUS
10
5.49706
20
-2.89657
11
5.50443
21
-2.8944
0
LINE
8
BLACK
6
CONTINUOUS
10
5.50443
20
-2.8944
11
5.51209
21
-2.8937
0
LINE
8
BLACK
6
CONTINUOUS
10
5.51209
20
-2.8937
11
5.51973
21
-2.8945
0
LINE
8
BLACK
6
CONTINUOUS
10
5.51973
20
-2.8945
11
5.52707
21
-2.89678
0
LINE
8
BLACK
6
CONTINUOUS
10
5.52707
20
-2.89678
11
5.53383
21
-2.90043
0
LINE
8
BLACK
6
CONTINUOUS
10
5.53383
20
-2.90043
11
5.53975
21
-2.90533
0
LINE
8
BLACK
6
CONTINUOUS
10
5.53975
20
-2.90533
11
5.5446
21
-2.91128
0
LINE
8
BLACK
6
CONTINUOUS
10
5.5446
20
-2.91128
11
5.54821
21
-2.91807
0
LINE
8
BLACK
6
CONTINUOUS
10
5.54821
20
-2.91807
11
5.55043
21
-2.92542
0
LINE
8
BLACK
6
CONTINUOUS
10
5.55043
20
-2.92542
11
5.55118
21
-2.93307
0
LINE
8
BLACK
6
CONTINUOUS
10
5.55118
20
-2.93307
11
5.55117
21
-2.93417
0
LINE
8
BLACK
6
CONTINUOUS
10
5.55117
20
-2.93417
11
5.5502
21
-2.94179
0
LINE
8
BLACK
6
CONTINUOUS
10
5.5502
20
-2.94179
11
5.54809
21
-2.94814
0
LINE
8
BLACK
6
CONTINUOUS
10
5.54809
20
-2.94814
11
5.73456
21
-3.13461
0
LINE
8
BLACK
6
CONTINUOUS
10
5.73456
20
-3.13461
11
5.84948
21
-3.13461
0
LINE
8
BLACK
6
CONTINUOUS
10
5.84948
20
-3.13461
11
5.84964
21
-3.1341
0
LINE
8
BLACK
6
CONTINUOUS
10
5.84964
20
-3.1341
11
5.85334
21
-3.12736
0
LINE
8
BLACK
6
CONTINUOUS
10
5.85334
20
-3.12736
11
5.85828
21
-3.12148
0
LINE
8
BLACK
6
CONTINUOUS
10
5.85828
20
-3.12148
11
5.86427
21
-3.11666
0
LINE
8
BLACK
6
CONTINUOUS
10
5.86427
20
-3.11666
11
5.87108
21
-3.1131
0
LINE
8
BLACK
6
CONTINUOUS
10
5.87108
20
-3.1131
11
5.87845
21
-3.11093
0
LINE
8
BLACK
6
CONTINUOUS
10
5.87845
20
-3.11093
11
5.8861
21
-3.11024
0
LINE
8
BLACK
6
CONTINUOUS
10
5.8861
20
-3.11024
11
5.89374
21
-3.11104
0
LINE
8
BLACK
6
CONTINUOUS
10
5.89374
20
-3.11104
11
5.90095
21
-3.11327
0
LINE
8
BLACK
6
CONTINUOUS
10
5.90095
20
-3.11327
11
6.08115
21
-2.93307
0
LINE
8
BLACK
6
CONTINUOUS
10
6.08115
20
-2.93307
11
5.9009
21
-2.75282
0
LINE
8
BLACK
6
CONTINUOUS
10
5.9009
20
-2.75282
11
5.90006
21
-2.75324
0
LINE
8
BLACK
6
CONTINUOUS
10
5.90006
20
-2.75324
11
5.89266
21
-2.75531
0
LINE
8
BLACK
6
CONTINUOUS
10
5.89266
20
-2.75531
11
5.885
21
-2.7559
0
LINE
8
BLACK
6
CONTINUOUS
10
5.885
20
-2.7559
11
5.87737
21
-2.75499
0
LINE
8
BLACK
6
CONTINUOUS
10
5.87737
20
-2.75499
11
5.87007
21
-2.75261
0
LINE
8
BLACK
6
CONTINUOUS
10
5.87007
20
-2.75261
11
5.86336
21
-2.74886
0
LINE
8
BLACK
6
CONTINUOUS
10
5.86336
20
-2.74886
11
5.85751
21
-2.74388
0
LINE
8
BLACK
6
CONTINUOUS
10
5.85751
20
-2.74388
11
5.85273
21
-2.73786
0
LINE
8
BLACK
6
CONTINUOUS
10
5.85273
20
-2.73786
11
5.84922
21
-2.73103
0
LINE
8
BLACK
6
CONTINUOUS
10
5.84922
20
-2.73103
11
5.8471
21
-2.72364
0
LINE
8
BLACK
6
CONTINUOUS
10
5.8471
20
-2.72364
11
5.84646
21
-2.71599
0
LINE
8
BLACK
6
CONTINUOUS
10
5.84646
20
-2.71599
11
5.84732
21
-2.70835
0
LINE
8
BLACK
6
CONTINUOUS
10
5.84732
20
-2.70835
11
5.84964
21
-2.70103
0
LINE
8
BLACK
6
CONTINUOUS
10
5.84964
20
-2.70103
11
5.85334
21
-2.69429
0
LINE
8
BLACK
6
CONTINUOUS
10
5.85334
20
-2.69429
11
5.85828
21
-2.68841
0
LINE
8
BLACK
6
CONTINUOUS
10
5.85828
20
-2.68841
11
5.86427
21
-2.68359
0
LINE
8
BLACK
6
CONTINUOUS
10
5.86427
20
-2.68359
11
5.87108
21
-2.68003
0
LINE
8
BLACK
6
CONTINUOUS
10
5.87108
20
-2.68003
11
5.87845
21
-2.67786
0
LINE
8
BLACK
6
CONTINUOUS
10
5.87845
20
-2.67786
11
5.8861
21
-2.67717
0
LINE
8
BLACK
6
CONTINUOUS
10
5.8861
20
-2.67717
11
5.89374
21
-2.67797
0
LINE
8
BLACK
6
CONTINUOUS
10
5.89374
20
-2.67797
11
5.90095
21
-2.6802
0
LINE
8
BLACK
6
CONTINUOUS
10
5.90095
20
-2.6802
11
6.09176
21
-2.48939
0
LINE
8
BLACK
6
CONTINUOUS
10
6.09176
20
-2.48939
11
6.09293
21
-2.48841
0
LINE
8
BLACK
6
CONTINUOUS
10
6.09293
20
-2.48841
11
6.09317
21
-2.48815
0
LINE
8
BLACK
6
CONTINUOUS
10
6.09317
20
-2.48815
11
6.09336
21
-2.48804
0
LINE
8
BLACK
6
CONTINUOUS
10
6.09336
20
-2.48804
11
6.09374
21
-2.48773
0
LINE
8
BLACK
6
CONTINUOUS
10
6.09374
20
-2.48773
11
6.09564
21
-2.48681
0
LINE
8
BLACK
6
CONTINUOUS
10
6.09564
20
-2.48681
11
6.0975
21
-2.48581
0
LINE
8
BLACK
6
CONTINUOUS
10
6.0975
20
-2.48581
11
6.09786
21
-2.48575
0
LINE
8
BLACK
6
CONTINUOUS
10
6.09786
20
-2.48575
11
6.09818
21
-2.4856
0
LINE
8
BLACK
6
CONTINUOUS
10
6.09818
20
-2.4856
11
6.10028
21
-2.48535
0
LINE
8
BLACK
6
CONTINUOUS
10
6.10028
20
-2.48535
11
6.10236
21
-2.485
0
LINE
8
BLACK
6
CONTINUOUS
10
6.10236
20
-2.485
11
6.22349
21
-2.485
0
LINE
8
BLACK
6
CONTINUOUS
10
6.22349
20
-2.485
11
6.22366
21
-2.48449
0
LINE
8
BLACK
6
CONTINUOUS
10
6.22366
20
-2.48449
11
6.22736
21
-2.47776
0
LINE
8
BLACK
6
CONTINUOUS
10
6.22736
20
-2.47776
11
6.2323
21
-2.47187
0
LINE
8
BLACK
6
CONTINUOUS
10
6.2323
20
-2.47187
11
6.23828
21
-2.46706
0
LINE
8
BLACK
6
CONTINUOUS
10
6.23828
20
-2.46706
11
6.24509
21
-2.4635
0
LINE
8
BLACK
6
CONTINUOUS
10
6.24509
20
-2.4635
11
6.25247
21
-2.46133
0
LINE
8
BLACK
6
CONTINUOUS
10
6.25247
20
-2.46133
11
6.26012
21
-2.46063
0
LINE
8
BLACK
6
CONTINUOUS
10
6.26012
20
-2.46063
11
6.26776
21
-2.46143
0
LINE
8
BLACK
6
CONTINUOUS
10
6.26776
20
-2.46143
11
6.2751
21
-2.46371
0
LINE
8
BLACK
6
CONTINUOUS
10
6.2751
20
-2.46371
11
6.28186
21
-2.46736
0
LINE
8
BLACK
6
CONTINUOUS
10
6.28186
20
-2.46736
11
6.28778
21
-2.47226
0
LINE
8
BLACK
6
CONTINUOUS
10
6.28778
20
-2.47226
11
6.29263
21
-2.47821
0
LINE
8
BLACK
6
CONTINUOUS
10
6.29263
20
-2.47821
11
6.29624
21
-2.485
0
LINE
8
BLACK
6
CONTINUOUS
10
6.29624
20
-2.485
11
6.29846
21
-2.49235
0
LINE
8
BLACK
6
CONTINUOUS
10
6.29846
20
-2.49235
11
6.29921
21
-2.5
0
LINE
8
BLACK
6
CONTINUOUS
10
6.29921
20
-2.5
11
6.2992
21
-2.5011
0
LINE
8
BLACK
6
CONTINUOUS
10
6.2992
20
-2.5011
11
6.29823
21
-2.50872
0
LINE
8
BLACK
6
CONTINUOUS
10
6.29823
20
-2.50872
11
6.29581
21
-2.51601
0
LINE
8
BLACK
6
CONTINUOUS
10
6.29581
20
-2.51601
11
6.29201
21
-2.52269
0
LINE
8
BLACK
6
CONTINUOUS
10
6.29201
20
-2.52269
11
6.28699
21
-2.52851
0
LINE
8
BLACK
6
CONTINUOUS
10
6.28699
20
-2.52851
11
6.28094
21
-2.53324
0
LINE
8
BLACK
6
CONTINUOUS
10
6.28094
20
-2.53324
11
6.27408
21
-2.53671
0
LINE
8
BLACK
6
CONTINUOUS
10
6.27408
20
-2.53671
11
6.26668
21
-2.53877
0
LINE
8
BLACK
6
CONTINUOUS
10
6.26668
20
-2.53877
11
6.25902
21
-2.53936
0
LINE
8
BLACK
6
CONTINUOUS
10
6.25902
20
-2.53936
11
6.25139
21
-2.53845
0
LINE
8
BLACK
6
CONTINUOUS
10
6.25139
20
-2.53845
11
6.24408
21
-2.53608
0
LINE
8
BLACK
6
CONTINUOUS
10
6.24408
20
-2.53608
11
6.23737
21
-2.53233
0
LINE
8
BLACK
6
CONTINUOUS
10
6.23737
20
-2.53233
11
6.23152
21
-2.52735
0
LINE
8
BLACK
6
CONTINUOUS
10
6.23152
20
-2.52735
11
6.22675
21
-2.52133
0
LINE
8
BLACK
6
CONTINUOUS
10
6.22675
20
-2.52133
11
6.2235
21
-2.515
0
LINE
8
BLACK
6
CONTINUOUS
10
6.2235
20
-2.515
11
6.10858
21
-2.515
0
LINE
8
BLACK
6
CONTINUOUS
10
6.10858
20
-2.515
11
5.92216
21
-2.70141
0
LINE
8
BLACK
6
CONTINUOUS
10
5.92216
20
-2.70141
11
5.92223
21
-2.70153
0
LINE
8
BLACK
6
CONTINUOUS
10
5.92223
20
-2.70153
11
5.92445
21
-2.70889
0
LINE
8
BLACK
6
CONTINUOUS
10
5.92445
20
-2.70889
11
5.9252
21
-2.71654
0
LINE
8
BLACK
6
CONTINUOUS
10
5.9252
20
-2.71654
11
5.92518
21
-2.71763
0
LINE
8
BLACK
6
CONTINUOUS
10
5.92518
20
-2.71763
11
5.92422
21
-2.72526
0
LINE
8
BLACK
6
CONTINUOUS
10
5.92422
20
-2.72526
11
5.92211
21
-2.7316
0
LINE
8
BLACK
6
CONTINUOUS
10
5.92211
20
-2.7316
11
6.10858
21
-2.91807
0
LINE
8
BLACK
6
CONTINUOUS
10
6.10858
20
-2.91807
11
6.22349
21
-2.91807
0
LINE
8
BLACK
6
CONTINUOUS
10
6.22349
20
-2.91807
11
6.22366
21
-2.91756
0
LINE
8
BLACK
6
CONTINUOUS
10
6.22366
20
-2.91756
11
6.22736
21
-2.91083
0
LINE
8
BLACK
6
CONTINUOUS
10
6.22736
20
-2.91083
11
6.2323
21
-2.90494
0
LINE
8
BLACK
6
CONTINUOUS
10
6.2323
20
-2.90494
11
6.23828
21
-2.90013
0
LINE
8
BLACK
6
CONTINUOUS
10
6.23828
20
-2.90013
11
6.24509
21
-2.89657
0
LINE
8
BLACK
6
CONTINUOUS
10
6.24509
20
-2.89657
11
6.25247
21
-2.8944
0
LINE
8
BLACK
6
CONTINUOUS
10
6.25247
20
-2.8944
11
6.26012
21
-2.8937
0
LINE
8
BLACK
6
CONTINUOUS
10
6.26012
20
-2.8937
11
6.26776
21
-2.8945
0
LINE
8
BLACK
6
CONTINUOUS
10
6.26776
20
-2.8945
11
6.2751
21
-2.89678
0
LINE
8
BLACK
6
CONTINUOUS
10
6.2751
20
-2.89678
11
6.28186
21
-2.90043
0
LINE
8
BLACK
6
CONTINUOUS
10
6.28186
20
-2.90043
11
6.28778
21
-2.90533
0
LINE
8
BLACK
6
CONTINUOUS
10
6.28778
20
-2.90533
11
6.29263
21
-2.91128
0
LINE
8
BLACK
6
CONTINUOUS
10
6.29263
20
-2.91128
11
6.29624
21
-2.91807
0
LINE
8
BLACK
6
CONTINUOUS
10
6.29624
20
-2.91807
11
6.29846
21
-2.92542
0
LINE
8
BLACK
6
CONTINUOUS
10
6.29846
20
-2.92542
11
6.29921
21
-2.93307
0
LINE
8
BLACK
6
CONTINUOUS
10
6.29921
20
-2.93307
11
6.2992
21
-2.93417
0
LINE
8
BLACK
6
CONTINUOUS
10
6.2992
20
-2.93417
11
6.29823
21
-2.94179
0
LINE
8
BLACK
6
CONTINUOUS
10
6.29823
20
-2.94179
11
6.29581
21
-2.94908
0
LINE
8
BLACK
6
CONTINUOUS
10
6.29581
20
-2.94908
11
6.29201
21
-2.95577
0
LINE
8
BLACK
6
CONTINUOUS
10
6.29201
20
-2.95577
11
6.28699
21
-2.96158
0
LINE
8
BLACK
6
CONTINUOUS
10
6.28699
20
-2.96158
11
6.28094
21
-2.96631
0
LINE
8
BLACK
6
CONTINUOUS
10
6.28094
20
-2.96631
11
6.27408
21
-2.96978
0
LINE
8
BLACK
6
CONTINUOUS
10
6.27408
20
-2.96978
11
6.26668
21
-2.97184
0
LINE
8
BLACK
6
CONTINUOUS
10
6.26668
20
-2.97184
11
6.25902
21
-2.97243
0
LINE
8
BLACK
6
CONTINUOUS
10
6.25902
20
-2.97243
11
6.25139
21
-2.97152
0
LINE
8
BLACK
6
CONTINUOUS
10
6.25139
20
-2.97152
11
6.24408
21
-2.96915
0
LINE
8
BLACK
6
CONTINUOUS
10
6.24408
20
-2.96915
11
6.23737
21
-2.9654
0
LINE
8
BLACK
6
CONTINUOUS
10
6.23737
20
-2.9654
11
6.23152
21
-2.96042
0
LINE
8
BLACK
6
CONTINUOUS
10
6.23152
20
-2.96042
11
6.22675
21
-2.9544
0
LINE
8
BLACK
6
CONTINUOUS
10
6.22675
20
-2.9544
11
6.2235
21
-2.94807
0
LINE
8
BLACK
6
CONTINUOUS
10
6.2235
20
-2.94807
11
6.10858
21
-2.94807
0
LINE
8
BLACK
6
CONTINUOUS
10
6.10858
20
-2.94807
11
5.92216
21
-3.13448
0
LINE
8
BLACK
6
CONTINUOUS
10
5.92216
20
-3.13448
11
5.92223
21
-3.1346
0
LINE
8
BLACK
6
CONTINUOUS
10
5.92223
20
-3.1346
11
5.92445
21
-3.14196
0
LINE
8
BLACK
6
CONTINUOUS
10
5.92445
20
-3.14196
11
5.9252
21
-3.14961
0
LINE
8
BLACK
6
CONTINUOUS
10
5.9252
20
-3.14961
11
5.92518
21
-3.15071
0
LINE
8
BLACK
6
CONTINUOUS
10
5.92518
20
-3.15071
11
5.92422
21
-3.15833
0
LINE
8
BLACK
6
CONTINUOUS
10
5.92422
20
-3.15833
11
5.92211
21
-3.16467
0
LINE
8
BLACK
6
CONTINUOUS
10
5.92211
20
-3.16467
11
6.10858
21
-3.35114
0
LINE
8
BLACK
6
CONTINUOUS
10
6.10858
20
-3.35114
11
6.22349
21
-3.35114
0
LINE
8
BLACK
6
CONTINUOUS
10
6.22349
20
-3.35114
11
6.22366
21
-3.35063
0
LINE
8
BLACK
6
CONTINUOUS
10
6.22366
20
-3.35063
11
6.22736
21
-3.3439
0
LINE
8
BLACK
6
CONTINUOUS
10
6.22736
20
-3.3439
11
6.2323
21
-3.33801
0
LINE
8
BLACK
6
CONTINUOUS
10
6.2323
20
-3.33801
11
6.23828
21
-3.3332
0
LINE
8
BLACK
6
CONTINUOUS
10
6.23828
20
-3.3332
11
6.24509
21
-3.32964
0
LINE
8
BLACK
6
CONTINUOUS
10
6.24509
20
-3.32964
11
6.25247
21
-3.32747
0
LINE
8
BLACK
6
CONTINUOUS
10
6.25247
20
-3.32747
11
6.26012
21
-3.32677
0
LINE
8
BLACK
6
CONTINUOUS
10
6.26012
20
-3.32677
11
6.26776
21
-3.32758
0
LINE
8
BLACK
6
CONTINUOUS
10
6.26776
20
-3.32758
11
6.2751
21
-3.32985
0
LINE
8
BLACK
6
CONTINUOUS
10
6.2751
20
-3.32985
11
6.28186
21
-3.3335
0
LINE
8
BLACK
6
CONTINUOUS
10
6.28186
20
-3.3335
11
6.28778
21
-3.3384
0
LINE
8
BLACK
6
CONTINUOUS
10
6.28778
20
-3.3384
11
6.29263
21
-3.34435
0
LINE
8
BLACK
6
CONTINUOUS
10
6.29263
20
-3.34435
11
6.29624
21
-3.35114
0
LINE
8
BLACK
6
CONTINUOUS
10
6.29624
20
-3.35114
11
6.29846
21
-3.35849
0
LINE
8
BLACK
6
CONTINUOUS
10
6.29846
20
-3.35849
11
6.29921
21
-3.36614
0
LINE
8
BLACK
6
CONTINUOUS
10
6.29921
20
-3.36614
11
6.2992
21
-3.36724
0
LINE
8
BLACK
6
CONTINUOUS
10
6.2992
20
-3.36724
11
6.29823
21
-3.37486
0
LINE
8
BLACK
6
CONTINUOUS
10
6.29823
20
-3.37486
11
6.29581
21
-3.38216
0
LINE
8
BLACK
6
CONTINUOUS
10
6.29581
20
-3.38216
11
6.29201
21
-3.38884
0
LINE
8
BLACK
6
CONTINUOUS
10
6.29201
20
-3.38884
11
6.28699
21
-3.39465
0
LINE
8
BLACK
6
CONTINUOUS
10
6.28699
20
-3.39465
11
6.28094
21
-3.39938
0
LINE
8
BLACK
6
CONTINUOUS
10
6.28094
20
-3.39938
11
6.27408
21
-3.40285
0
LINE
8
BLACK
6
CONTINUOUS
10
6.27408
20
-3.40285
11
6.26668
21
-3.40491
0
LINE
8
BLACK
6
CONTINUOUS
10
6.26668
20
-3.40491
11
6.25902
21
-3.4055
0
LINE
8
BLACK
6
CONTINUOUS
10
6.25902
20
-3.4055
11
6.25139
21
-3.40459
0
LINE
8
BLACK
6
CONTINUOUS
10
6.25139
20
-3.40459
11
6.24408
21
-3.40222
0
LINE
8
BLACK
6
CONTINUOUS
10
6.24408
20
-3.40222
11
6.23737
21
-3.39847
0
LINE
8
BLACK
6
CONTINUOUS
10
6.23737
20
-3.39847
11
6.23152
21
-3.39349
0
LINE
8
BLACK
6
CONTINUOUS
10
6.23152
20
-3.39349
11
6.22675
21
-3.38747
0
LINE
8
BLACK
6
CONTINUOUS
10
6.22675
20
-3.38747
11
6.2235
21
-3.38114
0
LINE
8
BLACK
6
CONTINUOUS
10
6.2235
20
-3.38114
11
6.10858
21
-3.38114
0
LINE
8
BLACK
6
CONTINUOUS
10
6.10858
20
-3.38114
11
5.92216
21
-3.56755
0
LINE
8
BLACK
6
CONTINUOUS
10
5.92216
20
-3.56755
11
5.92223
21
-3.56767
0
LINE
8
BLACK
6
CONTINUOUS
10
5.92223
20
-3.56767
11
5.92445
21
-3.57503
0
LINE
8
BLACK
6
CONTINUOUS
10
5.92445
20
-3.57503
11
5.9252
21
-3.58268
0
LINE
8
BLACK
6
CONTINUOUS
10
5.9252
20
-3.58268
11
5.92518
21
-3.58378
0
LINE
8
BLACK
6
CONTINUOUS
10
5.92518
20
-3.58378
11
5.92422
21
-3.5914
0
LINE
8
BLACK
6
CONTINUOUS
10
5.92422
20
-3.5914
11
5.92179
21
-3.59869
0
LINE
8
BLACK
6
CONTINUOUS
10
5.92179
20
-3.59869
11
5.918
21
-3.60537
0
LINE
8
BLACK
6
CONTINUOUS
10
5.918
20
-3.60537
11
5.91298
21
-3.61119
0
LINE
8
BLACK
6
CONTINUOUS
10
5.91298
20
-3.61119
11
5.90692
21
-3.61592
0
LINE
8
BLACK
6
CONTINUOUS
10
5.90692
20
-3.61592
11
5.90006
21
-3.61938
0
LINE
8
BLACK
6
CONTINUOUS
10
5.90006
20
-3.61938
11
5.89266
21
-3.62145
0
LINE
8
BLACK
6
CONTINUOUS
10
5.89266
20
-3.62145
11
5.885
21
-3.62204
0
LINE
8
BLACK
6
CONTINUOUS
10
5.885
20
-3.62204
11
5.87737
21
-3.62113
0
LINE
8
BLACK
6
CONTINUOUS
10
5.87737
20
-3.62113
11
5.87007
21
-3.61875
0
LINE
8
BLACK
6
CONTINUOUS
10
5.87007
20
-3.61875
11
5.86336
21
-3.61501
0
LINE
8
BLACK
6
CONTINUOUS
10
5.86336
20
-3.61501
11
5.85751
21
-3.61003
0
LINE
8
BLACK
6
CONTINUOUS
10
5.85751
20
-3.61003
11
5.85273
21
-3.604
0
LINE
8
BLACK
6
CONTINUOUS
10
5.85273
20
-3.604
11
5.84922
21
-3.59717
0
LINE
8
BLACK
6
CONTINUOUS
10
5.84922
20
-3.59717
11
5.8471
21
-3.58978
0
LINE
8
BLACK
6
CONTINUOUS
10
5.8471
20
-3.58978
11
5.84646
21
-3.58213
0
LINE
8
BLACK
6
CONTINUOUS
10
5.84646
20
-3.58213
11
5.84732
21
-3.57449
0
LINE
8
BLACK
6
CONTINUOUS
10
5.84732
20
-3.57449
11
5.84964
21
-3.56717
0
LINE
8
BLACK
6
CONTINUOUS
10
5.84964
20
-3.56717
11
5.85334
21
-3.56043
0
LINE
8
BLACK
6
CONTINUOUS
10
5.85334
20
-3.56043
11
5.85828
21
-3.55455
0
LINE
8
BLACK
6
CONTINUOUS
10
5.85828
20
-3.55455
11
5.86427
21
-3.54973
0
LINE
8
BLACK
6
CONTINUOUS
10
5.86427
20
-3.54973
11
5.87108
21
-3.54617
0
LINE
8
BLACK
6
CONTINUOUS
10
5.87108
20
-3.54617
11
5.87845
21
-3.544
0
LINE
8
BLACK
6
CONTINUOUS
10
5.87845
20
-3.544
11
5.8861
21
-3.54331
0
LINE
8
BLACK
6
CONTINUOUS
10
5.8861
20
-3.54331
11
5.89374
21
-3.54411
0
LINE
8
BLACK
6
CONTINUOUS
10
5.89374
20
-3.54411
11
5.90095
21
-3.54634
0
LINE
8
BLACK
6
CONTINUOUS
10
5.90095
20
-3.54634
11
6.08115
21
-3.36614
0
LINE
8
BLACK
6
CONTINUOUS
10
6.08115
20
-3.36614
11
5.9009
21
-3.18589
0
LINE
8
BLACK
6
CONTINUOUS
10
5.9009
20
-3.18589
11
5.90006
21
-3.18631
0
LINE
8
BLACK
6
CONTINUOUS
10
5.90006
20
-3.18631
11
5.89266
21
-3.18838
0
LINE
8
BLACK
6
CONTINUOUS
10
5.89266
20
-3.18838
11
5.885
21
-3.18897
0
LINE
8
BLACK
6
CONTINUOUS
10
5.885
20
-3.18897
11
5.87737
21
-3.18806
0
LINE
8
BLACK
6
CONTINUOUS
10
5.87737
20
-3.18806
11
5.87007
21
-3.18568
0
LINE
8
BLACK
6
CONTINUOUS
10
5.87007
20
-3.18568
11
5.86336
21
-3.18193
0
LINE
8
BLACK
6
CONTINUOUS
10
5.86336
20
-3.18193
11
5.85751
21
-3.17696
0
LINE
8
BLACK
6
CONTINUOUS
10
5.85751
20
-3.17696
11
5.85273
21
-3.17093
0
LINE
8
BLACK
6
CONTINUOUS
10
5.85273
20
-3.17093
11
5.84948
21
-3.16461
0
LINE
8
BLACK
6
CONTINUOUS
10
5.84948
20
-3.16461
11
5.73456
21
-3.16461
0
LINE
8
BLACK
6
CONTINUOUS
10
5.73456
20
-3.16461
11
5.54815
21
-3.35102
0
LINE
8
BLACK
6
CONTINUOUS
10
5.54815
20
-3.35102
11
5.54821
21
-3.35114
0
LINE
8
BLACK
6
CONTINUOUS
10
5.54821
20
-3.35114
11
5.55043
21
-3.35849
0
LINE
8
BLACK
6
CONTINUOUS
10
5.55043
20
-3.35849
11
5.55118
21
-3.36614
0
LINE
8
BLACK
6
CONTINUOUS
10
5.55118
20
-3.36614
11
5.55117
21
-3.36724
0
LINE
8
BLACK
6
CONTINUOUS
10
5.55117
20
-3.36724
11
5.5502
21
-3.37486
0
LINE
8
BLACK
6
CONTINUOUS
10
5.5502
20
-3.37486
11
5.54778
21
-3.38216
0
LINE
8
BLACK
6
CONTINUOUS
10
5.54778
20
-3.38216
11
5.54398
21
-3.38884
0
LINE
8
BLACK
6
CONTINUOUS
10
5.54398
20
-3.38884
11
5.53896
21
-3.39465
0
LINE
8
BLACK
6
CONTINUOUS
10
5.53896
20
-3.39465
11
5.53291
21
-3.39938
0
LINE
8
BLACK
6
CONTINUOUS
10
5.53291
20
-3.39938
11
5.52605
21
-3.40285
0
LINE
8
BLACK
6
CONTINUOUS
10
5.52605
20
-3.40285
11
5.51865
21
-3.40491
0
LINE
8
BLACK
6
CONTINUOUS
10
5.51865
20
-3.40491
11
5.51099
21
-3.4055
0
LINE
8
BLACK
6
CONTINUOUS
10
5.51099
20
-3.4055
11
5.50336
21
-3.40459
0
LINE
8
BLACK
6
CONTINUOUS
10
5.50336
20
-3.40459
11
5.49673
21
-3.40244
0
LINE
8
BLACK
6
CONTINUOUS
10
5.49673
20
-3.40244
11
5.31649
21
-3.58268
0
LINE
8
BLACK
6
CONTINUOUS
10
5.31649
20
-3.58268
11
5.49671
21
-3.7629
0
LINE
8
BLACK
6
CONTINUOUS
10
5.49671
20
-3.7629
11
5.49706
21
-3.76271
0
LINE
8
BLACK
6
CONTINUOUS
10
5.49706
20
-3.76271
11
5.50443
21
-3.76054
0
LINE
8
BLACK
6
CONTINUOUS
10
5.50443
20
-3.76054
11
5.51209
21
-3.75984
0
LINE
8
BLACK
6
CONTINUOUS
10
5.51209
20
-3.75984
11
5.51973
21
-3.76065
0
LINE
8
BLACK
6
CONTINUOUS
10
5.51973
20
-3.76065
11
5.52707
21
-3.76292
0
LINE
8
BLACK
6
CONTINUOUS
10
5.52707
20
-3.76292
11
5.53383
21
-3.76657
0
LINE
8
BLACK
6
CONTINUOUS
10
5.53383
20
-3.76657
11
5.53975
21
-3.77147
0
LINE
8
BLACK
6
CONTINUOUS
10
5.53975
20
-3.77147
11
5.5446
21
-3.77743
0
LINE
8
BLACK
6
CONTINUOUS
10
5.5446
20
-3.77743
11
5.54821
21
-3.78421
0
LINE
8
BLACK
6
CONTINUOUS
10
5.54821
20
-3.78421
11
5.55043
21
-3.79157
0
LINE
8
BLACK
6
CONTINUOUS
10
5.55043
20
-3.79157
11
5.55118
21
-3.79921
0
LINE
8
BLACK
6
CONTINUOUS
10
5.55118
20
-3.79921
11
5.55117
21
-3.80031
0
LINE
8
BLACK
6
CONTINUOUS
10
5.55117
20
-3.80031
11
5.5502
21
-3.80793
0
LINE
8
BLACK
6
CONTINUOUS
10
5.5502
20
-3.80793
11
5.54778
21
-3.81523
0
LINE
8
BLACK
6
CONTINUOUS
10
5.54778
20
-3.81523
11
5.54398
21
-3.82191
0
LINE
8
BLACK
6
CONTINUOUS
10
5.54398
20
-3.82191
11
5.53896
21
-3.82772
0
LINE
8
BLACK
6
CONTINUOUS
10
5.53896
20
-3.82772
11
5.53291
21
-3.83245
0
LINE
8
BLACK
6
CONTINUOUS
10
5.53291
20
-3.83245
11
5.52605
21
-3.83592
0
LINE
8
BLACK
6
CONTINUOUS
10
5.52605
20
-3.83592
11
5.51865
21
-3.83798
0
LINE
8
BLACK
6
CONTINUOUS
10
5.51865
20
-3.83798
11
5.51099
21
-3.83857
0
LINE
8
BLACK
6
CONTINUOUS
10
5.51099
20
-3.83857
11
5.50336
21
-3.83766
0
LINE
8
BLACK
6
CONTINUOUS
10
5.50336
20
-3.83766
11
5.49605
21
-3.83529
0
LINE
8
BLACK
6
CONTINUOUS
10
5.49605
20
-3.83529
11
5.48934
21
-3.83154
0
LINE
8
BLACK
6
CONTINUOUS
10
5.48934
20
-3.83154
11
5.48349
21
-3.82656
0
LINE
8
BLACK
6
CONTINUOUS
10
5.48349
20
-3.82656
11
5.47872
21
-3.82054
0
LINE
8
BLACK
6
CONTINUOUS
10
5.47872
20
-3.82054
11
5.47521
21
-3.81371
0
LINE
8
BLACK
6
CONTINUOUS
10
5.47521
20
-3.81371
11
5.47309
21
-3.80632
0
LINE
8
BLACK
6
CONTINUOUS
10
5.47309
20
-3.80632
11
5.47244
21
-3.79866
0
LINE
8
BLACK
6
CONTINUOUS
10
5.47244
20
-3.79866
11
5.4733
21
-3.79103
0
LINE
8
BLACK
6
CONTINUOUS
10
5.4733
20
-3.79103
11
5.4755
21
-3.78411
0
LINE
8
BLACK
6
CONTINUOUS
10
5.4755
20
-3.78411
11
5.28906
21
-3.59768
0
LINE
8
BLACK
6
CONTINUOUS
10
5.28906
20
-3.59768
11
5.1741
21
-3.59768
0
LINE
8
BLACK
6
CONTINUOUS
10
5.1741
20
-3.59768
11
5.17376
21
-3.59869
0
LINE
8
BLACK
6
CONTINUOUS
10
5.17376
20
-3.59869
11
5.16997
21
-3.60537
0
LINE
8
BLACK
6
CONTINUOUS
10
5.16997
20
-3.60537
11
5.16495
21
-3.61119
0
LINE
8
BLACK
6
CONTINUOUS
10
5.16495
20
-3.61119
11
5.15889
21
-3.61592
0
LINE
8
BLACK
6
CONTINUOUS
10
5.15889
20
-3.61592
11
5.15203
21
-3.61938
0
LINE
8
BLACK
6
CONTINUOUS
10
5.15203
20
-3.61938
11
5.14463
21
-3.62145
0
LINE
8
BLACK
6
CONTINUOUS
10
5.14463
20
-3.62145
11
5.13697
21
-3.62204
0
LINE
8
BLACK
6
CONTINUOUS
10
5.13697
20
-3.62204
11
5.12934
21
-3.62113
0
LINE
8
BLACK
6
CONTINUOUS
10
5.12934
20
-3.62113
11
5.12203
21
-3.61875
0
LINE
8
BLACK
6
CONTINUOUS
10
5.12203
20
-3.61875
11
5.11533
21
-3.61501
0
LINE
8
BLACK
6
CONTINUOUS
10
5.11533
20
-3.61501
11
5.10947
21
-3.61003
0
LINE
8
BLACK
6
CONTINUOUS
10
5.10947
20
-3.61003
11
5.1047
21
-3.604
0
LINE
8
BLACK
6
CONTINUOUS
10
5.1047
20
-3.604
11
5.10119
21
-3.59717
0
LINE
8
BLACK
6
CONTINUOUS
10
5.10119
20
-3.59717
11
5.09907
21
-3.58978
0
LINE
8
BLACK
6
CONTINUOUS
10
5.09907
20
-3.58978
11
5.09843
21
-3.58213
0
LINE
8
BLACK
6
CONTINUOUS
10
5.09843
20
-3.58213
11
5.09929
21
-3.57449
0
LINE
8
BLACK
6
CONTINUOUS
10
5.09929
20
-3.57449
11
5.10161
21
-3.56717
0
LINE
8
BLACK
6
CONTINUOUS
10
5.10161
20
-3.56717
11
5.10531
21
-3.56043
0
LINE
8
BLACK
6
CONTINUOUS
10
5.10531
20
-3.56043
11
5.11025
21
-3.55455
0
LINE
8
BLACK
6
CONTINUOUS
10
5.11025
20
-3.55455
11
5.11624
21
-3.54973
0
LINE
8
BLACK
6
CONTINUOUS
10
5.11624
20
-3.54973
11
5.12305
21
-3.54617
0
LINE
8
BLACK
6
CONTINUOUS
10
5.12305
20
-3.54617
11
5.13042
21
-3.544
0
LINE
8
BLACK
6
CONTINUOUS
10
5.13042
20
-3.544
11
5.13807
21
-3.54331
0
LINE
8
BLACK
6
CONTINUOUS
10
5.13807
20
-3.54331
11
5.14571
21
-3.54411
0
LINE
8
BLACK
6
CONTINUOUS
10
5.14571
20
-3.54411
11
5.15305
21
-3.54638
0
LINE
8
BLACK
6
CONTINUOUS
10
5.15305
20
-3.54638
11
5.15981
21
-3.55004
0
LINE
8
BLACK
6
CONTINUOUS
10
5.15981
20
-3.55004
11
5.16573
21
-3.55494
0
LINE
8
BLACK
6
CONTINUOUS
10
5.16573
20
-3.55494
11
5.17059
21
-3.56089
0
LINE
8
BLACK
6
CONTINUOUS
10
5.17059
20
-3.56089
11
5.17419
21
-3.56767
0
LINE
8
BLACK
6
CONTINUOUS
10
5.17419
20
-3.56767
11
5.1742
21
-3.56768
0
LINE
8
BLACK
6
CONTINUOUS
10
5.1742
20
-3.56768
11
5.28906
21
-3.56768
0
LINE
8
BLACK
6
CONTINUOUS
10
5.28906
20
-3.56768
11
5.47551
21
-3.38123
0
LINE
8
BLACK
6
CONTINUOUS
10
5.47551
20
-3.38123
11
5.47521
21
-3.38063
0
LINE
8
BLACK
6
CONTINUOUS
10
5.47521
20
-3.38063
11
5.47309
21
-3.37325
0
LINE
8
BLACK
6
CONTINUOUS
10
5.47309
20
-3.37325
11
5.47244
21
-3.36559
0
LINE
8
BLACK
6
CONTINUOUS
10
5.47244
20
-3.36559
11
5.4733
21
-3.35796
0
LINE
8
BLACK
6
CONTINUOUS
10
5.4733
20
-3.35796
11
5.47562
21
-3.35063
0
LINE
8
BLACK
6
CONTINUOUS
10
5.47562
20
-3.35063
11
5.47933
21
-3.3439
0
LINE
8
BLACK
6
CONTINUOUS
10
5.47933
20
-3.3439
11
5.48427
21
-3.33801
0
LINE
8
BLACK
6
CONTINUOUS
10
5.48427
20
-3.33801
11
5.49025
21
-3.3332
0
LINE
8
BLACK
6
CONTINUOUS
10
5.49025
20
-3.3332
11
5.49706
21
-3.32964
0
LINE
8
BLACK
6
CONTINUOUS
10
5.49706
20
-3.32964
11
5.50443
21
-3.32747
0
LINE
8
BLACK
6
CONTINUOUS
10
5.50443
20
-3.32747
11
5.51209
21
-3.32677
0
LINE
8
BLACK
6
CONTINUOUS
10
5.51209
20
-3.32677
11
5.51973
21
-3.32758
0
LINE
8
BLACK
6
CONTINUOUS
10
5.51973
20
-3.32758
11
5.52693
21
-3.32981
0
LINE
8
BLACK
6
CONTINUOUS
10
5.52693
20
-3.32981
11
5.70713
21
-3.14961
0
LINE
8
BLACK
6
CONTINUOUS
10
5.70713
20
-3.14961
11
5.52688
21
-2.96936
0
LINE
8
BLACK
6
CONTINUOUS
10
5.52688
20
-2.96936
11
5.52605
21
-2.96978
0
LINE
8
BLACK
6
CONTINUOUS
10
5.52605
20
-2.96978
11
5.51865
21
-2.97184
0
LINE
8
BLACK
6
CONTINUOUS
10
5.51865
20
-2.97184
11
5.51099
21
-2.97243
0
LINE
8
BLACK
6
CONTINUOUS
10
5.51099
20
-2.97243
11
5.50336
21
-2.97152
0
LINE
8
BLACK
6
CONTINUOUS
10
5.50336
20
-2.97152
11
5.49605
21
-2.96915
0
LINE
8
BLACK
6
CONTINUOUS
10
5.49605
20
-2.96915
11
5.48934
21
-2.9654
0
LINE
8
BLACK
6
CONTINUOUS
10
5.48934
20
-2.9654
11
5.48349
21
-2.96042
0
LINE
8
BLACK
6
CONTINUOUS
10
5.48349
20
-2.96042
11
5.47872
21
-2.9544
0
LINE
8
BLACK
6
CONTINUOUS
10
5.47872
20
-2.9544
11
5.47521
21
-2.94756
0
LINE
8
BLACK
6
CONTINUOUS
10
5.47521
20
-2.94756
11
5.47309
21
-2.94018
0
LINE
8
BLACK
6
CONTINUOUS
10
5.47309
20
-2.94018
11
5.47244
21
-2.93252
0
LINE
8
BLACK
6
CONTINUOUS
10
5.47244
20
-2.93252
11
5.4733
21
-2.92489
0
LINE
8
BLACK
6
CONTINUOUS
10
5.4733
20
-2.92489
11
5.4755
21
-2.91797
0
LINE
8
BLACK
6
CONTINUOUS
10
5.4755
20
-2.91797
11
5.28906
21
-2.73154
0
LINE
8
BLACK
6
CONTINUOUS
10
5.28906
20
-2.73154
11
5.1741
21
-2.73154
0
LINE
8
BLACK
6
CONTINUOUS
10
5.1741
20
-2.73154
11
5.17376
21
-2.73255
0
LINE
8
BLACK
6
CONTINUOUS
10
5.17376
20
-2.73255
11
5.16997
21
-2.73923
0
LINE
8
BLACK
6
CONTINUOUS
10
5.16997
20
-2.73923
11
5.16495
21
-2.74505
0
LINE
8
BLACK
6
CONTINUOUS
10
5.16495
20
-2.74505
11
5.15889
21
-2.74978
0
LINE
8
BLACK
6
CONTINUOUS
10
5.15889
20
-2.74978
11
5.15203
21
-2.75324
0
LINE
8
BLACK
6
CONTINUOUS
10
5.15203
20
-2.75324
11
5.14463
21
-2.75531
0
LINE
8
BLACK
6
CONTINUOUS
10
5.14463
20
-2.75531
11
5.13697
21
-2.7559
0
LINE
8
BLACK
6
CONTINUOUS
10
5.13697
20
-2.7559
11
5.12934
21
-2.75499
0
LINE
8
BLACK
6
CONTINUOUS
10
5.12934
20
-2.75499
11
5.12271
21
-2.75283
0
LINE
8
BLACK
6
CONTINUOUS
10
5.12271
20
-2.75283
11
4.94247
21
-2.93307
0
LINE
8
BLACK
6
CONTINUOUS
10
4.94247
20
-2.93307
11
5.12269
21
-3.11329
0
LINE
8
BLACK
6
CONTINUOUS
10
5.12269
20
-3.11329
11
5.12305
21
-3.1131
0
LINE
8
BLACK
6
CONTINUOUS
10
5.12305
20
-3.1131
11
5.13042
21
-3.11093
0
LINE
8
BLACK
6
CONTINUOUS
10
5.13042
20
-3.11093
11
5.13807
21
-3.11024
0
LINE
8
BLACK
6
CONTINUOUS
10
5.13807
20
-3.11024
11
5.14571
21
-3.11104
0
LINE
8
BLACK
6
CONTINUOUS
10
5.14571
20
-3.11104
11
5.15305
21
-3.11331
0
LINE
8
BLACK
6
CONTINUOUS
10
5.15305
20
-3.11331
11
5.15981
21
-3.11697
0
LINE
8
BLACK
6
CONTINUOUS
10
5.15981
20
-3.11697
11
5.16573
21
-3.12186
0
LINE
8
BLACK
6
CONTINUOUS
10
5.16573
20
-3.12186
11
5.17059
21
-3.12782
0
LINE
8
BLACK
6
CONTINUOUS
10
5.17059
20
-3.12782
11
5.17419
21
-3.1346
0
LINE
8
BLACK
6
CONTINUOUS
10
5.17419
20
-3.1346
11
5.17642
21
-3.14196
0
LINE
8
BLACK
6
CONTINUOUS
10
5.17642
20
-3.14196
11
5.17717
21
-3.14961
0
LINE
8
BLACK
6
CONTINUOUS
10
5.17717
20
-3.14961
11
5.17715
21
-3.15071
0
LINE
8
BLACK
6
CONTINUOUS
10
5.17715
20
-3.15071
11
5.17619
21
-3.15833
0
LINE
8
BLACK
6
CONTINUOUS
10
5.17619
20
-3.15833
11
5.17376
21
-3.16562
0
LINE
8
BLACK
6
CONTINUOUS
10
5.17376
20
-3.16562
11
5.16997
21
-3.1723
0
LINE
8
BLACK
6
CONTINUOUS
10
5.16997
20
-3.1723
11
5.16495
21
-3.17812
0
LINE
8
BLACK
6
CONTINUOUS
10
5.16495
20
-3.17812
11
5.15889
21
-3.18285
0
LINE
8
BLACK
6
CONTINUOUS
10
5.15889
20
-3.18285
11
5.15203
21
-3.18631
0
LINE
8
BLACK
6
CONTINUOUS
10
5.15203
20
-3.18631
11
5.14463
21
-3.18838
0
LINE
8
BLACK
6
CONTINUOUS
10
5.14463
20
-3.18838
11
5.13697
21
-3.18897
0
LINE
8
BLACK
6
CONTINUOUS
10
5.13697
20
-3.18897
11
5.12934
21
-3.18806
0
LINE
8
BLACK
6
CONTINUOUS
10
5.12934
20
-3.18806
11
5.12271
21
-3.1859
0
LINE
8
BLACK
6
CONTINUOUS
10
5.12271
20
-3.1859
11
4.93187
21
-3.37675
0
LINE
8
BLACK
6
CONTINUOUS
10
4.93187
20
-3.37675
11
4.93069
21
-3.37773
0
LINE
8
BLACK
6
CONTINUOUS
10
4.93069
20
-3.37773
11
4.93045
21
-3.37799
0
LINE
8
BLACK
6
CONTINUOUS
10
4.93045
20
-3.37799
11
4.93026
21
-3.3781
0
LINE
8
BLACK
6
CONTINUOUS
10
4.93026
20
-3.3781
11
4.92988
21
-3.37841
0
LINE
8
BLACK
6
CONTINUOUS
10
4.92988
20
-3.37841
11
4.92798
21
-3.37933
0
LINE
8
BLACK
6
CONTINUOUS
10
4.92798
20
-3.37933
11
4.92612
21
-3.38033
0
LINE
8
BLACK
6
CONTINUOUS
10
4.92612
20
-3.38033
11
4.92577
21
-3.38039
0
LINE
8
BLACK
6
CONTINUOUS
10
4.92577
20
-3.38039
11
4.92544
21
-3.38055
0
LINE
8
BLACK
6
CONTINUOUS
10
4.92544
20
-3.38055
11
4.92335
21
-3.38079
0
LINE
8
BLACK
6
CONTINUOUS
10
4.92335
20
-3.38079
11
4.92126
21
-3.38114
0
LINE
8
BLACK
6
CONTINUOUS
10
4.92126
20
-3.38114
11
4.80008
21
-3.38114
0
LINE
8
BLACK
6
CONTINUOUS
10
4.80008
20
-3.38114
11
4.79975
21
-3.38216
0
LINE
8
BLACK
6
CONTINUOUS
10
4.79975
20
-3.38216
11
4.79595
21
-3.38884
0
LINE
8
BLACK
6
CONTINUOUS
10
4.79595
20
-3.38884
11
4.79093
21
-3.39465
0
LINE
8
BLACK
6
CONTINUOUS
10
4.79093
20
-3.39465
11
4.78488
21
-3.39938
0
LINE
8
BLACK
6
CONTINUOUS
10
4.78488
20
-3.39938
11
4.77802
21
-3.40285
0
LINE
8
BLACK
6
CONTINUOUS
10
4.77802
20
-3.40285
11
4.77062
21
-3.40491
0
LINE
8
BLACK
6
CONTINUOUS
10
4.77062
20
-3.40491
11
4.76296
21
-3.4055
0
LINE
8
BLACK
6
CONTINUOUS
10
4.76296
20
-3.4055
11
4.75533
21
-3.40459
0
LINE
8
BLACK
6
CONTINUOUS
10
4.75533
20
-3.40459
11
4.74802
21
-3.40222
0
LINE
8
BLACK
6
CONTINUOUS
10
4.74802
20
-3.40222
11
4.74131
21
-3.39847
0
LINE
8
BLACK
6
CONTINUOUS
10
4.74131
20
-3.39847
11
4.73546
21
-3.39349
0
LINE
8
BLACK
6
CONTINUOUS
10
4.73546
20
-3.39349
11
4.73069
21
-3.38747
0
LINE
8
BLACK
6
CONTINUOUS
10
4.73069
20
-3.38747
11
4.72717
21
-3.38063
0
LINE
8
BLACK
6
CONTINUOUS
10
4.72717
20
-3.38063
11
4.72506
21
-3.37325
0
LINE
8
BLACK
6
CONTINUOUS
10
4.72506
20
-3.37325
11
4.72441
21
-3.36559
0
LINE
8
BLACK
6
CONTINUOUS
10
4.72441
20
-3.36559
11
4.72527
21
-3.35796
0
LINE
8
BLACK
6
CONTINUOUS
10
4.72527
20
-3.35796
11
4.72759
21
-3.35063
0
LINE
8
BLACK
6
CONTINUOUS
10
4.72759
20
-3.35063
11
4.73129
21
-3.3439
0
LINE
8
BLACK
6
CONTINUOUS
10
4.73129
20
-3.3439
11
4.73623
21
-3.33801
0
LINE
8
BLACK
6
CONTINUOUS
10
4.73623
20
-3.33801
11
4.74222
21
-3.3332
0
LINE
8
BLACK
6
CONTINUOUS
10
4.74222
20
-3.3332
11
4.74903
21
-3.32964
0
LINE
8
BLACK
6
CONTINUOUS
10
4.74903
20
-3.32964
11
4.7564
21
-3.32747
0
LINE
8
BLACK
6
CONTINUOUS
10
4.7564
20
-3.32747
11
4.76405
21
-3.32677
0
LINE
8
BLACK
6
CONTINUOUS
10
4.76405
20
-3.32677
11
4.7717
21
-3.32758
0
LINE
8
BLACK
6
CONTINUOUS
10
4.7717
20
-3.32758
11
4.77904
21
-3.32985
0
LINE
8
BLACK
6
CONTINUOUS
10
4.77904
20
-3.32985
11
4.7858
21
-3.3335
0
LINE
8
BLACK
6
CONTINUOUS
10
4.7858
20
-3.3335
11
4.79172
21
-3.3384
0
LINE
8
BLACK
6
CONTINUOUS
10
4.79172
20
-3.3384
11
4.79657
21
-3.34435
0
LINE
8
BLACK
6
CONTINUOUS
10
4.79657
20
-3.34435
11
4.80018
21
-3.35114
0
LINE
8
BLACK
6
CONTINUOUS
10
4.80018
20
-3.35114
11
4.80018
21
-3.35114
0
LINE
8
BLACK
6
CONTINUOUS
10
4.80018
20
-3.35114
11
4.91505
21
-3.35114
0
LINE
8
BLACK
6
CONTINUOUS
10
4.91505
20
-3.35114
11
5.1015
21
-3.16469
0
LINE
8
BLACK
6
CONTINUOUS
10
5.1015
20
-3.16469
11
5.10119
21
-3.1641
0
LINE
8
BLACK
6
CONTINUOUS
10
5.10119
20
-3.1641
11
5.09907
21
-3.15671
0
LINE
8
BLACK
6
CONTINUOUS
10
5.09907
20
-3.15671
11
5.09843
21
-3.14906
0
LINE
8
BLACK
6
CONTINUOUS
10
5.09843
20
-3.14906
11
5.09929
21
-3.14142
0
LINE
8
BLACK
6
CONTINUOUS
10
5.09929
20
-3.14142
11
5.10148
21
-3.1345
0
LINE
8
BLACK
6
CONTINUOUS
10
5.10148
20
-3.1345
11
4.91505
21
-2.94807
0
LINE
8
BLACK
6
CONTINUOUS
10
4.91505
20
-2.94807
11
4.80008
21
-2.94807
0
LINE
8
BLACK
6
CONTINUOUS
10
4.80008
20
-2.94807
11
4.79975
21
-2.94908
0
LINE
8
BLACK
6
CONTINUOUS
10
4.79975
20
-2.94908
11
4.79595
21
-2.95577
0
LINE
8
BLACK
6
CONTINUOUS
10
4.79595
20
-2.95577
11
4.79093
21
-2.96158
0
LINE
8
BLACK
6
CONTINUOUS
10
4.79093
20
-2.96158
11
4.78488
21
-2.96631
0
LINE
8
BLACK
6
CONTINUOUS
10
4.78488
20
-2.96631
11
4.77802
21
-2.96978
0
LINE
8
BLACK
6
CONTINUOUS
10
4.77802
20
-2.96978
11
4.77062
21
-2.97184
0
LINE
8
BLACK
6
CONTINUOUS
10
4.77062
20
-2.97184
11
4.76296
21
-2.97243
0
LINE
8
BLACK
6
CONTINUOUS
10
4.76296
20
-2.97243
11
4.75533
21
-2.97152
0
LINE
8
BLACK
6
CONTINUOUS
10
4.75533
20
-2.97152
11
4.74802
21
-2.96915
0
LINE
8
BLACK
6
CONTINUOUS
10
4.74802
20
-2.96915
11
4.74131
21
-2.9654
0
LINE
8
BLACK
6
CONTINUOUS
10
4.74131
20
-2.9654
11
4.73546
21
-2.96042
0
LINE
8
BLACK
6
CONTINUOUS
10
4.73546
20
-2.96042
11
4.73069
21
-2.9544
0
LINE
8
BLACK
6
CONTINUOUS
10
4.73069
20
-2.9544
11
4.72717
21
-2.94756
0
LINE
8
BLACK
6
CONTINUOUS
10
4.72717
20
-2.94756
11
4.72506
21
-2.94018
0
LINE
8
BLACK
6
CONTINUOUS
10
4.72506
20
-2.94018
11
4.72441
21
-2.93252
0
LINE
8
BLACK
6
CONTINUOUS
10
4.72441
20
-2.93252
11
4.72527
21
-2.92489
0
LINE
8
BLACK
6
CONTINUOUS
10
4.72527
20
-2.92489
11
4.72759
21
-2.91756
0
LINE
8
BLACK
6
CONTINUOUS
10
4.72759
20
-2.91756
11
4.73129
21
-2.91083
0
LINE
8
BLACK
6
CONTINUOUS
10
4.73129
20
-2.91083
11
4.73623
21
-2.90494
0
LINE
8
BLACK
6
CONTINUOUS
10
4.73623
20
-2.90494
11
4.74222
21
-2.90013
0
LINE
8
BLACK
6
CONTINUOUS
10
4.74222
20
-2.90013
11
4.74903
21
-2.89657
0
LINE
8
BLACK
6
CONTINUOUS
10
4.74903
20
-2.89657
11
4.7564
21
-2.8944
0
LINE
8
BLACK
6
CONTINUOUS
10
4.7564
20
-2.8944
11
4.76405
21
-2.8937
0
LINE
8
BLACK
6
CONTINUOUS
10
4.76405
20
-2.8937
11
4.7717
21
-2.8945
0
LINE
8
BLACK
6
CONTINUOUS
10
4.7717
20
-2.8945
11
4.77904
21
-2.89678
0
LINE
8
BLACK
6
CONTINUOUS
10
4.77904
20
-2.89678
11
4.7858
21
-2.90043
0
LINE
8
BLACK
6
CONTINUOUS
10
4.7858
20
-2.90043
11
4.79172
21
-2.90533
0
LINE
8
BLACK
6
CONTINUOUS
10
4.79172
20
-2.90533
11
4.79657
21
-2.91128
0
LINE
8
BLACK
6
CONTINUOUS
10
4.79657
20
-2.91128
11
4.80018
21
-2.91807
0
LINE
8
BLACK
6
CONTINUOUS
10
4.80018
20
-2.91807
11
4.80018
21
-2.91807
0
LINE
8
BLACK
6
CONTINUOUS
10
4.80018
20
-2.91807
11
4.91505
21
-2.91807
0
LINE
8
BLACK
6
CONTINUOUS
10
4.91505
20
-2.91807
11
5.1015
21
-2.73162
0
LINE
8
BLACK
6
CONTINUOUS
10
5.1015
20
-2.73162
11
5.10119
21
-2.73103
0
LINE
8
BLACK
6
CONTINUOUS
10
5.10119
20
-2.73103
11
5.09907
21
-2.72364
0
LINE
8
BLACK
6
CONTINUOUS
10
5.09907
20
-2.72364
11
5.09843
21
-2.71599
0
LINE
8
BLACK
6
CONTINUOUS
10
5.09843
20
-2.71599
11
5.09929
21
-2.70835
0
LINE
8
BLACK
6
CONTINUOUS
10
5.09929
20
-2.70835
11
5.10148
21
-2.70143
0
LINE
8
BLACK
6
CONTINUOUS
10
5.10148
20
-2.70143
11
4.91505
21
-2.515
0
LINE
8
BLACK
6
CONTINUOUS
10
4.91505
20
-2.515
11
4.80008
21
-2.515
0
LINE
8
BLACK
6
CONTINUOUS
10
4.80008
20
-2.515
11
4.79975
21
-2.51601
0
LINE
8
BLACK
6
CONTINUOUS
10
4.79975
20
-2.51601
11
4.79595
21
-2.52269
0
LINE
8
BLACK
6
CONTINUOUS
10
4.79595
20
-2.52269
11
4.79093
21
-2.52851
0
LINE
8
BLACK
6
CONTINUOUS
10
4.79093
20
-2.52851
11
4.78488
21
-2.53324
0
LINE
8
BLACK
6
CONTINUOUS
10
4.78488
20
-2.53324
11
4.77802
21
-2.53671
0
LINE
8
BLACK
6
CONTINUOUS
10
4.77802
20
-2.53671
11
4.77062
21
-2.53877
0
LINE
8
BLACK
6
CONTINUOUS
10
4.77062
20
-2.53877
11
4.76296
21
-2.53936
0
LINE
8
BLACK
6
CONTINUOUS
10
4.76296
20
-2.53936
11
4.75533
21
-2.53845
0
LINE
8
BLACK
6
CONTINUOUS
10
4.75533
20
-2.53845
11
4.74802
21
-2.53608
0
LINE
8
BLACK
6
CONTINUOUS
10
4.74802
20
-2.53608
11
4.74131
21
-2.53233
0
LINE
8
BLACK
6
CONTINUOUS
10
4.74131
20
-2.53233
11
4.73546
21
-2.52735
0
LINE
8
BLACK
6
CONTINUOUS
10
4.73546
20
-2.52735
11
4.73069
21
-2.52133
0
LINE
8
BLACK
6
CONTINUOUS
10
4.73069
20
-2.52133
11
4.72717
21
-2.51449
0
LINE
8
BLACK
6
CONTINUOUS
10
4.72717
20
-2.51449
11
4.72506
21
-2.50711
0
LINE
8
BLACK
6
CONTINUOUS
10
4.72506
20
-2.50711
11
4.72441
21
-2.49945
0
LINE
8
BLACK
6
CONTINUOUS
10
4.72441
20
-2.49945
11
4.72527
21
-2.49181
0
LINE
8
BLACK
6
CONTINUOUS
10
4.72527
20
-2.49181
11
4.72759
21
-2.48449
0
LINE
8
BLACK
6
CONTINUOUS
10
4.72759
20
-2.48449
11
4.73129
21
-2.47776
0
LINE
8
BLACK
6
CONTINUOUS
10
4.73129
20
-2.47776
11
4.73623
21
-2.47187
0
LINE
8
BLACK
6
CONTINUOUS
10
4.73623
20
-2.47187
11
4.74222
21
-2.46706
0
LINE
8
BLACK
6
CONTINUOUS
10
4.74222
20
-2.46706
11
4.74903
21
-2.4635
0
LINE
8
BLACK
6
CONTINUOUS
10
4.74903
20
-2.4635
11
4.7564
21
-2.46133
0
LINE
8
BLACK
6
CONTINUOUS
10
4.7564
20
-2.46133
11
4.76405
21
-2.46063
0
LINE
8
BLACK
6
CONTINUOUS
10
4.76405
20
-2.46063
11
4.7717
21
-2.46143
0
LINE
8
BLACK
6
CONTINUOUS
10
4.7717
20
-2.46143
11
4.77904
21
-2.46371
0
LINE
8
BLACK
6
CONTINUOUS
10
4.77904
20
-2.46371
11
4.7858
21
-2.46736
0
LINE
8
BLACK
6
CONTINUOUS
10
4.7858
20
-2.46736
11
4.79172
21
-2.47226
0
LINE
8
BLACK
6
CONTINUOUS
10
4.79172
20
-2.47226
11
4.79657
21
-2.47821
0
LINE
8
BLACK
6
CONTINUOUS
10
4.79657
20
-2.47821
11
4.80018
21
-2.485
0
LINE
8
BLACK
6
CONTINUOUS
10
4.80018
20
-2.485
11
4.80018
21
-2.485
0
LINE
8
BLACK
6
CONTINUOUS
10
4.80018
20
-2.485
11
4.91505
21
-2.485
0
LINE
8
BLACK
6
CONTINUOUS
10
4.91505
20
-2.485
11
5.1015
21
-2.29855
0
LINE
8
BLACK
6
CONTINUOUS
10
5.1015
20
-2.29855
11
5.10119
21
-2.29796
0
LINE
8
BLACK
6
CONTINUOUS
10
5.10119
20
-2.29796
11
5.09907
21
-2.29057
0
LINE
8
BLACK
6
CONTINUOUS
10
5.09907
20
-2.29057
11
5.09843
21
-2.28291
0
LINE
8
BLACK
6
CONTINUOUS
10
5.09843
20
-2.28291
11
5.09929
21
-2.27528
0
LINE
8
BLACK
6
CONTINUOUS
10
5.09929
20
-2.27528
11
5.10161
21
-2.26796
0
LINE
8
BLACK
6
CONTINUOUS
10
5.10161
20
-2.26796
11
5.10531
21
-2.26122
0
LINE
8
BLACK
6
CONTINUOUS
10
5.10531
20
-2.26122
11
5.11025
21
-2.25534
0
LINE
8
BLACK
6
CONTINUOUS
10
5.11025
20
-2.25534
11
5.11624
21
-2.25052
0
LINE
8
BLACK
6
CONTINUOUS
10
5.11624
20
-2.25052
11
5.12305
21
-2.24696
0
LINE
8
BLACK
6
CONTINUOUS
10
5.12305
20
-2.24696
11
5.13042
21
-2.24479
0
LINE
8
BLACK
6
CONTINUOUS
10
5.13042
20
-2.24479
11
5.13807
21
-2.2441
0
LINE
8
BLACK
6
CONTINUOUS
10
5.13807
20
-2.2441
11
5.14571
21
-2.2449
0
LINE
8
BLACK
6
CONTINUOUS
10
5.14571
20
-2.2449
11
5.15305
21
-2.24717
0
LINE
8
BLACK
6
CONTINUOUS
10
5.15305
20
-2.24717
11
5.15981
21
-2.25083
0
LINE
8
BLACK
6
CONTINUOUS
10
5.15981
20
-2.25083
11
5.16573
21
-2.25572
0
LINE
8
BLACK
6
CONTINUOUS
10
5.16573
20
-2.25572
11
5.17059
21
-2.26168
0
LINE
8
BLACK
6
CONTINUOUS
10
5.17059
20
-2.26168
11
5.17419
21
-2.26846
0
LINE
8
BLACK
6
CONTINUOUS
10
5.17419
20
-2.26846
11
5.17642
21
-2.27582
0
LINE
8
BLACK
6
CONTINUOUS
10
5.17642
20
-2.27582
11
5.17717
21
-2.28346
0
LINE
8
BLACK
6
CONTINUOUS
10
5.17717
20
-2.28346
11
5.17715
21
-2.28456
0
LINE
8
BLACK
6
CONTINUOUS
10
5.17715
20
-2.28456
11
5.17619
21
-2.29219
0
LINE
8
BLACK
6
CONTINUOUS
10
5.17619
20
-2.29219
11
5.17376
21
-2.29948
0
LINE
8
BLACK
6
CONTINUOUS
10
5.17376
20
-2.29948
11
5.16997
21
-2.30616
0
LINE
8
BLACK
6
CONTINUOUS
10
5.16997
20
-2.30616
11
5.16495
21
-2.31198
0
LINE
8
BLACK
6
CONTINUOUS
10
5.16495
20
-2.31198
11
5.15889
21
-2.31671
0
LINE
8
BLACK
6
CONTINUOUS
10
5.15889
20
-2.31671
11
5.15203
21
-2.32017
0
LINE
8
BLACK
6
CONTINUOUS
10
5.15203
20
-2.32017
11
5.14463
21
-2.32224
0
LINE
8
BLACK
6
CONTINUOUS
10
5.14463
20
-2.32224
11
5.13697
21
-2.32283
0
LINE
8
BLACK
6
CONTINUOUS
10
5.13697
20
-2.32283
11
5.12934
21
-2.32192
0
LINE
8
BLACK
6
CONTINUOUS
10
5.12934
20
-2.32192
11
5.12271
21
-2.31976
0
LINE
8
BLACK
6
CONTINUOUS
10
5.12271
20
-2.31976
11
4.94247
21
-2.5
0
LINE
8
BLACK
6
CONTINUOUS
10
4.94247
20
-2.5
11
5.12269
21
-2.68022
0
LINE
8
BLACK
6
CONTINUOUS
10
5.12269
20
-2.68022
11
5.12305
21
-2.68003
0
LINE
8
BLACK
6
CONTINUOUS
10
5.12305
20
-2.68003
11
5.13042
21
-2.67786
0
LINE
8
BLACK
6
CONTINUOUS
10
5.13042
20
-2.67786
11
5.13807
21
-2.67717
0
LINE
8
BLACK
6
CONTINUOUS
10
5.13807
20
-2.67717
11
5.14571
21
-2.67797
0
LINE
8
BLACK
6
CONTINUOUS
10
5.14571
20
-2.67797
11
5.15305
21
-2.68024
0
LINE
8
BLACK
6
CONTINUOUS
10
5.15305
20
-2.68024
11
5.15981
21
-2.6839
0
LINE
8
BLACK
6
CONTINUOUS
10
5.15981
20
-2.6839
11
5.16573
21
-2.68879
0
LINE
8
BLACK
6
CONTINUOUS
10
5.16573
20
-2.68879
11
5.17059
21
-2.69475
0
LINE
8
BLACK
6
CONTINUOUS
10
5.17059
20
-2.69475
11
5.17419
21
-2.70153
0
LINE
8
BLACK
6
CONTINUOUS
10
5.17419
20
-2.70153
11
5.1742
21
-2.70154
0
LINE
8
BLACK
6
CONTINUOUS
10
5.1742
20
-2.70154
11
5.28906
21
-2.70154
0
LINE
8
BLACK
6
CONTINUOUS
10
5.28906
20
-2.70154
11
5.47551
21
-2.51509
0
LINE
8
BLACK
6
CONTINUOUS
10
5.47551
20
-2.51509
11
5.47521
21
-2.51449
0
LINE
8
BLACK
6
CONTINUOUS
10
5.47521
20
-2.51449
11
5.47309
21
-2.50711
0
LINE
8
BLACK
6
CONTINUOUS
10
5.47309
20
-2.50711
11
5.47244
21
-2.49945
0
LINE
8
BLACK
6
CONTINUOUS
10
5.47244
20
-2.49945
11
5.4733
21
-2.49181
0
LINE
8
BLACK
6
CONTINUOUS
10
5.4733
20
-2.49181
11
5.47562
21
-2.48449
0
LINE
8
BLACK
6
CONTINUOUS
10
5.47562
20
-2.48449
11
5.47933
21
-2.47776
0
LINE
8
BLACK
6
CONTINUOUS
10
5.47933
20
-2.47776
11
5.48427
21
-2.47187
0
LINE
8
BLACK
6
CONTINUOUS
10
5.48427
20
-2.47187
11
5.49025
21
-2.46706
0
LINE
8
BLACK
6
CONTINUOUS
10
5.49025
20
-2.46706
11
5.49706
21
-2.4635
0
LINE
8
BLACK
6
CONTINUOUS
10
5.49706
20
-2.4635
11
5.50443
21
-2.46133
0
LINE
8
BLACK
6
CONTINUOUS
10
5.50443
20
-2.46133
11
5.51209
21
-2.46063
0
LINE
8
BLACK
6
CONTINUOUS
10
5.51209
20
-2.46063
11
5.51973
21
-2.46143
0
LINE
8
BLACK
6
CONTINUOUS
10
5.51973
20
-2.46143
11
5.52693
21
-2.46366
0
LINE
8
BLACK
6
CONTINUOUS
10
5.52693
20
-2.46366
11
5.70713
21
-2.28346
0
LINE
8
BLACK
6
CONTINUOUS
10
5.70713
20
-2.28346
11
5.52688
21
-2.10321
0
LINE
8
BLACK
6
CONTINUOUS
10
5.52688
20
-2.10321
11
5.52605
21
-2.10363
0
LINE
8
BLACK
6
CONTINUOUS
10
5.52605
20
-2.10363
11
5.51865
21
-2.1057
0
LINE
8
BLACK
6
CONTINUOUS
10
5.51865
20
-2.1057
11
5.51099
21
-2.10629
0
LINE
8
BLACK
6
CONTINUOUS
10
5.51099
20
-2.10629
11
5.50336
21
-2.10538
0
LINE
8
BLACK
6
CONTINUOUS
10
5.50336
20
-2.10538
11
5.49605
21
-2.10301
0
LINE
8
BLACK
6
CONTINUOUS
10
5.49605
20
-2.10301
11
5.48934
21
-2.09926
0
LINE
8
BLACK
6
CONTINUOUS
10
5.48934
20
-2.09926
11
5.48349
21
-2.09428
0
LINE
8
BLACK
6
CONTINUOUS
10
5.48349
20
-2.09428
11
5.47872
21
-2.08826
0
LINE
8
BLACK
6
CONTINUOUS
10
5.47872
20
-2.08826
11
5.47521
21
-2.08142
0
LINE
8
BLACK
6
CONTINUOUS
10
5.47521
20
-2.08142
11
5.47309
21
-2.07404
0
LINE
8
BLACK
6
CONTINUOUS
10
5.47309
20
-2.07404
11
5.47244
21
-2.06638
0
LINE
8
BLACK
6
CONTINUOUS
10
5.47244
20
-2.06638
11
5.4733
21
-2.05874
0
LINE
8
BLACK
6
CONTINUOUS
10
5.4733
20
-2.05874
11
5.47562
21
-2.05142
0
LINE
8
BLACK
6
CONTINUOUS
10
5.47562
20
-2.05142
11
5.47933
21
-2.04469
0
LINE
8
BLACK
6
CONTINUOUS
10
5.47933
20
-2.04469
11
5.48427
21
-2.0388
0
LINE
8
BLACK
6
CONTINUOUS
10
5.48427
20
-2.0388
11
5.49025
21
-2.03399
0
LINE
8
BLACK
6
CONTINUOUS
10
5.49025
20
-2.03399
11
5.49706
21
-2.03043
0
LINE
8
BLACK
6
CONTINUOUS
10
5.49706
20
-2.03043
11
5.50443
21
-2.02826
0
LINE
8
BLACK
6
CONTINUOUS
10
5.50443
20
-2.02826
11
5.51209
21
-2.02756
0
LINE
8
BLACK
6
CONTINUOUS
10
5.51209
20
-2.02756
11
5.51973
21
-2.02836
0
LINE
8
BLACK
6
CONTINUOUS
10
5.89374
20
-3.74096
11
5.90108
21
-3.74323
0
LINE
8
BLACK
6
CONTINUOUS
10
5.90108
20
-3.74323
11
5.90784
21
-3.74689
0
LINE
8
BLACK
6
CONTINUOUS
10
5.90784
20
-3.74689
11
5.91376
21
-3.75179
0
LINE
8
BLACK
6
CONTINUOUS
10
5.91376
20
-3.75179
11
5.91862
21
-3.75774
0
LINE
8
BLACK
6
CONTINUOUS
10
5.91862
20
-3.75774
11
5.92223
21
-3.76452
0
LINE
8
BLACK
6
CONTINUOUS
10
5.92223
20
-3.76452
11
5.92445
21
-3.77188
0
LINE
8
BLACK
6
CONTINUOUS
10
5.92445
20
-3.77188
11
5.9252
21
-3.77953
0
LINE
8
BLACK
6
CONTINUOUS
10
5.9252
20
-3.77953
11
5.92518
21
-3.78063
0
LINE
8
BLACK
6
CONTINUOUS
10
5.92518
20
-3.78063
11
5.92422
21
-3.78825
0
LINE
8
BLACK
6
CONTINUOUS
10
5.92422
20
-3.78825
11
5.92179
21
-3.79554
0
LINE
8
BLACK
6
CONTINUOUS
10
5.92179
20
-3.79554
11
5.918
21
-3.80222
0
LINE
8
BLACK
6
CONTINUOUS
10
5.918
20
-3.80222
11
5.91298
21
-3.80804
0
LINE
8
BLACK
6
CONTINUOUS
10
5.91298
20
-3.80804
11
5.90692
21
-3.81277
0
LINE
8
BLACK
6
CONTINUOUS
10
5.90692
20
-3.81277
11
5.90006
21
-3.81623
0
LINE
8
BLACK
6
CONTINUOUS
10
5.90006
20
-3.81623
11
5.89266
21
-3.8183
0
LINE
8
BLACK
6
CONTINUOUS
10
5.89266
20
-3.8183
11
5.885
21
-3.81889
0
LINE
8
BLACK
6
CONTINUOUS
10
5.885
20
-3.81889
11
5.87737
21
-3.81798
0
LINE
8
BLACK
6
CONTINUOUS
10
5.87737
20
-3.81798
11
5.87007
21
-3.8156
0
LINE
8
BLACK
6
CONTINUOUS
10
5.87007
20
-3.8156
11
5.86336
21
-3.81186
0
LINE
8
BLACK
6
CONTINUOUS
10
5.86336
20
-3.81186
11
5.85751
21
-3.80688
0
LINE
8
BLACK
6
CONTINUOUS
10
5.85751
20
-3.80688
11
5.85273
21
-3.80085
0
LINE
8
BLACK
6
CONTINUOUS
10
5.85273
20
-3.80085
11
5.84922
21
-3.79402
0
LINE
8
BLACK
6
CONTINUOUS
10
5.84922
20
-3.79402
11
5.8471
21
-3.78663
0
LINE
8
BLACK
6
CONTINUOUS
10
5.8471
20
-3.78663
11
5.84646
21
-3.77898
0
LINE
8
BLACK
6
CONTINUOUS
10
5.84646
20
-3.77898
11
5.84732
21
-3.77134
0
LINE
8
BLACK
6
CONTINUOUS
10
5.84732
20
-3.77134
11
5.84964
21
-3.76402
0
LINE
8
BLACK
6
CONTINUOUS
10
5.84964
20
-3.76402
11
5.85334
21
-3.75728
0
LINE
8
BLACK
6
CONTINUOUS
10
5.85334
20
-3.75728
11
5.85828
21
-3.7514
0
LINE
8
BLACK
6
CONTINUOUS
10
5.85828
20
-3.7514
11
5.86427
21
-3.74658
0
LINE
8
BLACK
6
CONTINUOUS
10
5.86427
20
-3.74658
11
5.87108
21
-3.74302
0
LINE
8
BLACK
6
CONTINUOUS
10
5.87108
20
-3.74302
11
5.87845
21
-3.74085
0
LINE
8
BLACK
6
CONTINUOUS
10
5.87845
20
-3.74085
11
5.8861
21
-3.74016
0
LINE
8
BLACK
6
CONTINUOUS
10
5.8861
20
-3.74016
11
5.89374
21
-3.74096
0
LINE
8
BLACK
6
CONTINUOUS
10
5.14571
20
-3.74096
11
5.15305
21
-3.74323
0
LINE
8
BLACK
6
CONTINUOUS
10
5.15305
20
-3.74323
11
5.15981
21
-3.74689
0
LINE
8
BLACK
6
CONTINUOUS
10
5.15981
20
-3.74689
11
5.16573
21
-3.75179
0
LINE
8
BLACK
6
CONTINUOUS
10
5.16573
20
-3.75179
11
5.17059
21
-3.75774
0
LINE
8
BLACK
6
CONTINUOUS
10
5.17059
20
-3.75774
11
5.17419
21
-3.76452
0
LINE
8
BLACK
6
CONTINUOUS
10
5.17419
20
-3.76452
11
5.17642
21
-3.77188
0
LINE
8
BLACK
6
CONTINUOUS
10
5.17642
20
-3.77188
11
5.17717
21
-3.77953
0
LINE
8
BLACK
6
CONTINUOUS
10
5.17717
20
-3.77953
11
5.17715
21
-3.78063
0
LINE
8
BLACK
6
CONTINUOUS
10
5.17715
20
-3.78063
11
5.17619
21
-3.78825
0
LINE
8
BLACK
6
CONTINUOUS
10
5.17619
20
-3.78825
11
5.17376
21
-3.79554
0
LINE
8
BLACK
6
CONTINUOUS
10
5.17376
20
-3.79554
11
5.16997
21
-3.80222
0
LINE
8
BLACK
6
CONTINUOUS
10
5.16997
20
-3.80222
11
5.16495
21
-3.80804
0
LINE
8
BLACK
6
CONTINUOUS
10
5.16495
20
-3.80804
11
5.15889
21
-3.81277
0
LINE
8
BLACK
6
CONTINUOUS
10
5.15889
20
-3.81277
11
5.15203
21
-3.81623
0
LINE
8
BLACK
6
CONTINUOUS
10
5.15203
20
-3.81623
11
5.14463
21
-3.8183
0
LINE
8
BLACK
6
CONTINUOUS
10
5.14463
20
-3.8183
11
5.13697
21
-3.81889
0
LINE
8
BLACK
6
CONTINUOUS
10
5.13697
20
-3.81889
11
5.12934
21
-3.81798
0
LINE
8
BLACK
6
CONTINUOUS
10
5.12934
20
-3.81798
11
5.12203
21
-3.8156
0
LINE
8
BLACK
6
CONTINUOUS
10
5.12203
20
-3.8156
11
5.11533
21
-3.81186
0
LINE
8
BLACK
6
CONTINUOUS
10
5.11533
20
-3.81186
11
5.10947
21
-3.80688
0
LINE
8
BLACK
6
CONTINUOUS
10
5.10947
20
-3.80688
11
5.1047
21
-3.80085
0
LINE
8
BLACK
6
CONTINUOUS
10
5.1047
20
-3.80085
11
5.10119
21
-3.79402
0
LINE
8
BLACK
6
CONTINUOUS
10
5.10119
20
-3.79402
11
5.09907
21
-3.78663
0
LINE
8
BLACK
6
CONTINUOUS
10
5.09907
20
-3.78663
11
5.09843
21
-3.77898
0
LINE
8
BLACK
6
CONTINUOUS
10
5.09843
20
-3.77898
11
5.09929
21
-3.77134
0
LINE
8
BLACK
6
CONTINUOUS
10
5.09929
20
-3.77134
11
5.10161
21
-3.76402
0
LINE
8
BLACK
6
CONTINUOUS
10
5.10161
20
-3.76402
11
5.10531
21
-3.75728
0
LINE
8
BLACK
6
CONTINUOUS
10
5.10531
20
-3.75728
11
5.11025
21
-3.7514
0
LINE
8
BLACK
6
CONTINUOUS
10
5.11025
20
-3.7514
11
5.11624
21
-3.74658
0
LINE
8
BLACK
6
CONTINUOUS
10
5.11624
20
-3.74658
11
5.12305
21
-3.74302
0
LINE
8
BLACK
6
CONTINUOUS
10
5.12305
20
-3.74302
11
5.13042
21
-3.74085
0
LINE
8
BLACK
6
CONTINUOUS
10
5.13042
20
-3.74085
11
5.13807
21
-3.74016
0
LINE
8
BLACK
6
CONTINUOUS
10
5.13807
20
-3.74016
11
5.14571
21
-3.74096
0
LINE
8
BLACK
6
CONTINUOUS
10
5.684
20
-3.7803
11
5.68839
21
-3.78254
0
LINE
8
BLACK
6
CONTINUOUS
10
5.68839
20
-3.78254
11
5.69187
21
-3.78602
0
LINE
8
BLACK
6
CONTINUOUS
10
5.69187
20
-3.78602
11
5.69411
21
-3.79041
0
LINE
8
BLACK
6
CONTINUOUS
10
5.69411
20
-3.79041
11
5.69488
21
-3.79528
0
LINE
8
BLACK
6
CONTINUOUS
10
5.69488
20
-3.79528
11
5.69411
21
-3.80014
0
LINE
8
BLACK
6
CONTINUOUS
10
5.69411
20
-3.80014
11
5.69187
21
-3.80453
0
LINE
8
BLACK
6
CONTINUOUS
10
5.69187
20
-3.80453
11
5.68839
21
-3.80802
0
LINE
8
BLACK
6
CONTINUOUS
10
5.68839
20
-3.80802
11
5.684
21
-3.81025
0
LINE
8
BLACK
6
CONTINUOUS
10
5.684
20
-3.81025
11
5.67913
21
-3.81102
0
LINE
8
BLACK
6
CONTINUOUS
10
5.67913
20
-3.81102
11
5.67427
21
-3.81025
0
LINE
8
BLACK
6
CONTINUOUS
10
5.67427
20
-3.81025
11
5.66988
21
-3.80802
0
LINE
8
BLACK
6
CONTINUOUS
10
5.66988
20
-3.80802
11
5.66639
21
-3.80453
0
LINE
8
BLACK
6
CONTINUOUS
10
5.66639
20
-3.80453
11
5.66416
21
-3.80014
0
LINE
8
BLACK
6
CONTINUOUS
10
5.66416
20
-3.80014
11
5.66339
21
-3.79528
0
LINE
8
BLACK
6
CONTINUOUS
10
5.66339
20
-3.79528
11
5.66416
21
-3.79041
0
LINE
8
BLACK
6
CONTINUOUS
10
5.66416
20
-3.79041
11
5.66639
21
-3.78602
0
LINE
8
BLACK
6
CONTINUOUS
10
5.66639
20
-3.78602
11
5.66988
21
-3.78254
0
LINE
8
BLACK
6
CONTINUOUS
10
5.66988
20
-3.78254
11
5.67427
21
-3.7803
0
LINE
8
BLACK
6
CONTINUOUS
10
5.67427
20
-3.7803
11
5.67913
21
-3.77953
0
LINE
8
BLACK
6
CONTINUOUS
10
5.67913
20
-3.77953
11
5.684
21
-3.7803
0
LINE
8
BLACK
6
CONTINUOUS
10
5.51973
20
-3.52443
11
5.52707
21
-3.5267
0
LINE
8
BLACK
6
CONTINUOUS
10
5.52707
20
-3.5267
11
5.53383
21
-3.53035
0
LINE
8
BLACK
6
CONTINUOUS
10
5.53383
20
-3.53035
11
5.53975
21
-3.53525
0
LINE
8
BLACK
6
CONTINUOUS
10
5.53975
20
-3.53525
11
5.5446
21
-3.54121
0
LINE
8
BLACK
6
CONTINUOUS
10
5.5446
20
-3.54121
11
5.54821
21
-3.54799
0
LINE
8
BLACK
6
CONTINUOUS
10
5.54821
20
-3.54799
11
5.55043
21
-3.55535
0
LINE
8
BLACK
6
CONTINUOUS
10
5.55043
20
-3.55535
11
5.55118
21
-3.56299
0
LINE
8
BLACK
6
CONTINUOUS
10
5.55118
20
-3.56299
11
5.55117
21
-3.56409
0
LINE
8
BLACK
6
CONTINUOUS
10
5.55117
20
-3.56409
11
5.5502
21
-3.57171
0
LINE
8
BLACK
6
CONTINUOUS
10
5.5502
20
-3.57171
11
5.54778
21
-3.57901
0
LINE
8
BLACK
6
CONTINUOUS
10
5.54778
20
-3.57901
11
5.54398
21
-3.58569
0
LINE
8
BLACK
6
CONTINUOUS
10
5.54398
20
-3.58569
11
5.53896
21
-3.5915
0
LINE
8
BLACK
6
CONTINUOUS
10
5.53896
20
-3.5915
11
5.53291
21
-3.59623
0
LINE
8
BLACK
6
CONTINUOUS
10
5.53291
20
-3.59623
11
5.52605
21
-3.5997
0
LINE
8
BLACK
6
CONTINUOUS
10
5.52605
20
-3.5997
11
5.51865
21
-3.60176
0
LINE
8
BLACK
6
CONTINUOUS
10
5.51865
20
-3.60176
11
5.51099
21
-3.60235
0
LINE
8
BLACK
6
CONTINUOUS
10
5.51099
20
-3.60235
11
5.50336
21
-3.60144
0
LINE
8
BLACK
6
CONTINUOUS
10
5.50336
20
-3.60144
11
5.49605
21
-3.59907
0
LINE
8
BLACK
6
CONTINUOUS
10
5.49605
20
-3.59907
11
5.48934
21
-3.59532
0
LINE
8
BLACK
6
CONTINUOUS
10
5.48934
20
-3.59532
11
5.48349
21
-3.59034
0
LINE
8
BLACK
6
CONTINUOUS
10
5.48349
20
-3.59034
11
5.47872
21
-3.58432
0
LINE
8
BLACK
6
CONTINUOUS
10
5.47872
20
-3.58432
11
5.47521
21
-3.57749
0
LINE
8
BLACK
6
CONTINUOUS
10
5.47521
20
-3.57749
11
5.47309
21
-3.5701
0
LINE
8
BLACK
6
CONTINUOUS
10
5.47309
20
-3.5701
11
5.47244
21
-3.56244
0
LINE
8
BLACK
6
CONTINUOUS
10
5.47244
20
-3.56244
11
5.4733
21
-3.55481
0
LINE
8
BLACK
6
CONTINUOUS
10
5.4733
20
-3.55481
11
5.47562
21
-3.54748
0
LINE
8
BLACK
6
CONTINUOUS
10
5.47562
20
-3.54748
11
5.47933
21
-3.54075
0
LINE
8
BLACK
6
CONTINUOUS
10
5.47933
20
-3.54075
11
5.48427
21
-3.53486
0
LINE
8
BLACK
6
CONTINUOUS
10
5.48427
20
-3.53486
11
5.49025
21
-3.53005
0
LINE
8
BLACK
6
CONTINUOUS
10
5.49025
20
-3.53005
11
5.49706
21
-3.52649
0
LINE
8
BLACK
6
CONTINUOUS
10
5.49706
20
-3.52649
11
5.50443
21
-3.52432
0
LINE
8
BLACK
6
CONTINUOUS
10
5.50443
20
-3.52432
11
5.51209
21
-3.52362
0
LINE
8
BLACK
6
CONTINUOUS
10
5.51209
20
-3.52362
11
5.51973
21
-3.52443
0
LINE
8
BLACK
6
CONTINUOUS
10
6.26776
20
-3.52443
11
6.2751
21
-3.5267
0
LINE
8
BLACK
6
CONTINUOUS
10
6.2751
20
-3.5267
11
6.28186
21
-3.53035
0
LINE
8
BLACK
6
CONTINUOUS
10
6.28186
20
-3.53035
11
6.28778
21
-3.53525
0
LINE
8
BLACK
6
CONTINUOUS
10
6.28778
20
-3.53525
11
6.29263
21
-3.54121
0
LINE
8
BLACK
6
CONTINUOUS
10
6.29263
20
-3.54121
11
6.29624
21
-3.54799
0
LINE
8
BLACK
6
CONTINUOUS
10
6.29624
20
-3.54799
11
6.29846
21
-3.55535
0
LINE
8
BLACK
6
CONTINUOUS
10
6.29846
20
-3.55535
11
6.29921
21
-3.56299
0
LINE
8
BLACK
6
CONTINUOUS
10
6.29921
20
-3.56299
11
6.2992
21
-3.56409
0
LINE
8
BLACK
6
CONTINUOUS
10
6.2992
20
-3.56409
11
6.29823
21
-3.57171
0
LINE
8
BLACK
6
CONTINUOUS
10
6.29823
20
-3.57171
11
6.29581
21
-3.57901
0
LINE
8
BLACK
6
CONTINUOUS
10
6.29581
20
-3.57901
11
6.29201
21
-3.58569
0
LINE
8
BLACK
6
CONTINUOUS
10
6.29201
20
-3.58569
11
6.28699
21
-3.5915
0
LINE
8
BLACK
6
CONTINUOUS
10
6.28699
20
-3.5915
11
6.28094
21
-3.59623
0
LINE
8
BLACK
6
CONTINUOUS
10
6.28094
20
-3.59623
11
6.27408
21
-3.5997
0
LINE
8
BLACK
6
CONTINUOUS
10
6.27408
20
-3.5997
11
6.26668
21
-3.60176
0
LINE
8
BLACK
6
CONTINUOUS
10
6.26668
20
-3.60176
11
6.25902
21
-3.60235
0
LINE
8
BLACK
6
CONTINUOUS
10
6.25902
20
-3.60235
11
6.25139
21
-3.60144
0
LINE
8
BLACK
6
CONTINUOUS
10
6.25139
20
-3.60144
11
6.24408
21
-3.59907
0
LINE
8
BLACK
6
CONTINUOUS
10
6.24408
20
-3.59907
11
6.23737
21
-3.59532
0
LINE
8
BLACK
6
CONTINUOUS
10
6.23737
20
-3.59532
11
6.23152
21
-3.59034
0
LINE
8
BLACK
6
CONTINUOUS
10
6.23152
20
-3.59034
11
6.22675
21
-3.58432
0
LINE
8
BLACK
6
CONTINUOUS
10
6.22675
20
-3.58432
11
6.22324
21
-3.57749
0
LINE
8
BLACK
6
CONTINUOUS
10
6.22324
20
-3.57749
11
6.22112
21
-3.5701
0
LINE
8
BLACK
6
CONTINUOUS
10
6.22112
20
-3.5701
11
6.22048
21
-3.56244
0
LINE
8
BLACK
6
CONTINUOUS
10
6.22048
20
-3.56244
11
6.22133
21
-3.55481
0
LINE
8
BLACK
6
CONTINUOUS
10
6.22133
20
-3.55481
11
6.22366
21
-3.54748
0
LINE
8
BLACK
6
CONTINUOUS
10
6.22366
20
-3.54748
11
6.22736
21
-3.54075
0
LINE
8
BLACK
6
CONTINUOUS
10
6.22736
20
-3.54075
11
6.2323
21
-3.53486
0
LINE
8
BLACK
6
CONTINUOUS
10
6.2323
20
-3.53486
11
6.23828
21
-3.53005
0
LINE
8
BLACK
6
CONTINUOUS
10
6.23828
20
-3.53005
11
6.24509
21
-3.52649
0
LINE
8
BLACK
6
CONTINUOUS
10
6.24509
20
-3.52649
11
6.25247
21
-3.52432
0
LINE
8
BLACK
6
CONTINUOUS
10
6.25247
20
-3.52432
11
6.26012
21
-3.52362
0
LINE
8
BLACK
6
CONTINUOUS
10
6.26012
20
-3.52362
11
6.26776
21
-3.52443
0
LINE
8
BLACK
6
CONTINUOUS
10
4.7717
20
-3.52443
11
4.77904
21
-3.5267
0
LINE
8
BLACK
6
CONTINUOUS
10
4.77904
20
-3.5267
11
4.7858
21
-3.53035
0
LINE
8
BLACK
6
CONTINUOUS
10
4.7858
20
-3.53035
11
4.79172
21
-3.53525
0
LINE
8
BLACK
6
CONTINUOUS
10
4.79172
20
-3.53525
11
4.79657
21
-3.54121
0
LINE
8
BLACK
6
CONTINUOUS
10
4.79657
20
-3.54121
11
4.80018
21
-3.54799
0
LINE
8
BLACK
6
CONTINUOUS
10
4.80018
20
-3.54799
11
4.8024
21
-3.55535
0
LINE
8
BLACK
6
CONTINUOUS
10
4.8024
20
-3.55535
11
4.80315
21
-3.56299
0
LINE
8
BLACK
6
CONTINUOUS
10
4.80315
20
-3.56299
11
4.80313
21
-3.56409
0
LINE
8
BLACK
6
CONTINUOUS
10
4.80313
20
-3.56409
11
4.80217
21
-3.57171
0
LINE
8
BLACK
6
CONTINUOUS
10
4.80217
20
-3.57171
11
4.79975
21
-3.57901
0
LINE
8
BLACK
6
CONTINUOUS
10
4.79975
20
-3.57901
11
4.79595
21
-3.58569
0
LINE
8
BLACK
6
CONTINUOUS
10
4.79595
20
-3.58569
11
4.79093
21
-3.5915
0
LINE
8
BLACK
6
CONTINUOUS
10
4.79093
20
-3.5915
11
4.78488
21
-3.59623
0
LINE
8
BLACK
6
CONTINUOUS
10
4.78488
20
-3.59623
11
4.77802
21
-3.5997
0
LINE
8
BLACK
6
CONTINUOUS
10
4.77802
20
-3.5997
11
4.77062
21
-3.60176
0
LINE
8
BLACK
6
CONTINUOUS
10
4.77062
20
-3.60176
11
4.76296
21
-3.60235
0
LINE
8
BLACK
6
CONTINUOUS
10
4.76296
20
-3.60235
11
4.75533
21
-3.60144
0
LINE
8
BLACK
6
CONTINUOUS
10
4.75533
20
-3.60144
11
4.74802
21
-3.59907
0
LINE
8
BLACK
6
CONTINUOUS
10
4.74802
20
-3.59907
11
4.74131
21
-3.59532
0
LINE
8
BLACK
6
CONTINUOUS
10
4.74131
20
-3.59532
11
4.73546
21
-3.59034
0
LINE
8
BLACK
6
CONTINUOUS
10
4.73546
20
-3.59034
11
4.73069
21
-3.58432
0
LINE
8
BLACK
6
CONTINUOUS
10
4.73069
20
-3.58432
11
4.72717
21
-3.57749
0
LINE
8
BLACK
6
CONTINUOUS
10
4.72717
20
-3.57749
11
4.72506
21
-3.5701
0
LINE
8
BLACK
6
CONTINUOUS
10
4.72506
20
-3.5701
11
4.72441
21
-3.56244
0
LINE
8
BLACK
6
CONTINUOUS
10
4.72441
20
-3.56244
11
4.72527
21
-3.55481
0
LINE
8
BLACK
6
CONTINUOUS
10
4.72527
20
-3.55481
11
4.72759
21
-3.54748
0
LINE
8
BLACK
6
CONTINUOUS
10
4.72759
20
-3.54748
11
4.73129
21
-3.54075
0
LINE
8
BLACK
6
CONTINUOUS
10
4.73129
20
-3.54075
11
4.73623
21
-3.53486
0
LINE
8
BLACK
6
CONTINUOUS
10
4.73623
20
-3.53486
11
4.74222
21
-3.53005
0
LINE
8
BLACK
6
CONTINUOUS
10
4.74222
20
-3.53005
11
4.74903
21
-3.52649
0
LINE
8
BLACK
6
CONTINUOUS
10
4.74903
20
-3.52649
11
4.7564
21
-3.52432
0
LINE
8
BLACK
6
CONTINUOUS
10
4.7564
20
-3.52432
11
4.76405
21
-3.52362
0
LINE
8
BLACK
6
CONTINUOUS
10
4.76405
20
-3.52362
11
4.7717
21
-3.52443
0
LINE
8
BLACK
6
CONTINUOUS
10
5.684
20
-3.54605
11
5.68839
21
-3.54828
0
LINE
8
BLACK
6
CONTINUOUS
10
5.68839
20
-3.54828
11
5.69187
21
-3.55177
0
LINE
8
BLACK
6
CONTINUOUS
10
5.69187
20
-3.55177
11
5.69411
21
-3.55616
0
LINE
8
BLACK
6
CONTINUOUS
10
5.69411
20
-3.55616
11
5.69488
21
-3.56102
0
LINE
8
BLACK
6
CONTINUOUS
10
5.69488
20
-3.56102
11
5.69411
21
-3.56589
0
LINE
8
BLACK
6
CONTINUOUS
10
5.69411
20
-3.56589
11
5.69187
21
-3.57028
0
LINE
8
BLACK
6
CONTINUOUS
10
5.69187
20
-3.57028
11
5.68839
21
-3.57376
0
LINE
8
BLACK
6
CONTINUOUS
10
5.68839
20
-3.57376
11
5.684
21
-3.576
0
LINE
8
BLACK
6
CONTINUOUS
10
5.684
20
-3.576
11
5.67913
21
-3.57677
0
LINE
8
BLACK
6
CONTINUOUS
10
5.67913
20
-3.57677
11
5.67427
21
-3.576
0
LINE
8
BLACK
6
CONTINUOUS
10
5.67427
20
-3.576
11
5.66988
21
-3.57376
0
LINE
8
BLACK
6
CONTINUOUS
10
5.66988
20
-3.57376
11
5.66639
21
-3.57028
0
LINE
8
BLACK
6
CONTINUOUS
10
5.66639
20
-3.57028
11
5.66416
21
-3.56589
0
LINE
8
BLACK
6
CONTINUOUS
10
5.66416
20
-3.56589
11
5.66339
21
-3.56102
0
LINE
8
BLACK
6
CONTINUOUS
10
5.66339
20
-3.56102
11
5.66416
21
-3.55616
0
LINE
8
BLACK
6
CONTINUOUS
10
5.66416
20
-3.55616
11
5.66639
21
-3.55177
0
LINE
8
BLACK
6
CONTINUOUS
10
5.66639
20
-3.55177
11
5.66988
21
-3.54828
0
LINE
8
BLACK
6
CONTINUOUS
10
5.66988
20
-3.54828
11
5.67427
21
-3.54605
0
LINE
8
BLACK
6
CONTINUOUS
10
5.67427
20
-3.54605
11
5.67913
21
-3.54528
0
LINE
8
BLACK
6
CONTINUOUS
10
5.67913
20
-3.54528
11
5.684
21
-3.54605
0
LINE
8
BLACK
6
CONTINUOUS
10
6.43959
20
-3.4197
11
6.44435
21
-3.42112
0
LINE
8
BLACK
6
CONTINUOUS
10
6.44435
20
-3.42112
11
6.44851
21
-3.42382
0
LINE
8
BLACK
6
CONTINUOUS
10
6.44851
20
-3.42382
11
6.45175
21
-3.42758
0
LINE
8
BLACK
6
CONTINUOUS
10
6.45175
20
-3.42758
11
6.4538
21
-3.4321
0
LINE
8
BLACK
6
CONTINUOUS
10
6.4538
20
-3.4321
11
6.45451
21
-3.43701
0
LINE
8
BLACK
6
CONTINUOUS
10
6.45451
20
-3.43701
11
6.4545
21
-3.43744
0
LINE
8
BLACK
6
CONTINUOUS
10
6.4545
20
-3.43744
11
6.45368
21
-3.44233
0
LINE
8
BLACK
6
CONTINUOUS
10
6.45368
20
-3.44233
11
6.45152
21
-3.44679
0
LINE
8
BLACK
6
CONTINUOUS
10
6.45152
20
-3.44679
11
6.44819
21
-3.45047
0
LINE
8
BLACK
6
CONTINUOUS
10
6.44819
20
-3.45047
11
6.44396
21
-3.45307
0
LINE
8
BLACK
6
CONTINUOUS
10
6.44396
20
-3.45307
11
6.43917
21
-3.45437
0
LINE
8
BLACK
6
CONTINUOUS
10
6.43917
20
-3.45437
11
6.43421
21
-3.45428
0
LINE
8
BLACK
6
CONTINUOUS
10
6.43421
20
-3.45428
11
6.42947
21
-3.4528
0
LINE
8
BLACK
6
CONTINUOUS
10
6.42947
20
-3.4528
11
6.42534
21
-3.45005
0
LINE
8
BLACK
6
CONTINUOUS
10
6.42534
20
-3.45005
11
6.42215
21
-3.44626
0
LINE
8
BLACK
6
CONTINUOUS
10
6.42215
20
-3.44626
11
6.42015
21
-3.44171
0
LINE
8
BLACK
6
CONTINUOUS
10
6.42015
20
-3.44171
11
6.41951
21
-3.43679
0
LINE
8
BLACK
6
CONTINUOUS
10
6.41951
20
-3.43679
11
6.42027
21
-3.43189
0
LINE
8
BLACK
6
CONTINUOUS
10
6.42027
20
-3.43189
11
6.42238
21
-3.4274
0
LINE
8
BLACK
6
CONTINUOUS
10
6.42238
20
-3.4274
11
6.42567
21
-3.42368
0
LINE
8
BLACK
6
CONTINUOUS
10
6.42567
20
-3.42368
11
6.42986
21
-3.42103
0
LINE
8
BLACK
6
CONTINUOUS
10
6.42986
20
-3.42103
11
6.43463
21
-3.41967
0
LINE
8
BLACK
6
CONTINUOUS
10
6.43463
20
-3.41967
11
6.43959
21
-3.4197
0
LINE
8
BLACK
6
CONTINUOUS
10
5.22928
20
-3.40825
11
5.23367
21
-3.41049
0
LINE
8
BLACK
6
CONTINUOUS
10
5.23367
20
-3.41049
11
5.23715
21
-3.41397
0
LINE
8
BLACK
6
CONTINUOUS
10
5.23715
20
-3.41397
11
5.23939
21
-3.41836
0
LINE
8
BLACK
6
CONTINUOUS
10
5.23939
20
-3.41836
11
5.24016
21
-3.42323
0
LINE
8
BLACK
6
CONTINUOUS
10
5.24016
20
-3.42323
11
5.23939
21
-3.42809
0
LINE
8
BLACK
6
CONTINUOUS
10
5.23939
20
-3.42809
11
5.23715
21
-3.43248
0
LINE
8
BLACK
6
CONTINUOUS
10
5.23715
20
-3.43248
11
5.23367
21
-3.43597
0
LINE
8
BLACK
6
CONTINUOUS
10
5.23367
20
-3.43597
11
5.22928
21
-3.43821
0
LINE
8
BLACK
6
CONTINUOUS
10
5.22928
20
-3.43821
11
5.22441
21
-3.43898
0
LINE
8
BLACK
6
CONTINUOUS
10
5.22441
20
-3.43898
11
5.21954
21
-3.43821
0
LINE
8
BLACK
6
CONTINUOUS
10
5.21954
20
-3.43821
11
5.21515
21
-3.43597
0
LINE
8
BLACK
6
CONTINUOUS
10
5.21515
20
-3.43597
11
5.21167
21
-3.43248
0
LINE
8
BLACK
6
CONTINUOUS
10
5.21167
20
-3.43248
11
5.20943
21
-3.42809
0
LINE
8
BLACK
6
CONTINUOUS
10
5.20943
20
-3.42809
11
5.20866
21
-3.42323
0
LINE
8
BLACK
6
CONTINUOUS
10
5.20866
20
-3.42323
11
5.20943
21
-3.41836
0
LINE
8
BLACK
6
CONTINUOUS
10
5.20943
20
-3.41836
11
5.21167
21
-3.41397
0
LINE
8
BLACK
6
CONTINUOUS
10
5.21167
20
-3.41397
11
5.21515
21
-3.41049
0
LINE
8
BLACK
6
CONTINUOUS
10
5.21515
20
-3.41049
11
5.21954
21
-3.40825
0
LINE
8
BLACK
6
CONTINUOUS
10
5.21954
20
-3.40825
11
5.22441
21
-3.40748
0
LINE
8
BLACK
6
CONTINUOUS
10
5.22441
20
-3.40748
11
5.22928
21
-3.40825
0
LINE
8
BLACK
6
CONTINUOUS
10
6.4081
20
-3.36064
11
6.41285
21
-3.36207
0
LINE
8
BLACK
6
CONTINUOUS
10
6.41285
20
-3.36207
11
6.41702
21
-3.36477
0
LINE
8
BLACK
6
CONTINUOUS
10
6.41702
20
-3.36477
11
6.42025
21
-3.36852
0
LINE
8
BLACK
6
CONTINUOUS
10
6.42025
20
-3.36852
11
6.42231
21
-3.37304
0
LINE
8
BLACK
6
CONTINUOUS
10
6.42231
20
-3.37304
11
6.42301
21
-3.37795
0
LINE
8
BLACK
6
CONTINUOUS
10
6.42301
20
-3.37795
11
6.42301
21
-3.37838
0
LINE
8
BLACK
6
CONTINUOUS
10
6.42301
20
-3.37838
11
6.42218
21
-3.38327
0
LINE
8
BLACK
6
CONTINUOUS
10
6.42218
20
-3.38327
11
6.42002
21
-3.38774
0
LINE
8
BLACK
6
CONTINUOUS
10
6.42002
20
-3.38774
11
6.41669
21
-3.39142
0
LINE
8
BLACK
6
CONTINUOUS
10
6.41669
20
-3.39142
11
6.41246
21
-3.39401
0
LINE
8
BLACK
6
CONTINUOUS
10
6.41246
20
-3.39401
11
6.40767
21
-3.39532
0
LINE
8
BLACK
6
CONTINUOUS
10
6.40767
20
-3.39532
11
6.40271
21
-3.39523
0
LINE
8
BLACK
6
CONTINUOUS
10
6.40271
20
-3.39523
11
6.39798
21
-3.39375
0
LINE
8
BLACK
6
CONTINUOUS
10
6.39798
20
-3.39375
11
6.39385
21
-3.391
0
LINE
8
BLACK
6
CONTINUOUS
10
6.39385
20
-3.391
11
6.39065
21
-3.3872
0
LINE
8
BLACK
6
CONTINUOUS
10
6.39065
20
-3.3872
11
6.38866
21
-3.38266
0
LINE
8
BLACK
6
CONTINUOUS
10
6.38866
20
-3.38266
11
6.38801
21
-3.37774
0
LINE
8
BLACK
6
CONTINUOUS
10
6.38801
20
-3.37774
11
6.38878
21
-3.37284
0
LINE
8
BLACK
6
CONTINUOUS
10
6.38878
20
-3.37284
11
6.39089
21
-3.36834
0
LINE
8
BLACK
6
CONTINUOUS
10
6.39089
20
-3.36834
11
6.39417
21
-3.36463
0
LINE
8
BLACK
6
CONTINUOUS
10
6.39417
20
-3.36463
11
6.39837
21
-3.36198
0
LINE
8
BLACK
6
CONTINUOUS
10
6.39837
20
-3.36198
11
6.40314
21
-3.36061
0
LINE
8
BLACK
6
CONTINUOUS
10
6.40314
20
-3.36061
11
6.4081
21
-3.36064
0
LINE
8
BLACK
6
CONTINUOUS
10
6.53625
20
-3.33933
11
6.53944
21
-3.34147
0
LINE
8
BLACK
6
CONTINUOUS
10
6.53944
20
-3.34147
11
6.54157
21
-3.34466
0
LINE
8
BLACK
6
CONTINUOUS
10
6.54157
20
-3.34466
11
6.54232
21
-3.34843
0
LINE
8
BLACK
6
CONTINUOUS
10
6.54232
20
-3.34843
11
6.54232
21
-3.37598
0
LINE
8
BLACK
6
CONTINUOUS
10
6.54232
20
-3.37598
11
6.54157
21
-3.37975
0
LINE
8
BLACK
6
CONTINUOUS
10
6.54157
20
-3.37975
11
6.53944
21
-3.38294
0
LINE
8
BLACK
6
CONTINUOUS
10
6.53944
20
-3.38294
11
6.53625
21
-3.38508
0
LINE
8
BLACK
6
CONTINUOUS
10
6.53625
20
-3.38508
11
6.53248
21
-3.38583
0
LINE
8
BLACK
6
CONTINUOUS
10
6.53248
20
-3.38583
11
6.48327
21
-3.38583
0
LINE
8
BLACK
6
CONTINUOUS
10
6.48327
20
-3.38583
11
6.4795
21
-3.38508
0
LINE
8
BLACK
6
CONTINUOUS
10
6.4795
20
-3.38508
11
6.47631
21
-3.38294
0
LINE
8
BLACK
6
CONTINUOUS
10
6.47631
20
-3.38294
11
6.47417
21
-3.37975
0
LINE
8
BLACK
6
CONTINUOUS
10
6.47417
20
-3.37975
11
6.47343
21
-3.37598
0
LINE
8
BLACK
6
CONTINUOUS
10
6.47343
20
-3.37598
11
6.47343
21
-3.34843
0
LINE
8
BLACK
6
CONTINUOUS
10
6.47343
20
-3.34843
11
6.47417
21
-3.34466
0
LINE
8
BLACK
6
CONTINUOUS
10
6.47417
20
-3.34466
11
6.47631
21
-3.34147
0
LINE
8
BLACK
6
CONTINUOUS
10
6.47631
20
-3.34147
11
6.4795
21
-3.33933
0
LINE
8
BLACK
6
CONTINUOUS
10
6.4795
20
-3.33933
11
6.48327
21
-3.33858
0
LINE
8
BLACK
6
CONTINUOUS
10
6.48327
20
-3.33858
11
6.53248
21
-3.33858
0
LINE
8
BLACK
6
CONTINUOUS
10
6.53248
20
-3.33858
11
6.53625
21
-3.33933
0
LINE
8
BLACK
6
CONTINUOUS
10
5.14571
20
-3.30789
11
5.15305
21
-3.31016
0
LINE
8
BLACK
6
CONTINUOUS
10
5.15305
20
-3.31016
11
5.15981
21
-3.31382
0
LINE
8
BLACK
6
CONTINUOUS
10
5.15981
20
-3.31382
11
5.16573
21
-3.31872
0
LINE
8
BLACK
6
CONTINUOUS
10
5.16573
20
-3.31872
11
5.17059
21
-3.32467
0
LINE
8
BLACK
6
CONTINUOUS
10
5.17059
20
-3.32467
11
5.17419
21
-3.33145
0
LINE
8
BLACK
6
CONTINUOUS
10
5.17419
20
-3.33145
11
5.17642
21
-3.33881
0
LINE
8
BLACK
6
CONTINUOUS
10
5.17642
20
-3.33881
11
5.17717
21
-3.34646
0
LINE
8
BLACK
6
CONTINUOUS
10
5.17717
20
-3.34646
11
5.17715
21
-3.34756
0
LINE
8
BLACK
6
CONTINUOUS
10
5.17715
20
-3.34756
11
5.17619
21
-3.35518
0
LINE
8
BLACK
6
CONTINUOUS
10
5.17619
20
-3.35518
11
5.17376
21
-3.36247
0
LINE
8
BLACK
6
CONTINUOUS
10
5.17376
20
-3.36247
11
5.16997
21
-3.36915
0
LINE
8
BLACK
6
CONTINUOUS
10
5.16997
20
-3.36915
11
5.16495
21
-3.37497
0
LINE
8
BLACK
6
CONTINUOUS
10
5.16495
20
-3.37497
11
5.15889
21
-3.3797
0
LINE
8
BLACK
6
CONTINUOUS
10
5.15889
20
-3.3797
11
5.15203
21
-3.38316
0
LINE
8
BLACK
6
CONTINUOUS
10
5.15203
20
-3.38316
11
5.14463
21
-3.38523
0
LINE
8
BLACK
6
CONTINUOUS
10
5.14463
20
-3.38523
11
5.13697
21
-3.38582
0
LINE
8
BLACK
6
CONTINUOUS
10
5.13697
20
-3.38582
11
5.12934
21
-3.38491
0
LINE
8
BLACK
6
CONTINUOUS
10
5.12934
20
-3.38491
11
5.12203
21
-3.38253
0
LINE
8
BLACK
6
CONTINUOUS
10
5.12203
20
-3.38253
11
5.11533
21
-3.37879
0
LINE
8
BLACK
6
CONTINUOUS
10
5.11533
20
-3.37879
11
5.10947
21
-3.37381
0
LINE
8
BLACK
6
CONTINUOUS
10
5.10947
20
-3.37381
11
5.1047
21
-3.36778
0
LINE
8
BLACK
6
CONTINUOUS
10
5.1047
20
-3.36778
11
5.10119
21
-3.36095
0
LINE
8
BLACK
6
CONTINUOUS
10
5.10119
20
-3.36095
11
5.09907
21
-3.35356
0
LINE
8
BLACK
6
CONTINUOUS
10
5.09907
20
-3.35356
11
5.09843
21
-3.34591
0
LINE
8
BLACK
6
CONTINUOUS
10
5.09843
20
-3.34591
11
5.09929
21
-3.33827
0
LINE
8
BLACK
6
CONTINUOUS
10
5.09929
20
-3.33827
11
5.10161
21
-3.33095
0
LINE
8
BLACK
6
CONTINUOUS
10
5.10161
20
-3.33095
11
5.10531
21
-3.32421
0
LINE
8
BLACK
6
CONTINUOUS
10
5.10531
20
-3.32421
11
5.11025
21
-3.31833
0
LINE
8
BLACK
6
CONTINUOUS
10
5.11025
20
-3.31833
11
5.11624
21
-3.31351
0
LINE
8
BLACK
6
CONTINUOUS
10
5.11624
20
-3.31351
11
5.12305
21
-3.30995
0
LINE
8
BLACK
6
CONTINUOUS
10
5.12305
20
-3.30995
11
5.13042
21
-3.30778
0
LINE
8
BLACK
6
CONTINUOUS
10
5.13042
20
-3.30778
11
5.13807
21
-3.30709
0
LINE
8
BLACK
6
CONTINUOUS
10
5.13807
20
-3.30709
11
5.14571
21
-3.30789
0
LINE
8
BLACK
6
CONTINUOUS
10
5.89374
20
-3.30789
11
5.90108
21
-3.31016
0
LINE
8
BLACK
6
CONTINUOUS
10
5.90108
20
-3.31016
11
5.90784
21
-3.31382
0
LINE
8
BLACK
6
CONTINUOUS
10
5.90784
20
-3.31382
11
5.91376
21
-3.31872
0
LINE
8
BLACK
6
CONTINUOUS
10
5.91376
20
-3.31872
11
5.91862
21
-3.32467
0
LINE
8
BLACK
6
CONTINUOUS
10
5.91862
20
-3.32467
11
5.92223
21
-3.33145
0
LINE
8
BLACK
6
CONTINUOUS
10
5.92223
20
-3.33145
11
5.92445
21
-3.33881
0
LINE
8
BLACK
6
CONTINUOUS
10
5.92445
20
-3.33881
11
5.9252
21
-3.34646
0
LINE
8
BLACK
6
CONTINUOUS
10
5.9252
20
-3.34646
11
5.92518
21
-3.34756
0
LINE
8
BLACK
6
CONTINUOUS
10
5.92518
20
-3.34756
11
5.92422
21
-3.35518
0
LINE
8
BLACK
6
CONTINUOUS
10
5.92422
20
-3.35518
11
5.92179
21
-3.36247
0
LINE
8
BLACK
6
CONTINUOUS
10
5.92179
20
-3.36247
11
5.918
21
-3.36915
0
LINE
8
BLACK
6
CONTINUOUS
10
5.918
20
-3.36915
11
5.91298
21
-3.37497
0
LINE
8
BLACK
6
CONTINUOUS
10
5.91298
20
-3.37497
11
5.90692
21
-3.3797
0
LINE
8
BLACK
6
CONTINUOUS
10
5.90692
20
-3.3797
11
5.90006
21
-3.38316
0
LINE
8
BLACK
6
CONTINUOUS
10
5.90006
20
-3.38316
11
5.89266
21
-3.38523
0
LINE
8
BLACK
6
CONTINUOUS
10
5.89266
20
-3.38523
11
5.885
21
-3.38582
0
LINE
8
BLACK
6
CONTINUOUS
10
5.885
20
-3.38582
11
5.87737
21
-3.38491
0
LINE
8
BLACK
6
CONTINUOUS
10
5.87737
20
-3.38491
11
5.87007
21
-3.38253
0
LINE
8
BLACK
6
CONTINUOUS
10
5.87007
20
-3.38253
11
5.86336
21
-3.37879
0
LINE
8
BLACK
6
CONTINUOUS
10
5.86336
20
-3.37879
11
5.85751
21
-3.37381
0
LINE
8
BLACK
6
CONTINUOUS
10
5.85751
20
-3.37381
11
5.85273
21
-3.36778
0
LINE
8
BLACK
6
CONTINUOUS
10
5.85273
20
-3.36778
11
5.84922
21
-3.36095
0
LINE
8
BLACK
6
CONTINUOUS
10
5.84922
20
-3.36095
11
5.8471
21
-3.35356
0
LINE
8
BLACK
6
CONTINUOUS
10
5.8471
20
-3.35356
11
5.84646
21
-3.34591
0
LINE
8
BLACK
6
CONTINUOUS
10
5.84646
20
-3.34591
11
5.84732
21
-3.33827
0
LINE
8
BLACK
6
CONTINUOUS
10
5.84732
20
-3.33827
11
5.84964
21
-3.33095
0
LINE
8
BLACK
6
CONTINUOUS
10
5.84964
20
-3.33095
11
5.85334
21
-3.32421
0
LINE
8
BLACK
6
CONTINUOUS
10
5.85334
20
-3.32421
11
5.85828
21
-3.31833
0
LINE
8
BLACK
6
CONTINUOUS
10
5.85828
20
-3.31833
11
5.86427
21
-3.31351
0
LINE
8
BLACK
6
CONTINUOUS
10
5.86427
20
-3.31351
11
5.87108
21
-3.30995
0
LINE
8
BLACK
6
CONTINUOUS
10
5.87108
20
-3.30995
11
5.87845
21
-3.30778
0
LINE
8
BLACK
6
CONTINUOUS
10
5.87845
20
-3.30778
11
5.8861
21
-3.30709
0
LINE
8
BLACK
6
CONTINUOUS
10
5.8861
20
-3.30709
11
5.89374
21
-3.30789
0
LINE
8
BLACK
6
CONTINUOUS
10
6.52481
20
-3.26065
11
6.53051
21
-3.26301
0
LINE
8
BLACK
6
CONTINUOUS
10
6.53051
20
-3.26301
11
6.5354
21
-3.26676
0
LINE
8
BLACK
6
CONTINUOUS
10
6.5354
20
-3.26676
11
6.53916
21
-3.27165
0
LINE
8
BLACK
6
CONTINUOUS
10
6.53916
20
-3.27165
11
6.54152
21
-3.27735
0
LINE
8
BLACK
6
CONTINUOUS
10
6.54152
20
-3.27735
11
6.54232
21
-3.28346
0
LINE
8
BLACK
6
CONTINUOUS
10
6.54232
20
-3.28346
11
6.54152
21
-3.28958
0
LINE
8
BLACK
6
CONTINUOUS
10
6.54152
20
-3.28958
11
6.53916
21
-3.29528
0
LINE
8
BLACK
6
CONTINUOUS
10
6.53916
20
-3.29528
11
6.5354
21
-3.30017
0
LINE
8
BLACK
6
CONTINUOUS
10
6.5354
20
-3.30017
11
6.53051
21
-3.30392
0
LINE
8
BLACK
6
CONTINUOUS
10
6.53051
20
-3.30392
11
6.52481
21
-3.30628
0
LINE
8
BLACK
6
CONTINUOUS
10
6.52481
20
-3.30628
11
6.5187
21
-3.30709
0
LINE
8
BLACK
6
CONTINUOUS
10
6.5187
20
-3.30709
11
6.49705
21
-3.30709
0
LINE
8
BLACK
6
CONTINUOUS
10
6.49705
20
-3.30709
11
6.49093
21
-3.30628
0
LINE
8
BLACK
6
CONTINUOUS
10
6.49093
20
-3.30628
11
6.48524
21
-3.30392
0
LINE
8
BLACK
6
CONTINUOUS
10
6.48524
20
-3.30392
11
6.48034
21
-3.30017
0
LINE
8
BLACK
6
CONTINUOUS
10
6.48034
20
-3.30017
11
6.47659
21
-3.29528
0
LINE
8
BLACK
6
CONTINUOUS
10
6.47659
20
-3.29528
11
6.47423
21
-3.28958
0
LINE
8
BLACK
6
CONTINUOUS
10
6.47423
20
-3.28958
11
6.47343
21
-3.28346
0
LINE
8
BLACK
6
CONTINUOUS
10
6.47343
20
-3.28346
11
6.47423
21
-3.27735
0
LINE
8
BLACK
6
CONTINUOUS
10
6.47423
20
-3.27735
11
6.47659
21
-3.27165
0
LINE
8
BLACK
6
CONTINUOUS
10
6.47659
20
-3.27165
11
6.48034
21
-3.26676
0
LINE
8
BLACK
6
CONTINUOUS
10
6.48034
20
-3.26676
11
6.48524
21
-3.26301
0
LINE
8
BLACK
6
CONTINUOUS
10
6.48524
20
-3.26301
11
6.49093
21
-3.26065
0
LINE
8
BLACK
6
CONTINUOUS
10
6.49093
20
-3.26065
11
6.49705
21
-3.25984
0
LINE
8
BLACK
6
CONTINUOUS
10
6.49705
20
-3.25984
11
6.5187
21
-3.25984
0
LINE
8
BLACK
6
CONTINUOUS
10
6.5187
20
-3.25984
11
6.52481
21
-3.26065
0
LINE
8
BLACK
6
CONTINUOUS
10
6.41991
20
-3.23663
11
6.42466
21
-3.23805
0
LINE
8
BLACK
6
CONTINUOUS
10
6.42466
20
-3.23805
11
6.42883
21
-3.24075
0
LINE
8
BLACK
6
CONTINUOUS
10
6.42883
20
-3.24075
11
6.43207
21
-3.24451
0
LINE
8
BLACK
6
CONTINUOUS
10
6.43207
20
-3.24451
11
6.43412
21
-3.24903
0
LINE
8
BLACK
6
CONTINUOUS
10
6.43412
20
-3.24903
11
6.43482
21
-3.25394
0
LINE
8
BLACK
6
CONTINUOUS
10
6.43482
20
-3.25394
11
6.43482
21
-3.25436
0
LINE
8
BLACK
6
CONTINUOUS
10
6.43482
20
-3.25436
11
6.43399
21
-3.25926
0
LINE
8
BLACK
6
CONTINUOUS
10
6.43399
20
-3.25926
11
6.43183
21
-3.26372
0
LINE
8
BLACK
6
CONTINUOUS
10
6.43183
20
-3.26372
11
6.4285
21
-3.2674
0
LINE
8
BLACK
6
CONTINUOUS
10
6.4285
20
-3.2674
11
6.42427
21
-3.27
0
LINE
8
BLACK
6
CONTINUOUS
10
6.42427
20
-3.27
11
6.41949
21
-3.2713
0
LINE
8
BLACK
6
CONTINUOUS
10
6.41949
20
-3.2713
11
6.41452
21
-3.27121
0
LINE
8
BLACK
6
CONTINUOUS
10
6.41452
20
-3.27121
11
6.40979
21
-3.26973
0
LINE
8
BLACK
6
CONTINUOUS
10
6.40979
20
-3.26973
11
6.40566
21
-3.26698
0
LINE
8
BLACK
6
CONTINUOUS
10
6.40566
20
-3.26698
11
6.40247
21
-3.26318
0
LINE
8
BLACK
6
CONTINUOUS
10
6.40247
20
-3.26318
11
6.40047
21
-3.25864
0
LINE
8
BLACK
6
CONTINUOUS
10
6.40047
20
-3.25864
11
6.39982
21
-3.25372
0
LINE
8
BLACK
6
CONTINUOUS
10
6.39982
20
-3.25372
11
6.40059
21
-3.24882
0
LINE
8
BLACK
6
CONTINUOUS
10
6.40059
20
-3.24882
11
6.4027
21
-3.24433
0
LINE
8
BLACK
6
CONTINUOUS
10
6.4027
20
-3.24433
11
6.40598
21
-3.24061
0
LINE
8
BLACK
6
CONTINUOUS
10
6.40598
20
-3.24061
11
6.41018
21
-3.23796
0
LINE
8
BLACK
6
CONTINUOUS
10
6.41018
20
-3.23796
11
6.41495
21
-3.2366
0
LINE
8
BLACK
6
CONTINUOUS
10
6.41495
20
-3.2366
11
6.41991
21
-3.23663
0
LINE
8
BLACK
6
CONTINUOUS
10
5.36225
20
-3.16419
11
5.36959
21
-3.16646
0
LINE
8
BLACK
6
CONTINUOUS
10
5.36959
20
-3.16646
11
5.37635
21
-3.17012
0
LINE
8
BLACK
6
CONTINUOUS
10
5.37635
20
-3.17012
11
5.38227
21
-3.17501
0
LINE
8
BLACK
6
CONTINUOUS
10
5.38227
20
-3.17501
11
5.38712
21
-3.18097
0
LINE
8
BLACK
6
CONTINUOUS
10
5.38712
20
-3.18097
11
5.39073
21
-3.18775
0
LINE
8
BLACK
6
CONTINUOUS
10
5.39073
20
-3.18775
11
5.39295
21
-3.19511
0
LINE
8
BLACK
6
CONTINUOUS
10
5.39295
20
-3.19511
11
5.3937
21
-3.20276
0
LINE
8
BLACK
6
CONTINUOUS
10
5.3937
20
-3.20276
11
5.39369
21
-3.20386
0
LINE
8
BLACK
6
CONTINUOUS
10
5.39369
20
-3.20386
11
5.39272
21
-3.21148
0
LINE
8
BLACK
6
CONTINUOUS
10
5.39272
20
-3.21148
11
5.3903
21
-3.21877
0
LINE
8
BLACK
6
CONTINUOUS
10
5.3903
20
-3.21877
11
5.3865
21
-3.22545
0
LINE
8
BLACK
6
CONTINUOUS
10
5.3865
20
-3.22545
11
5.38148
21
-3.23127
0
LINE
8
BLACK
6
CONTINUOUS
10
5.38148
20
-3.23127
11
5.37543
21
-3.236
0
LINE
8
BLACK
6
CONTINUOUS
10
5.37543
20
-3.236
11
5.36857
21
-3.23946
0
LINE
8
BLACK
6
CONTINUOUS
10
5.36857
20
-3.23946
11
5.36117
21
-3.24153
0
LINE
8
BLACK
6
CONTINUOUS
10
5.36117
20
-3.24153
11
5.35351
21
-3.24212
0
LINE
8
BLACK
6
CONTINUOUS
10
5.35351
20
-3.24212
11
5.34588
21
-3.24121
0
LINE
8
BLACK
6
CONTINUOUS
10
5.34588
20
-3.24121
11
5.33857
21
-3.23883
0
LINE
8
BLACK
6
CONTINUOUS
10
5.33857
20
-3.23883
11
5.33186
21
-3.23508
0
LINE
8
BLACK
6
CONTINUOUS
10
5.33186
20
-3.23508
11
5.32601
21
-3.2301
0
LINE
8
BLACK
6
CONTINUOUS
10
5.32601
20
-3.2301
11
5.32124
21
-3.22408
0
LINE
8
BLACK
6
CONTINUOUS
10
5.32124
20
-3.22408
11
5.31773
21
-3.21725
0
LINE
8
BLACK
6
CONTINUOUS
10
5.31773
20
-3.21725
11
5.31561
21
-3.20986
0
LINE
8
BLACK
6
CONTINUOUS
10
5.31561
20
-3.20986
11
5.31496
21
-3.20221
0
LINE
8
BLACK
6
CONTINUOUS
10
5.31496
20
-3.20221
11
5.31582
21
-3.19457
0
LINE
8
BLACK
6
CONTINUOUS
10
5.31582
20
-3.19457
11
5.31814
21
-3.18725
0
LINE
8
BLACK
6
CONTINUOUS
10
5.31814
20
-3.18725
11
5.32185
21
-3.18051
0
LINE
8
BLACK
6
CONTINUOUS
10
5.32185
20
-3.18051
11
5.32678
21
-3.17463
0
LINE
8
BLACK
6
CONTINUOUS
10
5.32678
20
-3.17463
11
5.33277
21
-3.16981
0
LINE
8
BLACK
6
CONTINUOUS
10
5.33277
20
-3.16981
11
5.33958
21
-3.16625
0
LINE
8
BLACK
6
CONTINUOUS
10
5.33958
20
-3.16625
11
5.34695
21
-3.16408
0
LINE
8
BLACK
6
CONTINUOUS
10
5.34695
20
-3.16408
11
5.35461
21
-3.16339
0
LINE
8
BLACK
6
CONTINUOUS
10
5.35461
20
-3.16339
11
5.36225
21
-3.16419
0
LINE
8
BLACK
6
CONTINUOUS
10
6.46912
20
-3.19726
11
6.47388
21
-3.19868
0
LINE
8
BLACK
6
CONTINUOUS
10
6.47388
20
-3.19868
11
6.47804
21
-3.20138
0
LINE
8
BLACK
6
CONTINUOUS
10
6.47804
20
-3.20138
11
6.48128
21
-3.20514
0
LINE
8
BLACK
6
CONTINUOUS
10
6.48128
20
-3.20514
11
6.48333
21
-3.20966
0
LINE
8
BLACK
6
CONTINUOUS
10
6.48333
20
-3.20966
11
6.48404
21
-3.21457
0
LINE
8
BLACK
6
CONTINUOUS
10
6.48404
20
-3.21457
11
6.48403
21
-3.21499
0
LINE
8
BLACK
6
CONTINUOUS
10
6.48403
20
-3.21499
11
6.48321
21
-3.21989
0
LINE
8
BLACK
6
CONTINUOUS
10
6.48321
20
-3.21989
11
6.48104
21
-3.22435
0
LINE
8
BLACK
6
CONTINUOUS
10
6.48104
20
-3.22435
11
6.47771
21
-3.22803
0
LINE
8
BLACK
6
CONTINUOUS
10
6.47771
20
-3.22803
11
6.47349
21
-3.23063
0
LINE
8
BLACK
6
CONTINUOUS
10
6.47349
20
-3.23063
11
6.4687
21
-3.23193
0
LINE
8
BLACK
6
CONTINUOUS
10
6.4687
20
-3.23193
11
6.46374
21
-3.23184
0
LINE
8
BLACK
6
CONTINUOUS
10
6.46374
20
-3.23184
11
6.459
21
-3.23036
0
LINE
8
BLACK
6
CONTINUOUS
10
6.459
20
-3.23036
11
6.45487
21
-3.22761
0
LINE
8
BLACK
6
CONTINUOUS
10
6.45487
20
-3.22761
11
6.45168
21
-3.22381
0
LINE
8
BLACK
6
CONTINUOUS
10
6.45168
20
-3.22381
11
6.44968
21
-3.21927
0
LINE
8
BLACK
6
CONTINUOUS
10
6.44968
20
-3.21927
11
6.44904
21
-3.21435
0
LINE
8
BLACK
6
CONTINUOUS
10
6.44904
20
-3.21435
11
6.4498
21
-3.20945
0
LINE
8
BLACK
6
CONTINUOUS
10
6.4498
20
-3.20945
11
6.45191
21
-3.20496
0
LINE
8
BLACK
6
CONTINUOUS
10
6.45191
20
-3.20496
11
6.45519
21
-3.20124
0
LINE
8
BLACK
6
CONTINUOUS
10
6.45519
20
-3.20124
11
6.45939
21
-3.19859
0
LINE
8
BLACK
6
CONTINUOUS
10
6.45939
20
-3.19859
11
6.46416
21
-3.19723
0
LINE
8
BLACK
6
CONTINUOUS
10
6.46416
20
-3.19723
11
6.46912
21
-3.19726
0
LINE
8
BLACK
6
CONTINUOUS
10
4.93597
20
-3.05589
11
4.94036
21
-3.05813
0
LINE
8
BLACK
6
CONTINUOUS
10
4.94036
20
-3.05813
11
4.94384
21
-3.06161
0
LINE
8
BLACK
6
CONTINUOUS
10
4.94384
20
-3.06161
11
4.94608
21
-3.066
0
LINE
8
BLACK
6
CONTINUOUS
10
4.94608
20
-3.066
11
4.94685
21
-3.07087
0
LINE
8
BLACK
6
CONTINUOUS
10
4.94685
20
-3.07087
11
4.94608
21
-3.07573
0
LINE
8
BLACK
6
CONTINUOUS
10
4.94608
20
-3.07573
11
4.94384
21
-3.08012
0
LINE
8
BLACK
6
CONTINUOUS
10
4.94384
20
-3.08012
11
4.94036
21
-3.08361
0
LINE
8
BLACK
6
CONTINUOUS
10
4.94036
20
-3.08361
11
4.9361
21
-3.08578
0
LINE
8
BLACK
6
CONTINUOUS
10
4.9361
20
-3.08578
11
4.9361
21
-3.14454
0
LINE
8
BLACK
6
CONTINUOUS
10
4.9361
20
-3.14454
11
4.94036
21
-3.14671
0
LINE
8
BLACK
6
CONTINUOUS
10
4.94036
20
-3.14671
11
4.94384
21
-3.15019
0
LINE
8
BLACK
6
CONTINUOUS
10
4.94384
20
-3.15019
11
4.94608
21
-3.15458
0
LINE
8
BLACK
6
CONTINUOUS
10
4.94608
20
-3.15458
11
4.94685
21
-3.15945
0
LINE
8
BLACK
6
CONTINUOUS
10
4.94685
20
-3.15945
11
4.94608
21
-3.16432
0
LINE
8
BLACK
6
CONTINUOUS
10
4.94608
20
-3.16432
11
4.94384
21
-3.16871
0
LINE
8
BLACK
6
CONTINUOUS
10
4.94384
20
-3.16871
11
4.94036
21
-3.17219
0
LINE
8
BLACK
6
CONTINUOUS
10
4.94036
20
-3.17219
11
4.93597
21
-3.17443
0
LINE
8
BLACK
6
CONTINUOUS
10
4.93597
20
-3.17443
11
4.9311
21
-3.1752
0
LINE
8
BLACK
6
CONTINUOUS
10
4.9311
20
-3.1752
11
4.92624
21
-3.17443
0
LINE
8
BLACK
6
CONTINUOUS
10
4.92624
20
-3.17443
11
4.92185
21
-3.17219
0
LINE
8
BLACK
6
CONTINUOUS
10
4.92185
20
-3.17219
11
4.91836
21
-3.16871
0
LINE
8
BLACK
6
CONTINUOUS
10
4.91836
20
-3.16871
11
4.91613
21
-3.16432
0
LINE
8
BLACK
6
CONTINUOUS
10
4.91613
20
-3.16432
11
4.91535
21
-3.15945
0
LINE
8
BLACK
6
CONTINUOUS
10
4.91535
20
-3.15945
11
4.91613
21
-3.15458
0
LINE
8
BLACK
6
CONTINUOUS
10
4.91613
20
-3.15458
11
4.91836
21
-3.15019
0
LINE
8
BLACK
6
CONTINUOUS
10
4.91836
20
-3.15019
11
4.92185
21
-3.14671
0
LINE
8
BLACK
6
CONTINUOUS
10
4.92185
20
-3.14671
11
4.9261
21
-3.14454
0
LINE
8
BLACK
6
CONTINUOUS
10
4.9261
20
-3.14454
11
4.9261
21
-3.08578
0
LINE
8
BLACK
6
CONTINUOUS
10
4.9261
20
-3.08578
11
4.92185
21
-3.08361
0
LINE
8
BLACK
6
CONTINUOUS
10
4.92185
20
-3.08361
11
4.91836
21
-3.08012
0
LINE
8
BLACK
6
CONTINUOUS
10
4.91836
20
-3.08012
11
4.91613
21
-3.07573
0
LINE
8
BLACK
6
CONTINUOUS
10
4.91613
20
-3.07573
11
4.91535
21
-3.07087
0
LINE
8
BLACK
6
CONTINUOUS
10
4.91535
20
-3.07087
11
4.91613
21
-3.066
0
LINE
8
BLACK
6
CONTINUOUS
10
4.91613
20
-3.066
11
4.91836
21
-3.06161
0
LINE
8
BLACK
6
CONTINUOUS
10
4.91836
20
-3.06161
11
4.92185
21
-3.05813
0
LINE
8
BLACK
6
CONTINUOUS
10
4.92185
20
-3.05813
11
4.92624
21
-3.05589
0
LINE
8
BLACK
6
CONTINUOUS
10
4.92624
20
-3.05589
11
4.9311
21
-3.05512
0
LINE
8
BLACK
6
CONTINUOUS
10
4.9311
20
-3.05512
11
4.93597
21
-3.05589
0
LINE
8
BLACK
6
CONTINUOUS
10
5.51973
20
-3.09136
11
5.52707
21
-3.09363
0
LINE
8
BLACK
6
CONTINUOUS
10
5.52707
20
-3.09363
11
5.53383
21
-3.09728
0
LINE
8
BLACK
6
CONTINUOUS
10
5.53383
20
-3.09728
11
5.53975
21
-3.10218
0
LINE
8
BLACK
6
CONTINUOUS
10
5.53975
20
-3.10218
11
5.5446
21
-3.10813
0
LINE
8
BLACK
6
CONTINUOUS
10
5.5446
20
-3.10813
11
5.54821
21
-3.11492
0
LINE
8
BLACK
6
CONTINUOUS
10
5.54821
20
-3.11492
11
5.55043
21
-3.12227
0
LINE
8
BLACK
6
CONTINUOUS
10
5.55043
20
-3.12227
11
5.55118
21
-3.12992
0
LINE
8
BLACK
6
CONTINUOUS
10
5.55118
20
-3.12992
11
5.55117
21
-3.13102
0
LINE
8
BLACK
6
CONTINUOUS
10
5.55117
20
-3.13102
11
5.5502
21
-3.13864
0
LINE
8
BLACK
6
CONTINUOUS
10
5.5502
20
-3.13864
11
5.54778
21
-3.14593
0
LINE
8
BLACK
6
CONTINUOUS
10
5.54778
20
-3.14593
11
5.54398
21
-3.15262
0
LINE
8
BLACK
6
CONTINUOUS
10
5.54398
20
-3.15262
11
5.53896
21
-3.15843
0
LINE
8
BLACK
6
CONTINUOUS
10
5.53896
20
-3.15843
11
5.53291
21
-3.16316
0
LINE
8
BLACK
6
CONTINUOUS
10
5.53291
20
-3.16316
11
5.52605
21
-3.16663
0
LINE
8
BLACK
6
CONTINUOUS
10
5.52605
20
-3.16663
11
5.51865
21
-3.16869
0
LINE
8
BLACK
6
CONTINUOUS
10
5.51865
20
-3.16869
11
5.51099
21
-3.16928
0
LINE
8
BLACK
6
CONTINUOUS
10
5.51099
20
-3.16928
11
5.50336
21
-3.16837
0
LINE
8
BLACK
6
CONTINUOUS
10
5.50336
20
-3.16837
11
5.49605
21
-3.166
0
LINE
8
BLACK
6
CONTINUOUS
10
5.49605
20
-3.166
11
5.48934
21
-3.16225
0
LINE
8
BLACK
6
CONTINUOUS
10
5.48934
20
-3.16225
11
5.48349
21
-3.15727
0
LINE
8
BLACK
6
CONTINUOUS
10
5.48349
20
-3.15727
11
5.47872
21
-3.15125
0
LINE
8
BLACK
6
CONTINUOUS
10
5.47872
20
-3.15125
11
5.47521
21
-3.14441
0
LINE
8
BLACK
6
CONTINUOUS
10
5.47521
20
-3.14441
11
5.47309
21
-3.13703
0
LINE
8
BLACK
6
CONTINUOUS
10
5.47309
20
-3.13703
11
5.47244
21
-3.12937
0
LINE
8
BLACK
6
CONTINUOUS
10
5.47244
20
-3.12937
11
5.4733
21
-3.12174
0
LINE
8
BLACK
6
CONTINUOUS
10
5.4733
20
-3.12174
11
5.47562
21
-3.11441
0
LINE
8
BLACK
6
CONTINUOUS
10
5.47562
20
-3.11441
11
5.47933
21
-3.10768
0
LINE
8
BLACK
6
CONTINUOUS
10
5.47933
20
-3.10768
11
5.48427
21
-3.10179
0
LINE
8
BLACK
6
CONTINUOUS
10
5.48427
20
-3.10179
11
5.49025
21
-3.09698
0
LINE
8
BLACK
6
CONTINUOUS
10
5.49025
20
-3.09698
11
5.49706
21
-3.09342
0
LINE
8
BLACK
6
CONTINUOUS
10
5.49706
20
-3.09342
11
5.50443
21
-3.09125
0
LINE
8
BLACK
6
CONTINUOUS
10
5.50443
20
-3.09125
11
5.51209
21
-3.09055
0
LINE
8
BLACK
6
CONTINUOUS
10
5.51209
20
-3.09055
11
5.51973
21
-3.09136
0
LINE
8
BLACK
6
CONTINUOUS
10
6.26776
20
-3.09136
11
6.2751
21
-3.09363
0
LINE
8
BLACK
6
CONTINUOUS
10
6.2751
20
-3.09363
11
6.28186
21
-3.09728
0
LINE
8
BLACK
6
CONTINUOUS
10
6.28186
20
-3.09728
11
6.28778
21
-3.10218
0
LINE
8
BLACK
6
CONTINUOUS
10
6.28778
20
-3.10218
11
6.29263
21
-3.10813
0
LINE
8
BLACK
6
CONTINUOUS
10
6.29263
20
-3.10813
11
6.29624
21
-3.11492
0
LINE
8
BLACK
6
CONTINUOUS
10
6.29624
20
-3.11492
11
6.29846
21
-3.12227
0
LINE
8
BLACK
6
CONTINUOUS
10
6.29846
20
-3.12227
11
6.29921
21
-3.12992
0
LINE
8
BLACK
6
CONTINUOUS
10
6.29921
20
-3.12992
11
6.2992
21
-3.13102
0
LINE
8
BLACK
6
CONTINUOUS
10
6.2992
20
-3.13102
11
6.29823
21
-3.13864
0
LINE
8
BLACK
6
CONTINUOUS
10
6.29823
20
-3.13864
11
6.29581
21
-3.14593
0
LINE
8
BLACK
6
CONTINUOUS
10
6.29581
20
-3.14593
11
6.29201
21
-3.15262
0
LINE
8
BLACK
6
CONTINUOUS
10
6.29201
20
-3.15262
11
6.28699
21
-3.15843
0
LINE
8
BLACK
6
CONTINUOUS
10
6.28699
20
-3.15843
11
6.28094
21
-3.16316
0
LINE
8
BLACK
6
CONTINUOUS
10
6.28094
20
-3.16316
11
6.27408
21
-3.16663
0
LINE
8
BLACK
6
CONTINUOUS
10
6.27408
20
-3.16663
11
6.26668
21
-3.16869
0
LINE
8
BLACK
6
CONTINUOUS
10
6.26668
20
-3.16869
11
6.25902
21
-3.16928
0
LINE
8
BLACK
6
CONTINUOUS
10
6.25902
20
-3.16928
11
6.25139
21
-3.16837
0
LINE
8
BLACK
6
CONTINUOUS
10
6.25139
20
-3.16837
11
6.24408
21
-3.166
0
LINE
8
BLACK
6
CONTINUOUS
10
6.24408
20
-3.166
11
6.23737
21
-3.16225
0
LINE
8
BLACK
6
CONTINUOUS
10
6.23737
20
-3.16225
11
6.23152
21
-3.15727
0
LINE
8
BLACK
6
CONTINUOUS
10
6.23152
20
-3.15727
11
6.22675
21
-3.15125
0
LINE
8
BLACK
6
CONTINUOUS
10
6.22675
20
-3.15125
11
6.22324
21
-3.14441
0
LINE
8
BLACK
6
CONTINUOUS
10
6.22324
20
-3.14441
11
6.22112
21
-3.13703
0
LINE
8
BLACK
6
CONTINUOUS
10
6.22112
20
-3.13703
11
6.22048
21
-3.12937
0
LINE
8
BLACK
6
CONTINUOUS
10
6.22048
20
-3.12937
11
6.22133
21
-3.12174
0
LINE
8
BLACK
6
CONTINUOUS
10
6.22133
20
-3.12174
11
6.22366
21
-3.11441
0
LINE
8
BLACK
6
CONTINUOUS
10
6.22366
20
-3.11441
11
6.22736
21
-3.10768
0
LINE
8
BLACK
6
CONTINUOUS
10
6.22736
20
-3.10768
11
6.2323
21
-3.10179
0
LINE
8
BLACK
6
CONTINUOUS
10
6.2323
20
-3.10179
11
6.23828
21
-3.09698
0
LINE
8
BLACK
6
CONTINUOUS
10
6.23828
20
-3.09698
11
6.24509
21
-3.09342
0
LINE
8
BLACK
6
CONTINUOUS
10
6.24509
20
-3.09342
11
6.25247
21
-3.09125
0
LINE
8
BLACK
6
CONTINUOUS
10
6.25247
20
-3.09125
11
6.26012
21
-3.09055
0
LINE
8
BLACK
6
CONTINUOUS
10
6.26012
20
-3.09055
11
6.26776
21
-3.09136
0
LINE
8
BLACK
6
CONTINUOUS
10
4.7717
20
-3.09136
11
4.77904
21
-3.09363
0
LINE
8
BLACK
6
CONTINUOUS
10
4.77904
20
-3.09363
11
4.7858
21
-3.09728
0
LINE
8
BLACK
6
CONTINUOUS
10
4.7858
20
-3.09728
11
4.79172
21
-3.10218
0
LINE
8
BLACK
6
CONTINUOUS
10
4.79172
20
-3.10218
11
4.79657
21
-3.10813
0
LINE
8
BLACK
6
CONTINUOUS
10
4.79657
20
-3.10813
11
4.80018
21
-3.11492
0
LINE
8
BLACK
6
CONTINUOUS
10
4.80018
20
-3.11492
11
4.8024
21
-3.12227
0
LINE
8
BLACK
6
CONTINUOUS
10
4.8024
20
-3.12227
11
4.80315
21
-3.12992
0
LINE
8
BLACK
6
CONTINUOUS
10
4.80315
20
-3.12992
11
4.80313
21
-3.13102
0
LINE
8
BLACK
6
CONTINUOUS
10
4.80313
20
-3.13102
11
4.80217
21
-3.13864
0
LINE
8
BLACK
6
CONTINUOUS
10
4.80217
20
-3.13864
11
4.79975
21
-3.14593
0
LINE
8
BLACK
6
CONTINUOUS
10
4.79975
20
-3.14593
11
4.79595
21
-3.15262
0
LINE
8
BLACK
6
CONTINUOUS
10
4.79595
20
-3.15262
11
4.79093
21
-3.15843
0
LINE
8
BLACK
6
CONTINUOUS
10
4.79093
20
-3.15843
11
4.78488
21
-3.16316
0
LINE
8
BLACK
6
CONTINUOUS
10
4.78488
20
-3.16316
11
4.77802
21
-3.16663
0
LINE
8
BLACK
6
CONTINUOUS
10
4.77802
20
-3.16663
11
4.77062
21
-3.16869
0
LINE
8
BLACK
6
CONTINUOUS
10
4.77062
20
-3.16869
11
4.76296
21
-3.16928
0
LINE
8
BLACK
6
CONTINUOUS
10
4.76296
20
-3.16928
11
4.75533
21
-3.16837
0
LINE
8
BLACK
6
CONTINUOUS
10
4.75533
20
-3.16837
11
4.74802
21
-3.166
0
LINE
8
BLACK
6
CONTINUOUS
10
4.74802
20
-3.166
11
4.74131
21
-3.16225
0
LINE
8
BLACK
6
CONTINUOUS
10
4.74131
20
-3.16225
11
4.73546
21
-3.15727
0
LINE
8
BLACK
6
CONTINUOUS
10
4.73546
20
-3.15727
11
4.73069
21
-3.15125
0
LINE
8
BLACK
6
CONTINUOUS
10
4.73069
20
-3.15125
11
4.72717
21
-3.14441
0
LINE
8
BLACK
6
CONTINUOUS
10
4.72717
20
-3.14441
11
4.72506
21
-3.13703
0
LINE
8
BLACK
6
CONTINUOUS
10
4.72506
20
-3.13703
11
4.72441
21
-3.12937
0
LINE
8
BLACK
6
CONTINUOUS
10
4.72441
20
-3.12937
11
4.72527
21
-3.12174
0
LINE
8
BLACK
6
CONTINUOUS
10
4.72527
20
-3.12174
11
4.72759
21
-3.11441
0
LINE
8
BLACK
6
CONTINUOUS
10
4.72759
20
-3.11441
11
4.73129
21
-3.10768
0
LINE
8
BLACK
6
CONTINUOUS
10
4.73129
20
-3.10768
11
4.73623
21
-3.10179
0
LINE
8
BLACK
6
CONTINUOUS
10
4.73623
20
-3.10179
11
4.74222
21
-3.09698
0
LINE
8
BLACK
6
CONTINUOUS
10
4.74222
20
-3.09698
11
4.74903
21
-3.09342
0
LINE
8
BLACK
6
CONTINUOUS
10
4.74903
20
-3.09342
11
4.7564
21
-3.09125
0
LINE
8
BLACK
6
CONTINUOUS
10
4.7564
20
-3.09125
11
4.76405
21
-3.09055
0
LINE
8
BLACK
6
CONTINUOUS
10
4.76405
20
-3.09055
11
4.7717
21
-3.09136
0
LINE
8
BLACK
6
CONTINUOUS
10
6.10723
20
-3.0362
11
6.11162
21
-3.03844
0
LINE
8
BLACK
6
CONTINUOUS
10
6.11162
20
-3.03844
11
6.1151
21
-3.04192
0
LINE
8
BLACK
6
CONTINUOUS
10
6.1151
20
-3.04192
11
6.11734
21
-3.04631
0
LINE
8
BLACK
6
CONTINUOUS
10
6.11734
20
-3.04631
11
6.11811
21
-3.05118
0
LINE
8
BLACK
6
CONTINUOUS
10
6.11811
20
-3.05118
11
6.11734
21
-3.05605
0
LINE
8
BLACK
6
CONTINUOUS
10
6.11734
20
-3.05605
11
6.1151
21
-3.06044
0
LINE
8
BLACK
6
CONTINUOUS
10
6.1151
20
-3.06044
11
6.11162
21
-3.06392
0
LINE
8
BLACK
6
CONTINUOUS
10
6.11162
20
-3.06392
11
6.10736
21
-3.06609
0
LINE
8
BLACK
6
CONTINUOUS
10
6.10736
20
-3.06609
11
6.10736
21
-3.13076
0
LINE
8
BLACK
6
CONTINUOUS
10
6.10736
20
-3.13076
11
6.11162
21
-3.13293
0
LINE
8
BLACK
6
CONTINUOUS
10
6.11162
20
-3.13293
11
6.1151
21
-3.13641
0
LINE
8
BLACK
6
CONTINUOUS
10
6.1151
20
-3.13641
11
6.11734
21
-3.1408
0
LINE
8
BLACK
6
CONTINUOUS
10
6.11734
20
-3.1408
11
6.11811
21
-3.14567
0
LINE
8
BLACK
6
CONTINUOUS
10
6.11811
20
-3.14567
11
6.11734
21
-3.15054
0
LINE
8
BLACK
6
CONTINUOUS
10
6.11734
20
-3.15054
11
6.1151
21
-3.15493
0
LINE
8
BLACK
6
CONTINUOUS
10
6.1151
20
-3.15493
11
6.11162
21
-3.15841
0
LINE
8
BLACK
6
CONTINUOUS
10
6.11162
20
-3.15841
11
6.10723
21
-3.16065
0
LINE
8
BLACK
6
CONTINUOUS
10
6.10723
20
-3.16065
11
6.10236
21
-3.16142
0
LINE
8
BLACK
6
CONTINUOUS
10
6.10236
20
-3.16142
11
6.0975
21
-3.16065
0
LINE
8
BLACK
6
CONTINUOUS
10
6.0975
20
-3.16065
11
6.09311
21
-3.15841
0
LINE
8
BLACK
6
CONTINUOUS
10
6.09311
20
-3.15841
11
6.08962
21
-3.15493
0
LINE
8
BLACK
6
CONTINUOUS
10
6.08962
20
-3.15493
11
6.08738
21
-3.15054
0
LINE
8
BLACK
6
CONTINUOUS
10
6.08738
20
-3.15054
11
6.08661
21
-3.14567
0
LINE
8
BLACK
6
CONTINUOUS
10
6.08661
20
-3.14567
11
6.08738
21
-3.1408
0
LINE
8
BLACK
6
CONTINUOUS
10
6.08738
20
-3.1408
11
6.08962
21
-3.13641
0
LINE
8
BLACK
6
CONTINUOUS
10
6.08962
20
-3.13641
11
6.09311
21
-3.13293
0
LINE
8
BLACK
6
CONTINUOUS
10
6.09311
20
-3.13293
11
6.09736
21
-3.13076
0
LINE
8
BLACK
6
CONTINUOUS
10
6.09736
20
-3.13076
11
6.09736
21
-3.06609
0
LINE
8
BLACK
6
CONTINUOUS
10
6.09736
20
-3.06609
11
6.09311
21
-3.06392
0
LINE
8
BLACK
6
CONTINUOUS
10
6.09311
20
-3.06392
11
6.08962
21
-3.06044
0
LINE
8
BLACK
6
CONTINUOUS
10
6.08962
20
-3.06044
11
6.08738
21
-3.05605
0
LINE
8
BLACK
6
CONTINUOUS
10
6.08738
20
-3.05605
11
6.08661
21
-3.05118
0
LINE
8
BLACK
6
CONTINUOUS
10
6.08661
20
-3.05118
11
6.08738
21
-3.04631
0
LINE
8
BLACK
6
CONTINUOUS
10
6.08738
20
-3.04631
11
6.08962
21
-3.04192
0
LINE
8
BLACK
6
CONTINUOUS
10
6.08962
20
-3.04192
11
6.09311
21
-3.03844
0
LINE
8
BLACK
6
CONTINUOUS
10
6.09311
20
-3.03844
11
6.0975
21
-3.0362
0
LINE
8
BLACK
6
CONTINUOUS
10
6.0975
20
-3.0362
11
6.10236
21
-3.03543
0
LINE
8
BLACK
6
CONTINUOUS
10
6.10236
20
-3.03543
11
6.10723
21
-3.0362
0
LINE
8
BLACK
6
CONTINUOUS
10
4.91584
20
-2.99531
11
4.92023
21
-2.99755
0
LINE
8
BLACK
6
CONTINUOUS
10
4.92023
20
-2.99755
11
4.92371
21
-3.00103
0
LINE
8
BLACK
6
CONTINUOUS
10
4.92371
20
-3.00103
11
4.92595
21
-3.00542
0
LINE
8
BLACK
6
CONTINUOUS
10
4.92595
20
-3.00542
11
4.92672
21
-3.01029
0
LINE
8
BLACK
6
CONTINUOUS
10
4.92672
20
-3.01029
11
4.92595
21
-3.01515
0
LINE
8
BLACK
6
CONTINUOUS
10
4.92595
20
-3.01515
11
4.92371
21
-3.01954
0
LINE
8
BLACK
6
CONTINUOUS
10
4.92371
20
-3.01954
11
4.92023
21
-3.02303
0
LINE
8
BLACK
6
CONTINUOUS
10
4.92023
20
-3.02303
11
4.91584
21
-3.02526
0
LINE
8
BLACK
6
CONTINUOUS
10
4.91584
20
-3.02526
11
4.91097
21
-3.02603
0
LINE
8
BLACK
6
CONTINUOUS
10
4.91097
20
-3.02603
11
4.90611
21
-3.02526
0
LINE
8
BLACK
6
CONTINUOUS
10
4.90611
20
-3.02526
11
4.90279
21
-3.02357
0
LINE
8
BLACK
6
CONTINUOUS
10
4.90279
20
-3.02357
11
4.88206
21
-3.0443
0
LINE
8
BLACK
6
CONTINUOUS
10
4.88206
20
-3.0443
11
4.88309
21
-3.04631
0
LINE
8
BLACK
6
CONTINUOUS
10
4.88309
20
-3.04631
11
4.88386
21
-3.05118
0
LINE
8
BLACK
6
CONTINUOUS
10
4.88386
20
-3.05118
11
4.88309
21
-3.05605
0
LINE
8
BLACK
6
CONTINUOUS
10
4.88309
20
-3.05605
11
4.88085
21
-3.06044
0
LINE
8
BLACK
6
CONTINUOUS
10
4.88085
20
-3.06044
11
4.87737
21
-3.06392
0
LINE
8
BLACK
6
CONTINUOUS
10
4.87737
20
-3.06392
11
4.87298
21
-3.06616
0
LINE
8
BLACK
6
CONTINUOUS
10
4.87298
20
-3.06616
11
4.86811
21
-3.06693
0
LINE
8
BLACK
6
CONTINUOUS
10
4.86811
20
-3.06693
11
4.86324
21
-3.06616
0
LINE
8
BLACK
6
CONTINUOUS
10
4.86324
20
-3.06616
11
4.85885
21
-3.06392
0
LINE
8
BLACK
6
CONTINUOUS
10
4.85885
20
-3.06392
11
4.85537
21
-3.06044
0
LINE
8
BLACK
6
CONTINUOUS
10
4.85537
20
-3.06044
11
4.85313
21
-3.05605
0
LINE
8
BLACK
6
CONTINUOUS
10
4.85313
20
-3.05605
11
4.85236
21
-3.05118
0
LINE
8
BLACK
6
CONTINUOUS
10
4.85236
20
-3.05118
11
4.85313
21
-3.04631
0
LINE
8
BLACK
6
CONTINUOUS
10
4.85313
20
-3.04631
11
4.85537
21
-3.04192
0
LINE
8
BLACK
6
CONTINUOUS
10
4.85537
20
-3.04192
11
4.85885
21
-3.03844
0
LINE
8
BLACK
6
CONTINUOUS
10
4.85885
20
-3.03844
11
4.86324
21
-3.0362
0
LINE
8
BLACK
6
CONTINUOUS
10
4.86324
20
-3.0362
11
4.86811
21
-3.03543
0
LINE
8
BLACK
6
CONTINUOUS
10
4.86811
20
-3.03543
11
4.87298
21
-3.0362
0
LINE
8
BLACK
6
CONTINUOUS
10
4.87298
20
-3.0362
11
4.87499
21
-3.03723
0
LINE
8
BLACK
6
CONTINUOUS
10
4.87499
20
-3.03723
11
4.89636
21
-3.01586
0
LINE
8
BLACK
6
CONTINUOUS
10
4.89636
20
-3.01586
11
4.896
21
-3.01515
0
LINE
8
BLACK
6
CONTINUOUS
10
4.896
20
-3.01515
11
4.89522
21
-3.01029
0
LINE
8
BLACK
6
CONTINUOUS
10
4.89522
20
-3.01029
11
4.896
21
-3.00542
0
LINE
8
BLACK
6
CONTINUOUS
10
4.896
20
-3.00542
11
4.89823
21
-3.00103
0
LINE
8
BLACK
6
CONTINUOUS
10
4.89823
20
-3.00103
11
4.90172
21
-2.99755
0
LINE
8
BLACK
6
CONTINUOUS
10
4.90172
20
-2.99755
11
4.90611
21
-2.99531
0
LINE
8
BLACK
6
CONTINUOUS
10
4.90611
20
-2.99531
11
4.91097
21
-2.99454
0
LINE
8
BLACK
6
CONTINUOUS
10
4.91097
20
-2.99454
11
4.91584
21
-2.99531
0
LINE
8
BLACK
6
CONTINUOUS
10
6.10526
20
-2.98896
11
6.10965
21
-2.9912
0
LINE
8
BLACK
6
CONTINUOUS
10
6.10965
20
-2.9912
11
6.11313
21
-2.99468
0
LINE
8
BLACK
6
CONTINUOUS
10
6.11313
20
-2.99468
11
6.11537
21
-2.99907
0
LINE
8
BLACK
6
CONTINUOUS
10
6.11537
20
-2.99907
11
6.11614
21
-3.00394
0
LINE
8
BLACK
6
CONTINUOUS
10
6.11614
20
-3.00394
11
6.11537
21
-3.0088
0
LINE
8
BLACK
6
CONTINUOUS
10
6.11537
20
-3.0088
11
6.11434
21
-3.01082
0
LINE
8
BLACK
6
CONTINUOUS
10
6.11434
20
-3.01082
11
6.14076
21
-3.03723
0
LINE
8
BLACK
6
CONTINUOUS
10
6.14076
20
-3.03723
11
6.14277
21
-3.0362
0
LINE
8
BLACK
6
CONTINUOUS
10
6.14277
20
-3.0362
11
6.14764
21
-3.03543
0
LINE
8
BLACK
6
CONTINUOUS
10
6.14764
20
-3.03543
11
6.1525
21
-3.0362
0
LINE
8
BLACK
6
CONTINUOUS
10
6.1525
20
-3.0362
11
6.15689
21
-3.03844
0
LINE
8
BLACK
6
CONTINUOUS
10
6.15689
20
-3.03844
11
6.16038
21
-3.04192
0
LINE
8
BLACK
6
CONTINUOUS
10
6.16038
20
-3.04192
11
6.16262
21
-3.04631
0
LINE
8
BLACK
6
CONTINUOUS
10
6.16262
20
-3.04631
11
6.16339
21
-3.05118
0
LINE
8
BLACK
6
CONTINUOUS
10
6.16339
20
-3.05118
11
6.16262
21
-3.05605
0
LINE
8
BLACK
6
CONTINUOUS
10
6.16262
20
-3.05605
11
6.16038
21
-3.06044
0
LINE
8
BLACK
6
CONTINUOUS
10
6.16038
20
-3.06044
11
6.15689
21
-3.06392
0
LINE
8
BLACK
6
CONTINUOUS
10
6.15689
20
-3.06392
11
6.1525
21
-3.06616
0
LINE
8
BLACK
6
CONTINUOUS
10
6.1525
20
-3.06616
11
6.14764
21
-3.06693
0
LINE
8
BLACK
6
CONTINUOUS
10
6.14764
20
-3.06693
11
6.14277
21
-3.06616
0
LINE
8
BLACK
6
CONTINUOUS
10
6.14277
20
-3.06616
11
6.13838
21
-3.06392
0
LINE
8
BLACK
6
CONTINUOUS
10
6.13838
20
-3.06392
11
6.1349
21
-3.06044
0
LINE
8
BLACK
6
CONTINUOUS
10
6.1349
20
-3.06044
11
6.13266
21
-3.05605
0
LINE
8
BLACK
6
CONTINUOUS
10
6.13266
20
-3.05605
11
6.13189
21
-3.05118
0
LINE
8
BLACK
6
CONTINUOUS
10
6.13189
20
-3.05118
11
6.13266
21
-3.04631
0
LINE
8
BLACK
6
CONTINUOUS
10
6.13266
20
-3.04631
11
6.13369
21
-3.0443
0
LINE
8
BLACK
6
CONTINUOUS
10
6.13369
20
-3.0443
11
6.10727
21
-3.01789
0
LINE
8
BLACK
6
CONTINUOUS
10
6.10727
20
-3.01789
11
6.10526
21
-3.01891
0
LINE
8
BLACK
6
CONTINUOUS
10
6.10526
20
-3.01891
11
6.10039
21
-3.01969
0
LINE
8
BLACK
6
CONTINUOUS
10
6.10039
20
-3.01969
11
6.09553
21
-3.01891
0
LINE
8
BLACK
6
CONTINUOUS
10
6.09553
20
-3.01891
11
6.09114
21
-3.01668
0
LINE
8
BLACK
6
CONTINUOUS
10
6.09114
20
-3.01668
11
6.08765
21
-3.01319
0
LINE
8
BLACK
6
CONTINUOUS
10
6.08765
20
-3.01319
11
6.08542
21
-3.0088
0
LINE
8
BLACK
6
CONTINUOUS
10
6.08542
20
-3.0088
11
6.08465
21
-3.00394
0
LINE
8
BLACK
6
CONTINUOUS
10
6.08465
20
-3.00394
11
6.08542
21
-2.99907
0
LINE
8
BLACK
6
CONTINUOUS
10
6.08542
20
-2.99907
11
6.08765
21
-2.99468
0
LINE
8
BLACK
6
CONTINUOUS
10
6.08765
20
-2.99468
11
6.09114
21
-2.9912
0
LINE
8
BLACK
6
CONTINUOUS
10
6.09114
20
-2.9912
11
6.09553
21
-2.98896
0
LINE
8
BLACK
6
CONTINUOUS
10
6.09553
20
-2.98896
11
6.10039
21
-2.98819
0
LINE
8
BLACK
6
CONTINUOUS
10
6.10039
20
-2.98819
11
6.10526
21
-2.98896
0
LINE
8
BLACK
6
CONTINUOUS
10
5.14571
20
-2.87482
11
5.15305
21
-2.87709
0
LINE
8
BLACK
6
CONTINUOUS
10
5.15305
20
-2.87709
11
5.15981
21
-2.88075
0
LINE
8
BLACK
6
CONTINUOUS
10
5.15981
20
-2.88075
11
5.16573
21
-2.88564
0
LINE
8
BLACK
6
CONTINUOUS
10
5.16573
20
-2.88564
11
5.17059
21
-2.8916
0
LINE
8
BLACK
6
CONTINUOUS
10
5.17059
20
-2.8916
11
5.17419
21
-2.89838
0
LINE
8
BLACK
6
CONTINUOUS
10
5.17419
20
-2.89838
11
5.17642
21
-2.90574
0
LINE
8
BLACK
6
CONTINUOUS
10
5.17642
20
-2.90574
11
5.17717
21
-2.91339
0
LINE
8
BLACK
6
CONTINUOUS
10
5.17717
20
-2.91339
11
5.17715
21
-2.91449
0
LINE
8
BLACK
6
CONTINUOUS
10
5.17715
20
-2.91449
11
5.17619
21
-2.92211
0
LINE
8
BLACK
6
CONTINUOUS
10
5.17619
20
-2.92211
11
5.17376
21
-2.9294
0
LINE
8
BLACK
6
CONTINUOUS
10
5.17376
20
-2.9294
11
5.16997
21
-2.93608
0
LINE
8
BLACK
6
CONTINUOUS
10
5.16997
20
-2.93608
11
5.16495
21
-2.9419
0
LINE
8
BLACK
6
CONTINUOUS
10
5.16495
20
-2.9419
11
5.15889
21
-2.94663
0
LINE
8
BLACK
6
CONTINUOUS
10
5.15889
20
-2.94663
11
5.15203
21
-2.95009
0
LINE
8
BLACK
6
CONTINUOUS
10
5.15203
20
-2.95009
11
5.14463
21
-2.95216
0
LINE
8
BLACK
6
CONTINUOUS
10
5.14463
20
-2.95216
11
5.13697
21
-2.95275
0
LINE
8
BLACK
6
CONTINUOUS
10
5.13697
20
-2.95275
11
5.12934
21
-2.95184
0
LINE
8
BLACK
6
CONTINUOUS
10
5.12934
20
-2.95184
11
5.12203
21
-2.94946
0
LINE
8
BLACK
6
CONTINUOUS
10
5.12203
20
-2.94946
11
5.11533
21
-2.94571
0
LINE
8
BLACK
6
CONTINUOUS
10
5.11533
20
-2.94571
11
5.10947
21
-2.94073
0
LINE
8
BLACK
6
CONTINUOUS
10
5.10947
20
-2.94073
11
5.1047
21
-2.93471
0
LINE
8
BLACK
6
CONTINUOUS
10
5.1047
20
-2.93471
11
5.10119
21
-2.92788
0
LINE
8
BLACK
6
CONTINUOUS
10
5.10119
20
-2.92788
11
5.09907
21
-2.92049
0
LINE
8
BLACK
6
CONTINUOUS
10
5.09907
20
-2.92049
11
5.09843
21
-2.91284
0
LINE
8
BLACK
6
CONTINUOUS
10
5.09843
20
-2.91284
11
5.09929
21
-2.9052
0
LINE
8
BLACK
6
CONTINUOUS
10
5.09929
20
-2.9052
11
5.10161
21
-2.89788
0
LINE
8
BLACK
6
CONTINUOUS
10
5.10161
20
-2.89788
11
5.10531
21
-2.89114
0
LINE
8
BLACK
6
CONTINUOUS
10
5.10531
20
-2.89114
11
5.11025
21
-2.88526
0
LINE
8
BLACK
6
CONTINUOUS
10
5.11025
20
-2.88526
11
5.11624
21
-2.88044
0
LINE
8
BLACK
6
CONTINUOUS
10
5.11624
20
-2.88044
11
5.12305
21
-2.87688
0
LINE
8
BLACK
6
CONTINUOUS
10
5.12305
20
-2.87688
11
5.13042
21
-2.87471
0
LINE
8
BLACK
6
CONTINUOUS
10
5.13042
20
-2.87471
11
5.13807
21
-2.87402
0
LINE
8
BLACK
6
CONTINUOUS
10
5.13807
20
-2.87402
11
5.14571
21
-2.87482
0
LINE
8
BLACK
6
CONTINUOUS
10
5.89374
20
-2.87482
11
5.90108
21
-2.87709
0
LINE
8
BLACK
6
CONTINUOUS
10
5.90108
20
-2.87709
11
5.90784
21
-2.88075
0
LINE
8
BLACK
6
CONTINUOUS
10
5.90784
20
-2.88075
11
5.91376
21
-2.88564
0
LINE
8
BLACK
6
CONTINUOUS
10
5.91376
20
-2.88564
11
5.91862
21
-2.8916
0
LINE
8
BLACK
6
CONTINUOUS
10
5.91862
20
-2.8916
11
5.92223
21
-2.89838
0
LINE
8
BLACK
6
CONTINUOUS
10
5.92223
20
-2.89838
11
5.92445
21
-2.90574
0
LINE
8
BLACK
6
CONTINUOUS
10
5.92445
20
-2.90574
11
5.9252
21
-2.91339
0
LINE
8
BLACK
6
CONTINUOUS
10
5.9252
20
-2.91339
11
5.92518
21
-2.91449
0
LINE
8
BLACK
6
CONTINUOUS
10
5.92518
20
-2.91449
11
5.92422
21
-2.92211
0
LINE
8
BLACK
6
CONTINUOUS
10
5.92422
20
-2.92211
11
5.92179
21
-2.9294
0
LINE
8
BLACK
6
CONTINUOUS
10
5.92179
20
-2.9294
11
5.918
21
-2.93608
0
LINE
8
BLACK
6
CONTINUOUS
10
5.918
20
-2.93608
11
5.91298
21
-2.9419
0
LINE
8
BLACK
6
CONTINUOUS
10
5.91298
20
-2.9419
11
5.90692
21
-2.94663
0
LINE
8
BLACK
6
CONTINUOUS
10
5.90692
20
-2.94663
11
5.90006
21
-2.95009
0
LINE
8
BLACK
6
CONTINUOUS
10
5.90006
20
-2.95009
11
5.89266
21
-2.95216
0
LINE
8
BLACK
6
CONTINUOUS
10
5.89266
20
-2.95216
11
5.885
21
-2.95275
0
LINE
8
BLACK
6
CONTINUOUS
10
5.885
20
-2.95275
11
5.87737
21
-2.95184
0
LINE
8
BLACK
6
CONTINUOUS
10
5.87737
20
-2.95184
11
5.87007
21
-2.94946
0
LINE
8
BLACK
6
CONTINUOUS
10
5.87007
20
-2.94946
11
5.86336
21
-2.94571
0
LINE
8
BLACK
6
CONTINUOUS
10
5.86336
20
-2.94571
11
5.85751
21
-2.94073
0
LINE
8
BLACK
6
CONTINUOUS
10
5.85751
20
-2.94073
11
5.85273
21
-2.93471
0
LINE
8
BLACK
6
CONTINUOUS
10
5.85273
20
-2.93471
11
5.84922
21
-2.92788
0
LINE
8
BLACK
6
CONTINUOUS
10
5.84922
20
-2.92788
11
5.8471
21
-2.92049
0
LINE
8
BLACK
6
CONTINUOUS
10
5.8471
20
-2.92049
11
5.84646
21
-2.91284
0
LINE
8
BLACK
6
CONTINUOUS
10
5.84646
20
-2.91284
11
5.84732
21
-2.9052
0
LINE
8
BLACK
6
CONTINUOUS
10
5.84732
20
-2.9052
11
5.84964
21
-2.89788
0
LINE
8
BLACK
6
CONTINUOUS
10
5.84964
20
-2.89788
11
5.85334
21
-2.89114
0
LINE
8
BLACK
6
CONTINUOUS
10
5.85334
20
-2.89114
11
5.85828
21
-2.88526
0
LINE
8
BLACK
6
CONTINUOUS
10
5.85828
20
-2.88526
11
5.86427
21
-2.88044
0
LINE
8
BLACK
6
CONTINUOUS
10
5.86427
20
-2.88044
11
5.87108
21
-2.87688
0
LINE
8
BLACK
6
CONTINUOUS
10
5.87108
20
-2.87688
11
5.87845
21
-2.87471
0
LINE
8
BLACK
6
CONTINUOUS
10
5.87845
20
-2.87471
11
5.8861
21
-2.87402
0
LINE
8
BLACK
6
CONTINUOUS
10
5.8861
20
-2.87402
11
5.89374
21
-2.87482
0
LINE
8
BLACK
6
CONTINUOUS
10
5.42613
20
-2.91809
11
5.43052
21
-2.92033
0
LINE
8
BLACK
6
CONTINUOUS
10
5.43052
20
-2.92033
11
5.434
21
-2.92381
0
LINE
8
BLACK
6
CONTINUOUS
10
5.434
20
-2.92381
11
5.43624
21
-2.9282
0
LINE
8
BLACK
6
CONTINUOUS
10
5.43624
20
-2.9282
11
5.43701
21
-2.93307
0
LINE
8
BLACK
6
CONTINUOUS
10
5.43701
20
-2.93307
11
5.43624
21
-2.93794
0
LINE
8
BLACK
6
CONTINUOUS
10
5.43624
20
-2.93794
11
5.434
21
-2.94233
0
LINE
8
BLACK
6
CONTINUOUS
10
5.434
20
-2.94233
11
5.43052
21
-2.94581
0
LINE
8
BLACK
6
CONTINUOUS
10
5.43052
20
-2.94581
11
5.42613
21
-2.94805
0
LINE
8
BLACK
6
CONTINUOUS
10
5.42613
20
-2.94805
11
5.42126
21
-2.94882
0
LINE
8
BLACK
6
CONTINUOUS
10
5.42126
20
-2.94882
11
5.41639
21
-2.94805
0
LINE
8
BLACK
6
CONTINUOUS
10
5.41639
20
-2.94805
11
5.412
21
-2.94581
0
LINE
8
BLACK
6
CONTINUOUS
10
5.412
20
-2.94581
11
5.40852
21
-2.94233
0
LINE
8
BLACK
6
CONTINUOUS
10
5.40852
20
-2.94233
11
5.40628
21
-2.93794
0
LINE
8
BLACK
6
CONTINUOUS
10
5.40628
20
-2.93794
11
5.40551
21
-2.93307
0
LINE
8
BLACK
6
CONTINUOUS
10
5.40551
20
-2.93307
11
5.40628
21
-2.9282
0
LINE
8
BLACK
6
CONTINUOUS
10
5.40628
20
-2.9282
11
5.40852
21
-2.92381
0
LINE
8
BLACK
6
CONTINUOUS
10
5.40852
20
-2.92381
11
5.412
21
-2.92033
0
LINE
8
BLACK
6
CONTINUOUS
10
5.412
20
-2.92033
11
5.41639
21
-2.91809
0
LINE
8
BLACK
6
CONTINUOUS
10
5.41639
20
-2.91809
11
5.42126
21
-2.91732
0
LINE
8
BLACK
6
CONTINUOUS
10
5.42126
20
-2.91732
11
5.42613
21
-2.91809
0
LINE
8
BLACK
6
CONTINUOUS
10
5.77563
20
-2.78624
11
5.78297
21
-2.78851
0
LINE
8
BLACK
6
CONTINUOUS
10
5.78297
20
-2.78851
11
5.78973
21
-2.79216
0
LINE
8
BLACK
6
CONTINUOUS
10
5.78973
20
-2.79216
11
5.79565
21
-2.79706
0
LINE
8
BLACK
6
CONTINUOUS
10
5.79565
20
-2.79706
11
5.80051
21
-2.80302
0
LINE
8
BLACK
6
CONTINUOUS
10
5.80051
20
-2.80302
11
5.80412
21
-2.8098
0
LINE
8
BLACK
6
CONTINUOUS
10
5.80412
20
-2.8098
11
5.80634
21
-2.81716
0
LINE
8
BLACK
6
CONTINUOUS
10
5.80634
20
-2.81716
11
5.80709
21
-2.8248
0
LINE
8
BLACK
6
CONTINUOUS
10
5.80709
20
-2.8248
11
5.80707
21
-2.8259
0
LINE
8
BLACK
6
CONTINUOUS
10
5.80707
20
-2.8259
11
5.80611
21
-2.83353
0
LINE
8
BLACK
6
CONTINUOUS
10
5.80611
20
-2.83353
11
5.80368
21
-2.84082
0
LINE
8
BLACK
6
CONTINUOUS
10
5.80368
20
-2.84082
11
5.79989
21
-2.8475
0
LINE
8
BLACK
6
CONTINUOUS
10
5.79989
20
-2.8475
11
5.79487
21
-2.85331
0
LINE
8
BLACK
6
CONTINUOUS
10
5.79487
20
-2.85331
11
5.78881
21
-2.85804
0
LINE
8
BLACK
6
CONTINUOUS
10
5.78881
20
-2.85804
11
5.78195
21
-2.86151
0
LINE
8
BLACK
6
CONTINUOUS
10
5.78195
20
-2.86151
11
5.77455
21
-2.86358
0
LINE
8
BLACK
6
CONTINUOUS
10
5.77455
20
-2.86358
11
5.76689
21
-2.86416
0
LINE
8
BLACK
6
CONTINUOUS
10
5.76689
20
-2.86416
11
5.75926
21
-2.86325
0
LINE
8
BLACK
6
CONTINUOUS
10
5.75926
20
-2.86325
11
5.75195
21
-2.86088
0
LINE
8
BLACK
6
CONTINUOUS
10
5.75195
20
-2.86088
11
5.74525
21
-2.85713
0
LINE
8
BLACK
6
CONTINUOUS
10
5.74525
20
-2.85713
11
5.7394
21
-2.85215
0
LINE
8
BLACK
6
CONTINUOUS
10
5.7394
20
-2.85215
11
5.73462
21
-2.84613
0
LINE
8
BLACK
6
CONTINUOUS
10
5.73462
20
-2.84613
11
5.73111
21
-2.8393
0
LINE
8
BLACK
6
CONTINUOUS
10
5.73111
20
-2.8393
11
5.72899
21
-2.83191
0
LINE
8
BLACK
6
CONTINUOUS
10
5.72899
20
-2.83191
11
5.72835
21
-2.82425
0
LINE
8
BLACK
6
CONTINUOUS
10
5.72835
20
-2.82425
11
5.72921
21
-2.81662
0
LINE
8
BLACK
6
CONTINUOUS
10
5.72921
20
-2.81662
11
5.73153
21
-2.80929
0
LINE
8
BLACK
6
CONTINUOUS
10
5.73153
20
-2.80929
11
5.73523
21
-2.80256
0
LINE
8
BLACK
6
CONTINUOUS
10
5.73523
20
-2.80256
11
5.74017
21
-2.79667
0
LINE
8
BLACK
6
CONTINUOUS
10
5.74017
20
-2.79667
11
5.74616
21
-2.79186
0
LINE
8
BLACK
6
CONTINUOUS
10
5.74616
20
-2.79186
11
5.75297
21
-2.7883
0
LINE
8
BLACK
6
CONTINUOUS
10
5.75297
20
-2.7883
11
5.76034
21
-2.78613
0
LINE
8
BLACK
6
CONTINUOUS
10
5.76034
20
-2.78613
11
5.76799
21
-2.78543
0
LINE
8
BLACK
6
CONTINUOUS
10
5.76799
20
-2.78543
11
5.77563
21
-2.78624
0
LINE
8
BLACK
6
CONTINUOUS
10
5.62996
20
-2.78427
11
5.6373
21
-2.78654
0
LINE
8
BLACK
6
CONTINUOUS
10
5.6373
20
-2.78654
11
5.64406
21
-2.7902
0
LINE
8
BLACK
6
CONTINUOUS
10
5.64406
20
-2.7902
11
5.64998
21
-2.79509
0
LINE
8
BLACK
6
CONTINUOUS
10
5.64998
20
-2.79509
11
5.65484
21
-2.80105
0
LINE
8
BLACK
6
CONTINUOUS
10
5.65484
20
-2.80105
11
5.65845
21
-2.80783
0
LINE
8
BLACK
6
CONTINUOUS
10
5.65845
20
-2.80783
11
5.66067
21
-2.81519
0
LINE
8
BLACK
6
CONTINUOUS
10
5.66067
20
-2.81519
11
5.66142
21
-2.82283
0
LINE
8
BLACK
6
CONTINUOUS
10
5.66142
20
-2.82283
11
5.6614
21
-2.82393
0
LINE
8
BLACK
6
CONTINUOUS
10
5.6614
20
-2.82393
11
5.66044
21
-2.83156
0
LINE
8
BLACK
6
CONTINUOUS
10
5.66044
20
-2.83156
11
5.65801
21
-2.83885
0
LINE
8
BLACK
6
CONTINUOUS
10
5.65801
20
-2.83885
11
5.65422
21
-2.84553
0
LINE
8
BLACK
6
CONTINUOUS
10
5.65422
20
-2.84553
11
5.6492
21
-2.85135
0
LINE
8
BLACK
6
CONTINUOUS
10
5.6492
20
-2.85135
11
5.64314
21
-2.85608
0
LINE
8
BLACK
6
CONTINUOUS
10
5.64314
20
-2.85608
11
5.63628
21
-2.85954
0
LINE
8
BLACK
6
CONTINUOUS
10
5.63628
20
-2.85954
11
5.62888
21
-2.86161
0
LINE
8
BLACK
6
CONTINUOUS
10
5.62888
20
-2.86161
11
5.62122
21
-2.8622
0
LINE
8
BLACK
6
CONTINUOUS
10
5.62122
20
-2.8622
11
5.61359
21
-2.86129
0
LINE
8
BLACK
6
CONTINUOUS
10
5.61359
20
-2.86129
11
5.60629
21
-2.85891
0
LINE
8
BLACK
6
CONTINUOUS
10
5.60629
20
-2.85891
11
5.59958
21
-2.85516
0
LINE
8
BLACK
6
CONTINUOUS
10
5.59958
20
-2.85516
11
5.59373
21
-2.85018
0
LINE
8
BLACK
6
CONTINUOUS
10
5.59373
20
-2.85018
11
5.58895
21
-2.84416
0
LINE
8
BLACK
6
CONTINUOUS
10
5.58895
20
-2.84416
11
5.58544
21
-2.83733
0
LINE
8
BLACK
6
CONTINUOUS
10
5.58544
20
-2.83733
11
5.58332
21
-2.82994
0
LINE
8
BLACK
6
CONTINUOUS
10
5.58332
20
-2.82994
11
5.58268
21
-2.82228
0
LINE
8
BLACK
6
CONTINUOUS
10
5.58268
20
-2.82228
11
5.58354
21
-2.81465
0
LINE
8
BLACK
6
CONTINUOUS
10
5.58354
20
-2.81465
11
5.58586
21
-2.80733
0
LINE
8
BLACK
6
CONTINUOUS
10
5.58586
20
-2.80733
11
5.58956
21
-2.80059
0
LINE
8
BLACK
6
CONTINUOUS
10
5.58956
20
-2.80059
11
5.5945
21
-2.79471
0
LINE
8
BLACK
6
CONTINUOUS
10
5.5945
20
-2.79471
11
5.60049
21
-2.78989
0
LINE
8
BLACK
6
CONTINUOUS
10
5.60049
20
-2.78989
11
5.6073
21
-2.78633
0
LINE
8
BLACK
6
CONTINUOUS
10
5.6073
20
-2.78633
11
5.61467
21
-2.78416
0
LINE
8
BLACK
6
CONTINUOUS
10
5.61467
20
-2.78416
11
5.62232
21
-2.78347
0
LINE
8
BLACK
6
CONTINUOUS
10
5.62232
20
-2.78347
11
5.62996
21
-2.78427
0
LINE
8
BLACK
6
CONTINUOUS
10
5.51973
20
-2.65828
11
5.52707
21
-2.66056
0
LINE
8
BLACK
6
CONTINUOUS
10
5.52707
20
-2.66056
11
5.53383
21
-2.66421
0
LINE
8
BLACK
6
CONTINUOUS
10
5.53383
20
-2.66421
11
5.53975
21
-2.66911
0
LINE
8
BLACK
6
CONTINUOUS
10
5.53975
20
-2.66911
11
5.5446
21
-2.67506
0
LINE
8
BLACK
6
CONTINUOUS
10
5.5446
20
-2.67506
11
5.54821
21
-2.68185
0
LINE
8
BLACK
6
CONTINUOUS
10
5.54821
20
-2.68185
11
5.55043
21
-2.6892
0
LINE
8
BLACK
6
CONTINUOUS
10
5.55043
20
-2.6892
11
5.55118
21
-2.69685
0
LINE
8
BLACK
6
CONTINUOUS
10
5.55118
20
-2.69685
11
5.55117
21
-2.69795
0
LINE
8
BLACK
6
CONTINUOUS
10
5.55117
20
-2.69795
11
5.5502
21
-2.70557
0
LINE
8
BLACK
6
CONTINUOUS
10
5.5502
20
-2.70557
11
5.54778
21
-2.71286
0
LINE
8
BLACK
6
CONTINUOUS
10
5.54778
20
-2.71286
11
5.54398
21
-2.71954
0
LINE
8
BLACK
6
CONTINUOUS
10
5.54398
20
-2.71954
11
5.53896
21
-2.72536
0
LINE
8
BLACK
6
CONTINUOUS
10
5.53896
20
-2.72536
11
5.53291
21
-2.73009
0
LINE
8
BLACK
6
CONTINUOUS
10
5.53291
20
-2.73009
11
5.52605
21
-2.73356
0
LINE
8
BLACK
6
CONTINUOUS
10
5.52605
20
-2.73356
11
5.51865
21
-2.73562
0
LINE
8
BLACK
6
CONTINUOUS
10
5.51865
20
-2.73562
11
5.51099
21
-2.73621
0
LINE
8
BLACK
6
CONTINUOUS
10
5.51099
20
-2.73621
11
5.50336
21
-2.7353
0
LINE
8
BLACK
6
CONTINUOUS
10
5.50336
20
-2.7353
11
5.49605
21
-2.73293
0
LINE
8
BLACK
6
CONTINUOUS
10
5.49605
20
-2.73293
11
5.48934
21
-2.72918
0
LINE
8
BLACK
6
CONTINUOUS
10
5.48934
20
-2.72918
11
5.48349
21
-2.7242
0
LINE
8
BLACK
6
CONTINUOUS
10
5.48349
20
-2.7242
11
5.47872
21
-2.71818
0
LINE
8
BLACK
6
CONTINUOUS
10
5.47872
20
-2.71818
11
5.47521
21
-2.71134
0
LINE
8
BLACK
6
CONTINUOUS
10
5.47521
20
-2.71134
11
5.47309
21
-2.70396
0
LINE
8
BLACK
6
CONTINUOUS
10
5.47309
20
-2.70396
11
5.47244
21
-2.6963
0
LINE
8
BLACK
6
CONTINUOUS
10
5.47244
20
-2.6963
11
5.4733
21
-2.68866
0
LINE
8
BLACK
6
CONTINUOUS
10
5.4733
20
-2.68866
11
5.47562
21
-2.68134
0
LINE
8
BLACK
6
CONTINUOUS
10
5.47562
20
-2.68134
11
5.47933
21
-2.67461
0
LINE
8
BLACK
6
CONTINUOUS
10
5.47933
20
-2.67461
11
5.48427
21
-2.66872
0
LINE
8
BLACK
6
CONTINUOUS
10
5.48427
20
-2.66872
11
5.49025
21
-2.66391
0
LINE
8
BLACK
6
CONTINUOUS
10
5.49025
20
-2.66391
11
5.49706
21
-2.66035
0
LINE
8
BLACK
6
CONTINUOUS
10
5.49706
20
-2.66035
11
5.50443
21
-2.65818
0
LINE
8
BLACK
6
CONTINUOUS
10
5.50443
20
-2.65818
11
5.51209
21
-2.65748
0
LINE
8
BLACK
6
CONTINUOUS
10
5.51209
20
-2.65748
11
5.51973
21
-2.65828
0
LINE
8
BLACK
6
CONTINUOUS
10
4.7717
20
-2.65828
11
4.77904
21
-2.66056
0
LINE
8
BLACK
6
CONTINUOUS
10
4.77904
20
-2.66056
11
4.7858
21
-2.66421
0
LINE
8
BLACK
6
CONTINUOUS
10
4.7858
20
-2.66421
11
4.79172
21
-2.66911
0
LINE
8
BLACK
6
CONTINUOUS
10
4.79172
20
-2.66911
11
4.79657
21
-2.67506
0
LINE
8
BLACK
6
CONTINUOUS
10
4.79657
20
-2.67506
11
4.80018
21
-2.68185
0
LINE
8
BLACK
6
CONTINUOUS
10
4.80018
20
-2.68185
11
4.8024
21
-2.6892
0
LINE
8
BLACK
6
CONTINUOUS
10
4.8024
20
-2.6892
11
4.80315
21
-2.69685
0
LINE
8
BLACK
6
CONTINUOUS
10
4.80315
20
-2.69685
11
4.80313
21
-2.69795
0
LINE
8
BLACK
6
CONTINUOUS
10
4.80313
20
-2.69795
11
4.80217
21
-2.70557
0
LINE
8
BLACK
6
CONTINUOUS
10
4.80217
20
-2.70557
11
4.79975
21
-2.71286
0
LINE
8
BLACK
6
CONTINUOUS
10
4.79975
20
-2.71286
11
4.79595
21
-2.71954
0
LINE
8
BLACK
6
CONTINUOUS
10
4.79595
20
-2.71954
11
4.79093
21
-2.72536
0
LINE
8
BLACK
6
CONTINUOUS
10
4.79093
20
-2.72536
11
4.78488
21
-2.73009
0
LINE
8
BLACK
6
CONTINUOUS
10
4.78488
20
-2.73009
11
4.77802
21
-2.73356
0
LINE
8
BLACK
6
CONTINUOUS
10
4.77802
20
-2.73356
11
4.77062
21
-2.73562
0
LINE
8
BLACK
6
CONTINUOUS
10
4.77062
20
-2.73562
11
4.76296
21
-2.73621
0
LINE
8
BLACK
6
CONTINUOUS
10
4.76296
20
-2.73621
11
4.75533
21
-2.7353
0
LINE
8
BLACK
6
CONTINUOUS
10
4.75533
20
-2.7353
11
4.74802
21
-2.73293
0
LINE
8
BLACK
6
CONTINUOUS
10
4.74802
20
-2.73293
11
4.74131
21
-2.72918
0
LINE
8
BLACK
6
CONTINUOUS
10
4.74131
20
-2.72918
11
4.73546
21
-2.7242
0
LINE
8
BLACK
6
CONTINUOUS
10
4.73546
20
-2.7242
11
4.73069
21
-2.71818
0
LINE
8
BLACK
6
CONTINUOUS
10
4.73069
20
-2.71818
11
4.72717
21
-2.71134
0
LINE
8
BLACK
6
CONTINUOUS
10
4.72717
20
-2.71134
11
4.72506
21
-2.70396
0
LINE
8
BLACK
6
CONTINUOUS
10
4.72506
20
-2.70396
11
4.72441
21
-2.6963
0
LINE
8
BLACK
6
CONTINUOUS
10
4.72441
20
-2.6963
11
4.72527
21
-2.68866
0
LINE
8
BLACK
6
CONTINUOUS
10
4.72527
20
-2.68866
11
4.72759
21
-2.68134
0
LINE
8
BLACK
6
CONTINUOUS
10
4.72759
20
-2.68134
11
4.73129
21
-2.67461
0
LINE
8
BLACK
6
CONTINUOUS
10
4.73129
20
-2.67461
11
4.73623
21
-2.66872
0
LINE
8
BLACK
6
CONTINUOUS
10
4.73623
20
-2.66872
11
4.74222
21
-2.66391
0
LINE
8
BLACK
6
CONTINUOUS
10
4.74222
20
-2.66391
11
4.74903
21
-2.66035
0
LINE
8
BLACK
6
CONTINUOUS
10
4.74903
20
-2.66035
11
4.7564
21
-2.65818
0
LINE
8
BLACK
6
CONTINUOUS
10
4.7564
20
-2.65818
11
4.76405
21
-2.65748
0
LINE
8
BLACK
6
CONTINUOUS
10
4.76405
20
-2.65748
11
4.7717
21
-2.65828
0
LINE
8
BLACK
6
CONTINUOUS
10
6.26776
20
-2.65828
11
6.2751
21
-2.66056
0
LINE
8
BLACK
6
CONTINUOUS
10
6.2751
20
-2.66056
11
6.28186
21
-2.66421
0
LINE
8
BLACK
6
CONTINUOUS
10
6.28186
20
-2.66421
11
6.28778
21
-2.66911
0
LINE
8
BLACK
6
CONTINUOUS
10
6.28778
20
-2.66911
11
6.29263
21
-2.67506
0
LINE
8
BLACK
6
CONTINUOUS
10
6.29263
20
-2.67506
11
6.29624
21
-2.68185
0
LINE
8
BLACK
6
CONTINUOUS
10
6.29624
20
-2.68185
11
6.29846
21
-2.6892
0
LINE
8
BLACK
6
CONTINUOUS
10
6.29846
20
-2.6892
11
6.29921
21
-2.69685
0
LINE
8
BLACK
6
CONTINUOUS
10
6.29921
20
-2.69685
11
6.2992
21
-2.69795
0
LINE
8
BLACK
6
CONTINUOUS
10
6.2992
20
-2.69795
11
6.29823
21
-2.70557
0
LINE
8
BLACK
6
CONTINUOUS
10
6.29823
20
-2.70557
11
6.29581
21
-2.71286
0
LINE
8
BLACK
6
CONTINUOUS
10
6.29581
20
-2.71286
11
6.29201
21
-2.71954
0
LINE
8
BLACK
6
CONTINUOUS
10
6.29201
20
-2.71954
11
6.28699
21
-2.72536
0
LINE
8
BLACK
6
CONTINUOUS
10
6.28699
20
-2.72536
11
6.28094
21
-2.73009
0
LINE
8
BLACK
6
CONTINUOUS
10
6.28094
20
-2.73009
11
6.27408
21
-2.73356
0
LINE
8
BLACK
6
CONTINUOUS
10
6.27408
20
-2.73356
11
6.26668
21
-2.73562
0
LINE
8
BLACK
6
CONTINUOUS
10
6.26668
20
-2.73562
11
6.25902
21
-2.73621
0
LINE
8
BLACK
6
CONTINUOUS
10
6.25902
20
-2.73621
11
6.25139
21
-2.7353
0
LINE
8
BLACK
6
CONTINUOUS
10
6.25139
20
-2.7353
11
6.24408
21
-2.73293
0
LINE
8
BLACK
6
CONTINUOUS
10
6.24408
20
-2.73293
11
6.23737
21
-2.72918
0
LINE
8
BLACK
6
CONTINUOUS
10
6.23737
20
-2.72918
11
6.23152
21
-2.7242
0
LINE
8
BLACK
6
CONTINUOUS
10
6.23152
20
-2.7242
11
6.22675
21
-2.71818
0
LINE
8
BLACK
6
CONTINUOUS
10
6.22675
20
-2.71818
11
6.22324
21
-2.71134
0
LINE
8
BLACK
6
CONTINUOUS
10
6.22324
20
-2.71134
11
6.22112
21
-2.70396
0
LINE
8
BLACK
6
CONTINUOUS
10
6.22112
20
-2.70396
11
6.22048
21
-2.6963
0
LINE
8
BLACK
6
CONTINUOUS
10
6.22048
20
-2.6963
11
6.22133
21
-2.68866
0
LINE
8
BLACK
6
CONTINUOUS
10
6.22133
20
-2.68866
11
6.22366
21
-2.68134
0
LINE
8
BLACK
6
CONTINUOUS
10
6.22366
20
-2.68134
11
6.22736
21
-2.67461
0
LINE
8
BLACK
6
CONTINUOUS
10
6.22736
20
-2.67461
11
6.2323
21
-2.66872
0
LINE
8
BLACK
6
CONTINUOUS
10
6.2323
20
-2.66872
11
6.23828
21
-2.66391
0
LINE
8
BLACK
6
CONTINUOUS
10
6.23828
20
-2.66391
11
6.24509
21
-2.66035
0
LINE
8
BLACK
6
CONTINUOUS
10
6.24509
20
-2.66035
11
6.25247
21
-2.65818
0
LINE
8
BLACK
6
CONTINUOUS
10
6.25247
20
-2.65818
11
6.26012
21
-2.65748
0
LINE
8
BLACK
6
CONTINUOUS
10
6.26012
20
-2.65748
11
6.26776
21
-2.65828
0
LINE
8
BLACK
6
CONTINUOUS
10
5.14571
20
-2.44175
11
5.15305
21
-2.44402
0
LINE
8
BLACK
6
CONTINUOUS
10
5.15305
20
-2.44402
11
5.15981
21
-2.44768
0
LINE
8
BLACK
6
CONTINUOUS
10
5.15981
20
-2.44768
11
5.16573
21
-2.45257
0
LINE
8
BLACK
6
CONTINUOUS
10
5.16573
20
-2.45257
11
5.17059
21
-2.45853
0
LINE
8
BLACK
6
CONTINUOUS
10
5.17059
20
-2.45853
11
5.17419
21
-2.46531
0
LINE
8
BLACK
6
CONTINUOUS
10
5.17419
20
-2.46531
11
5.17642
21
-2.47267
0
LINE
8
BLACK
6
CONTINUOUS
10
5.17642
20
-2.47267
11
5.17717
21
-2.48031
0
LINE
8
BLACK
6
CONTINUOUS
10
5.17717
20
-2.48031
11
5.17715
21
-2.48141
0
LINE
8
BLACK
6
CONTINUOUS
10
5.17715
20
-2.48141
11
5.17619
21
-2.48904
0
LINE
8
BLACK
6
CONTINUOUS
10
5.17619
20
-2.48904
11
5.17376
21
-2.49633
0
LINE
8
BLACK
6
CONTINUOUS
10
5.17376
20
-2.49633
11
5.16997
21
-2.50301
0
LINE
8
BLACK
6
CONTINUOUS
10
5.16997
20
-2.50301
11
5.16495
21
-2.50883
0
LINE
8
BLACK
6
CONTINUOUS
10
5.16495
20
-2.50883
11
5.15889
21
-2.51356
0
LINE
8
BLACK
6
CONTINUOUS
10
5.15889
20
-2.51356
11
5.15203
21
-2.51702
0
LINE
8
BLACK
6
CONTINUOUS
10
5.15203
20
-2.51702
11
5.14463
21
-2.51909
0
LINE
8
BLACK
6
CONTINUOUS
10
5.14463
20
-2.51909
11
5.13697
21
-2.51968
0
LINE
8
BLACK
6
CONTINUOUS
10
5.13697
20
-2.51968
11
5.12934
21
-2.51877
0
LINE
8
BLACK
6
CONTINUOUS
10
5.12934
20
-2.51877
11
5.12203
21
-2.51639
0
LINE
8
BLACK
6
CONTINUOUS
10
5.12203
20
-2.51639
11
5.11533
21
-2.51264
0
LINE
8
BLACK
6
CONTINUOUS
10
5.11533
20
-2.51264
11
5.10947
21
-2.50766
0
LINE
8
BLACK
6
CONTINUOUS
10
5.10947
20
-2.50766
11
5.1047
21
-2.50164
0
LINE
8
BLACK
6
CONTINUOUS
10
5.1047
20
-2.50164
11
5.10119
21
-2.49481
0
LINE
8
BLACK
6
CONTINUOUS
10
5.10119
20
-2.49481
11
5.09907
21
-2.48742
0
LINE
8
BLACK
6
CONTINUOUS
10
5.09907
20
-2.48742
11
5.09843
21
-2.47977
0
LINE
8
BLACK
6
CONTINUOUS
10
5.09843
20
-2.47977
11
5.09929
21
-2.47213
0
LINE
8
BLACK
6
CONTINUOUS
10
5.09929
20
-2.47213
11
5.10161
21
-2.46481
0
LINE
8
BLACK
6
CONTINUOUS
10
5.10161
20
-2.46481
11
5.10531
21
-2.45807
0
LINE
8
BLACK
6
CONTINUOUS
10
5.10531
20
-2.45807
11
5.11025
21
-2.45219
0
LINE
8
BLACK
6
CONTINUOUS
10
5.11025
20
-2.45219
11
5.11624
21
-2.44737
0
LINE
8
BLACK
6
CONTINUOUS
10
5.11624
20
-2.44737
11
5.12305
21
-2.44381
0
LINE
8
BLACK
6
CONTINUOUS
10
5.12305
20
-2.44381
11
5.13042
21
-2.44164
0
LINE
8
BLACK
6
CONTINUOUS
10
5.13042
20
-2.44164
11
5.13807
21
-2.44095
0
LINE
8
BLACK
6
CONTINUOUS
10
5.13807
20
-2.44095
11
5.14571
21
-2.44175
0
LINE
8
BLACK
6
CONTINUOUS
10
5.89374
20
-2.44175
11
5.90108
21
-2.44402
0
LINE
8
BLACK
6
CONTINUOUS
10
5.90108
20
-2.44402
11
5.90784
21
-2.44768
0
LINE
8
BLACK
6
CONTINUOUS
10
5.90784
20
-2.44768
11
5.91376
21
-2.45257
0
LINE
8
BLACK
6
CONTINUOUS
10
5.91376
20
-2.45257
11
5.91862
21
-2.45853
0
LINE
8
BLACK
6
CONTINUOUS
10
5.91862
20
-2.45853
11
5.92223
21
-2.46531
0
LINE
8
BLACK
6
CONTINUOUS
10
5.92223
20
-2.46531
11
5.92445
21
-2.47267
0
LINE
8
BLACK
6
CONTINUOUS
10
5.92445
20
-2.47267
11
5.9252
21
-2.48031
0
LINE
8
BLACK
6
CONTINUOUS
10
5.9252
20
-2.48031
11
5.92518
21
-2.48141
0
LINE
8
BLACK
6
CONTINUOUS
10
5.92518
20
-2.48141
11
5.92422
21
-2.48904
0
LINE
8
BLACK
6
CONTINUOUS
10
5.92422
20
-2.48904
11
5.92179
21
-2.49633
0
LINE
8
BLACK
6
CONTINUOUS
10
5.92179
20
-2.49633
11
5.918
21
-2.50301
0
LINE
8
BLACK
6
CONTINUOUS
10
5.918
20
-2.50301
11
5.91298
21
-2.50883
0
LINE
8
BLACK
6
CONTINUOUS
10
5.91298
20
-2.50883
11
5.90692
21
-2.51356
0
LINE
8
BLACK
6
CONTINUOUS
10
5.90692
20
-2.51356
11
5.90006
21
-2.51702
0
LINE
8
BLACK
6
CONTINUOUS
10
5.90006
20
-2.51702
11
5.89266
21
-2.51909
0
LINE
8
BLACK
6
CONTINUOUS
10
5.89266
20
-2.51909
11
5.885
21
-2.51968
0
LINE
8
BLACK
6
CONTINUOUS
10
5.885
20
-2.51968
11
5.87737
21
-2.51877
0
LINE
8
BLACK
6
CONTINUOUS
10
5.87737
20
-2.51877
11
5.87007
21
-2.51639
0
LINE
8
BLACK
6
CONTINUOUS
10
5.87007
20
-2.51639
11
5.86336
21
-2.51264
0
LINE
8
BLACK
6
CONTINUOUS
10
5.86336
20
-2.51264
11
5.85751
21
-2.50766
0
LINE
8
BLACK
6
CONTINUOUS
10
5.85751
20
-2.50766
11
5.85273
21
-2.50164
0
LINE
8
BLACK
6
CONTINUOUS
10
5.85273
20
-2.50164
11
5.84922
21
-2.49481
0
LINE
8
BLACK
6
CONTINUOUS
10
5.84922
20
-2.49481
11
5.8471
21
-2.48742
0
LINE
8
BLACK
6
CONTINUOUS
10
5.8471
20
-2.48742
11
5.84646
21
-2.47977
0
LINE
8
BLACK
6
CONTINUOUS
10
5.84646
20
-2.47977
11
5.84732
21
-2.47213
0
LINE
8
BLACK
6
CONTINUOUS
10
5.84732
20
-2.47213
11
5.84964
21
-2.46481
0
LINE
8
BLACK
6
CONTINUOUS
10
5.84964
20
-2.46481
11
5.85334
21
-2.45807
0
LINE
8
BLACK
6
CONTINUOUS
10
5.85334
20
-2.45807
11
5.85828
21
-2.45219
0
LINE
8
BLACK
6
CONTINUOUS
10
5.85828
20
-2.45219
11
5.86427
21
-2.44737
0
LINE
8
BLACK
6
CONTINUOUS
10
5.86427
20
-2.44737
11
5.87108
21
-2.44381
0
LINE
8
BLACK
6
CONTINUOUS
10
5.87108
20
-2.44381
11
5.87845
21
-2.44164
0
LINE
8
BLACK
6
CONTINUOUS
10
5.87845
20
-2.44164
11
5.8861
21
-2.44095
0
LINE
8
BLACK
6
CONTINUOUS
10
5.8861
20
-2.44095
11
5.89374
21
-2.44175
0
LINE
8
BLACK
6
CONTINUOUS
10
5.27455
20
-2.36298
11
5.27894
21
-2.36521
0
LINE
8
BLACK
6
CONTINUOUS
10
5.27894
20
-2.36521
11
5.28243
21
-2.3687
0
LINE
8
BLACK
6
CONTINUOUS
10
5.28243
20
-2.3687
11
5.28466
21
-2.37309
0
LINE
8
BLACK
6
CONTINUOUS
10
5.28466
20
-2.37309
11
5.28543
21
-2.37795
0
LINE
8
BLACK
6
CONTINUOUS
10
5.28543
20
-2.37795
11
5.28466
21
-2.38282
0
LINE
8
BLACK
6
CONTINUOUS
10
5.28466
20
-2.38282
11
5.28243
21
-2.38721
0
LINE
8
BLACK
6
CONTINUOUS
10
5.28243
20
-2.38721
11
5.27894
21
-2.39069
0
LINE
8
BLACK
6
CONTINUOUS
10
5.27894
20
-2.39069
11
5.27455
21
-2.39293
0
LINE
8
BLACK
6
CONTINUOUS
10
5.27455
20
-2.39293
11
5.26969
21
-2.3937
0
LINE
8
BLACK
6
CONTINUOUS
10
5.26969
20
-2.3937
11
5.26482
21
-2.39293
0
LINE
8
BLACK
6
CONTINUOUS
10
5.26482
20
-2.39293
11
5.26043
21
-2.39069
0
LINE
8
BLACK
6
CONTINUOUS
10
5.26043
20
-2.39069
11
5.25694
21
-2.38721
0
LINE
8
BLACK
6
CONTINUOUS
10
5.25694
20
-2.38721
11
5.25471
21
-2.38282
0
LINE
8
BLACK
6
CONTINUOUS
10
5.25471
20
-2.38282
11
5.25394
21
-2.37795
0
LINE
8
BLACK
6
CONTINUOUS
10
5.25394
20
-2.37795
11
5.25471
21
-2.37309
0
LINE
8
BLACK
6
CONTINUOUS
10
5.25471
20
-2.37309
11
5.25694
21
-2.3687
0
LINE
8
BLACK
6
CONTINUOUS
10
5.25694
20
-2.3687
11
5.26043
21
-2.36521
0
LINE
8
BLACK
6
CONTINUOUS
10
5.26043
20
-2.36521
11
5.26482
21
-2.36298
0
LINE
8
BLACK
6
CONTINUOUS
10
5.26482
20
-2.36298
11
5.26969
21
-2.3622
0
LINE
8
BLACK
6
CONTINUOUS
10
5.26969
20
-2.3622
11
5.27455
21
-2.36298
0
LINE
8
BLACK
6
CONTINUOUS
10
5.51973
20
-2.22521
11
5.52707
21
-2.22749
0
LINE
8
BLACK
6
CONTINUOUS
10
5.52707
20
-2.22749
11
5.53383
21
-2.23114
0
LINE
8
BLACK
6
CONTINUOUS
10
5.53383
20
-2.23114
11
5.53975
21
-2.23604
0
LINE
8
BLACK
6
CONTINUOUS
10
5.53975
20
-2.23604
11
5.5446
21
-2.24199
0
LINE
8
BLACK
6
CONTINUOUS
10
5.5446
20
-2.24199
11
5.54821
21
-2.24878
0
LINE
8
BLACK
6
CONTINUOUS
10
5.54821
20
-2.24878
11
5.55043
21
-2.25613
0
LINE
8
BLACK
6
CONTINUOUS
10
5.55043
20
-2.25613
11
5.55118
21
-2.26378
0
LINE
8
BLACK
6
CONTINUOUS
10
5.55118
20
-2.26378
11
5.55117
21
-2.26488
0
LINE
8
BLACK
6
CONTINUOUS
10
5.55117
20
-2.26488
11
5.5502
21
-2.2725
0
LINE
8
BLACK
6
CONTINUOUS
10
5.5502
20
-2.2725
11
5.54778
21
-2.27979
0
LINE
8
BLACK
6
CONTINUOUS
10
5.54778
20
-2.27979
11
5.54398
21
-2.28647
0
LINE
8
BLACK
6
CONTINUOUS
10
5.54398
20
-2.28647
11
5.53896
21
-2.29229
0
LINE
8
BLACK
6
CONTINUOUS
10
5.53896
20
-2.29229
11
5.53291
21
-2.29702
0
LINE
8
BLACK
6
CONTINUOUS
10
5.53291
20
-2.29702
11
5.52605
21
-2.30049
0
LINE
8
BLACK
6
CONTINUOUS
10
5.52605
20
-2.30049
11
5.51865
21
-2.30255
0
LINE
8
BLACK
6
CONTINUOUS
10
5.51865
20
-2.30255
11
5.51099
21
-2.30314
0
LINE
8
BLACK
6
CONTINUOUS
10
5.51099
20
-2.30314
11
5.50336
21
-2.30223
0
LINE
8
BLACK
6
CONTINUOUS
10
5.50336
20
-2.30223
11
5.49605
21
-2.29986
0
LINE
8
BLACK
6
CONTINUOUS
10
5.49605
20
-2.29986
11
5.48934
21
-2.29611
0
LINE
8
BLACK
6
CONTINUOUS
10
5.48934
20
-2.29611
11
5.48349
21
-2.29113
0
LINE
8
BLACK
6
CONTINUOUS
10
5.48349
20
-2.29113
11
5.47872
21
-2.28511
0
LINE
8
BLACK
6
CONTINUOUS
10
5.47872
20
-2.28511
11
5.47521
21
-2.27827
0
LINE
8
BLACK
6
CONTINUOUS
10
5.47521
20
-2.27827
11
5.47309
21
-2.27089
0
LINE
8
BLACK
6
CONTINUOUS
10
5.47309
20
-2.27089
11
5.47244
21
-2.26323
0
LINE
8
BLACK
6
CONTINUOUS
10
5.47244
20
-2.26323
11
5.4733
21
-2.25559
0
LINE
8
BLACK
6
CONTINUOUS
10
5.4733
20
-2.25559
11
5.47562
21
-2.24827
0
LINE
8
BLACK
6
CONTINUOUS
10
5.47562
20
-2.24827
11
5.47933
21
-2.24154
0
LINE
8
BLACK
6
CONTINUOUS
10
5.47933
20
-2.24154
11
5.48427
21
-2.23565
0
LINE
8
BLACK
6
CONTINUOUS
10
5.48427
20
-2.23565
11
5.49025
21
-2.23084
0
LINE
8
BLACK
6
CONTINUOUS
10
5.49025
20
-2.23084
11
5.49706
21
-2.22728
0
LINE
8
BLACK
6
CONTINUOUS
10
5.49706
20
-2.22728
11
5.50443
21
-2.22511
0
LINE
8
BLACK
6
CONTINUOUS
10
5.50443
20
-2.22511
11
5.51209
21
-2.22441
0
LINE
8
BLACK
6
CONTINUOUS
10
5.51209
20
-2.22441
11
5.51973
21
-2.22521
0
LINE
8
BLACK
6
CONTINUOUS
10
5.27455
20
-2.26849
11
5.27894
21
-2.27072
0
LINE
8
BLACK
6
CONTINUOUS
10
5.27894
20
-2.27072
11
5.28243
21
-2.27421
0
LINE
8
BLACK
6
CONTINUOUS
10
5.28243
20
-2.27421
11
5.28466
21
-2.2786
0
LINE
8
BLACK
6
CONTINUOUS
10
5.28466
20
-2.2786
11
5.28543
21
-2.28346
0
LINE
8
BLACK
6
CONTINUOUS
10
5.28543
20
-2.28346
11
5.28466
21
-2.28833
0
LINE
8
BLACK
6
CONTINUOUS
10
5.28466
20
-2.28833
11
5.28243
21
-2.29272
0
LINE
8
BLACK
6
CONTINUOUS
10
5.28243
20
-2.29272
11
5.27894
21
-2.29621
0
LINE
8
BLACK
6
CONTINUOUS
10
5.27894
20
-2.29621
11
5.27455
21
-2.29844
0
LINE
8
BLACK
6
CONTINUOUS
10
5.27455
20
-2.29844
11
5.26969
21
-2.29921
0
LINE
8
BLACK
6
CONTINUOUS
10
5.26969
20
-2.29921
11
5.26482
21
-2.29844
0
LINE
8
BLACK
6
CONTINUOUS
10
5.26482
20
-2.29844
11
5.26043
21
-2.29621
0
LINE
8
BLACK
6
CONTINUOUS
10
5.26043
20
-2.29621
11
5.25694
21
-2.29272
0
LINE
8
BLACK
6
CONTINUOUS
10
5.25694
20
-2.29272
11
5.25471
21
-2.28833
0
LINE
8
BLACK
6
CONTINUOUS
10
5.25471
20
-2.28833
11
5.25394
21
-2.28346
0
LINE
8
BLACK
6
CONTINUOUS
10
5.25394
20
-2.28346
11
5.25471
21
-2.2786
0
LINE
8
BLACK
6
CONTINUOUS
10
5.25471
20
-2.2786
11
5.25694
21
-2.27421
0
LINE
8
BLACK
6
CONTINUOUS
10
5.25694
20
-2.27421
11
5.26043
21
-2.27072
0
LINE
8
BLACK
6
CONTINUOUS
10
5.26043
20
-2.27072
11
5.26482
21
-2.26849
0
LINE
8
BLACK
6
CONTINUOUS
10
5.26482
20
-2.26849
11
5.26969
21
-2.26772
0
LINE
8
BLACK
6
CONTINUOUS
10
5.26969
20
-2.26772
11
5.27455
21
-2.26849
0
LINE
8
BLACK
6
CONTINUOUS
10
5.31195
20
-2.13463
11
5.31634
21
-2.13687
0
LINE
8
BLACK
6
CONTINUOUS
10
5.31634
20
-2.13687
11
5.31983
21
-2.14035
0
LINE
8
BLACK
6
CONTINUOUS
10
5.31983
20
-2.14035
11
5.32206
21
-2.14474
0
LINE
8
BLACK
6
CONTINUOUS
10
5.32206
20
-2.14474
11
5.32283
21
-2.14961
0
LINE
8
BLACK
6
CONTINUOUS
10
5.32283
20
-2.14961
11
5.32206
21
-2.15447
0
LINE
8
BLACK
6
CONTINUOUS
10
5.32206
20
-2.15447
11
5.31983
21
-2.15886
0
LINE
8
BLACK
6
CONTINUOUS
10
5.31983
20
-2.15886
11
5.31634
21
-2.16235
0
LINE
8
BLACK
6
CONTINUOUS
10
5.31634
20
-2.16235
11
5.31195
21
-2.16458
0
LINE
8
BLACK
6
CONTINUOUS
10
5.31195
20
-2.16458
11
5.30709
21
-2.16535
0
LINE
8
BLACK
6
CONTINUOUS
10
5.30709
20
-2.16535
11
5.30222
21
-2.16458
0
LINE
8
BLACK
6
CONTINUOUS
10
5.30222
20
-2.16458
11
5.29783
21
-2.16235
0
LINE
8
BLACK
6
CONTINUOUS
10
5.29783
20
-2.16235
11
5.29435
21
-2.15886
0
LINE
8
BLACK
6
CONTINUOUS
10
5.29435
20
-2.15886
11
5.29211
21
-2.15447
0
LINE
8
BLACK
6
CONTINUOUS
10
5.29211
20
-2.15447
11
5.29134
21
-2.14961
0
LINE
8
BLACK
6
CONTINUOUS
10
5.29134
20
-2.14961
11
5.29211
21
-2.14474
0
LINE
8
BLACK
6
CONTINUOUS
10
5.29211
20
-2.14474
11
5.29435
21
-2.14035
0
LINE
8
BLACK
6
CONTINUOUS
10
5.29435
20
-2.14035
11
5.29783
21
-2.13687
0
LINE
8
BLACK
6
CONTINUOUS
10
5.29783
20
-2.13687
11
5.30222
21
-2.13463
0
LINE
8
BLACK
6
CONTINUOUS
10
5.30222
20
-2.13463
11
5.30709
21
-2.13386
0
LINE
8
BLACK
6
CONTINUOUS
10
5.30709
20
-2.13386
11
5.31195
21
-2.13463
0
LINE
8
BLACK
6
CONTINUOUS
10
5.32376
20
-2.07164
11
5.32815
21
-2.07387
0
LINE
8
BLACK
6
CONTINUOUS
10
5.32815
20
-2.07387
11
5.33164
21
-2.07736
0
LINE
8
BLACK
6
CONTINUOUS
10
5.33164
20
-2.07736
11
5.33387
21
-2.08175
0
LINE
8
BLACK
6
CONTINUOUS
10
5.33387
20
-2.08175
11
5.33465
21
-2.08661
0
LINE
8
BLACK
6
CONTINUOUS
10
5.33465
20
-2.08661
11
5.33387
21
-2.09148
0
LINE
8
BLACK
6
CONTINUOUS
10
5.33387
20
-2.09148
11
5.33164
21
-2.09587
0
LINE
8
BLACK
6
CONTINUOUS
10
5.33164
20
-2.09587
11
5.32815
21
-2.09935
0
LINE
8
BLACK
6
CONTINUOUS
10
5.32815
20
-2.09935
11
5.32376
21
-2.10159
0
LINE
8
BLACK
6
CONTINUOUS
10
5.32376
20
-2.10159
11
5.3189
21
-2.10236
0
LINE
8
BLACK
6
CONTINUOUS
10
5.3189
20
-2.10236
11
5.31403
21
-2.10159
0
LINE
8
BLACK
6
CONTINUOUS
10
5.31403
20
-2.10159
11
5.30964
21
-2.09935
0
LINE
8
BLACK
6
CONTINUOUS
10
5.30964
20
-2.09935
11
5.30616
21
-2.09587
0
LINE
8
BLACK
6
CONTINUOUS
10
5.30616
20
-2.09587
11
5.30392
21
-2.09148
0
LINE
8
BLACK
6
CONTINUOUS
10
5.30392
20
-2.09148
11
5.30315
21
-2.08661
0
LINE
8
BLACK
6
CONTINUOUS
10
5.30315
20
-2.08661
11
5.30392
21
-2.08175
0
LINE
8
BLACK
6
CONTINUOUS
10
5.30392
20
-2.08175
11
5.30616
21
-2.07736
0
LINE
8
BLACK
6
CONTINUOUS
10
5.30616
20
-2.07736
11
5.30964
21
-2.07387
0
LINE
8
BLACK
6
CONTINUOUS
10
5.30964
20
-2.07387
11
5.31403
21
-2.07164
0
LINE
8
BLACK
6
CONTINUOUS
10
5.31403
20
-2.07164
11
5.3189
21
-2.07087
0
LINE
8
BLACK
6
CONTINUOUS
10
5.3189
20
-2.07087
11
5.32376
21
-2.07164
0
LINE
8
BLACK
6
CONTINUOUS
10
5.47731
20
-1.97518
11
5.4817
21
-1.97742
0
LINE
8
BLACK
6
CONTINUOUS
10
5.4817
20
-1.97742
11
5.48518
21
-1.9809
0
LINE
8
BLACK
6
CONTINUOUS
10
5.48518
20
-1.9809
11
5.48742
21
-1.98529
0
LINE
8
BLACK
6
CONTINUOUS
10
5.48742
20
-1.98529
11
5.48819
21
-1.99016
0
LINE
8
BLACK
6
CONTINUOUS
10
5.48819
20
-1.99016
11
5.48742
21
-1.99502
0
LINE
8
BLACK
6
CONTINUOUS
10
5.48742
20
-1.99502
11
5.48518
21
-1.99941
0
LINE
8
BLACK
6
CONTINUOUS
10
5.48518
20
-1.99941
11
5.4817
21
-2.0029
0
LINE
8
BLACK
6
CONTINUOUS
10
5.4817
20
-2.0029
11
5.47731
21
-2.00513
0
LINE
8
BLACK
6
CONTINUOUS
10
5.47731
20
-2.00513
11
5.47244
21
-2.00591
0
LINE
8
BLACK
6
CONTINUOUS
10
5.47244
20
-2.00591
11
5.46757
21
-2.00513
0
LINE
8
BLACK
6
CONTINUOUS
10
5.46757
20
-2.00513
11
5.46318
21
-2.0029
0
LINE
8
BLACK
6
CONTINUOUS
10
5.46318
20
-2.0029
11
5.4597
21
-1.99941
0
LINE
8
BLACK
6
CONTINUOUS
10
5.4597
20
-1.99941
11
5.45746
21
-1.99502
0
LINE
8
BLACK
6
CONTINUOUS
10
5.45746
20
-1.99502
11
5.45669
21
-1.99016
0
LINE
8
BLACK
6
CONTINUOUS
10
5.45669
20
-1.99016
11
5.45746
21
-1.98529
0
LINE
8
BLACK
6
CONTINUOUS
10
5.45746
20
-1.98529
11
5.4597
21
-1.9809
0
LINE
8
BLACK
6
CONTINUOUS
10
5.4597
20
-1.9809
11
5.46318
21
-1.97742
0
LINE
8
BLACK
6
CONTINUOUS
10
5.46318
20
-1.97742
11
5.46757
21
-1.97518
0
LINE
8
BLACK
6
CONTINUOUS
10
5.46757
20
-1.97518
11
5.47244
21
-1.97441
0
LINE
8
BLACK
6
CONTINUOUS
10
5.47244
20
-1.97441
11
5.47731
21
-1.97518
0
CIRCLE
8
BLACK
10
5.26969
20
-2.28346
40
0.00787402
0
CIRCLE
8
BLACK
10
6.43701
20
-3.43701
40
0.0075
0
CIRCLE
8
BLACK
10
6.40551
20
-3.37795
40
0.0075
0
CIRCLE
8
BLACK
10
6.46654
20
-3.21457
40
0.0075
0
CIRCLE
8
BLACK
10
6.41732
20
-3.25394
40
0.0075
0
CIRCLE
8
BLACK
10
5.67913
20
-3.79528
40
0.00787402
0
CIRCLE
8
BLACK
10
5.22441
20
-3.42323
40
0.00787402
0
CIRCLE
8
BLACK
10
5.3189
20
-2.08661
40
0.00787402
0
CIRCLE
8
BLACK
10
5.30709
20
-2.14961
40
0.00787402
0
CIRCLE
8
BLACK
10
5.2874
20
-4.02362
40
0.00787402
0
CIRCLE
8
BLACK
10
5.47244
20
-1.99016
40
0.00787402
0
CIRCLE
8
BLACK
10
5.67913
20
-3.56102
40
0.00787402
0
CIRCLE
8
BLACK
10
5.42126
20
-2.93307
40
0.00787402
0
CIRCLE
8
BLACK
10
5.26969
20
-2.37795
40
0.00787402
0
CIRCLE
8
BLACK
10
4.9311
20
-3.15945
40
0.00787402
0
CIRCLE
8
BLACK
10
4.9311
20
-3.07087
40
0.00787402
0
CIRCLE
8
BLACK
10
6.10039
20
-3.00394
40
0.00787402
0
CIRCLE
8
BLACK
10
6.14764
20
-3.05118
40
0.00787402
0
CIRCLE
8
BLACK
10
4.86811
20
-3.05118
40
0.00787402
0
CIRCLE
8
BLACK
10
5.32992
20
-3.82402
40
0.00787402
0
CIRCLE
8
BLACK
10
4.91097
20
-3.01029
40
0.00787402
0
CIRCLE
8
BLACK
10
6.10236
20
-3.14567
40
0.00787402
0
CIRCLE
8
BLACK
10
5.38386
20
-3.87795
40
0.00787402
0
CIRCLE
8
BLACK
10
6.10236
20
-3.05118
40
0.00787402
  0
ENDSEC
  0
EOF
