  0
SECTION
  2
HEADER
  9
$ANGBASE
  50
0.0
  9
$ANGDIR
  70
1
  9
$MEASUREMENT
  70
0
  0
ENDSEC
  0
SECTION
  2
TABLES
  0
TABLE
  2
LTYPE
  70
4
  0
LTYPE
  5
40F
  2
CONTINUOUS
  70
0
  3
Solid line
  72
65
  73
0
  40
0.0
  0
LTYPE
  5
410
  2
DASHDOT
 70
0
  3
Dash Dot ____ _ ____ _
 72
65
 73
4
 40
2.0
 49
1.25
 49
-0.25
 49
0.25
 49
-0.25
  0
LTYPE
  5
411
  2
DASHED
 70
0
  3
Dashed __ __ __ __ __
 72
65
 73
2
 40
0.75
 49
0.5
 49
-0.25
  0
LTYPE
  5
43B
  2
DOTTED
 70
0
  3
Dotted .  .  .  .
 72
65
 73
2
 40
0.2
 49
0.0
 49
-0.2
  0
ENDTAB
  0
TABLE
  2
STYLE
  70
4
  0
STYLE
  2
KICAD
  70
0
  40
0
  41
1
  42
1
  50
0
  71
0
  3
isocp.shx
  0
STYLE
  2
KICADB
  70
0
  40
0
  41
1
  42
1
  50
0
  71
0
  3
isocp.shx
  0
STYLE
  2
KICADI
  70
0
  40
0
  41
1
  42
1
  50
15
  71
0
  3
isocp.shx
  0
STYLE
  2
KICADBI
  70
0
  40
0
  41
1
  42
1
  50
15
  71
0
  3
isocp.shx
  0
ENDTAB
  0
TABLE
  2
LAYER
  70
1
  0
LAYER
  2
BLACK
  70
0
  62
7
  6
CONTINUOUS
  0
ENDTAB
  0
ENDSEC
  0
SECTION
  2
ENTITIES
0
LINE
8
BLACK
6
CONTINUOUS
10
5.37581
20
-3.98894
11
5.37901
21
-3.99107
0
LINE
8
BLACK
6
CONTINUOUS
10
5.37901
20
-3.99107
11
5.38114
21
-3.99426
0
LINE
8
BLACK
6
CONTINUOUS
10
5.38114
20
-3.99426
11
5.38189
21
-3.99803
0
LINE
8
BLACK
6
CONTINUOUS
10
5.38189
20
-3.99803
11
5.38189
21
-4.0187
0
LINE
8
BLACK
6
CONTINUOUS
10
5.38189
20
-4.0187
11
5.38114
21
-4.02247
0
LINE
8
BLACK
6
CONTINUOUS
10
5.38114
20
-4.02247
11
5.37901
21
-4.02566
0
LINE
8
BLACK
6
CONTINUOUS
10
5.37901
20
-4.02566
11
5.37581
21
-4.02779
0
LINE
8
BLACK
6
CONTINUOUS
10
5.37581
20
-4.02779
11
5.37205
21
-4.02854
0
LINE
8
BLACK
6
CONTINUOUS
10
5.37205
20
-4.02854
11
5.33661
21
-4.02854
0
LINE
8
BLACK
6
CONTINUOUS
10
5.33661
20
-4.02854
11
5.33285
21
-4.02779
0
LINE
8
BLACK
6
CONTINUOUS
10
5.33285
20
-4.02779
11
5.32965
21
-4.02566
0
LINE
8
BLACK
6
CONTINUOUS
10
5.32965
20
-4.02566
11
5.32752
21
-4.02247
0
LINE
8
BLACK
6
CONTINUOUS
10
5.32752
20
-4.02247
11
5.32677
21
-4.0187
0
LINE
8
BLACK
6
CONTINUOUS
10
5.32677
20
-4.0187
11
5.32677
21
-3.99803
0
LINE
8
BLACK
6
CONTINUOUS
10
5.32677
20
-3.99803
11
5.32752
21
-3.99426
0
LINE
8
BLACK
6
CONTINUOUS
10
5.32752
20
-3.99426
11
5.32965
21
-3.99107
0
LINE
8
BLACK
6
CONTINUOUS
10
5.32965
20
-3.99107
11
5.33285
21
-3.98894
0
LINE
8
BLACK
6
CONTINUOUS
10
5.33285
20
-3.98894
11
5.33661
21
-3.98819
0
LINE
8
BLACK
6
CONTINUOUS
10
5.33661
20
-3.98819
11
5.37205
21
-3.98819
0
LINE
8
BLACK
6
CONTINUOUS
10
5.37205
20
-3.98819
11
5.37581
21
-3.98894
0
LINE
8
BLACK
6
CONTINUOUS
10
5.28723
20
-3.96925
11
5.29042
21
-3.97139
0
LINE
8
BLACK
6
CONTINUOUS
10
5.29042
20
-3.97139
11
5.29256
21
-3.97458
0
LINE
8
BLACK
6
CONTINUOUS
10
5.29256
20
-3.97458
11
5.29331
21
-3.97835
0
LINE
8
BLACK
6
CONTINUOUS
10
5.29331
20
-3.97835
11
5.29331
21
-3.99902
0
LINE
8
BLACK
6
CONTINUOUS
10
5.29331
20
-3.99902
11
5.29256
21
-4.00278
0
LINE
8
BLACK
6
CONTINUOUS
10
5.29256
20
-4.00278
11
5.29042
21
-4.00598
0
LINE
8
BLACK
6
CONTINUOUS
10
5.29042
20
-4.00598
11
5.28723
21
-4.00811
0
LINE
8
BLACK
6
CONTINUOUS
10
5.28723
20
-4.00811
11
5.28346
21
-4.00886
0
LINE
8
BLACK
6
CONTINUOUS
10
5.28346
20
-4.00886
11
5.24803
21
-4.00886
0
LINE
8
BLACK
6
CONTINUOUS
10
5.24803
20
-4.00886
11
5.24426
21
-4.00811
0
LINE
8
BLACK
6
CONTINUOUS
10
5.24426
20
-4.00811
11
5.24107
21
-4.00598
0
LINE
8
BLACK
6
CONTINUOUS
10
5.24107
20
-4.00598
11
5.23894
21
-4.00278
0
LINE
8
BLACK
6
CONTINUOUS
10
5.23894
20
-4.00278
11
5.23819
21
-3.99902
0
LINE
8
BLACK
6
CONTINUOUS
10
5.23819
20
-3.99902
11
5.23819
21
-3.97835
0
LINE
8
BLACK
6
CONTINUOUS
10
5.23819
20
-3.97835
11
5.23894
21
-3.97458
0
LINE
8
BLACK
6
CONTINUOUS
10
5.23894
20
-3.97458
11
5.24107
21
-3.97139
0
LINE
8
BLACK
6
CONTINUOUS
10
5.24107
20
-3.97139
11
5.24426
21
-3.96925
0
LINE
8
BLACK
6
CONTINUOUS
10
5.24426
20
-3.96925
11
5.24803
21
-3.9685
0
LINE
8
BLACK
6
CONTINUOUS
10
5.24803
20
-3.9685
11
5.28346
21
-3.9685
0
LINE
8
BLACK
6
CONTINUOUS
10
5.28346
20
-3.9685
11
5.28723
21
-3.96925
0
LINE
8
BLACK
6
CONTINUOUS
10
5.37581
20
-3.91709
11
5.37901
21
-3.91922
0
LINE
8
BLACK
6
CONTINUOUS
10
5.37901
20
-3.91922
11
5.38114
21
-3.92241
0
LINE
8
BLACK
6
CONTINUOUS
10
5.38114
20
-3.92241
11
5.38189
21
-3.92618
0
LINE
8
BLACK
6
CONTINUOUS
10
5.38189
20
-3.92618
11
5.38189
21
-3.94685
0
LINE
8
BLACK
6
CONTINUOUS
10
5.38189
20
-3.94685
11
5.38114
21
-3.95062
0
LINE
8
BLACK
6
CONTINUOUS
10
5.38114
20
-3.95062
11
5.37901
21
-3.95381
0
LINE
8
BLACK
6
CONTINUOUS
10
5.37901
20
-3.95381
11
5.37581
21
-3.95594
0
LINE
8
BLACK
6
CONTINUOUS
10
5.37581
20
-3.95594
11
5.37205
21
-3.95669
0
LINE
8
BLACK
6
CONTINUOUS
10
5.37205
20
-3.95669
11
5.33661
21
-3.95669
0
LINE
8
BLACK
6
CONTINUOUS
10
5.33661
20
-3.95669
11
5.33285
21
-3.95594
0
LINE
8
BLACK
6
CONTINUOUS
10
5.33285
20
-3.95594
11
5.32965
21
-3.95381
0
LINE
8
BLACK
6
CONTINUOUS
10
5.32965
20
-3.95381
11
5.32752
21
-3.95062
0
LINE
8
BLACK
6
CONTINUOUS
10
5.32752
20
-3.95062
11
5.32677
21
-3.94685
0
LINE
8
BLACK
6
CONTINUOUS
10
5.32677
20
-3.94685
11
5.32677
21
-3.92618
0
LINE
8
BLACK
6
CONTINUOUS
10
5.32677
20
-3.92618
11
5.32752
21
-3.92241
0
LINE
8
BLACK
6
CONTINUOUS
10
5.32752
20
-3.92241
11
5.32965
21
-3.91922
0
LINE
8
BLACK
6
CONTINUOUS
10
5.32965
20
-3.91922
11
5.33285
21
-3.91709
0
LINE
8
BLACK
6
CONTINUOUS
10
5.33285
20
-3.91709
11
5.33661
21
-3.91634
0
LINE
8
BLACK
6
CONTINUOUS
10
5.33661
20
-3.91634
11
5.37205
21
-3.91634
0
LINE
8
BLACK
6
CONTINUOUS
10
5.37205
20
-3.91634
11
5.37581
21
-3.91709
0
LINE
8
BLACK
6
CONTINUOUS
10
5.28723
20
-3.8974
11
5.29042
21
-3.89954
0
LINE
8
BLACK
6
CONTINUOUS
10
5.29042
20
-3.89954
11
5.29256
21
-3.90273
0
LINE
8
BLACK
6
CONTINUOUS
10
5.29256
20
-3.90273
11
5.29331
21
-3.9065
0
LINE
8
BLACK
6
CONTINUOUS
10
5.29331
20
-3.9065
11
5.29331
21
-3.92717
0
LINE
8
BLACK
6
CONTINUOUS
10
5.29331
20
-3.92717
11
5.29256
21
-3.93093
0
LINE
8
BLACK
6
CONTINUOUS
10
5.29256
20
-3.93093
11
5.29042
21
-3.93413
0
LINE
8
BLACK
6
CONTINUOUS
10
5.29042
20
-3.93413
11
5.28723
21
-3.93626
0
LINE
8
BLACK
6
CONTINUOUS
10
5.28723
20
-3.93626
11
5.28346
21
-3.93701
0
LINE
8
BLACK
6
CONTINUOUS
10
5.28346
20
-3.93701
11
5.24803
21
-3.93701
0
LINE
8
BLACK
6
CONTINUOUS
10
5.24803
20
-3.93701
11
5.24426
21
-3.93626
0
LINE
8
BLACK
6
CONTINUOUS
10
5.24426
20
-3.93626
11
5.24107
21
-3.93413
0
LINE
8
BLACK
6
CONTINUOUS
10
5.24107
20
-3.93413
11
5.23894
21
-3.93093
0
LINE
8
BLACK
6
CONTINUOUS
10
5.23894
20
-3.93093
11
5.23819
21
-3.92717
0
LINE
8
BLACK
6
CONTINUOUS
10
5.23819
20
-3.92717
11
5.23819
21
-3.9065
0
LINE
8
BLACK
6
CONTINUOUS
10
5.23819
20
-3.9065
11
5.23894
21
-3.90273
0
LINE
8
BLACK
6
CONTINUOUS
10
5.23894
20
-3.90273
11
5.24107
21
-3.89954
0
LINE
8
BLACK
6
CONTINUOUS
10
5.24107
20
-3.89954
11
5.24426
21
-3.8974
0
LINE
8
BLACK
6
CONTINUOUS
10
5.24426
20
-3.8974
11
5.24803
21
-3.89665
0
LINE
8
BLACK
6
CONTINUOUS
10
5.24803
20
-3.89665
11
5.28346
21
-3.89665
0
LINE
8
BLACK
6
CONTINUOUS
10
5.28346
20
-3.89665
11
5.28723
21
-3.8974
0
LINE
8
BLACK
6
CONTINUOUS
10
4.92237
20
-3.73627
11
4.9326
21
-3.74218
0
LINE
8
BLACK
6
CONTINUOUS
10
4.9326
20
-3.74218
11
4.93433
21
-3.7437
0
LINE
8
BLACK
6
CONTINUOUS
10
4.93433
20
-3.7437
11
4.93535
21
-3.74576
0
LINE
8
BLACK
6
CONTINUOUS
10
4.93535
20
-3.74576
11
4.9355
21
-3.74806
0
LINE
8
BLACK
6
CONTINUOUS
10
4.9355
20
-3.74806
11
4.93476
21
-3.75024
0
LINE
8
BLACK
6
CONTINUOUS
10
4.93476
20
-3.75024
11
4.91015
21
-3.79286
0
LINE
8
BLACK
6
CONTINUOUS
10
4.91015
20
-3.79286
11
4.90863
21
-3.7946
0
LINE
8
BLACK
6
CONTINUOUS
10
4.90863
20
-3.7946
11
4.90656
21
-3.79562
0
LINE
8
BLACK
6
CONTINUOUS
10
4.90656
20
-3.79562
11
4.90427
21
-3.79577
0
LINE
8
BLACK
6
CONTINUOUS
10
4.90427
20
-3.79577
11
4.90208
21
-3.79503
0
LINE
8
BLACK
6
CONTINUOUS
10
4.90208
20
-3.79503
11
4.89185
21
-3.78912
0
LINE
8
BLACK
6
CONTINUOUS
10
4.89185
20
-3.78912
11
4.89012
21
-3.7876
0
LINE
8
BLACK
6
CONTINUOUS
10
4.89012
20
-3.7876
11
4.8891
21
-3.78553
0
LINE
8
BLACK
6
CONTINUOUS
10
4.8891
20
-3.78553
11
4.88895
21
-3.78324
0
LINE
8
BLACK
6
CONTINUOUS
10
4.88895
20
-3.78324
11
4.88969
21
-3.78105
0
LINE
8
BLACK
6
CONTINUOUS
10
4.88969
20
-3.78105
11
4.9143
21
-3.73843
0
LINE
8
BLACK
6
CONTINUOUS
10
4.9143
20
-3.73843
11
4.91582
21
-3.7367
0
LINE
8
BLACK
6
CONTINUOUS
10
4.91582
20
-3.7367
11
4.91789
21
-3.73568
0
LINE
8
BLACK
6
CONTINUOUS
10
4.91789
20
-3.73568
11
4.92018
21
-3.73553
0
LINE
8
BLACK
6
CONTINUOUS
10
4.92018
20
-3.73553
11
4.92237
21
-3.73627
0
LINE
8
BLACK
6
CONTINUOUS
10
6.09589
20
-3.73568
11
6.09796
21
-3.7367
0
LINE
8
BLACK
6
CONTINUOUS
10
6.09796
20
-3.7367
11
6.09948
21
-3.73843
0
LINE
8
BLACK
6
CONTINUOUS
10
6.09948
20
-3.73843
11
6.12409
21
-3.78105
0
LINE
8
BLACK
6
CONTINUOUS
10
6.12409
20
-3.78105
11
6.12483
21
-3.78324
0
LINE
8
BLACK
6
CONTINUOUS
10
6.12483
20
-3.78324
11
6.12468
21
-3.78553
0
LINE
8
BLACK
6
CONTINUOUS
10
6.12468
20
-3.78553
11
6.12366
21
-3.7876
0
LINE
8
BLACK
6
CONTINUOUS
10
6.12366
20
-3.7876
11
6.12192
21
-3.78912
0
LINE
8
BLACK
6
CONTINUOUS
10
6.12192
20
-3.78912
11
6.1117
21
-3.79503
0
LINE
8
BLACK
6
CONTINUOUS
10
6.1117
20
-3.79503
11
6.10951
21
-3.79577
0
LINE
8
BLACK
6
CONTINUOUS
10
6.10951
20
-3.79577
11
6.10721
21
-3.79562
0
LINE
8
BLACK
6
CONTINUOUS
10
6.10721
20
-3.79562
11
6.10515
21
-3.7946
0
LINE
8
BLACK
6
CONTINUOUS
10
6.10515
20
-3.7946
11
6.10363
21
-3.79286
0
LINE
8
BLACK
6
CONTINUOUS
10
6.10363
20
-3.79286
11
6.07902
21
-3.75024
0
LINE
8
BLACK
6
CONTINUOUS
10
6.07902
20
-3.75024
11
6.07828
21
-3.74806
0
LINE
8
BLACK
6
CONTINUOUS
10
6.07828
20
-3.74806
11
6.07843
21
-3.74576
0
LINE
8
BLACK
6
CONTINUOUS
10
6.07843
20
-3.74576
11
6.07945
21
-3.7437
0
LINE
8
BLACK
6
CONTINUOUS
10
6.07945
20
-3.7437
11
6.08118
21
-3.74218
0
LINE
8
BLACK
6
CONTINUOUS
10
6.08118
20
-3.74218
11
6.09141
21
-3.73627
0
LINE
8
BLACK
6
CONTINUOUS
10
6.09141
20
-3.73627
11
6.09359
21
-3.73553
0
LINE
8
BLACK
6
CONTINUOUS
10
6.09359
20
-3.73553
11
6.09589
21
-3.73568
0
LINE
8
BLACK
6
CONTINUOUS
10
4.88827
20
-3.71659
11
4.8985
21
-3.72249
0
LINE
8
BLACK
6
CONTINUOUS
10
4.8985
20
-3.72249
11
4.90023
21
-3.72401
0
LINE
8
BLACK
6
CONTINUOUS
10
4.90023
20
-3.72401
11
4.90125
21
-3.72608
0
LINE
8
BLACK
6
CONTINUOUS
10
4.90125
20
-3.72608
11
4.9014
21
-3.72838
0
LINE
8
BLACK
6
CONTINUOUS
10
4.9014
20
-3.72838
11
4.90066
21
-3.73056
0
LINE
8
BLACK
6
CONTINUOUS
10
4.90066
20
-3.73056
11
4.87605
21
-3.77318
0
LINE
8
BLACK
6
CONTINUOUS
10
4.87605
20
-3.77318
11
4.87454
21
-3.77491
0
LINE
8
BLACK
6
CONTINUOUS
10
4.87454
20
-3.77491
11
4.87247
21
-3.77593
0
LINE
8
BLACK
6
CONTINUOUS
10
4.87247
20
-3.77593
11
4.87017
21
-3.77608
0
LINE
8
BLACK
6
CONTINUOUS
10
4.87017
20
-3.77608
11
4.86799
21
-3.77534
0
LINE
8
BLACK
6
CONTINUOUS
10
4.86799
20
-3.77534
11
4.85776
21
-3.76944
0
LINE
8
BLACK
6
CONTINUOUS
10
4.85776
20
-3.76944
11
4.85603
21
-3.76792
0
LINE
8
BLACK
6
CONTINUOUS
10
4.85603
20
-3.76792
11
4.85501
21
-3.76585
0
LINE
8
BLACK
6
CONTINUOUS
10
4.85501
20
-3.76585
11
4.85486
21
-3.76355
0
LINE
8
BLACK
6
CONTINUOUS
10
4.85486
20
-3.76355
11
4.8556
21
-3.76137
0
LINE
8
BLACK
6
CONTINUOUS
10
4.8556
20
-3.76137
11
4.8802
21
-3.71875
0
LINE
8
BLACK
6
CONTINUOUS
10
4.8802
20
-3.71875
11
4.88172
21
-3.71702
0
LINE
8
BLACK
6
CONTINUOUS
10
4.88172
20
-3.71702
11
4.88379
21
-3.716
0
LINE
8
BLACK
6
CONTINUOUS
10
4.88379
20
-3.716
11
4.88609
21
-3.71585
0
LINE
8
BLACK
6
CONTINUOUS
10
4.88609
20
-3.71585
11
4.88827
21
-3.71659
0
LINE
8
BLACK
6
CONTINUOUS
10
6.12999
20
-3.716
11
6.13206
21
-3.71702
0
LINE
8
BLACK
6
CONTINUOUS
10
6.13206
20
-3.71702
11
6.13358
21
-3.71875
0
LINE
8
BLACK
6
CONTINUOUS
10
6.13358
20
-3.71875
11
6.15818
21
-3.76137
0
LINE
8
BLACK
6
CONTINUOUS
10
6.15818
20
-3.76137
11
6.15892
21
-3.76355
0
LINE
8
BLACK
6
CONTINUOUS
10
6.15892
20
-3.76355
11
6.15877
21
-3.76585
0
LINE
8
BLACK
6
CONTINUOUS
10
6.15877
20
-3.76585
11
6.15775
21
-3.76792
0
LINE
8
BLACK
6
CONTINUOUS
10
6.15775
20
-3.76792
11
6.15602
21
-3.76944
0
LINE
8
BLACK
6
CONTINUOUS
10
6.15602
20
-3.76944
11
6.14579
21
-3.77534
0
LINE
8
BLACK
6
CONTINUOUS
10
6.14579
20
-3.77534
11
6.14361
21
-3.77608
0
LINE
8
BLACK
6
CONTINUOUS
10
6.14361
20
-3.77608
11
6.14131
21
-3.77593
0
LINE
8
BLACK
6
CONTINUOUS
10
6.14131
20
-3.77593
11
6.13924
21
-3.77491
0
LINE
8
BLACK
6
CONTINUOUS
10
6.13924
20
-3.77491
11
6.13772
21
-3.77318
0
LINE
8
BLACK
6
CONTINUOUS
10
6.13772
20
-3.77318
11
6.11312
21
-3.73056
0
LINE
8
BLACK
6
CONTINUOUS
10
6.11312
20
-3.73056
11
6.11238
21
-3.72838
0
LINE
8
BLACK
6
CONTINUOUS
10
6.11238
20
-3.72838
11
6.11253
21
-3.72608
0
LINE
8
BLACK
6
CONTINUOUS
10
6.11253
20
-3.72608
11
6.11355
21
-3.72401
0
LINE
8
BLACK
6
CONTINUOUS
10
6.11355
20
-3.72401
11
6.11528
21
-3.72249
0
LINE
8
BLACK
6
CONTINUOUS
10
6.11528
20
-3.72249
11
6.12551
21
-3.71659
0
LINE
8
BLACK
6
CONTINUOUS
10
6.12551
20
-3.71659
11
6.12769
21
-3.71585
0
LINE
8
BLACK
6
CONTINUOUS
10
6.12769
20
-3.71585
11
6.12999
21
-3.716
0
LINE
8
BLACK
6
CONTINUOUS
10
6.00921
20
-3.66659
11
6.01266
21
-3.66829
0
LINE
8
BLACK
6
CONTINUOUS
10
6.01266
20
-3.66829
11
6.01519
21
-3.67118
0
LINE
8
BLACK
6
CONTINUOUS
10
6.01519
20
-3.67118
11
6.04078
21
-3.7155
0
LINE
8
BLACK
6
CONTINUOUS
10
6.04078
20
-3.7155
11
6.04201
21
-3.71914
0
LINE
8
BLACK
6
CONTINUOUS
10
6.04201
20
-3.71914
11
6.04176
21
-3.72297
0
LINE
8
BLACK
6
CONTINUOUS
10
6.04176
20
-3.72297
11
6.04006
21
-3.72641
0
LINE
8
BLACK
6
CONTINUOUS
10
6.04006
20
-3.72641
11
6.03718
21
-3.72894
0
LINE
8
BLACK
6
CONTINUOUS
10
6.03718
20
-3.72894
11
6.01331
21
-3.74272
0
LINE
8
BLACK
6
CONTINUOUS
10
6.01331
20
-3.74272
11
6.00967
21
-3.74396
0
LINE
8
BLACK
6
CONTINUOUS
10
6.00967
20
-3.74396
11
6.00584
21
-3.74371
0
LINE
8
BLACK
6
CONTINUOUS
10
6.00584
20
-3.74371
11
6.0024
21
-3.74201
0
LINE
8
BLACK
6
CONTINUOUS
10
6.0024
20
-3.74201
11
5.99986
21
-3.73912
0
LINE
8
BLACK
6
CONTINUOUS
10
5.99986
20
-3.73912
11
5.97427
21
-3.6948
0
LINE
8
BLACK
6
CONTINUOUS
10
5.97427
20
-3.6948
11
5.97304
21
-3.69116
0
LINE
8
BLACK
6
CONTINUOUS
10
5.97304
20
-3.69116
11
5.97329
21
-3.68733
0
LINE
8
BLACK
6
CONTINUOUS
10
5.97329
20
-3.68733
11
5.97499
21
-3.68388
0
LINE
8
BLACK
6
CONTINUOUS
10
5.97499
20
-3.68388
11
5.97788
21
-3.68135
0
LINE
8
BLACK
6
CONTINUOUS
10
5.97788
20
-3.68135
11
6.00174
21
-3.66757
0
LINE
8
BLACK
6
CONTINUOUS
10
6.00174
20
-3.66757
11
6.00538
21
-3.66634
0
LINE
8
BLACK
6
CONTINUOUS
10
6.00538
20
-3.66634
11
6.00921
21
-3.66659
0
LINE
8
BLACK
6
CONTINUOUS
10
5.01204
20
-3.66757
11
5.0359
21
-3.68135
0
LINE
8
BLACK
6
CONTINUOUS
10
5.0359
20
-3.68135
11
5.03879
21
-3.68388
0
LINE
8
BLACK
6
CONTINUOUS
10
5.03879
20
-3.68388
11
5.04049
21
-3.68733
0
LINE
8
BLACK
6
CONTINUOUS
10
5.04049
20
-3.68733
11
5.04074
21
-3.69116
0
LINE
8
BLACK
6
CONTINUOUS
10
5.04074
20
-3.69116
11
5.03951
21
-3.6948
0
LINE
8
BLACK
6
CONTINUOUS
10
5.03951
20
-3.6948
11
5.01392
21
-3.73912
0
LINE
8
BLACK
6
CONTINUOUS
10
5.01392
20
-3.73912
11
5.01138
21
-3.74201
0
LINE
8
BLACK
6
CONTINUOUS
10
5.01138
20
-3.74201
11
5.00794
21
-3.74371
0
LINE
8
BLACK
6
CONTINUOUS
10
5.00794
20
-3.74371
11
5.00411
21
-3.74396
0
LINE
8
BLACK
6
CONTINUOUS
10
5.00411
20
-3.74396
11
5.00047
21
-3.74272
0
LINE
8
BLACK
6
CONTINUOUS
10
5.00047
20
-3.74272
11
4.9766
21
-3.72894
0
LINE
8
BLACK
6
CONTINUOUS
10
4.9766
20
-3.72894
11
4.97372
21
-3.72641
0
LINE
8
BLACK
6
CONTINUOUS
10
4.97372
20
-3.72641
11
4.97202
21
-3.72297
0
LINE
8
BLACK
6
CONTINUOUS
10
4.97202
20
-3.72297
11
4.97177
21
-3.71914
0
LINE
8
BLACK
6
CONTINUOUS
10
4.97177
20
-3.71914
11
4.973
21
-3.7155
0
LINE
8
BLACK
6
CONTINUOUS
10
4.973
20
-3.7155
11
4.99859
21
-3.67118
0
LINE
8
BLACK
6
CONTINUOUS
10
4.99859
20
-3.67118
11
5.00112
21
-3.66829
0
LINE
8
BLACK
6
CONTINUOUS
10
5.00112
20
-3.66829
11
5.00457
21
-3.66659
0
LINE
8
BLACK
6
CONTINUOUS
10
5.00457
20
-3.66659
11
5.0084
21
-3.66634
0
LINE
8
BLACK
6
CONTINUOUS
10
5.0084
20
-3.66634
11
5.01204
21
-3.66757
0
LINE
8
BLACK
6
CONTINUOUS
10
5.38937
20
-3.72559
11
5.37362
21
-3.72559
0
LINE
8
BLACK
6
CONTINUOUS
10
5.37362
20
-3.72559
11
5.37362
21
-3.66417
0
LINE
8
BLACK
6
CONTINUOUS
10
5.37362
20
-3.66417
11
5.38937
21
-3.66417
0
LINE
8
BLACK
6
CONTINUOUS
10
5.38937
20
-3.66417
11
5.38937
21
-3.72559
0
LINE
8
BLACK
6
CONTINUOUS
10
5.36378
20
-3.72559
11
5.34803
21
-3.72559
0
LINE
8
BLACK
6
CONTINUOUS
10
5.34803
20
-3.72559
11
5.34803
21
-3.66417
0
LINE
8
BLACK
6
CONTINUOUS
10
5.34803
20
-3.66417
11
5.36378
21
-3.66417
0
LINE
8
BLACK
6
CONTINUOUS
10
5.36378
20
-3.66417
11
5.36378
21
-3.72559
0
LINE
8
BLACK
6
CONTINUOUS
10
5.3378
20
-3.72559
11
5.32205
21
-3.72559
0
LINE
8
BLACK
6
CONTINUOUS
10
5.32205
20
-3.72559
11
5.32205
21
-3.66417
0
LINE
8
BLACK
6
CONTINUOUS
10
5.32205
20
-3.66417
11
5.3378
21
-3.66417
0
LINE
8
BLACK
6
CONTINUOUS
10
5.3378
20
-3.66417
11
5.3378
21
-3.72559
0
LINE
8
BLACK
6
CONTINUOUS
10
5.3122
20
-3.72559
11
5.29646
21
-3.72559
0
LINE
8
BLACK
6
CONTINUOUS
10
5.29646
20
-3.72559
11
5.29646
21
-3.66417
0
LINE
8
BLACK
6
CONTINUOUS
10
5.29646
20
-3.66417
11
5.3122
21
-3.66417
0
LINE
8
BLACK
6
CONTINUOUS
10
5.3122
20
-3.66417
11
5.3122
21
-3.72559
0
LINE
8
BLACK
6
CONTINUOUS
10
6.13196
20
-3.59572
11
6.1354
21
-3.59742
0
LINE
8
BLACK
6
CONTINUOUS
10
6.1354
20
-3.59742
11
6.13793
21
-3.60031
0
LINE
8
BLACK
6
CONTINUOUS
10
6.13793
20
-3.60031
11
6.16352
21
-3.64463
0
LINE
8
BLACK
6
CONTINUOUS
10
6.16352
20
-3.64463
11
6.16476
21
-3.64827
0
LINE
8
BLACK
6
CONTINUOUS
10
6.16476
20
-3.64827
11
6.16451
21
-3.6521
0
LINE
8
BLACK
6
CONTINUOUS
10
6.16451
20
-3.6521
11
6.16281
21
-3.65555
0
LINE
8
BLACK
6
CONTINUOUS
10
6.16281
20
-3.65555
11
6.15992
21
-3.65808
0
LINE
8
BLACK
6
CONTINUOUS
10
6.15992
20
-3.65808
11
6.13605
21
-3.67186
0
LINE
8
BLACK
6
CONTINUOUS
10
6.13605
20
-3.67186
11
6.13242
21
-3.67309
0
LINE
8
BLACK
6
CONTINUOUS
10
6.13242
20
-3.67309
11
6.12858
21
-3.67284
0
LINE
8
BLACK
6
CONTINUOUS
10
6.12858
20
-3.67284
11
6.12514
21
-3.67114
0
LINE
8
BLACK
6
CONTINUOUS
10
6.12514
20
-3.67114
11
6.12261
21
-3.66826
0
LINE
8
BLACK
6
CONTINUOUS
10
6.12261
20
-3.66826
11
6.09702
21
-3.62393
0
LINE
8
BLACK
6
CONTINUOUS
10
6.09702
20
-3.62393
11
6.09578
21
-3.62029
0
LINE
8
BLACK
6
CONTINUOUS
10
6.09578
20
-3.62029
11
6.09603
21
-3.61646
0
LINE
8
BLACK
6
CONTINUOUS
10
6.09603
20
-3.61646
11
6.09773
21
-3.61302
0
LINE
8
BLACK
6
CONTINUOUS
10
6.09773
20
-3.61302
11
6.10062
21
-3.61049
0
LINE
8
BLACK
6
CONTINUOUS
10
6.10062
20
-3.61049
11
6.12449
21
-3.59671
0
LINE
8
BLACK
6
CONTINUOUS
10
6.12449
20
-3.59671
11
6.12812
21
-3.59547
0
LINE
8
BLACK
6
CONTINUOUS
10
6.12812
20
-3.59547
11
6.13196
21
-3.59572
0
LINE
8
BLACK
6
CONTINUOUS
10
4.88929
20
-3.59671
11
4.91316
21
-3.61049
0
LINE
8
BLACK
6
CONTINUOUS
10
4.91316
20
-3.61049
11
4.91605
21
-3.61302
0
LINE
8
BLACK
6
CONTINUOUS
10
4.91605
20
-3.61302
11
4.91775
21
-3.61646
0
LINE
8
BLACK
6
CONTINUOUS
10
4.91775
20
-3.61646
11
4.918
21
-3.62029
0
LINE
8
BLACK
6
CONTINUOUS
10
4.918
20
-3.62029
11
4.91676
21
-3.62393
0
LINE
8
BLACK
6
CONTINUOUS
10
4.91676
20
-3.62393
11
4.89117
21
-3.66826
0
LINE
8
BLACK
6
CONTINUOUS
10
4.89117
20
-3.66826
11
4.88864
21
-3.67114
0
LINE
8
BLACK
6
CONTINUOUS
10
4.88864
20
-3.67114
11
4.8852
21
-3.67284
0
LINE
8
BLACK
6
CONTINUOUS
10
4.8852
20
-3.67284
11
4.88136
21
-3.67309
0
LINE
8
BLACK
6
CONTINUOUS
10
4.88136
20
-3.67309
11
4.87773
21
-3.67186
0
LINE
8
BLACK
6
CONTINUOUS
10
4.87773
20
-3.67186
11
4.85386
21
-3.65808
0
LINE
8
BLACK
6
CONTINUOUS
10
4.85386
20
-3.65808
11
4.85097
21
-3.65555
0
LINE
8
BLACK
6
CONTINUOUS
10
4.85097
20
-3.65555
11
4.84927
21
-3.6521
0
LINE
8
BLACK
6
CONTINUOUS
10
4.84927
20
-3.6521
11
4.84902
21
-3.64827
0
LINE
8
BLACK
6
CONTINUOUS
10
4.84902
20
-3.64827
11
4.85026
21
-3.64463
0
LINE
8
BLACK
6
CONTINUOUS
10
4.85026
20
-3.64463
11
4.87585
21
-3.60031
0
LINE
8
BLACK
6
CONTINUOUS
10
4.87585
20
-3.60031
11
4.87838
21
-3.59742
0
LINE
8
BLACK
6
CONTINUOUS
10
4.87838
20
-3.59742
11
4.88182
21
-3.59572
0
LINE
8
BLACK
6
CONTINUOUS
10
4.88182
20
-3.59572
11
4.88566
21
-3.59547
0
LINE
8
BLACK
6
CONTINUOUS
10
4.88566
20
-3.59547
11
4.88929
21
-3.59671
0
LINE
8
BLACK
6
CONTINUOUS
10
5.3122
20
-3.61929
11
5.29646
21
-3.61929
0
LINE
8
BLACK
6
CONTINUOUS
10
5.29646
20
-3.61929
11
5.29646
21
-3.55787
0
LINE
8
BLACK
6
CONTINUOUS
10
5.29646
20
-3.55787
11
5.3122
21
-3.55787
0
LINE
8
BLACK
6
CONTINUOUS
10
5.3122
20
-3.55787
11
5.3122
21
-3.61929
0
LINE
8
BLACK
6
CONTINUOUS
10
5.3378
20
-3.61929
11
5.32205
21
-3.61929
0
LINE
8
BLACK
6
CONTINUOUS
10
5.32205
20
-3.61929
11
5.32205
21
-3.55787
0
LINE
8
BLACK
6
CONTINUOUS
10
5.32205
20
-3.55787
11
5.3378
21
-3.55787
0
LINE
8
BLACK
6
CONTINUOUS
10
5.3378
20
-3.55787
11
5.3378
21
-3.61929
0
LINE
8
BLACK
6
CONTINUOUS
10
5.36378
20
-3.61929
11
5.34803
21
-3.61929
0
LINE
8
BLACK
6
CONTINUOUS
10
5.34803
20
-3.61929
11
5.34803
21
-3.55787
0
LINE
8
BLACK
6
CONTINUOUS
10
5.34803
20
-3.55787
11
5.36378
21
-3.55787
0
LINE
8
BLACK
6
CONTINUOUS
10
5.36378
20
-3.55787
11
5.36378
21
-3.61929
0
LINE
8
BLACK
6
CONTINUOUS
10
5.38937
20
-3.61929
11
5.37362
21
-3.61929
0
LINE
8
BLACK
6
CONTINUOUS
10
5.37362
20
-3.61929
11
5.37362
21
-3.55787
0
LINE
8
BLACK
6
CONTINUOUS
10
5.37362
20
-3.55787
11
5.38937
21
-3.55787
0
LINE
8
BLACK
6
CONTINUOUS
10
5.38937
20
-3.55787
11
5.38937
21
-3.61929
0
LINE
8
BLACK
6
CONTINUOUS
10
5.31873
20
-3.47417
11
5.32192
21
-3.47631
0
LINE
8
BLACK
6
CONTINUOUS
10
5.32192
20
-3.47631
11
5.32405
21
-3.4795
0
LINE
8
BLACK
6
CONTINUOUS
10
5.32405
20
-3.4795
11
5.3248
21
-3.48327
0
LINE
8
BLACK
6
CONTINUOUS
10
5.3248
20
-3.48327
11
5.3248
21
-3.52067
0
LINE
8
BLACK
6
CONTINUOUS
10
5.3248
20
-3.52067
11
5.32405
21
-3.52444
0
LINE
8
BLACK
6
CONTINUOUS
10
5.32405
20
-3.52444
11
5.32192
21
-3.52763
0
LINE
8
BLACK
6
CONTINUOUS
10
5.32192
20
-3.52763
11
5.31873
21
-3.52976
0
LINE
8
BLACK
6
CONTINUOUS
10
5.31873
20
-3.52976
11
5.31496
21
-3.53051
0
LINE
8
BLACK
6
CONTINUOUS
10
5.31496
20
-3.53051
11
5.29528
21
-3.53051
0
LINE
8
BLACK
6
CONTINUOUS
10
5.29528
20
-3.53051
11
5.29151
21
-3.52976
0
LINE
8
BLACK
6
CONTINUOUS
10
5.29151
20
-3.52976
11
5.28832
21
-3.52763
0
LINE
8
BLACK
6
CONTINUOUS
10
5.28832
20
-3.52763
11
5.28618
21
-3.52444
0
LINE
8
BLACK
6
CONTINUOUS
10
5.28618
20
-3.52444
11
5.28543
21
-3.52067
0
LINE
8
BLACK
6
CONTINUOUS
10
5.28543
20
-3.52067
11
5.28543
21
-3.48327
0
LINE
8
BLACK
6
CONTINUOUS
10
5.28543
20
-3.48327
11
5.28618
21
-3.4795
0
LINE
8
BLACK
6
CONTINUOUS
10
5.28618
20
-3.4795
11
5.28832
21
-3.47631
0
LINE
8
BLACK
6
CONTINUOUS
10
5.28832
20
-3.47631
11
5.29151
21
-3.47417
0
LINE
8
BLACK
6
CONTINUOUS
10
5.29151
20
-3.47417
11
5.29528
21
-3.47343
0
LINE
8
BLACK
6
CONTINUOUS
10
5.29528
20
-3.47343
11
5.31496
21
-3.47343
0
LINE
8
BLACK
6
CONTINUOUS
10
5.31496
20
-3.47343
11
5.31873
21
-3.47417
0
LINE
8
BLACK
6
CONTINUOUS
10
5.24392
20
-3.47417
11
5.24712
21
-3.47631
0
LINE
8
BLACK
6
CONTINUOUS
10
5.24712
20
-3.47631
11
5.24925
21
-3.4795
0
LINE
8
BLACK
6
CONTINUOUS
10
5.24925
20
-3.4795
11
5.25
21
-3.48327
0
LINE
8
BLACK
6
CONTINUOUS
10
5.25
20
-3.48327
11
5.25
21
-3.52067
0
LINE
8
BLACK
6
CONTINUOUS
10
5.25
20
-3.52067
11
5.24925
21
-3.52444
0
LINE
8
BLACK
6
CONTINUOUS
10
5.24925
20
-3.52444
11
5.24712
21
-3.52763
0
LINE
8
BLACK
6
CONTINUOUS
10
5.24712
20
-3.52763
11
5.24392
21
-3.52976
0
LINE
8
BLACK
6
CONTINUOUS
10
5.24392
20
-3.52976
11
5.24016
21
-3.53051
0
LINE
8
BLACK
6
CONTINUOUS
10
5.24016
20
-3.53051
11
5.22047
21
-3.53051
0
LINE
8
BLACK
6
CONTINUOUS
10
5.22047
20
-3.53051
11
5.21671
21
-3.52976
0
LINE
8
BLACK
6
CONTINUOUS
10
5.21671
20
-3.52976
11
5.21351
21
-3.52763
0
LINE
8
BLACK
6
CONTINUOUS
10
5.21351
20
-3.52763
11
5.21138
21
-3.52444
0
LINE
8
BLACK
6
CONTINUOUS
10
5.21138
20
-3.52444
11
5.21063
21
-3.52067
0
LINE
8
BLACK
6
CONTINUOUS
10
5.21063
20
-3.52067
11
5.21063
21
-3.48327
0
LINE
8
BLACK
6
CONTINUOUS
10
5.21063
20
-3.48327
11
5.21138
21
-3.4795
0
LINE
8
BLACK
6
CONTINUOUS
10
5.21138
20
-3.4795
11
5.21351
21
-3.47631
0
LINE
8
BLACK
6
CONTINUOUS
10
5.21351
20
-3.47631
11
5.21671
21
-3.47417
0
LINE
8
BLACK
6
CONTINUOUS
10
5.21671
20
-3.47417
11
5.22047
21
-3.47343
0
LINE
8
BLACK
6
CONTINUOUS
10
5.22047
20
-3.47343
11
5.24016
21
-3.47343
0
LINE
8
BLACK
6
CONTINUOUS
10
5.24016
20
-3.47343
11
5.24392
21
-3.47417
0
LINE
8
BLACK
6
CONTINUOUS
10
5.3207
20
-3.40232
11
5.32389
21
-3.40446
0
LINE
8
BLACK
6
CONTINUOUS
10
5.32389
20
-3.40446
11
5.32602
21
-3.40765
0
LINE
8
BLACK
6
CONTINUOUS
10
5.32602
20
-3.40765
11
5.32677
21
-3.41142
0
LINE
8
BLACK
6
CONTINUOUS
10
5.32677
20
-3.41142
11
5.32677
21
-3.43701
0
LINE
8
BLACK
6
CONTINUOUS
10
5.32677
20
-3.43701
11
5.32602
21
-3.44077
0
LINE
8
BLACK
6
CONTINUOUS
10
5.32602
20
-3.44077
11
5.32389
21
-3.44397
0
LINE
8
BLACK
6
CONTINUOUS
10
5.32389
20
-3.44397
11
5.3207
21
-3.4461
0
LINE
8
BLACK
6
CONTINUOUS
10
5.3207
20
-3.4461
11
5.31693
21
-3.44685
0
LINE
8
BLACK
6
CONTINUOUS
10
5.31693
20
-3.44685
11
5.26575
21
-3.44685
0
LINE
8
BLACK
6
CONTINUOUS
10
5.26575
20
-3.44685
11
5.26198
21
-3.4461
0
LINE
8
BLACK
6
CONTINUOUS
10
5.26198
20
-3.4461
11
5.25879
21
-3.44397
0
LINE
8
BLACK
6
CONTINUOUS
10
5.25879
20
-3.44397
11
5.25665
21
-3.44077
0
LINE
8
BLACK
6
CONTINUOUS
10
5.25665
20
-3.44077
11
5.25591
21
-3.43701
0
LINE
8
BLACK
6
CONTINUOUS
10
5.25591
20
-3.43701
11
5.25591
21
-3.41142
0
LINE
8
BLACK
6
CONTINUOUS
10
5.25591
20
-3.41142
11
5.25665
21
-3.40765
0
LINE
8
BLACK
6
CONTINUOUS
10
5.25665
20
-3.40765
11
5.25879
21
-3.40446
0
LINE
8
BLACK
6
CONTINUOUS
10
5.25879
20
-3.40446
11
5.26198
21
-3.40232
0
LINE
8
BLACK
6
CONTINUOUS
10
5.26198
20
-3.40232
11
5.26575
21
-3.40157
0
LINE
8
BLACK
6
CONTINUOUS
10
5.26575
20
-3.40157
11
5.31693
21
-3.40157
0
LINE
8
BLACK
6
CONTINUOUS
10
5.31693
20
-3.40157
11
5.3207
21
-3.40232
0
LINE
8
BLACK
6
CONTINUOUS
10
5.3207
20
-3.28618
11
5.32389
21
-3.28832
0
LINE
8
BLACK
6
CONTINUOUS
10
5.32389
20
-3.28832
11
5.32602
21
-3.29151
0
LINE
8
BLACK
6
CONTINUOUS
10
5.32602
20
-3.29151
11
5.32677
21
-3.29528
0
LINE
8
BLACK
6
CONTINUOUS
10
5.32677
20
-3.29528
11
5.32677
21
-3.32087
0
LINE
8
BLACK
6
CONTINUOUS
10
5.32677
20
-3.32087
11
5.32602
21
-3.32463
0
LINE
8
BLACK
6
CONTINUOUS
10
5.32602
20
-3.32463
11
5.32389
21
-3.32783
0
LINE
8
BLACK
6
CONTINUOUS
10
5.32389
20
-3.32783
11
5.3207
21
-3.32996
0
LINE
8
BLACK
6
CONTINUOUS
10
5.3207
20
-3.32996
11
5.31693
21
-3.33071
0
LINE
8
BLACK
6
CONTINUOUS
10
5.31693
20
-3.33071
11
5.26575
21
-3.33071
0
LINE
8
BLACK
6
CONTINUOUS
10
5.26575
20
-3.33071
11
5.26198
21
-3.32996
0
LINE
8
BLACK
6
CONTINUOUS
10
5.26198
20
-3.32996
11
5.25879
21
-3.32783
0
LINE
8
BLACK
6
CONTINUOUS
10
5.25879
20
-3.32783
11
5.25665
21
-3.32463
0
LINE
8
BLACK
6
CONTINUOUS
10
5.25665
20
-3.32463
11
5.25591
21
-3.32087
0
LINE
8
BLACK
6
CONTINUOUS
10
5.25591
20
-3.32087
11
5.25591
21
-3.29528
0
LINE
8
BLACK
6
CONTINUOUS
10
5.25591
20
-3.29528
11
5.25665
21
-3.29151
0
LINE
8
BLACK
6
CONTINUOUS
10
5.25665
20
-3.29151
11
5.25879
21
-3.28832
0
LINE
8
BLACK
6
CONTINUOUS
10
5.25879
20
-3.28832
11
5.26198
21
-3.28618
0
LINE
8
BLACK
6
CONTINUOUS
10
5.26198
20
-3.28618
11
5.26575
21
-3.28543
0
LINE
8
BLACK
6
CONTINUOUS
10
5.26575
20
-3.28543
11
5.31693
21
-3.28543
0
LINE
8
BLACK
6
CONTINUOUS
10
5.31693
20
-3.28543
11
5.3207
21
-3.28618
0
LINE
8
BLACK
6
CONTINUOUS
10
4.68684
20
-3.07949
11
4.69003
21
-3.08162
0
LINE
8
BLACK
6
CONTINUOUS
10
4.69003
20
-3.08162
11
4.69216
21
-3.08482
0
LINE
8
BLACK
6
CONTINUOUS
10
4.69216
20
-3.08482
11
4.69291
21
-3.08858
0
LINE
8
BLACK
6
CONTINUOUS
10
4.69291
20
-3.08858
11
4.69291
21
-3.11614
0
LINE
8
BLACK
6
CONTINUOUS
10
4.69291
20
-3.11614
11
4.69216
21
-3.11991
0
LINE
8
BLACK
6
CONTINUOUS
10
4.69216
20
-3.11991
11
4.69003
21
-3.1231
0
LINE
8
BLACK
6
CONTINUOUS
10
4.69003
20
-3.1231
11
4.68684
21
-3.12524
0
LINE
8
BLACK
6
CONTINUOUS
10
4.68684
20
-3.12524
11
4.68307
21
-3.12598
0
LINE
8
BLACK
6
CONTINUOUS
10
4.68307
20
-3.12598
11
4.63189
21
-3.12598
0
LINE
8
BLACK
6
CONTINUOUS
10
4.63189
20
-3.12598
11
4.62812
21
-3.12524
0
LINE
8
BLACK
6
CONTINUOUS
10
4.62812
20
-3.12524
11
4.62493
21
-3.1231
0
LINE
8
BLACK
6
CONTINUOUS
10
4.62493
20
-3.1231
11
4.6228
21
-3.11991
0
LINE
8
BLACK
6
CONTINUOUS
10
4.6228
20
-3.11991
11
4.62205
21
-3.11614
0
LINE
8
BLACK
6
CONTINUOUS
10
4.62205
20
-3.11614
11
4.62205
21
-3.08858
0
LINE
8
BLACK
6
CONTINUOUS
10
4.62205
20
-3.08858
11
4.6228
21
-3.08482
0
LINE
8
BLACK
6
CONTINUOUS
10
4.6228
20
-3.08482
11
4.62493
21
-3.08162
0
LINE
8
BLACK
6
CONTINUOUS
10
4.62493
20
-3.08162
11
4.62812
21
-3.07949
0
LINE
8
BLACK
6
CONTINUOUS
10
4.62812
20
-3.07949
11
4.63189
21
-3.07874
0
LINE
8
BLACK
6
CONTINUOUS
10
4.63189
20
-3.07874
11
4.68307
21
-3.07874
0
LINE
8
BLACK
6
CONTINUOUS
10
4.68307
20
-3.07874
11
4.68684
21
-3.07949
0
LINE
8
BLACK
6
CONTINUOUS
10
6.3955
20
-3.07949
11
6.39869
21
-3.08162
0
LINE
8
BLACK
6
CONTINUOUS
10
6.39869
20
-3.08162
11
6.40083
21
-3.08482
0
LINE
8
BLACK
6
CONTINUOUS
10
6.40083
20
-3.08482
11
6.40157
21
-3.08858
0
LINE
8
BLACK
6
CONTINUOUS
10
6.40157
20
-3.08858
11
6.40157
21
-3.11614
0
LINE
8
BLACK
6
CONTINUOUS
10
6.40157
20
-3.11614
11
6.40083
21
-3.11991
0
LINE
8
BLACK
6
CONTINUOUS
10
6.40083
20
-3.11991
11
6.39869
21
-3.1231
0
LINE
8
BLACK
6
CONTINUOUS
10
6.39869
20
-3.1231
11
6.3955
21
-3.12524
0
LINE
8
BLACK
6
CONTINUOUS
10
6.3955
20
-3.12524
11
6.39173
21
-3.12598
0
LINE
8
BLACK
6
CONTINUOUS
10
6.39173
20
-3.12598
11
6.34055
21
-3.12598
0
LINE
8
BLACK
6
CONTINUOUS
10
6.34055
20
-3.12598
11
6.33678
21
-3.12524
0
LINE
8
BLACK
6
CONTINUOUS
10
6.33678
20
-3.12524
11
6.33359
21
-3.1231
0
LINE
8
BLACK
6
CONTINUOUS
10
6.33359
20
-3.1231
11
6.33146
21
-3.11991
0
LINE
8
BLACK
6
CONTINUOUS
10
6.33146
20
-3.11991
11
6.33071
21
-3.11614
0
LINE
8
BLACK
6
CONTINUOUS
10
6.33071
20
-3.11614
11
6.33071
21
-3.08858
0
LINE
8
BLACK
6
CONTINUOUS
10
6.33071
20
-3.08858
11
6.33146
21
-3.08482
0
LINE
8
BLACK
6
CONTINUOUS
10
6.33146
20
-3.08482
11
6.33359
21
-3.08162
0
LINE
8
BLACK
6
CONTINUOUS
10
6.33359
20
-3.08162
11
6.33678
21
-3.07949
0
LINE
8
BLACK
6
CONTINUOUS
10
6.33678
20
-3.07949
11
6.34055
21
-3.07874
0
LINE
8
BLACK
6
CONTINUOUS
10
6.34055
20
-3.07874
11
6.39173
21
-3.07874
0
LINE
8
BLACK
6
CONTINUOUS
10
6.39173
20
-3.07874
11
6.3955
21
-3.07949
0
LINE
8
BLACK
6
CONTINUOUS
10
5.18388
20
-3.0224
11
5.18708
21
-3.02454
0
LINE
8
BLACK
6
CONTINUOUS
10
5.18708
20
-3.02454
11
5.18921
21
-3.02773
0
LINE
8
BLACK
6
CONTINUOUS
10
5.18921
20
-3.02773
11
5.18996
21
-3.0315
0
LINE
8
BLACK
6
CONTINUOUS
10
5.18996
20
-3.0315
11
5.18996
21
-3.06693
0
LINE
8
BLACK
6
CONTINUOUS
10
5.18996
20
-3.06693
11
5.18921
21
-3.0707
0
LINE
8
BLACK
6
CONTINUOUS
10
5.18921
20
-3.0707
11
5.18708
21
-3.07389
0
LINE
8
BLACK
6
CONTINUOUS
10
5.18708
20
-3.07389
11
5.18388
21
-3.07602
0
LINE
8
BLACK
6
CONTINUOUS
10
5.18388
20
-3.07602
11
5.18012
21
-3.07677
0
LINE
8
BLACK
6
CONTINUOUS
10
5.18012
20
-3.07677
11
5.15945
21
-3.07677
0
LINE
8
BLACK
6
CONTINUOUS
10
5.15945
20
-3.07677
11
5.15568
21
-3.07602
0
LINE
8
BLACK
6
CONTINUOUS
10
5.15568
20
-3.07602
11
5.15249
21
-3.07389
0
LINE
8
BLACK
6
CONTINUOUS
10
5.15249
20
-3.07389
11
5.15036
21
-3.0707
0
LINE
8
BLACK
6
CONTINUOUS
10
5.15036
20
-3.0707
11
5.14961
21
-3.06693
0
LINE
8
BLACK
6
CONTINUOUS
10
5.14961
20
-3.06693
11
5.14961
21
-3.0315
0
LINE
8
BLACK
6
CONTINUOUS
10
5.14961
20
-3.0315
11
5.15036
21
-3.02773
0
LINE
8
BLACK
6
CONTINUOUS
10
5.15036
20
-3.02773
11
5.15249
21
-3.02454
0
LINE
8
BLACK
6
CONTINUOUS
10
5.15249
20
-3.02454
11
5.15568
21
-3.0224
0
LINE
8
BLACK
6
CONTINUOUS
10
5.15568
20
-3.0224
11
5.15945
21
-3.02165
0
LINE
8
BLACK
6
CONTINUOUS
10
5.15945
20
-3.02165
11
5.18012
21
-3.02165
0
LINE
8
BLACK
6
CONTINUOUS
10
5.18012
20
-3.02165
11
5.18388
21
-3.0224
0
LINE
8
BLACK
6
CONTINUOUS
10
5.11203
20
-3.0224
11
5.11523
21
-3.02454
0
LINE
8
BLACK
6
CONTINUOUS
10
5.11523
20
-3.02454
11
5.11736
21
-3.02773
0
LINE
8
BLACK
6
CONTINUOUS
10
5.11736
20
-3.02773
11
5.11811
21
-3.0315
0
LINE
8
BLACK
6
CONTINUOUS
10
5.11811
20
-3.0315
11
5.11811
21
-3.06693
0
LINE
8
BLACK
6
CONTINUOUS
10
5.11811
20
-3.06693
11
5.11736
21
-3.0707
0
LINE
8
BLACK
6
CONTINUOUS
10
5.11736
20
-3.0707
11
5.11523
21
-3.07389
0
LINE
8
BLACK
6
CONTINUOUS
10
5.11523
20
-3.07389
11
5.11203
21
-3.07602
0
LINE
8
BLACK
6
CONTINUOUS
10
5.11203
20
-3.07602
11
5.10827
21
-3.07677
0
LINE
8
BLACK
6
CONTINUOUS
10
5.10827
20
-3.07677
11
5.0876
21
-3.07677
0
LINE
8
BLACK
6
CONTINUOUS
10
5.0876
20
-3.07677
11
5.08383
21
-3.07602
0
LINE
8
BLACK
6
CONTINUOUS
10
5.08383
20
-3.07602
11
5.08064
21
-3.07389
0
LINE
8
BLACK
6
CONTINUOUS
10
5.08064
20
-3.07389
11
5.07851
21
-3.0707
0
LINE
8
BLACK
6
CONTINUOUS
10
5.07851
20
-3.0707
11
5.07776
21
-3.06693
0
LINE
8
BLACK
6
CONTINUOUS
10
5.07776
20
-3.06693
11
5.07776
21
-3.0315
0
LINE
8
BLACK
6
CONTINUOUS
10
5.07776
20
-3.0315
11
5.07851
21
-3.02773
0
LINE
8
BLACK
6
CONTINUOUS
10
5.07851
20
-3.02773
11
5.08064
21
-3.02454
0
LINE
8
BLACK
6
CONTINUOUS
10
5.08064
20
-3.02454
11
5.08383
21
-3.0224
0
LINE
8
BLACK
6
CONTINUOUS
10
5.08383
20
-3.0224
11
5.0876
21
-3.02165
0
LINE
8
BLACK
6
CONTINUOUS
10
5.0876
20
-3.02165
11
5.10827
21
-3.02165
0
LINE
8
BLACK
6
CONTINUOUS
10
5.10827
20
-3.02165
11
5.11203
21
-3.0224
0
LINE
8
BLACK
6
CONTINUOUS
10
5.25377
20
-3.0224
11
5.25696
21
-3.02454
0
LINE
8
BLACK
6
CONTINUOUS
10
5.25696
20
-3.02454
11
5.25909
21
-3.02773
0
LINE
8
BLACK
6
CONTINUOUS
10
5.25909
20
-3.02773
11
5.25984
21
-3.0315
0
LINE
8
BLACK
6
CONTINUOUS
10
5.25984
20
-3.0315
11
5.25984
21
-3.06693
0
LINE
8
BLACK
6
CONTINUOUS
10
5.25984
20
-3.06693
11
5.25909
21
-3.0707
0
LINE
8
BLACK
6
CONTINUOUS
10
5.25909
20
-3.0707
11
5.25696
21
-3.07389
0
LINE
8
BLACK
6
CONTINUOUS
10
5.25696
20
-3.07389
11
5.25377
21
-3.07602
0
LINE
8
BLACK
6
CONTINUOUS
10
5.25377
20
-3.07602
11
5.25
21
-3.07677
0
LINE
8
BLACK
6
CONTINUOUS
10
5.25
20
-3.07677
11
5.22933
21
-3.07677
0
LINE
8
BLACK
6
CONTINUOUS
10
5.22933
20
-3.07677
11
5.22556
21
-3.07602
0
LINE
8
BLACK
6
CONTINUOUS
10
5.22556
20
-3.07602
11
5.22237
21
-3.07389
0
LINE
8
BLACK
6
CONTINUOUS
10
5.22237
20
-3.07389
11
5.22024
21
-3.0707
0
LINE
8
BLACK
6
CONTINUOUS
10
5.22024
20
-3.0707
11
5.21949
21
-3.06693
0
LINE
8
BLACK
6
CONTINUOUS
10
5.21949
20
-3.06693
11
5.21949
21
-3.0315
0
LINE
8
BLACK
6
CONTINUOUS
10
5.21949
20
-3.0315
11
5.22024
21
-3.02773
0
LINE
8
BLACK
6
CONTINUOUS
10
5.22024
20
-3.02773
11
5.22237
21
-3.02454
0
LINE
8
BLACK
6
CONTINUOUS
10
5.22237
20
-3.02454
11
5.22556
21
-3.0224
0
LINE
8
BLACK
6
CONTINUOUS
10
5.22556
20
-3.0224
11
5.22933
21
-3.02165
0
LINE
8
BLACK
6
CONTINUOUS
10
5.22933
20
-3.02165
11
5.25
21
-3.02165
0
LINE
8
BLACK
6
CONTINUOUS
10
5.25
20
-3.02165
11
5.25377
21
-3.0224
0
LINE
8
BLACK
6
CONTINUOUS
10
5.32562
20
-3.0224
11
5.32881
21
-3.02454
0
LINE
8
BLACK
6
CONTINUOUS
10
5.32881
20
-3.02454
11
5.33094
21
-3.02773
0
LINE
8
BLACK
6
CONTINUOUS
10
5.33094
20
-3.02773
11
5.33169
21
-3.0315
0
LINE
8
BLACK
6
CONTINUOUS
10
5.33169
20
-3.0315
11
5.33169
21
-3.06693
0
LINE
8
BLACK
6
CONTINUOUS
10
5.33169
20
-3.06693
11
5.33094
21
-3.0707
0
LINE
8
BLACK
6
CONTINUOUS
10
5.33094
20
-3.0707
11
5.32881
21
-3.07389
0
LINE
8
BLACK
6
CONTINUOUS
10
5.32881
20
-3.07389
11
5.32562
21
-3.07602
0
LINE
8
BLACK
6
CONTINUOUS
10
5.32562
20
-3.07602
11
5.32185
21
-3.07677
0
LINE
8
BLACK
6
CONTINUOUS
10
5.32185
20
-3.07677
11
5.30118
21
-3.07677
0
LINE
8
BLACK
6
CONTINUOUS
10
5.30118
20
-3.07677
11
5.29741
21
-3.07602
0
LINE
8
BLACK
6
CONTINUOUS
10
5.29741
20
-3.07602
11
5.29422
21
-3.07389
0
LINE
8
BLACK
6
CONTINUOUS
10
5.29422
20
-3.07389
11
5.29209
21
-3.0707
0
LINE
8
BLACK
6
CONTINUOUS
10
5.29209
20
-3.0707
11
5.29134
21
-3.06693
0
LINE
8
BLACK
6
CONTINUOUS
10
5.29134
20
-3.06693
11
5.29134
21
-3.0315
0
LINE
8
BLACK
6
CONTINUOUS
10
5.29134
20
-3.0315
11
5.29209
21
-3.02773
0
LINE
8
BLACK
6
CONTINUOUS
10
5.29209
20
-3.02773
11
5.29422
21
-3.02454
0
LINE
8
BLACK
6
CONTINUOUS
10
5.29422
20
-3.02454
11
5.29741
21
-3.0224
0
LINE
8
BLACK
6
CONTINUOUS
10
5.29741
20
-3.0224
11
5.30118
21
-3.02165
0
LINE
8
BLACK
6
CONTINUOUS
10
5.30118
20
-3.02165
11
5.32185
21
-3.02165
0
LINE
8
BLACK
6
CONTINUOUS
10
5.32185
20
-3.02165
11
5.32562
21
-3.0224
0
LINE
8
BLACK
6
CONTINUOUS
10
6.49242
20
-3.03982
11
6.49433
21
-3.0411
0
LINE
8
BLACK
6
CONTINUOUS
10
6.49433
20
-3.0411
11
6.49561
21
-3.04302
0
LINE
8
BLACK
6
CONTINUOUS
10
6.49561
20
-3.04302
11
6.49606
21
-3.04528
0
LINE
8
BLACK
6
CONTINUOUS
10
6.49606
20
-3.04528
11
6.49606
21
-3.05709
0
LINE
8
BLACK
6
CONTINUOUS
10
6.49606
20
-3.05709
11
6.49561
21
-3.05935
0
LINE
8
BLACK
6
CONTINUOUS
10
6.49561
20
-3.05935
11
6.49433
21
-3.06126
0
LINE
8
BLACK
6
CONTINUOUS
10
6.49433
20
-3.06126
11
6.49242
21
-3.06254
0
LINE
8
BLACK
6
CONTINUOUS
10
6.49242
20
-3.06254
11
6.49016
21
-3.06299
0
LINE
8
BLACK
6
CONTINUOUS
10
6.49016
20
-3.06299
11
6.44094
21
-3.06299
0
LINE
8
BLACK
6
CONTINUOUS
10
6.44094
20
-3.06299
11
6.43868
21
-3.06254
0
LINE
8
BLACK
6
CONTINUOUS
10
6.43868
20
-3.06254
11
6.43677
21
-3.06126
0
LINE
8
BLACK
6
CONTINUOUS
10
6.43677
20
-3.06126
11
6.43549
21
-3.05935
0
LINE
8
BLACK
6
CONTINUOUS
10
6.43549
20
-3.05935
11
6.43504
21
-3.05709
0
LINE
8
BLACK
6
CONTINUOUS
10
6.43504
20
-3.05709
11
6.43504
21
-3.04528
0
LINE
8
BLACK
6
CONTINUOUS
10
6.43504
20
-3.04528
11
6.43549
21
-3.04302
0
LINE
8
BLACK
6
CONTINUOUS
10
6.43549
20
-3.04302
11
6.43677
21
-3.0411
0
LINE
8
BLACK
6
CONTINUOUS
10
6.43677
20
-3.0411
11
6.43868
21
-3.03982
0
LINE
8
BLACK
6
CONTINUOUS
10
6.43868
20
-3.03982
11
6.44094
21
-3.03937
0
LINE
8
BLACK
6
CONTINUOUS
10
6.44094
20
-3.03937
11
6.49016
21
-3.03937
0
LINE
8
BLACK
6
CONTINUOUS
10
6.49016
20
-3.03937
11
6.49242
21
-3.03982
0
LINE
8
BLACK
6
CONTINUOUS
10
4.58494
20
-3.03982
11
4.58685
21
-3.0411
0
LINE
8
BLACK
6
CONTINUOUS
10
4.58685
20
-3.0411
11
4.58813
21
-3.04302
0
LINE
8
BLACK
6
CONTINUOUS
10
4.58813
20
-3.04302
11
4.58858
21
-3.04528
0
LINE
8
BLACK
6
CONTINUOUS
10
4.58858
20
-3.04528
11
4.58858
21
-3.05709
0
LINE
8
BLACK
6
CONTINUOUS
10
4.58858
20
-3.05709
11
4.58813
21
-3.05935
0
LINE
8
BLACK
6
CONTINUOUS
10
4.58813
20
-3.05935
11
4.58685
21
-3.06126
0
LINE
8
BLACK
6
CONTINUOUS
10
4.58685
20
-3.06126
11
4.58494
21
-3.06254
0
LINE
8
BLACK
6
CONTINUOUS
10
4.58494
20
-3.06254
11
4.58268
21
-3.06299
0
LINE
8
BLACK
6
CONTINUOUS
10
4.58268
20
-3.06299
11
4.53346
21
-3.06299
0
LINE
8
BLACK
6
CONTINUOUS
10
4.53346
20
-3.06299
11
4.5312
21
-3.06254
0
LINE
8
BLACK
6
CONTINUOUS
10
4.5312
20
-3.06254
11
4.52929
21
-3.06126
0
LINE
8
BLACK
6
CONTINUOUS
10
4.52929
20
-3.06126
11
4.52801
21
-3.05935
0
LINE
8
BLACK
6
CONTINUOUS
10
4.52801
20
-3.05935
11
4.52756
21
-3.05709
0
LINE
8
BLACK
6
CONTINUOUS
10
4.52756
20
-3.05709
11
4.52756
21
-3.04528
0
LINE
8
BLACK
6
CONTINUOUS
10
4.52756
20
-3.04528
11
4.52801
21
-3.04302
0
LINE
8
BLACK
6
CONTINUOUS
10
4.52801
20
-3.04302
11
4.52929
21
-3.0411
0
LINE
8
BLACK
6
CONTINUOUS
10
4.52929
20
-3.0411
11
4.5312
21
-3.03982
0
LINE
8
BLACK
6
CONTINUOUS
10
4.5312
20
-3.03982
11
4.53346
21
-3.03937
0
LINE
8
BLACK
6
CONTINUOUS
10
4.53346
20
-3.03937
11
4.58268
21
-3.03937
0
LINE
8
BLACK
6
CONTINUOUS
10
4.58268
20
-3.03937
11
4.58494
21
-3.03982
0
LINE
8
BLACK
6
CONTINUOUS
10
6.49242
20
-3.00045
11
6.49433
21
-3.00173
0
LINE
8
BLACK
6
CONTINUOUS
10
6.49433
20
-3.00173
11
6.49561
21
-3.00365
0
LINE
8
BLACK
6
CONTINUOUS
10
6.49561
20
-3.00365
11
6.49606
21
-3.00591
0
LINE
8
BLACK
6
CONTINUOUS
10
6.49606
20
-3.00591
11
6.49606
21
-3.01772
0
LINE
8
BLACK
6
CONTINUOUS
10
6.49606
20
-3.01772
11
6.49561
21
-3.01998
0
LINE
8
BLACK
6
CONTINUOUS
10
6.49561
20
-3.01998
11
6.49433
21
-3.02189
0
LINE
8
BLACK
6
CONTINUOUS
10
6.49433
20
-3.02189
11
6.49242
21
-3.02317
0
LINE
8
BLACK
6
CONTINUOUS
10
6.49242
20
-3.02317
11
6.49016
21
-3.02362
0
LINE
8
BLACK
6
CONTINUOUS
10
6.49016
20
-3.02362
11
6.44094
21
-3.02362
0
LINE
8
BLACK
6
CONTINUOUS
10
6.44094
20
-3.02362
11
6.43868
21
-3.02317
0
LINE
8
BLACK
6
CONTINUOUS
10
6.43868
20
-3.02317
11
6.43677
21
-3.02189
0
LINE
8
BLACK
6
CONTINUOUS
10
6.43677
20
-3.02189
11
6.43549
21
-3.01998
0
LINE
8
BLACK
6
CONTINUOUS
10
6.43549
20
-3.01998
11
6.43504
21
-3.01772
0
LINE
8
BLACK
6
CONTINUOUS
10
6.43504
20
-3.01772
11
6.43504
21
-3.00591
0
LINE
8
BLACK
6
CONTINUOUS
10
6.43504
20
-3.00591
11
6.43549
21
-3.00365
0
LINE
8
BLACK
6
CONTINUOUS
10
6.43549
20
-3.00365
11
6.43677
21
-3.00173
0
LINE
8
BLACK
6
CONTINUOUS
10
6.43677
20
-3.00173
11
6.43868
21
-3.00045
0
LINE
8
BLACK
6
CONTINUOUS
10
6.43868
20
-3.00045
11
6.44094
21
-3
0
LINE
8
BLACK
6
CONTINUOUS
10
6.44094
20
-3
11
6.49016
21
-3
0
LINE
8
BLACK
6
CONTINUOUS
10
6.49016
20
-3
11
6.49242
21
-3.00045
0
LINE
8
BLACK
6
CONTINUOUS
10
4.58494
20
-3.00045
11
4.58685
21
-3.00173
0
LINE
8
BLACK
6
CONTINUOUS
10
4.58685
20
-3.00173
11
4.58813
21
-3.00365
0
LINE
8
BLACK
6
CONTINUOUS
10
4.58813
20
-3.00365
11
4.58858
21
-3.00591
0
LINE
8
BLACK
6
CONTINUOUS
10
4.58858
20
-3.00591
11
4.58858
21
-3.01772
0
LINE
8
BLACK
6
CONTINUOUS
10
4.58858
20
-3.01772
11
4.58813
21
-3.01998
0
LINE
8
BLACK
6
CONTINUOUS
10
4.58813
20
-3.01998
11
4.58685
21
-3.02189
0
LINE
8
BLACK
6
CONTINUOUS
10
4.58685
20
-3.02189
11
4.58494
21
-3.02317
0
LINE
8
BLACK
6
CONTINUOUS
10
4.58494
20
-3.02317
11
4.58268
21
-3.02362
0
LINE
8
BLACK
6
CONTINUOUS
10
4.58268
20
-3.02362
11
4.53346
21
-3.02362
0
LINE
8
BLACK
6
CONTINUOUS
10
4.53346
20
-3.02362
11
4.5312
21
-3.02317
0
LINE
8
BLACK
6
CONTINUOUS
10
4.5312
20
-3.02317
11
4.52929
21
-3.02189
0
LINE
8
BLACK
6
CONTINUOUS
10
4.52929
20
-3.02189
11
4.52801
21
-3.01998
0
LINE
8
BLACK
6
CONTINUOUS
10
4.52801
20
-3.01998
11
4.52756
21
-3.01772
0
LINE
8
BLACK
6
CONTINUOUS
10
4.52756
20
-3.01772
11
4.52756
21
-3.00591
0
LINE
8
BLACK
6
CONTINUOUS
10
4.52756
20
-3.00591
11
4.52801
21
-3.00365
0
LINE
8
BLACK
6
CONTINUOUS
10
4.52801
20
-3.00365
11
4.52929
21
-3.00173
0
LINE
8
BLACK
6
CONTINUOUS
10
4.52929
20
-3.00173
11
4.5312
21
-3.00045
0
LINE
8
BLACK
6
CONTINUOUS
10
4.5312
20
-3.00045
11
4.53346
21
-3
0
LINE
8
BLACK
6
CONTINUOUS
10
4.53346
20
-3
11
4.58268
21
-3
0
LINE
8
BLACK
6
CONTINUOUS
10
4.58268
20
-3
11
4.58494
21
-3.00045
0
LINE
8
BLACK
6
CONTINUOUS
10
6.3955
20
-2.93776
11
6.39869
21
-2.93989
0
LINE
8
BLACK
6
CONTINUOUS
10
6.39869
20
-2.93989
11
6.40083
21
-2.94308
0
LINE
8
BLACK
6
CONTINUOUS
10
6.40083
20
-2.94308
11
6.40157
21
-2.94685
0
LINE
8
BLACK
6
CONTINUOUS
10
6.40157
20
-2.94685
11
6.40157
21
-2.97441
0
LINE
8
BLACK
6
CONTINUOUS
10
6.40157
20
-2.97441
11
6.40083
21
-2.97818
0
LINE
8
BLACK
6
CONTINUOUS
10
6.40083
20
-2.97818
11
6.39869
21
-2.98137
0
LINE
8
BLACK
6
CONTINUOUS
10
6.39869
20
-2.98137
11
6.3955
21
-2.9835
0
LINE
8
BLACK
6
CONTINUOUS
10
6.3955
20
-2.9835
11
6.39173
21
-2.98425
0
LINE
8
BLACK
6
CONTINUOUS
10
6.39173
20
-2.98425
11
6.34055
21
-2.98425
0
LINE
8
BLACK
6
CONTINUOUS
10
6.34055
20
-2.98425
11
6.33678
21
-2.9835
0
LINE
8
BLACK
6
CONTINUOUS
10
6.33678
20
-2.9835
11
6.33359
21
-2.98137
0
LINE
8
BLACK
6
CONTINUOUS
10
6.33359
20
-2.98137
11
6.33146
21
-2.97818
0
LINE
8
BLACK
6
CONTINUOUS
10
6.33146
20
-2.97818
11
6.33071
21
-2.97441
0
LINE
8
BLACK
6
CONTINUOUS
10
6.33071
20
-2.97441
11
6.33071
21
-2.94685
0
LINE
8
BLACK
6
CONTINUOUS
10
6.33071
20
-2.94685
11
6.33146
21
-2.94308
0
LINE
8
BLACK
6
CONTINUOUS
10
6.33146
20
-2.94308
11
6.33359
21
-2.93989
0
LINE
8
BLACK
6
CONTINUOUS
10
6.33359
20
-2.93989
11
6.33678
21
-2.93776
0
LINE
8
BLACK
6
CONTINUOUS
10
6.33678
20
-2.93776
11
6.34055
21
-2.93701
0
LINE
8
BLACK
6
CONTINUOUS
10
6.34055
20
-2.93701
11
6.39173
21
-2.93701
0
LINE
8
BLACK
6
CONTINUOUS
10
6.39173
20
-2.93701
11
6.3955
21
-2.93776
0
LINE
8
BLACK
6
CONTINUOUS
10
4.68684
20
-2.93776
11
4.69003
21
-2.93989
0
LINE
8
BLACK
6
CONTINUOUS
10
4.69003
20
-2.93989
11
4.69216
21
-2.94308
0
LINE
8
BLACK
6
CONTINUOUS
10
4.69216
20
-2.94308
11
4.69291
21
-2.94685
0
LINE
8
BLACK
6
CONTINUOUS
10
4.69291
20
-2.94685
11
4.69291
21
-2.97441
0
LINE
8
BLACK
6
CONTINUOUS
10
4.69291
20
-2.97441
11
4.69216
21
-2.97818
0
LINE
8
BLACK
6
CONTINUOUS
10
4.69216
20
-2.97818
11
4.69003
21
-2.98137
0
LINE
8
BLACK
6
CONTINUOUS
10
4.69003
20
-2.98137
11
4.68684
21
-2.9835
0
LINE
8
BLACK
6
CONTINUOUS
10
4.68684
20
-2.9835
11
4.68307
21
-2.98425
0
LINE
8
BLACK
6
CONTINUOUS
10
4.68307
20
-2.98425
11
4.63189
21
-2.98425
0
LINE
8
BLACK
6
CONTINUOUS
10
4.63189
20
-2.98425
11
4.62812
21
-2.9835
0
LINE
8
BLACK
6
CONTINUOUS
10
4.62812
20
-2.9835
11
4.62493
21
-2.98137
0
LINE
8
BLACK
6
CONTINUOUS
10
4.62493
20
-2.98137
11
4.6228
21
-2.97818
0
LINE
8
BLACK
6
CONTINUOUS
10
4.6228
20
-2.97818
11
4.62205
21
-2.97441
0
LINE
8
BLACK
6
CONTINUOUS
10
4.62205
20
-2.97441
11
4.62205
21
-2.94685
0
LINE
8
BLACK
6
CONTINUOUS
10
4.62205
20
-2.94685
11
4.6228
21
-2.94308
0
LINE
8
BLACK
6
CONTINUOUS
10
4.6228
20
-2.94308
11
4.62493
21
-2.93989
0
LINE
8
BLACK
6
CONTINUOUS
10
4.62493
20
-2.93989
11
4.62812
21
-2.93776
0
LINE
8
BLACK
6
CONTINUOUS
10
4.62812
20
-2.93776
11
4.63189
21
-2.93701
0
LINE
8
BLACK
6
CONTINUOUS
10
4.63189
20
-2.93701
11
4.68307
21
-2.93701
0
LINE
8
BLACK
6
CONTINUOUS
10
4.68307
20
-2.93701
11
4.68684
21
-2.93776
0
LINE
8
BLACK
6
CONTINUOUS
10
5.28071
20
-2.98327
11
5.21929
21
-2.98327
0
LINE
8
BLACK
6
CONTINUOUS
10
5.21929
20
-2.98327
11
5.21929
21
-2.95768
0
LINE
8
BLACK
6
CONTINUOUS
10
5.21929
20
-2.95768
11
5.28071
21
-2.95768
0
LINE
8
BLACK
6
CONTINUOUS
10
5.28071
20
-2.95768
11
5.28071
21
-2.98327
0
LINE
8
BLACK
6
CONTINUOUS
10
5.38701
20
-2.98327
11
5.32559
21
-2.98327
0
LINE
8
BLACK
6
CONTINUOUS
10
5.32559
20
-2.98327
11
5.32559
21
-2.95768
0
LINE
8
BLACK
6
CONTINUOUS
10
5.32559
20
-2.95768
11
5.38701
21
-2.95768
0
LINE
8
BLACK
6
CONTINUOUS
10
5.38701
20
-2.95768
11
5.38701
21
-2.98327
0
LINE
8
BLACK
6
CONTINUOUS
10
5.38701
20
-2.94587
11
5.32559
21
-2.94587
0
LINE
8
BLACK
6
CONTINUOUS
10
5.32559
20
-2.94587
11
5.32559
21
-2.92028
0
LINE
8
BLACK
6
CONTINUOUS
10
5.32559
20
-2.92028
11
5.38701
21
-2.92028
0
LINE
8
BLACK
6
CONTINUOUS
10
5.38701
20
-2.92028
11
5.38701
21
-2.94587
0
LINE
8
BLACK
6
CONTINUOUS
10
5.28071
20
-2.90846
11
5.21929
21
-2.90846
0
LINE
8
BLACK
6
CONTINUOUS
10
5.21929
20
-2.90846
11
5.21929
21
-2.88287
0
LINE
8
BLACK
6
CONTINUOUS
10
5.21929
20
-2.88287
11
5.28071
21
-2.88287
0
LINE
8
BLACK
6
CONTINUOUS
10
5.28071
20
-2.88287
11
5.28071
21
-2.90846
0
LINE
8
BLACK
6
CONTINUOUS
10
5.38701
20
-2.90846
11
5.32559
21
-2.90846
0
LINE
8
BLACK
6
CONTINUOUS
10
5.32559
20
-2.90846
11
5.32559
21
-2.88287
0
LINE
8
BLACK
6
CONTINUOUS
10
5.32559
20
-2.88287
11
5.38701
21
-2.88287
0
LINE
8
BLACK
6
CONTINUOUS
10
5.38701
20
-2.88287
11
5.38701
21
-2.90846
0
LINE
8
BLACK
6
CONTINUOUS
10
5.26361
20
-2.78323
11
5.2668
21
-2.78536
0
LINE
8
BLACK
6
CONTINUOUS
10
5.2668
20
-2.78536
11
5.26894
21
-2.78856
0
LINE
8
BLACK
6
CONTINUOUS
10
5.26894
20
-2.78856
11
5.26969
21
-2.79232
0
LINE
8
BLACK
6
CONTINUOUS
10
5.26969
20
-2.79232
11
5.26969
21
-2.82972
0
LINE
8
BLACK
6
CONTINUOUS
10
5.26969
20
-2.82972
11
5.26894
21
-2.83349
0
LINE
8
BLACK
6
CONTINUOUS
10
5.26894
20
-2.83349
11
5.2668
21
-2.83668
0
LINE
8
BLACK
6
CONTINUOUS
10
5.2668
20
-2.83668
11
5.26361
21
-2.83882
0
LINE
8
BLACK
6
CONTINUOUS
10
5.26361
20
-2.83882
11
5.25984
21
-2.83957
0
LINE
8
BLACK
6
CONTINUOUS
10
5.25984
20
-2.83957
11
5.24016
21
-2.83957
0
LINE
8
BLACK
6
CONTINUOUS
10
5.24016
20
-2.83957
11
5.23639
21
-2.83882
0
LINE
8
BLACK
6
CONTINUOUS
10
5.23639
20
-2.83882
11
5.2332
21
-2.83668
0
LINE
8
BLACK
6
CONTINUOUS
10
5.2332
20
-2.83668
11
5.23106
21
-2.83349
0
LINE
8
BLACK
6
CONTINUOUS
10
5.23106
20
-2.83349
11
5.23031
21
-2.82972
0
LINE
8
BLACK
6
CONTINUOUS
10
5.23031
20
-2.82972
11
5.23031
21
-2.79232
0
LINE
8
BLACK
6
CONTINUOUS
10
5.23031
20
-2.79232
11
5.23106
21
-2.78856
0
LINE
8
BLACK
6
CONTINUOUS
10
5.23106
20
-2.78856
11
5.2332
21
-2.78536
0
LINE
8
BLACK
6
CONTINUOUS
10
5.2332
20
-2.78536
11
5.23639
21
-2.78323
0
LINE
8
BLACK
6
CONTINUOUS
10
5.23639
20
-2.78323
11
5.24016
21
-2.78248
0
LINE
8
BLACK
6
CONTINUOUS
10
5.24016
20
-2.78248
11
5.25984
21
-2.78248
0
LINE
8
BLACK
6
CONTINUOUS
10
5.25984
20
-2.78248
11
5.26361
21
-2.78323
0
LINE
8
BLACK
6
CONTINUOUS
10
5.33841
20
-2.78323
11
5.34161
21
-2.78536
0
LINE
8
BLACK
6
CONTINUOUS
10
5.34161
20
-2.78536
11
5.34374
21
-2.78856
0
LINE
8
BLACK
6
CONTINUOUS
10
5.34374
20
-2.78856
11
5.34449
21
-2.79232
0
LINE
8
BLACK
6
CONTINUOUS
10
5.34449
20
-2.79232
11
5.34449
21
-2.82972
0
LINE
8
BLACK
6
CONTINUOUS
10
5.34449
20
-2.82972
11
5.34374
21
-2.83349
0
LINE
8
BLACK
6
CONTINUOUS
10
5.34374
20
-2.83349
11
5.34161
21
-2.83668
0
LINE
8
BLACK
6
CONTINUOUS
10
5.34161
20
-2.83668
11
5.33841
21
-2.83882
0
LINE
8
BLACK
6
CONTINUOUS
10
5.33841
20
-2.83882
11
5.33465
21
-2.83957
0
LINE
8
BLACK
6
CONTINUOUS
10
5.33465
20
-2.83957
11
5.31496
21
-2.83957
0
LINE
8
BLACK
6
CONTINUOUS
10
5.31496
20
-2.83957
11
5.31119
21
-2.83882
0
LINE
8
BLACK
6
CONTINUOUS
10
5.31119
20
-2.83882
11
5.308
21
-2.83668
0
LINE
8
BLACK
6
CONTINUOUS
10
5.308
20
-2.83668
11
5.30587
21
-2.83349
0
LINE
8
BLACK
6
CONTINUOUS
10
5.30587
20
-2.83349
11
5.30512
21
-2.82972
0
LINE
8
BLACK
6
CONTINUOUS
10
5.30512
20
-2.82972
11
5.30512
21
-2.79232
0
LINE
8
BLACK
6
CONTINUOUS
10
5.30512
20
-2.79232
11
5.30587
21
-2.78856
0
LINE
8
BLACK
6
CONTINUOUS
10
5.30587
20
-2.78856
11
5.308
21
-2.78536
0
LINE
8
BLACK
6
CONTINUOUS
10
5.308
20
-2.78536
11
5.31119
21
-2.78323
0
LINE
8
BLACK
6
CONTINUOUS
10
5.31119
20
-2.78323
11
5.31496
21
-2.78248
0
LINE
8
BLACK
6
CONTINUOUS
10
5.31496
20
-2.78248
11
5.33465
21
-2.78248
0
LINE
8
BLACK
6
CONTINUOUS
10
5.33465
20
-2.78248
11
5.33841
21
-2.78323
0
LINE
8
BLACK
6
CONTINUOUS
10
5.26755
20
-2.68185
11
5.27074
21
-2.68399
0
LINE
8
BLACK
6
CONTINUOUS
10
5.27074
20
-2.68399
11
5.27287
21
-2.68718
0
LINE
8
BLACK
6
CONTINUOUS
10
5.27287
20
-2.68718
11
5.27362
21
-2.69094
0
LINE
8
BLACK
6
CONTINUOUS
10
5.27362
20
-2.69094
11
5.27362
21
-2.74213
0
LINE
8
BLACK
6
CONTINUOUS
10
5.27362
20
-2.74213
11
5.27287
21
-2.74589
0
LINE
8
BLACK
6
CONTINUOUS
10
5.27287
20
-2.74589
11
5.27074
21
-2.74909
0
LINE
8
BLACK
6
CONTINUOUS
10
5.27074
20
-2.74909
11
5.26755
21
-2.75122
0
LINE
8
BLACK
6
CONTINUOUS
10
5.26755
20
-2.75122
11
5.26378
21
-2.75197
0
LINE
8
BLACK
6
CONTINUOUS
10
5.26378
20
-2.75197
11
5.23819
21
-2.75197
0
LINE
8
BLACK
6
CONTINUOUS
10
5.23819
20
-2.75197
11
5.23442
21
-2.75122
0
LINE
8
BLACK
6
CONTINUOUS
10
5.23442
20
-2.75122
11
5.23123
21
-2.74909
0
LINE
8
BLACK
6
CONTINUOUS
10
5.23123
20
-2.74909
11
5.2291
21
-2.74589
0
LINE
8
BLACK
6
CONTINUOUS
10
5.2291
20
-2.74589
11
5.22835
21
-2.74213
0
LINE
8
BLACK
6
CONTINUOUS
10
5.22835
20
-2.74213
11
5.22835
21
-2.69094
0
LINE
8
BLACK
6
CONTINUOUS
10
5.22835
20
-2.69094
11
5.2291
21
-2.68718
0
LINE
8
BLACK
6
CONTINUOUS
10
5.2291
20
-2.68718
11
5.23123
21
-2.68399
0
LINE
8
BLACK
6
CONTINUOUS
10
5.23123
20
-2.68399
11
5.23442
21
-2.68185
0
LINE
8
BLACK
6
CONTINUOUS
10
5.23442
20
-2.68185
11
5.23819
21
-2.6811
0
LINE
8
BLACK
6
CONTINUOUS
10
5.23819
20
-2.6811
11
5.26378
21
-2.6811
0
LINE
8
BLACK
6
CONTINUOUS
10
5.26378
20
-2.6811
11
5.26755
21
-2.68185
0
LINE
8
BLACK
6
CONTINUOUS
10
5.38369
20
-2.68185
11
5.38688
21
-2.68399
0
LINE
8
BLACK
6
CONTINUOUS
10
5.38688
20
-2.68399
11
5.38901
21
-2.68718
0
LINE
8
BLACK
6
CONTINUOUS
10
5.38901
20
-2.68718
11
5.38976
21
-2.69094
0
LINE
8
BLACK
6
CONTINUOUS
10
5.38976
20
-2.69094
11
5.38976
21
-2.74213
0
LINE
8
BLACK
6
CONTINUOUS
10
5.38976
20
-2.74213
11
5.38901
21
-2.74589
0
LINE
8
BLACK
6
CONTINUOUS
10
5.38901
20
-2.74589
11
5.38688
21
-2.74909
0
LINE
8
BLACK
6
CONTINUOUS
10
5.38688
20
-2.74909
11
5.38369
21
-2.75122
0
LINE
8
BLACK
6
CONTINUOUS
10
5.38369
20
-2.75122
11
5.37992
21
-2.75197
0
LINE
8
BLACK
6
CONTINUOUS
10
5.37992
20
-2.75197
11
5.35433
21
-2.75197
0
LINE
8
BLACK
6
CONTINUOUS
10
5.35433
20
-2.75197
11
5.35056
21
-2.75122
0
LINE
8
BLACK
6
CONTINUOUS
10
5.35056
20
-2.75122
11
5.34737
21
-2.74909
0
LINE
8
BLACK
6
CONTINUOUS
10
5.34737
20
-2.74909
11
5.34524
21
-2.74589
0
LINE
8
BLACK
6
CONTINUOUS
10
5.34524
20
-2.74589
11
5.34449
21
-2.74213
0
LINE
8
BLACK
6
CONTINUOUS
10
5.34449
20
-2.74213
11
5.34449
21
-2.69094
0
LINE
8
BLACK
6
CONTINUOUS
10
5.34449
20
-2.69094
11
5.34524
21
-2.68718
0
LINE
8
BLACK
6
CONTINUOUS
10
5.34524
20
-2.68718
11
5.34737
21
-2.68399
0
LINE
8
BLACK
6
CONTINUOUS
10
5.34737
20
-2.68399
11
5.35056
21
-2.68185
0
LINE
8
BLACK
6
CONTINUOUS
10
5.35056
20
-2.68185
11
5.35433
21
-2.6811
0
LINE
8
BLACK
6
CONTINUOUS
10
5.35433
20
-2.6811
11
5.37992
21
-2.6811
0
LINE
8
BLACK
6
CONTINUOUS
10
5.37992
20
-2.6811
11
5.38369
21
-2.68185
0
LINE
8
BLACK
6
CONTINUOUS
10
5.63566
20
-2.66217
11
5.63885
21
-2.6643
0
LINE
8
BLACK
6
CONTINUOUS
10
5.63885
20
-2.6643
11
5.64098
21
-2.66749
0
LINE
8
BLACK
6
CONTINUOUS
10
5.64098
20
-2.66749
11
5.64173
21
-2.67126
0
LINE
8
BLACK
6
CONTINUOUS
10
5.64173
20
-2.67126
11
5.64173
21
-2.72244
0
LINE
8
BLACK
6
CONTINUOUS
10
5.64173
20
-2.72244
11
5.64098
21
-2.72621
0
LINE
8
BLACK
6
CONTINUOUS
10
5.64098
20
-2.72621
11
5.63885
21
-2.7294
0
LINE
8
BLACK
6
CONTINUOUS
10
5.63885
20
-2.7294
11
5.63566
21
-2.73153
0
LINE
8
BLACK
6
CONTINUOUS
10
5.63566
20
-2.73153
11
5.63189
21
-2.73228
0
LINE
8
BLACK
6
CONTINUOUS
10
5.63189
20
-2.73228
11
5.59941
21
-2.73228
0
LINE
8
BLACK
6
CONTINUOUS
10
5.59941
20
-2.73228
11
5.59564
21
-2.73153
0
LINE
8
BLACK
6
CONTINUOUS
10
5.59564
20
-2.73153
11
5.59245
21
-2.7294
0
LINE
8
BLACK
6
CONTINUOUS
10
5.59245
20
-2.7294
11
5.59032
21
-2.72621
0
LINE
8
BLACK
6
CONTINUOUS
10
5.59032
20
-2.72621
11
5.58957
21
-2.72244
0
LINE
8
BLACK
6
CONTINUOUS
10
5.58957
20
-2.72244
11
5.58957
21
-2.67126
0
LINE
8
BLACK
6
CONTINUOUS
10
5.58957
20
-2.67126
11
5.59032
21
-2.66749
0
LINE
8
BLACK
6
CONTINUOUS
10
5.59032
20
-2.66749
11
5.59245
21
-2.6643
0
LINE
8
BLACK
6
CONTINUOUS
10
5.59245
20
-2.6643
11
5.59564
21
-2.66217
0
LINE
8
BLACK
6
CONTINUOUS
10
5.59564
20
-2.66217
11
5.59941
21
-2.66142
0
LINE
8
BLACK
6
CONTINUOUS
10
5.59941
20
-2.66142
11
5.63189
21
-2.66142
0
LINE
8
BLACK
6
CONTINUOUS
10
5.63189
20
-2.66142
11
5.63566
21
-2.66217
0
LINE
8
BLACK
6
CONTINUOUS
10
5.75869
20
-2.66217
11
5.76188
21
-2.6643
0
LINE
8
BLACK
6
CONTINUOUS
10
5.76188
20
-2.6643
11
5.76401
21
-2.66749
0
LINE
8
BLACK
6
CONTINUOUS
10
5.76401
20
-2.66749
11
5.76476
21
-2.67126
0
LINE
8
BLACK
6
CONTINUOUS
10
5.76476
20
-2.67126
11
5.76476
21
-2.72244
0
LINE
8
BLACK
6
CONTINUOUS
10
5.76476
20
-2.72244
11
5.76401
21
-2.72621
0
LINE
8
BLACK
6
CONTINUOUS
10
5.76401
20
-2.72621
11
5.76188
21
-2.7294
0
LINE
8
BLACK
6
CONTINUOUS
10
5.76188
20
-2.7294
11
5.75869
21
-2.73153
0
LINE
8
BLACK
6
CONTINUOUS
10
5.75869
20
-2.73153
11
5.75492
21
-2.73228
0
LINE
8
BLACK
6
CONTINUOUS
10
5.75492
20
-2.73228
11
5.72244
21
-2.73228
0
LINE
8
BLACK
6
CONTINUOUS
10
5.72244
20
-2.73228
11
5.71867
21
-2.73153
0
LINE
8
BLACK
6
CONTINUOUS
10
5.71867
20
-2.73153
11
5.71548
21
-2.7294
0
LINE
8
BLACK
6
CONTINUOUS
10
5.71548
20
-2.7294
11
5.71335
21
-2.72621
0
LINE
8
BLACK
6
CONTINUOUS
10
5.71335
20
-2.72621
11
5.7126
21
-2.72244
0
LINE
8
BLACK
6
CONTINUOUS
10
5.7126
20
-2.72244
11
5.7126
21
-2.67126
0
LINE
8
BLACK
6
CONTINUOUS
10
5.7126
20
-2.67126
11
5.71335
21
-2.66749
0
LINE
8
BLACK
6
CONTINUOUS
10
5.71335
20
-2.66749
11
5.71548
21
-2.6643
0
LINE
8
BLACK
6
CONTINUOUS
10
5.71548
20
-2.6643
11
5.71867
21
-2.66217
0
LINE
8
BLACK
6
CONTINUOUS
10
5.71867
20
-2.66217
11
5.72244
21
-2.66142
0
LINE
8
BLACK
6
CONTINUOUS
10
5.72244
20
-2.66142
11
5.75492
21
-2.66142
0
LINE
8
BLACK
6
CONTINUOUS
10
5.75492
20
-2.66142
11
5.75869
21
-2.66217
0
LINE
8
BLACK
6
CONTINUOUS
10
5.76969
20
-2.62008
11
5.67913
21
-2.62008
0
LINE
8
BLACK
6
CONTINUOUS
10
5.67913
20
-2.62008
11
5.67913
21
-2.48228
0
LINE
8
BLACK
6
CONTINUOUS
10
5.67913
20
-2.48228
11
5.76969
21
-2.48228
0
LINE
8
BLACK
6
CONTINUOUS
10
5.76969
20
-2.48228
11
5.76969
21
-2.62008
0
LINE
8
BLACK
6
CONTINUOUS
10
5.42404
20
-2.50272
11
5.42724
21
-2.50485
0
LINE
8
BLACK
6
CONTINUOUS
10
5.42724
20
-2.50485
11
5.42937
21
-2.50804
0
LINE
8
BLACK
6
CONTINUOUS
10
5.42937
20
-2.50804
11
5.43012
21
-2.51181
0
LINE
8
BLACK
6
CONTINUOUS
10
5.43012
20
-2.51181
11
5.43012
21
-2.5315
0
LINE
8
BLACK
6
CONTINUOUS
10
5.43012
20
-2.5315
11
5.42937
21
-2.53526
0
LINE
8
BLACK
6
CONTINUOUS
10
5.42937
20
-2.53526
11
5.42724
21
-2.53846
0
LINE
8
BLACK
6
CONTINUOUS
10
5.42724
20
-2.53846
11
5.42404
21
-2.54059
0
LINE
8
BLACK
6
CONTINUOUS
10
5.42404
20
-2.54059
11
5.42028
21
-2.54134
0
LINE
8
BLACK
6
CONTINUOUS
10
5.42028
20
-2.54134
11
5.38287
21
-2.54134
0
LINE
8
BLACK
6
CONTINUOUS
10
5.38287
20
-2.54134
11
5.37911
21
-2.54059
0
LINE
8
BLACK
6
CONTINUOUS
10
5.37911
20
-2.54059
11
5.37591
21
-2.53846
0
LINE
8
BLACK
6
CONTINUOUS
10
5.37591
20
-2.53846
11
5.37378
21
-2.53526
0
LINE
8
BLACK
6
CONTINUOUS
10
5.37378
20
-2.53526
11
5.37303
21
-2.5315
0
LINE
8
BLACK
6
CONTINUOUS
10
5.37303
20
-2.5315
11
5.37303
21
-2.51181
0
LINE
8
BLACK
6
CONTINUOUS
10
5.37303
20
-2.51181
11
5.37378
21
-2.50804
0
LINE
8
BLACK
6
CONTINUOUS
10
5.37378
20
-2.50804
11
5.37591
21
-2.50485
0
LINE
8
BLACK
6
CONTINUOUS
10
5.37591
20
-2.50485
11
5.37911
21
-2.50272
0
LINE
8
BLACK
6
CONTINUOUS
10
5.37911
20
-2.50272
11
5.38287
21
-2.50197
0
LINE
8
BLACK
6
CONTINUOUS
10
5.38287
20
-2.50197
11
5.42028
21
-2.50197
0
LINE
8
BLACK
6
CONTINUOUS
10
5.42028
20
-2.50197
11
5.42404
21
-2.50272
0
LINE
8
BLACK
6
CONTINUOUS
10
5.33644
20
-2.50075
11
5.33964
21
-2.50288
0
LINE
8
BLACK
6
CONTINUOUS
10
5.33964
20
-2.50288
11
5.34177
21
-2.50608
0
LINE
8
BLACK
6
CONTINUOUS
10
5.34177
20
-2.50608
11
5.34252
21
-2.50984
0
LINE
8
BLACK
6
CONTINUOUS
10
5.34252
20
-2.50984
11
5.34252
21
-2.53051
0
LINE
8
BLACK
6
CONTINUOUS
10
5.34252
20
-2.53051
11
5.34177
21
-2.53428
0
LINE
8
BLACK
6
CONTINUOUS
10
5.34177
20
-2.53428
11
5.33964
21
-2.53747
0
LINE
8
BLACK
6
CONTINUOUS
10
5.33964
20
-2.53747
11
5.33644
21
-2.53961
0
LINE
8
BLACK
6
CONTINUOUS
10
5.33644
20
-2.53961
11
5.33268
21
-2.54035
0
LINE
8
BLACK
6
CONTINUOUS
10
5.33268
20
-2.54035
11
5.29724
21
-2.54035
0
LINE
8
BLACK
6
CONTINUOUS
10
5.29724
20
-2.54035
11
5.29348
21
-2.53961
0
LINE
8
BLACK
6
CONTINUOUS
10
5.29348
20
-2.53961
11
5.29028
21
-2.53747
0
LINE
8
BLACK
6
CONTINUOUS
10
5.29028
20
-2.53747
11
5.28815
21
-2.53428
0
LINE
8
BLACK
6
CONTINUOUS
10
5.28815
20
-2.53428
11
5.2874
21
-2.53051
0
LINE
8
BLACK
6
CONTINUOUS
10
5.2874
20
-2.53051
11
5.2874
21
-2.50984
0
LINE
8
BLACK
6
CONTINUOUS
10
5.2874
20
-2.50984
11
5.28815
21
-2.50608
0
LINE
8
BLACK
6
CONTINUOUS
10
5.28815
20
-2.50608
11
5.29028
21
-2.50288
0
LINE
8
BLACK
6
CONTINUOUS
10
5.29028
20
-2.50288
11
5.29348
21
-2.50075
0
LINE
8
BLACK
6
CONTINUOUS
10
5.29348
20
-2.50075
11
5.29724
21
-2.5
0
LINE
8
BLACK
6
CONTINUOUS
10
5.29724
20
-2.5
11
5.33268
21
-2.5
0
LINE
8
BLACK
6
CONTINUOUS
10
5.33268
20
-2.5
11
5.33644
21
-2.50075
0
LINE
8
BLACK
6
CONTINUOUS
10
5.24983
20
-2.50075
11
5.25302
21
-2.50288
0
LINE
8
BLACK
6
CONTINUOUS
10
5.25302
20
-2.50288
11
5.25516
21
-2.50608
0
LINE
8
BLACK
6
CONTINUOUS
10
5.25516
20
-2.50608
11
5.25591
21
-2.50984
0
LINE
8
BLACK
6
CONTINUOUS
10
5.25591
20
-2.50984
11
5.25591
21
-2.53051
0
LINE
8
BLACK
6
CONTINUOUS
10
5.25591
20
-2.53051
11
5.25516
21
-2.53428
0
LINE
8
BLACK
6
CONTINUOUS
10
5.25516
20
-2.53428
11
5.25302
21
-2.53747
0
LINE
8
BLACK
6
CONTINUOUS
10
5.25302
20
-2.53747
11
5.24983
21
-2.53961
0
LINE
8
BLACK
6
CONTINUOUS
10
5.24983
20
-2.53961
11
5.24606
21
-2.54035
0
LINE
8
BLACK
6
CONTINUOUS
10
5.24606
20
-2.54035
11
5.21063
21
-2.54035
0
LINE
8
BLACK
6
CONTINUOUS
10
5.21063
20
-2.54035
11
5.20686
21
-2.53961
0
LINE
8
BLACK
6
CONTINUOUS
10
5.20686
20
-2.53961
11
5.20367
21
-2.53747
0
LINE
8
BLACK
6
CONTINUOUS
10
5.20367
20
-2.53747
11
5.20154
21
-2.53428
0
LINE
8
BLACK
6
CONTINUOUS
10
5.20154
20
-2.53428
11
5.20079
21
-2.53051
0
LINE
8
BLACK
6
CONTINUOUS
10
5.20079
20
-2.53051
11
5.20079
21
-2.50984
0
LINE
8
BLACK
6
CONTINUOUS
10
5.20079
20
-2.50984
11
5.20154
21
-2.50608
0
LINE
8
BLACK
6
CONTINUOUS
10
5.20154
20
-2.50608
11
5.20367
21
-2.50288
0
LINE
8
BLACK
6
CONTINUOUS
10
5.20367
20
-2.50288
11
5.20686
21
-2.50075
0
LINE
8
BLACK
6
CONTINUOUS
10
5.20686
20
-2.50075
11
5.21063
21
-2.5
0
LINE
8
BLACK
6
CONTINUOUS
10
5.21063
20
-2.5
11
5.24606
21
-2.5
0
LINE
8
BLACK
6
CONTINUOUS
10
5.24606
20
-2.5
11
5.24983
21
-2.50075
0
LINE
8
BLACK
6
CONTINUOUS
10
5.33644
20
-2.4289
11
5.33964
21
-2.43103
0
LINE
8
BLACK
6
CONTINUOUS
10
5.33964
20
-2.43103
11
5.34177
21
-2.43423
0
LINE
8
BLACK
6
CONTINUOUS
10
5.34177
20
-2.43423
11
5.34252
21
-2.43799
0
LINE
8
BLACK
6
CONTINUOUS
10
5.34252
20
-2.43799
11
5.34252
21
-2.45866
0
LINE
8
BLACK
6
CONTINUOUS
10
5.34252
20
-2.45866
11
5.34177
21
-2.46243
0
LINE
8
BLACK
6
CONTINUOUS
10
5.34177
20
-2.46243
11
5.33964
21
-2.46562
0
LINE
8
BLACK
6
CONTINUOUS
10
5.33964
20
-2.46562
11
5.33644
21
-2.46775
0
LINE
8
BLACK
6
CONTINUOUS
10
5.33644
20
-2.46775
11
5.33268
21
-2.4685
0
LINE
8
BLACK
6
CONTINUOUS
10
5.33268
20
-2.4685
11
5.29724
21
-2.4685
0
LINE
8
BLACK
6
CONTINUOUS
10
5.29724
20
-2.4685
11
5.29348
21
-2.46775
0
LINE
8
BLACK
6
CONTINUOUS
10
5.29348
20
-2.46775
11
5.29028
21
-2.46562
0
LINE
8
BLACK
6
CONTINUOUS
10
5.29028
20
-2.46562
11
5.28815
21
-2.46243
0
LINE
8
BLACK
6
CONTINUOUS
10
5.28815
20
-2.46243
11
5.2874
21
-2.45866
0
LINE
8
BLACK
6
CONTINUOUS
10
5.2874
20
-2.45866
11
5.2874
21
-2.43799
0
LINE
8
BLACK
6
CONTINUOUS
10
5.2874
20
-2.43799
11
5.28815
21
-2.43423
0
LINE
8
BLACK
6
CONTINUOUS
10
5.28815
20
-2.43423
11
5.29028
21
-2.43103
0
LINE
8
BLACK
6
CONTINUOUS
10
5.29028
20
-2.43103
11
5.29348
21
-2.4289
0
LINE
8
BLACK
6
CONTINUOUS
10
5.29348
20
-2.4289
11
5.29724
21
-2.42815
0
LINE
8
BLACK
6
CONTINUOUS
10
5.29724
20
-2.42815
11
5.33268
21
-2.42815
0
LINE
8
BLACK
6
CONTINUOUS
10
5.33268
20
-2.42815
11
5.33644
21
-2.4289
0
LINE
8
BLACK
6
CONTINUOUS
10
5.24983
20
-2.4289
11
5.25302
21
-2.43103
0
LINE
8
BLACK
6
CONTINUOUS
10
5.25302
20
-2.43103
11
5.25516
21
-2.43423
0
LINE
8
BLACK
6
CONTINUOUS
10
5.25516
20
-2.43423
11
5.25591
21
-2.43799
0
LINE
8
BLACK
6
CONTINUOUS
10
5.25591
20
-2.43799
11
5.25591
21
-2.45866
0
LINE
8
BLACK
6
CONTINUOUS
10
5.25591
20
-2.45866
11
5.25516
21
-2.46243
0
LINE
8
BLACK
6
CONTINUOUS
10
5.25516
20
-2.46243
11
5.25302
21
-2.46562
0
LINE
8
BLACK
6
CONTINUOUS
10
5.25302
20
-2.46562
11
5.24983
21
-2.46775
0
LINE
8
BLACK
6
CONTINUOUS
10
5.24983
20
-2.46775
11
5.24606
21
-2.4685
0
LINE
8
BLACK
6
CONTINUOUS
10
5.24606
20
-2.4685
11
5.21063
21
-2.4685
0
LINE
8
BLACK
6
CONTINUOUS
10
5.21063
20
-2.4685
11
5.20686
21
-2.46775
0
LINE
8
BLACK
6
CONTINUOUS
10
5.20686
20
-2.46775
11
5.20367
21
-2.46562
0
LINE
8
BLACK
6
CONTINUOUS
10
5.20367
20
-2.46562
11
5.20154
21
-2.46243
0
LINE
8
BLACK
6
CONTINUOUS
10
5.20154
20
-2.46243
11
5.20079
21
-2.45866
0
LINE
8
BLACK
6
CONTINUOUS
10
5.20079
20
-2.45866
11
5.20079
21
-2.43799
0
LINE
8
BLACK
6
CONTINUOUS
10
5.20079
20
-2.43799
11
5.20154
21
-2.43423
0
LINE
8
BLACK
6
CONTINUOUS
10
5.20154
20
-2.43423
11
5.20367
21
-2.43103
0
LINE
8
BLACK
6
CONTINUOUS
10
5.20367
20
-2.43103
11
5.20686
21
-2.4289
0
LINE
8
BLACK
6
CONTINUOUS
10
5.20686
20
-2.4289
11
5.21063
21
-2.42815
0
LINE
8
BLACK
6
CONTINUOUS
10
5.21063
20
-2.42815
11
5.24606
21
-2.42815
0
LINE
8
BLACK
6
CONTINUOUS
10
5.24606
20
-2.42815
11
5.24983
21
-2.4289
0
LINE
8
BLACK
6
CONTINUOUS
10
5.42404
20
-2.42791
11
5.42724
21
-2.43005
0
LINE
8
BLACK
6
CONTINUOUS
10
5.42724
20
-2.43005
11
5.42937
21
-2.43324
0
LINE
8
BLACK
6
CONTINUOUS
10
5.42937
20
-2.43324
11
5.43012
21
-2.43701
0
LINE
8
BLACK
6
CONTINUOUS
10
5.43012
20
-2.43701
11
5.43012
21
-2.45669
0
LINE
8
BLACK
6
CONTINUOUS
10
5.43012
20
-2.45669
11
5.42937
21
-2.46046
0
LINE
8
BLACK
6
CONTINUOUS
10
5.42937
20
-2.46046
11
5.42724
21
-2.46365
0
LINE
8
BLACK
6
CONTINUOUS
10
5.42724
20
-2.46365
11
5.42404
21
-2.46579
0
LINE
8
BLACK
6
CONTINUOUS
10
5.42404
20
-2.46579
11
5.42028
21
-2.46654
0
LINE
8
BLACK
6
CONTINUOUS
10
5.42028
20
-2.46654
11
5.38287
21
-2.46654
0
LINE
8
BLACK
6
CONTINUOUS
10
5.38287
20
-2.46654
11
5.37911
21
-2.46579
0
LINE
8
BLACK
6
CONTINUOUS
10
5.37911
20
-2.46579
11
5.37591
21
-2.46365
0
LINE
8
BLACK
6
CONTINUOUS
10
5.37591
20
-2.46365
11
5.37378
21
-2.46046
0
LINE
8
BLACK
6
CONTINUOUS
10
5.37378
20
-2.46046
11
5.37303
21
-2.45669
0
LINE
8
BLACK
6
CONTINUOUS
10
5.37303
20
-2.45669
11
5.37303
21
-2.43701
0
LINE
8
BLACK
6
CONTINUOUS
10
5.37303
20
-2.43701
11
5.37378
21
-2.43324
0
LINE
8
BLACK
6
CONTINUOUS
10
5.37378
20
-2.43324
11
5.37591
21
-2.43005
0
LINE
8
BLACK
6
CONTINUOUS
10
5.37591
20
-2.43005
11
5.37911
21
-2.42791
0
LINE
8
BLACK
6
CONTINUOUS
10
5.37911
20
-2.42791
11
5.38287
21
-2.42717
0
LINE
8
BLACK
6
CONTINUOUS
10
5.38287
20
-2.42717
11
5.42028
21
-2.42717
0
LINE
8
BLACK
6
CONTINUOUS
10
5.42028
20
-2.42717
11
5.42404
21
-2.42791
0
LINE
8
BLACK
6
CONTINUOUS
10
4.8852
20
-2.38031
11
4.88864
21
-2.38201
0
LINE
8
BLACK
6
CONTINUOUS
10
4.88864
20
-2.38201
11
4.89117
21
-2.38489
0
LINE
8
BLACK
6
CONTINUOUS
10
4.89117
20
-2.38489
11
4.91676
21
-2.42922
0
LINE
8
BLACK
6
CONTINUOUS
10
4.91676
20
-2.42922
11
4.918
21
-2.43285
0
LINE
8
BLACK
6
CONTINUOUS
10
4.918
20
-2.43285
11
4.91775
21
-2.43669
0
LINE
8
BLACK
6
CONTINUOUS
10
4.91775
20
-2.43669
11
4.91605
21
-2.44013
0
LINE
8
BLACK
6
CONTINUOUS
10
4.91605
20
-2.44013
11
4.91316
21
-2.44266
0
LINE
8
BLACK
6
CONTINUOUS
10
4.91316
20
-2.44266
11
4.88929
21
-2.45644
0
LINE
8
BLACK
6
CONTINUOUS
10
4.88929
20
-2.45644
11
4.88566
21
-2.45768
0
LINE
8
BLACK
6
CONTINUOUS
10
4.88566
20
-2.45768
11
4.88182
21
-2.45743
0
LINE
8
BLACK
6
CONTINUOUS
10
4.88182
20
-2.45743
11
4.87838
21
-2.45573
0
LINE
8
BLACK
6
CONTINUOUS
10
4.87838
20
-2.45573
11
4.87585
21
-2.45284
0
LINE
8
BLACK
6
CONTINUOUS
10
4.87585
20
-2.45284
11
4.85026
21
-2.40852
0
LINE
8
BLACK
6
CONTINUOUS
10
4.85026
20
-2.40852
11
4.84902
21
-2.40488
0
LINE
8
BLACK
6
CONTINUOUS
10
4.84902
20
-2.40488
11
4.84927
21
-2.40105
0
LINE
8
BLACK
6
CONTINUOUS
10
4.84927
20
-2.40105
11
4.85097
21
-2.3976
0
LINE
8
BLACK
6
CONTINUOUS
10
4.85097
20
-2.3976
11
4.85386
21
-2.39507
0
LINE
8
BLACK
6
CONTINUOUS
10
4.85386
20
-2.39507
11
4.87773
21
-2.38129
0
LINE
8
BLACK
6
CONTINUOUS
10
4.87773
20
-2.38129
11
4.88136
21
-2.38006
0
LINE
8
BLACK
6
CONTINUOUS
10
4.88136
20
-2.38006
11
4.8852
21
-2.38031
0
LINE
8
BLACK
6
CONTINUOUS
10
6.13113
20
-2.37932
11
6.155
21
-2.3931
0
LINE
8
BLACK
6
CONTINUOUS
10
6.155
20
-2.3931
11
6.15789
21
-2.39563
0
LINE
8
BLACK
6
CONTINUOUS
10
6.15789
20
-2.39563
11
6.15958
21
-2.39908
0
LINE
8
BLACK
6
CONTINUOUS
10
6.15958
20
-2.39908
11
6.15984
21
-2.40291
0
LINE
8
BLACK
6
CONTINUOUS
10
6.15984
20
-2.40291
11
6.1586
21
-2.40655
0
LINE
8
BLACK
6
CONTINUOUS
10
6.1586
20
-2.40655
11
6.13301
21
-2.45087
0
LINE
8
BLACK
6
CONTINUOUS
10
6.13301
20
-2.45087
11
6.13048
21
-2.45376
0
LINE
8
BLACK
6
CONTINUOUS
10
6.13048
20
-2.45376
11
6.12703
21
-2.45546
0
LINE
8
BLACK
6
CONTINUOUS
10
6.12703
20
-2.45546
11
6.1232
21
-2.45571
0
LINE
8
BLACK
6
CONTINUOUS
10
6.1232
20
-2.45571
11
6.11957
21
-2.45447
0
LINE
8
BLACK
6
CONTINUOUS
10
6.11957
20
-2.45447
11
6.0957
21
-2.44069
0
LINE
8
BLACK
6
CONTINUOUS
10
6.0957
20
-2.44069
11
6.09281
21
-2.43816
0
LINE
8
BLACK
6
CONTINUOUS
10
6.09281
20
-2.43816
11
6.09111
21
-2.43472
0
LINE
8
BLACK
6
CONTINUOUS
10
6.09111
20
-2.43472
11
6.09086
21
-2.43089
0
LINE
8
BLACK
6
CONTINUOUS
10
6.09086
20
-2.43089
11
6.0921
21
-2.42725
0
LINE
8
BLACK
6
CONTINUOUS
10
6.0921
20
-2.42725
11
6.11769
21
-2.38293
0
LINE
8
BLACK
6
CONTINUOUS
10
6.11769
20
-2.38293
11
6.12022
21
-2.38004
0
LINE
8
BLACK
6
CONTINUOUS
10
6.12022
20
-2.38004
11
6.12366
21
-2.37834
0
LINE
8
BLACK
6
CONTINUOUS
10
6.12366
20
-2.37834
11
6.12749
21
-2.37809
0
LINE
8
BLACK
6
CONTINUOUS
10
6.12749
20
-2.37809
11
6.13113
21
-2.37932
0
LINE
8
BLACK
6
CONTINUOUS
10
5.76969
20
-2.40748
11
5.67913
21
-2.40748
0
LINE
8
BLACK
6
CONTINUOUS
10
5.67913
20
-2.40748
11
5.67913
21
-2.26969
0
LINE
8
BLACK
6
CONTINUOUS
10
5.67913
20
-2.26969
11
5.76969
21
-2.26969
0
LINE
8
BLACK
6
CONTINUOUS
10
5.76969
20
-2.26969
11
5.76969
21
-2.40748
0
LINE
8
BLACK
6
CONTINUOUS
10
5.00794
20
-2.30944
11
5.01138
21
-2.31114
0
LINE
8
BLACK
6
CONTINUOUS
10
5.01138
20
-2.31114
11
5.01392
21
-2.31403
0
LINE
8
BLACK
6
CONTINUOUS
10
5.01392
20
-2.31403
11
5.03951
21
-2.35835
0
LINE
8
BLACK
6
CONTINUOUS
10
5.03951
20
-2.35835
11
5.04074
21
-2.36199
0
LINE
8
BLACK
6
CONTINUOUS
10
5.04074
20
-2.36199
11
5.04049
21
-2.36582
0
LINE
8
BLACK
6
CONTINUOUS
10
5.04049
20
-2.36582
11
5.03879
21
-2.36927
0
LINE
8
BLACK
6
CONTINUOUS
10
5.03879
20
-2.36927
11
5.0359
21
-2.3718
0
LINE
8
BLACK
6
CONTINUOUS
10
5.0359
20
-2.3718
11
5.01204
21
-2.38558
0
LINE
8
BLACK
6
CONTINUOUS
10
5.01204
20
-2.38558
11
5.0084
21
-2.38681
0
LINE
8
BLACK
6
CONTINUOUS
10
5.0084
20
-2.38681
11
5.00457
21
-2.38656
0
LINE
8
BLACK
6
CONTINUOUS
10
5.00457
20
-2.38656
11
5.00112
21
-2.38486
0
LINE
8
BLACK
6
CONTINUOUS
10
5.00112
20
-2.38486
11
4.99859
21
-2.38197
0
LINE
8
BLACK
6
CONTINUOUS
10
4.99859
20
-2.38197
11
4.973
21
-2.33765
0
LINE
8
BLACK
6
CONTINUOUS
10
4.973
20
-2.33765
11
4.97177
21
-2.33401
0
LINE
8
BLACK
6
CONTINUOUS
10
4.97177
20
-2.33401
11
4.97202
21
-2.33018
0
LINE
8
BLACK
6
CONTINUOUS
10
4.97202
20
-2.33018
11
4.97372
21
-2.32674
0
LINE
8
BLACK
6
CONTINUOUS
10
4.97372
20
-2.32674
11
4.9766
21
-2.32421
0
LINE
8
BLACK
6
CONTINUOUS
10
4.9766
20
-2.32421
11
5.00047
21
-2.31043
0
LINE
8
BLACK
6
CONTINUOUS
10
5.00047
20
-2.31043
11
5.00411
21
-2.30919
0
LINE
8
BLACK
6
CONTINUOUS
10
5.00411
20
-2.30919
11
5.00794
21
-2.30944
0
LINE
8
BLACK
6
CONTINUOUS
10
6.00839
20
-2.30846
11
6.03225
21
-2.32224
0
LINE
8
BLACK
6
CONTINUOUS
10
6.03225
20
-2.32224
11
6.03514
21
-2.32477
0
LINE
8
BLACK
6
CONTINUOUS
10
6.03514
20
-2.32477
11
6.03684
21
-2.32821
0
LINE
8
BLACK
6
CONTINUOUS
10
6.03684
20
-2.32821
11
6.03709
21
-2.33205
0
LINE
8
BLACK
6
CONTINUOUS
10
6.03709
20
-2.33205
11
6.03586
21
-2.33568
0
LINE
8
BLACK
6
CONTINUOUS
10
6.03586
20
-2.33568
11
6.01027
21
-2.38001
0
LINE
8
BLACK
6
CONTINUOUS
10
6.01027
20
-2.38001
11
6.00773
21
-2.38289
0
LINE
8
BLACK
6
CONTINUOUS
10
6.00773
20
-2.38289
11
6.00429
21
-2.38459
0
LINE
8
BLACK
6
CONTINUOUS
10
6.00429
20
-2.38459
11
6.00046
21
-2.38484
0
LINE
8
BLACK
6
CONTINUOUS
10
6.00046
20
-2.38484
11
5.99682
21
-2.38361
0
LINE
8
BLACK
6
CONTINUOUS
10
5.99682
20
-2.38361
11
5.97295
21
-2.36983
0
LINE
8
BLACK
6
CONTINUOUS
10
5.97295
20
-2.36983
11
5.97007
21
-2.3673
0
LINE
8
BLACK
6
CONTINUOUS
10
5.97007
20
-2.3673
11
5.96837
21
-2.36385
0
LINE
8
BLACK
6
CONTINUOUS
10
5.96837
20
-2.36385
11
5.96812
21
-2.36002
0
LINE
8
BLACK
6
CONTINUOUS
10
5.96812
20
-2.36002
11
5.96935
21
-2.35638
0
LINE
8
BLACK
6
CONTINUOUS
10
5.96935
20
-2.35638
11
5.99494
21
-2.31206
0
LINE
8
BLACK
6
CONTINUOUS
10
5.99494
20
-2.31206
11
5.99747
21
-2.30917
0
LINE
8
BLACK
6
CONTINUOUS
10
5.99747
20
-2.30917
11
6.00092
21
-2.30747
0
LINE
8
BLACK
6
CONTINUOUS
10
6.00092
20
-2.30747
11
6.00475
21
-2.30722
0
LINE
8
BLACK
6
CONTINUOUS
10
6.00475
20
-2.30722
11
6.00839
21
-2.30846
0
LINE
8
BLACK
6
CONTINUOUS
10
5.24045
20
-2.29868
11
5.24236
21
-2.29996
0
LINE
8
BLACK
6
CONTINUOUS
10
5.24236
20
-2.29996
11
5.24364
21
-2.30187
0
LINE
8
BLACK
6
CONTINUOUS
10
5.24364
20
-2.30187
11
5.24409
21
-2.30413
0
LINE
8
BLACK
6
CONTINUOUS
10
5.24409
20
-2.30413
11
5.24409
21
-2.34449
0
LINE
8
BLACK
6
CONTINUOUS
10
5.24409
20
-2.34449
11
5.24364
21
-2.34675
0
LINE
8
BLACK
6
CONTINUOUS
10
5.24364
20
-2.34675
11
5.24236
21
-2.34866
0
LINE
8
BLACK
6
CONTINUOUS
10
5.24236
20
-2.34866
11
5.24045
21
-2.34994
0
LINE
8
BLACK
6
CONTINUOUS
10
5.24045
20
-2.34994
11
5.23819
21
-2.35039
0
LINE
8
BLACK
6
CONTINUOUS
10
5.23819
20
-2.35039
11
5.22638
21
-2.35039
0
LINE
8
BLACK
6
CONTINUOUS
10
5.22638
20
-2.35039
11
5.22412
21
-2.34994
0
LINE
8
BLACK
6
CONTINUOUS
10
5.22412
20
-2.34994
11
5.2222
21
-2.34866
0
LINE
8
BLACK
6
CONTINUOUS
10
5.2222
20
-2.34866
11
5.22092
21
-2.34675
0
LINE
8
BLACK
6
CONTINUOUS
10
5.22092
20
-2.34675
11
5.22047
21
-2.34449
0
LINE
8
BLACK
6
CONTINUOUS
10
5.22047
20
-2.34449
11
5.22047
21
-2.30413
0
LINE
8
BLACK
6
CONTINUOUS
10
5.22047
20
-2.30413
11
5.22092
21
-2.30187
0
LINE
8
BLACK
6
CONTINUOUS
10
5.22092
20
-2.30187
11
5.2222
21
-2.29996
0
LINE
8
BLACK
6
CONTINUOUS
10
5.2222
20
-2.29996
11
5.22412
21
-2.29868
0
LINE
8
BLACK
6
CONTINUOUS
10
5.22412
20
-2.29868
11
5.22638
21
-2.29823
0
LINE
8
BLACK
6
CONTINUOUS
10
5.22638
20
-2.29823
11
5.23819
21
-2.29823
0
LINE
8
BLACK
6
CONTINUOUS
10
5.23819
20
-2.29823
11
5.24045
21
-2.29868
0
LINE
8
BLACK
6
CONTINUOUS
10
5.27785
20
-2.29868
11
5.27977
21
-2.29996
0
LINE
8
BLACK
6
CONTINUOUS
10
5.27977
20
-2.29996
11
5.28105
21
-2.30187
0
LINE
8
BLACK
6
CONTINUOUS
10
5.28105
20
-2.30187
11
5.2815
21
-2.30413
0
LINE
8
BLACK
6
CONTINUOUS
10
5.2815
20
-2.30413
11
5.2815
21
-2.34449
0
LINE
8
BLACK
6
CONTINUOUS
10
5.2815
20
-2.34449
11
5.28105
21
-2.34675
0
LINE
8
BLACK
6
CONTINUOUS
10
5.28105
20
-2.34675
11
5.27977
21
-2.34866
0
LINE
8
BLACK
6
CONTINUOUS
10
5.27977
20
-2.34866
11
5.27785
21
-2.34994
0
LINE
8
BLACK
6
CONTINUOUS
10
5.27785
20
-2.34994
11
5.27559
21
-2.35039
0
LINE
8
BLACK
6
CONTINUOUS
10
5.27559
20
-2.35039
11
5.26378
21
-2.35039
0
LINE
8
BLACK
6
CONTINUOUS
10
5.26378
20
-2.35039
11
5.26152
21
-2.34994
0
LINE
8
BLACK
6
CONTINUOUS
10
5.26152
20
-2.34994
11
5.2596
21
-2.34866
0
LINE
8
BLACK
6
CONTINUOUS
10
5.2596
20
-2.34866
11
5.25832
21
-2.34675
0
LINE
8
BLACK
6
CONTINUOUS
10
5.25832
20
-2.34675
11
5.25787
21
-2.34449
0
LINE
8
BLACK
6
CONTINUOUS
10
5.25787
20
-2.34449
11
5.25787
21
-2.30413
0
LINE
8
BLACK
6
CONTINUOUS
10
5.25787
20
-2.30413
11
5.25832
21
-2.30187
0
LINE
8
BLACK
6
CONTINUOUS
10
5.25832
20
-2.30187
11
5.2596
21
-2.29996
0
LINE
8
BLACK
6
CONTINUOUS
10
5.2596
20
-2.29996
11
5.26152
21
-2.29868
0
LINE
8
BLACK
6
CONTINUOUS
10
5.26152
20
-2.29868
11
5.26378
21
-2.29823
0
LINE
8
BLACK
6
CONTINUOUS
10
5.26378
20
-2.29823
11
5.27559
21
-2.29823
0
LINE
8
BLACK
6
CONTINUOUS
10
5.27559
20
-2.29823
11
5.27785
21
-2.29868
0
LINE
8
BLACK
6
CONTINUOUS
10
5.31525
20
-2.29868
11
5.31717
21
-2.29996
0
LINE
8
BLACK
6
CONTINUOUS
10
5.31717
20
-2.29996
11
5.31845
21
-2.30187
0
LINE
8
BLACK
6
CONTINUOUS
10
5.31845
20
-2.30187
11
5.3189
21
-2.30413
0
LINE
8
BLACK
6
CONTINUOUS
10
5.3189
20
-2.30413
11
5.3189
21
-2.34449
0
LINE
8
BLACK
6
CONTINUOUS
10
5.3189
20
-2.34449
11
5.31845
21
-2.34675
0
LINE
8
BLACK
6
CONTINUOUS
10
5.31845
20
-2.34675
11
5.31717
21
-2.34866
0
LINE
8
BLACK
6
CONTINUOUS
10
5.31717
20
-2.34866
11
5.31525
21
-2.34994
0
LINE
8
BLACK
6
CONTINUOUS
10
5.31525
20
-2.34994
11
5.31299
21
-2.35039
0
LINE
8
BLACK
6
CONTINUOUS
10
5.31299
20
-2.35039
11
5.30118
21
-2.35039
0
LINE
8
BLACK
6
CONTINUOUS
10
5.30118
20
-2.35039
11
5.29892
21
-2.34994
0
LINE
8
BLACK
6
CONTINUOUS
10
5.29892
20
-2.34994
11
5.29701
21
-2.34866
0
LINE
8
BLACK
6
CONTINUOUS
10
5.29701
20
-2.34866
11
5.29573
21
-2.34675
0
LINE
8
BLACK
6
CONTINUOUS
10
5.29573
20
-2.34675
11
5.29528
21
-2.34449
0
LINE
8
BLACK
6
CONTINUOUS
10
5.29528
20
-2.34449
11
5.29528
21
-2.30413
0
LINE
8
BLACK
6
CONTINUOUS
10
5.29528
20
-2.30413
11
5.29573
21
-2.30187
0
LINE
8
BLACK
6
CONTINUOUS
10
5.29573
20
-2.30187
11
5.29701
21
-2.29996
0
LINE
8
BLACK
6
CONTINUOUS
10
5.29701
20
-2.29996
11
5.29892
21
-2.29868
0
LINE
8
BLACK
6
CONTINUOUS
10
5.29892
20
-2.29868
11
5.30118
21
-2.29823
0
LINE
8
BLACK
6
CONTINUOUS
10
5.30118
20
-2.29823
11
5.31299
21
-2.29823
0
LINE
8
BLACK
6
CONTINUOUS
10
5.31299
20
-2.29823
11
5.31525
21
-2.29868
0
LINE
8
BLACK
6
CONTINUOUS
10
5.44077
20
-2.30587
11
5.44397
21
-2.308
0
LINE
8
BLACK
6
CONTINUOUS
10
5.44397
20
-2.308
11
5.4461
21
-2.31119
0
LINE
8
BLACK
6
CONTINUOUS
10
5.4461
20
-2.31119
11
5.44685
21
-2.31496
0
LINE
8
BLACK
6
CONTINUOUS
10
5.44685
20
-2.31496
11
5.44685
21
-2.33661
0
LINE
8
BLACK
6
CONTINUOUS
10
5.44685
20
-2.33661
11
5.4461
21
-2.34038
0
LINE
8
BLACK
6
CONTINUOUS
10
5.4461
20
-2.34038
11
5.44397
21
-2.34357
0
LINE
8
BLACK
6
CONTINUOUS
10
5.44397
20
-2.34357
11
5.44077
21
-2.34571
0
LINE
8
BLACK
6
CONTINUOUS
10
5.44077
20
-2.34571
11
5.43701
21
-2.34646
0
LINE
8
BLACK
6
CONTINUOUS
10
5.43701
20
-2.34646
11
5.38189
21
-2.34646
0
LINE
8
BLACK
6
CONTINUOUS
10
5.38189
20
-2.34646
11
5.37812
21
-2.34571
0
LINE
8
BLACK
6
CONTINUOUS
10
5.37812
20
-2.34571
11
5.37493
21
-2.34357
0
LINE
8
BLACK
6
CONTINUOUS
10
5.37493
20
-2.34357
11
5.3728
21
-2.34038
0
LINE
8
BLACK
6
CONTINUOUS
10
5.3728
20
-2.34038
11
5.37205
21
-2.33661
0
LINE
8
BLACK
6
CONTINUOUS
10
5.37205
20
-2.33661
11
5.37205
21
-2.31496
0
LINE
8
BLACK
6
CONTINUOUS
10
5.37205
20
-2.31496
11
5.3728
21
-2.31119
0
LINE
8
BLACK
6
CONTINUOUS
10
5.3728
20
-2.31119
11
5.37493
21
-2.308
0
LINE
8
BLACK
6
CONTINUOUS
10
5.37493
20
-2.308
11
5.37812
21
-2.30587
0
LINE
8
BLACK
6
CONTINUOUS
10
5.37812
20
-2.30587
11
5.38189
21
-2.30512
0
LINE
8
BLACK
6
CONTINUOUS
10
5.38189
20
-2.30512
11
5.43701
21
-2.30512
0
LINE
8
BLACK
6
CONTINUOUS
10
5.43701
20
-2.30512
11
5.44077
21
-2.30587
0
LINE
8
BLACK
6
CONTINUOUS
10
4.87247
20
-2.27722
11
4.87454
21
-2.27824
0
LINE
8
BLACK
6
CONTINUOUS
10
4.87454
20
-2.27824
11
4.87605
21
-2.27997
0
LINE
8
BLACK
6
CONTINUOUS
10
4.87605
20
-2.27997
11
4.90066
21
-2.32259
0
LINE
8
BLACK
6
CONTINUOUS
10
4.90066
20
-2.32259
11
4.9014
21
-2.32477
0
LINE
8
BLACK
6
CONTINUOUS
10
4.9014
20
-2.32477
11
4.90125
21
-2.32707
0
LINE
8
BLACK
6
CONTINUOUS
10
4.90125
20
-2.32707
11
4.90023
21
-2.32914
0
LINE
8
BLACK
6
CONTINUOUS
10
4.90023
20
-2.32914
11
4.8985
21
-2.33066
0
LINE
8
BLACK
6
CONTINUOUS
10
4.8985
20
-2.33066
11
4.88827
21
-2.33656
0
LINE
8
BLACK
6
CONTINUOUS
10
4.88827
20
-2.33656
11
4.88609
21
-2.3373
0
LINE
8
BLACK
6
CONTINUOUS
10
4.88609
20
-2.3373
11
4.88379
21
-2.33715
0
LINE
8
BLACK
6
CONTINUOUS
10
4.88379
20
-2.33715
11
4.88172
21
-2.33613
0
LINE
8
BLACK
6
CONTINUOUS
10
4.88172
20
-2.33613
11
4.8802
21
-2.3344
0
LINE
8
BLACK
6
CONTINUOUS
10
4.8802
20
-2.3344
11
4.8556
21
-2.29178
0
LINE
8
BLACK
6
CONTINUOUS
10
4.8556
20
-2.29178
11
4.85486
21
-2.2896
0
LINE
8
BLACK
6
CONTINUOUS
10
4.85486
20
-2.2896
11
4.85501
21
-2.2873
0
LINE
8
BLACK
6
CONTINUOUS
10
4.85501
20
-2.2873
11
4.85603
21
-2.28523
0
LINE
8
BLACK
6
CONTINUOUS
10
4.85603
20
-2.28523
11
4.85776
21
-2.28371
0
LINE
8
BLACK
6
CONTINUOUS
10
4.85776
20
-2.28371
11
4.86799
21
-2.27781
0
LINE
8
BLACK
6
CONTINUOUS
10
4.86799
20
-2.27781
11
4.87017
21
-2.27707
0
LINE
8
BLACK
6
CONTINUOUS
10
4.87017
20
-2.27707
11
4.87247
21
-2.27722
0
LINE
8
BLACK
6
CONTINUOUS
10
6.14087
20
-2.27584
11
6.1511
21
-2.28175
0
LINE
8
BLACK
6
CONTINUOUS
10
6.1511
20
-2.28175
11
6.15283
21
-2.28327
0
LINE
8
BLACK
6
CONTINUOUS
10
6.15283
20
-2.28327
11
6.15385
21
-2.28533
0
LINE
8
BLACK
6
CONTINUOUS
10
6.15385
20
-2.28533
11
6.154
21
-2.28763
0
LINE
8
BLACK
6
CONTINUOUS
10
6.154
20
-2.28763
11
6.15326
21
-2.28981
0
LINE
8
BLACK
6
CONTINUOUS
10
6.15326
20
-2.28981
11
6.12865
21
-2.33243
0
LINE
8
BLACK
6
CONTINUOUS
10
6.12865
20
-2.33243
11
6.12714
21
-2.33416
0
LINE
8
BLACK
6
CONTINUOUS
10
6.12714
20
-2.33416
11
6.12507
21
-2.33518
0
LINE
8
BLACK
6
CONTINUOUS
10
6.12507
20
-2.33518
11
6.12277
21
-2.33533
0
LINE
8
BLACK
6
CONTINUOUS
10
6.12277
20
-2.33533
11
6.12059
21
-2.33459
0
LINE
8
BLACK
6
CONTINUOUS
10
6.12059
20
-2.33459
11
6.11036
21
-2.32869
0
LINE
8
BLACK
6
CONTINUOUS
10
6.11036
20
-2.32869
11
6.10863
21
-2.32717
0
LINE
8
BLACK
6
CONTINUOUS
10
6.10863
20
-2.32717
11
6.10761
21
-2.3251
0
LINE
8
BLACK
6
CONTINUOUS
10
6.10761
20
-2.3251
11
6.10746
21
-2.3228
0
LINE
8
BLACK
6
CONTINUOUS
10
6.10746
20
-2.3228
11
6.1082
21
-2.32062
0
LINE
8
BLACK
6
CONTINUOUS
10
6.1082
20
-2.32062
11
6.1328
21
-2.278
0
LINE
8
BLACK
6
CONTINUOUS
10
6.1328
20
-2.278
11
6.13432
21
-2.27627
0
LINE
8
BLACK
6
CONTINUOUS
10
6.13432
20
-2.27627
11
6.13639
21
-2.27525
0
LINE
8
BLACK
6
CONTINUOUS
10
6.13639
20
-2.27525
11
6.13869
21
-2.2751
0
LINE
8
BLACK
6
CONTINUOUS
10
6.13869
20
-2.2751
11
6.14087
21
-2.27584
0
LINE
8
BLACK
6
CONTINUOUS
10
4.90656
20
-2.25753
11
4.90863
21
-2.25855
0
LINE
8
BLACK
6
CONTINUOUS
10
4.90863
20
-2.25855
11
4.91015
21
-2.26029
0
LINE
8
BLACK
6
CONTINUOUS
10
4.91015
20
-2.26029
11
4.93476
21
-2.3029
0
LINE
8
BLACK
6
CONTINUOUS
10
4.93476
20
-2.3029
11
4.9355
21
-2.30509
0
LINE
8
BLACK
6
CONTINUOUS
10
4.9355
20
-2.30509
11
4.93535
21
-2.30739
0
LINE
8
BLACK
6
CONTINUOUS
10
4.93535
20
-2.30739
11
4.93433
21
-2.30945
0
LINE
8
BLACK
6
CONTINUOUS
10
4.93433
20
-2.30945
11
4.9326
21
-2.31097
0
LINE
8
BLACK
6
CONTINUOUS
10
4.9326
20
-2.31097
11
4.92237
21
-2.31688
0
LINE
8
BLACK
6
CONTINUOUS
10
4.92237
20
-2.31688
11
4.92018
21
-2.31762
0
LINE
8
BLACK
6
CONTINUOUS
10
4.92018
20
-2.31762
11
4.91789
21
-2.31747
0
LINE
8
BLACK
6
CONTINUOUS
10
4.91789
20
-2.31747
11
4.91582
21
-2.31645
0
LINE
8
BLACK
6
CONTINUOUS
10
4.91582
20
-2.31645
11
4.9143
21
-2.31472
0
LINE
8
BLACK
6
CONTINUOUS
10
4.9143
20
-2.31472
11
4.88969
21
-2.2721
0
LINE
8
BLACK
6
CONTINUOUS
10
4.88969
20
-2.2721
11
4.88895
21
-2.26991
0
LINE
8
BLACK
6
CONTINUOUS
10
4.88895
20
-2.26991
11
4.8891
21
-2.26762
0
LINE
8
BLACK
6
CONTINUOUS
10
4.8891
20
-2.26762
11
4.89012
21
-2.26555
0
LINE
8
BLACK
6
CONTINUOUS
10
4.89012
20
-2.26555
11
4.89185
21
-2.26403
0
LINE
8
BLACK
6
CONTINUOUS
10
4.89185
20
-2.26403
11
4.90208
21
-2.25812
0
LINE
8
BLACK
6
CONTINUOUS
10
4.90208
20
-2.25812
11
4.90427
21
-2.25738
0
LINE
8
BLACK
6
CONTINUOUS
10
4.90427
20
-2.25738
11
4.90656
21
-2.25753
0
LINE
8
BLACK
6
CONTINUOUS
10
6.10677
20
-2.25616
11
6.117
21
-2.26206
0
LINE
8
BLACK
6
CONTINUOUS
10
6.117
20
-2.26206
11
6.11874
21
-2.26358
0
LINE
8
BLACK
6
CONTINUOUS
10
6.11874
20
-2.26358
11
6.11976
21
-2.26565
0
LINE
8
BLACK
6
CONTINUOUS
10
6.11976
20
-2.26565
11
6.11991
21
-2.26795
0
LINE
8
BLACK
6
CONTINUOUS
10
6.11991
20
-2.26795
11
6.11917
21
-2.27013
0
LINE
8
BLACK
6
CONTINUOUS
10
6.11917
20
-2.27013
11
6.09456
21
-2.31275
0
LINE
8
BLACK
6
CONTINUOUS
10
6.09456
20
-2.31275
11
6.09304
21
-2.31448
0
LINE
8
BLACK
6
CONTINUOUS
10
6.09304
20
-2.31448
11
6.09097
21
-2.3155
0
LINE
8
BLACK
6
CONTINUOUS
10
6.09097
20
-2.3155
11
6.08867
21
-2.31565
0
LINE
8
BLACK
6
CONTINUOUS
10
6.08867
20
-2.31565
11
6.08649
21
-2.31491
0
LINE
8
BLACK
6
CONTINUOUS
10
6.08649
20
-2.31491
11
6.07626
21
-2.309
0
LINE
8
BLACK
6
CONTINUOUS
10
6.07626
20
-2.309
11
6.07453
21
-2.30748
0
LINE
8
BLACK
6
CONTINUOUS
10
6.07453
20
-2.30748
11
6.07351
21
-2.30542
0
LINE
8
BLACK
6
CONTINUOUS
10
6.07351
20
-2.30542
11
6.07336
21
-2.30312
0
LINE
8
BLACK
6
CONTINUOUS
10
6.07336
20
-2.30312
11
6.0741
21
-2.30094
0
LINE
8
BLACK
6
CONTINUOUS
10
6.0741
20
-2.30094
11
6.09871
21
-2.25832
0
LINE
8
BLACK
6
CONTINUOUS
10
6.09871
20
-2.25832
11
6.10023
21
-2.25658
0
LINE
8
BLACK
6
CONTINUOUS
10
6.10023
20
-2.25658
11
6.10229
21
-2.25557
0
LINE
8
BLACK
6
CONTINUOUS
10
6.10229
20
-2.25557
11
6.10459
21
-2.25541
0
LINE
8
BLACK
6
CONTINUOUS
10
6.10459
20
-2.25541
11
6.10677
21
-2.25616
0
LINE
8
BLACK
6
CONTINUOUS
10
5.31525
20
-2.20911
11
5.31717
21
-2.21039
0
LINE
8
BLACK
6
CONTINUOUS
10
5.31717
20
-2.21039
11
5.31845
21
-2.21231
0
LINE
8
BLACK
6
CONTINUOUS
10
5.31845
20
-2.21231
11
5.3189
21
-2.21457
0
LINE
8
BLACK
6
CONTINUOUS
10
5.3189
20
-2.21457
11
5.3189
21
-2.25492
0
LINE
8
BLACK
6
CONTINUOUS
10
5.3189
20
-2.25492
11
5.31845
21
-2.25718
0
LINE
8
BLACK
6
CONTINUOUS
10
5.31845
20
-2.25718
11
5.31717
21
-2.2591
0
LINE
8
BLACK
6
CONTINUOUS
10
5.31717
20
-2.2591
11
5.31525
21
-2.26038
0
LINE
8
BLACK
6
CONTINUOUS
10
5.31525
20
-2.26038
11
5.31299
21
-2.26083
0
LINE
8
BLACK
6
CONTINUOUS
10
5.31299
20
-2.26083
11
5.30118
21
-2.26083
0
LINE
8
BLACK
6
CONTINUOUS
10
5.30118
20
-2.26083
11
5.29892
21
-2.26038
0
LINE
8
BLACK
6
CONTINUOUS
10
5.29892
20
-2.26038
11
5.29701
21
-2.2591
0
LINE
8
BLACK
6
CONTINUOUS
10
5.29701
20
-2.2591
11
5.29573
21
-2.25718
0
LINE
8
BLACK
6
CONTINUOUS
10
5.29573
20
-2.25718
11
5.29528
21
-2.25492
0
LINE
8
BLACK
6
CONTINUOUS
10
5.29528
20
-2.25492
11
5.29528
21
-2.21457
0
LINE
8
BLACK
6
CONTINUOUS
10
5.29528
20
-2.21457
11
5.29573
21
-2.21231
0
LINE
8
BLACK
6
CONTINUOUS
10
5.29573
20
-2.21231
11
5.29701
21
-2.21039
0
LINE
8
BLACK
6
CONTINUOUS
10
5.29701
20
-2.21039
11
5.29892
21
-2.20911
0
LINE
8
BLACK
6
CONTINUOUS
10
5.29892
20
-2.20911
11
5.30118
21
-2.20866
0
LINE
8
BLACK
6
CONTINUOUS
10
5.30118
20
-2.20866
11
5.31299
21
-2.20866
0
LINE
8
BLACK
6
CONTINUOUS
10
5.31299
20
-2.20866
11
5.31525
21
-2.20911
0
LINE
8
BLACK
6
CONTINUOUS
10
5.24045
20
-2.20911
11
5.24236
21
-2.21039
0
LINE
8
BLACK
6
CONTINUOUS
10
5.24236
20
-2.21039
11
5.24364
21
-2.21231
0
LINE
8
BLACK
6
CONTINUOUS
10
5.24364
20
-2.21231
11
5.24409
21
-2.21457
0
LINE
8
BLACK
6
CONTINUOUS
10
5.24409
20
-2.21457
11
5.24409
21
-2.25492
0
LINE
8
BLACK
6
CONTINUOUS
10
5.24409
20
-2.25492
11
5.24364
21
-2.25718
0
LINE
8
BLACK
6
CONTINUOUS
10
5.24364
20
-2.25718
11
5.24236
21
-2.2591
0
LINE
8
BLACK
6
CONTINUOUS
10
5.24236
20
-2.2591
11
5.24045
21
-2.26038
0
LINE
8
BLACK
6
CONTINUOUS
10
5.24045
20
-2.26038
11
5.23819
21
-2.26083
0
LINE
8
BLACK
6
CONTINUOUS
10
5.23819
20
-2.26083
11
5.22638
21
-2.26083
0
LINE
8
BLACK
6
CONTINUOUS
10
5.22638
20
-2.26083
11
5.22412
21
-2.26038
0
LINE
8
BLACK
6
CONTINUOUS
10
5.22412
20
-2.26038
11
5.2222
21
-2.2591
0
LINE
8
BLACK
6
CONTINUOUS
10
5.2222
20
-2.2591
11
5.22092
21
-2.25718
0
LINE
8
BLACK
6
CONTINUOUS
10
5.22092
20
-2.25718
11
5.22047
21
-2.25492
0
LINE
8
BLACK
6
CONTINUOUS
10
5.22047
20
-2.25492
11
5.22047
21
-2.21457
0
LINE
8
BLACK
6
CONTINUOUS
10
5.22047
20
-2.21457
11
5.22092
21
-2.21231
0
LINE
8
BLACK
6
CONTINUOUS
10
5.22092
20
-2.21231
11
5.2222
21
-2.21039
0
LINE
8
BLACK
6
CONTINUOUS
10
5.2222
20
-2.21039
11
5.22412
21
-2.20911
0
LINE
8
BLACK
6
CONTINUOUS
10
5.22412
20
-2.20911
11
5.22638
21
-2.20866
0
LINE
8
BLACK
6
CONTINUOUS
10
5.22638
20
-2.20866
11
5.23819
21
-2.20866
0
LINE
8
BLACK
6
CONTINUOUS
10
5.23819
20
-2.20866
11
5.24045
21
-2.20911
0
LINE
8
BLACK
6
CONTINUOUS
10
5.44077
20
-2.18185
11
5.44397
21
-2.18399
0
LINE
8
BLACK
6
CONTINUOUS
10
5.44397
20
-2.18399
11
5.4461
21
-2.18718
0
LINE
8
BLACK
6
CONTINUOUS
10
5.4461
20
-2.18718
11
5.44685
21
-2.19094
0
LINE
8
BLACK
6
CONTINUOUS
10
5.44685
20
-2.19094
11
5.44685
21
-2.2126
0
LINE
8
BLACK
6
CONTINUOUS
10
5.44685
20
-2.2126
11
5.4461
21
-2.21637
0
LINE
8
BLACK
6
CONTINUOUS
10
5.4461
20
-2.21637
11
5.44397
21
-2.21956
0
LINE
8
BLACK
6
CONTINUOUS
10
5.44397
20
-2.21956
11
5.44077
21
-2.22169
0
LINE
8
BLACK
6
CONTINUOUS
10
5.44077
20
-2.22169
11
5.43701
21
-2.22244
0
LINE
8
BLACK
6
CONTINUOUS
10
5.43701
20
-2.22244
11
5.38189
21
-2.22244
0
LINE
8
BLACK
6
CONTINUOUS
10
5.38189
20
-2.22244
11
5.37812
21
-2.22169
0
LINE
8
BLACK
6
CONTINUOUS
10
5.37812
20
-2.22169
11
5.37493
21
-2.21956
0
LINE
8
BLACK
6
CONTINUOUS
10
5.37493
20
-2.21956
11
5.3728
21
-2.21637
0
LINE
8
BLACK
6
CONTINUOUS
10
5.3728
20
-2.21637
11
5.37205
21
-2.2126
0
LINE
8
BLACK
6
CONTINUOUS
10
5.37205
20
-2.2126
11
5.37205
21
-2.19094
0
LINE
8
BLACK
6
CONTINUOUS
10
5.37205
20
-2.19094
11
5.3728
21
-2.18718
0
LINE
8
BLACK
6
CONTINUOUS
10
5.3728
20
-2.18718
11
5.37493
21
-2.18399
0
LINE
8
BLACK
6
CONTINUOUS
10
5.37493
20
-2.18399
11
5.37812
21
-2.18185
0
LINE
8
BLACK
6
CONTINUOUS
10
5.37812
20
-2.18185
11
5.38189
21
-2.1811
0
LINE
8
BLACK
6
CONTINUOUS
10
5.38189
20
-2.1811
11
5.43701
21
-2.1811
0
LINE
8
BLACK
6
CONTINUOUS
10
5.43701
20
-2.1811
11
5.44077
21
-2.18185
0
LINE
8
BLACK
6
CONTINUOUS
10
5.24589
20
-2.14248
11
5.24909
21
-2.14462
0
LINE
8
BLACK
6
CONTINUOUS
10
5.24909
20
-2.14462
11
5.25122
21
-2.14781
0
LINE
8
BLACK
6
CONTINUOUS
10
5.25122
20
-2.14781
11
5.25197
21
-2.15157
0
LINE
8
BLACK
6
CONTINUOUS
10
5.25197
20
-2.15157
11
5.25197
21
-2.17224
0
LINE
8
BLACK
6
CONTINUOUS
10
5.25197
20
-2.17224
11
5.25122
21
-2.17601
0
LINE
8
BLACK
6
CONTINUOUS
10
5.25122
20
-2.17601
11
5.24909
21
-2.1792
0
LINE
8
BLACK
6
CONTINUOUS
10
5.24909
20
-2.1792
11
5.24589
21
-2.18134
0
LINE
8
BLACK
6
CONTINUOUS
10
5.24589
20
-2.18134
11
5.24213
21
-2.18209
0
LINE
8
BLACK
6
CONTINUOUS
10
5.24213
20
-2.18209
11
5.20669
21
-2.18209
0
LINE
8
BLACK
6
CONTINUOUS
10
5.20669
20
-2.18209
11
5.20293
21
-2.18134
0
LINE
8
BLACK
6
CONTINUOUS
10
5.20293
20
-2.18134
11
5.19973
21
-2.1792
0
LINE
8
BLACK
6
CONTINUOUS
10
5.19973
20
-2.1792
11
5.1976
21
-2.17601
0
LINE
8
BLACK
6
CONTINUOUS
10
5.1976
20
-2.17601
11
5.19685
21
-2.17224
0
LINE
8
BLACK
6
CONTINUOUS
10
5.19685
20
-2.17224
11
5.19685
21
-2.15157
0
LINE
8
BLACK
6
CONTINUOUS
10
5.19685
20
-2.15157
11
5.1976
21
-2.14781
0
LINE
8
BLACK
6
CONTINUOUS
10
5.1976
20
-2.14781
11
5.19973
21
-2.14462
0
LINE
8
BLACK
6
CONTINUOUS
10
5.19973
20
-2.14462
11
5.20293
21
-2.14248
0
LINE
8
BLACK
6
CONTINUOUS
10
5.20293
20
-2.14248
11
5.20669
21
-2.14173
0
LINE
8
BLACK
6
CONTINUOUS
10
5.20669
20
-2.14173
11
5.24213
21
-2.14173
0
LINE
8
BLACK
6
CONTINUOUS
10
5.24213
20
-2.14173
11
5.24589
21
-2.14248
0
LINE
8
BLACK
6
CONTINUOUS
10
5.43881
20
-2.08343
11
5.442
21
-2.08556
0
LINE
8
BLACK
6
CONTINUOUS
10
5.442
20
-2.08556
11
5.44413
21
-2.08875
0
LINE
8
BLACK
6
CONTINUOUS
10
5.44413
20
-2.08875
11
5.44488
21
-2.09252
0
LINE
8
BLACK
6
CONTINUOUS
10
5.44488
20
-2.09252
11
5.44488
21
-2.11811
0
LINE
8
BLACK
6
CONTINUOUS
10
5.44488
20
-2.11811
11
5.44413
21
-2.12188
0
LINE
8
BLACK
6
CONTINUOUS
10
5.44413
20
-2.12188
11
5.442
21
-2.12507
0
LINE
8
BLACK
6
CONTINUOUS
10
5.442
20
-2.12507
11
5.43881
21
-2.1272
0
LINE
8
BLACK
6
CONTINUOUS
10
5.43881
20
-2.1272
11
5.43504
21
-2.12795
0
LINE
8
BLACK
6
CONTINUOUS
10
5.43504
20
-2.12795
11
5.38386
21
-2.12795
0
LINE
8
BLACK
6
CONTINUOUS
10
5.38386
20
-2.12795
11
5.38009
21
-2.1272
0
LINE
8
BLACK
6
CONTINUOUS
10
5.38009
20
-2.1272
11
5.3769
21
-2.12507
0
LINE
8
BLACK
6
CONTINUOUS
10
5.3769
20
-2.12507
11
5.37476
21
-2.12188
0
LINE
8
BLACK
6
CONTINUOUS
10
5.37476
20
-2.12188
11
5.37402
21
-2.11811
0
LINE
8
BLACK
6
CONTINUOUS
10
5.37402
20
-2.11811
11
5.37402
21
-2.09252
0
LINE
8
BLACK
6
CONTINUOUS
10
5.37402
20
-2.09252
11
5.37476
21
-2.08875
0
LINE
8
BLACK
6
CONTINUOUS
10
5.37476
20
-2.08875
11
5.3769
21
-2.08556
0
LINE
8
BLACK
6
CONTINUOUS
10
5.3769
20
-2.08556
11
5.38009
21
-2.08343
0
LINE
8
BLACK
6
CONTINUOUS
10
5.38009
20
-2.08343
11
5.38386
21
-2.08268
0
LINE
8
BLACK
6
CONTINUOUS
10
5.38386
20
-2.08268
11
5.43504
21
-2.08268
0
LINE
8
BLACK
6
CONTINUOUS
10
5.43504
20
-2.08268
11
5.43881
21
-2.08343
0
LINE
8
BLACK
6
CONTINUOUS
10
5.24589
20
-2.07063
11
5.24909
21
-2.07276
0
LINE
8
BLACK
6
CONTINUOUS
10
5.24909
20
-2.07276
11
5.25122
21
-2.07596
0
LINE
8
BLACK
6
CONTINUOUS
10
5.25122
20
-2.07596
11
5.25197
21
-2.07972
0
LINE
8
BLACK
6
CONTINUOUS
10
5.25197
20
-2.07972
11
5.25197
21
-2.10039
0
LINE
8
BLACK
6
CONTINUOUS
10
5.25197
20
-2.10039
11
5.25122
21
-2.10416
0
LINE
8
BLACK
6
CONTINUOUS
10
5.25122
20
-2.10416
11
5.24909
21
-2.10735
0
LINE
8
BLACK
6
CONTINUOUS
10
5.24909
20
-2.10735
11
5.24589
21
-2.10949
0
LINE
8
BLACK
6
CONTINUOUS
10
5.24589
20
-2.10949
11
5.24213
21
-2.11024
0
LINE
8
BLACK
6
CONTINUOUS
10
5.24213
20
-2.11024
11
5.20669
21
-2.11024
0
LINE
8
BLACK
6
CONTINUOUS
10
5.20669
20
-2.11024
11
5.20293
21
-2.10949
0
LINE
8
BLACK
6
CONTINUOUS
10
5.20293
20
-2.10949
11
5.19973
21
-2.10735
0
LINE
8
BLACK
6
CONTINUOUS
10
5.19973
20
-2.10735
11
5.1976
21
-2.10416
0
LINE
8
BLACK
6
CONTINUOUS
10
5.1976
20
-2.10416
11
5.19685
21
-2.10039
0
LINE
8
BLACK
6
CONTINUOUS
10
5.19685
20
-2.10039
11
5.19685
21
-2.07972
0
LINE
8
BLACK
6
CONTINUOUS
10
5.19685
20
-2.07972
11
5.1976
21
-2.07596
0
LINE
8
BLACK
6
CONTINUOUS
10
5.1976
20
-2.07596
11
5.19973
21
-2.07276
0
LINE
8
BLACK
6
CONTINUOUS
10
5.19973
20
-2.07276
11
5.20293
21
-2.07063
0
LINE
8
BLACK
6
CONTINUOUS
10
5.20293
20
-2.07063
11
5.20669
21
-2.06988
0
LINE
8
BLACK
6
CONTINUOUS
10
5.20669
20
-2.06988
11
5.24213
21
-2.06988
0
LINE
8
BLACK
6
CONTINUOUS
10
5.24213
20
-2.06988
11
5.24589
21
-2.07063
0
LINE
8
BLACK
6
CONTINUOUS
10
5.43881
20
-1.96728
11
5.442
21
-1.96942
0
LINE
8
BLACK
6
CONTINUOUS
10
5.442
20
-1.96942
11
5.44413
21
-1.97261
0
LINE
8
BLACK
6
CONTINUOUS
10
5.44413
20
-1.97261
11
5.44488
21
-1.97638
0
LINE
8
BLACK
6
CONTINUOUS
10
5.44488
20
-1.97638
11
5.44488
21
-2.00197
0
LINE
8
BLACK
6
CONTINUOUS
10
5.44488
20
-2.00197
11
5.44413
21
-2.00574
0
LINE
8
BLACK
6
CONTINUOUS
10
5.44413
20
-2.00574
11
5.442
21
-2.00893
0
LINE
8
BLACK
6
CONTINUOUS
10
5.442
20
-2.00893
11
5.43881
21
-2.01106
0
LINE
8
BLACK
6
CONTINUOUS
10
5.43881
20
-2.01106
11
5.43504
21
-2.01181
0
LINE
8
BLACK
6
CONTINUOUS
10
5.43504
20
-2.01181
11
5.38386
21
-2.01181
0
LINE
8
BLACK
6
CONTINUOUS
10
5.38386
20
-2.01181
11
5.38009
21
-2.01106
0
LINE
8
BLACK
6
CONTINUOUS
10
5.38009
20
-2.01106
11
5.3769
21
-2.00893
0
LINE
8
BLACK
6
CONTINUOUS
10
5.3769
20
-2.00893
11
5.37476
21
-2.00574
0
LINE
8
BLACK
6
CONTINUOUS
10
5.37476
20
-2.00574
11
5.37402
21
-2.00197
0
LINE
8
BLACK
6
CONTINUOUS
10
5.37402
20
-2.00197
11
5.37402
21
-1.97638
0
LINE
8
BLACK
6
CONTINUOUS
10
5.37402
20
-1.97638
11
5.37476
21
-1.97261
0
LINE
8
BLACK
6
CONTINUOUS
10
5.37476
20
-1.97261
11
5.3769
21
-1.96942
0
LINE
8
BLACK
6
CONTINUOUS
10
5.3769
20
-1.96942
11
5.38009
21
-1.96728
0
LINE
8
BLACK
6
CONTINUOUS
10
5.38009
20
-1.96728
11
5.38386
21
-1.96654
0
LINE
8
BLACK
6
CONTINUOUS
10
5.38386
20
-1.96654
11
5.43504
21
-1.96654
0
LINE
8
BLACK
6
CONTINUOUS
10
5.43504
20
-1.96654
11
5.43881
21
-1.96728
  0
ENDSEC
  0
EOF
